G04 #@! TF.GenerationSoftware,KiCad,Pcbnew,8.0.4*
G04 #@! TF.CreationDate,2024-09-19T22:50:53+02:00*
G04 #@! TF.ProjectId,Fader_Breakout,46616465-725f-4427-9265-616b6f75742e,rev?*
G04 #@! TF.SameCoordinates,Original*
G04 #@! TF.FileFunction,Legend,Top*
G04 #@! TF.FilePolarity,Positive*
%FSLAX46Y46*%
G04 Gerber Fmt 4.6, Leading zero omitted, Abs format (unit mm)*
G04 Created by KiCad (PCBNEW 8.0.4) date 2024-09-19 22:50:53*
%MOMM*%
%LPD*%
G01*
G04 APERTURE LIST*
G04 Aperture macros list*
%AMRoundRect*
0 Rectangle with rounded corners*
0 $1 Rounding radius*
0 $2 $3 $4 $5 $6 $7 $8 $9 X,Y pos of 4 corners*
0 Add a 4 corners polygon primitive as box body*
4,1,4,$2,$3,$4,$5,$6,$7,$8,$9,$2,$3,0*
0 Add four circle primitives for the rounded corners*
1,1,$1+$1,$2,$3*
1,1,$1+$1,$4,$5*
1,1,$1+$1,$6,$7*
1,1,$1+$1,$8,$9*
0 Add four rect primitives between the rounded corners*
20,1,$1+$1,$2,$3,$4,$5,0*
20,1,$1+$1,$4,$5,$6,$7,0*
20,1,$1+$1,$6,$7,$8,$9,0*
20,1,$1+$1,$8,$9,$2,$3,0*%
G04 Aperture macros list end*
%ADD10C,0.100000*%
%ADD11C,0.150000*%
%ADD12C,0.120000*%
%ADD13R,1.700000X1.700000*%
%ADD14O,1.700000X1.700000*%
%ADD15C,2.000000*%
%ADD16C,3.000000*%
%ADD17RoundRect,0.250001X0.899999X0.899999X-0.899999X0.899999X-0.899999X-0.899999X0.899999X-0.899999X0*%
%ADD18C,2.300000*%
G04 APERTURE END LIST*
D10*
X156750000Y-98500000D02*
X158750000Y-98500000D01*
X158750000Y-101000000D02*
X153250000Y-101000000D01*
X153250000Y-98500000D02*
X155250000Y-98500000D01*
X153250000Y-101000000D02*
X153250000Y-98500000D01*
X158750000Y-98500000D02*
X158750000Y-101000000D01*
D11*
X117908207Y-98054692D02*
X117860588Y-98102312D01*
X117860588Y-98102312D02*
X117717731Y-98149931D01*
X117717731Y-98149931D02*
X117622493Y-98149931D01*
X117622493Y-98149931D02*
X117479636Y-98102312D01*
X117479636Y-98102312D02*
X117384398Y-98007073D01*
X117384398Y-98007073D02*
X117336779Y-97911835D01*
X117336779Y-97911835D02*
X117289160Y-97721359D01*
X117289160Y-97721359D02*
X117289160Y-97578502D01*
X117289160Y-97578502D02*
X117336779Y-97388026D01*
X117336779Y-97388026D02*
X117384398Y-97292788D01*
X117384398Y-97292788D02*
X117479636Y-97197550D01*
X117479636Y-97197550D02*
X117622493Y-97149931D01*
X117622493Y-97149931D02*
X117717731Y-97149931D01*
X117717731Y-97149931D02*
X117860588Y-97197550D01*
X117860588Y-97197550D02*
X117908207Y-97245169D01*
X118479636Y-98149931D02*
X118384398Y-98102312D01*
X118384398Y-98102312D02*
X118336779Y-98054692D01*
X118336779Y-98054692D02*
X118289160Y-97959454D01*
X118289160Y-97959454D02*
X118289160Y-97673740D01*
X118289160Y-97673740D02*
X118336779Y-97578502D01*
X118336779Y-97578502D02*
X118384398Y-97530883D01*
X118384398Y-97530883D02*
X118479636Y-97483264D01*
X118479636Y-97483264D02*
X118622493Y-97483264D01*
X118622493Y-97483264D02*
X118717731Y-97530883D01*
X118717731Y-97530883D02*
X118765350Y-97578502D01*
X118765350Y-97578502D02*
X118812969Y-97673740D01*
X118812969Y-97673740D02*
X118812969Y-97959454D01*
X118812969Y-97959454D02*
X118765350Y-98054692D01*
X118765350Y-98054692D02*
X118717731Y-98102312D01*
X118717731Y-98102312D02*
X118622493Y-98149931D01*
X118622493Y-98149931D02*
X118479636Y-98149931D01*
X119241541Y-97483264D02*
X119241541Y-98149931D01*
X119241541Y-97578502D02*
X119289160Y-97530883D01*
X119289160Y-97530883D02*
X119384398Y-97483264D01*
X119384398Y-97483264D02*
X119527255Y-97483264D01*
X119527255Y-97483264D02*
X119622493Y-97530883D01*
X119622493Y-97530883D02*
X119670112Y-97626121D01*
X119670112Y-97626121D02*
X119670112Y-98149931D01*
X120098684Y-98102312D02*
X120193922Y-98149931D01*
X120193922Y-98149931D02*
X120384398Y-98149931D01*
X120384398Y-98149931D02*
X120479636Y-98102312D01*
X120479636Y-98102312D02*
X120527255Y-98007073D01*
X120527255Y-98007073D02*
X120527255Y-97959454D01*
X120527255Y-97959454D02*
X120479636Y-97864216D01*
X120479636Y-97864216D02*
X120384398Y-97816597D01*
X120384398Y-97816597D02*
X120241541Y-97816597D01*
X120241541Y-97816597D02*
X120146303Y-97768978D01*
X120146303Y-97768978D02*
X120098684Y-97673740D01*
X120098684Y-97673740D02*
X120098684Y-97626121D01*
X120098684Y-97626121D02*
X120146303Y-97530883D01*
X120146303Y-97530883D02*
X120241541Y-97483264D01*
X120241541Y-97483264D02*
X120384398Y-97483264D01*
X120384398Y-97483264D02*
X120479636Y-97530883D01*
X121098684Y-98149931D02*
X121003446Y-98102312D01*
X121003446Y-98102312D02*
X120955827Y-98054692D01*
X120955827Y-98054692D02*
X120908208Y-97959454D01*
X120908208Y-97959454D02*
X120908208Y-97673740D01*
X120908208Y-97673740D02*
X120955827Y-97578502D01*
X120955827Y-97578502D02*
X121003446Y-97530883D01*
X121003446Y-97530883D02*
X121098684Y-97483264D01*
X121098684Y-97483264D02*
X121241541Y-97483264D01*
X121241541Y-97483264D02*
X121336779Y-97530883D01*
X121336779Y-97530883D02*
X121384398Y-97578502D01*
X121384398Y-97578502D02*
X121432017Y-97673740D01*
X121432017Y-97673740D02*
X121432017Y-97959454D01*
X121432017Y-97959454D02*
X121384398Y-98054692D01*
X121384398Y-98054692D02*
X121336779Y-98102312D01*
X121336779Y-98102312D02*
X121241541Y-98149931D01*
X121241541Y-98149931D02*
X121098684Y-98149931D01*
X122003446Y-98149931D02*
X121908208Y-98102312D01*
X121908208Y-98102312D02*
X121860589Y-98007073D01*
X121860589Y-98007073D02*
X121860589Y-97149931D01*
X122765351Y-98102312D02*
X122670113Y-98149931D01*
X122670113Y-98149931D02*
X122479637Y-98149931D01*
X122479637Y-98149931D02*
X122384399Y-98102312D01*
X122384399Y-98102312D02*
X122336780Y-98007073D01*
X122336780Y-98007073D02*
X122336780Y-97626121D01*
X122336780Y-97626121D02*
X122384399Y-97530883D01*
X122384399Y-97530883D02*
X122479637Y-97483264D01*
X122479637Y-97483264D02*
X122670113Y-97483264D01*
X122670113Y-97483264D02*
X122765351Y-97530883D01*
X122765351Y-97530883D02*
X122812970Y-97626121D01*
X122812970Y-97626121D02*
X122812970Y-97721359D01*
X122812970Y-97721359D02*
X122336780Y-97816597D01*
X123908209Y-97483264D02*
X124146304Y-98149931D01*
X124146304Y-98149931D02*
X124384399Y-97483264D01*
X124717733Y-97245169D02*
X124765352Y-97197550D01*
X124765352Y-97197550D02*
X124860590Y-97149931D01*
X124860590Y-97149931D02*
X125098685Y-97149931D01*
X125098685Y-97149931D02*
X125193923Y-97197550D01*
X125193923Y-97197550D02*
X125241542Y-97245169D01*
X125241542Y-97245169D02*
X125289161Y-97340407D01*
X125289161Y-97340407D02*
X125289161Y-97435645D01*
X125289161Y-97435645D02*
X125241542Y-97578502D01*
X125241542Y-97578502D02*
X124670114Y-98149931D01*
X124670114Y-98149931D02*
X125289161Y-98149931D01*
X125717733Y-98054692D02*
X125765352Y-98102312D01*
X125765352Y-98102312D02*
X125717733Y-98149931D01*
X125717733Y-98149931D02*
X125670114Y-98102312D01*
X125670114Y-98102312D02*
X125717733Y-98054692D01*
X125717733Y-98054692D02*
X125717733Y-98149931D01*
X126384399Y-97149931D02*
X126479637Y-97149931D01*
X126479637Y-97149931D02*
X126574875Y-97197550D01*
X126574875Y-97197550D02*
X126622494Y-97245169D01*
X126622494Y-97245169D02*
X126670113Y-97340407D01*
X126670113Y-97340407D02*
X126717732Y-97530883D01*
X126717732Y-97530883D02*
X126717732Y-97768978D01*
X126717732Y-97768978D02*
X126670113Y-97959454D01*
X126670113Y-97959454D02*
X126622494Y-98054692D01*
X126622494Y-98054692D02*
X126574875Y-98102312D01*
X126574875Y-98102312D02*
X126479637Y-98149931D01*
X126479637Y-98149931D02*
X126384399Y-98149931D01*
X126384399Y-98149931D02*
X126289161Y-98102312D01*
X126289161Y-98102312D02*
X126241542Y-98054692D01*
X126241542Y-98054692D02*
X126193923Y-97959454D01*
X126193923Y-97959454D02*
X126146304Y-97768978D01*
X126146304Y-97768978D02*
X126146304Y-97530883D01*
X126146304Y-97530883D02*
X126193923Y-97340407D01*
X126193923Y-97340407D02*
X126241542Y-97245169D01*
X126241542Y-97245169D02*
X126289161Y-97197550D01*
X126289161Y-97197550D02*
X126384399Y-97149931D01*
X117336779Y-99759875D02*
X117336779Y-98759875D01*
X117336779Y-98759875D02*
X117670112Y-99474160D01*
X117670112Y-99474160D02*
X118003445Y-98759875D01*
X118003445Y-98759875D02*
X118003445Y-99759875D01*
X118622493Y-99759875D02*
X118527255Y-99712256D01*
X118527255Y-99712256D02*
X118479636Y-99664636D01*
X118479636Y-99664636D02*
X118432017Y-99569398D01*
X118432017Y-99569398D02*
X118432017Y-99283684D01*
X118432017Y-99283684D02*
X118479636Y-99188446D01*
X118479636Y-99188446D02*
X118527255Y-99140827D01*
X118527255Y-99140827D02*
X118622493Y-99093208D01*
X118622493Y-99093208D02*
X118765350Y-99093208D01*
X118765350Y-99093208D02*
X118860588Y-99140827D01*
X118860588Y-99140827D02*
X118908207Y-99188446D01*
X118908207Y-99188446D02*
X118955826Y-99283684D01*
X118955826Y-99283684D02*
X118955826Y-99569398D01*
X118955826Y-99569398D02*
X118908207Y-99664636D01*
X118908207Y-99664636D02*
X118860588Y-99712256D01*
X118860588Y-99712256D02*
X118765350Y-99759875D01*
X118765350Y-99759875D02*
X118622493Y-99759875D01*
X119241541Y-99093208D02*
X119622493Y-99093208D01*
X119384398Y-98759875D02*
X119384398Y-99617017D01*
X119384398Y-99617017D02*
X119432017Y-99712256D01*
X119432017Y-99712256D02*
X119527255Y-99759875D01*
X119527255Y-99759875D02*
X119622493Y-99759875D01*
X120098684Y-99759875D02*
X120003446Y-99712256D01*
X120003446Y-99712256D02*
X119955827Y-99664636D01*
X119955827Y-99664636D02*
X119908208Y-99569398D01*
X119908208Y-99569398D02*
X119908208Y-99283684D01*
X119908208Y-99283684D02*
X119955827Y-99188446D01*
X119955827Y-99188446D02*
X120003446Y-99140827D01*
X120003446Y-99140827D02*
X120098684Y-99093208D01*
X120098684Y-99093208D02*
X120241541Y-99093208D01*
X120241541Y-99093208D02*
X120336779Y-99140827D01*
X120336779Y-99140827D02*
X120384398Y-99188446D01*
X120384398Y-99188446D02*
X120432017Y-99283684D01*
X120432017Y-99283684D02*
X120432017Y-99569398D01*
X120432017Y-99569398D02*
X120384398Y-99664636D01*
X120384398Y-99664636D02*
X120336779Y-99712256D01*
X120336779Y-99712256D02*
X120241541Y-99759875D01*
X120241541Y-99759875D02*
X120098684Y-99759875D01*
X120860589Y-99759875D02*
X120860589Y-99093208D01*
X120860589Y-99283684D02*
X120908208Y-99188446D01*
X120908208Y-99188446D02*
X120955827Y-99140827D01*
X120955827Y-99140827D02*
X121051065Y-99093208D01*
X121051065Y-99093208D02*
X121146303Y-99093208D01*
X121336780Y-99093208D02*
X121717732Y-99093208D01*
X121479637Y-99759875D02*
X121479637Y-98902732D01*
X121479637Y-98902732D02*
X121527256Y-98807494D01*
X121527256Y-98807494D02*
X121622494Y-98759875D01*
X121622494Y-98759875D02*
X121717732Y-98759875D01*
X122479637Y-99759875D02*
X122479637Y-99236065D01*
X122479637Y-99236065D02*
X122432018Y-99140827D01*
X122432018Y-99140827D02*
X122336780Y-99093208D01*
X122336780Y-99093208D02*
X122146304Y-99093208D01*
X122146304Y-99093208D02*
X122051066Y-99140827D01*
X122479637Y-99712256D02*
X122384399Y-99759875D01*
X122384399Y-99759875D02*
X122146304Y-99759875D01*
X122146304Y-99759875D02*
X122051066Y-99712256D01*
X122051066Y-99712256D02*
X122003447Y-99617017D01*
X122003447Y-99617017D02*
X122003447Y-99521779D01*
X122003447Y-99521779D02*
X122051066Y-99426541D01*
X122051066Y-99426541D02*
X122146304Y-99378922D01*
X122146304Y-99378922D02*
X122384399Y-99378922D01*
X122384399Y-99378922D02*
X122479637Y-99331303D01*
X123384399Y-99759875D02*
X123384399Y-98759875D01*
X123384399Y-99712256D02*
X123289161Y-99759875D01*
X123289161Y-99759875D02*
X123098685Y-99759875D01*
X123098685Y-99759875D02*
X123003447Y-99712256D01*
X123003447Y-99712256D02*
X122955828Y-99664636D01*
X122955828Y-99664636D02*
X122908209Y-99569398D01*
X122908209Y-99569398D02*
X122908209Y-99283684D01*
X122908209Y-99283684D02*
X122955828Y-99188446D01*
X122955828Y-99188446D02*
X123003447Y-99140827D01*
X123003447Y-99140827D02*
X123098685Y-99093208D01*
X123098685Y-99093208D02*
X123289161Y-99093208D01*
X123289161Y-99093208D02*
X123384399Y-99140827D01*
X124241542Y-99712256D02*
X124146304Y-99759875D01*
X124146304Y-99759875D02*
X123955828Y-99759875D01*
X123955828Y-99759875D02*
X123860590Y-99712256D01*
X123860590Y-99712256D02*
X123812971Y-99617017D01*
X123812971Y-99617017D02*
X123812971Y-99236065D01*
X123812971Y-99236065D02*
X123860590Y-99140827D01*
X123860590Y-99140827D02*
X123955828Y-99093208D01*
X123955828Y-99093208D02*
X124146304Y-99093208D01*
X124146304Y-99093208D02*
X124241542Y-99140827D01*
X124241542Y-99140827D02*
X124289161Y-99236065D01*
X124289161Y-99236065D02*
X124289161Y-99331303D01*
X124289161Y-99331303D02*
X123812971Y-99426541D01*
X124717733Y-99759875D02*
X124717733Y-99093208D01*
X124717733Y-99283684D02*
X124765352Y-99188446D01*
X124765352Y-99188446D02*
X124812971Y-99140827D01*
X124812971Y-99140827D02*
X124908209Y-99093208D01*
X124908209Y-99093208D02*
X125003447Y-99093208D01*
X126432019Y-99236065D02*
X126574876Y-99283684D01*
X126574876Y-99283684D02*
X126622495Y-99331303D01*
X126622495Y-99331303D02*
X126670114Y-99426541D01*
X126670114Y-99426541D02*
X126670114Y-99569398D01*
X126670114Y-99569398D02*
X126622495Y-99664636D01*
X126622495Y-99664636D02*
X126574876Y-99712256D01*
X126574876Y-99712256D02*
X126479638Y-99759875D01*
X126479638Y-99759875D02*
X126098686Y-99759875D01*
X126098686Y-99759875D02*
X126098686Y-98759875D01*
X126098686Y-98759875D02*
X126432019Y-98759875D01*
X126432019Y-98759875D02*
X126527257Y-98807494D01*
X126527257Y-98807494D02*
X126574876Y-98855113D01*
X126574876Y-98855113D02*
X126622495Y-98950351D01*
X126622495Y-98950351D02*
X126622495Y-99045589D01*
X126622495Y-99045589D02*
X126574876Y-99140827D01*
X126574876Y-99140827D02*
X126527257Y-99188446D01*
X126527257Y-99188446D02*
X126432019Y-99236065D01*
X126432019Y-99236065D02*
X126098686Y-99236065D01*
X127098686Y-99759875D02*
X127098686Y-99093208D01*
X127098686Y-99283684D02*
X127146305Y-99188446D01*
X127146305Y-99188446D02*
X127193924Y-99140827D01*
X127193924Y-99140827D02*
X127289162Y-99093208D01*
X127289162Y-99093208D02*
X127384400Y-99093208D01*
X128098686Y-99712256D02*
X128003448Y-99759875D01*
X128003448Y-99759875D02*
X127812972Y-99759875D01*
X127812972Y-99759875D02*
X127717734Y-99712256D01*
X127717734Y-99712256D02*
X127670115Y-99617017D01*
X127670115Y-99617017D02*
X127670115Y-99236065D01*
X127670115Y-99236065D02*
X127717734Y-99140827D01*
X127717734Y-99140827D02*
X127812972Y-99093208D01*
X127812972Y-99093208D02*
X128003448Y-99093208D01*
X128003448Y-99093208D02*
X128098686Y-99140827D01*
X128098686Y-99140827D02*
X128146305Y-99236065D01*
X128146305Y-99236065D02*
X128146305Y-99331303D01*
X128146305Y-99331303D02*
X127670115Y-99426541D01*
X129003448Y-99759875D02*
X129003448Y-99236065D01*
X129003448Y-99236065D02*
X128955829Y-99140827D01*
X128955829Y-99140827D02*
X128860591Y-99093208D01*
X128860591Y-99093208D02*
X128670115Y-99093208D01*
X128670115Y-99093208D02*
X128574877Y-99140827D01*
X129003448Y-99712256D02*
X128908210Y-99759875D01*
X128908210Y-99759875D02*
X128670115Y-99759875D01*
X128670115Y-99759875D02*
X128574877Y-99712256D01*
X128574877Y-99712256D02*
X128527258Y-99617017D01*
X128527258Y-99617017D02*
X128527258Y-99521779D01*
X128527258Y-99521779D02*
X128574877Y-99426541D01*
X128574877Y-99426541D02*
X128670115Y-99378922D01*
X128670115Y-99378922D02*
X128908210Y-99378922D01*
X128908210Y-99378922D02*
X129003448Y-99331303D01*
X129479639Y-99759875D02*
X129479639Y-98759875D01*
X129574877Y-99378922D02*
X129860591Y-99759875D01*
X129860591Y-99093208D02*
X129479639Y-99474160D01*
X130432020Y-99759875D02*
X130336782Y-99712256D01*
X130336782Y-99712256D02*
X130289163Y-99664636D01*
X130289163Y-99664636D02*
X130241544Y-99569398D01*
X130241544Y-99569398D02*
X130241544Y-99283684D01*
X130241544Y-99283684D02*
X130289163Y-99188446D01*
X130289163Y-99188446D02*
X130336782Y-99140827D01*
X130336782Y-99140827D02*
X130432020Y-99093208D01*
X130432020Y-99093208D02*
X130574877Y-99093208D01*
X130574877Y-99093208D02*
X130670115Y-99140827D01*
X130670115Y-99140827D02*
X130717734Y-99188446D01*
X130717734Y-99188446D02*
X130765353Y-99283684D01*
X130765353Y-99283684D02*
X130765353Y-99569398D01*
X130765353Y-99569398D02*
X130717734Y-99664636D01*
X130717734Y-99664636D02*
X130670115Y-99712256D01*
X130670115Y-99712256D02*
X130574877Y-99759875D01*
X130574877Y-99759875D02*
X130432020Y-99759875D01*
X131622496Y-99093208D02*
X131622496Y-99759875D01*
X131193925Y-99093208D02*
X131193925Y-99617017D01*
X131193925Y-99617017D02*
X131241544Y-99712256D01*
X131241544Y-99712256D02*
X131336782Y-99759875D01*
X131336782Y-99759875D02*
X131479639Y-99759875D01*
X131479639Y-99759875D02*
X131574877Y-99712256D01*
X131574877Y-99712256D02*
X131622496Y-99664636D01*
X131955830Y-99093208D02*
X132336782Y-99093208D01*
X132098687Y-98759875D02*
X132098687Y-99617017D01*
X132098687Y-99617017D02*
X132146306Y-99712256D01*
X132146306Y-99712256D02*
X132241544Y-99759875D01*
X132241544Y-99759875D02*
X132336782Y-99759875D01*
X133765354Y-99236065D02*
X133908211Y-99283684D01*
X133908211Y-99283684D02*
X133955830Y-99331303D01*
X133955830Y-99331303D02*
X134003449Y-99426541D01*
X134003449Y-99426541D02*
X134003449Y-99569398D01*
X134003449Y-99569398D02*
X133955830Y-99664636D01*
X133955830Y-99664636D02*
X133908211Y-99712256D01*
X133908211Y-99712256D02*
X133812973Y-99759875D01*
X133812973Y-99759875D02*
X133432021Y-99759875D01*
X133432021Y-99759875D02*
X133432021Y-98759875D01*
X133432021Y-98759875D02*
X133765354Y-98759875D01*
X133765354Y-98759875D02*
X133860592Y-98807494D01*
X133860592Y-98807494D02*
X133908211Y-98855113D01*
X133908211Y-98855113D02*
X133955830Y-98950351D01*
X133955830Y-98950351D02*
X133955830Y-99045589D01*
X133955830Y-99045589D02*
X133908211Y-99140827D01*
X133908211Y-99140827D02*
X133860592Y-99188446D01*
X133860592Y-99188446D02*
X133765354Y-99236065D01*
X133765354Y-99236065D02*
X133432021Y-99236065D01*
X134574878Y-99759875D02*
X134479640Y-99712256D01*
X134479640Y-99712256D02*
X134432021Y-99664636D01*
X134432021Y-99664636D02*
X134384402Y-99569398D01*
X134384402Y-99569398D02*
X134384402Y-99283684D01*
X134384402Y-99283684D02*
X134432021Y-99188446D01*
X134432021Y-99188446D02*
X134479640Y-99140827D01*
X134479640Y-99140827D02*
X134574878Y-99093208D01*
X134574878Y-99093208D02*
X134717735Y-99093208D01*
X134717735Y-99093208D02*
X134812973Y-99140827D01*
X134812973Y-99140827D02*
X134860592Y-99188446D01*
X134860592Y-99188446D02*
X134908211Y-99283684D01*
X134908211Y-99283684D02*
X134908211Y-99569398D01*
X134908211Y-99569398D02*
X134860592Y-99664636D01*
X134860592Y-99664636D02*
X134812973Y-99712256D01*
X134812973Y-99712256D02*
X134717735Y-99759875D01*
X134717735Y-99759875D02*
X134574878Y-99759875D01*
X135765354Y-99759875D02*
X135765354Y-99236065D01*
X135765354Y-99236065D02*
X135717735Y-99140827D01*
X135717735Y-99140827D02*
X135622497Y-99093208D01*
X135622497Y-99093208D02*
X135432021Y-99093208D01*
X135432021Y-99093208D02*
X135336783Y-99140827D01*
X135765354Y-99712256D02*
X135670116Y-99759875D01*
X135670116Y-99759875D02*
X135432021Y-99759875D01*
X135432021Y-99759875D02*
X135336783Y-99712256D01*
X135336783Y-99712256D02*
X135289164Y-99617017D01*
X135289164Y-99617017D02*
X135289164Y-99521779D01*
X135289164Y-99521779D02*
X135336783Y-99426541D01*
X135336783Y-99426541D02*
X135432021Y-99378922D01*
X135432021Y-99378922D02*
X135670116Y-99378922D01*
X135670116Y-99378922D02*
X135765354Y-99331303D01*
X136241545Y-99759875D02*
X136241545Y-99093208D01*
X136241545Y-99283684D02*
X136289164Y-99188446D01*
X136289164Y-99188446D02*
X136336783Y-99140827D01*
X136336783Y-99140827D02*
X136432021Y-99093208D01*
X136432021Y-99093208D02*
X136527259Y-99093208D01*
X137289164Y-99759875D02*
X137289164Y-98759875D01*
X137289164Y-99712256D02*
X137193926Y-99759875D01*
X137193926Y-99759875D02*
X137003450Y-99759875D01*
X137003450Y-99759875D02*
X136908212Y-99712256D01*
X136908212Y-99712256D02*
X136860593Y-99664636D01*
X136860593Y-99664636D02*
X136812974Y-99569398D01*
X136812974Y-99569398D02*
X136812974Y-99283684D01*
X136812974Y-99283684D02*
X136860593Y-99188446D01*
X136860593Y-99188446D02*
X136908212Y-99140827D01*
X136908212Y-99140827D02*
X137003450Y-99093208D01*
X137003450Y-99093208D02*
X137193926Y-99093208D01*
X137193926Y-99093208D02*
X137289164Y-99140827D01*
X138432022Y-99093208D02*
X138670117Y-99759875D01*
X138670117Y-99759875D02*
X138908212Y-99093208D01*
X139812974Y-99759875D02*
X139241546Y-99759875D01*
X139527260Y-99759875D02*
X139527260Y-98759875D01*
X139527260Y-98759875D02*
X139432022Y-98902732D01*
X139432022Y-98902732D02*
X139336784Y-98997970D01*
X139336784Y-98997970D02*
X139241546Y-99045589D01*
X140241546Y-99664636D02*
X140289165Y-99712256D01*
X140289165Y-99712256D02*
X140241546Y-99759875D01*
X140241546Y-99759875D02*
X140193927Y-99712256D01*
X140193927Y-99712256D02*
X140241546Y-99664636D01*
X140241546Y-99664636D02*
X140241546Y-99759875D01*
X140908212Y-98759875D02*
X141003450Y-98759875D01*
X141003450Y-98759875D02*
X141098688Y-98807494D01*
X141098688Y-98807494D02*
X141146307Y-98855113D01*
X141146307Y-98855113D02*
X141193926Y-98950351D01*
X141193926Y-98950351D02*
X141241545Y-99140827D01*
X141241545Y-99140827D02*
X141241545Y-99378922D01*
X141241545Y-99378922D02*
X141193926Y-99569398D01*
X141193926Y-99569398D02*
X141146307Y-99664636D01*
X141146307Y-99664636D02*
X141098688Y-99712256D01*
X141098688Y-99712256D02*
X141003450Y-99759875D01*
X141003450Y-99759875D02*
X140908212Y-99759875D01*
X140908212Y-99759875D02*
X140812974Y-99712256D01*
X140812974Y-99712256D02*
X140765355Y-99664636D01*
X140765355Y-99664636D02*
X140717736Y-99569398D01*
X140717736Y-99569398D02*
X140670117Y-99378922D01*
X140670117Y-99378922D02*
X140670117Y-99140827D01*
X140670117Y-99140827D02*
X140717736Y-98950351D01*
X140717736Y-98950351D02*
X140765355Y-98855113D01*
X140765355Y-98855113D02*
X140812974Y-98807494D01*
X140812974Y-98807494D02*
X140908212Y-98759875D01*
X117908207Y-101274580D02*
X117860588Y-101322200D01*
X117860588Y-101322200D02*
X117717731Y-101369819D01*
X117717731Y-101369819D02*
X117622493Y-101369819D01*
X117622493Y-101369819D02*
X117479636Y-101322200D01*
X117479636Y-101322200D02*
X117384398Y-101226961D01*
X117384398Y-101226961D02*
X117336779Y-101131723D01*
X117336779Y-101131723D02*
X117289160Y-100941247D01*
X117289160Y-100941247D02*
X117289160Y-100798390D01*
X117289160Y-100798390D02*
X117336779Y-100607914D01*
X117336779Y-100607914D02*
X117384398Y-100512676D01*
X117384398Y-100512676D02*
X117479636Y-100417438D01*
X117479636Y-100417438D02*
X117622493Y-100369819D01*
X117622493Y-100369819D02*
X117717731Y-100369819D01*
X117717731Y-100369819D02*
X117860588Y-100417438D01*
X117860588Y-100417438D02*
X117908207Y-100465057D01*
X118336779Y-101274580D02*
X118384398Y-101322200D01*
X118384398Y-101322200D02*
X118336779Y-101369819D01*
X118336779Y-101369819D02*
X118289160Y-101322200D01*
X118289160Y-101322200D02*
X118336779Y-101274580D01*
X118336779Y-101274580D02*
X118336779Y-101369819D01*
X120098683Y-100417438D02*
X120003445Y-100369819D01*
X120003445Y-100369819D02*
X119860588Y-100369819D01*
X119860588Y-100369819D02*
X119717731Y-100417438D01*
X119717731Y-100417438D02*
X119622493Y-100512676D01*
X119622493Y-100512676D02*
X119574874Y-100607914D01*
X119574874Y-100607914D02*
X119527255Y-100798390D01*
X119527255Y-100798390D02*
X119527255Y-100941247D01*
X119527255Y-100941247D02*
X119574874Y-101131723D01*
X119574874Y-101131723D02*
X119622493Y-101226961D01*
X119622493Y-101226961D02*
X119717731Y-101322200D01*
X119717731Y-101322200D02*
X119860588Y-101369819D01*
X119860588Y-101369819D02*
X119955826Y-101369819D01*
X119955826Y-101369819D02*
X120098683Y-101322200D01*
X120098683Y-101322200D02*
X120146302Y-101274580D01*
X120146302Y-101274580D02*
X120146302Y-100941247D01*
X120146302Y-100941247D02*
X119955826Y-100941247D01*
X121003445Y-100703152D02*
X121003445Y-101369819D01*
X120574874Y-100703152D02*
X120574874Y-101226961D01*
X120574874Y-101226961D02*
X120622493Y-101322200D01*
X120622493Y-101322200D02*
X120717731Y-101369819D01*
X120717731Y-101369819D02*
X120860588Y-101369819D01*
X120860588Y-101369819D02*
X120955826Y-101322200D01*
X120955826Y-101322200D02*
X121003445Y-101274580D01*
X120622493Y-100369819D02*
X120670112Y-100417438D01*
X120670112Y-100417438D02*
X120622493Y-100465057D01*
X120622493Y-100465057D02*
X120574874Y-100417438D01*
X120574874Y-100417438D02*
X120622493Y-100369819D01*
X120622493Y-100369819D02*
X120622493Y-100465057D01*
X121003445Y-100369819D02*
X121051064Y-100417438D01*
X121051064Y-100417438D02*
X121003445Y-100465057D01*
X121003445Y-100465057D02*
X120955826Y-100417438D01*
X120955826Y-100417438D02*
X121003445Y-100369819D01*
X121003445Y-100369819D02*
X121003445Y-100465057D01*
X121432017Y-101322200D02*
X121527255Y-101369819D01*
X121527255Y-101369819D02*
X121717731Y-101369819D01*
X121717731Y-101369819D02*
X121812969Y-101322200D01*
X121812969Y-101322200D02*
X121860588Y-101226961D01*
X121860588Y-101226961D02*
X121860588Y-101179342D01*
X121860588Y-101179342D02*
X121812969Y-101084104D01*
X121812969Y-101084104D02*
X121717731Y-101036485D01*
X121717731Y-101036485D02*
X121574874Y-101036485D01*
X121574874Y-101036485D02*
X121479636Y-100988866D01*
X121479636Y-100988866D02*
X121432017Y-100893628D01*
X121432017Y-100893628D02*
X121432017Y-100846009D01*
X121432017Y-100846009D02*
X121479636Y-100750771D01*
X121479636Y-100750771D02*
X121574874Y-100703152D01*
X121574874Y-100703152D02*
X121717731Y-100703152D01*
X121717731Y-100703152D02*
X121812969Y-100750771D01*
X122670112Y-101322200D02*
X122574874Y-101369819D01*
X122574874Y-101369819D02*
X122384398Y-101369819D01*
X122384398Y-101369819D02*
X122289160Y-101322200D01*
X122289160Y-101322200D02*
X122241541Y-101226961D01*
X122241541Y-101226961D02*
X122241541Y-100846009D01*
X122241541Y-100846009D02*
X122289160Y-100750771D01*
X122289160Y-100750771D02*
X122384398Y-100703152D01*
X122384398Y-100703152D02*
X122574874Y-100703152D01*
X122574874Y-100703152D02*
X122670112Y-100750771D01*
X122670112Y-100750771D02*
X122717731Y-100846009D01*
X122717731Y-100846009D02*
X122717731Y-100941247D01*
X122717731Y-100941247D02*
X122241541Y-101036485D01*
X157380180Y-99360588D02*
X157380180Y-98789160D01*
X157380180Y-99074874D02*
X158380180Y-99074874D01*
X158380180Y-99074874D02*
X158237323Y-98979636D01*
X158237323Y-98979636D02*
X158142085Y-98884398D01*
X158142085Y-98884398D02*
X158094466Y-98789160D01*
X158284942Y-100289160D02*
X158332561Y-100336779D01*
X158332561Y-100336779D02*
X158380180Y-100432017D01*
X158380180Y-100432017D02*
X158380180Y-100670112D01*
X158380180Y-100670112D02*
X158332561Y-100765350D01*
X158332561Y-100765350D02*
X158284942Y-100812969D01*
X158284942Y-100812969D02*
X158189704Y-100860588D01*
X158189704Y-100860588D02*
X158094466Y-100860588D01*
X158094466Y-100860588D02*
X157951609Y-100812969D01*
X157951609Y-100812969D02*
X157380180Y-100241541D01*
X157380180Y-100241541D02*
X157380180Y-100860588D01*
X176859819Y-100328333D02*
X177574104Y-100328333D01*
X177574104Y-100328333D02*
X177716961Y-100375952D01*
X177716961Y-100375952D02*
X177812200Y-100471190D01*
X177812200Y-100471190D02*
X177859819Y-100614047D01*
X177859819Y-100614047D02*
X177859819Y-100709285D01*
X176955057Y-99899761D02*
X176907438Y-99852142D01*
X176907438Y-99852142D02*
X176859819Y-99756904D01*
X176859819Y-99756904D02*
X176859819Y-99518809D01*
X176859819Y-99518809D02*
X176907438Y-99423571D01*
X176907438Y-99423571D02*
X176955057Y-99375952D01*
X176955057Y-99375952D02*
X177050295Y-99328333D01*
X177050295Y-99328333D02*
X177145533Y-99328333D01*
X177145533Y-99328333D02*
X177288390Y-99375952D01*
X177288390Y-99375952D02*
X177859819Y-99947380D01*
X177859819Y-99947380D02*
X177859819Y-99328333D01*
X150154761Y-86954819D02*
X149821428Y-86478628D01*
X149583333Y-86954819D02*
X149583333Y-85954819D01*
X149583333Y-85954819D02*
X149964285Y-85954819D01*
X149964285Y-85954819D02*
X150059523Y-86002438D01*
X150059523Y-86002438D02*
X150107142Y-86050057D01*
X150107142Y-86050057D02*
X150154761Y-86145295D01*
X150154761Y-86145295D02*
X150154761Y-86288152D01*
X150154761Y-86288152D02*
X150107142Y-86383390D01*
X150107142Y-86383390D02*
X150059523Y-86431009D01*
X150059523Y-86431009D02*
X149964285Y-86478628D01*
X149964285Y-86478628D02*
X149583333Y-86478628D01*
X150440476Y-85954819D02*
X150773809Y-86954819D01*
X150773809Y-86954819D02*
X151107142Y-85954819D01*
X151964285Y-86954819D02*
X151392857Y-86954819D01*
X151678571Y-86954819D02*
X151678571Y-85954819D01*
X151678571Y-85954819D02*
X151583333Y-86097676D01*
X151583333Y-86097676D02*
X151488095Y-86192914D01*
X151488095Y-86192914D02*
X151392857Y-86240533D01*
X185190476Y-107804819D02*
X185190476Y-106804819D01*
X185190476Y-106804819D02*
X185523809Y-107519104D01*
X185523809Y-107519104D02*
X185857142Y-106804819D01*
X185857142Y-106804819D02*
X185857142Y-107804819D01*
X186857142Y-107804819D02*
X186285714Y-107804819D01*
X186571428Y-107804819D02*
X186571428Y-106804819D01*
X186571428Y-106804819D02*
X186476190Y-106947676D01*
X186476190Y-106947676D02*
X186380952Y-107042914D01*
X186380952Y-107042914D02*
X186285714Y-107090533D01*
D12*
X163585000Y-97395000D02*
X163585000Y-102595000D01*
X173805000Y-97395000D02*
X163585000Y-97395000D01*
X173805000Y-97395000D02*
X173805000Y-99995000D01*
X173805000Y-99995000D02*
X176405000Y-99995000D01*
X175075000Y-97395000D02*
X176405000Y-97395000D01*
X176405000Y-97395000D02*
X176405000Y-98725000D01*
X176405000Y-99995000D02*
X176405000Y-102595000D01*
X176405000Y-102595000D02*
X163585000Y-102595000D01*
D10*
X106750000Y-78875000D02*
X106750000Y-79375000D01*
X106750000Y-78875000D02*
X194750000Y-78875000D01*
X106750000Y-89875000D02*
X106750000Y-87375000D01*
X106750000Y-94375000D02*
X106750000Y-94875000D01*
X194750000Y-78875000D02*
X194750000Y-79375000D01*
X194750000Y-94375000D02*
X194750000Y-94875000D01*
X194750000Y-94875000D02*
X106750000Y-94875000D01*
%LPC*%
D13*
X175075000Y-98725000D03*
D14*
X175075000Y-101265000D03*
X172535000Y-98725000D03*
X172535000Y-101265000D03*
X169995000Y-98725000D03*
X169995000Y-101265000D03*
X167455000Y-98725000D03*
X167455000Y-101265000D03*
X164915000Y-98725000D03*
X164915000Y-101265000D03*
D15*
X124900000Y-86875000D03*
X176600000Y-86875000D03*
D16*
X194500000Y-85000000D03*
X194500000Y-88750000D03*
X194500000Y-81250000D03*
X194500000Y-92500000D03*
X107000000Y-81250000D03*
X107000000Y-92500000D03*
X107000000Y-85000000D03*
D17*
X188400000Y-105000000D03*
D18*
X183600000Y-105000000D03*
%LPD*%
M02*
