%TF.GenerationSoftware,KiCad,Pcbnew,8.0.4*%
%TF.CreationDate,2024-09-19T22:50:55+02:00*%
%TF.ProjectId,Fader_Breakout,46616465-725f-4427-9265-616b6f75742e,rev?*%
%TF.SameCoordinates,Original*%
%TF.FileFunction,Drillmap*%
%TF.FilePolarity,Positive*%
%FSLAX45Y45*%
G04 Gerber Fmt 4.5, Leading zero omitted, Abs format (unit mm)*
G04 Created by KiCad (PCBNEW 8.0.4) date 2024-09-19 22:50:55*
%MOMM*%
%LPD*%
G01*
G04 APERTURE LIST*
%ADD10C,0.050000*%
%ADD11C,0.200000*%
%ADD12C,0.100000*%
%ADD13C,0.110000*%
%ADD14C,0.150000*%
G04 APERTURE END LIST*
D10*
X10400000Y-7800000D02*
X19700000Y-7800000D01*
X19700000Y-10800000D01*
X10400000Y-10800000D01*
X10400000Y-7800000D01*
D11*
D12*
X16441500Y-9822500D02*
X16541500Y-9922500D01*
X16541500Y-9822500D02*
X16441500Y-9922500D01*
X16441500Y-10076500D02*
X16541500Y-10176500D01*
X16541500Y-10076500D02*
X16441500Y-10176500D01*
X16695500Y-9822500D02*
X16795500Y-9922500D01*
X16795500Y-9822500D02*
X16695500Y-9922500D01*
X16695500Y-10076500D02*
X16795500Y-10176500D01*
X16795500Y-10076500D02*
X16695500Y-10176500D01*
X16949500Y-9822500D02*
X17049500Y-9922500D01*
X17049500Y-9822500D02*
X16949500Y-9922500D01*
X16949500Y-10076500D02*
X17049500Y-10176500D01*
X17049500Y-10076500D02*
X16949500Y-10176500D01*
X17203500Y-9822500D02*
X17303500Y-9922500D01*
X17303500Y-9822500D02*
X17203500Y-9922500D01*
X17203500Y-10076500D02*
X17303500Y-10176500D01*
X17303500Y-10076500D02*
X17203500Y-10176500D01*
X17457500Y-9822500D02*
X17557500Y-9922500D01*
X17557500Y-9822500D02*
X17457500Y-9922500D01*
X17457500Y-10076500D02*
X17557500Y-10176500D01*
X17557500Y-10076500D02*
X17457500Y-10176500D01*
D13*
X18415000Y-10500000D02*
G75*
G02*
X18305000Y-10500000I-55000J0D01*
G01*
X18305000Y-10500000D02*
G75*
G02*
X18415000Y-10500000I55000J0D01*
G01*
X18895000Y-10500000D02*
G75*
G02*
X18785000Y-10500000I-55000J0D01*
G01*
X18785000Y-10500000D02*
G75*
G02*
X18895000Y-10500000I55000J0D01*
G01*
D14*
X10700000Y-8050000D02*
X10700000Y-8200000D01*
X10625000Y-8125000D02*
X10775000Y-8125000D01*
X10700000Y-8425000D02*
X10700000Y-8575000D01*
X10625000Y-8500000D02*
X10775000Y-8500000D01*
X10700000Y-9175000D02*
X10700000Y-9325000D01*
X10625000Y-9250000D02*
X10775000Y-9250000D01*
X19450000Y-8050000D02*
X19450000Y-8200000D01*
X19375000Y-8125000D02*
X19525000Y-8125000D01*
X19450000Y-8425000D02*
X19450000Y-8575000D01*
X19375000Y-8500000D02*
X19525000Y-8500000D01*
X19450000Y-8800000D02*
X19450000Y-8950000D01*
X19375000Y-8875000D02*
X19525000Y-8875000D01*
X19450000Y-9175000D02*
X19450000Y-9325000D01*
X19375000Y-9250000D02*
X19525000Y-9250000D01*
D11*
X10658277Y-11113984D02*
X10658277Y-10913984D01*
X10658277Y-10913984D02*
X10705896Y-10913984D01*
X10705896Y-10913984D02*
X10734467Y-10923508D01*
X10734467Y-10923508D02*
X10753515Y-10942555D01*
X10753515Y-10942555D02*
X10763039Y-10961603D01*
X10763039Y-10961603D02*
X10772563Y-10999698D01*
X10772563Y-10999698D02*
X10772563Y-11028270D01*
X10772563Y-11028270D02*
X10763039Y-11066365D01*
X10763039Y-11066365D02*
X10753515Y-11085412D01*
X10753515Y-11085412D02*
X10734467Y-11104460D01*
X10734467Y-11104460D02*
X10705896Y-11113984D01*
X10705896Y-11113984D02*
X10658277Y-11113984D01*
X10858277Y-11113984D02*
X10858277Y-10980650D01*
X10858277Y-11018746D02*
X10867801Y-10999698D01*
X10867801Y-10999698D02*
X10877324Y-10990174D01*
X10877324Y-10990174D02*
X10896372Y-10980650D01*
X10896372Y-10980650D02*
X10915420Y-10980650D01*
X10982086Y-11113984D02*
X10982086Y-10980650D01*
X10982086Y-10913984D02*
X10972563Y-10923508D01*
X10972563Y-10923508D02*
X10982086Y-10933031D01*
X10982086Y-10933031D02*
X10991610Y-10923508D01*
X10991610Y-10923508D02*
X10982086Y-10913984D01*
X10982086Y-10913984D02*
X10982086Y-10933031D01*
X11105896Y-11113984D02*
X11086848Y-11104460D01*
X11086848Y-11104460D02*
X11077324Y-11085412D01*
X11077324Y-11085412D02*
X11077324Y-10913984D01*
X11210658Y-11113984D02*
X11191610Y-11104460D01*
X11191610Y-11104460D02*
X11182086Y-11085412D01*
X11182086Y-11085412D02*
X11182086Y-10913984D01*
X11439229Y-11113984D02*
X11439229Y-10913984D01*
X11439229Y-10913984D02*
X11505896Y-11056841D01*
X11505896Y-11056841D02*
X11572562Y-10913984D01*
X11572562Y-10913984D02*
X11572562Y-11113984D01*
X11753515Y-11113984D02*
X11753515Y-11009222D01*
X11753515Y-11009222D02*
X11743991Y-10990174D01*
X11743991Y-10990174D02*
X11724943Y-10980650D01*
X11724943Y-10980650D02*
X11686848Y-10980650D01*
X11686848Y-10980650D02*
X11667801Y-10990174D01*
X11753515Y-11104460D02*
X11734467Y-11113984D01*
X11734467Y-11113984D02*
X11686848Y-11113984D01*
X11686848Y-11113984D02*
X11667801Y-11104460D01*
X11667801Y-11104460D02*
X11658277Y-11085412D01*
X11658277Y-11085412D02*
X11658277Y-11066365D01*
X11658277Y-11066365D02*
X11667801Y-11047317D01*
X11667801Y-11047317D02*
X11686848Y-11037793D01*
X11686848Y-11037793D02*
X11734467Y-11037793D01*
X11734467Y-11037793D02*
X11753515Y-11028270D01*
X11848753Y-10980650D02*
X11848753Y-11180650D01*
X11848753Y-10990174D02*
X11867801Y-10980650D01*
X11867801Y-10980650D02*
X11905896Y-10980650D01*
X11905896Y-10980650D02*
X11924943Y-10990174D01*
X11924943Y-10990174D02*
X11934467Y-10999698D01*
X11934467Y-10999698D02*
X11943991Y-11018746D01*
X11943991Y-11018746D02*
X11943991Y-11075889D01*
X11943991Y-11075889D02*
X11934467Y-11094936D01*
X11934467Y-11094936D02*
X11924943Y-11104460D01*
X11924943Y-11104460D02*
X11905896Y-11113984D01*
X11905896Y-11113984D02*
X11867801Y-11113984D01*
X11867801Y-11113984D02*
X11848753Y-11104460D01*
X12029705Y-11094936D02*
X12039229Y-11104460D01*
X12039229Y-11104460D02*
X12029705Y-11113984D01*
X12029705Y-11113984D02*
X12020182Y-11104460D01*
X12020182Y-11104460D02*
X12029705Y-11094936D01*
X12029705Y-11094936D02*
X12029705Y-11113984D01*
X12029705Y-10990174D02*
X12039229Y-10999698D01*
X12039229Y-10999698D02*
X12029705Y-11009222D01*
X12029705Y-11009222D02*
X12020182Y-10999698D01*
X12020182Y-10999698D02*
X12029705Y-10990174D01*
X12029705Y-10990174D02*
X12029705Y-11009222D01*
D12*
X10297500Y-11392500D02*
X10397500Y-11492500D01*
X10397500Y-11392500D02*
X10297500Y-11492500D01*
D11*
X10763039Y-11533984D02*
X10648753Y-11533984D01*
X10705896Y-11533984D02*
X10705896Y-11333984D01*
X10705896Y-11333984D02*
X10686848Y-11362555D01*
X10686848Y-11362555D02*
X10667801Y-11381603D01*
X10667801Y-11381603D02*
X10648753Y-11391127D01*
X10848753Y-11514936D02*
X10858277Y-11524460D01*
X10858277Y-11524460D02*
X10848753Y-11533984D01*
X10848753Y-11533984D02*
X10839229Y-11524460D01*
X10839229Y-11524460D02*
X10848753Y-11514936D01*
X10848753Y-11514936D02*
X10848753Y-11533984D01*
X10982086Y-11333984D02*
X11001134Y-11333984D01*
X11001134Y-11333984D02*
X11020182Y-11343508D01*
X11020182Y-11343508D02*
X11029705Y-11353031D01*
X11029705Y-11353031D02*
X11039229Y-11372079D01*
X11039229Y-11372079D02*
X11048753Y-11410174D01*
X11048753Y-11410174D02*
X11048753Y-11457793D01*
X11048753Y-11457793D02*
X11039229Y-11495888D01*
X11039229Y-11495888D02*
X11029705Y-11514936D01*
X11029705Y-11514936D02*
X11020182Y-11524460D01*
X11020182Y-11524460D02*
X11001134Y-11533984D01*
X11001134Y-11533984D02*
X10982086Y-11533984D01*
X10982086Y-11533984D02*
X10963039Y-11524460D01*
X10963039Y-11524460D02*
X10953515Y-11514936D01*
X10953515Y-11514936D02*
X10943991Y-11495888D01*
X10943991Y-11495888D02*
X10934467Y-11457793D01*
X10934467Y-11457793D02*
X10934467Y-11410174D01*
X10934467Y-11410174D02*
X10943991Y-11372079D01*
X10943991Y-11372079D02*
X10953515Y-11353031D01*
X10953515Y-11353031D02*
X10963039Y-11343508D01*
X10963039Y-11343508D02*
X10982086Y-11333984D01*
X11172563Y-11333984D02*
X11191610Y-11333984D01*
X11191610Y-11333984D02*
X11210658Y-11343508D01*
X11210658Y-11343508D02*
X11220182Y-11353031D01*
X11220182Y-11353031D02*
X11229705Y-11372079D01*
X11229705Y-11372079D02*
X11239229Y-11410174D01*
X11239229Y-11410174D02*
X11239229Y-11457793D01*
X11239229Y-11457793D02*
X11229705Y-11495888D01*
X11229705Y-11495888D02*
X11220182Y-11514936D01*
X11220182Y-11514936D02*
X11210658Y-11524460D01*
X11210658Y-11524460D02*
X11191610Y-11533984D01*
X11191610Y-11533984D02*
X11172563Y-11533984D01*
X11172563Y-11533984D02*
X11153515Y-11524460D01*
X11153515Y-11524460D02*
X11143991Y-11514936D01*
X11143991Y-11514936D02*
X11134467Y-11495888D01*
X11134467Y-11495888D02*
X11124944Y-11457793D01*
X11124944Y-11457793D02*
X11124944Y-11410174D01*
X11124944Y-11410174D02*
X11134467Y-11372079D01*
X11134467Y-11372079D02*
X11143991Y-11353031D01*
X11143991Y-11353031D02*
X11153515Y-11343508D01*
X11153515Y-11343508D02*
X11172563Y-11333984D01*
X11363039Y-11333984D02*
X11382086Y-11333984D01*
X11382086Y-11333984D02*
X11401134Y-11343508D01*
X11401134Y-11343508D02*
X11410658Y-11353031D01*
X11410658Y-11353031D02*
X11420182Y-11372079D01*
X11420182Y-11372079D02*
X11429705Y-11410174D01*
X11429705Y-11410174D02*
X11429705Y-11457793D01*
X11429705Y-11457793D02*
X11420182Y-11495888D01*
X11420182Y-11495888D02*
X11410658Y-11514936D01*
X11410658Y-11514936D02*
X11401134Y-11524460D01*
X11401134Y-11524460D02*
X11382086Y-11533984D01*
X11382086Y-11533984D02*
X11363039Y-11533984D01*
X11363039Y-11533984D02*
X11343991Y-11524460D01*
X11343991Y-11524460D02*
X11334467Y-11514936D01*
X11334467Y-11514936D02*
X11324943Y-11495888D01*
X11324943Y-11495888D02*
X11315420Y-11457793D01*
X11315420Y-11457793D02*
X11315420Y-11410174D01*
X11315420Y-11410174D02*
X11324943Y-11372079D01*
X11324943Y-11372079D02*
X11334467Y-11353031D01*
X11334467Y-11353031D02*
X11343991Y-11343508D01*
X11343991Y-11343508D02*
X11363039Y-11333984D01*
X11515420Y-11533984D02*
X11515420Y-11400650D01*
X11515420Y-11419698D02*
X11524943Y-11410174D01*
X11524943Y-11410174D02*
X11543991Y-11400650D01*
X11543991Y-11400650D02*
X11572563Y-11400650D01*
X11572563Y-11400650D02*
X11591610Y-11410174D01*
X11591610Y-11410174D02*
X11601134Y-11429222D01*
X11601134Y-11429222D02*
X11601134Y-11533984D01*
X11601134Y-11429222D02*
X11610658Y-11410174D01*
X11610658Y-11410174D02*
X11629705Y-11400650D01*
X11629705Y-11400650D02*
X11658277Y-11400650D01*
X11658277Y-11400650D02*
X11677324Y-11410174D01*
X11677324Y-11410174D02*
X11686848Y-11429222D01*
X11686848Y-11429222D02*
X11686848Y-11533984D01*
X11782086Y-11533984D02*
X11782086Y-11400650D01*
X11782086Y-11419698D02*
X11791610Y-11410174D01*
X11791610Y-11410174D02*
X11810658Y-11400650D01*
X11810658Y-11400650D02*
X11839229Y-11400650D01*
X11839229Y-11400650D02*
X11858277Y-11410174D01*
X11858277Y-11410174D02*
X11867801Y-11429222D01*
X11867801Y-11429222D02*
X11867801Y-11533984D01*
X11867801Y-11429222D02*
X11877324Y-11410174D01*
X11877324Y-11410174D02*
X11896372Y-11400650D01*
X11896372Y-11400650D02*
X11924943Y-11400650D01*
X11924943Y-11400650D02*
X11943991Y-11410174D01*
X11943991Y-11410174D02*
X11953515Y-11429222D01*
X11953515Y-11429222D02*
X11953515Y-11533984D01*
X12343991Y-11324460D02*
X12172563Y-11581603D01*
X12601134Y-11333984D02*
X12620182Y-11333984D01*
X12620182Y-11333984D02*
X12639229Y-11343508D01*
X12639229Y-11343508D02*
X12648753Y-11353031D01*
X12648753Y-11353031D02*
X12658277Y-11372079D01*
X12658277Y-11372079D02*
X12667801Y-11410174D01*
X12667801Y-11410174D02*
X12667801Y-11457793D01*
X12667801Y-11457793D02*
X12658277Y-11495888D01*
X12658277Y-11495888D02*
X12648753Y-11514936D01*
X12648753Y-11514936D02*
X12639229Y-11524460D01*
X12639229Y-11524460D02*
X12620182Y-11533984D01*
X12620182Y-11533984D02*
X12601134Y-11533984D01*
X12601134Y-11533984D02*
X12582086Y-11524460D01*
X12582086Y-11524460D02*
X12572563Y-11514936D01*
X12572563Y-11514936D02*
X12563039Y-11495888D01*
X12563039Y-11495888D02*
X12553515Y-11457793D01*
X12553515Y-11457793D02*
X12553515Y-11410174D01*
X12553515Y-11410174D02*
X12563039Y-11372079D01*
X12563039Y-11372079D02*
X12572563Y-11353031D01*
X12572563Y-11353031D02*
X12582086Y-11343508D01*
X12582086Y-11343508D02*
X12601134Y-11333984D01*
X12753515Y-11514936D02*
X12763039Y-11524460D01*
X12763039Y-11524460D02*
X12753515Y-11533984D01*
X12753515Y-11533984D02*
X12743991Y-11524460D01*
X12743991Y-11524460D02*
X12753515Y-11514936D01*
X12753515Y-11514936D02*
X12753515Y-11533984D01*
X12886848Y-11333984D02*
X12905896Y-11333984D01*
X12905896Y-11333984D02*
X12924944Y-11343508D01*
X12924944Y-11343508D02*
X12934467Y-11353031D01*
X12934467Y-11353031D02*
X12943991Y-11372079D01*
X12943991Y-11372079D02*
X12953515Y-11410174D01*
X12953515Y-11410174D02*
X12953515Y-11457793D01*
X12953515Y-11457793D02*
X12943991Y-11495888D01*
X12943991Y-11495888D02*
X12934467Y-11514936D01*
X12934467Y-11514936D02*
X12924944Y-11524460D01*
X12924944Y-11524460D02*
X12905896Y-11533984D01*
X12905896Y-11533984D02*
X12886848Y-11533984D01*
X12886848Y-11533984D02*
X12867801Y-11524460D01*
X12867801Y-11524460D02*
X12858277Y-11514936D01*
X12858277Y-11514936D02*
X12848753Y-11495888D01*
X12848753Y-11495888D02*
X12839229Y-11457793D01*
X12839229Y-11457793D02*
X12839229Y-11410174D01*
X12839229Y-11410174D02*
X12848753Y-11372079D01*
X12848753Y-11372079D02*
X12858277Y-11353031D01*
X12858277Y-11353031D02*
X12867801Y-11343508D01*
X12867801Y-11343508D02*
X12886848Y-11333984D01*
X13020182Y-11333984D02*
X13143991Y-11333984D01*
X13143991Y-11333984D02*
X13077325Y-11410174D01*
X13077325Y-11410174D02*
X13105896Y-11410174D01*
X13105896Y-11410174D02*
X13124944Y-11419698D01*
X13124944Y-11419698D02*
X13134467Y-11429222D01*
X13134467Y-11429222D02*
X13143991Y-11448269D01*
X13143991Y-11448269D02*
X13143991Y-11495888D01*
X13143991Y-11495888D02*
X13134467Y-11514936D01*
X13134467Y-11514936D02*
X13124944Y-11524460D01*
X13124944Y-11524460D02*
X13105896Y-11533984D01*
X13105896Y-11533984D02*
X13048753Y-11533984D01*
X13048753Y-11533984D02*
X13029706Y-11524460D01*
X13029706Y-11524460D02*
X13020182Y-11514936D01*
X13239229Y-11533984D02*
X13277325Y-11533984D01*
X13277325Y-11533984D02*
X13296372Y-11524460D01*
X13296372Y-11524460D02*
X13305896Y-11514936D01*
X13305896Y-11514936D02*
X13324944Y-11486365D01*
X13324944Y-11486365D02*
X13334467Y-11448269D01*
X13334467Y-11448269D02*
X13334467Y-11372079D01*
X13334467Y-11372079D02*
X13324944Y-11353031D01*
X13324944Y-11353031D02*
X13315420Y-11343508D01*
X13315420Y-11343508D02*
X13296372Y-11333984D01*
X13296372Y-11333984D02*
X13258277Y-11333984D01*
X13258277Y-11333984D02*
X13239229Y-11343508D01*
X13239229Y-11343508D02*
X13229706Y-11353031D01*
X13229706Y-11353031D02*
X13220182Y-11372079D01*
X13220182Y-11372079D02*
X13220182Y-11419698D01*
X13220182Y-11419698D02*
X13229706Y-11438746D01*
X13229706Y-11438746D02*
X13239229Y-11448269D01*
X13239229Y-11448269D02*
X13258277Y-11457793D01*
X13258277Y-11457793D02*
X13296372Y-11457793D01*
X13296372Y-11457793D02*
X13315420Y-11448269D01*
X13315420Y-11448269D02*
X13324944Y-11438746D01*
X13324944Y-11438746D02*
X13334467Y-11419698D01*
X13505896Y-11400650D02*
X13505896Y-11533984D01*
X13458277Y-11324460D02*
X13410658Y-11467317D01*
X13410658Y-11467317D02*
X13534467Y-11467317D01*
X13601134Y-11333984D02*
X13601134Y-11372079D01*
X13677325Y-11333984D02*
X13677325Y-11372079D01*
X13972563Y-11610174D02*
X13963039Y-11600650D01*
X13963039Y-11600650D02*
X13943991Y-11572079D01*
X13943991Y-11572079D02*
X13934468Y-11553031D01*
X13934468Y-11553031D02*
X13924944Y-11524460D01*
X13924944Y-11524460D02*
X13915420Y-11476841D01*
X13915420Y-11476841D02*
X13915420Y-11438746D01*
X13915420Y-11438746D02*
X13924944Y-11391127D01*
X13924944Y-11391127D02*
X13934468Y-11362555D01*
X13934468Y-11362555D02*
X13943991Y-11343508D01*
X13943991Y-11343508D02*
X13963039Y-11314936D01*
X13963039Y-11314936D02*
X13972563Y-11305412D01*
X14153515Y-11533984D02*
X14039229Y-11533984D01*
X14096372Y-11533984D02*
X14096372Y-11333984D01*
X14096372Y-11333984D02*
X14077325Y-11362555D01*
X14077325Y-11362555D02*
X14058277Y-11381603D01*
X14058277Y-11381603D02*
X14039229Y-11391127D01*
X14277325Y-11333984D02*
X14296372Y-11333984D01*
X14296372Y-11333984D02*
X14315420Y-11343508D01*
X14315420Y-11343508D02*
X14324944Y-11353031D01*
X14324944Y-11353031D02*
X14334468Y-11372079D01*
X14334468Y-11372079D02*
X14343991Y-11410174D01*
X14343991Y-11410174D02*
X14343991Y-11457793D01*
X14343991Y-11457793D02*
X14334468Y-11495888D01*
X14334468Y-11495888D02*
X14324944Y-11514936D01*
X14324944Y-11514936D02*
X14315420Y-11524460D01*
X14315420Y-11524460D02*
X14296372Y-11533984D01*
X14296372Y-11533984D02*
X14277325Y-11533984D01*
X14277325Y-11533984D02*
X14258277Y-11524460D01*
X14258277Y-11524460D02*
X14248753Y-11514936D01*
X14248753Y-11514936D02*
X14239229Y-11495888D01*
X14239229Y-11495888D02*
X14229706Y-11457793D01*
X14229706Y-11457793D02*
X14229706Y-11410174D01*
X14229706Y-11410174D02*
X14239229Y-11372079D01*
X14239229Y-11372079D02*
X14248753Y-11353031D01*
X14248753Y-11353031D02*
X14258277Y-11343508D01*
X14258277Y-11343508D02*
X14277325Y-11333984D01*
X14582087Y-11533984D02*
X14582087Y-11333984D01*
X14667801Y-11533984D02*
X14667801Y-11429222D01*
X14667801Y-11429222D02*
X14658277Y-11410174D01*
X14658277Y-11410174D02*
X14639230Y-11400650D01*
X14639230Y-11400650D02*
X14610658Y-11400650D01*
X14610658Y-11400650D02*
X14591610Y-11410174D01*
X14591610Y-11410174D02*
X14582087Y-11419698D01*
X14791610Y-11533984D02*
X14772563Y-11524460D01*
X14772563Y-11524460D02*
X14763039Y-11514936D01*
X14763039Y-11514936D02*
X14753515Y-11495888D01*
X14753515Y-11495888D02*
X14753515Y-11438746D01*
X14753515Y-11438746D02*
X14763039Y-11419698D01*
X14763039Y-11419698D02*
X14772563Y-11410174D01*
X14772563Y-11410174D02*
X14791610Y-11400650D01*
X14791610Y-11400650D02*
X14820182Y-11400650D01*
X14820182Y-11400650D02*
X14839230Y-11410174D01*
X14839230Y-11410174D02*
X14848753Y-11419698D01*
X14848753Y-11419698D02*
X14858277Y-11438746D01*
X14858277Y-11438746D02*
X14858277Y-11495888D01*
X14858277Y-11495888D02*
X14848753Y-11514936D01*
X14848753Y-11514936D02*
X14839230Y-11524460D01*
X14839230Y-11524460D02*
X14820182Y-11533984D01*
X14820182Y-11533984D02*
X14791610Y-11533984D01*
X14972563Y-11533984D02*
X14953515Y-11524460D01*
X14953515Y-11524460D02*
X14943991Y-11505412D01*
X14943991Y-11505412D02*
X14943991Y-11333984D01*
X15124944Y-11524460D02*
X15105896Y-11533984D01*
X15105896Y-11533984D02*
X15067801Y-11533984D01*
X15067801Y-11533984D02*
X15048753Y-11524460D01*
X15048753Y-11524460D02*
X15039230Y-11505412D01*
X15039230Y-11505412D02*
X15039230Y-11429222D01*
X15039230Y-11429222D02*
X15048753Y-11410174D01*
X15048753Y-11410174D02*
X15067801Y-11400650D01*
X15067801Y-11400650D02*
X15105896Y-11400650D01*
X15105896Y-11400650D02*
X15124944Y-11410174D01*
X15124944Y-11410174D02*
X15134468Y-11429222D01*
X15134468Y-11429222D02*
X15134468Y-11448269D01*
X15134468Y-11448269D02*
X15039230Y-11467317D01*
X15210658Y-11524460D02*
X15229706Y-11533984D01*
X15229706Y-11533984D02*
X15267801Y-11533984D01*
X15267801Y-11533984D02*
X15286849Y-11524460D01*
X15286849Y-11524460D02*
X15296372Y-11505412D01*
X15296372Y-11505412D02*
X15296372Y-11495888D01*
X15296372Y-11495888D02*
X15286849Y-11476841D01*
X15286849Y-11476841D02*
X15267801Y-11467317D01*
X15267801Y-11467317D02*
X15239230Y-11467317D01*
X15239230Y-11467317D02*
X15220182Y-11457793D01*
X15220182Y-11457793D02*
X15210658Y-11438746D01*
X15210658Y-11438746D02*
X15210658Y-11429222D01*
X15210658Y-11429222D02*
X15220182Y-11410174D01*
X15220182Y-11410174D02*
X15239230Y-11400650D01*
X15239230Y-11400650D02*
X15267801Y-11400650D01*
X15267801Y-11400650D02*
X15286849Y-11410174D01*
X15363039Y-11610174D02*
X15372563Y-11600650D01*
X15372563Y-11600650D02*
X15391611Y-11572079D01*
X15391611Y-11572079D02*
X15401134Y-11553031D01*
X15401134Y-11553031D02*
X15410658Y-11524460D01*
X15410658Y-11524460D02*
X15420182Y-11476841D01*
X15420182Y-11476841D02*
X15420182Y-11438746D01*
X15420182Y-11438746D02*
X15410658Y-11391127D01*
X15410658Y-11391127D02*
X15401134Y-11362555D01*
X15401134Y-11362555D02*
X15391611Y-11343508D01*
X15391611Y-11343508D02*
X15372563Y-11314936D01*
X15372563Y-11314936D02*
X15363039Y-11305412D01*
D13*
X10397500Y-11706500D02*
G75*
G02*
X10287500Y-11706500I-55000J0D01*
G01*
X10287500Y-11706500D02*
G75*
G02*
X10397500Y-11706500I55000J0D01*
G01*
D11*
X10763039Y-11797984D02*
X10648753Y-11797984D01*
X10705896Y-11797984D02*
X10705896Y-11597984D01*
X10705896Y-11597984D02*
X10686848Y-11626555D01*
X10686848Y-11626555D02*
X10667801Y-11645603D01*
X10667801Y-11645603D02*
X10648753Y-11655127D01*
X10848753Y-11778936D02*
X10858277Y-11788460D01*
X10858277Y-11788460D02*
X10848753Y-11797984D01*
X10848753Y-11797984D02*
X10839229Y-11788460D01*
X10839229Y-11788460D02*
X10848753Y-11778936D01*
X10848753Y-11778936D02*
X10848753Y-11797984D01*
X11048753Y-11797984D02*
X10934467Y-11797984D01*
X10991610Y-11797984D02*
X10991610Y-11597984D01*
X10991610Y-11597984D02*
X10972563Y-11626555D01*
X10972563Y-11626555D02*
X10953515Y-11645603D01*
X10953515Y-11645603D02*
X10934467Y-11655127D01*
X11172563Y-11597984D02*
X11191610Y-11597984D01*
X11191610Y-11597984D02*
X11210658Y-11607508D01*
X11210658Y-11607508D02*
X11220182Y-11617031D01*
X11220182Y-11617031D02*
X11229705Y-11636079D01*
X11229705Y-11636079D02*
X11239229Y-11674174D01*
X11239229Y-11674174D02*
X11239229Y-11721793D01*
X11239229Y-11721793D02*
X11229705Y-11759888D01*
X11229705Y-11759888D02*
X11220182Y-11778936D01*
X11220182Y-11778936D02*
X11210658Y-11788460D01*
X11210658Y-11788460D02*
X11191610Y-11797984D01*
X11191610Y-11797984D02*
X11172563Y-11797984D01*
X11172563Y-11797984D02*
X11153515Y-11788460D01*
X11153515Y-11788460D02*
X11143991Y-11778936D01*
X11143991Y-11778936D02*
X11134467Y-11759888D01*
X11134467Y-11759888D02*
X11124944Y-11721793D01*
X11124944Y-11721793D02*
X11124944Y-11674174D01*
X11124944Y-11674174D02*
X11134467Y-11636079D01*
X11134467Y-11636079D02*
X11143991Y-11617031D01*
X11143991Y-11617031D02*
X11153515Y-11607508D01*
X11153515Y-11607508D02*
X11172563Y-11597984D01*
X11363039Y-11597984D02*
X11382086Y-11597984D01*
X11382086Y-11597984D02*
X11401134Y-11607508D01*
X11401134Y-11607508D02*
X11410658Y-11617031D01*
X11410658Y-11617031D02*
X11420182Y-11636079D01*
X11420182Y-11636079D02*
X11429705Y-11674174D01*
X11429705Y-11674174D02*
X11429705Y-11721793D01*
X11429705Y-11721793D02*
X11420182Y-11759888D01*
X11420182Y-11759888D02*
X11410658Y-11778936D01*
X11410658Y-11778936D02*
X11401134Y-11788460D01*
X11401134Y-11788460D02*
X11382086Y-11797984D01*
X11382086Y-11797984D02*
X11363039Y-11797984D01*
X11363039Y-11797984D02*
X11343991Y-11788460D01*
X11343991Y-11788460D02*
X11334467Y-11778936D01*
X11334467Y-11778936D02*
X11324943Y-11759888D01*
X11324943Y-11759888D02*
X11315420Y-11721793D01*
X11315420Y-11721793D02*
X11315420Y-11674174D01*
X11315420Y-11674174D02*
X11324943Y-11636079D01*
X11324943Y-11636079D02*
X11334467Y-11617031D01*
X11334467Y-11617031D02*
X11343991Y-11607508D01*
X11343991Y-11607508D02*
X11363039Y-11597984D01*
X11515420Y-11797984D02*
X11515420Y-11664650D01*
X11515420Y-11683698D02*
X11524943Y-11674174D01*
X11524943Y-11674174D02*
X11543991Y-11664650D01*
X11543991Y-11664650D02*
X11572563Y-11664650D01*
X11572563Y-11664650D02*
X11591610Y-11674174D01*
X11591610Y-11674174D02*
X11601134Y-11693222D01*
X11601134Y-11693222D02*
X11601134Y-11797984D01*
X11601134Y-11693222D02*
X11610658Y-11674174D01*
X11610658Y-11674174D02*
X11629705Y-11664650D01*
X11629705Y-11664650D02*
X11658277Y-11664650D01*
X11658277Y-11664650D02*
X11677324Y-11674174D01*
X11677324Y-11674174D02*
X11686848Y-11693222D01*
X11686848Y-11693222D02*
X11686848Y-11797984D01*
X11782086Y-11797984D02*
X11782086Y-11664650D01*
X11782086Y-11683698D02*
X11791610Y-11674174D01*
X11791610Y-11674174D02*
X11810658Y-11664650D01*
X11810658Y-11664650D02*
X11839229Y-11664650D01*
X11839229Y-11664650D02*
X11858277Y-11674174D01*
X11858277Y-11674174D02*
X11867801Y-11693222D01*
X11867801Y-11693222D02*
X11867801Y-11797984D01*
X11867801Y-11693222D02*
X11877324Y-11674174D01*
X11877324Y-11674174D02*
X11896372Y-11664650D01*
X11896372Y-11664650D02*
X11924943Y-11664650D01*
X11924943Y-11664650D02*
X11943991Y-11674174D01*
X11943991Y-11674174D02*
X11953515Y-11693222D01*
X11953515Y-11693222D02*
X11953515Y-11797984D01*
X12343991Y-11588460D02*
X12172563Y-11845603D01*
X12601134Y-11597984D02*
X12620182Y-11597984D01*
X12620182Y-11597984D02*
X12639229Y-11607508D01*
X12639229Y-11607508D02*
X12648753Y-11617031D01*
X12648753Y-11617031D02*
X12658277Y-11636079D01*
X12658277Y-11636079D02*
X12667801Y-11674174D01*
X12667801Y-11674174D02*
X12667801Y-11721793D01*
X12667801Y-11721793D02*
X12658277Y-11759888D01*
X12658277Y-11759888D02*
X12648753Y-11778936D01*
X12648753Y-11778936D02*
X12639229Y-11788460D01*
X12639229Y-11788460D02*
X12620182Y-11797984D01*
X12620182Y-11797984D02*
X12601134Y-11797984D01*
X12601134Y-11797984D02*
X12582086Y-11788460D01*
X12582086Y-11788460D02*
X12572563Y-11778936D01*
X12572563Y-11778936D02*
X12563039Y-11759888D01*
X12563039Y-11759888D02*
X12553515Y-11721793D01*
X12553515Y-11721793D02*
X12553515Y-11674174D01*
X12553515Y-11674174D02*
X12563039Y-11636079D01*
X12563039Y-11636079D02*
X12572563Y-11617031D01*
X12572563Y-11617031D02*
X12582086Y-11607508D01*
X12582086Y-11607508D02*
X12601134Y-11597984D01*
X12753515Y-11778936D02*
X12763039Y-11788460D01*
X12763039Y-11788460D02*
X12753515Y-11797984D01*
X12753515Y-11797984D02*
X12743991Y-11788460D01*
X12743991Y-11788460D02*
X12753515Y-11778936D01*
X12753515Y-11778936D02*
X12753515Y-11797984D01*
X12886848Y-11597984D02*
X12905896Y-11597984D01*
X12905896Y-11597984D02*
X12924944Y-11607508D01*
X12924944Y-11607508D02*
X12934467Y-11617031D01*
X12934467Y-11617031D02*
X12943991Y-11636079D01*
X12943991Y-11636079D02*
X12953515Y-11674174D01*
X12953515Y-11674174D02*
X12953515Y-11721793D01*
X12953515Y-11721793D02*
X12943991Y-11759888D01*
X12943991Y-11759888D02*
X12934467Y-11778936D01*
X12934467Y-11778936D02*
X12924944Y-11788460D01*
X12924944Y-11788460D02*
X12905896Y-11797984D01*
X12905896Y-11797984D02*
X12886848Y-11797984D01*
X12886848Y-11797984D02*
X12867801Y-11788460D01*
X12867801Y-11788460D02*
X12858277Y-11778936D01*
X12858277Y-11778936D02*
X12848753Y-11759888D01*
X12848753Y-11759888D02*
X12839229Y-11721793D01*
X12839229Y-11721793D02*
X12839229Y-11674174D01*
X12839229Y-11674174D02*
X12848753Y-11636079D01*
X12848753Y-11636079D02*
X12858277Y-11617031D01*
X12858277Y-11617031D02*
X12867801Y-11607508D01*
X12867801Y-11607508D02*
X12886848Y-11597984D01*
X13124944Y-11664650D02*
X13124944Y-11797984D01*
X13077325Y-11588460D02*
X13029706Y-11731317D01*
X13029706Y-11731317D02*
X13153515Y-11731317D01*
X13210658Y-11597984D02*
X13334467Y-11597984D01*
X13334467Y-11597984D02*
X13267801Y-11674174D01*
X13267801Y-11674174D02*
X13296372Y-11674174D01*
X13296372Y-11674174D02*
X13315420Y-11683698D01*
X13315420Y-11683698D02*
X13324944Y-11693222D01*
X13324944Y-11693222D02*
X13334467Y-11712269D01*
X13334467Y-11712269D02*
X13334467Y-11759888D01*
X13334467Y-11759888D02*
X13324944Y-11778936D01*
X13324944Y-11778936D02*
X13315420Y-11788460D01*
X13315420Y-11788460D02*
X13296372Y-11797984D01*
X13296372Y-11797984D02*
X13239229Y-11797984D01*
X13239229Y-11797984D02*
X13220182Y-11788460D01*
X13220182Y-11788460D02*
X13210658Y-11778936D01*
X13401134Y-11597984D02*
X13524944Y-11597984D01*
X13524944Y-11597984D02*
X13458277Y-11674174D01*
X13458277Y-11674174D02*
X13486848Y-11674174D01*
X13486848Y-11674174D02*
X13505896Y-11683698D01*
X13505896Y-11683698D02*
X13515420Y-11693222D01*
X13515420Y-11693222D02*
X13524944Y-11712269D01*
X13524944Y-11712269D02*
X13524944Y-11759888D01*
X13524944Y-11759888D02*
X13515420Y-11778936D01*
X13515420Y-11778936D02*
X13505896Y-11788460D01*
X13505896Y-11788460D02*
X13486848Y-11797984D01*
X13486848Y-11797984D02*
X13429706Y-11797984D01*
X13429706Y-11797984D02*
X13410658Y-11788460D01*
X13410658Y-11788460D02*
X13401134Y-11778936D01*
X13601134Y-11597984D02*
X13601134Y-11636079D01*
X13677325Y-11597984D02*
X13677325Y-11636079D01*
X13972563Y-11874174D02*
X13963039Y-11864650D01*
X13963039Y-11864650D02*
X13943991Y-11836079D01*
X13943991Y-11836079D02*
X13934468Y-11817031D01*
X13934468Y-11817031D02*
X13924944Y-11788460D01*
X13924944Y-11788460D02*
X13915420Y-11740841D01*
X13915420Y-11740841D02*
X13915420Y-11702746D01*
X13915420Y-11702746D02*
X13924944Y-11655127D01*
X13924944Y-11655127D02*
X13934468Y-11626555D01*
X13934468Y-11626555D02*
X13943991Y-11607508D01*
X13943991Y-11607508D02*
X13963039Y-11578936D01*
X13963039Y-11578936D02*
X13972563Y-11569412D01*
X14039229Y-11617031D02*
X14048753Y-11607508D01*
X14048753Y-11607508D02*
X14067801Y-11597984D01*
X14067801Y-11597984D02*
X14115420Y-11597984D01*
X14115420Y-11597984D02*
X14134468Y-11607508D01*
X14134468Y-11607508D02*
X14143991Y-11617031D01*
X14143991Y-11617031D02*
X14153515Y-11636079D01*
X14153515Y-11636079D02*
X14153515Y-11655127D01*
X14153515Y-11655127D02*
X14143991Y-11683698D01*
X14143991Y-11683698D02*
X14029706Y-11797984D01*
X14029706Y-11797984D02*
X14153515Y-11797984D01*
X14391610Y-11797984D02*
X14391610Y-11597984D01*
X14477325Y-11797984D02*
X14477325Y-11693222D01*
X14477325Y-11693222D02*
X14467801Y-11674174D01*
X14467801Y-11674174D02*
X14448753Y-11664650D01*
X14448753Y-11664650D02*
X14420182Y-11664650D01*
X14420182Y-11664650D02*
X14401134Y-11674174D01*
X14401134Y-11674174D02*
X14391610Y-11683698D01*
X14601134Y-11797984D02*
X14582087Y-11788460D01*
X14582087Y-11788460D02*
X14572563Y-11778936D01*
X14572563Y-11778936D02*
X14563039Y-11759888D01*
X14563039Y-11759888D02*
X14563039Y-11702746D01*
X14563039Y-11702746D02*
X14572563Y-11683698D01*
X14572563Y-11683698D02*
X14582087Y-11674174D01*
X14582087Y-11674174D02*
X14601134Y-11664650D01*
X14601134Y-11664650D02*
X14629706Y-11664650D01*
X14629706Y-11664650D02*
X14648753Y-11674174D01*
X14648753Y-11674174D02*
X14658277Y-11683698D01*
X14658277Y-11683698D02*
X14667801Y-11702746D01*
X14667801Y-11702746D02*
X14667801Y-11759888D01*
X14667801Y-11759888D02*
X14658277Y-11778936D01*
X14658277Y-11778936D02*
X14648753Y-11788460D01*
X14648753Y-11788460D02*
X14629706Y-11797984D01*
X14629706Y-11797984D02*
X14601134Y-11797984D01*
X14782087Y-11797984D02*
X14763039Y-11788460D01*
X14763039Y-11788460D02*
X14753515Y-11769412D01*
X14753515Y-11769412D02*
X14753515Y-11597984D01*
X14934468Y-11788460D02*
X14915420Y-11797984D01*
X14915420Y-11797984D02*
X14877325Y-11797984D01*
X14877325Y-11797984D02*
X14858277Y-11788460D01*
X14858277Y-11788460D02*
X14848753Y-11769412D01*
X14848753Y-11769412D02*
X14848753Y-11693222D01*
X14848753Y-11693222D02*
X14858277Y-11674174D01*
X14858277Y-11674174D02*
X14877325Y-11664650D01*
X14877325Y-11664650D02*
X14915420Y-11664650D01*
X14915420Y-11664650D02*
X14934468Y-11674174D01*
X14934468Y-11674174D02*
X14943991Y-11693222D01*
X14943991Y-11693222D02*
X14943991Y-11712269D01*
X14943991Y-11712269D02*
X14848753Y-11731317D01*
X15020182Y-11788460D02*
X15039230Y-11797984D01*
X15039230Y-11797984D02*
X15077325Y-11797984D01*
X15077325Y-11797984D02*
X15096372Y-11788460D01*
X15096372Y-11788460D02*
X15105896Y-11769412D01*
X15105896Y-11769412D02*
X15105896Y-11759888D01*
X15105896Y-11759888D02*
X15096372Y-11740841D01*
X15096372Y-11740841D02*
X15077325Y-11731317D01*
X15077325Y-11731317D02*
X15048753Y-11731317D01*
X15048753Y-11731317D02*
X15029706Y-11721793D01*
X15029706Y-11721793D02*
X15020182Y-11702746D01*
X15020182Y-11702746D02*
X15020182Y-11693222D01*
X15020182Y-11693222D02*
X15029706Y-11674174D01*
X15029706Y-11674174D02*
X15048753Y-11664650D01*
X15048753Y-11664650D02*
X15077325Y-11664650D01*
X15077325Y-11664650D02*
X15096372Y-11674174D01*
X15172563Y-11874174D02*
X15182087Y-11864650D01*
X15182087Y-11864650D02*
X15201134Y-11836079D01*
X15201134Y-11836079D02*
X15210658Y-11817031D01*
X15210658Y-11817031D02*
X15220182Y-11788460D01*
X15220182Y-11788460D02*
X15229706Y-11740841D01*
X15229706Y-11740841D02*
X15229706Y-11702746D01*
X15229706Y-11702746D02*
X15220182Y-11655127D01*
X15220182Y-11655127D02*
X15210658Y-11626555D01*
X15210658Y-11626555D02*
X15201134Y-11607508D01*
X15201134Y-11607508D02*
X15182087Y-11578936D01*
X15182087Y-11578936D02*
X15172563Y-11569412D01*
D14*
X10322500Y-11895500D02*
X10322500Y-12045500D01*
X10247500Y-11970500D02*
X10397500Y-11970500D01*
D11*
X10763039Y-12061984D02*
X10648753Y-12061984D01*
X10705896Y-12061984D02*
X10705896Y-11861984D01*
X10705896Y-11861984D02*
X10686848Y-11890555D01*
X10686848Y-11890555D02*
X10667801Y-11909603D01*
X10667801Y-11909603D02*
X10648753Y-11919127D01*
X10848753Y-12042936D02*
X10858277Y-12052460D01*
X10858277Y-12052460D02*
X10848753Y-12061984D01*
X10848753Y-12061984D02*
X10839229Y-12052460D01*
X10839229Y-12052460D02*
X10848753Y-12042936D01*
X10848753Y-12042936D02*
X10848753Y-12061984D01*
X11039229Y-11861984D02*
X10943991Y-11861984D01*
X10943991Y-11861984D02*
X10934467Y-11957222D01*
X10934467Y-11957222D02*
X10943991Y-11947698D01*
X10943991Y-11947698D02*
X10963039Y-11938174D01*
X10963039Y-11938174D02*
X11010658Y-11938174D01*
X11010658Y-11938174D02*
X11029705Y-11947698D01*
X11029705Y-11947698D02*
X11039229Y-11957222D01*
X11039229Y-11957222D02*
X11048753Y-11976269D01*
X11048753Y-11976269D02*
X11048753Y-12023888D01*
X11048753Y-12023888D02*
X11039229Y-12042936D01*
X11039229Y-12042936D02*
X11029705Y-12052460D01*
X11029705Y-12052460D02*
X11010658Y-12061984D01*
X11010658Y-12061984D02*
X10963039Y-12061984D01*
X10963039Y-12061984D02*
X10943991Y-12052460D01*
X10943991Y-12052460D02*
X10934467Y-12042936D01*
X11172563Y-11861984D02*
X11191610Y-11861984D01*
X11191610Y-11861984D02*
X11210658Y-11871508D01*
X11210658Y-11871508D02*
X11220182Y-11881031D01*
X11220182Y-11881031D02*
X11229705Y-11900079D01*
X11229705Y-11900079D02*
X11239229Y-11938174D01*
X11239229Y-11938174D02*
X11239229Y-11985793D01*
X11239229Y-11985793D02*
X11229705Y-12023888D01*
X11229705Y-12023888D02*
X11220182Y-12042936D01*
X11220182Y-12042936D02*
X11210658Y-12052460D01*
X11210658Y-12052460D02*
X11191610Y-12061984D01*
X11191610Y-12061984D02*
X11172563Y-12061984D01*
X11172563Y-12061984D02*
X11153515Y-12052460D01*
X11153515Y-12052460D02*
X11143991Y-12042936D01*
X11143991Y-12042936D02*
X11134467Y-12023888D01*
X11134467Y-12023888D02*
X11124944Y-11985793D01*
X11124944Y-11985793D02*
X11124944Y-11938174D01*
X11124944Y-11938174D02*
X11134467Y-11900079D01*
X11134467Y-11900079D02*
X11143991Y-11881031D01*
X11143991Y-11881031D02*
X11153515Y-11871508D01*
X11153515Y-11871508D02*
X11172563Y-11861984D01*
X11363039Y-11861984D02*
X11382086Y-11861984D01*
X11382086Y-11861984D02*
X11401134Y-11871508D01*
X11401134Y-11871508D02*
X11410658Y-11881031D01*
X11410658Y-11881031D02*
X11420182Y-11900079D01*
X11420182Y-11900079D02*
X11429705Y-11938174D01*
X11429705Y-11938174D02*
X11429705Y-11985793D01*
X11429705Y-11985793D02*
X11420182Y-12023888D01*
X11420182Y-12023888D02*
X11410658Y-12042936D01*
X11410658Y-12042936D02*
X11401134Y-12052460D01*
X11401134Y-12052460D02*
X11382086Y-12061984D01*
X11382086Y-12061984D02*
X11363039Y-12061984D01*
X11363039Y-12061984D02*
X11343991Y-12052460D01*
X11343991Y-12052460D02*
X11334467Y-12042936D01*
X11334467Y-12042936D02*
X11324943Y-12023888D01*
X11324943Y-12023888D02*
X11315420Y-11985793D01*
X11315420Y-11985793D02*
X11315420Y-11938174D01*
X11315420Y-11938174D02*
X11324943Y-11900079D01*
X11324943Y-11900079D02*
X11334467Y-11881031D01*
X11334467Y-11881031D02*
X11343991Y-11871508D01*
X11343991Y-11871508D02*
X11363039Y-11861984D01*
X11515420Y-12061984D02*
X11515420Y-11928650D01*
X11515420Y-11947698D02*
X11524943Y-11938174D01*
X11524943Y-11938174D02*
X11543991Y-11928650D01*
X11543991Y-11928650D02*
X11572563Y-11928650D01*
X11572563Y-11928650D02*
X11591610Y-11938174D01*
X11591610Y-11938174D02*
X11601134Y-11957222D01*
X11601134Y-11957222D02*
X11601134Y-12061984D01*
X11601134Y-11957222D02*
X11610658Y-11938174D01*
X11610658Y-11938174D02*
X11629705Y-11928650D01*
X11629705Y-11928650D02*
X11658277Y-11928650D01*
X11658277Y-11928650D02*
X11677324Y-11938174D01*
X11677324Y-11938174D02*
X11686848Y-11957222D01*
X11686848Y-11957222D02*
X11686848Y-12061984D01*
X11782086Y-12061984D02*
X11782086Y-11928650D01*
X11782086Y-11947698D02*
X11791610Y-11938174D01*
X11791610Y-11938174D02*
X11810658Y-11928650D01*
X11810658Y-11928650D02*
X11839229Y-11928650D01*
X11839229Y-11928650D02*
X11858277Y-11938174D01*
X11858277Y-11938174D02*
X11867801Y-11957222D01*
X11867801Y-11957222D02*
X11867801Y-12061984D01*
X11867801Y-11957222D02*
X11877324Y-11938174D01*
X11877324Y-11938174D02*
X11896372Y-11928650D01*
X11896372Y-11928650D02*
X11924943Y-11928650D01*
X11924943Y-11928650D02*
X11943991Y-11938174D01*
X11943991Y-11938174D02*
X11953515Y-11957222D01*
X11953515Y-11957222D02*
X11953515Y-12061984D01*
X12343991Y-11852460D02*
X12172563Y-12109603D01*
X12601134Y-11861984D02*
X12620182Y-11861984D01*
X12620182Y-11861984D02*
X12639229Y-11871508D01*
X12639229Y-11871508D02*
X12648753Y-11881031D01*
X12648753Y-11881031D02*
X12658277Y-11900079D01*
X12658277Y-11900079D02*
X12667801Y-11938174D01*
X12667801Y-11938174D02*
X12667801Y-11985793D01*
X12667801Y-11985793D02*
X12658277Y-12023888D01*
X12658277Y-12023888D02*
X12648753Y-12042936D01*
X12648753Y-12042936D02*
X12639229Y-12052460D01*
X12639229Y-12052460D02*
X12620182Y-12061984D01*
X12620182Y-12061984D02*
X12601134Y-12061984D01*
X12601134Y-12061984D02*
X12582086Y-12052460D01*
X12582086Y-12052460D02*
X12572563Y-12042936D01*
X12572563Y-12042936D02*
X12563039Y-12023888D01*
X12563039Y-12023888D02*
X12553515Y-11985793D01*
X12553515Y-11985793D02*
X12553515Y-11938174D01*
X12553515Y-11938174D02*
X12563039Y-11900079D01*
X12563039Y-11900079D02*
X12572563Y-11881031D01*
X12572563Y-11881031D02*
X12582086Y-11871508D01*
X12582086Y-11871508D02*
X12601134Y-11861984D01*
X12753515Y-12042936D02*
X12763039Y-12052460D01*
X12763039Y-12052460D02*
X12753515Y-12061984D01*
X12753515Y-12061984D02*
X12743991Y-12052460D01*
X12743991Y-12052460D02*
X12753515Y-12042936D01*
X12753515Y-12042936D02*
X12753515Y-12061984D01*
X12886848Y-11861984D02*
X12905896Y-11861984D01*
X12905896Y-11861984D02*
X12924944Y-11871508D01*
X12924944Y-11871508D02*
X12934467Y-11881031D01*
X12934467Y-11881031D02*
X12943991Y-11900079D01*
X12943991Y-11900079D02*
X12953515Y-11938174D01*
X12953515Y-11938174D02*
X12953515Y-11985793D01*
X12953515Y-11985793D02*
X12943991Y-12023888D01*
X12943991Y-12023888D02*
X12934467Y-12042936D01*
X12934467Y-12042936D02*
X12924944Y-12052460D01*
X12924944Y-12052460D02*
X12905896Y-12061984D01*
X12905896Y-12061984D02*
X12886848Y-12061984D01*
X12886848Y-12061984D02*
X12867801Y-12052460D01*
X12867801Y-12052460D02*
X12858277Y-12042936D01*
X12858277Y-12042936D02*
X12848753Y-12023888D01*
X12848753Y-12023888D02*
X12839229Y-11985793D01*
X12839229Y-11985793D02*
X12839229Y-11938174D01*
X12839229Y-11938174D02*
X12848753Y-11900079D01*
X12848753Y-11900079D02*
X12858277Y-11881031D01*
X12858277Y-11881031D02*
X12867801Y-11871508D01*
X12867801Y-11871508D02*
X12886848Y-11861984D01*
X13134467Y-11861984D02*
X13039229Y-11861984D01*
X13039229Y-11861984D02*
X13029706Y-11957222D01*
X13029706Y-11957222D02*
X13039229Y-11947698D01*
X13039229Y-11947698D02*
X13058277Y-11938174D01*
X13058277Y-11938174D02*
X13105896Y-11938174D01*
X13105896Y-11938174D02*
X13124944Y-11947698D01*
X13124944Y-11947698D02*
X13134467Y-11957222D01*
X13134467Y-11957222D02*
X13143991Y-11976269D01*
X13143991Y-11976269D02*
X13143991Y-12023888D01*
X13143991Y-12023888D02*
X13134467Y-12042936D01*
X13134467Y-12042936D02*
X13124944Y-12052460D01*
X13124944Y-12052460D02*
X13105896Y-12061984D01*
X13105896Y-12061984D02*
X13058277Y-12061984D01*
X13058277Y-12061984D02*
X13039229Y-12052460D01*
X13039229Y-12052460D02*
X13029706Y-12042936D01*
X13239229Y-12061984D02*
X13277325Y-12061984D01*
X13277325Y-12061984D02*
X13296372Y-12052460D01*
X13296372Y-12052460D02*
X13305896Y-12042936D01*
X13305896Y-12042936D02*
X13324944Y-12014365D01*
X13324944Y-12014365D02*
X13334467Y-11976269D01*
X13334467Y-11976269D02*
X13334467Y-11900079D01*
X13334467Y-11900079D02*
X13324944Y-11881031D01*
X13324944Y-11881031D02*
X13315420Y-11871508D01*
X13315420Y-11871508D02*
X13296372Y-11861984D01*
X13296372Y-11861984D02*
X13258277Y-11861984D01*
X13258277Y-11861984D02*
X13239229Y-11871508D01*
X13239229Y-11871508D02*
X13229706Y-11881031D01*
X13229706Y-11881031D02*
X13220182Y-11900079D01*
X13220182Y-11900079D02*
X13220182Y-11947698D01*
X13220182Y-11947698D02*
X13229706Y-11966746D01*
X13229706Y-11966746D02*
X13239229Y-11976269D01*
X13239229Y-11976269D02*
X13258277Y-11985793D01*
X13258277Y-11985793D02*
X13296372Y-11985793D01*
X13296372Y-11985793D02*
X13315420Y-11976269D01*
X13315420Y-11976269D02*
X13324944Y-11966746D01*
X13324944Y-11966746D02*
X13334467Y-11947698D01*
X13524944Y-12061984D02*
X13410658Y-12061984D01*
X13467801Y-12061984D02*
X13467801Y-11861984D01*
X13467801Y-11861984D02*
X13448753Y-11890555D01*
X13448753Y-11890555D02*
X13429706Y-11909603D01*
X13429706Y-11909603D02*
X13410658Y-11919127D01*
X13601134Y-11861984D02*
X13601134Y-11900079D01*
X13677325Y-11861984D02*
X13677325Y-11900079D01*
X13972563Y-12138174D02*
X13963039Y-12128650D01*
X13963039Y-12128650D02*
X13943991Y-12100079D01*
X13943991Y-12100079D02*
X13934468Y-12081031D01*
X13934468Y-12081031D02*
X13924944Y-12052460D01*
X13924944Y-12052460D02*
X13915420Y-12004841D01*
X13915420Y-12004841D02*
X13915420Y-11966746D01*
X13915420Y-11966746D02*
X13924944Y-11919127D01*
X13924944Y-11919127D02*
X13934468Y-11890555D01*
X13934468Y-11890555D02*
X13943991Y-11871508D01*
X13943991Y-11871508D02*
X13963039Y-11842936D01*
X13963039Y-11842936D02*
X13972563Y-11833412D01*
X14029706Y-11861984D02*
X14163039Y-11861984D01*
X14163039Y-11861984D02*
X14077325Y-12061984D01*
X14391610Y-12061984D02*
X14391610Y-11861984D01*
X14477325Y-12061984D02*
X14477325Y-11957222D01*
X14477325Y-11957222D02*
X14467801Y-11938174D01*
X14467801Y-11938174D02*
X14448753Y-11928650D01*
X14448753Y-11928650D02*
X14420182Y-11928650D01*
X14420182Y-11928650D02*
X14401134Y-11938174D01*
X14401134Y-11938174D02*
X14391610Y-11947698D01*
X14601134Y-12061984D02*
X14582087Y-12052460D01*
X14582087Y-12052460D02*
X14572563Y-12042936D01*
X14572563Y-12042936D02*
X14563039Y-12023888D01*
X14563039Y-12023888D02*
X14563039Y-11966746D01*
X14563039Y-11966746D02*
X14572563Y-11947698D01*
X14572563Y-11947698D02*
X14582087Y-11938174D01*
X14582087Y-11938174D02*
X14601134Y-11928650D01*
X14601134Y-11928650D02*
X14629706Y-11928650D01*
X14629706Y-11928650D02*
X14648753Y-11938174D01*
X14648753Y-11938174D02*
X14658277Y-11947698D01*
X14658277Y-11947698D02*
X14667801Y-11966746D01*
X14667801Y-11966746D02*
X14667801Y-12023888D01*
X14667801Y-12023888D02*
X14658277Y-12042936D01*
X14658277Y-12042936D02*
X14648753Y-12052460D01*
X14648753Y-12052460D02*
X14629706Y-12061984D01*
X14629706Y-12061984D02*
X14601134Y-12061984D01*
X14782087Y-12061984D02*
X14763039Y-12052460D01*
X14763039Y-12052460D02*
X14753515Y-12033412D01*
X14753515Y-12033412D02*
X14753515Y-11861984D01*
X14934468Y-12052460D02*
X14915420Y-12061984D01*
X14915420Y-12061984D02*
X14877325Y-12061984D01*
X14877325Y-12061984D02*
X14858277Y-12052460D01*
X14858277Y-12052460D02*
X14848753Y-12033412D01*
X14848753Y-12033412D02*
X14848753Y-11957222D01*
X14848753Y-11957222D02*
X14858277Y-11938174D01*
X14858277Y-11938174D02*
X14877325Y-11928650D01*
X14877325Y-11928650D02*
X14915420Y-11928650D01*
X14915420Y-11928650D02*
X14934468Y-11938174D01*
X14934468Y-11938174D02*
X14943991Y-11957222D01*
X14943991Y-11957222D02*
X14943991Y-11976269D01*
X14943991Y-11976269D02*
X14848753Y-11995317D01*
X15020182Y-12052460D02*
X15039230Y-12061984D01*
X15039230Y-12061984D02*
X15077325Y-12061984D01*
X15077325Y-12061984D02*
X15096372Y-12052460D01*
X15096372Y-12052460D02*
X15105896Y-12033412D01*
X15105896Y-12033412D02*
X15105896Y-12023888D01*
X15105896Y-12023888D02*
X15096372Y-12004841D01*
X15096372Y-12004841D02*
X15077325Y-11995317D01*
X15077325Y-11995317D02*
X15048753Y-11995317D01*
X15048753Y-11995317D02*
X15029706Y-11985793D01*
X15029706Y-11985793D02*
X15020182Y-11966746D01*
X15020182Y-11966746D02*
X15020182Y-11957222D01*
X15020182Y-11957222D02*
X15029706Y-11938174D01*
X15029706Y-11938174D02*
X15048753Y-11928650D01*
X15048753Y-11928650D02*
X15077325Y-11928650D01*
X15077325Y-11928650D02*
X15096372Y-11938174D01*
X15172563Y-12138174D02*
X15182087Y-12128650D01*
X15182087Y-12128650D02*
X15201134Y-12100079D01*
X15201134Y-12100079D02*
X15210658Y-12081031D01*
X15210658Y-12081031D02*
X15220182Y-12052460D01*
X15220182Y-12052460D02*
X15229706Y-12004841D01*
X15229706Y-12004841D02*
X15229706Y-11966746D01*
X15229706Y-11966746D02*
X15220182Y-11919127D01*
X15220182Y-11919127D02*
X15210658Y-11890555D01*
X15210658Y-11890555D02*
X15201134Y-11871508D01*
X15201134Y-11871508D02*
X15182087Y-11842936D01*
X15182087Y-11842936D02*
X15172563Y-11833412D01*
M02*
