%TF.GenerationSoftware,KiCad,Pcbnew,8.0.4*%
%TF.CreationDate,2024-09-19T22:50:55+02:00*%
%TF.ProjectId,Fader_Breakout,46616465-725f-4427-9265-616b6f75742e,rev?*%
%TF.SameCoordinates,Original*%
%TF.FileFunction,Drillmap*%
%TF.FilePolarity,Positive*%
%FSLAX45Y45*%
G04 Gerber Fmt 4.5, Leading zero omitted, Abs format (unit mm)*
G04 Created by KiCad (PCBNEW 8.0.4) date 2024-09-19 22:50:55*
%MOMM*%
%LPD*%
G01*
G04 APERTURE LIST*
%ADD10C,0.050000*%
%ADD11C,0.200000*%
G04 APERTURE END LIST*
D10*
X10400000Y-7800000D02*
X19700000Y-7800000D01*
X19700000Y-10800000D01*
X10400000Y-10800000D01*
X10400000Y-7800000D01*
D11*
X12390000Y-8587500D02*
X12590000Y-8787500D01*
X12590000Y-8587500D02*
X12390000Y-8787500D01*
X17560000Y-8587500D02*
X17760000Y-8787500D01*
X17760000Y-8587500D02*
X17560000Y-8787500D01*
X10658277Y-11113984D02*
X10658277Y-10913984D01*
X10658277Y-10913984D02*
X10705896Y-10913984D01*
X10705896Y-10913984D02*
X10734467Y-10923508D01*
X10734467Y-10923508D02*
X10753515Y-10942555D01*
X10753515Y-10942555D02*
X10763039Y-10961603D01*
X10763039Y-10961603D02*
X10772563Y-10999698D01*
X10772563Y-10999698D02*
X10772563Y-11028270D01*
X10772563Y-11028270D02*
X10763039Y-11066365D01*
X10763039Y-11066365D02*
X10753515Y-11085412D01*
X10753515Y-11085412D02*
X10734467Y-11104460D01*
X10734467Y-11104460D02*
X10705896Y-11113984D01*
X10705896Y-11113984D02*
X10658277Y-11113984D01*
X10858277Y-11113984D02*
X10858277Y-10980650D01*
X10858277Y-11018746D02*
X10867801Y-10999698D01*
X10867801Y-10999698D02*
X10877324Y-10990174D01*
X10877324Y-10990174D02*
X10896372Y-10980650D01*
X10896372Y-10980650D02*
X10915420Y-10980650D01*
X10982086Y-11113984D02*
X10982086Y-10980650D01*
X10982086Y-10913984D02*
X10972563Y-10923508D01*
X10972563Y-10923508D02*
X10982086Y-10933031D01*
X10982086Y-10933031D02*
X10991610Y-10923508D01*
X10991610Y-10923508D02*
X10982086Y-10913984D01*
X10982086Y-10913984D02*
X10982086Y-10933031D01*
X11105896Y-11113984D02*
X11086848Y-11104460D01*
X11086848Y-11104460D02*
X11077324Y-11085412D01*
X11077324Y-11085412D02*
X11077324Y-10913984D01*
X11210658Y-11113984D02*
X11191610Y-11104460D01*
X11191610Y-11104460D02*
X11182086Y-11085412D01*
X11182086Y-11085412D02*
X11182086Y-10913984D01*
X11439229Y-11113984D02*
X11439229Y-10913984D01*
X11439229Y-10913984D02*
X11505896Y-11056841D01*
X11505896Y-11056841D02*
X11572562Y-10913984D01*
X11572562Y-10913984D02*
X11572562Y-11113984D01*
X11753515Y-11113984D02*
X11753515Y-11009222D01*
X11753515Y-11009222D02*
X11743991Y-10990174D01*
X11743991Y-10990174D02*
X11724943Y-10980650D01*
X11724943Y-10980650D02*
X11686848Y-10980650D01*
X11686848Y-10980650D02*
X11667801Y-10990174D01*
X11753515Y-11104460D02*
X11734467Y-11113984D01*
X11734467Y-11113984D02*
X11686848Y-11113984D01*
X11686848Y-11113984D02*
X11667801Y-11104460D01*
X11667801Y-11104460D02*
X11658277Y-11085412D01*
X11658277Y-11085412D02*
X11658277Y-11066365D01*
X11658277Y-11066365D02*
X11667801Y-11047317D01*
X11667801Y-11047317D02*
X11686848Y-11037793D01*
X11686848Y-11037793D02*
X11734467Y-11037793D01*
X11734467Y-11037793D02*
X11753515Y-11028270D01*
X11848753Y-10980650D02*
X11848753Y-11180650D01*
X11848753Y-10990174D02*
X11867801Y-10980650D01*
X11867801Y-10980650D02*
X11905896Y-10980650D01*
X11905896Y-10980650D02*
X11924943Y-10990174D01*
X11924943Y-10990174D02*
X11934467Y-10999698D01*
X11934467Y-10999698D02*
X11943991Y-11018746D01*
X11943991Y-11018746D02*
X11943991Y-11075889D01*
X11943991Y-11075889D02*
X11934467Y-11094936D01*
X11934467Y-11094936D02*
X11924943Y-11104460D01*
X11924943Y-11104460D02*
X11905896Y-11113984D01*
X11905896Y-11113984D02*
X11867801Y-11113984D01*
X11867801Y-11113984D02*
X11848753Y-11104460D01*
X12029705Y-11094936D02*
X12039229Y-11104460D01*
X12039229Y-11104460D02*
X12029705Y-11113984D01*
X12029705Y-11113984D02*
X12020182Y-11104460D01*
X12020182Y-11104460D02*
X12029705Y-11094936D01*
X12029705Y-11094936D02*
X12029705Y-11113984D01*
X12029705Y-10990174D02*
X12039229Y-10999698D01*
X12039229Y-10999698D02*
X12029705Y-11009222D01*
X12029705Y-11009222D02*
X12020182Y-10999698D01*
X12020182Y-10999698D02*
X12029705Y-10990174D01*
X12029705Y-10990174D02*
X12029705Y-11009222D01*
X10197500Y-11342500D02*
X10397500Y-11542500D01*
X10397500Y-11342500D02*
X10197500Y-11542500D01*
X10648753Y-11353031D02*
X10658277Y-11343508D01*
X10658277Y-11343508D02*
X10677324Y-11333984D01*
X10677324Y-11333984D02*
X10724944Y-11333984D01*
X10724944Y-11333984D02*
X10743991Y-11343508D01*
X10743991Y-11343508D02*
X10753515Y-11353031D01*
X10753515Y-11353031D02*
X10763039Y-11372079D01*
X10763039Y-11372079D02*
X10763039Y-11391127D01*
X10763039Y-11391127D02*
X10753515Y-11419698D01*
X10753515Y-11419698D02*
X10639229Y-11533984D01*
X10639229Y-11533984D02*
X10763039Y-11533984D01*
X10848753Y-11514936D02*
X10858277Y-11524460D01*
X10858277Y-11524460D02*
X10848753Y-11533984D01*
X10848753Y-11533984D02*
X10839229Y-11524460D01*
X10839229Y-11524460D02*
X10848753Y-11514936D01*
X10848753Y-11514936D02*
X10848753Y-11533984D01*
X10982086Y-11333984D02*
X11001134Y-11333984D01*
X11001134Y-11333984D02*
X11020182Y-11343508D01*
X11020182Y-11343508D02*
X11029705Y-11353031D01*
X11029705Y-11353031D02*
X11039229Y-11372079D01*
X11039229Y-11372079D02*
X11048753Y-11410174D01*
X11048753Y-11410174D02*
X11048753Y-11457793D01*
X11048753Y-11457793D02*
X11039229Y-11495888D01*
X11039229Y-11495888D02*
X11029705Y-11514936D01*
X11029705Y-11514936D02*
X11020182Y-11524460D01*
X11020182Y-11524460D02*
X11001134Y-11533984D01*
X11001134Y-11533984D02*
X10982086Y-11533984D01*
X10982086Y-11533984D02*
X10963039Y-11524460D01*
X10963039Y-11524460D02*
X10953515Y-11514936D01*
X10953515Y-11514936D02*
X10943991Y-11495888D01*
X10943991Y-11495888D02*
X10934467Y-11457793D01*
X10934467Y-11457793D02*
X10934467Y-11410174D01*
X10934467Y-11410174D02*
X10943991Y-11372079D01*
X10943991Y-11372079D02*
X10953515Y-11353031D01*
X10953515Y-11353031D02*
X10963039Y-11343508D01*
X10963039Y-11343508D02*
X10982086Y-11333984D01*
X11172563Y-11333984D02*
X11191610Y-11333984D01*
X11191610Y-11333984D02*
X11210658Y-11343508D01*
X11210658Y-11343508D02*
X11220182Y-11353031D01*
X11220182Y-11353031D02*
X11229705Y-11372079D01*
X11229705Y-11372079D02*
X11239229Y-11410174D01*
X11239229Y-11410174D02*
X11239229Y-11457793D01*
X11239229Y-11457793D02*
X11229705Y-11495888D01*
X11229705Y-11495888D02*
X11220182Y-11514936D01*
X11220182Y-11514936D02*
X11210658Y-11524460D01*
X11210658Y-11524460D02*
X11191610Y-11533984D01*
X11191610Y-11533984D02*
X11172563Y-11533984D01*
X11172563Y-11533984D02*
X11153515Y-11524460D01*
X11153515Y-11524460D02*
X11143991Y-11514936D01*
X11143991Y-11514936D02*
X11134467Y-11495888D01*
X11134467Y-11495888D02*
X11124944Y-11457793D01*
X11124944Y-11457793D02*
X11124944Y-11410174D01*
X11124944Y-11410174D02*
X11134467Y-11372079D01*
X11134467Y-11372079D02*
X11143991Y-11353031D01*
X11143991Y-11353031D02*
X11153515Y-11343508D01*
X11153515Y-11343508D02*
X11172563Y-11333984D01*
X11363039Y-11333984D02*
X11382086Y-11333984D01*
X11382086Y-11333984D02*
X11401134Y-11343508D01*
X11401134Y-11343508D02*
X11410658Y-11353031D01*
X11410658Y-11353031D02*
X11420182Y-11372079D01*
X11420182Y-11372079D02*
X11429705Y-11410174D01*
X11429705Y-11410174D02*
X11429705Y-11457793D01*
X11429705Y-11457793D02*
X11420182Y-11495888D01*
X11420182Y-11495888D02*
X11410658Y-11514936D01*
X11410658Y-11514936D02*
X11401134Y-11524460D01*
X11401134Y-11524460D02*
X11382086Y-11533984D01*
X11382086Y-11533984D02*
X11363039Y-11533984D01*
X11363039Y-11533984D02*
X11343991Y-11524460D01*
X11343991Y-11524460D02*
X11334467Y-11514936D01*
X11334467Y-11514936D02*
X11324943Y-11495888D01*
X11324943Y-11495888D02*
X11315420Y-11457793D01*
X11315420Y-11457793D02*
X11315420Y-11410174D01*
X11315420Y-11410174D02*
X11324943Y-11372079D01*
X11324943Y-11372079D02*
X11334467Y-11353031D01*
X11334467Y-11353031D02*
X11343991Y-11343508D01*
X11343991Y-11343508D02*
X11363039Y-11333984D01*
X11515420Y-11533984D02*
X11515420Y-11400650D01*
X11515420Y-11419698D02*
X11524943Y-11410174D01*
X11524943Y-11410174D02*
X11543991Y-11400650D01*
X11543991Y-11400650D02*
X11572563Y-11400650D01*
X11572563Y-11400650D02*
X11591610Y-11410174D01*
X11591610Y-11410174D02*
X11601134Y-11429222D01*
X11601134Y-11429222D02*
X11601134Y-11533984D01*
X11601134Y-11429222D02*
X11610658Y-11410174D01*
X11610658Y-11410174D02*
X11629705Y-11400650D01*
X11629705Y-11400650D02*
X11658277Y-11400650D01*
X11658277Y-11400650D02*
X11677324Y-11410174D01*
X11677324Y-11410174D02*
X11686848Y-11429222D01*
X11686848Y-11429222D02*
X11686848Y-11533984D01*
X11782086Y-11533984D02*
X11782086Y-11400650D01*
X11782086Y-11419698D02*
X11791610Y-11410174D01*
X11791610Y-11410174D02*
X11810658Y-11400650D01*
X11810658Y-11400650D02*
X11839229Y-11400650D01*
X11839229Y-11400650D02*
X11858277Y-11410174D01*
X11858277Y-11410174D02*
X11867801Y-11429222D01*
X11867801Y-11429222D02*
X11867801Y-11533984D01*
X11867801Y-11429222D02*
X11877324Y-11410174D01*
X11877324Y-11410174D02*
X11896372Y-11400650D01*
X11896372Y-11400650D02*
X11924943Y-11400650D01*
X11924943Y-11400650D02*
X11943991Y-11410174D01*
X11943991Y-11410174D02*
X11953515Y-11429222D01*
X11953515Y-11429222D02*
X11953515Y-11533984D01*
X12343991Y-11324460D02*
X12172563Y-11581603D01*
X12601134Y-11333984D02*
X12620182Y-11333984D01*
X12620182Y-11333984D02*
X12639229Y-11343508D01*
X12639229Y-11343508D02*
X12648753Y-11353031D01*
X12648753Y-11353031D02*
X12658277Y-11372079D01*
X12658277Y-11372079D02*
X12667801Y-11410174D01*
X12667801Y-11410174D02*
X12667801Y-11457793D01*
X12667801Y-11457793D02*
X12658277Y-11495888D01*
X12658277Y-11495888D02*
X12648753Y-11514936D01*
X12648753Y-11514936D02*
X12639229Y-11524460D01*
X12639229Y-11524460D02*
X12620182Y-11533984D01*
X12620182Y-11533984D02*
X12601134Y-11533984D01*
X12601134Y-11533984D02*
X12582086Y-11524460D01*
X12582086Y-11524460D02*
X12572563Y-11514936D01*
X12572563Y-11514936D02*
X12563039Y-11495888D01*
X12563039Y-11495888D02*
X12553515Y-11457793D01*
X12553515Y-11457793D02*
X12553515Y-11410174D01*
X12553515Y-11410174D02*
X12563039Y-11372079D01*
X12563039Y-11372079D02*
X12572563Y-11353031D01*
X12572563Y-11353031D02*
X12582086Y-11343508D01*
X12582086Y-11343508D02*
X12601134Y-11333984D01*
X12753515Y-11514936D02*
X12763039Y-11524460D01*
X12763039Y-11524460D02*
X12753515Y-11533984D01*
X12753515Y-11533984D02*
X12743991Y-11524460D01*
X12743991Y-11524460D02*
X12753515Y-11514936D01*
X12753515Y-11514936D02*
X12753515Y-11533984D01*
X12886848Y-11333984D02*
X12905896Y-11333984D01*
X12905896Y-11333984D02*
X12924944Y-11343508D01*
X12924944Y-11343508D02*
X12934467Y-11353031D01*
X12934467Y-11353031D02*
X12943991Y-11372079D01*
X12943991Y-11372079D02*
X12953515Y-11410174D01*
X12953515Y-11410174D02*
X12953515Y-11457793D01*
X12953515Y-11457793D02*
X12943991Y-11495888D01*
X12943991Y-11495888D02*
X12934467Y-11514936D01*
X12934467Y-11514936D02*
X12924944Y-11524460D01*
X12924944Y-11524460D02*
X12905896Y-11533984D01*
X12905896Y-11533984D02*
X12886848Y-11533984D01*
X12886848Y-11533984D02*
X12867801Y-11524460D01*
X12867801Y-11524460D02*
X12858277Y-11514936D01*
X12858277Y-11514936D02*
X12848753Y-11495888D01*
X12848753Y-11495888D02*
X12839229Y-11457793D01*
X12839229Y-11457793D02*
X12839229Y-11410174D01*
X12839229Y-11410174D02*
X12848753Y-11372079D01*
X12848753Y-11372079D02*
X12858277Y-11353031D01*
X12858277Y-11353031D02*
X12867801Y-11343508D01*
X12867801Y-11343508D02*
X12886848Y-11333984D01*
X13020182Y-11333984D02*
X13153515Y-11333984D01*
X13153515Y-11333984D02*
X13067801Y-11533984D01*
X13258277Y-11419698D02*
X13239229Y-11410174D01*
X13239229Y-11410174D02*
X13229706Y-11400650D01*
X13229706Y-11400650D02*
X13220182Y-11381603D01*
X13220182Y-11381603D02*
X13220182Y-11372079D01*
X13220182Y-11372079D02*
X13229706Y-11353031D01*
X13229706Y-11353031D02*
X13239229Y-11343508D01*
X13239229Y-11343508D02*
X13258277Y-11333984D01*
X13258277Y-11333984D02*
X13296372Y-11333984D01*
X13296372Y-11333984D02*
X13315420Y-11343508D01*
X13315420Y-11343508D02*
X13324944Y-11353031D01*
X13324944Y-11353031D02*
X13334467Y-11372079D01*
X13334467Y-11372079D02*
X13334467Y-11381603D01*
X13334467Y-11381603D02*
X13324944Y-11400650D01*
X13324944Y-11400650D02*
X13315420Y-11410174D01*
X13315420Y-11410174D02*
X13296372Y-11419698D01*
X13296372Y-11419698D02*
X13258277Y-11419698D01*
X13258277Y-11419698D02*
X13239229Y-11429222D01*
X13239229Y-11429222D02*
X13229706Y-11438746D01*
X13229706Y-11438746D02*
X13220182Y-11457793D01*
X13220182Y-11457793D02*
X13220182Y-11495888D01*
X13220182Y-11495888D02*
X13229706Y-11514936D01*
X13229706Y-11514936D02*
X13239229Y-11524460D01*
X13239229Y-11524460D02*
X13258277Y-11533984D01*
X13258277Y-11533984D02*
X13296372Y-11533984D01*
X13296372Y-11533984D02*
X13315420Y-11524460D01*
X13315420Y-11524460D02*
X13324944Y-11514936D01*
X13324944Y-11514936D02*
X13334467Y-11495888D01*
X13334467Y-11495888D02*
X13334467Y-11457793D01*
X13334467Y-11457793D02*
X13324944Y-11438746D01*
X13324944Y-11438746D02*
X13315420Y-11429222D01*
X13315420Y-11429222D02*
X13296372Y-11419698D01*
X13401134Y-11333984D02*
X13534467Y-11333984D01*
X13534467Y-11333984D02*
X13448753Y-11533984D01*
X13601134Y-11333984D02*
X13601134Y-11372079D01*
X13677325Y-11333984D02*
X13677325Y-11372079D01*
X13972563Y-11610174D02*
X13963039Y-11600650D01*
X13963039Y-11600650D02*
X13943991Y-11572079D01*
X13943991Y-11572079D02*
X13934468Y-11553031D01*
X13934468Y-11553031D02*
X13924944Y-11524460D01*
X13924944Y-11524460D02*
X13915420Y-11476841D01*
X13915420Y-11476841D02*
X13915420Y-11438746D01*
X13915420Y-11438746D02*
X13924944Y-11391127D01*
X13924944Y-11391127D02*
X13934468Y-11362555D01*
X13934468Y-11362555D02*
X13943991Y-11343508D01*
X13943991Y-11343508D02*
X13963039Y-11314936D01*
X13963039Y-11314936D02*
X13972563Y-11305412D01*
X14039229Y-11353031D02*
X14048753Y-11343508D01*
X14048753Y-11343508D02*
X14067801Y-11333984D01*
X14067801Y-11333984D02*
X14115420Y-11333984D01*
X14115420Y-11333984D02*
X14134468Y-11343508D01*
X14134468Y-11343508D02*
X14143991Y-11353031D01*
X14143991Y-11353031D02*
X14153515Y-11372079D01*
X14153515Y-11372079D02*
X14153515Y-11391127D01*
X14153515Y-11391127D02*
X14143991Y-11419698D01*
X14143991Y-11419698D02*
X14029706Y-11533984D01*
X14029706Y-11533984D02*
X14153515Y-11533984D01*
X14391610Y-11533984D02*
X14391610Y-11333984D01*
X14477325Y-11533984D02*
X14477325Y-11429222D01*
X14477325Y-11429222D02*
X14467801Y-11410174D01*
X14467801Y-11410174D02*
X14448753Y-11400650D01*
X14448753Y-11400650D02*
X14420182Y-11400650D01*
X14420182Y-11400650D02*
X14401134Y-11410174D01*
X14401134Y-11410174D02*
X14391610Y-11419698D01*
X14601134Y-11533984D02*
X14582087Y-11524460D01*
X14582087Y-11524460D02*
X14572563Y-11514936D01*
X14572563Y-11514936D02*
X14563039Y-11495888D01*
X14563039Y-11495888D02*
X14563039Y-11438746D01*
X14563039Y-11438746D02*
X14572563Y-11419698D01*
X14572563Y-11419698D02*
X14582087Y-11410174D01*
X14582087Y-11410174D02*
X14601134Y-11400650D01*
X14601134Y-11400650D02*
X14629706Y-11400650D01*
X14629706Y-11400650D02*
X14648753Y-11410174D01*
X14648753Y-11410174D02*
X14658277Y-11419698D01*
X14658277Y-11419698D02*
X14667801Y-11438746D01*
X14667801Y-11438746D02*
X14667801Y-11495888D01*
X14667801Y-11495888D02*
X14658277Y-11514936D01*
X14658277Y-11514936D02*
X14648753Y-11524460D01*
X14648753Y-11524460D02*
X14629706Y-11533984D01*
X14629706Y-11533984D02*
X14601134Y-11533984D01*
X14782087Y-11533984D02*
X14763039Y-11524460D01*
X14763039Y-11524460D02*
X14753515Y-11505412D01*
X14753515Y-11505412D02*
X14753515Y-11333984D01*
X14934468Y-11524460D02*
X14915420Y-11533984D01*
X14915420Y-11533984D02*
X14877325Y-11533984D01*
X14877325Y-11533984D02*
X14858277Y-11524460D01*
X14858277Y-11524460D02*
X14848753Y-11505412D01*
X14848753Y-11505412D02*
X14848753Y-11429222D01*
X14848753Y-11429222D02*
X14858277Y-11410174D01*
X14858277Y-11410174D02*
X14877325Y-11400650D01*
X14877325Y-11400650D02*
X14915420Y-11400650D01*
X14915420Y-11400650D02*
X14934468Y-11410174D01*
X14934468Y-11410174D02*
X14943991Y-11429222D01*
X14943991Y-11429222D02*
X14943991Y-11448269D01*
X14943991Y-11448269D02*
X14848753Y-11467317D01*
X15020182Y-11524460D02*
X15039230Y-11533984D01*
X15039230Y-11533984D02*
X15077325Y-11533984D01*
X15077325Y-11533984D02*
X15096372Y-11524460D01*
X15096372Y-11524460D02*
X15105896Y-11505412D01*
X15105896Y-11505412D02*
X15105896Y-11495888D01*
X15105896Y-11495888D02*
X15096372Y-11476841D01*
X15096372Y-11476841D02*
X15077325Y-11467317D01*
X15077325Y-11467317D02*
X15048753Y-11467317D01*
X15048753Y-11467317D02*
X15029706Y-11457793D01*
X15029706Y-11457793D02*
X15020182Y-11438746D01*
X15020182Y-11438746D02*
X15020182Y-11429222D01*
X15020182Y-11429222D02*
X15029706Y-11410174D01*
X15029706Y-11410174D02*
X15048753Y-11400650D01*
X15048753Y-11400650D02*
X15077325Y-11400650D01*
X15077325Y-11400650D02*
X15096372Y-11410174D01*
X15172563Y-11610174D02*
X15182087Y-11600650D01*
X15182087Y-11600650D02*
X15201134Y-11572079D01*
X15201134Y-11572079D02*
X15210658Y-11553031D01*
X15210658Y-11553031D02*
X15220182Y-11524460D01*
X15220182Y-11524460D02*
X15229706Y-11476841D01*
X15229706Y-11476841D02*
X15229706Y-11438746D01*
X15229706Y-11438746D02*
X15220182Y-11391127D01*
X15220182Y-11391127D02*
X15210658Y-11362555D01*
X15210658Y-11362555D02*
X15201134Y-11343508D01*
X15201134Y-11343508D02*
X15182087Y-11314936D01*
X15182087Y-11314936D02*
X15172563Y-11305412D01*
X15534468Y-11610174D02*
X15524944Y-11600650D01*
X15524944Y-11600650D02*
X15505896Y-11572079D01*
X15505896Y-11572079D02*
X15496372Y-11553031D01*
X15496372Y-11553031D02*
X15486849Y-11524460D01*
X15486849Y-11524460D02*
X15477325Y-11476841D01*
X15477325Y-11476841D02*
X15477325Y-11438746D01*
X15477325Y-11438746D02*
X15486849Y-11391127D01*
X15486849Y-11391127D02*
X15496372Y-11362555D01*
X15496372Y-11362555D02*
X15505896Y-11343508D01*
X15505896Y-11343508D02*
X15524944Y-11314936D01*
X15524944Y-11314936D02*
X15534468Y-11305412D01*
X15610658Y-11400650D02*
X15610658Y-11533984D01*
X15610658Y-11419698D02*
X15620182Y-11410174D01*
X15620182Y-11410174D02*
X15639230Y-11400650D01*
X15639230Y-11400650D02*
X15667801Y-11400650D01*
X15667801Y-11400650D02*
X15686849Y-11410174D01*
X15686849Y-11410174D02*
X15696372Y-11429222D01*
X15696372Y-11429222D02*
X15696372Y-11533984D01*
X15820182Y-11533984D02*
X15801134Y-11524460D01*
X15801134Y-11524460D02*
X15791611Y-11514936D01*
X15791611Y-11514936D02*
X15782087Y-11495888D01*
X15782087Y-11495888D02*
X15782087Y-11438746D01*
X15782087Y-11438746D02*
X15791611Y-11419698D01*
X15791611Y-11419698D02*
X15801134Y-11410174D01*
X15801134Y-11410174D02*
X15820182Y-11400650D01*
X15820182Y-11400650D02*
X15848753Y-11400650D01*
X15848753Y-11400650D02*
X15867801Y-11410174D01*
X15867801Y-11410174D02*
X15877325Y-11419698D01*
X15877325Y-11419698D02*
X15886849Y-11438746D01*
X15886849Y-11438746D02*
X15886849Y-11495888D01*
X15886849Y-11495888D02*
X15877325Y-11514936D01*
X15877325Y-11514936D02*
X15867801Y-11524460D01*
X15867801Y-11524460D02*
X15848753Y-11533984D01*
X15848753Y-11533984D02*
X15820182Y-11533984D01*
X15943992Y-11400650D02*
X16020182Y-11400650D01*
X15972563Y-11333984D02*
X15972563Y-11505412D01*
X15972563Y-11505412D02*
X15982087Y-11524460D01*
X15982087Y-11524460D02*
X16001134Y-11533984D01*
X16001134Y-11533984D02*
X16020182Y-11533984D01*
X16239230Y-11400650D02*
X16239230Y-11600650D01*
X16239230Y-11410174D02*
X16258277Y-11400650D01*
X16258277Y-11400650D02*
X16296373Y-11400650D01*
X16296373Y-11400650D02*
X16315420Y-11410174D01*
X16315420Y-11410174D02*
X16324944Y-11419698D01*
X16324944Y-11419698D02*
X16334468Y-11438746D01*
X16334468Y-11438746D02*
X16334468Y-11495888D01*
X16334468Y-11495888D02*
X16324944Y-11514936D01*
X16324944Y-11514936D02*
X16315420Y-11524460D01*
X16315420Y-11524460D02*
X16296373Y-11533984D01*
X16296373Y-11533984D02*
X16258277Y-11533984D01*
X16258277Y-11533984D02*
X16239230Y-11524460D01*
X16448753Y-11533984D02*
X16429706Y-11524460D01*
X16429706Y-11524460D02*
X16420182Y-11505412D01*
X16420182Y-11505412D02*
X16420182Y-11333984D01*
X16610658Y-11533984D02*
X16610658Y-11429222D01*
X16610658Y-11429222D02*
X16601134Y-11410174D01*
X16601134Y-11410174D02*
X16582087Y-11400650D01*
X16582087Y-11400650D02*
X16543992Y-11400650D01*
X16543992Y-11400650D02*
X16524944Y-11410174D01*
X16610658Y-11524460D02*
X16591611Y-11533984D01*
X16591611Y-11533984D02*
X16543992Y-11533984D01*
X16543992Y-11533984D02*
X16524944Y-11524460D01*
X16524944Y-11524460D02*
X16515420Y-11505412D01*
X16515420Y-11505412D02*
X16515420Y-11486365D01*
X16515420Y-11486365D02*
X16524944Y-11467317D01*
X16524944Y-11467317D02*
X16543992Y-11457793D01*
X16543992Y-11457793D02*
X16591611Y-11457793D01*
X16591611Y-11457793D02*
X16610658Y-11448269D01*
X16677325Y-11400650D02*
X16753515Y-11400650D01*
X16705896Y-11333984D02*
X16705896Y-11505412D01*
X16705896Y-11505412D02*
X16715420Y-11524460D01*
X16715420Y-11524460D02*
X16734468Y-11533984D01*
X16734468Y-11533984D02*
X16753515Y-11533984D01*
X16896373Y-11524460D02*
X16877325Y-11533984D01*
X16877325Y-11533984D02*
X16839230Y-11533984D01*
X16839230Y-11533984D02*
X16820182Y-11524460D01*
X16820182Y-11524460D02*
X16810658Y-11505412D01*
X16810658Y-11505412D02*
X16810658Y-11429222D01*
X16810658Y-11429222D02*
X16820182Y-11410174D01*
X16820182Y-11410174D02*
X16839230Y-11400650D01*
X16839230Y-11400650D02*
X16877325Y-11400650D01*
X16877325Y-11400650D02*
X16896373Y-11410174D01*
X16896373Y-11410174D02*
X16905896Y-11429222D01*
X16905896Y-11429222D02*
X16905896Y-11448269D01*
X16905896Y-11448269D02*
X16810658Y-11467317D01*
X17077325Y-11533984D02*
X17077325Y-11333984D01*
X17077325Y-11524460D02*
X17058277Y-11533984D01*
X17058277Y-11533984D02*
X17020182Y-11533984D01*
X17020182Y-11533984D02*
X17001135Y-11524460D01*
X17001135Y-11524460D02*
X16991611Y-11514936D01*
X16991611Y-11514936D02*
X16982087Y-11495888D01*
X16982087Y-11495888D02*
X16982087Y-11438746D01*
X16982087Y-11438746D02*
X16991611Y-11419698D01*
X16991611Y-11419698D02*
X17001135Y-11410174D01*
X17001135Y-11410174D02*
X17020182Y-11400650D01*
X17020182Y-11400650D02*
X17058277Y-11400650D01*
X17058277Y-11400650D02*
X17077325Y-11410174D01*
X17153516Y-11610174D02*
X17163039Y-11600650D01*
X17163039Y-11600650D02*
X17182087Y-11572079D01*
X17182087Y-11572079D02*
X17191611Y-11553031D01*
X17191611Y-11553031D02*
X17201135Y-11524460D01*
X17201135Y-11524460D02*
X17210658Y-11476841D01*
X17210658Y-11476841D02*
X17210658Y-11438746D01*
X17210658Y-11438746D02*
X17201135Y-11391127D01*
X17201135Y-11391127D02*
X17191611Y-11362555D01*
X17191611Y-11362555D02*
X17182087Y-11343508D01*
X17182087Y-11343508D02*
X17163039Y-11314936D01*
X17163039Y-11314936D02*
X17153516Y-11305412D01*
M02*
