G04 #@! TF.GenerationSoftware,KiCad,Pcbnew,8.0.4*
G04 #@! TF.CreationDate,2024-09-19T22:50:53+02:00*
G04 #@! TF.ProjectId,Fader_Breakout,46616465-725f-4427-9265-616b6f75742e,rev?*
G04 #@! TF.SameCoordinates,Original*
G04 #@! TF.FileFunction,Copper,L2,Bot*
G04 #@! TF.FilePolarity,Positive*
%FSLAX46Y46*%
G04 Gerber Fmt 4.6, Leading zero omitted, Abs format (unit mm)*
G04 Created by KiCad (PCBNEW 8.0.4) date 2024-09-19 22:50:53*
%MOMM*%
%LPD*%
G01*
G04 APERTURE LIST*
G04 Aperture macros list*
%AMRoundRect*
0 Rectangle with rounded corners*
0 $1 Rounding radius*
0 $2 $3 $4 $5 $6 $7 $8 $9 X,Y pos of 4 corners*
0 Add a 4 corners polygon primitive as box body*
4,1,4,$2,$3,$4,$5,$6,$7,$8,$9,$2,$3,0*
0 Add four circle primitives for the rounded corners*
1,1,$1+$1,$2,$3*
1,1,$1+$1,$4,$5*
1,1,$1+$1,$6,$7*
1,1,$1+$1,$8,$9*
0 Add four rect primitives between the rounded corners*
20,1,$1+$1,$2,$3,$4,$5,0*
20,1,$1+$1,$4,$5,$6,$7,0*
20,1,$1+$1,$6,$7,$8,$9,0*
20,1,$1+$1,$8,$9,$2,$3,0*%
G04 Aperture macros list end*
G04 #@! TA.AperFunction,ComponentPad*
%ADD10R,1.700000X1.700000*%
G04 #@! TD*
G04 #@! TA.AperFunction,ComponentPad*
%ADD11O,1.700000X1.700000*%
G04 #@! TD*
G04 #@! TA.AperFunction,ComponentPad*
%ADD12C,3.000000*%
G04 #@! TD*
G04 #@! TA.AperFunction,ComponentPad*
%ADD13RoundRect,0.250001X0.899999X0.899999X-0.899999X0.899999X-0.899999X-0.899999X0.899999X-0.899999X0*%
G04 #@! TD*
G04 #@! TA.AperFunction,ComponentPad*
%ADD14C,2.300000*%
G04 #@! TD*
G04 #@! TA.AperFunction,Conductor*
%ADD15C,0.800000*%
G04 #@! TD*
G04 APERTURE END LIST*
D10*
X175075000Y-98725000D03*
D11*
X175075000Y-101265000D03*
X172535000Y-98725000D03*
X172535000Y-101265000D03*
X169995000Y-98725000D03*
X169995000Y-101265000D03*
X167455000Y-98725000D03*
X167455000Y-101265000D03*
X164915000Y-98725000D03*
X164915000Y-101265000D03*
D12*
X194500000Y-85000000D03*
X194500000Y-88750000D03*
X194500000Y-81250000D03*
X194500000Y-92500000D03*
X107000000Y-81250000D03*
X107000000Y-92500000D03*
X107000000Y-85000000D03*
D13*
X188400000Y-105000000D03*
D14*
X183600000Y-105000000D03*
D15*
X194500000Y-92500000D02*
X189250000Y-92500000D01*
X172535000Y-103035000D02*
X172535000Y-101265000D01*
X189250000Y-92500000D02*
X177000000Y-104750000D01*
X177000000Y-104750000D02*
X174250000Y-104750000D01*
X174250000Y-104750000D02*
X172535000Y-103035000D01*
X169995000Y-103005000D02*
X169995000Y-101265000D01*
X116750000Y-104000000D02*
X169000000Y-104000000D01*
X169000000Y-104000000D02*
X169995000Y-103005000D01*
X107000000Y-92500000D02*
X107000000Y-94250000D01*
X107000000Y-94250000D02*
X116750000Y-104000000D01*
G04 #@! TA.AperFunction,NonConductor*
G36*
X196449811Y-82148989D02*
G01*
X196491682Y-82204923D01*
X196499500Y-82248256D01*
X196499500Y-84001743D01*
X196479815Y-84068782D01*
X196427011Y-84114537D01*
X196357853Y-84124481D01*
X196294297Y-84095456D01*
X196266668Y-84061170D01*
X196187229Y-83915690D01*
X196187224Y-83915682D01*
X196015745Y-83686612D01*
X196015729Y-83686594D01*
X195813405Y-83484270D01*
X195813387Y-83484254D01*
X195584317Y-83312775D01*
X195584309Y-83312770D01*
X195439745Y-83233832D01*
X195390340Y-83184427D01*
X195375488Y-83116154D01*
X195399905Y-83050689D01*
X195439745Y-83016168D01*
X195532627Y-82965449D01*
X195584315Y-82937226D01*
X195813395Y-82765739D01*
X196015739Y-82563395D01*
X196187226Y-82334315D01*
X196266668Y-82188829D01*
X196316073Y-82139424D01*
X196384346Y-82124572D01*
X196449811Y-82148989D01*
G37*
G04 #@! TD.AperFunction*
G04 #@! TA.AperFunction,NonConductor*
G36*
X196449811Y-85898989D02*
G01*
X196491682Y-85954923D01*
X196499500Y-85998256D01*
X196499500Y-87751743D01*
X196479815Y-87818782D01*
X196427011Y-87864537D01*
X196357853Y-87874481D01*
X196294297Y-87845456D01*
X196266668Y-87811170D01*
X196187229Y-87665690D01*
X196187224Y-87665682D01*
X196015745Y-87436612D01*
X196015729Y-87436594D01*
X195813405Y-87234270D01*
X195813387Y-87234254D01*
X195584317Y-87062775D01*
X195584309Y-87062770D01*
X195439745Y-86983832D01*
X195390340Y-86934427D01*
X195375488Y-86866154D01*
X195399905Y-86800689D01*
X195439745Y-86766168D01*
X195532627Y-86715449D01*
X195584315Y-86687226D01*
X195813395Y-86515739D01*
X196015739Y-86313395D01*
X196187226Y-86084315D01*
X196266668Y-85938829D01*
X196316073Y-85889424D01*
X196384346Y-85874572D01*
X196449811Y-85898989D01*
G37*
G04 #@! TD.AperFunction*
G04 #@! TA.AperFunction,NonConductor*
G36*
X196449811Y-89648989D02*
G01*
X196491682Y-89704923D01*
X196499500Y-89748256D01*
X196499500Y-91501743D01*
X196479815Y-91568782D01*
X196427011Y-91614537D01*
X196357853Y-91624481D01*
X196294297Y-91595456D01*
X196266668Y-91561170D01*
X196187229Y-91415690D01*
X196187224Y-91415682D01*
X196015745Y-91186612D01*
X196015729Y-91186594D01*
X195813405Y-90984270D01*
X195813387Y-90984254D01*
X195584317Y-90812775D01*
X195584309Y-90812770D01*
X195439745Y-90733832D01*
X195390340Y-90684427D01*
X195375488Y-90616154D01*
X195399905Y-90550689D01*
X195439745Y-90516168D01*
X195532627Y-90465449D01*
X195584315Y-90437226D01*
X195813395Y-90265739D01*
X196015739Y-90063395D01*
X196187226Y-89834315D01*
X196266668Y-89688829D01*
X196316073Y-89639424D01*
X196384346Y-89624572D01*
X196449811Y-89648989D01*
G37*
G04 #@! TD.AperFunction*
G04 #@! TA.AperFunction,NonConductor*
G36*
X173659340Y-99613068D02*
G01*
X173715274Y-99654939D01*
X173732189Y-99685917D01*
X173781202Y-99817328D01*
X173781206Y-99817335D01*
X173867452Y-99932544D01*
X173867455Y-99932547D01*
X173982664Y-100018793D01*
X173982671Y-100018797D01*
X174114081Y-100067810D01*
X174170015Y-100109681D01*
X174194432Y-100175145D01*
X174179580Y-100243418D01*
X174158430Y-100271673D01*
X174036503Y-100393600D01*
X173906575Y-100579158D01*
X173851998Y-100622783D01*
X173782500Y-100629977D01*
X173720145Y-100598454D01*
X173703425Y-100579158D01*
X173573494Y-100393597D01*
X173406402Y-100226506D01*
X173406396Y-100226501D01*
X173220842Y-100096575D01*
X173177217Y-100041998D01*
X173170023Y-99972500D01*
X173201546Y-99910145D01*
X173220842Y-99893425D01*
X173243026Y-99877891D01*
X173406401Y-99763495D01*
X173528329Y-99641566D01*
X173589648Y-99608084D01*
X173659340Y-99613068D01*
G37*
G04 #@! TD.AperFunction*
G04 #@! TA.AperFunction,NonConductor*
G36*
X171349855Y-99391546D02*
G01*
X171366575Y-99410842D01*
X171496501Y-99596396D01*
X171496506Y-99596402D01*
X171663597Y-99763493D01*
X171663603Y-99763498D01*
X171849158Y-99893425D01*
X171892783Y-99948002D01*
X171899977Y-100017500D01*
X171868454Y-100079855D01*
X171849158Y-100096575D01*
X171663597Y-100226505D01*
X171496505Y-100393597D01*
X171366575Y-100579158D01*
X171311998Y-100622783D01*
X171242500Y-100629977D01*
X171180145Y-100598454D01*
X171163425Y-100579158D01*
X171033494Y-100393597D01*
X170866402Y-100226506D01*
X170866396Y-100226501D01*
X170680842Y-100096575D01*
X170637217Y-100041998D01*
X170630023Y-99972500D01*
X170661546Y-99910145D01*
X170680842Y-99893425D01*
X170703026Y-99877891D01*
X170866401Y-99763495D01*
X171033495Y-99596401D01*
X171163425Y-99410842D01*
X171218002Y-99367217D01*
X171287500Y-99360023D01*
X171349855Y-99391546D01*
G37*
G04 #@! TD.AperFunction*
G04 #@! TA.AperFunction,NonConductor*
G36*
X168809855Y-99391546D02*
G01*
X168826575Y-99410842D01*
X168956501Y-99596396D01*
X168956506Y-99596402D01*
X169123597Y-99763493D01*
X169123603Y-99763498D01*
X169309158Y-99893425D01*
X169352783Y-99948002D01*
X169359977Y-100017500D01*
X169328454Y-100079855D01*
X169309158Y-100096575D01*
X169123597Y-100226505D01*
X168956505Y-100393597D01*
X168826575Y-100579158D01*
X168771998Y-100622783D01*
X168702500Y-100629977D01*
X168640145Y-100598454D01*
X168623425Y-100579158D01*
X168493494Y-100393597D01*
X168326402Y-100226506D01*
X168326396Y-100226501D01*
X168140842Y-100096575D01*
X168097217Y-100041998D01*
X168090023Y-99972500D01*
X168121546Y-99910145D01*
X168140842Y-99893425D01*
X168163026Y-99877891D01*
X168326401Y-99763495D01*
X168493495Y-99596401D01*
X168623425Y-99410842D01*
X168678002Y-99367217D01*
X168747500Y-99360023D01*
X168809855Y-99391546D01*
G37*
G04 #@! TD.AperFunction*
G04 #@! TA.AperFunction,NonConductor*
G36*
X166269855Y-99391546D02*
G01*
X166286575Y-99410842D01*
X166416501Y-99596396D01*
X166416506Y-99596402D01*
X166583597Y-99763493D01*
X166583603Y-99763498D01*
X166769158Y-99893425D01*
X166812783Y-99948002D01*
X166819977Y-100017500D01*
X166788454Y-100079855D01*
X166769158Y-100096575D01*
X166583597Y-100226505D01*
X166416505Y-100393597D01*
X166286575Y-100579158D01*
X166231998Y-100622783D01*
X166162500Y-100629977D01*
X166100145Y-100598454D01*
X166083425Y-100579158D01*
X165953494Y-100393597D01*
X165786402Y-100226506D01*
X165786396Y-100226501D01*
X165600842Y-100096575D01*
X165557217Y-100041998D01*
X165550023Y-99972500D01*
X165581546Y-99910145D01*
X165600842Y-99893425D01*
X165623026Y-99877891D01*
X165786401Y-99763495D01*
X165953495Y-99596401D01*
X166083425Y-99410842D01*
X166138002Y-99367217D01*
X166207500Y-99360023D01*
X166269855Y-99391546D01*
G37*
G04 #@! TD.AperFunction*
G04 #@! TA.AperFunction,NonConductor*
G36*
X196442539Y-78520185D02*
G01*
X196488294Y-78572989D01*
X196499500Y-78624500D01*
X196499500Y-80251743D01*
X196479815Y-80318782D01*
X196427011Y-80364537D01*
X196357853Y-80374481D01*
X196294297Y-80345456D01*
X196266668Y-80311170D01*
X196187229Y-80165690D01*
X196187224Y-80165682D01*
X196015745Y-79936612D01*
X196015729Y-79936594D01*
X195813405Y-79734270D01*
X195813387Y-79734254D01*
X195584317Y-79562775D01*
X195584309Y-79562770D01*
X195333166Y-79425635D01*
X195333167Y-79425635D01*
X195225915Y-79385632D01*
X195065046Y-79325631D01*
X195065043Y-79325630D01*
X195065037Y-79325628D01*
X194785433Y-79264804D01*
X194500001Y-79244390D01*
X194499999Y-79244390D01*
X194214566Y-79264804D01*
X193934962Y-79325628D01*
X193666833Y-79425635D01*
X193415690Y-79562770D01*
X193415682Y-79562775D01*
X193186612Y-79734254D01*
X193186594Y-79734270D01*
X192984270Y-79936594D01*
X192984254Y-79936612D01*
X192812775Y-80165682D01*
X192812770Y-80165690D01*
X192675635Y-80416833D01*
X192575628Y-80684962D01*
X192514804Y-80964566D01*
X192494390Y-81249998D01*
X192494390Y-81250001D01*
X192514804Y-81535433D01*
X192575628Y-81815037D01*
X192675635Y-82083166D01*
X192812770Y-82334309D01*
X192812775Y-82334317D01*
X192984254Y-82563387D01*
X192984270Y-82563405D01*
X193186594Y-82765729D01*
X193186612Y-82765745D01*
X193415682Y-82937224D01*
X193415690Y-82937229D01*
X193560254Y-83016168D01*
X193609659Y-83065574D01*
X193624511Y-83133847D01*
X193600094Y-83199311D01*
X193560254Y-83233832D01*
X193415690Y-83312770D01*
X193415682Y-83312775D01*
X193186612Y-83484254D01*
X193186594Y-83484270D01*
X192984270Y-83686594D01*
X192984254Y-83686612D01*
X192812775Y-83915682D01*
X192812770Y-83915690D01*
X192675635Y-84166833D01*
X192575628Y-84434962D01*
X192514804Y-84714566D01*
X192494390Y-84999998D01*
X192494390Y-85000001D01*
X192514804Y-85285433D01*
X192575628Y-85565037D01*
X192575630Y-85565043D01*
X192575631Y-85565046D01*
X192631978Y-85716117D01*
X192675635Y-85833166D01*
X192812770Y-86084309D01*
X192812775Y-86084317D01*
X192984254Y-86313387D01*
X192984270Y-86313405D01*
X193186594Y-86515729D01*
X193186612Y-86515745D01*
X193415682Y-86687224D01*
X193415690Y-86687229D01*
X193560254Y-86766168D01*
X193609659Y-86815574D01*
X193624511Y-86883847D01*
X193600094Y-86949311D01*
X193560254Y-86983832D01*
X193415690Y-87062770D01*
X193415682Y-87062775D01*
X193186612Y-87234254D01*
X193186594Y-87234270D01*
X192984270Y-87436594D01*
X192984254Y-87436612D01*
X192812775Y-87665682D01*
X192812770Y-87665690D01*
X192675635Y-87916833D01*
X192575628Y-88184962D01*
X192514804Y-88464566D01*
X192494390Y-88749998D01*
X192494390Y-88750001D01*
X192514804Y-89035433D01*
X192575628Y-89315037D01*
X192675635Y-89583166D01*
X192812770Y-89834309D01*
X192812775Y-89834317D01*
X192984254Y-90063387D01*
X192984270Y-90063405D01*
X193186594Y-90265729D01*
X193186612Y-90265745D01*
X193415682Y-90437224D01*
X193415690Y-90437229D01*
X193560254Y-90516168D01*
X193609659Y-90565574D01*
X193624511Y-90633847D01*
X193600094Y-90699311D01*
X193560254Y-90733832D01*
X193415690Y-90812770D01*
X193415682Y-90812775D01*
X193186612Y-90984254D01*
X193186594Y-90984270D01*
X192984270Y-91186594D01*
X192984254Y-91186612D01*
X192812775Y-91415682D01*
X192812770Y-91415689D01*
X192747663Y-91534927D01*
X192698258Y-91584332D01*
X192638831Y-91599500D01*
X189161303Y-91599500D01*
X188987341Y-91634103D01*
X188987333Y-91634105D01*
X188908308Y-91666839D01*
X188823449Y-91701988D01*
X188735040Y-91761063D01*
X188735039Y-91761064D01*
X188675961Y-91800537D01*
X188675960Y-91800538D01*
X176663319Y-103813181D01*
X176601996Y-103846666D01*
X176575638Y-103849500D01*
X174674361Y-103849500D01*
X174607322Y-103829815D01*
X174586680Y-103813181D01*
X173471819Y-102698319D01*
X173438334Y-102636996D01*
X173435500Y-102610638D01*
X173435500Y-102325758D01*
X173455185Y-102258719D01*
X173471819Y-102238077D01*
X173573495Y-102136401D01*
X173703425Y-101950842D01*
X173758002Y-101907217D01*
X173827500Y-101900023D01*
X173889855Y-101931546D01*
X173906575Y-101950842D01*
X174036500Y-102136395D01*
X174036505Y-102136401D01*
X174203599Y-102303495D01*
X174235394Y-102325758D01*
X174397165Y-102439032D01*
X174397167Y-102439033D01*
X174397170Y-102439035D01*
X174611337Y-102538903D01*
X174839592Y-102600063D01*
X175027918Y-102616539D01*
X175074999Y-102620659D01*
X175075000Y-102620659D01*
X175075001Y-102620659D01*
X175114234Y-102617226D01*
X175310408Y-102600063D01*
X175538663Y-102538903D01*
X175752830Y-102439035D01*
X175946401Y-102303495D01*
X176113495Y-102136401D01*
X176249035Y-101942830D01*
X176348903Y-101728663D01*
X176410063Y-101500408D01*
X176430659Y-101265000D01*
X176410063Y-101029592D01*
X176348903Y-100801337D01*
X176249035Y-100587171D01*
X176243424Y-100579158D01*
X176113496Y-100393600D01*
X176113493Y-100393597D01*
X175991567Y-100271671D01*
X175958084Y-100210351D01*
X175963068Y-100140659D01*
X176004939Y-100084725D01*
X176035915Y-100067810D01*
X176167331Y-100018796D01*
X176282546Y-99932546D01*
X176368796Y-99817331D01*
X176419091Y-99682483D01*
X176425500Y-99622873D01*
X176425499Y-97827128D01*
X176419091Y-97767517D01*
X176417810Y-97764083D01*
X176368797Y-97632671D01*
X176368793Y-97632664D01*
X176282547Y-97517455D01*
X176282544Y-97517452D01*
X176167335Y-97431206D01*
X176167328Y-97431202D01*
X176032482Y-97380908D01*
X176032483Y-97380908D01*
X175972883Y-97374501D01*
X175972881Y-97374500D01*
X175972873Y-97374500D01*
X175972864Y-97374500D01*
X174177129Y-97374500D01*
X174177123Y-97374501D01*
X174117516Y-97380908D01*
X173982671Y-97431202D01*
X173982664Y-97431206D01*
X173867455Y-97517452D01*
X173867452Y-97517455D01*
X173781206Y-97632664D01*
X173781203Y-97632669D01*
X173732189Y-97764083D01*
X173690317Y-97820016D01*
X173624853Y-97844433D01*
X173556580Y-97829581D01*
X173528326Y-97808430D01*
X173406402Y-97686506D01*
X173406395Y-97686501D01*
X173212834Y-97550967D01*
X173212830Y-97550965D01*
X173212828Y-97550964D01*
X172998663Y-97451097D01*
X172998659Y-97451096D01*
X172998655Y-97451094D01*
X172770413Y-97389938D01*
X172770403Y-97389936D01*
X172535001Y-97369341D01*
X172534999Y-97369341D01*
X172299596Y-97389936D01*
X172299586Y-97389938D01*
X172071344Y-97451094D01*
X172071335Y-97451098D01*
X171857171Y-97550964D01*
X171857169Y-97550965D01*
X171663597Y-97686505D01*
X171496505Y-97853597D01*
X171366575Y-98039158D01*
X171311998Y-98082783D01*
X171242500Y-98089977D01*
X171180145Y-98058454D01*
X171163425Y-98039158D01*
X171033494Y-97853597D01*
X170866402Y-97686506D01*
X170866395Y-97686501D01*
X170672834Y-97550967D01*
X170672830Y-97550965D01*
X170672828Y-97550964D01*
X170458663Y-97451097D01*
X170458659Y-97451096D01*
X170458655Y-97451094D01*
X170230413Y-97389938D01*
X170230403Y-97389936D01*
X169995001Y-97369341D01*
X169994999Y-97369341D01*
X169759596Y-97389936D01*
X169759586Y-97389938D01*
X169531344Y-97451094D01*
X169531335Y-97451098D01*
X169317171Y-97550964D01*
X169317169Y-97550965D01*
X169123597Y-97686505D01*
X168956505Y-97853597D01*
X168826575Y-98039158D01*
X168771998Y-98082783D01*
X168702500Y-98089977D01*
X168640145Y-98058454D01*
X168623425Y-98039158D01*
X168493494Y-97853597D01*
X168326402Y-97686506D01*
X168326395Y-97686501D01*
X168132834Y-97550967D01*
X168132830Y-97550965D01*
X168132828Y-97550964D01*
X167918663Y-97451097D01*
X167918659Y-97451096D01*
X167918655Y-97451094D01*
X167690413Y-97389938D01*
X167690403Y-97389936D01*
X167455001Y-97369341D01*
X167454999Y-97369341D01*
X167219596Y-97389936D01*
X167219586Y-97389938D01*
X166991344Y-97451094D01*
X166991335Y-97451098D01*
X166777171Y-97550964D01*
X166777169Y-97550965D01*
X166583597Y-97686505D01*
X166416505Y-97853597D01*
X166286575Y-98039158D01*
X166231998Y-98082783D01*
X166162500Y-98089977D01*
X166100145Y-98058454D01*
X166083425Y-98039158D01*
X165953494Y-97853597D01*
X165786402Y-97686506D01*
X165786395Y-97686501D01*
X165592834Y-97550967D01*
X165592830Y-97550965D01*
X165592828Y-97550964D01*
X165378663Y-97451097D01*
X165378659Y-97451096D01*
X165378655Y-97451094D01*
X165150413Y-97389938D01*
X165150403Y-97389936D01*
X164915001Y-97369341D01*
X164914999Y-97369341D01*
X164679596Y-97389936D01*
X164679586Y-97389938D01*
X164451344Y-97451094D01*
X164451335Y-97451098D01*
X164237171Y-97550964D01*
X164237169Y-97550965D01*
X164043597Y-97686505D01*
X163876505Y-97853597D01*
X163740965Y-98047169D01*
X163740964Y-98047171D01*
X163641098Y-98261335D01*
X163641094Y-98261344D01*
X163579938Y-98489586D01*
X163579936Y-98489596D01*
X163559341Y-98724999D01*
X163559341Y-98725000D01*
X163579936Y-98960403D01*
X163579938Y-98960413D01*
X163641094Y-99188655D01*
X163641096Y-99188659D01*
X163641097Y-99188663D01*
X163645000Y-99197032D01*
X163740965Y-99402830D01*
X163740967Y-99402834D01*
X163849281Y-99557521D01*
X163876501Y-99596396D01*
X163876506Y-99596402D01*
X164043597Y-99763493D01*
X164043603Y-99763498D01*
X164229158Y-99893425D01*
X164272783Y-99948002D01*
X164279977Y-100017500D01*
X164248454Y-100079855D01*
X164229158Y-100096575D01*
X164043597Y-100226505D01*
X163876505Y-100393597D01*
X163740965Y-100587169D01*
X163740964Y-100587171D01*
X163641098Y-100801335D01*
X163641094Y-100801344D01*
X163579938Y-101029586D01*
X163579936Y-101029596D01*
X163559341Y-101264999D01*
X163559341Y-101265000D01*
X163579936Y-101500403D01*
X163579938Y-101500413D01*
X163641094Y-101728655D01*
X163641096Y-101728659D01*
X163641097Y-101728663D01*
X163645000Y-101737032D01*
X163740965Y-101942830D01*
X163740967Y-101942834D01*
X163849281Y-102097521D01*
X163876505Y-102136401D01*
X164043599Y-102303495D01*
X164075394Y-102325758D01*
X164237165Y-102439032D01*
X164237167Y-102439033D01*
X164237170Y-102439035D01*
X164451337Y-102538903D01*
X164679592Y-102600063D01*
X164867918Y-102616539D01*
X164914999Y-102620659D01*
X164915000Y-102620659D01*
X164915001Y-102620659D01*
X164954234Y-102617226D01*
X165150408Y-102600063D01*
X165378663Y-102538903D01*
X165592830Y-102439035D01*
X165786401Y-102303495D01*
X165953495Y-102136401D01*
X166083425Y-101950842D01*
X166138002Y-101907217D01*
X166207500Y-101900023D01*
X166269855Y-101931546D01*
X166286575Y-101950842D01*
X166416500Y-102136395D01*
X166416505Y-102136401D01*
X166583599Y-102303495D01*
X166615394Y-102325758D01*
X166777165Y-102439032D01*
X166777167Y-102439033D01*
X166777170Y-102439035D01*
X166991337Y-102538903D01*
X167219592Y-102600063D01*
X167407918Y-102616539D01*
X167454999Y-102620659D01*
X167455000Y-102620659D01*
X167455001Y-102620659D01*
X167494234Y-102617226D01*
X167690408Y-102600063D01*
X167918663Y-102538903D01*
X168132830Y-102439035D01*
X168326401Y-102303495D01*
X168493495Y-102136401D01*
X168623425Y-101950842D01*
X168678002Y-101907217D01*
X168747500Y-101900023D01*
X168809855Y-101931546D01*
X168826575Y-101950842D01*
X168956501Y-102136396D01*
X168956506Y-102136402D01*
X169058181Y-102238077D01*
X169091666Y-102299400D01*
X169094500Y-102325758D01*
X169094500Y-102580638D01*
X169074815Y-102647677D01*
X169058181Y-102668319D01*
X168663319Y-103063181D01*
X168601996Y-103096666D01*
X168575638Y-103099500D01*
X117174361Y-103099500D01*
X117107322Y-103079815D01*
X117086680Y-103063181D01*
X108257797Y-94234297D01*
X108224312Y-94172974D01*
X108229296Y-94103282D01*
X108271166Y-94047350D01*
X108313395Y-94015739D01*
X108515739Y-93813395D01*
X108687226Y-93584315D01*
X108824367Y-93333161D01*
X108924369Y-93065046D01*
X108985196Y-92785428D01*
X109005610Y-92500000D01*
X108985196Y-92214572D01*
X108924369Y-91934954D01*
X108824367Y-91666839D01*
X108752337Y-91534927D01*
X108687229Y-91415690D01*
X108687224Y-91415682D01*
X108515745Y-91186612D01*
X108515729Y-91186594D01*
X108313405Y-90984270D01*
X108313387Y-90984254D01*
X108084317Y-90812775D01*
X108084309Y-90812770D01*
X107833166Y-90675635D01*
X107833167Y-90675635D01*
X107673692Y-90616154D01*
X107565046Y-90575631D01*
X107565043Y-90575630D01*
X107565037Y-90575628D01*
X107285433Y-90514804D01*
X107000001Y-90494390D01*
X106999999Y-90494390D01*
X106714566Y-90514804D01*
X106434962Y-90575628D01*
X106166833Y-90675635D01*
X105915690Y-90812770D01*
X105915682Y-90812775D01*
X105686612Y-90984254D01*
X105686594Y-90984270D01*
X105484270Y-91186594D01*
X105484254Y-91186612D01*
X105312775Y-91415682D01*
X105312770Y-91415690D01*
X105175635Y-91666833D01*
X105075628Y-91934962D01*
X105014804Y-92214566D01*
X104994390Y-92499998D01*
X104994390Y-92500001D01*
X105014804Y-92785433D01*
X105075628Y-93065037D01*
X105175635Y-93333166D01*
X105312770Y-93584309D01*
X105312775Y-93584317D01*
X105484254Y-93813387D01*
X105484270Y-93813405D01*
X105686594Y-94015729D01*
X105686612Y-94015745D01*
X105915682Y-94187224D01*
X105915685Y-94187226D01*
X106037217Y-94253587D01*
X106086622Y-94302991D01*
X106099407Y-94338228D01*
X106134103Y-94512658D01*
X106134105Y-94512666D01*
X106168046Y-94594606D01*
X106168046Y-94594607D01*
X106201984Y-94676542D01*
X106201985Y-94676544D01*
X106261063Y-94764960D01*
X106261064Y-94764961D01*
X106300534Y-94824034D01*
X106300535Y-94824035D01*
X106300536Y-94824036D01*
X116050536Y-104574035D01*
X116175962Y-104699461D01*
X116175966Y-104699465D01*
X116238141Y-104741009D01*
X116323453Y-104798013D01*
X116405393Y-104831953D01*
X116487334Y-104865895D01*
X116661303Y-104900499D01*
X116661307Y-104900500D01*
X116661308Y-104900500D01*
X169088693Y-104900500D01*
X169088694Y-104900499D01*
X169262666Y-104865895D01*
X169344606Y-104831953D01*
X169426547Y-104798013D01*
X169426549Y-104798011D01*
X169426552Y-104798010D01*
X169514955Y-104738939D01*
X169514955Y-104738938D01*
X169514959Y-104738936D01*
X169574036Y-104699464D01*
X170694463Y-103579036D01*
X170694464Y-103579035D01*
X170793013Y-103431547D01*
X170860894Y-103267666D01*
X170895500Y-103093691D01*
X170895500Y-102325758D01*
X170915185Y-102258719D01*
X170931819Y-102238077D01*
X171033495Y-102136401D01*
X171163425Y-101950842D01*
X171218002Y-101907217D01*
X171287500Y-101900023D01*
X171349855Y-101931546D01*
X171366575Y-101950842D01*
X171496501Y-102136396D01*
X171496506Y-102136402D01*
X171598181Y-102238077D01*
X171631666Y-102299400D01*
X171634500Y-102325758D01*
X171634500Y-103123696D01*
X171669103Y-103297659D01*
X171669105Y-103297665D01*
X171696905Y-103364779D01*
X171696904Y-103364779D01*
X171696905Y-103364780D01*
X171736984Y-103461542D01*
X171736985Y-103461544D01*
X171796063Y-103549960D01*
X171835537Y-103609038D01*
X171835540Y-103609041D01*
X173550536Y-105324035D01*
X173675962Y-105449461D01*
X173675966Y-105449465D01*
X173823446Y-105548009D01*
X173823459Y-105548016D01*
X173946363Y-105598923D01*
X173987334Y-105615894D01*
X174029935Y-105624368D01*
X174161305Y-105650500D01*
X174161308Y-105650500D01*
X177088693Y-105650500D01*
X177088694Y-105650499D01*
X177262666Y-105615895D01*
X177344606Y-105581953D01*
X177426547Y-105548013D01*
X177426549Y-105548011D01*
X177426552Y-105548010D01*
X177514955Y-105488939D01*
X177514955Y-105488938D01*
X177514959Y-105488936D01*
X177574036Y-105449464D01*
X178023500Y-105000000D01*
X181944396Y-105000000D01*
X181964778Y-105258990D01*
X182025427Y-105511610D01*
X182124843Y-105751623D01*
X182124845Y-105751627D01*
X182124846Y-105751628D01*
X182260588Y-105973140D01*
X182429311Y-106170689D01*
X182626860Y-106339412D01*
X182848372Y-106475154D01*
X182848374Y-106475154D01*
X182848376Y-106475156D01*
X182890756Y-106492710D01*
X183088390Y-106574573D01*
X183341006Y-106635221D01*
X183600000Y-106655604D01*
X183858994Y-106635221D01*
X184111610Y-106574573D01*
X184351628Y-106475154D01*
X184573140Y-106339412D01*
X184770689Y-106170689D01*
X184939412Y-105973140D01*
X185075154Y-105751628D01*
X185174573Y-105511610D01*
X185235221Y-105258994D01*
X185255604Y-105000000D01*
X185235221Y-104741006D01*
X185174573Y-104488390D01*
X185075154Y-104248372D01*
X184953582Y-104049984D01*
X186749500Y-104049984D01*
X186749500Y-105950015D01*
X186760000Y-106052795D01*
X186760001Y-106052796D01*
X186815186Y-106219335D01*
X186815187Y-106219337D01*
X186907286Y-106368651D01*
X186907289Y-106368655D01*
X187031344Y-106492710D01*
X187031348Y-106492713D01*
X187180662Y-106584812D01*
X187180664Y-106584813D01*
X187180666Y-106584814D01*
X187347203Y-106639999D01*
X187449992Y-106650500D01*
X187449997Y-106650500D01*
X189350003Y-106650500D01*
X189350008Y-106650500D01*
X189452797Y-106639999D01*
X189619334Y-106584814D01*
X189768655Y-106492711D01*
X189892711Y-106368655D01*
X189984814Y-106219334D01*
X190039999Y-106052797D01*
X190050500Y-105950008D01*
X190050500Y-104049992D01*
X190039999Y-103947203D01*
X189984814Y-103780666D01*
X189910748Y-103660588D01*
X189892713Y-103631348D01*
X189892710Y-103631344D01*
X189768655Y-103507289D01*
X189768651Y-103507286D01*
X189619337Y-103415187D01*
X189619335Y-103415186D01*
X189536065Y-103387593D01*
X189452797Y-103360001D01*
X189452795Y-103360000D01*
X189350015Y-103349500D01*
X189350008Y-103349500D01*
X187449992Y-103349500D01*
X187449984Y-103349500D01*
X187347204Y-103360000D01*
X187347203Y-103360001D01*
X187180664Y-103415186D01*
X187180662Y-103415187D01*
X187031348Y-103507286D01*
X187031344Y-103507289D01*
X186907289Y-103631344D01*
X186907286Y-103631348D01*
X186815187Y-103780662D01*
X186815186Y-103780664D01*
X186760001Y-103947203D01*
X186760000Y-103947204D01*
X186749500Y-104049984D01*
X184953582Y-104049984D01*
X184939412Y-104026860D01*
X184770689Y-103829311D01*
X184573140Y-103660588D01*
X184351628Y-103524846D01*
X184351627Y-103524845D01*
X184351623Y-103524843D01*
X184126399Y-103431553D01*
X184111610Y-103425427D01*
X184111611Y-103425427D01*
X183973921Y-103392370D01*
X183858994Y-103364779D01*
X183858992Y-103364778D01*
X183858991Y-103364778D01*
X183600000Y-103344396D01*
X183341009Y-103364778D01*
X183088389Y-103425427D01*
X182848376Y-103524843D01*
X182626859Y-103660588D01*
X182429311Y-103829311D01*
X182260588Y-104026859D01*
X182124843Y-104248376D01*
X182025427Y-104488389D01*
X181964778Y-104741009D01*
X181944396Y-105000000D01*
X178023500Y-105000000D01*
X189586681Y-93436819D01*
X189648004Y-93403334D01*
X189674362Y-93400500D01*
X192638831Y-93400500D01*
X192705870Y-93420185D01*
X192747663Y-93465073D01*
X192812770Y-93584310D01*
X192812775Y-93584317D01*
X192984254Y-93813387D01*
X192984270Y-93813405D01*
X193186594Y-94015729D01*
X193186612Y-94015745D01*
X193415682Y-94187224D01*
X193415690Y-94187229D01*
X193666833Y-94324364D01*
X193666832Y-94324364D01*
X193666836Y-94324365D01*
X193666839Y-94324367D01*
X193934954Y-94424369D01*
X193934960Y-94424370D01*
X193934962Y-94424371D01*
X194214566Y-94485195D01*
X194214568Y-94485195D01*
X194214572Y-94485196D01*
X194468220Y-94503337D01*
X194499999Y-94505610D01*
X194500000Y-94505610D01*
X194500001Y-94505610D01*
X194528595Y-94503564D01*
X194785428Y-94485196D01*
X195065046Y-94424369D01*
X195333161Y-94324367D01*
X195584315Y-94187226D01*
X195813395Y-94015739D01*
X196015739Y-93813395D01*
X196187226Y-93584315D01*
X196234218Y-93498256D01*
X196266668Y-93438829D01*
X196316073Y-93389424D01*
X196384346Y-93374572D01*
X196449811Y-93398989D01*
X196491682Y-93454923D01*
X196499500Y-93498256D01*
X196499500Y-107375500D01*
X196479815Y-107442539D01*
X196427011Y-107488294D01*
X196375500Y-107499500D01*
X104624500Y-107499500D01*
X104557461Y-107479815D01*
X104511706Y-107427011D01*
X104500500Y-107375500D01*
X104500500Y-81249998D01*
X104994390Y-81249998D01*
X104994390Y-81250001D01*
X105014804Y-81535433D01*
X105075628Y-81815037D01*
X105175635Y-82083166D01*
X105312770Y-82334309D01*
X105312775Y-82334317D01*
X105484254Y-82563387D01*
X105484270Y-82563405D01*
X105686594Y-82765729D01*
X105686612Y-82765745D01*
X105915682Y-82937224D01*
X105915690Y-82937229D01*
X106060254Y-83016168D01*
X106109659Y-83065574D01*
X106124511Y-83133847D01*
X106100094Y-83199311D01*
X106060254Y-83233832D01*
X105915690Y-83312770D01*
X105915682Y-83312775D01*
X105686612Y-83484254D01*
X105686594Y-83484270D01*
X105484270Y-83686594D01*
X105484254Y-83686612D01*
X105312775Y-83915682D01*
X105312770Y-83915690D01*
X105175635Y-84166833D01*
X105075628Y-84434962D01*
X105014804Y-84714566D01*
X104994390Y-84999998D01*
X104994390Y-85000001D01*
X105014804Y-85285433D01*
X105075628Y-85565037D01*
X105075630Y-85565043D01*
X105075631Y-85565046D01*
X105131978Y-85716117D01*
X105175635Y-85833166D01*
X105312770Y-86084309D01*
X105312775Y-86084317D01*
X105484254Y-86313387D01*
X105484270Y-86313405D01*
X105686594Y-86515729D01*
X105686612Y-86515745D01*
X105915682Y-86687224D01*
X105915690Y-86687229D01*
X106166833Y-86824364D01*
X106166832Y-86824364D01*
X106166836Y-86824365D01*
X106166839Y-86824367D01*
X106434954Y-86924369D01*
X106434960Y-86924370D01*
X106434962Y-86924371D01*
X106714566Y-86985195D01*
X106714568Y-86985195D01*
X106714572Y-86985196D01*
X106968220Y-87003337D01*
X106999999Y-87005610D01*
X107000000Y-87005610D01*
X107000001Y-87005610D01*
X107028595Y-87003564D01*
X107285428Y-86985196D01*
X107291699Y-86983832D01*
X107565037Y-86924371D01*
X107565037Y-86924370D01*
X107565046Y-86924369D01*
X107833161Y-86824367D01*
X107920682Y-86776577D01*
X123649500Y-86776577D01*
X123649500Y-86973422D01*
X123680290Y-87167826D01*
X123741117Y-87355029D01*
X123782686Y-87436612D01*
X123830476Y-87530405D01*
X123946172Y-87689646D01*
X124085354Y-87828828D01*
X124244595Y-87944524D01*
X124327455Y-87986743D01*
X124419970Y-88033882D01*
X124419972Y-88033882D01*
X124419975Y-88033884D01*
X124520317Y-88066487D01*
X124607173Y-88094709D01*
X124801578Y-88125500D01*
X124801583Y-88125500D01*
X124998422Y-88125500D01*
X125192826Y-88094709D01*
X125380025Y-88033884D01*
X125555405Y-87944524D01*
X125714646Y-87828828D01*
X125853828Y-87689646D01*
X125969524Y-87530405D01*
X126058884Y-87355025D01*
X126119709Y-87167826D01*
X126150500Y-86973422D01*
X126150500Y-86776577D01*
X175349500Y-86776577D01*
X175349500Y-86973422D01*
X175380290Y-87167826D01*
X175441117Y-87355029D01*
X175482686Y-87436612D01*
X175530476Y-87530405D01*
X175646172Y-87689646D01*
X175785354Y-87828828D01*
X175944595Y-87944524D01*
X176027455Y-87986743D01*
X176119970Y-88033882D01*
X176119972Y-88033882D01*
X176119975Y-88033884D01*
X176220317Y-88066487D01*
X176307173Y-88094709D01*
X176501578Y-88125500D01*
X176501583Y-88125500D01*
X176698422Y-88125500D01*
X176892826Y-88094709D01*
X177080025Y-88033884D01*
X177255405Y-87944524D01*
X177414646Y-87828828D01*
X177553828Y-87689646D01*
X177669524Y-87530405D01*
X177758884Y-87355025D01*
X177819709Y-87167826D01*
X177850500Y-86973422D01*
X177850500Y-86776577D01*
X177819709Y-86582173D01*
X177758882Y-86394970D01*
X177669523Y-86219594D01*
X177553828Y-86060354D01*
X177414646Y-85921172D01*
X177255405Y-85805476D01*
X177080029Y-85716117D01*
X176892826Y-85655290D01*
X176698422Y-85624500D01*
X176698417Y-85624500D01*
X176501583Y-85624500D01*
X176501578Y-85624500D01*
X176307173Y-85655290D01*
X176119970Y-85716117D01*
X175944594Y-85805476D01*
X175906483Y-85833166D01*
X175785354Y-85921172D01*
X175785352Y-85921174D01*
X175785351Y-85921174D01*
X175646174Y-86060351D01*
X175646174Y-86060352D01*
X175646172Y-86060354D01*
X175628762Y-86084317D01*
X175530476Y-86219594D01*
X175441117Y-86394970D01*
X175380290Y-86582173D01*
X175349500Y-86776577D01*
X126150500Y-86776577D01*
X126119709Y-86582173D01*
X126058882Y-86394970D01*
X125969523Y-86219594D01*
X125853828Y-86060354D01*
X125714646Y-85921172D01*
X125555405Y-85805476D01*
X125380029Y-85716117D01*
X125192826Y-85655290D01*
X124998422Y-85624500D01*
X124998417Y-85624500D01*
X124801583Y-85624500D01*
X124801578Y-85624500D01*
X124607173Y-85655290D01*
X124419970Y-85716117D01*
X124244594Y-85805476D01*
X124206483Y-85833166D01*
X124085354Y-85921172D01*
X124085352Y-85921174D01*
X124085351Y-85921174D01*
X123946174Y-86060351D01*
X123946174Y-86060352D01*
X123946172Y-86060354D01*
X123928762Y-86084317D01*
X123830476Y-86219594D01*
X123741117Y-86394970D01*
X123680290Y-86582173D01*
X123649500Y-86776577D01*
X107920682Y-86776577D01*
X108084315Y-86687226D01*
X108313395Y-86515739D01*
X108515739Y-86313395D01*
X108687226Y-86084315D01*
X108824367Y-85833161D01*
X108924369Y-85565046D01*
X108985196Y-85285428D01*
X109005610Y-85000000D01*
X108985196Y-84714572D01*
X108924369Y-84434954D01*
X108824367Y-84166839D01*
X108734217Y-84001743D01*
X108687229Y-83915690D01*
X108687224Y-83915682D01*
X108515745Y-83686612D01*
X108515729Y-83686594D01*
X108313405Y-83484270D01*
X108313387Y-83484254D01*
X108084317Y-83312775D01*
X108084309Y-83312770D01*
X107939745Y-83233832D01*
X107890340Y-83184427D01*
X107875488Y-83116154D01*
X107899905Y-83050689D01*
X107939745Y-83016168D01*
X108032627Y-82965449D01*
X108084315Y-82937226D01*
X108313395Y-82765739D01*
X108515739Y-82563395D01*
X108687226Y-82334315D01*
X108824367Y-82083161D01*
X108924369Y-81815046D01*
X108985196Y-81535428D01*
X109005610Y-81250000D01*
X108985196Y-80964572D01*
X108924369Y-80684954D01*
X108824367Y-80416839D01*
X108734217Y-80251743D01*
X108687229Y-80165690D01*
X108687224Y-80165682D01*
X108515745Y-79936612D01*
X108515729Y-79936594D01*
X108313405Y-79734270D01*
X108313387Y-79734254D01*
X108084317Y-79562775D01*
X108084309Y-79562770D01*
X107833166Y-79425635D01*
X107833167Y-79425635D01*
X107725915Y-79385632D01*
X107565046Y-79325631D01*
X107565043Y-79325630D01*
X107565037Y-79325628D01*
X107285433Y-79264804D01*
X107000001Y-79244390D01*
X106999999Y-79244390D01*
X106714566Y-79264804D01*
X106434962Y-79325628D01*
X106166833Y-79425635D01*
X105915690Y-79562770D01*
X105915682Y-79562775D01*
X105686612Y-79734254D01*
X105686594Y-79734270D01*
X105484270Y-79936594D01*
X105484254Y-79936612D01*
X105312775Y-80165682D01*
X105312770Y-80165690D01*
X105175635Y-80416833D01*
X105075628Y-80684962D01*
X105014804Y-80964566D01*
X104994390Y-81249998D01*
X104500500Y-81249998D01*
X104500500Y-78624500D01*
X104520185Y-78557461D01*
X104572989Y-78511706D01*
X104624500Y-78500500D01*
X196375500Y-78500500D01*
X196442539Y-78520185D01*
G37*
G04 #@! TD.AperFunction*
M02*
