M48
; DRILL file {KiCad 8.0.4} date 2024-09-17T23:37:29+0200
; FORMAT={-:-/ absolute / inch / decimal}
; #@! TF.CreationDate,2024-09-17T23:37:29+02:00
; #@! TF.GenerationSoftware,Kicad,Pcbnew,8.0.4
; #@! TF.FileFunction,Plated,1,2,PTH
FMAT,2
INCH
; #@! TA.AperFunction,Plated,PTH,ViaDrill
T1C0.0118
; #@! TA.AperFunction,Plated,PTH,ComponentDrill
T2C0.0320
; #@! TA.AperFunction,Plated,PTH,ComponentDrill
T3C0.0394
%
G90
G05
T1
X1.0236Y-4.5079
X1.0433Y-5.5512
X1.1811Y-3.4055
X1.378Y-3.5039
X1.6314Y-4.7072
X1.6339Y-4.2323
X1.6929Y-3.8976
X1.752Y-4.8031
X1.8504Y-3.5433
X1.9291Y-5.4562
X2.3425Y-3.622
X2.6156Y-4.7072
X2.6181Y-4.2323
X2.6969Y-3.6417
X2.7362Y-4.8228
X2.7559Y-3.9764
X2.7953Y-4.4882
X2.9331Y-5.4006
X3.3071Y-3.563
X3.5999Y-4.7072
X3.6024Y-4.2323
X3.7205Y-4.7835
X3.7598Y-3.6417
X3.7795Y-5.7677
X3.8386Y-5.3543
X3.8583Y-3.9764
X4.1142Y-3.4646
X4.3307Y-3.5236
X4.4094Y-4.5276
X4.5842Y-4.7072
X4.5866Y-4.2323
X4.7244Y-4.8031
X4.7638Y-3.6417
X4.7835Y-3.8976
X4.8819Y-5.3184
X5.315Y-3.3268
X5.3346Y-3.4646
X5.5684Y-4.7072
X5.5709Y-4.2323
X5.689Y-4.8031
X5.8071Y-3.9961
X5.9055Y-4.4685
X6.0827Y-3.4843
X6.122Y-3.3268
X6.2992Y-3.4449
X6.378Y-5.4528
X6.5527Y-4.7072
X6.5551Y-4.2323
X6.6732Y-4.8228
X6.752Y-3.9764
X6.8701Y-5.4134
X7.1457Y-5.8071
X7.2638Y-3.6417
X7.5369Y-4.7072
X7.5394Y-4.2323
X7.6575Y-4.8228
X7.7165Y-4.4685
X7.7559Y-3.9764
X7.7756Y-5.374
X7.8346Y-5.1969
X8.0906Y-3.7598
X8.1693Y-3.7008
X8.3858Y-3.7205
X8.5236Y-4.3504
X8.5236Y-4.5866
X8.5236Y-5.2953
X8.563Y-3.563
X8.5827Y-5.0984
X8.622Y-4.5079
X8.6614Y-3.5236
X8.6614Y-4.1732
X8.6614Y-5.4528
X8.7008Y-4.3504
X8.7008Y-5.2362
X8.7008Y-5.7283
X8.7598Y-4.4488
X8.7992Y-3.4055
X8.7992Y-5.2953
X8.7992Y-5.689
X8.8583Y-5.6496
X8.878Y-4.0945
X8.878Y-5.2559
X8.8976Y-3.937
X8.9173Y-3.3858
X8.9173Y-4.5866
X8.9173Y-5.6102
X8.9764Y-3.2874
X8.9961Y-5.4724
X9.0551Y-3.6053
X9.0551Y-5.8661
X9.0945Y-4.3504
X9.1339Y-4.685
X9.1535Y-5.2953
X9.1929Y-5.1772
X9.2323Y-4.5079
X9.2913Y-3.3465
X9.3701Y-5.4331
X9.3701Y-5.6299
X9.3898Y-4.1535
X9.4094Y-3.7795
X9.4094Y-5.4331
X9.4488Y-4.6654
X9.4882Y-3.6614
X9.4882Y-5.5709
X9.5472Y-3.3661
X9.5472Y-3.4252
X9.5472Y-3.6417
X9.5669Y-3.5039
X9.5669Y-3.7402
X9.5669Y-3.8583
X9.5669Y-4.2717
X9.5866Y-3.3858
X9.5866Y-3.6024
X9.5866Y-5.4724
X9.626Y-3.563
X9.6457Y-3.7598
X9.6457Y-4.9606
X9.6654Y-3.4646
X9.7047Y-4.0748
X9.7244Y-5.7677
X9.7835Y-4.4685
X9.8228Y-5.2756
X9.8228Y-5.748
X9.9016Y-4.1535
X9.9213Y-3.7795
X9.9281Y-5.7608
X9.9409Y-3.4449
X10.0Y-3.7205
X10.0Y-4.626
X10.0787Y-5.4331
X10.0787Y-5.7677
X10.0984Y-5.3937
X10.1378Y-4.0157
X10.2362Y-3.6024
X10.2756Y-3.4055
X10.2756Y-4.8622
X10.2756Y-5.748
X10.2953Y-3.8583
X10.3346Y-3.9567
X10.374Y-5.7087
X10.4134Y-4.5472
X10.4331Y-3.7795
X10.4331Y-5.8071
X10.4528Y-3.3268
X10.5118Y-4.4685
X10.5315Y-4.8228
X10.748Y-3.563
T2
X1.1098Y-4.0551
X1.1098Y-4.2551
X1.1098Y-5.0
X1.1098Y-5.2
X1.2098Y-3.8551
X1.2098Y-4.8
X1.3098Y-3.8551
X1.3098Y-4.8
X1.4098Y-4.0551
X1.4098Y-4.2551
X1.4098Y-5.0
X1.4098Y-5.2
X2.0941Y-4.0551
X2.0941Y-4.2551
X2.0941Y-5.0
X2.0941Y-5.2
X2.1941Y-3.8551
X2.1941Y-4.8
X2.2941Y-3.8551
X2.2941Y-4.8
X2.3941Y-4.0551
X2.3941Y-4.2551
X2.3941Y-5.0
X2.3941Y-5.2
X3.0783Y-4.0551
X3.0783Y-4.2551
X3.0783Y-5.0
X3.0783Y-5.2
X3.1783Y-3.8551
X3.1783Y-4.8
X3.2783Y-3.8551
X3.2783Y-4.8
X3.3783Y-4.0551
X3.3783Y-4.2551
X3.3783Y-5.0
X3.3783Y-5.2
X4.0626Y-4.0551
X4.0626Y-4.2551
X4.0626Y-5.0
X4.0626Y-5.2
X4.1626Y-3.8551
X4.1626Y-4.8
X4.2626Y-3.8551
X4.2626Y-4.8
X4.3626Y-4.0551
X4.3626Y-4.2551
X4.3626Y-5.0
X4.3626Y-5.2
X5.0469Y-4.0551
X5.0469Y-4.2551
X5.0469Y-5.0
X5.0469Y-5.2
X5.1469Y-3.8551
X5.1469Y-4.8
X5.2469Y-3.8551
X5.2469Y-4.8
X5.3469Y-4.0551
X5.3469Y-4.2551
X5.3469Y-5.0
X5.3469Y-5.2
X6.0311Y-4.0551
X6.0311Y-4.2551
X6.0311Y-5.0
X6.0311Y-5.2
X6.1311Y-3.8551
X6.1311Y-4.8
X6.2311Y-3.8551
X6.2311Y-4.8
X6.3311Y-4.0551
X6.3311Y-4.2551
X6.3311Y-5.0
X6.3311Y-5.2
X7.0154Y-4.0551
X7.0154Y-4.2551
X7.0154Y-5.0
X7.0154Y-5.2
X7.1154Y-3.8551
X7.1154Y-4.8
X7.2154Y-3.8551
X7.2154Y-4.8
X7.3154Y-4.0551
X7.3154Y-4.2551
X7.3154Y-5.0
X7.3154Y-5.2
X7.9996Y-4.0551
X7.9996Y-4.2551
X7.9996Y-5.0
X7.9996Y-5.2
X8.0996Y-3.8551
X8.0996Y-4.8
X8.1996Y-3.8551
X8.1996Y-4.8
X8.2996Y-4.0551
X8.2996Y-4.2551
X8.2996Y-5.0
X8.2996Y-5.2
X8.9839Y-4.0551
X8.9839Y-4.2551
X8.9839Y-5.0
X8.9839Y-5.2
X9.0839Y-3.8551
X9.0839Y-4.8
X9.1839Y-3.8551
X9.1839Y-4.8
X9.2839Y-4.0551
X9.2839Y-4.2551
X9.2839Y-5.0
X9.2839Y-5.2
X9.9681Y-4.0551
X9.9681Y-4.2551
X9.9681Y-5.0
X9.9681Y-5.2
X10.0681Y-3.8551
X10.0681Y-4.8
X10.1681Y-3.8551
X10.1681Y-4.8
X10.2681Y-4.0551
X10.2681Y-4.2551
X10.2681Y-5.0
X10.2681Y-5.2
T3
X10.6693Y-3.8051
X10.6693Y-3.9051
X10.6693Y-4.0051
X10.6693Y-4.1051
X10.6693Y-4.2051
X10.6693Y-4.3051
X10.6693Y-4.5368
X10.6693Y-4.6368
X10.6693Y-4.8756
X10.6693Y-4.9756
X10.6693Y-5.0756
X10.6693Y-5.1756
X10.6693Y-5.2756
X10.6693Y-5.3756
M30
