G04 #@! TF.GenerationSoftware,KiCad,Pcbnew,8.0.4*
G04 #@! TF.CreationDate,2024-09-19T19:58:35+02:00*
G04 #@! TF.ProjectId,Buttons_Flash,42757474-6f6e-4735-9f46-6c6173682e6b,rev?*
G04 #@! TF.SameCoordinates,Original*
G04 #@! TF.FileFunction,Legend,Bot*
G04 #@! TF.FilePolarity,Positive*
%FSLAX46Y46*%
G04 Gerber Fmt 4.6, Leading zero omitted, Abs format (unit mm)*
G04 Created by KiCad (PCBNEW 8.0.4) date 2024-09-19 19:58:35*
%MOMM*%
%LPD*%
G01*
G04 APERTURE LIST*
%ADD10C,1.117600*%
%ADD11O,1.524000X2.844800*%
%ADD12C,3.200000*%
%ADD13R,1.700000X1.700000*%
%ADD14O,1.700000X1.700000*%
G04 APERTURE END LIST*
%LPC*%
D10*
X53190000Y-110620000D03*
X60810000Y-95380000D03*
D11*
X55730000Y-97920000D03*
X58270000Y-97920000D03*
X53190000Y-103000000D03*
X60810000Y-103000000D03*
X53190000Y-108080000D03*
X60810000Y-108080000D03*
D10*
X228190000Y-134620000D03*
X235810000Y-119380000D03*
D11*
X230730000Y-121920000D03*
X233270000Y-121920000D03*
X228190000Y-127000000D03*
X235810000Y-127000000D03*
X228190000Y-132080000D03*
X235810000Y-132080000D03*
D10*
X78190000Y-134620000D03*
X85810000Y-119380000D03*
D11*
X80730000Y-121920000D03*
X83270000Y-121920000D03*
X78190000Y-127000000D03*
X85810000Y-127000000D03*
X78190000Y-132080000D03*
X85810000Y-132080000D03*
D10*
X178190000Y-110620000D03*
X185810000Y-95380000D03*
D11*
X180730000Y-97920000D03*
X183270000Y-97920000D03*
X178190000Y-103000000D03*
X185810000Y-103000000D03*
X178190000Y-108080000D03*
X185810000Y-108080000D03*
D10*
X203190000Y-134620000D03*
X210810000Y-119380000D03*
D11*
X205730000Y-121920000D03*
X208270000Y-121920000D03*
X203190000Y-127000000D03*
X210810000Y-127000000D03*
X203190000Y-132080000D03*
X210810000Y-132080000D03*
D10*
X103190000Y-110620000D03*
X110810000Y-95380000D03*
D11*
X105730000Y-97920000D03*
X108270000Y-97920000D03*
X103190000Y-103000000D03*
X110810000Y-103000000D03*
X103190000Y-108080000D03*
X110810000Y-108080000D03*
D10*
X153190000Y-110620000D03*
X160810000Y-95380000D03*
D11*
X155730000Y-97920000D03*
X158270000Y-97920000D03*
X153190000Y-103000000D03*
X160810000Y-103000000D03*
X153190000Y-108080000D03*
X160810000Y-108080000D03*
D10*
X203190000Y-110620000D03*
X210810000Y-95380000D03*
D11*
X205730000Y-97920000D03*
X208270000Y-97920000D03*
X203190000Y-103000000D03*
X210810000Y-103000000D03*
X203190000Y-108080000D03*
X210810000Y-108080000D03*
D10*
X53190000Y-134620000D03*
X60810000Y-119380000D03*
D11*
X55730000Y-121920000D03*
X58270000Y-121920000D03*
X53190000Y-127000000D03*
X60810000Y-127000000D03*
X53190000Y-132080000D03*
X60810000Y-132080000D03*
D10*
X228190000Y-110620000D03*
X235810000Y-95380000D03*
D11*
X230730000Y-97920000D03*
X233270000Y-97920000D03*
X228190000Y-103000000D03*
X235810000Y-103000000D03*
X228190000Y-108080000D03*
X235810000Y-108080000D03*
D10*
X128190000Y-110620000D03*
X135810000Y-95380000D03*
D11*
X130730000Y-97920000D03*
X133270000Y-97920000D03*
X128190000Y-103000000D03*
X135810000Y-103000000D03*
X128190000Y-108080000D03*
X135810000Y-108080000D03*
D10*
X178190000Y-134620000D03*
X185810000Y-119380000D03*
D11*
X180730000Y-121920000D03*
X183270000Y-121920000D03*
X178190000Y-127000000D03*
X185810000Y-127000000D03*
X178190000Y-132080000D03*
X185810000Y-132080000D03*
D10*
X153190000Y-134620000D03*
X160810000Y-119380000D03*
D11*
X155730000Y-121920000D03*
X158270000Y-121920000D03*
X153190000Y-127000000D03*
X160810000Y-127000000D03*
X153190000Y-132080000D03*
X160810000Y-132080000D03*
D10*
X103190000Y-134620000D03*
X110810000Y-119380000D03*
D11*
X105730000Y-121920000D03*
X108270000Y-121920000D03*
X103190000Y-127000000D03*
X110810000Y-127000000D03*
X103190000Y-132080000D03*
X110810000Y-132080000D03*
D10*
X128190000Y-134620000D03*
X135810000Y-119380000D03*
D11*
X130730000Y-121920000D03*
X133270000Y-121920000D03*
X128190000Y-127000000D03*
X135810000Y-127000000D03*
X128190000Y-132080000D03*
X135810000Y-132080000D03*
D10*
X28190000Y-110620000D03*
X35810000Y-95380000D03*
D11*
X30730000Y-97920000D03*
X33270000Y-97920000D03*
X28190000Y-103000000D03*
X35810000Y-103000000D03*
X28190000Y-108080000D03*
X35810000Y-108080000D03*
D10*
X28190000Y-134620000D03*
X35810000Y-119380000D03*
D11*
X30730000Y-121920000D03*
X33270000Y-121920000D03*
X28190000Y-127000000D03*
X35810000Y-127000000D03*
X28190000Y-132080000D03*
X35810000Y-132080000D03*
D10*
X253190000Y-110620000D03*
X260810000Y-95380000D03*
D11*
X255730000Y-97920000D03*
X258270000Y-97920000D03*
X253190000Y-103000000D03*
X260810000Y-103000000D03*
X253190000Y-108080000D03*
X260810000Y-108080000D03*
D10*
X253190000Y-134620000D03*
X260810000Y-119380000D03*
D11*
X255730000Y-121920000D03*
X258270000Y-121920000D03*
X253190000Y-127000000D03*
X260810000Y-127000000D03*
X253190000Y-132080000D03*
X260810000Y-132080000D03*
D10*
X78190000Y-110620000D03*
X85810000Y-95380000D03*
D11*
X80730000Y-97920000D03*
X83270000Y-97920000D03*
X78190000Y-103000000D03*
X85810000Y-103000000D03*
X78190000Y-108080000D03*
X85810000Y-108080000D03*
D12*
X25000000Y-87000000D03*
D13*
X271000000Y-109350000D03*
D14*
X271000000Y-106810000D03*
X271000000Y-104270000D03*
X271000000Y-101730000D03*
X271000000Y-99190000D03*
X271000000Y-96650000D03*
D12*
X25000000Y-145000000D03*
D13*
X271000000Y-117775000D03*
D14*
X271000000Y-115235000D03*
D12*
X145500000Y-145000000D03*
X145500000Y-87000000D03*
X270000000Y-87000000D03*
X270000000Y-145000000D03*
D13*
X271000000Y-136540000D03*
D14*
X271000000Y-134000000D03*
X271000000Y-131460000D03*
X271000000Y-128920000D03*
X271000000Y-126380000D03*
X271000000Y-123840000D03*
%LPD*%
M02*
