%TF.GenerationSoftware,KiCad,Pcbnew,8.0.4*%
%TF.CreationDate,2024-09-17T23:37:22+02:00*%
%TF.ProjectId,Buttons_Flash,42757474-6f6e-4735-9f46-6c6173682e6b,rev?*%
%TF.SameCoordinates,Original*%
%TF.FileFunction,Soldermask,Bot*%
%TF.FilePolarity,Negative*%
%FSLAX46Y46*%
G04 Gerber Fmt 4.6, Leading zero omitted, Abs format (unit mm)*
G04 Created by KiCad (PCBNEW 8.0.4) date 2024-09-17 23:37:22*
%MOMM*%
%LPD*%
G01*
G04 APERTURE LIST*
%ADD10C,3.200000*%
%ADD11C,1.117600*%
%ADD12O,1.524000X2.844800*%
%ADD13R,1.700000X1.700000*%
%ADD14O,1.700000X1.700000*%
G04 APERTURE END LIST*
D10*
%TO.C,H1*%
X25000000Y-87000000D03*
%TD*%
D11*
%TO.C,SW2*%
X53190000Y-110620000D03*
X60810000Y-95380000D03*
D12*
X55730000Y-97920000D03*
X58270000Y-97920000D03*
X53190000Y-103000000D03*
X60810000Y-103000000D03*
X53190000Y-108080000D03*
X60810000Y-108080000D03*
%TD*%
D11*
%TO.C,SW19*%
X228190000Y-134620000D03*
X235810000Y-119380000D03*
D12*
X230730000Y-121920000D03*
X233270000Y-121920000D03*
X228190000Y-127000000D03*
X235810000Y-127000000D03*
X228190000Y-132080000D03*
X235810000Y-132080000D03*
%TD*%
D13*
%TO.C,J2*%
X271000000Y-109350000D03*
D14*
X271000000Y-106810000D03*
X271000000Y-104270000D03*
X271000000Y-101730000D03*
X271000000Y-99190000D03*
X271000000Y-96650000D03*
%TD*%
D10*
%TO.C,H4*%
X25000000Y-145000000D03*
%TD*%
D11*
%TO.C,SW11*%
X78190000Y-134620000D03*
X85810000Y-119380000D03*
D12*
X80730000Y-121920000D03*
X83270000Y-121920000D03*
X78190000Y-127000000D03*
X85810000Y-127000000D03*
X78190000Y-132080000D03*
X85810000Y-132080000D03*
%TD*%
D11*
%TO.C,SW7*%
X178190000Y-110620000D03*
X185810000Y-95380000D03*
D12*
X180730000Y-97920000D03*
X183270000Y-97920000D03*
X178190000Y-103000000D03*
X185810000Y-103000000D03*
X178190000Y-108080000D03*
X185810000Y-108080000D03*
%TD*%
D11*
%TO.C,SW16*%
X203190000Y-134620000D03*
X210810000Y-119380000D03*
D12*
X205730000Y-121920000D03*
X208270000Y-121920000D03*
X203190000Y-127000000D03*
X210810000Y-127000000D03*
X203190000Y-132080000D03*
X210810000Y-132080000D03*
%TD*%
D13*
%TO.C,J3*%
X271000000Y-117775000D03*
D14*
X271000000Y-115235000D03*
%TD*%
D10*
%TO.C,H5*%
X145500000Y-145000000D03*
%TD*%
%TO.C,H2*%
X145500000Y-87000000D03*
%TD*%
D11*
%TO.C,SW4*%
X103190000Y-110620000D03*
X110810000Y-95380000D03*
D12*
X105730000Y-97920000D03*
X108270000Y-97920000D03*
X103190000Y-103000000D03*
X110810000Y-103000000D03*
X103190000Y-108080000D03*
X110810000Y-108080000D03*
%TD*%
D11*
%TO.C,SW6*%
X153190000Y-110620000D03*
X160810000Y-95380000D03*
D12*
X155730000Y-97920000D03*
X158270000Y-97920000D03*
X153190000Y-103000000D03*
X160810000Y-103000000D03*
X153190000Y-108080000D03*
X160810000Y-108080000D03*
%TD*%
D11*
%TO.C,SW8*%
X203190000Y-110620000D03*
X210810000Y-95380000D03*
D12*
X205730000Y-97920000D03*
X208270000Y-97920000D03*
X203190000Y-103000000D03*
X210810000Y-103000000D03*
X203190000Y-108080000D03*
X210810000Y-108080000D03*
%TD*%
D11*
%TO.C,SW10*%
X53190000Y-134620000D03*
X60810000Y-119380000D03*
D12*
X55730000Y-121920000D03*
X58270000Y-121920000D03*
X53190000Y-127000000D03*
X60810000Y-127000000D03*
X53190000Y-132080000D03*
X60810000Y-132080000D03*
%TD*%
D11*
%TO.C,SW17*%
X228190000Y-110620000D03*
X235810000Y-95380000D03*
D12*
X230730000Y-97920000D03*
X233270000Y-97920000D03*
X228190000Y-103000000D03*
X235810000Y-103000000D03*
X228190000Y-108080000D03*
X235810000Y-108080000D03*
%TD*%
D11*
%TO.C,SW5*%
X128190000Y-110620000D03*
X135810000Y-95380000D03*
D12*
X130730000Y-97920000D03*
X133270000Y-97920000D03*
X128190000Y-103000000D03*
X135810000Y-103000000D03*
X128190000Y-108080000D03*
X135810000Y-108080000D03*
%TD*%
D10*
%TO.C,H3*%
X270000000Y-87000000D03*
%TD*%
D11*
%TO.C,SW15*%
X178190000Y-134620000D03*
X185810000Y-119380000D03*
D12*
X180730000Y-121920000D03*
X183270000Y-121920000D03*
X178190000Y-127000000D03*
X185810000Y-127000000D03*
X178190000Y-132080000D03*
X185810000Y-132080000D03*
%TD*%
D11*
%TO.C,SW14*%
X153190000Y-134620000D03*
X160810000Y-119380000D03*
D12*
X155730000Y-121920000D03*
X158270000Y-121920000D03*
X153190000Y-127000000D03*
X160810000Y-127000000D03*
X153190000Y-132080000D03*
X160810000Y-132080000D03*
%TD*%
D10*
%TO.C,H6*%
X270000000Y-145000000D03*
%TD*%
D11*
%TO.C,SW12*%
X103190000Y-134620000D03*
X110810000Y-119380000D03*
D12*
X105730000Y-121920000D03*
X108270000Y-121920000D03*
X103190000Y-127000000D03*
X110810000Y-127000000D03*
X103190000Y-132080000D03*
X110810000Y-132080000D03*
%TD*%
D11*
%TO.C,SW13*%
X128190000Y-134620000D03*
X135810000Y-119380000D03*
D12*
X130730000Y-121920000D03*
X133270000Y-121920000D03*
X128190000Y-127000000D03*
X135810000Y-127000000D03*
X128190000Y-132080000D03*
X135810000Y-132080000D03*
%TD*%
D11*
%TO.C,SW1*%
X28190000Y-110620000D03*
X35810000Y-95380000D03*
D12*
X30730000Y-97920000D03*
X33270000Y-97920000D03*
X28190000Y-103000000D03*
X35810000Y-103000000D03*
X28190000Y-108080000D03*
X35810000Y-108080000D03*
%TD*%
D11*
%TO.C,SW9*%
X28190000Y-134620000D03*
X35810000Y-119380000D03*
D12*
X30730000Y-121920000D03*
X33270000Y-121920000D03*
X28190000Y-127000000D03*
X35810000Y-127000000D03*
X28190000Y-132080000D03*
X35810000Y-132080000D03*
%TD*%
D11*
%TO.C,SW18*%
X253190000Y-110620000D03*
X260810000Y-95380000D03*
D12*
X255730000Y-97920000D03*
X258270000Y-97920000D03*
X253190000Y-103000000D03*
X260810000Y-103000000D03*
X253190000Y-108080000D03*
X260810000Y-108080000D03*
%TD*%
D13*
%TO.C,J1*%
X271000000Y-136540000D03*
D14*
X271000000Y-134000000D03*
X271000000Y-131460000D03*
X271000000Y-128920000D03*
X271000000Y-126380000D03*
X271000000Y-123840000D03*
%TD*%
D11*
%TO.C,SW20*%
X253190000Y-134620000D03*
X260810000Y-119380000D03*
D12*
X255730000Y-121920000D03*
X258270000Y-121920000D03*
X253190000Y-127000000D03*
X260810000Y-127000000D03*
X253190000Y-132080000D03*
X260810000Y-132080000D03*
%TD*%
D11*
%TO.C,SW3*%
X78190000Y-110620000D03*
X85810000Y-95380000D03*
D12*
X80730000Y-97920000D03*
X83270000Y-97920000D03*
X78190000Y-103000000D03*
X85810000Y-103000000D03*
X78190000Y-108080000D03*
X85810000Y-108080000D03*
%TD*%
M02*
