M48
; DRILL file {KiCad 8.0.4} date 2024-09-19T19:58:52+0200
; FORMAT={-:-/ absolute / metric / decimal}
; #@! TF.CreationDate,2024-09-19T19:58:52+02:00
; #@! TF.GenerationSoftware,Kicad,Pcbnew,8.0.4
; #@! TF.FileFunction,NonPlated,1,2,NPTH
FMAT,2
METRIC
; #@! TA.AperFunction,NonPlated,NPTH,ComponentDrill
T1C1.118
; #@! TA.AperFunction,NonPlated,NPTH,ComponentDrill
T2C3.200
%
G90
G05
T1
X28.19Y-110.62
X28.19Y-134.62
X35.81Y-95.38
X35.81Y-119.38
X53.19Y-110.62
X53.19Y-134.62
X60.81Y-95.38
X60.81Y-119.38
X78.19Y-110.62
X78.19Y-134.62
X85.81Y-95.38
X85.81Y-119.38
X103.19Y-110.62
X103.19Y-134.62
X110.81Y-95.38
X110.81Y-119.38
X128.19Y-110.62
X128.19Y-134.62
X135.81Y-95.38
X135.81Y-119.38
X153.19Y-110.62
X153.19Y-134.62
X160.81Y-95.38
X160.81Y-119.38
X178.19Y-110.62
X178.19Y-134.62
X185.81Y-95.38
X185.81Y-119.38
X203.19Y-110.62
X203.19Y-134.62
X210.81Y-95.38
X210.81Y-119.38
X228.19Y-110.62
X228.19Y-134.62
X235.81Y-95.38
X235.81Y-119.38
X253.19Y-110.62
X253.19Y-134.62
X260.81Y-95.38
X260.81Y-119.38
T2
X25.0Y-87.0
X25.0Y-145.0
X145.5Y-87.0
X145.5Y-145.0
X270.0Y-87.0
X270.0Y-145.0
M30
