M48
; DRILL file {KiCad 8.0.4} date 2024-09-17T23:37:29+0200
; FORMAT={-:-/ absolute / inch / decimal}
; #@! TF.CreationDate,2024-09-17T23:37:29+02:00
; #@! TF.GenerationSoftware,Kicad,Pcbnew,8.0.4
; #@! TF.FileFunction,NonPlated,1,2,NPTH
FMAT,2
INCH
; #@! TA.AperFunction,NonPlated,NPTH,ComponentDrill
T1C0.0440
; #@! TA.AperFunction,NonPlated,NPTH,ComponentDrill
T2C0.1260
%
G90
G05
T1
X1.1098Y-4.3551
X1.1098Y-5.3
X1.4098Y-3.7551
X1.4098Y-4.7
X2.0941Y-4.3551
X2.0941Y-5.3
X2.3941Y-3.7551
X2.3941Y-4.7
X3.0783Y-4.3551
X3.0783Y-5.3
X3.3783Y-3.7551
X3.3783Y-4.7
X4.0626Y-4.3551
X4.0626Y-5.3
X4.3626Y-3.7551
X4.3626Y-4.7
X5.0469Y-4.3551
X5.0469Y-5.3
X5.3469Y-3.7551
X5.3469Y-4.7
X6.0311Y-4.3551
X6.0311Y-5.3
X6.3311Y-3.7551
X6.3311Y-4.7
X7.0154Y-4.3551
X7.0154Y-5.3
X7.3154Y-3.7551
X7.3154Y-4.7
X7.9996Y-4.3551
X7.9996Y-5.3
X8.2996Y-3.7551
X8.2996Y-4.7
X8.9839Y-4.3551
X8.9839Y-5.3
X9.2839Y-3.7551
X9.2839Y-4.7
X9.9681Y-4.3551
X9.9681Y-5.3
X10.2681Y-3.7551
X10.2681Y-4.7
T2
X0.9843Y-3.4252
X0.9843Y-5.7087
X5.7283Y-3.4252
X5.7283Y-5.7087
X10.6299Y-3.4252
X10.6299Y-5.7087
M30
