%TF.GenerationSoftware,KiCad,Pcbnew,8.0.4*%
%TF.CreationDate,2024-09-17T23:37:22+02:00*%
%TF.ProjectId,Buttons_Flash,42757474-6f6e-4735-9f46-6c6173682e6b,rev?*%
%TF.SameCoordinates,Original*%
%TF.FileFunction,Soldermask,Top*%
%TF.FilePolarity,Negative*%
%FSLAX46Y46*%
G04 Gerber Fmt 4.6, Leading zero omitted, Abs format (unit mm)*
G04 Created by KiCad (PCBNEW 8.0.4) date 2024-09-17 23:37:22*
%MOMM*%
%LPD*%
G01*
G04 APERTURE LIST*
G04 Aperture macros list*
%AMRoundRect*
0 Rectangle with rounded corners*
0 $1 Rounding radius*
0 $2 $3 $4 $5 $6 $7 $8 $9 X,Y pos of 4 corners*
0 Add a 4 corners polygon primitive as box body*
4,1,4,$2,$3,$4,$5,$6,$7,$8,$9,$2,$3,0*
0 Add four circle primitives for the rounded corners*
1,1,$1+$1,$2,$3*
1,1,$1+$1,$4,$5*
1,1,$1+$1,$6,$7*
1,1,$1+$1,$8,$9*
0 Add four rect primitives between the rounded corners*
20,1,$1+$1,$2,$3,$4,$5,0*
20,1,$1+$1,$4,$5,$6,$7,0*
20,1,$1+$1,$6,$7,$8,$9,0*
20,1,$1+$1,$8,$9,$2,$3,0*%
G04 Aperture macros list end*
%ADD10RoundRect,0.243750X0.243750X0.456250X-0.243750X0.456250X-0.243750X-0.456250X0.243750X-0.456250X0*%
%ADD11RoundRect,0.250000X0.450000X-0.262500X0.450000X0.262500X-0.450000X0.262500X-0.450000X-0.262500X0*%
%ADD12C,3.200000*%
%ADD13C,1.117600*%
%ADD14O,1.524000X2.844800*%
%ADD15R,1.700000X1.700000*%
%ADD16O,1.700000X1.700000*%
%ADD17RoundRect,0.250000X-0.450000X0.262500X-0.450000X-0.262500X0.450000X-0.262500X0.450000X0.262500X0*%
%ADD18RoundRect,0.250000X0.475000X-0.250000X0.475000X0.250000X-0.475000X0.250000X-0.475000X-0.250000X0*%
%ADD19RoundRect,0.150000X-0.150000X0.725000X-0.150000X-0.725000X0.150000X-0.725000X0.150000X0.725000X0*%
%ADD20RoundRect,0.250000X0.250000X0.475000X-0.250000X0.475000X-0.250000X-0.475000X0.250000X-0.475000X0*%
%ADD21RoundRect,0.250000X0.262500X0.450000X-0.262500X0.450000X-0.262500X-0.450000X0.262500X-0.450000X0*%
%ADD22RoundRect,0.243750X-0.456250X0.243750X-0.456250X-0.243750X0.456250X-0.243750X0.456250X0.243750X0*%
%ADD23RoundRect,0.150000X0.150000X-0.725000X0.150000X0.725000X-0.150000X0.725000X-0.150000X-0.725000X0*%
%ADD24RoundRect,0.250000X-0.250000X-0.475000X0.250000X-0.475000X0.250000X0.475000X-0.250000X0.475000X0*%
G04 APERTURE END LIST*
D10*
%TO.C,D12*%
X116437500Y-127000000D03*
X114562500Y-127000000D03*
%TD*%
D11*
%TO.C,R19*%
X224000000Y-119412500D03*
X224000000Y-117587500D03*
%TD*%
D12*
%TO.C,H1*%
X25000000Y-87000000D03*
%TD*%
D13*
%TO.C,SW2*%
X53190000Y-110620000D03*
X60810000Y-95380000D03*
D14*
X55730000Y-97920000D03*
X58270000Y-97920000D03*
X53190000Y-103000000D03*
X60810000Y-103000000D03*
X53190000Y-108080000D03*
X60810000Y-108080000D03*
%TD*%
D13*
%TO.C,SW19*%
X228190000Y-134620000D03*
X235810000Y-119380000D03*
D14*
X230730000Y-121920000D03*
X233270000Y-121920000D03*
X228190000Y-127000000D03*
X235810000Y-127000000D03*
X228190000Y-132080000D03*
X235810000Y-132080000D03*
%TD*%
D10*
%TO.C,D13*%
X141437500Y-127000000D03*
X139562500Y-127000000D03*
%TD*%
D15*
%TO.C,J2*%
X271000000Y-109350000D03*
D16*
X271000000Y-106810000D03*
X271000000Y-104270000D03*
X271000000Y-101730000D03*
X271000000Y-99190000D03*
X271000000Y-96650000D03*
%TD*%
D17*
%TO.C,R27*%
X97500000Y-137087500D03*
X97500000Y-138912500D03*
%TD*%
D11*
%TO.C,R7*%
X174000000Y-95412500D03*
X174000000Y-93587500D03*
%TD*%
D12*
%TO.C,H4*%
X25000000Y-145000000D03*
%TD*%
D18*
%TO.C,C5*%
X267000000Y-117450000D03*
X267000000Y-115550000D03*
%TD*%
D13*
%TO.C,SW11*%
X78190000Y-134620000D03*
X85810000Y-119380000D03*
D14*
X80730000Y-121920000D03*
X83270000Y-121920000D03*
X78190000Y-127000000D03*
X85810000Y-127000000D03*
X78190000Y-132080000D03*
X85810000Y-132080000D03*
%TD*%
D11*
%TO.C,R1*%
X24000000Y-95412500D03*
X24000000Y-93587500D03*
%TD*%
D13*
%TO.C,SW7*%
X178190000Y-110620000D03*
X185810000Y-95380000D03*
D14*
X180730000Y-97920000D03*
X183270000Y-97920000D03*
X178190000Y-103000000D03*
X185810000Y-103000000D03*
X178190000Y-108080000D03*
X185810000Y-108080000D03*
%TD*%
D13*
%TO.C,SW16*%
X203190000Y-134620000D03*
X210810000Y-119380000D03*
D14*
X205730000Y-121920000D03*
X208270000Y-121920000D03*
X203190000Y-127000000D03*
X210810000Y-127000000D03*
X203190000Y-132080000D03*
X210810000Y-132080000D03*
%TD*%
D10*
%TO.C,D10*%
X66437500Y-127000000D03*
X64562500Y-127000000D03*
%TD*%
D11*
%TO.C,R8*%
X199000000Y-95412500D03*
X199000000Y-93587500D03*
%TD*%
D15*
%TO.C,J3*%
X271000000Y-117775000D03*
D16*
X271000000Y-115235000D03*
%TD*%
D11*
%TO.C,R12*%
X99000000Y-119412500D03*
X99000000Y-117587500D03*
%TD*%
D12*
%TO.C,H5*%
X145500000Y-145000000D03*
%TD*%
D19*
%TO.C,U4*%
X238945000Y-139425000D03*
X237675000Y-139425000D03*
X236405000Y-139425000D03*
X235135000Y-139425000D03*
X233865000Y-139425000D03*
X232595000Y-139425000D03*
X231325000Y-139425000D03*
X230055000Y-139425000D03*
X230055000Y-144575000D03*
X231325000Y-144575000D03*
X232595000Y-144575000D03*
X233865000Y-144575000D03*
X235135000Y-144575000D03*
X236405000Y-144575000D03*
X237675000Y-144575000D03*
X238945000Y-144575000D03*
%TD*%
D10*
%TO.C,D2*%
X66500000Y-103000000D03*
X64625000Y-103000000D03*
%TD*%
D12*
%TO.C,H2*%
X145500000Y-87000000D03*
%TD*%
D17*
%TO.C,R25*%
X49000000Y-139675000D03*
X49000000Y-141500000D03*
%TD*%
D10*
%TO.C,D7*%
X191437500Y-103000000D03*
X189562500Y-103000000D03*
%TD*%
D13*
%TO.C,SW4*%
X103190000Y-110620000D03*
X110810000Y-95380000D03*
D14*
X105730000Y-97920000D03*
X108270000Y-97920000D03*
X103190000Y-103000000D03*
X110810000Y-103000000D03*
X103190000Y-108080000D03*
X110810000Y-108080000D03*
%TD*%
D10*
%TO.C,D16*%
X216437500Y-127000000D03*
X214562500Y-127000000D03*
%TD*%
D13*
%TO.C,SW6*%
X153190000Y-110620000D03*
X160810000Y-95380000D03*
D14*
X155730000Y-97920000D03*
X158270000Y-97920000D03*
X153190000Y-103000000D03*
X160810000Y-103000000D03*
X153190000Y-108080000D03*
X160810000Y-108080000D03*
%TD*%
D13*
%TO.C,SW8*%
X203190000Y-110620000D03*
X210810000Y-95380000D03*
D14*
X205730000Y-97920000D03*
X208270000Y-97920000D03*
X203190000Y-103000000D03*
X210810000Y-103000000D03*
X203190000Y-108080000D03*
X210810000Y-108080000D03*
%TD*%
D11*
%TO.C,R17*%
X224000000Y-97500000D03*
X224000000Y-95675000D03*
%TD*%
D20*
%TO.C,C2*%
X246500000Y-86000000D03*
X244600000Y-86000000D03*
%TD*%
D13*
%TO.C,SW10*%
X53190000Y-134620000D03*
X60810000Y-119380000D03*
D14*
X55730000Y-121920000D03*
X58270000Y-121920000D03*
X53190000Y-127000000D03*
X60810000Y-127000000D03*
X53190000Y-132080000D03*
X60810000Y-132080000D03*
%TD*%
D13*
%TO.C,SW17*%
X228190000Y-110620000D03*
X235810000Y-95380000D03*
D14*
X230730000Y-97920000D03*
X233270000Y-97920000D03*
X228190000Y-103000000D03*
X235810000Y-103000000D03*
X228190000Y-108080000D03*
X235810000Y-108080000D03*
%TD*%
D11*
%TO.C,R13*%
X124000000Y-119412500D03*
X124000000Y-117587500D03*
%TD*%
D21*
%TO.C,R32*%
X218412500Y-131000000D03*
X216587500Y-131000000D03*
%TD*%
D22*
%TO.C,D18*%
X265000000Y-101125000D03*
X265000000Y-103000000D03*
%TD*%
D23*
%TO.C,U2*%
X248609999Y-91425000D03*
X249879999Y-91425000D03*
X251149999Y-91425000D03*
X252419999Y-91425000D03*
X253689999Y-91425000D03*
X254959999Y-91425000D03*
X256229999Y-91425000D03*
X257499999Y-91425000D03*
X257499999Y-86275000D03*
X256229999Y-86275000D03*
X254959999Y-86275000D03*
X253689999Y-86275000D03*
X252419999Y-86275000D03*
X251149999Y-86275000D03*
X249879999Y-86275000D03*
X248609999Y-86275000D03*
%TD*%
D13*
%TO.C,SW5*%
X128190000Y-110620000D03*
X135810000Y-95380000D03*
D14*
X130730000Y-97920000D03*
X133270000Y-97920000D03*
X128190000Y-103000000D03*
X135810000Y-103000000D03*
X128190000Y-108080000D03*
X135810000Y-108080000D03*
%TD*%
D10*
%TO.C,D9*%
X41437500Y-127000000D03*
X39562500Y-127000000D03*
%TD*%
D12*
%TO.C,H3*%
X270000000Y-87000000D03*
%TD*%
D11*
%TO.C,R5*%
X124000000Y-95412500D03*
X124000000Y-93587500D03*
%TD*%
D17*
%TO.C,R26*%
X74500000Y-138175000D03*
X74500000Y-140000000D03*
%TD*%
D11*
%TO.C,R15*%
X174000000Y-119412500D03*
X174000000Y-117587500D03*
%TD*%
%TO.C,R10*%
X49000000Y-119412500D03*
X49000000Y-117587500D03*
%TD*%
D13*
%TO.C,SW15*%
X178190000Y-134620000D03*
X185810000Y-119380000D03*
D14*
X180730000Y-121920000D03*
X183270000Y-121920000D03*
X178190000Y-127000000D03*
X185810000Y-127000000D03*
X178190000Y-132080000D03*
X185810000Y-132080000D03*
%TD*%
D13*
%TO.C,SW14*%
X153190000Y-134620000D03*
X160810000Y-119380000D03*
D14*
X155730000Y-121920000D03*
X158270000Y-121920000D03*
X153190000Y-127000000D03*
X160810000Y-127000000D03*
X153190000Y-132080000D03*
X160810000Y-132080000D03*
%TD*%
D10*
%TO.C,D17*%
X241437500Y-103000000D03*
X239562500Y-103000000D03*
%TD*%
%TO.C,D4*%
X116437500Y-103000000D03*
X114562500Y-103000000D03*
%TD*%
D19*
%TO.C,U3*%
X253445000Y-139425000D03*
X252175000Y-139425000D03*
X250905000Y-139425000D03*
X249635000Y-139425000D03*
X248365000Y-139425000D03*
X247095000Y-139425000D03*
X245825000Y-139425000D03*
X244555000Y-139425000D03*
X244555000Y-144575000D03*
X245825000Y-144575000D03*
X247095000Y-144575000D03*
X248365000Y-144575000D03*
X249635000Y-144575000D03*
X250905000Y-144575000D03*
X252175000Y-144575000D03*
X253445000Y-144575000D03*
%TD*%
D17*
%TO.C,R30*%
X174500000Y-138587500D03*
X174500000Y-140412500D03*
%TD*%
D12*
%TO.C,H6*%
X270000000Y-145000000D03*
%TD*%
D13*
%TO.C,SW12*%
X103190000Y-134620000D03*
X110810000Y-119380000D03*
D14*
X105730000Y-121920000D03*
X108270000Y-121920000D03*
X103190000Y-127000000D03*
X110810000Y-127000000D03*
X103190000Y-132080000D03*
X110810000Y-132080000D03*
%TD*%
D17*
%TO.C,R28*%
X124000000Y-136175000D03*
X124000000Y-138000000D03*
%TD*%
%TO.C,R31*%
X197500000Y-137675000D03*
X197500000Y-139500000D03*
%TD*%
D10*
%TO.C,D11*%
X91437500Y-127000000D03*
X89562500Y-127000000D03*
%TD*%
D13*
%TO.C,SW13*%
X128190000Y-134620000D03*
X135810000Y-119380000D03*
D14*
X130730000Y-121920000D03*
X133270000Y-121920000D03*
X128190000Y-127000000D03*
X135810000Y-127000000D03*
X128190000Y-132080000D03*
X135810000Y-132080000D03*
%TD*%
D24*
%TO.C,C3*%
X255550000Y-144500000D03*
X257450000Y-144500000D03*
%TD*%
D13*
%TO.C,SW1*%
X28190000Y-110620000D03*
X35810000Y-95380000D03*
D14*
X30730000Y-97920000D03*
X33270000Y-97920000D03*
X28190000Y-103000000D03*
X35810000Y-103000000D03*
X28190000Y-108080000D03*
X35810000Y-108080000D03*
%TD*%
D11*
%TO.C,R11*%
X74000000Y-119412500D03*
X74000000Y-117587500D03*
%TD*%
D13*
%TO.C,SW9*%
X28190000Y-134620000D03*
X35810000Y-119380000D03*
D14*
X30730000Y-121920000D03*
X33270000Y-121920000D03*
X28190000Y-127000000D03*
X35810000Y-127000000D03*
X28190000Y-132080000D03*
X35810000Y-132080000D03*
%TD*%
D17*
%TO.C,R29*%
X162000000Y-139587500D03*
X162000000Y-141412500D03*
%TD*%
D23*
%TO.C,U1*%
X232055000Y-91575000D03*
X233325000Y-91575000D03*
X234595000Y-91575000D03*
X235865000Y-91575000D03*
X237135000Y-91575000D03*
X238405000Y-91575000D03*
X239675000Y-91575000D03*
X240945000Y-91575000D03*
X240945000Y-86425000D03*
X239675000Y-86425000D03*
X238405000Y-86425000D03*
X237135000Y-86425000D03*
X235865000Y-86425000D03*
X234595000Y-86425000D03*
X233325000Y-86425000D03*
X232055000Y-86425000D03*
%TD*%
D10*
%TO.C,D14*%
X166437500Y-127000000D03*
X164562500Y-127000000D03*
%TD*%
D11*
%TO.C,R14*%
X149000000Y-119412500D03*
X149000000Y-117587500D03*
%TD*%
%TO.C,R16*%
X199000000Y-119412500D03*
X199000000Y-117587500D03*
%TD*%
%TO.C,R6*%
X149000000Y-97000000D03*
X149000000Y-95175000D03*
%TD*%
D22*
%TO.C,D20*%
X265000000Y-124682500D03*
X265000000Y-126557500D03*
%TD*%
D11*
%TO.C,R3*%
X74000000Y-95412500D03*
X74000000Y-93587500D03*
%TD*%
D13*
%TO.C,SW18*%
X253190000Y-110620000D03*
X260810000Y-95380000D03*
D14*
X255730000Y-97920000D03*
X258270000Y-97920000D03*
X253190000Y-103000000D03*
X260810000Y-103000000D03*
X253190000Y-108080000D03*
X260810000Y-108080000D03*
%TD*%
D10*
%TO.C,D1*%
X41437500Y-103000000D03*
X39562500Y-103000000D03*
%TD*%
D15*
%TO.C,J1*%
X271000000Y-136540000D03*
D16*
X271000000Y-134000000D03*
X271000000Y-131460000D03*
X271000000Y-128920000D03*
X271000000Y-126380000D03*
X271000000Y-123840000D03*
%TD*%
D10*
%TO.C,D6*%
X166437500Y-103000000D03*
X164562500Y-103000000D03*
%TD*%
D13*
%TO.C,SW20*%
X253190000Y-134620000D03*
X260810000Y-119380000D03*
D14*
X255730000Y-121920000D03*
X258270000Y-121920000D03*
X253190000Y-127000000D03*
X260810000Y-127000000D03*
X253190000Y-132080000D03*
X260810000Y-132080000D03*
%TD*%
D11*
%TO.C,R9*%
X24000000Y-119412500D03*
X24000000Y-117587500D03*
%TD*%
%TO.C,R4*%
X99000000Y-95412500D03*
X99000000Y-93587500D03*
%TD*%
%TO.C,R2*%
X49000000Y-95412500D03*
X49000000Y-93587500D03*
%TD*%
D20*
%TO.C,C1*%
X230000000Y-86000000D03*
X228100000Y-86000000D03*
%TD*%
D10*
%TO.C,D19*%
X241437500Y-127000000D03*
X239562500Y-127000000D03*
%TD*%
D13*
%TO.C,SW3*%
X78190000Y-110620000D03*
X85810000Y-95380000D03*
D14*
X80730000Y-97920000D03*
X83270000Y-97920000D03*
X78190000Y-103000000D03*
X85810000Y-103000000D03*
X78190000Y-108080000D03*
X85810000Y-108080000D03*
%TD*%
D10*
%TO.C,D3*%
X91437500Y-103000000D03*
X89562500Y-103000000D03*
%TD*%
%TO.C,D15*%
X191437500Y-127000000D03*
X189562500Y-127000000D03*
%TD*%
D11*
%TO.C,R20*%
X249000000Y-119412500D03*
X249000000Y-117587500D03*
%TD*%
D10*
%TO.C,D5*%
X141437500Y-103000000D03*
X139562500Y-103000000D03*
%TD*%
D18*
%TO.C,C4*%
X241000000Y-144450000D03*
X241000000Y-142550000D03*
%TD*%
D10*
%TO.C,D8*%
X216437500Y-103000000D03*
X214562500Y-103000000D03*
%TD*%
D11*
%TO.C,R18*%
X249000000Y-97412500D03*
X249000000Y-95587500D03*
%TD*%
M02*
