M48
; DRILL file {KiCad 8.0.4} date 2024-09-19T19:58:52+0200
; FORMAT={-:-/ absolute / metric / decimal}
; #@! TF.CreationDate,2024-09-19T19:58:52+02:00
; #@! TF.GenerationSoftware,Kicad,Pcbnew,8.0.4
; #@! TF.FileFunction,Plated,1,2,PTH
FMAT,2
METRIC
; #@! TA.AperFunction,Plated,PTH,ViaDrill
T1C0.300
; #@! TA.AperFunction,Plated,PTH,ComponentDrill
T2C0.813
; #@! TA.AperFunction,Plated,PTH,ComponentDrill
T3C1.000
%
G90
G05
T1
X26.0Y-114.5
X26.5Y-141.0
X30.0Y-86.5
X35.0Y-89.0
X41.438Y-119.562
X41.5Y-107.5
X43.0Y-99.0
X44.5Y-122.0
X47.0Y-90.0
X49.0Y-138.588
X59.5Y-92.0
X66.438Y-119.562
X66.5Y-107.5
X68.5Y-92.5
X69.5Y-122.5
X70.0Y-101.0
X71.0Y-114.0
X74.5Y-137.175
X84.0Y-90.5
X91.438Y-119.562
X91.5Y-107.5
X94.5Y-121.5
X95.5Y-92.5
X96.0Y-146.5
X97.5Y-136.0
X98.0Y-101.0
X104.5Y-88.0
X110.0Y-89.5
X112.0Y-115.0
X116.438Y-119.562
X116.5Y-107.5
X120.0Y-122.0
X121.0Y-92.5
X121.5Y-99.0
X124.0Y-135.088
X135.0Y-84.5
X135.5Y-88.0
X141.438Y-119.562
X141.5Y-107.5
X144.5Y-122.0
X147.5Y-101.5
X150.0Y-113.5
X154.5Y-88.5
X155.5Y-84.5
X160.0Y-87.5
X162.0Y-138.5
X166.438Y-119.562
X166.5Y-107.5
X169.5Y-122.5
X171.5Y-101.0
X174.5Y-137.5
X181.5Y-147.5
X184.5Y-92.5
X191.438Y-119.562
X191.5Y-107.5
X194.5Y-122.5
X196.0Y-113.5
X197.0Y-101.0
X197.5Y-136.5
X199.0Y-132.0
X205.5Y-95.5
X207.5Y-94.0
X213.0Y-94.5
X216.5Y-110.5
X216.5Y-116.5
X216.5Y-134.5
X217.5Y-90.5
X218.0Y-129.5
X219.0Y-114.5
X220.0Y-89.5
X220.0Y-106.0
X220.0Y-138.5
X221.0Y-110.5
X221.0Y-133.0
X221.0Y-145.5
X222.5Y-113.0
X223.5Y-86.5
X223.5Y-134.5
X223.5Y-144.5
X225.0Y-143.5
X225.5Y-104.0
X225.5Y-133.5
X226.0Y-100.0
X226.5Y-86.0
X226.5Y-116.5
X226.5Y-142.5
X228.0Y-83.5
X228.5Y-139.0
X230.0Y-91.575
X230.0Y-149.0
X231.0Y-110.5
X232.0Y-119.0
X232.5Y-134.5
X233.5Y-131.5
X234.5Y-114.5
X236.0Y-85.0
X238.0Y-138.0
X238.0Y-143.0
X238.5Y-105.5
X239.0Y-96.0
X239.0Y-138.0
X240.0Y-118.5
X241.0Y-93.0
X241.0Y-141.5
X242.5Y-85.5
X242.5Y-87.0
X242.5Y-92.5
X243.0Y-89.0
X243.0Y-95.0
X243.0Y-98.0
X243.0Y-108.5
X243.5Y-86.0
X243.5Y-91.5
X243.5Y-139.0
X244.5Y-90.5
X245.0Y-95.5
X245.0Y-126.0
X245.5Y-88.0
X246.5Y-103.5
X247.0Y-146.5
X248.5Y-113.5
X249.5Y-134.0
X249.5Y-146.0
X251.5Y-105.5
X252.0Y-96.0
X252.175Y-146.325
X252.5Y-87.5
X254.0Y-94.5
X254.0Y-117.5
X256.0Y-138.0
X256.0Y-146.5
X256.5Y-137.0
X257.5Y-102.0
X260.0Y-91.5
X261.0Y-86.5
X261.0Y-123.5
X261.0Y-146.0
X261.5Y-98.0
X262.5Y-100.5
X263.5Y-145.0
X264.5Y-115.5
X265.0Y-96.0
X265.0Y-147.5
X265.5Y-84.5
X267.0Y-113.5
X267.5Y-122.5
X273.0Y-90.5
T2
X28.19Y-103.0
X28.19Y-108.08
X28.19Y-127.0
X28.19Y-132.08
X30.73Y-97.92
X30.73Y-121.92
X33.27Y-97.92
X33.27Y-121.92
X35.81Y-103.0
X35.81Y-108.08
X35.81Y-127.0
X35.81Y-132.08
X53.19Y-103.0
X53.19Y-108.08
X53.19Y-127.0
X53.19Y-132.08
X55.73Y-97.92
X55.73Y-121.92
X58.27Y-97.92
X58.27Y-121.92
X60.81Y-103.0
X60.81Y-108.08
X60.81Y-127.0
X60.81Y-132.08
X78.19Y-103.0
X78.19Y-108.08
X78.19Y-127.0
X78.19Y-132.08
X80.73Y-97.92
X80.73Y-121.92
X83.27Y-97.92
X83.27Y-121.92
X85.81Y-103.0
X85.81Y-108.08
X85.81Y-127.0
X85.81Y-132.08
X103.19Y-103.0
X103.19Y-108.08
X103.19Y-127.0
X103.19Y-132.08
X105.73Y-97.92
X105.73Y-121.92
X108.27Y-97.92
X108.27Y-121.92
X110.81Y-103.0
X110.81Y-108.08
X110.81Y-127.0
X110.81Y-132.08
X128.19Y-103.0
X128.19Y-108.08
X128.19Y-127.0
X128.19Y-132.08
X130.73Y-97.92
X130.73Y-121.92
X133.27Y-97.92
X133.27Y-121.92
X135.81Y-103.0
X135.81Y-108.08
X135.81Y-127.0
X135.81Y-132.08
X153.19Y-103.0
X153.19Y-108.08
X153.19Y-127.0
X153.19Y-132.08
X155.73Y-97.92
X155.73Y-121.92
X158.27Y-97.92
X158.27Y-121.92
X160.81Y-103.0
X160.81Y-108.08
X160.81Y-127.0
X160.81Y-132.08
X178.19Y-103.0
X178.19Y-108.08
X178.19Y-127.0
X178.19Y-132.08
X180.73Y-97.92
X180.73Y-121.92
X183.27Y-97.92
X183.27Y-121.92
X185.81Y-103.0
X185.81Y-108.08
X185.81Y-127.0
X185.81Y-132.08
X203.19Y-103.0
X203.19Y-108.08
X203.19Y-127.0
X203.19Y-132.08
X205.73Y-97.92
X205.73Y-121.92
X208.27Y-97.92
X208.27Y-121.92
X210.81Y-103.0
X210.81Y-108.08
X210.81Y-127.0
X210.81Y-132.08
X228.19Y-103.0
X228.19Y-108.08
X228.19Y-127.0
X228.19Y-132.08
X230.73Y-97.92
X230.73Y-121.92
X233.27Y-97.92
X233.27Y-121.92
X235.81Y-103.0
X235.81Y-108.08
X235.81Y-127.0
X235.81Y-132.08
X253.19Y-103.0
X253.19Y-108.08
X253.19Y-127.0
X253.19Y-132.08
X255.73Y-97.92
X255.73Y-121.92
X258.27Y-97.92
X258.27Y-121.92
X260.81Y-103.0
X260.81Y-108.08
X260.81Y-127.0
X260.81Y-132.08
T3
X271.0Y-96.65
X271.0Y-99.19
X271.0Y-101.73
X271.0Y-104.27
X271.0Y-106.81
X271.0Y-109.35
X271.0Y-115.235
X271.0Y-117.775
X271.0Y-123.84
X271.0Y-126.38
X271.0Y-128.92
X271.0Y-131.46
X271.0Y-134.0
X271.0Y-136.54
M30
