%TF.GenerationSoftware,KiCad,Pcbnew,8.0.4*%
%TF.CreationDate,2024-09-17T23:37:22+02:00*%
%TF.ProjectId,Buttons_Flash,42757474-6f6e-4735-9f46-6c6173682e6b,rev?*%
%TF.SameCoordinates,Original*%
%TF.FileFunction,Legend,Top*%
%TF.FilePolarity,Positive*%
%FSLAX46Y46*%
G04 Gerber Fmt 4.6, Leading zero omitted, Abs format (unit mm)*
G04 Created by KiCad (PCBNEW 8.0.4) date 2024-09-17 23:37:22*
%MOMM*%
%LPD*%
G01*
G04 APERTURE LIST*
%ADD10C,0.100000*%
%ADD11C,0.150000*%
%ADD12C,0.120000*%
%ADD13C,0.152400*%
G04 APERTURE END LIST*
D10*
X268872419Y-109172306D02*
X268872419Y-109743734D01*
X268872419Y-109458020D02*
X267872419Y-109458020D01*
X267872419Y-109458020D02*
X268015276Y-109553258D01*
X268015276Y-109553258D02*
X268110514Y-109648496D01*
X268110514Y-109648496D02*
X268158133Y-109743734D01*
X30375312Y-143557292D02*
X30327693Y-143604912D01*
X30327693Y-143604912D02*
X30184836Y-143652531D01*
X30184836Y-143652531D02*
X30089598Y-143652531D01*
X30089598Y-143652531D02*
X29946741Y-143604912D01*
X29946741Y-143604912D02*
X29851503Y-143509673D01*
X29851503Y-143509673D02*
X29803884Y-143414435D01*
X29803884Y-143414435D02*
X29756265Y-143223959D01*
X29756265Y-143223959D02*
X29756265Y-143081102D01*
X29756265Y-143081102D02*
X29803884Y-142890626D01*
X29803884Y-142890626D02*
X29851503Y-142795388D01*
X29851503Y-142795388D02*
X29946741Y-142700150D01*
X29946741Y-142700150D02*
X30089598Y-142652531D01*
X30089598Y-142652531D02*
X30184836Y-142652531D01*
X30184836Y-142652531D02*
X30327693Y-142700150D01*
X30327693Y-142700150D02*
X30375312Y-142747769D01*
X30946741Y-143652531D02*
X30851503Y-143604912D01*
X30851503Y-143604912D02*
X30803884Y-143557292D01*
X30803884Y-143557292D02*
X30756265Y-143462054D01*
X30756265Y-143462054D02*
X30756265Y-143176340D01*
X30756265Y-143176340D02*
X30803884Y-143081102D01*
X30803884Y-143081102D02*
X30851503Y-143033483D01*
X30851503Y-143033483D02*
X30946741Y-142985864D01*
X30946741Y-142985864D02*
X31089598Y-142985864D01*
X31089598Y-142985864D02*
X31184836Y-143033483D01*
X31184836Y-143033483D02*
X31232455Y-143081102D01*
X31232455Y-143081102D02*
X31280074Y-143176340D01*
X31280074Y-143176340D02*
X31280074Y-143462054D01*
X31280074Y-143462054D02*
X31232455Y-143557292D01*
X31232455Y-143557292D02*
X31184836Y-143604912D01*
X31184836Y-143604912D02*
X31089598Y-143652531D01*
X31089598Y-143652531D02*
X30946741Y-143652531D01*
X31708646Y-142985864D02*
X31708646Y-143652531D01*
X31708646Y-143081102D02*
X31756265Y-143033483D01*
X31756265Y-143033483D02*
X31851503Y-142985864D01*
X31851503Y-142985864D02*
X31994360Y-142985864D01*
X31994360Y-142985864D02*
X32089598Y-143033483D01*
X32089598Y-143033483D02*
X32137217Y-143128721D01*
X32137217Y-143128721D02*
X32137217Y-143652531D01*
X32565789Y-143604912D02*
X32661027Y-143652531D01*
X32661027Y-143652531D02*
X32851503Y-143652531D01*
X32851503Y-143652531D02*
X32946741Y-143604912D01*
X32946741Y-143604912D02*
X32994360Y-143509673D01*
X32994360Y-143509673D02*
X32994360Y-143462054D01*
X32994360Y-143462054D02*
X32946741Y-143366816D01*
X32946741Y-143366816D02*
X32851503Y-143319197D01*
X32851503Y-143319197D02*
X32708646Y-143319197D01*
X32708646Y-143319197D02*
X32613408Y-143271578D01*
X32613408Y-143271578D02*
X32565789Y-143176340D01*
X32565789Y-143176340D02*
X32565789Y-143128721D01*
X32565789Y-143128721D02*
X32613408Y-143033483D01*
X32613408Y-143033483D02*
X32708646Y-142985864D01*
X32708646Y-142985864D02*
X32851503Y-142985864D01*
X32851503Y-142985864D02*
X32946741Y-143033483D01*
X33565789Y-143652531D02*
X33470551Y-143604912D01*
X33470551Y-143604912D02*
X33422932Y-143557292D01*
X33422932Y-143557292D02*
X33375313Y-143462054D01*
X33375313Y-143462054D02*
X33375313Y-143176340D01*
X33375313Y-143176340D02*
X33422932Y-143081102D01*
X33422932Y-143081102D02*
X33470551Y-143033483D01*
X33470551Y-143033483D02*
X33565789Y-142985864D01*
X33565789Y-142985864D02*
X33708646Y-142985864D01*
X33708646Y-142985864D02*
X33803884Y-143033483D01*
X33803884Y-143033483D02*
X33851503Y-143081102D01*
X33851503Y-143081102D02*
X33899122Y-143176340D01*
X33899122Y-143176340D02*
X33899122Y-143462054D01*
X33899122Y-143462054D02*
X33851503Y-143557292D01*
X33851503Y-143557292D02*
X33803884Y-143604912D01*
X33803884Y-143604912D02*
X33708646Y-143652531D01*
X33708646Y-143652531D02*
X33565789Y-143652531D01*
X34470551Y-143652531D02*
X34375313Y-143604912D01*
X34375313Y-143604912D02*
X34327694Y-143509673D01*
X34327694Y-143509673D02*
X34327694Y-142652531D01*
X35232456Y-143604912D02*
X35137218Y-143652531D01*
X35137218Y-143652531D02*
X34946742Y-143652531D01*
X34946742Y-143652531D02*
X34851504Y-143604912D01*
X34851504Y-143604912D02*
X34803885Y-143509673D01*
X34803885Y-143509673D02*
X34803885Y-143128721D01*
X34803885Y-143128721D02*
X34851504Y-143033483D01*
X34851504Y-143033483D02*
X34946742Y-142985864D01*
X34946742Y-142985864D02*
X35137218Y-142985864D01*
X35137218Y-142985864D02*
X35232456Y-143033483D01*
X35232456Y-143033483D02*
X35280075Y-143128721D01*
X35280075Y-143128721D02*
X35280075Y-143223959D01*
X35280075Y-143223959D02*
X34803885Y-143319197D01*
X36375314Y-142985864D02*
X36613409Y-143652531D01*
X36613409Y-143652531D02*
X36851504Y-142985864D01*
X37184838Y-142747769D02*
X37232457Y-142700150D01*
X37232457Y-142700150D02*
X37327695Y-142652531D01*
X37327695Y-142652531D02*
X37565790Y-142652531D01*
X37565790Y-142652531D02*
X37661028Y-142700150D01*
X37661028Y-142700150D02*
X37708647Y-142747769D01*
X37708647Y-142747769D02*
X37756266Y-142843007D01*
X37756266Y-142843007D02*
X37756266Y-142938245D01*
X37756266Y-142938245D02*
X37708647Y-143081102D01*
X37708647Y-143081102D02*
X37137219Y-143652531D01*
X37137219Y-143652531D02*
X37756266Y-143652531D01*
X38184838Y-143557292D02*
X38232457Y-143604912D01*
X38232457Y-143604912D02*
X38184838Y-143652531D01*
X38184838Y-143652531D02*
X38137219Y-143604912D01*
X38137219Y-143604912D02*
X38184838Y-143557292D01*
X38184838Y-143557292D02*
X38184838Y-143652531D01*
X38851504Y-142652531D02*
X38946742Y-142652531D01*
X38946742Y-142652531D02*
X39041980Y-142700150D01*
X39041980Y-142700150D02*
X39089599Y-142747769D01*
X39089599Y-142747769D02*
X39137218Y-142843007D01*
X39137218Y-142843007D02*
X39184837Y-143033483D01*
X39184837Y-143033483D02*
X39184837Y-143271578D01*
X39184837Y-143271578D02*
X39137218Y-143462054D01*
X39137218Y-143462054D02*
X39089599Y-143557292D01*
X39089599Y-143557292D02*
X39041980Y-143604912D01*
X39041980Y-143604912D02*
X38946742Y-143652531D01*
X38946742Y-143652531D02*
X38851504Y-143652531D01*
X38851504Y-143652531D02*
X38756266Y-143604912D01*
X38756266Y-143604912D02*
X38708647Y-143557292D01*
X38708647Y-143557292D02*
X38661028Y-143462054D01*
X38661028Y-143462054D02*
X38613409Y-143271578D01*
X38613409Y-143271578D02*
X38613409Y-143033483D01*
X38613409Y-143033483D02*
X38661028Y-142843007D01*
X38661028Y-142843007D02*
X38708647Y-142747769D01*
X38708647Y-142747769D02*
X38756266Y-142700150D01*
X38756266Y-142700150D02*
X38851504Y-142652531D01*
X30137217Y-144738665D02*
X29803884Y-144738665D01*
X29803884Y-145262475D02*
X29803884Y-144262475D01*
X29803884Y-144262475D02*
X30280074Y-144262475D01*
X30803884Y-145262475D02*
X30708646Y-145214856D01*
X30708646Y-145214856D02*
X30661027Y-145119617D01*
X30661027Y-145119617D02*
X30661027Y-144262475D01*
X31613408Y-145262475D02*
X31613408Y-144738665D01*
X31613408Y-144738665D02*
X31565789Y-144643427D01*
X31565789Y-144643427D02*
X31470551Y-144595808D01*
X31470551Y-144595808D02*
X31280075Y-144595808D01*
X31280075Y-144595808D02*
X31184837Y-144643427D01*
X31613408Y-145214856D02*
X31518170Y-145262475D01*
X31518170Y-145262475D02*
X31280075Y-145262475D01*
X31280075Y-145262475D02*
X31184837Y-145214856D01*
X31184837Y-145214856D02*
X31137218Y-145119617D01*
X31137218Y-145119617D02*
X31137218Y-145024379D01*
X31137218Y-145024379D02*
X31184837Y-144929141D01*
X31184837Y-144929141D02*
X31280075Y-144881522D01*
X31280075Y-144881522D02*
X31518170Y-144881522D01*
X31518170Y-144881522D02*
X31613408Y-144833903D01*
X32041980Y-145214856D02*
X32137218Y-145262475D01*
X32137218Y-145262475D02*
X32327694Y-145262475D01*
X32327694Y-145262475D02*
X32422932Y-145214856D01*
X32422932Y-145214856D02*
X32470551Y-145119617D01*
X32470551Y-145119617D02*
X32470551Y-145071998D01*
X32470551Y-145071998D02*
X32422932Y-144976760D01*
X32422932Y-144976760D02*
X32327694Y-144929141D01*
X32327694Y-144929141D02*
X32184837Y-144929141D01*
X32184837Y-144929141D02*
X32089599Y-144881522D01*
X32089599Y-144881522D02*
X32041980Y-144786284D01*
X32041980Y-144786284D02*
X32041980Y-144738665D01*
X32041980Y-144738665D02*
X32089599Y-144643427D01*
X32089599Y-144643427D02*
X32184837Y-144595808D01*
X32184837Y-144595808D02*
X32327694Y-144595808D01*
X32327694Y-144595808D02*
X32422932Y-144643427D01*
X32899123Y-145262475D02*
X32899123Y-144262475D01*
X33327694Y-145262475D02*
X33327694Y-144738665D01*
X33327694Y-144738665D02*
X33280075Y-144643427D01*
X33280075Y-144643427D02*
X33184837Y-144595808D01*
X33184837Y-144595808D02*
X33041980Y-144595808D01*
X33041980Y-144595808D02*
X32946742Y-144643427D01*
X32946742Y-144643427D02*
X32899123Y-144691046D01*
X34899123Y-144738665D02*
X35041980Y-144786284D01*
X35041980Y-144786284D02*
X35089599Y-144833903D01*
X35089599Y-144833903D02*
X35137218Y-144929141D01*
X35137218Y-144929141D02*
X35137218Y-145071998D01*
X35137218Y-145071998D02*
X35089599Y-145167236D01*
X35089599Y-145167236D02*
X35041980Y-145214856D01*
X35041980Y-145214856D02*
X34946742Y-145262475D01*
X34946742Y-145262475D02*
X34565790Y-145262475D01*
X34565790Y-145262475D02*
X34565790Y-144262475D01*
X34565790Y-144262475D02*
X34899123Y-144262475D01*
X34899123Y-144262475D02*
X34994361Y-144310094D01*
X34994361Y-144310094D02*
X35041980Y-144357713D01*
X35041980Y-144357713D02*
X35089599Y-144452951D01*
X35089599Y-144452951D02*
X35089599Y-144548189D01*
X35089599Y-144548189D02*
X35041980Y-144643427D01*
X35041980Y-144643427D02*
X34994361Y-144691046D01*
X34994361Y-144691046D02*
X34899123Y-144738665D01*
X34899123Y-144738665D02*
X34565790Y-144738665D01*
X35994361Y-144595808D02*
X35994361Y-145262475D01*
X35565790Y-144595808D02*
X35565790Y-145119617D01*
X35565790Y-145119617D02*
X35613409Y-145214856D01*
X35613409Y-145214856D02*
X35708647Y-145262475D01*
X35708647Y-145262475D02*
X35851504Y-145262475D01*
X35851504Y-145262475D02*
X35946742Y-145214856D01*
X35946742Y-145214856D02*
X35994361Y-145167236D01*
X36327695Y-144595808D02*
X36708647Y-144595808D01*
X36470552Y-144262475D02*
X36470552Y-145119617D01*
X36470552Y-145119617D02*
X36518171Y-145214856D01*
X36518171Y-145214856D02*
X36613409Y-145262475D01*
X36613409Y-145262475D02*
X36708647Y-145262475D01*
X36899124Y-144595808D02*
X37280076Y-144595808D01*
X37041981Y-144262475D02*
X37041981Y-145119617D01*
X37041981Y-145119617D02*
X37089600Y-145214856D01*
X37089600Y-145214856D02*
X37184838Y-145262475D01*
X37184838Y-145262475D02*
X37280076Y-145262475D01*
X37756267Y-145262475D02*
X37661029Y-145214856D01*
X37661029Y-145214856D02*
X37613410Y-145167236D01*
X37613410Y-145167236D02*
X37565791Y-145071998D01*
X37565791Y-145071998D02*
X37565791Y-144786284D01*
X37565791Y-144786284D02*
X37613410Y-144691046D01*
X37613410Y-144691046D02*
X37661029Y-144643427D01*
X37661029Y-144643427D02*
X37756267Y-144595808D01*
X37756267Y-144595808D02*
X37899124Y-144595808D01*
X37899124Y-144595808D02*
X37994362Y-144643427D01*
X37994362Y-144643427D02*
X38041981Y-144691046D01*
X38041981Y-144691046D02*
X38089600Y-144786284D01*
X38089600Y-144786284D02*
X38089600Y-145071998D01*
X38089600Y-145071998D02*
X38041981Y-145167236D01*
X38041981Y-145167236D02*
X37994362Y-145214856D01*
X37994362Y-145214856D02*
X37899124Y-145262475D01*
X37899124Y-145262475D02*
X37756267Y-145262475D01*
X38518172Y-144595808D02*
X38518172Y-145262475D01*
X38518172Y-144691046D02*
X38565791Y-144643427D01*
X38565791Y-144643427D02*
X38661029Y-144595808D01*
X38661029Y-144595808D02*
X38803886Y-144595808D01*
X38803886Y-144595808D02*
X38899124Y-144643427D01*
X38899124Y-144643427D02*
X38946743Y-144738665D01*
X38946743Y-144738665D02*
X38946743Y-145262475D01*
X39375315Y-145214856D02*
X39470553Y-145262475D01*
X39470553Y-145262475D02*
X39661029Y-145262475D01*
X39661029Y-145262475D02*
X39756267Y-145214856D01*
X39756267Y-145214856D02*
X39803886Y-145119617D01*
X39803886Y-145119617D02*
X39803886Y-145071998D01*
X39803886Y-145071998D02*
X39756267Y-144976760D01*
X39756267Y-144976760D02*
X39661029Y-144929141D01*
X39661029Y-144929141D02*
X39518172Y-144929141D01*
X39518172Y-144929141D02*
X39422934Y-144881522D01*
X39422934Y-144881522D02*
X39375315Y-144786284D01*
X39375315Y-144786284D02*
X39375315Y-144738665D01*
X39375315Y-144738665D02*
X39422934Y-144643427D01*
X39422934Y-144643427D02*
X39518172Y-144595808D01*
X39518172Y-144595808D02*
X39661029Y-144595808D01*
X39661029Y-144595808D02*
X39756267Y-144643427D01*
X40899125Y-144595808D02*
X41137220Y-145262475D01*
X41137220Y-145262475D02*
X41375315Y-144595808D01*
X42280077Y-145262475D02*
X41708649Y-145262475D01*
X41994363Y-145262475D02*
X41994363Y-144262475D01*
X41994363Y-144262475D02*
X41899125Y-144405332D01*
X41899125Y-144405332D02*
X41803887Y-144500570D01*
X41803887Y-144500570D02*
X41708649Y-144548189D01*
X42708649Y-145167236D02*
X42756268Y-145214856D01*
X42756268Y-145214856D02*
X42708649Y-145262475D01*
X42708649Y-145262475D02*
X42661030Y-145214856D01*
X42661030Y-145214856D02*
X42708649Y-145167236D01*
X42708649Y-145167236D02*
X42708649Y-145262475D01*
X43375315Y-144262475D02*
X43470553Y-144262475D01*
X43470553Y-144262475D02*
X43565791Y-144310094D01*
X43565791Y-144310094D02*
X43613410Y-144357713D01*
X43613410Y-144357713D02*
X43661029Y-144452951D01*
X43661029Y-144452951D02*
X43708648Y-144643427D01*
X43708648Y-144643427D02*
X43708648Y-144881522D01*
X43708648Y-144881522D02*
X43661029Y-145071998D01*
X43661029Y-145071998D02*
X43613410Y-145167236D01*
X43613410Y-145167236D02*
X43565791Y-145214856D01*
X43565791Y-145214856D02*
X43470553Y-145262475D01*
X43470553Y-145262475D02*
X43375315Y-145262475D01*
X43375315Y-145262475D02*
X43280077Y-145214856D01*
X43280077Y-145214856D02*
X43232458Y-145167236D01*
X43232458Y-145167236D02*
X43184839Y-145071998D01*
X43184839Y-145071998D02*
X43137220Y-144881522D01*
X43137220Y-144881522D02*
X43137220Y-144643427D01*
X43137220Y-144643427D02*
X43184839Y-144452951D01*
X43184839Y-144452951D02*
X43232458Y-144357713D01*
X43232458Y-144357713D02*
X43280077Y-144310094D01*
X43280077Y-144310094D02*
X43375315Y-144262475D01*
X30375312Y-146777180D02*
X30327693Y-146824800D01*
X30327693Y-146824800D02*
X30184836Y-146872419D01*
X30184836Y-146872419D02*
X30089598Y-146872419D01*
X30089598Y-146872419D02*
X29946741Y-146824800D01*
X29946741Y-146824800D02*
X29851503Y-146729561D01*
X29851503Y-146729561D02*
X29803884Y-146634323D01*
X29803884Y-146634323D02*
X29756265Y-146443847D01*
X29756265Y-146443847D02*
X29756265Y-146300990D01*
X29756265Y-146300990D02*
X29803884Y-146110514D01*
X29803884Y-146110514D02*
X29851503Y-146015276D01*
X29851503Y-146015276D02*
X29946741Y-145920038D01*
X29946741Y-145920038D02*
X30089598Y-145872419D01*
X30089598Y-145872419D02*
X30184836Y-145872419D01*
X30184836Y-145872419D02*
X30327693Y-145920038D01*
X30327693Y-145920038D02*
X30375312Y-145967657D01*
X30803884Y-146777180D02*
X30851503Y-146824800D01*
X30851503Y-146824800D02*
X30803884Y-146872419D01*
X30803884Y-146872419D02*
X30756265Y-146824800D01*
X30756265Y-146824800D02*
X30803884Y-146777180D01*
X30803884Y-146777180D02*
X30803884Y-146872419D01*
X32565788Y-145920038D02*
X32470550Y-145872419D01*
X32470550Y-145872419D02*
X32327693Y-145872419D01*
X32327693Y-145872419D02*
X32184836Y-145920038D01*
X32184836Y-145920038D02*
X32089598Y-146015276D01*
X32089598Y-146015276D02*
X32041979Y-146110514D01*
X32041979Y-146110514D02*
X31994360Y-146300990D01*
X31994360Y-146300990D02*
X31994360Y-146443847D01*
X31994360Y-146443847D02*
X32041979Y-146634323D01*
X32041979Y-146634323D02*
X32089598Y-146729561D01*
X32089598Y-146729561D02*
X32184836Y-146824800D01*
X32184836Y-146824800D02*
X32327693Y-146872419D01*
X32327693Y-146872419D02*
X32422931Y-146872419D01*
X32422931Y-146872419D02*
X32565788Y-146824800D01*
X32565788Y-146824800D02*
X32613407Y-146777180D01*
X32613407Y-146777180D02*
X32613407Y-146443847D01*
X32613407Y-146443847D02*
X32422931Y-146443847D01*
X33470550Y-146205752D02*
X33470550Y-146872419D01*
X33041979Y-146205752D02*
X33041979Y-146729561D01*
X33041979Y-146729561D02*
X33089598Y-146824800D01*
X33089598Y-146824800D02*
X33184836Y-146872419D01*
X33184836Y-146872419D02*
X33327693Y-146872419D01*
X33327693Y-146872419D02*
X33422931Y-146824800D01*
X33422931Y-146824800D02*
X33470550Y-146777180D01*
X33089598Y-145872419D02*
X33137217Y-145920038D01*
X33137217Y-145920038D02*
X33089598Y-145967657D01*
X33089598Y-145967657D02*
X33041979Y-145920038D01*
X33041979Y-145920038D02*
X33089598Y-145872419D01*
X33089598Y-145872419D02*
X33089598Y-145967657D01*
X33470550Y-145872419D02*
X33518169Y-145920038D01*
X33518169Y-145920038D02*
X33470550Y-145967657D01*
X33470550Y-145967657D02*
X33422931Y-145920038D01*
X33422931Y-145920038D02*
X33470550Y-145872419D01*
X33470550Y-145872419D02*
X33470550Y-145967657D01*
X33899122Y-146824800D02*
X33994360Y-146872419D01*
X33994360Y-146872419D02*
X34184836Y-146872419D01*
X34184836Y-146872419D02*
X34280074Y-146824800D01*
X34280074Y-146824800D02*
X34327693Y-146729561D01*
X34327693Y-146729561D02*
X34327693Y-146681942D01*
X34327693Y-146681942D02*
X34280074Y-146586704D01*
X34280074Y-146586704D02*
X34184836Y-146539085D01*
X34184836Y-146539085D02*
X34041979Y-146539085D01*
X34041979Y-146539085D02*
X33946741Y-146491466D01*
X33946741Y-146491466D02*
X33899122Y-146396228D01*
X33899122Y-146396228D02*
X33899122Y-146348609D01*
X33899122Y-146348609D02*
X33946741Y-146253371D01*
X33946741Y-146253371D02*
X34041979Y-146205752D01*
X34041979Y-146205752D02*
X34184836Y-146205752D01*
X34184836Y-146205752D02*
X34280074Y-146253371D01*
X35137217Y-146824800D02*
X35041979Y-146872419D01*
X35041979Y-146872419D02*
X34851503Y-146872419D01*
X34851503Y-146872419D02*
X34756265Y-146824800D01*
X34756265Y-146824800D02*
X34708646Y-146729561D01*
X34708646Y-146729561D02*
X34708646Y-146348609D01*
X34708646Y-146348609D02*
X34756265Y-146253371D01*
X34756265Y-146253371D02*
X34851503Y-146205752D01*
X34851503Y-146205752D02*
X35041979Y-146205752D01*
X35041979Y-146205752D02*
X35137217Y-146253371D01*
X35137217Y-146253371D02*
X35184836Y-146348609D01*
X35184836Y-146348609D02*
X35184836Y-146443847D01*
X35184836Y-146443847D02*
X34708646Y-146539085D01*
X268872419Y-103719925D02*
X268872419Y-104196115D01*
X268872419Y-104196115D02*
X267872419Y-104196115D01*
X268348609Y-103386591D02*
X268348609Y-103053258D01*
X268872419Y-102910401D02*
X268872419Y-103386591D01*
X268872419Y-103386591D02*
X267872419Y-103386591D01*
X267872419Y-103386591D02*
X267872419Y-102910401D01*
X268872419Y-102481829D02*
X267872419Y-102481829D01*
X267872419Y-102481829D02*
X267872419Y-102243734D01*
X267872419Y-102243734D02*
X267920038Y-102100877D01*
X267920038Y-102100877D02*
X268015276Y-102005639D01*
X268015276Y-102005639D02*
X268110514Y-101958020D01*
X268110514Y-101958020D02*
X268300990Y-101910401D01*
X268300990Y-101910401D02*
X268443847Y-101910401D01*
X268443847Y-101910401D02*
X268634323Y-101958020D01*
X268634323Y-101958020D02*
X268729561Y-102005639D01*
X268729561Y-102005639D02*
X268824800Y-102100877D01*
X268824800Y-102100877D02*
X268872419Y-102243734D01*
X268872419Y-102243734D02*
X268872419Y-102481829D01*
X268824800Y-101529448D02*
X268872419Y-101434210D01*
X268872419Y-101434210D02*
X268872419Y-101243734D01*
X268872419Y-101243734D02*
X268824800Y-101148496D01*
X268824800Y-101148496D02*
X268729561Y-101100877D01*
X268729561Y-101100877D02*
X268681942Y-101100877D01*
X268681942Y-101100877D02*
X268586704Y-101148496D01*
X268586704Y-101148496D02*
X268539085Y-101243734D01*
X268539085Y-101243734D02*
X268539085Y-101386591D01*
X268539085Y-101386591D02*
X268491466Y-101481829D01*
X268491466Y-101481829D02*
X268396228Y-101529448D01*
X268396228Y-101529448D02*
X268348609Y-101529448D01*
X268348609Y-101529448D02*
X268253371Y-101481829D01*
X268253371Y-101481829D02*
X268205752Y-101386591D01*
X268205752Y-101386591D02*
X268205752Y-101243734D01*
X268205752Y-101243734D02*
X268253371Y-101148496D01*
X270208646Y-119872419D02*
X270827693Y-119872419D01*
X270827693Y-119872419D02*
X270494360Y-120253371D01*
X270494360Y-120253371D02*
X270637217Y-120253371D01*
X270637217Y-120253371D02*
X270732455Y-120300990D01*
X270732455Y-120300990D02*
X270780074Y-120348609D01*
X270780074Y-120348609D02*
X270827693Y-120443847D01*
X270827693Y-120443847D02*
X270827693Y-120681942D01*
X270827693Y-120681942D02*
X270780074Y-120777180D01*
X270780074Y-120777180D02*
X270732455Y-120824800D01*
X270732455Y-120824800D02*
X270637217Y-120872419D01*
X270637217Y-120872419D02*
X270351503Y-120872419D01*
X270351503Y-120872419D02*
X270256265Y-120824800D01*
X270256265Y-120824800D02*
X270208646Y-120777180D01*
X271256265Y-120777180D02*
X271303884Y-120824800D01*
X271303884Y-120824800D02*
X271256265Y-120872419D01*
X271256265Y-120872419D02*
X271208646Y-120824800D01*
X271208646Y-120824800D02*
X271256265Y-120777180D01*
X271256265Y-120777180D02*
X271256265Y-120872419D01*
X271637217Y-119872419D02*
X272256264Y-119872419D01*
X272256264Y-119872419D02*
X271922931Y-120253371D01*
X271922931Y-120253371D02*
X272065788Y-120253371D01*
X272065788Y-120253371D02*
X272161026Y-120300990D01*
X272161026Y-120300990D02*
X272208645Y-120348609D01*
X272208645Y-120348609D02*
X272256264Y-120443847D01*
X272256264Y-120443847D02*
X272256264Y-120681942D01*
X272256264Y-120681942D02*
X272208645Y-120777180D01*
X272208645Y-120777180D02*
X272161026Y-120824800D01*
X272161026Y-120824800D02*
X272065788Y-120872419D01*
X272065788Y-120872419D02*
X271780074Y-120872419D01*
X271780074Y-120872419D02*
X271684836Y-120824800D01*
X271684836Y-120824800D02*
X271637217Y-120777180D01*
X268872419Y-136172306D02*
X268872419Y-136743734D01*
X268872419Y-136458020D02*
X267872419Y-136458020D01*
X267872419Y-136458020D02*
X268015276Y-136553258D01*
X268015276Y-136553258D02*
X268110514Y-136648496D01*
X268110514Y-136648496D02*
X268158133Y-136743734D01*
X268824800Y-132243734D02*
X268872419Y-132100877D01*
X268872419Y-132100877D02*
X268872419Y-131862782D01*
X268872419Y-131862782D02*
X268824800Y-131767544D01*
X268824800Y-131767544D02*
X268777180Y-131719925D01*
X268777180Y-131719925D02*
X268681942Y-131672306D01*
X268681942Y-131672306D02*
X268586704Y-131672306D01*
X268586704Y-131672306D02*
X268491466Y-131719925D01*
X268491466Y-131719925D02*
X268443847Y-131767544D01*
X268443847Y-131767544D02*
X268396228Y-131862782D01*
X268396228Y-131862782D02*
X268348609Y-132053258D01*
X268348609Y-132053258D02*
X268300990Y-132148496D01*
X268300990Y-132148496D02*
X268253371Y-132196115D01*
X268253371Y-132196115D02*
X268158133Y-132243734D01*
X268158133Y-132243734D02*
X268062895Y-132243734D01*
X268062895Y-132243734D02*
X267967657Y-132196115D01*
X267967657Y-132196115D02*
X267920038Y-132148496D01*
X267920038Y-132148496D02*
X267872419Y-132053258D01*
X267872419Y-132053258D02*
X267872419Y-131815163D01*
X267872419Y-131815163D02*
X267920038Y-131672306D01*
X268205752Y-131338972D02*
X268872419Y-131148496D01*
X268872419Y-131148496D02*
X268396228Y-130958020D01*
X268396228Y-130958020D02*
X268872419Y-130767544D01*
X268872419Y-130767544D02*
X268205752Y-130577068D01*
X268872419Y-130196115D02*
X268205752Y-130196115D01*
X267872419Y-130196115D02*
X267920038Y-130243734D01*
X267920038Y-130243734D02*
X267967657Y-130196115D01*
X267967657Y-130196115D02*
X267920038Y-130148496D01*
X267920038Y-130148496D02*
X267872419Y-130196115D01*
X267872419Y-130196115D02*
X267967657Y-130196115D01*
X268205752Y-129862782D02*
X268205752Y-129481830D01*
X267872419Y-129719925D02*
X268729561Y-129719925D01*
X268729561Y-129719925D02*
X268824800Y-129672306D01*
X268824800Y-129672306D02*
X268872419Y-129577068D01*
X268872419Y-129577068D02*
X268872419Y-129481830D01*
X268824800Y-128719925D02*
X268872419Y-128815163D01*
X268872419Y-128815163D02*
X268872419Y-129005639D01*
X268872419Y-129005639D02*
X268824800Y-129100877D01*
X268824800Y-129100877D02*
X268777180Y-129148496D01*
X268777180Y-129148496D02*
X268681942Y-129196115D01*
X268681942Y-129196115D02*
X268396228Y-129196115D01*
X268396228Y-129196115D02*
X268300990Y-129148496D01*
X268300990Y-129148496D02*
X268253371Y-129100877D01*
X268253371Y-129100877D02*
X268205752Y-129005639D01*
X268205752Y-129005639D02*
X268205752Y-128815163D01*
X268205752Y-128815163D02*
X268253371Y-128719925D01*
X268872419Y-128291353D02*
X267872419Y-128291353D01*
X268872419Y-127862782D02*
X268348609Y-127862782D01*
X268348609Y-127862782D02*
X268253371Y-127910401D01*
X268253371Y-127910401D02*
X268205752Y-128005639D01*
X268205752Y-128005639D02*
X268205752Y-128148496D01*
X268205752Y-128148496D02*
X268253371Y-128243734D01*
X268253371Y-128243734D02*
X268300990Y-128291353D01*
X268824800Y-127005639D02*
X268872419Y-127100877D01*
X268872419Y-127100877D02*
X268872419Y-127291353D01*
X268872419Y-127291353D02*
X268824800Y-127386591D01*
X268824800Y-127386591D02*
X268729561Y-127434210D01*
X268729561Y-127434210D02*
X268348609Y-127434210D01*
X268348609Y-127434210D02*
X268253371Y-127386591D01*
X268253371Y-127386591D02*
X268205752Y-127291353D01*
X268205752Y-127291353D02*
X268205752Y-127100877D01*
X268205752Y-127100877D02*
X268253371Y-127005639D01*
X268253371Y-127005639D02*
X268348609Y-126958020D01*
X268348609Y-126958020D02*
X268443847Y-126958020D01*
X268443847Y-126958020D02*
X268539085Y-127434210D01*
X268824800Y-126577067D02*
X268872419Y-126481829D01*
X268872419Y-126481829D02*
X268872419Y-126291353D01*
X268872419Y-126291353D02*
X268824800Y-126196115D01*
X268824800Y-126196115D02*
X268729561Y-126148496D01*
X268729561Y-126148496D02*
X268681942Y-126148496D01*
X268681942Y-126148496D02*
X268586704Y-126196115D01*
X268586704Y-126196115D02*
X268539085Y-126291353D01*
X268539085Y-126291353D02*
X268539085Y-126434210D01*
X268539085Y-126434210D02*
X268491466Y-126529448D01*
X268491466Y-126529448D02*
X268396228Y-126577067D01*
X268396228Y-126577067D02*
X268348609Y-126577067D01*
X268348609Y-126577067D02*
X268253371Y-126529448D01*
X268253371Y-126529448D02*
X268205752Y-126434210D01*
X268205752Y-126434210D02*
X268205752Y-126291353D01*
X268205752Y-126291353D02*
X268253371Y-126196115D01*
X267920038Y-113672306D02*
X267872419Y-113767544D01*
X267872419Y-113767544D02*
X267872419Y-113910401D01*
X267872419Y-113910401D02*
X267920038Y-114053258D01*
X267920038Y-114053258D02*
X268015276Y-114148496D01*
X268015276Y-114148496D02*
X268110514Y-114196115D01*
X268110514Y-114196115D02*
X268300990Y-114243734D01*
X268300990Y-114243734D02*
X268443847Y-114243734D01*
X268443847Y-114243734D02*
X268634323Y-114196115D01*
X268634323Y-114196115D02*
X268729561Y-114148496D01*
X268729561Y-114148496D02*
X268824800Y-114053258D01*
X268824800Y-114053258D02*
X268872419Y-113910401D01*
X268872419Y-113910401D02*
X268872419Y-113815163D01*
X268872419Y-113815163D02*
X268824800Y-113672306D01*
X268824800Y-113672306D02*
X268777180Y-113624687D01*
X268777180Y-113624687D02*
X268443847Y-113624687D01*
X268443847Y-113624687D02*
X268443847Y-113815163D01*
X268872419Y-113196115D02*
X267872419Y-113196115D01*
X267872419Y-113196115D02*
X268872419Y-112624687D01*
X268872419Y-112624687D02*
X267872419Y-112624687D01*
X268872419Y-112148496D02*
X267872419Y-112148496D01*
X267872419Y-112148496D02*
X267872419Y-111910401D01*
X267872419Y-111910401D02*
X267920038Y-111767544D01*
X267920038Y-111767544D02*
X268015276Y-111672306D01*
X268015276Y-111672306D02*
X268110514Y-111624687D01*
X268110514Y-111624687D02*
X268300990Y-111577068D01*
X268300990Y-111577068D02*
X268443847Y-111577068D01*
X268443847Y-111577068D02*
X268634323Y-111624687D01*
X268634323Y-111624687D02*
X268729561Y-111672306D01*
X268729561Y-111672306D02*
X268824800Y-111767544D01*
X268824800Y-111767544D02*
X268872419Y-111910401D01*
X268872419Y-111910401D02*
X268872419Y-112148496D01*
D11*
X114285714Y-129454819D02*
X114285714Y-128454819D01*
X114285714Y-128454819D02*
X114523809Y-128454819D01*
X114523809Y-128454819D02*
X114666666Y-128502438D01*
X114666666Y-128502438D02*
X114761904Y-128597676D01*
X114761904Y-128597676D02*
X114809523Y-128692914D01*
X114809523Y-128692914D02*
X114857142Y-128883390D01*
X114857142Y-128883390D02*
X114857142Y-129026247D01*
X114857142Y-129026247D02*
X114809523Y-129216723D01*
X114809523Y-129216723D02*
X114761904Y-129311961D01*
X114761904Y-129311961D02*
X114666666Y-129407200D01*
X114666666Y-129407200D02*
X114523809Y-129454819D01*
X114523809Y-129454819D02*
X114285714Y-129454819D01*
X115809523Y-129454819D02*
X115238095Y-129454819D01*
X115523809Y-129454819D02*
X115523809Y-128454819D01*
X115523809Y-128454819D02*
X115428571Y-128597676D01*
X115428571Y-128597676D02*
X115333333Y-128692914D01*
X115333333Y-128692914D02*
X115238095Y-128740533D01*
X116190476Y-128550057D02*
X116238095Y-128502438D01*
X116238095Y-128502438D02*
X116333333Y-128454819D01*
X116333333Y-128454819D02*
X116571428Y-128454819D01*
X116571428Y-128454819D02*
X116666666Y-128502438D01*
X116666666Y-128502438D02*
X116714285Y-128550057D01*
X116714285Y-128550057D02*
X116761904Y-128645295D01*
X116761904Y-128645295D02*
X116761904Y-128740533D01*
X116761904Y-128740533D02*
X116714285Y-128883390D01*
X116714285Y-128883390D02*
X116142857Y-129454819D01*
X116142857Y-129454819D02*
X116761904Y-129454819D01*
X222804819Y-119142857D02*
X222328628Y-119476190D01*
X222804819Y-119714285D02*
X221804819Y-119714285D01*
X221804819Y-119714285D02*
X221804819Y-119333333D01*
X221804819Y-119333333D02*
X221852438Y-119238095D01*
X221852438Y-119238095D02*
X221900057Y-119190476D01*
X221900057Y-119190476D02*
X221995295Y-119142857D01*
X221995295Y-119142857D02*
X222138152Y-119142857D01*
X222138152Y-119142857D02*
X222233390Y-119190476D01*
X222233390Y-119190476D02*
X222281009Y-119238095D01*
X222281009Y-119238095D02*
X222328628Y-119333333D01*
X222328628Y-119333333D02*
X222328628Y-119714285D01*
X222804819Y-118190476D02*
X222804819Y-118761904D01*
X222804819Y-118476190D02*
X221804819Y-118476190D01*
X221804819Y-118476190D02*
X221947676Y-118571428D01*
X221947676Y-118571428D02*
X222042914Y-118666666D01*
X222042914Y-118666666D02*
X222090533Y-118761904D01*
X222804819Y-117714285D02*
X222804819Y-117523809D01*
X222804819Y-117523809D02*
X222757200Y-117428571D01*
X222757200Y-117428571D02*
X222709580Y-117380952D01*
X222709580Y-117380952D02*
X222566723Y-117285714D01*
X222566723Y-117285714D02*
X222376247Y-117238095D01*
X222376247Y-117238095D02*
X221995295Y-117238095D01*
X221995295Y-117238095D02*
X221900057Y-117285714D01*
X221900057Y-117285714D02*
X221852438Y-117333333D01*
X221852438Y-117333333D02*
X221804819Y-117428571D01*
X221804819Y-117428571D02*
X221804819Y-117619047D01*
X221804819Y-117619047D02*
X221852438Y-117714285D01*
X221852438Y-117714285D02*
X221900057Y-117761904D01*
X221900057Y-117761904D02*
X221995295Y-117809523D01*
X221995295Y-117809523D02*
X222233390Y-117809523D01*
X222233390Y-117809523D02*
X222328628Y-117761904D01*
X222328628Y-117761904D02*
X222376247Y-117714285D01*
X222376247Y-117714285D02*
X222423866Y-117619047D01*
X222423866Y-117619047D02*
X222423866Y-117428571D01*
X222423866Y-117428571D02*
X222376247Y-117333333D01*
X222376247Y-117333333D02*
X222328628Y-117285714D01*
X222328628Y-117285714D02*
X222233390Y-117238095D01*
D10*
X55666667Y-113409800D02*
X55809524Y-113457419D01*
X55809524Y-113457419D02*
X56047619Y-113457419D01*
X56047619Y-113457419D02*
X56142857Y-113409800D01*
X56142857Y-113409800D02*
X56190476Y-113362180D01*
X56190476Y-113362180D02*
X56238095Y-113266942D01*
X56238095Y-113266942D02*
X56238095Y-113171704D01*
X56238095Y-113171704D02*
X56190476Y-113076466D01*
X56190476Y-113076466D02*
X56142857Y-113028847D01*
X56142857Y-113028847D02*
X56047619Y-112981228D01*
X56047619Y-112981228D02*
X55857143Y-112933609D01*
X55857143Y-112933609D02*
X55761905Y-112885990D01*
X55761905Y-112885990D02*
X55714286Y-112838371D01*
X55714286Y-112838371D02*
X55666667Y-112743133D01*
X55666667Y-112743133D02*
X55666667Y-112647895D01*
X55666667Y-112647895D02*
X55714286Y-112552657D01*
X55714286Y-112552657D02*
X55761905Y-112505038D01*
X55761905Y-112505038D02*
X55857143Y-112457419D01*
X55857143Y-112457419D02*
X56095238Y-112457419D01*
X56095238Y-112457419D02*
X56238095Y-112505038D01*
X56571429Y-112457419D02*
X56809524Y-113457419D01*
X56809524Y-113457419D02*
X57000000Y-112743133D01*
X57000000Y-112743133D02*
X57190476Y-113457419D01*
X57190476Y-113457419D02*
X57428572Y-112457419D01*
X57761905Y-112552657D02*
X57809524Y-112505038D01*
X57809524Y-112505038D02*
X57904762Y-112457419D01*
X57904762Y-112457419D02*
X58142857Y-112457419D01*
X58142857Y-112457419D02*
X58238095Y-112505038D01*
X58238095Y-112505038D02*
X58285714Y-112552657D01*
X58285714Y-112552657D02*
X58333333Y-112647895D01*
X58333333Y-112647895D02*
X58333333Y-112743133D01*
X58333333Y-112743133D02*
X58285714Y-112885990D01*
X58285714Y-112885990D02*
X57714286Y-113457419D01*
X57714286Y-113457419D02*
X58333333Y-113457419D01*
X230190476Y-137409800D02*
X230333333Y-137457419D01*
X230333333Y-137457419D02*
X230571428Y-137457419D01*
X230571428Y-137457419D02*
X230666666Y-137409800D01*
X230666666Y-137409800D02*
X230714285Y-137362180D01*
X230714285Y-137362180D02*
X230761904Y-137266942D01*
X230761904Y-137266942D02*
X230761904Y-137171704D01*
X230761904Y-137171704D02*
X230714285Y-137076466D01*
X230714285Y-137076466D02*
X230666666Y-137028847D01*
X230666666Y-137028847D02*
X230571428Y-136981228D01*
X230571428Y-136981228D02*
X230380952Y-136933609D01*
X230380952Y-136933609D02*
X230285714Y-136885990D01*
X230285714Y-136885990D02*
X230238095Y-136838371D01*
X230238095Y-136838371D02*
X230190476Y-136743133D01*
X230190476Y-136743133D02*
X230190476Y-136647895D01*
X230190476Y-136647895D02*
X230238095Y-136552657D01*
X230238095Y-136552657D02*
X230285714Y-136505038D01*
X230285714Y-136505038D02*
X230380952Y-136457419D01*
X230380952Y-136457419D02*
X230619047Y-136457419D01*
X230619047Y-136457419D02*
X230761904Y-136505038D01*
X231095238Y-136457419D02*
X231333333Y-137457419D01*
X231333333Y-137457419D02*
X231523809Y-136743133D01*
X231523809Y-136743133D02*
X231714285Y-137457419D01*
X231714285Y-137457419D02*
X231952381Y-136457419D01*
X232857142Y-137457419D02*
X232285714Y-137457419D01*
X232571428Y-137457419D02*
X232571428Y-136457419D01*
X232571428Y-136457419D02*
X232476190Y-136600276D01*
X232476190Y-136600276D02*
X232380952Y-136695514D01*
X232380952Y-136695514D02*
X232285714Y-136743133D01*
X233333333Y-137457419D02*
X233523809Y-137457419D01*
X233523809Y-137457419D02*
X233619047Y-137409800D01*
X233619047Y-137409800D02*
X233666666Y-137362180D01*
X233666666Y-137362180D02*
X233761904Y-137219323D01*
X233761904Y-137219323D02*
X233809523Y-137028847D01*
X233809523Y-137028847D02*
X233809523Y-136647895D01*
X233809523Y-136647895D02*
X233761904Y-136552657D01*
X233761904Y-136552657D02*
X233714285Y-136505038D01*
X233714285Y-136505038D02*
X233619047Y-136457419D01*
X233619047Y-136457419D02*
X233428571Y-136457419D01*
X233428571Y-136457419D02*
X233333333Y-136505038D01*
X233333333Y-136505038D02*
X233285714Y-136552657D01*
X233285714Y-136552657D02*
X233238095Y-136647895D01*
X233238095Y-136647895D02*
X233238095Y-136885990D01*
X233238095Y-136885990D02*
X233285714Y-136981228D01*
X233285714Y-136981228D02*
X233333333Y-137028847D01*
X233333333Y-137028847D02*
X233428571Y-137076466D01*
X233428571Y-137076466D02*
X233619047Y-137076466D01*
X233619047Y-137076466D02*
X233714285Y-137028847D01*
X233714285Y-137028847D02*
X233761904Y-136981228D01*
X233761904Y-136981228D02*
X233809523Y-136885990D01*
D11*
X139285714Y-129454819D02*
X139285714Y-128454819D01*
X139285714Y-128454819D02*
X139523809Y-128454819D01*
X139523809Y-128454819D02*
X139666666Y-128502438D01*
X139666666Y-128502438D02*
X139761904Y-128597676D01*
X139761904Y-128597676D02*
X139809523Y-128692914D01*
X139809523Y-128692914D02*
X139857142Y-128883390D01*
X139857142Y-128883390D02*
X139857142Y-129026247D01*
X139857142Y-129026247D02*
X139809523Y-129216723D01*
X139809523Y-129216723D02*
X139761904Y-129311961D01*
X139761904Y-129311961D02*
X139666666Y-129407200D01*
X139666666Y-129407200D02*
X139523809Y-129454819D01*
X139523809Y-129454819D02*
X139285714Y-129454819D01*
X140809523Y-129454819D02*
X140238095Y-129454819D01*
X140523809Y-129454819D02*
X140523809Y-128454819D01*
X140523809Y-128454819D02*
X140428571Y-128597676D01*
X140428571Y-128597676D02*
X140333333Y-128692914D01*
X140333333Y-128692914D02*
X140238095Y-128740533D01*
X141142857Y-128454819D02*
X141761904Y-128454819D01*
X141761904Y-128454819D02*
X141428571Y-128835771D01*
X141428571Y-128835771D02*
X141571428Y-128835771D01*
X141571428Y-128835771D02*
X141666666Y-128883390D01*
X141666666Y-128883390D02*
X141714285Y-128931009D01*
X141714285Y-128931009D02*
X141761904Y-129026247D01*
X141761904Y-129026247D02*
X141761904Y-129264342D01*
X141761904Y-129264342D02*
X141714285Y-129359580D01*
X141714285Y-129359580D02*
X141666666Y-129407200D01*
X141666666Y-129407200D02*
X141571428Y-129454819D01*
X141571428Y-129454819D02*
X141285714Y-129454819D01*
X141285714Y-129454819D02*
X141190476Y-129407200D01*
X141190476Y-129407200D02*
X141142857Y-129359580D01*
X270666666Y-93454819D02*
X270666666Y-94169104D01*
X270666666Y-94169104D02*
X270619047Y-94311961D01*
X270619047Y-94311961D02*
X270523809Y-94407200D01*
X270523809Y-94407200D02*
X270380952Y-94454819D01*
X270380952Y-94454819D02*
X270285714Y-94454819D01*
X271095238Y-93550057D02*
X271142857Y-93502438D01*
X271142857Y-93502438D02*
X271238095Y-93454819D01*
X271238095Y-93454819D02*
X271476190Y-93454819D01*
X271476190Y-93454819D02*
X271571428Y-93502438D01*
X271571428Y-93502438D02*
X271619047Y-93550057D01*
X271619047Y-93550057D02*
X271666666Y-93645295D01*
X271666666Y-93645295D02*
X271666666Y-93740533D01*
X271666666Y-93740533D02*
X271619047Y-93883390D01*
X271619047Y-93883390D02*
X271047619Y-94454819D01*
X271047619Y-94454819D02*
X271666666Y-94454819D01*
X97954819Y-134642857D02*
X97478628Y-134976190D01*
X97954819Y-135214285D02*
X96954819Y-135214285D01*
X96954819Y-135214285D02*
X96954819Y-134833333D01*
X96954819Y-134833333D02*
X97002438Y-134738095D01*
X97002438Y-134738095D02*
X97050057Y-134690476D01*
X97050057Y-134690476D02*
X97145295Y-134642857D01*
X97145295Y-134642857D02*
X97288152Y-134642857D01*
X97288152Y-134642857D02*
X97383390Y-134690476D01*
X97383390Y-134690476D02*
X97431009Y-134738095D01*
X97431009Y-134738095D02*
X97478628Y-134833333D01*
X97478628Y-134833333D02*
X97478628Y-135214285D01*
X97050057Y-134261904D02*
X97002438Y-134214285D01*
X97002438Y-134214285D02*
X96954819Y-134119047D01*
X96954819Y-134119047D02*
X96954819Y-133880952D01*
X96954819Y-133880952D02*
X97002438Y-133785714D01*
X97002438Y-133785714D02*
X97050057Y-133738095D01*
X97050057Y-133738095D02*
X97145295Y-133690476D01*
X97145295Y-133690476D02*
X97240533Y-133690476D01*
X97240533Y-133690476D02*
X97383390Y-133738095D01*
X97383390Y-133738095D02*
X97954819Y-134309523D01*
X97954819Y-134309523D02*
X97954819Y-133690476D01*
X96954819Y-133357142D02*
X96954819Y-132690476D01*
X96954819Y-132690476D02*
X97954819Y-133119047D01*
X172804819Y-94666666D02*
X172328628Y-94999999D01*
X172804819Y-95238094D02*
X171804819Y-95238094D01*
X171804819Y-95238094D02*
X171804819Y-94857142D01*
X171804819Y-94857142D02*
X171852438Y-94761904D01*
X171852438Y-94761904D02*
X171900057Y-94714285D01*
X171900057Y-94714285D02*
X171995295Y-94666666D01*
X171995295Y-94666666D02*
X172138152Y-94666666D01*
X172138152Y-94666666D02*
X172233390Y-94714285D01*
X172233390Y-94714285D02*
X172281009Y-94761904D01*
X172281009Y-94761904D02*
X172328628Y-94857142D01*
X172328628Y-94857142D02*
X172328628Y-95238094D01*
X171804819Y-94333332D02*
X171804819Y-93666666D01*
X171804819Y-93666666D02*
X172804819Y-94095237D01*
X267359580Y-119616666D02*
X267407200Y-119664285D01*
X267407200Y-119664285D02*
X267454819Y-119807142D01*
X267454819Y-119807142D02*
X267454819Y-119902380D01*
X267454819Y-119902380D02*
X267407200Y-120045237D01*
X267407200Y-120045237D02*
X267311961Y-120140475D01*
X267311961Y-120140475D02*
X267216723Y-120188094D01*
X267216723Y-120188094D02*
X267026247Y-120235713D01*
X267026247Y-120235713D02*
X266883390Y-120235713D01*
X266883390Y-120235713D02*
X266692914Y-120188094D01*
X266692914Y-120188094D02*
X266597676Y-120140475D01*
X266597676Y-120140475D02*
X266502438Y-120045237D01*
X266502438Y-120045237D02*
X266454819Y-119902380D01*
X266454819Y-119902380D02*
X266454819Y-119807142D01*
X266454819Y-119807142D02*
X266502438Y-119664285D01*
X266502438Y-119664285D02*
X266550057Y-119616666D01*
X266454819Y-118711904D02*
X266454819Y-119188094D01*
X266454819Y-119188094D02*
X266931009Y-119235713D01*
X266931009Y-119235713D02*
X266883390Y-119188094D01*
X266883390Y-119188094D02*
X266835771Y-119092856D01*
X266835771Y-119092856D02*
X266835771Y-118854761D01*
X266835771Y-118854761D02*
X266883390Y-118759523D01*
X266883390Y-118759523D02*
X266931009Y-118711904D01*
X266931009Y-118711904D02*
X267026247Y-118664285D01*
X267026247Y-118664285D02*
X267264342Y-118664285D01*
X267264342Y-118664285D02*
X267359580Y-118711904D01*
X267359580Y-118711904D02*
X267407200Y-118759523D01*
X267407200Y-118759523D02*
X267454819Y-118854761D01*
X267454819Y-118854761D02*
X267454819Y-119092856D01*
X267454819Y-119092856D02*
X267407200Y-119188094D01*
X267407200Y-119188094D02*
X267359580Y-119235713D01*
D10*
X80190476Y-137409800D02*
X80333333Y-137457419D01*
X80333333Y-137457419D02*
X80571428Y-137457419D01*
X80571428Y-137457419D02*
X80666666Y-137409800D01*
X80666666Y-137409800D02*
X80714285Y-137362180D01*
X80714285Y-137362180D02*
X80761904Y-137266942D01*
X80761904Y-137266942D02*
X80761904Y-137171704D01*
X80761904Y-137171704D02*
X80714285Y-137076466D01*
X80714285Y-137076466D02*
X80666666Y-137028847D01*
X80666666Y-137028847D02*
X80571428Y-136981228D01*
X80571428Y-136981228D02*
X80380952Y-136933609D01*
X80380952Y-136933609D02*
X80285714Y-136885990D01*
X80285714Y-136885990D02*
X80238095Y-136838371D01*
X80238095Y-136838371D02*
X80190476Y-136743133D01*
X80190476Y-136743133D02*
X80190476Y-136647895D01*
X80190476Y-136647895D02*
X80238095Y-136552657D01*
X80238095Y-136552657D02*
X80285714Y-136505038D01*
X80285714Y-136505038D02*
X80380952Y-136457419D01*
X80380952Y-136457419D02*
X80619047Y-136457419D01*
X80619047Y-136457419D02*
X80761904Y-136505038D01*
X81095238Y-136457419D02*
X81333333Y-137457419D01*
X81333333Y-137457419D02*
X81523809Y-136743133D01*
X81523809Y-136743133D02*
X81714285Y-137457419D01*
X81714285Y-137457419D02*
X81952381Y-136457419D01*
X82857142Y-137457419D02*
X82285714Y-137457419D01*
X82571428Y-137457419D02*
X82571428Y-136457419D01*
X82571428Y-136457419D02*
X82476190Y-136600276D01*
X82476190Y-136600276D02*
X82380952Y-136695514D01*
X82380952Y-136695514D02*
X82285714Y-136743133D01*
X83809523Y-137457419D02*
X83238095Y-137457419D01*
X83523809Y-137457419D02*
X83523809Y-136457419D01*
X83523809Y-136457419D02*
X83428571Y-136600276D01*
X83428571Y-136600276D02*
X83333333Y-136695514D01*
X83333333Y-136695514D02*
X83238095Y-136743133D01*
D11*
X22804819Y-94666666D02*
X22328628Y-94999999D01*
X22804819Y-95238094D02*
X21804819Y-95238094D01*
X21804819Y-95238094D02*
X21804819Y-94857142D01*
X21804819Y-94857142D02*
X21852438Y-94761904D01*
X21852438Y-94761904D02*
X21900057Y-94714285D01*
X21900057Y-94714285D02*
X21995295Y-94666666D01*
X21995295Y-94666666D02*
X22138152Y-94666666D01*
X22138152Y-94666666D02*
X22233390Y-94714285D01*
X22233390Y-94714285D02*
X22281009Y-94761904D01*
X22281009Y-94761904D02*
X22328628Y-94857142D01*
X22328628Y-94857142D02*
X22328628Y-95238094D01*
X22804819Y-93714285D02*
X22804819Y-94285713D01*
X22804819Y-93999999D02*
X21804819Y-93999999D01*
X21804819Y-93999999D02*
X21947676Y-94095237D01*
X21947676Y-94095237D02*
X22042914Y-94190475D01*
X22042914Y-94190475D02*
X22090533Y-94285713D01*
D10*
X180666667Y-113409800D02*
X180809524Y-113457419D01*
X180809524Y-113457419D02*
X181047619Y-113457419D01*
X181047619Y-113457419D02*
X181142857Y-113409800D01*
X181142857Y-113409800D02*
X181190476Y-113362180D01*
X181190476Y-113362180D02*
X181238095Y-113266942D01*
X181238095Y-113266942D02*
X181238095Y-113171704D01*
X181238095Y-113171704D02*
X181190476Y-113076466D01*
X181190476Y-113076466D02*
X181142857Y-113028847D01*
X181142857Y-113028847D02*
X181047619Y-112981228D01*
X181047619Y-112981228D02*
X180857143Y-112933609D01*
X180857143Y-112933609D02*
X180761905Y-112885990D01*
X180761905Y-112885990D02*
X180714286Y-112838371D01*
X180714286Y-112838371D02*
X180666667Y-112743133D01*
X180666667Y-112743133D02*
X180666667Y-112647895D01*
X180666667Y-112647895D02*
X180714286Y-112552657D01*
X180714286Y-112552657D02*
X180761905Y-112505038D01*
X180761905Y-112505038D02*
X180857143Y-112457419D01*
X180857143Y-112457419D02*
X181095238Y-112457419D01*
X181095238Y-112457419D02*
X181238095Y-112505038D01*
X181571429Y-112457419D02*
X181809524Y-113457419D01*
X181809524Y-113457419D02*
X182000000Y-112743133D01*
X182000000Y-112743133D02*
X182190476Y-113457419D01*
X182190476Y-113457419D02*
X182428572Y-112457419D01*
X182714286Y-112457419D02*
X183380952Y-112457419D01*
X183380952Y-112457419D02*
X182952381Y-113457419D01*
X205190476Y-137409800D02*
X205333333Y-137457419D01*
X205333333Y-137457419D02*
X205571428Y-137457419D01*
X205571428Y-137457419D02*
X205666666Y-137409800D01*
X205666666Y-137409800D02*
X205714285Y-137362180D01*
X205714285Y-137362180D02*
X205761904Y-137266942D01*
X205761904Y-137266942D02*
X205761904Y-137171704D01*
X205761904Y-137171704D02*
X205714285Y-137076466D01*
X205714285Y-137076466D02*
X205666666Y-137028847D01*
X205666666Y-137028847D02*
X205571428Y-136981228D01*
X205571428Y-136981228D02*
X205380952Y-136933609D01*
X205380952Y-136933609D02*
X205285714Y-136885990D01*
X205285714Y-136885990D02*
X205238095Y-136838371D01*
X205238095Y-136838371D02*
X205190476Y-136743133D01*
X205190476Y-136743133D02*
X205190476Y-136647895D01*
X205190476Y-136647895D02*
X205238095Y-136552657D01*
X205238095Y-136552657D02*
X205285714Y-136505038D01*
X205285714Y-136505038D02*
X205380952Y-136457419D01*
X205380952Y-136457419D02*
X205619047Y-136457419D01*
X205619047Y-136457419D02*
X205761904Y-136505038D01*
X206095238Y-136457419D02*
X206333333Y-137457419D01*
X206333333Y-137457419D02*
X206523809Y-136743133D01*
X206523809Y-136743133D02*
X206714285Y-137457419D01*
X206714285Y-137457419D02*
X206952381Y-136457419D01*
X207857142Y-137457419D02*
X207285714Y-137457419D01*
X207571428Y-137457419D02*
X207571428Y-136457419D01*
X207571428Y-136457419D02*
X207476190Y-136600276D01*
X207476190Y-136600276D02*
X207380952Y-136695514D01*
X207380952Y-136695514D02*
X207285714Y-136743133D01*
X208714285Y-136457419D02*
X208523809Y-136457419D01*
X208523809Y-136457419D02*
X208428571Y-136505038D01*
X208428571Y-136505038D02*
X208380952Y-136552657D01*
X208380952Y-136552657D02*
X208285714Y-136695514D01*
X208285714Y-136695514D02*
X208238095Y-136885990D01*
X208238095Y-136885990D02*
X208238095Y-137266942D01*
X208238095Y-137266942D02*
X208285714Y-137362180D01*
X208285714Y-137362180D02*
X208333333Y-137409800D01*
X208333333Y-137409800D02*
X208428571Y-137457419D01*
X208428571Y-137457419D02*
X208619047Y-137457419D01*
X208619047Y-137457419D02*
X208714285Y-137409800D01*
X208714285Y-137409800D02*
X208761904Y-137362180D01*
X208761904Y-137362180D02*
X208809523Y-137266942D01*
X208809523Y-137266942D02*
X208809523Y-137028847D01*
X208809523Y-137028847D02*
X208761904Y-136933609D01*
X208761904Y-136933609D02*
X208714285Y-136885990D01*
X208714285Y-136885990D02*
X208619047Y-136838371D01*
X208619047Y-136838371D02*
X208428571Y-136838371D01*
X208428571Y-136838371D02*
X208333333Y-136885990D01*
X208333333Y-136885990D02*
X208285714Y-136933609D01*
X208285714Y-136933609D02*
X208238095Y-137028847D01*
D11*
X64285714Y-129454819D02*
X64285714Y-128454819D01*
X64285714Y-128454819D02*
X64523809Y-128454819D01*
X64523809Y-128454819D02*
X64666666Y-128502438D01*
X64666666Y-128502438D02*
X64761904Y-128597676D01*
X64761904Y-128597676D02*
X64809523Y-128692914D01*
X64809523Y-128692914D02*
X64857142Y-128883390D01*
X64857142Y-128883390D02*
X64857142Y-129026247D01*
X64857142Y-129026247D02*
X64809523Y-129216723D01*
X64809523Y-129216723D02*
X64761904Y-129311961D01*
X64761904Y-129311961D02*
X64666666Y-129407200D01*
X64666666Y-129407200D02*
X64523809Y-129454819D01*
X64523809Y-129454819D02*
X64285714Y-129454819D01*
X65809523Y-129454819D02*
X65238095Y-129454819D01*
X65523809Y-129454819D02*
X65523809Y-128454819D01*
X65523809Y-128454819D02*
X65428571Y-128597676D01*
X65428571Y-128597676D02*
X65333333Y-128692914D01*
X65333333Y-128692914D02*
X65238095Y-128740533D01*
X66428571Y-128454819D02*
X66523809Y-128454819D01*
X66523809Y-128454819D02*
X66619047Y-128502438D01*
X66619047Y-128502438D02*
X66666666Y-128550057D01*
X66666666Y-128550057D02*
X66714285Y-128645295D01*
X66714285Y-128645295D02*
X66761904Y-128835771D01*
X66761904Y-128835771D02*
X66761904Y-129073866D01*
X66761904Y-129073866D02*
X66714285Y-129264342D01*
X66714285Y-129264342D02*
X66666666Y-129359580D01*
X66666666Y-129359580D02*
X66619047Y-129407200D01*
X66619047Y-129407200D02*
X66523809Y-129454819D01*
X66523809Y-129454819D02*
X66428571Y-129454819D01*
X66428571Y-129454819D02*
X66333333Y-129407200D01*
X66333333Y-129407200D02*
X66285714Y-129359580D01*
X66285714Y-129359580D02*
X66238095Y-129264342D01*
X66238095Y-129264342D02*
X66190476Y-129073866D01*
X66190476Y-129073866D02*
X66190476Y-128835771D01*
X66190476Y-128835771D02*
X66238095Y-128645295D01*
X66238095Y-128645295D02*
X66285714Y-128550057D01*
X66285714Y-128550057D02*
X66333333Y-128502438D01*
X66333333Y-128502438D02*
X66428571Y-128454819D01*
X197804819Y-94666666D02*
X197328628Y-94999999D01*
X197804819Y-95238094D02*
X196804819Y-95238094D01*
X196804819Y-95238094D02*
X196804819Y-94857142D01*
X196804819Y-94857142D02*
X196852438Y-94761904D01*
X196852438Y-94761904D02*
X196900057Y-94714285D01*
X196900057Y-94714285D02*
X196995295Y-94666666D01*
X196995295Y-94666666D02*
X197138152Y-94666666D01*
X197138152Y-94666666D02*
X197233390Y-94714285D01*
X197233390Y-94714285D02*
X197281009Y-94761904D01*
X197281009Y-94761904D02*
X197328628Y-94857142D01*
X197328628Y-94857142D02*
X197328628Y-95238094D01*
X197233390Y-94095237D02*
X197185771Y-94190475D01*
X197185771Y-94190475D02*
X197138152Y-94238094D01*
X197138152Y-94238094D02*
X197042914Y-94285713D01*
X197042914Y-94285713D02*
X196995295Y-94285713D01*
X196995295Y-94285713D02*
X196900057Y-94238094D01*
X196900057Y-94238094D02*
X196852438Y-94190475D01*
X196852438Y-94190475D02*
X196804819Y-94095237D01*
X196804819Y-94095237D02*
X196804819Y-93904761D01*
X196804819Y-93904761D02*
X196852438Y-93809523D01*
X196852438Y-93809523D02*
X196900057Y-93761904D01*
X196900057Y-93761904D02*
X196995295Y-93714285D01*
X196995295Y-93714285D02*
X197042914Y-93714285D01*
X197042914Y-93714285D02*
X197138152Y-93761904D01*
X197138152Y-93761904D02*
X197185771Y-93809523D01*
X197185771Y-93809523D02*
X197233390Y-93904761D01*
X197233390Y-93904761D02*
X197233390Y-94095237D01*
X197233390Y-94095237D02*
X197281009Y-94190475D01*
X197281009Y-94190475D02*
X197328628Y-94238094D01*
X197328628Y-94238094D02*
X197423866Y-94285713D01*
X197423866Y-94285713D02*
X197614342Y-94285713D01*
X197614342Y-94285713D02*
X197709580Y-94238094D01*
X197709580Y-94238094D02*
X197757200Y-94190475D01*
X197757200Y-94190475D02*
X197804819Y-94095237D01*
X197804819Y-94095237D02*
X197804819Y-93904761D01*
X197804819Y-93904761D02*
X197757200Y-93809523D01*
X197757200Y-93809523D02*
X197709580Y-93761904D01*
X197709580Y-93761904D02*
X197614342Y-93714285D01*
X197614342Y-93714285D02*
X197423866Y-93714285D01*
X197423866Y-93714285D02*
X197328628Y-93761904D01*
X197328628Y-93761904D02*
X197281009Y-93809523D01*
X197281009Y-93809523D02*
X197233390Y-93904761D01*
X270666666Y-111954819D02*
X270666666Y-112669104D01*
X270666666Y-112669104D02*
X270619047Y-112811961D01*
X270619047Y-112811961D02*
X270523809Y-112907200D01*
X270523809Y-112907200D02*
X270380952Y-112954819D01*
X270380952Y-112954819D02*
X270285714Y-112954819D01*
X271047619Y-111954819D02*
X271666666Y-111954819D01*
X271666666Y-111954819D02*
X271333333Y-112335771D01*
X271333333Y-112335771D02*
X271476190Y-112335771D01*
X271476190Y-112335771D02*
X271571428Y-112383390D01*
X271571428Y-112383390D02*
X271619047Y-112431009D01*
X271619047Y-112431009D02*
X271666666Y-112526247D01*
X271666666Y-112526247D02*
X271666666Y-112764342D01*
X271666666Y-112764342D02*
X271619047Y-112859580D01*
X271619047Y-112859580D02*
X271571428Y-112907200D01*
X271571428Y-112907200D02*
X271476190Y-112954819D01*
X271476190Y-112954819D02*
X271190476Y-112954819D01*
X271190476Y-112954819D02*
X271095238Y-112907200D01*
X271095238Y-112907200D02*
X271047619Y-112859580D01*
X97804819Y-119142857D02*
X97328628Y-119476190D01*
X97804819Y-119714285D02*
X96804819Y-119714285D01*
X96804819Y-119714285D02*
X96804819Y-119333333D01*
X96804819Y-119333333D02*
X96852438Y-119238095D01*
X96852438Y-119238095D02*
X96900057Y-119190476D01*
X96900057Y-119190476D02*
X96995295Y-119142857D01*
X96995295Y-119142857D02*
X97138152Y-119142857D01*
X97138152Y-119142857D02*
X97233390Y-119190476D01*
X97233390Y-119190476D02*
X97281009Y-119238095D01*
X97281009Y-119238095D02*
X97328628Y-119333333D01*
X97328628Y-119333333D02*
X97328628Y-119714285D01*
X97804819Y-118190476D02*
X97804819Y-118761904D01*
X97804819Y-118476190D02*
X96804819Y-118476190D01*
X96804819Y-118476190D02*
X96947676Y-118571428D01*
X96947676Y-118571428D02*
X97042914Y-118666666D01*
X97042914Y-118666666D02*
X97090533Y-118761904D01*
X96900057Y-117809523D02*
X96852438Y-117761904D01*
X96852438Y-117761904D02*
X96804819Y-117666666D01*
X96804819Y-117666666D02*
X96804819Y-117428571D01*
X96804819Y-117428571D02*
X96852438Y-117333333D01*
X96852438Y-117333333D02*
X96900057Y-117285714D01*
X96900057Y-117285714D02*
X96995295Y-117238095D01*
X96995295Y-117238095D02*
X97090533Y-117238095D01*
X97090533Y-117238095D02*
X97233390Y-117285714D01*
X97233390Y-117285714D02*
X97804819Y-117857142D01*
X97804819Y-117857142D02*
X97804819Y-117238095D01*
X227954819Y-142761904D02*
X228764342Y-142761904D01*
X228764342Y-142761904D02*
X228859580Y-142714285D01*
X228859580Y-142714285D02*
X228907200Y-142666666D01*
X228907200Y-142666666D02*
X228954819Y-142571428D01*
X228954819Y-142571428D02*
X228954819Y-142380952D01*
X228954819Y-142380952D02*
X228907200Y-142285714D01*
X228907200Y-142285714D02*
X228859580Y-142238095D01*
X228859580Y-142238095D02*
X228764342Y-142190476D01*
X228764342Y-142190476D02*
X227954819Y-142190476D01*
X228288152Y-141285714D02*
X228954819Y-141285714D01*
X227907200Y-141523809D02*
X228621485Y-141761904D01*
X228621485Y-141761904D02*
X228621485Y-141142857D01*
X64824405Y-105454819D02*
X64824405Y-104454819D01*
X64824405Y-104454819D02*
X65062500Y-104454819D01*
X65062500Y-104454819D02*
X65205357Y-104502438D01*
X65205357Y-104502438D02*
X65300595Y-104597676D01*
X65300595Y-104597676D02*
X65348214Y-104692914D01*
X65348214Y-104692914D02*
X65395833Y-104883390D01*
X65395833Y-104883390D02*
X65395833Y-105026247D01*
X65395833Y-105026247D02*
X65348214Y-105216723D01*
X65348214Y-105216723D02*
X65300595Y-105311961D01*
X65300595Y-105311961D02*
X65205357Y-105407200D01*
X65205357Y-105407200D02*
X65062500Y-105454819D01*
X65062500Y-105454819D02*
X64824405Y-105454819D01*
X65776786Y-104550057D02*
X65824405Y-104502438D01*
X65824405Y-104502438D02*
X65919643Y-104454819D01*
X65919643Y-104454819D02*
X66157738Y-104454819D01*
X66157738Y-104454819D02*
X66252976Y-104502438D01*
X66252976Y-104502438D02*
X66300595Y-104550057D01*
X66300595Y-104550057D02*
X66348214Y-104645295D01*
X66348214Y-104645295D02*
X66348214Y-104740533D01*
X66348214Y-104740533D02*
X66300595Y-104883390D01*
X66300595Y-104883390D02*
X65729167Y-105454819D01*
X65729167Y-105454819D02*
X66348214Y-105454819D01*
X49454819Y-137230357D02*
X48978628Y-137563690D01*
X49454819Y-137801785D02*
X48454819Y-137801785D01*
X48454819Y-137801785D02*
X48454819Y-137420833D01*
X48454819Y-137420833D02*
X48502438Y-137325595D01*
X48502438Y-137325595D02*
X48550057Y-137277976D01*
X48550057Y-137277976D02*
X48645295Y-137230357D01*
X48645295Y-137230357D02*
X48788152Y-137230357D01*
X48788152Y-137230357D02*
X48883390Y-137277976D01*
X48883390Y-137277976D02*
X48931009Y-137325595D01*
X48931009Y-137325595D02*
X48978628Y-137420833D01*
X48978628Y-137420833D02*
X48978628Y-137801785D01*
X48550057Y-136849404D02*
X48502438Y-136801785D01*
X48502438Y-136801785D02*
X48454819Y-136706547D01*
X48454819Y-136706547D02*
X48454819Y-136468452D01*
X48454819Y-136468452D02*
X48502438Y-136373214D01*
X48502438Y-136373214D02*
X48550057Y-136325595D01*
X48550057Y-136325595D02*
X48645295Y-136277976D01*
X48645295Y-136277976D02*
X48740533Y-136277976D01*
X48740533Y-136277976D02*
X48883390Y-136325595D01*
X48883390Y-136325595D02*
X49454819Y-136897023D01*
X49454819Y-136897023D02*
X49454819Y-136277976D01*
X48454819Y-135373214D02*
X48454819Y-135849404D01*
X48454819Y-135849404D02*
X48931009Y-135897023D01*
X48931009Y-135897023D02*
X48883390Y-135849404D01*
X48883390Y-135849404D02*
X48835771Y-135754166D01*
X48835771Y-135754166D02*
X48835771Y-135516071D01*
X48835771Y-135516071D02*
X48883390Y-135420833D01*
X48883390Y-135420833D02*
X48931009Y-135373214D01*
X48931009Y-135373214D02*
X49026247Y-135325595D01*
X49026247Y-135325595D02*
X49264342Y-135325595D01*
X49264342Y-135325595D02*
X49359580Y-135373214D01*
X49359580Y-135373214D02*
X49407200Y-135420833D01*
X49407200Y-135420833D02*
X49454819Y-135516071D01*
X49454819Y-135516071D02*
X49454819Y-135754166D01*
X49454819Y-135754166D02*
X49407200Y-135849404D01*
X49407200Y-135849404D02*
X49359580Y-135897023D01*
X189761905Y-105454819D02*
X189761905Y-104454819D01*
X189761905Y-104454819D02*
X190000000Y-104454819D01*
X190000000Y-104454819D02*
X190142857Y-104502438D01*
X190142857Y-104502438D02*
X190238095Y-104597676D01*
X190238095Y-104597676D02*
X190285714Y-104692914D01*
X190285714Y-104692914D02*
X190333333Y-104883390D01*
X190333333Y-104883390D02*
X190333333Y-105026247D01*
X190333333Y-105026247D02*
X190285714Y-105216723D01*
X190285714Y-105216723D02*
X190238095Y-105311961D01*
X190238095Y-105311961D02*
X190142857Y-105407200D01*
X190142857Y-105407200D02*
X190000000Y-105454819D01*
X190000000Y-105454819D02*
X189761905Y-105454819D01*
X190666667Y-104454819D02*
X191333333Y-104454819D01*
X191333333Y-104454819D02*
X190904762Y-105454819D01*
D10*
X105666667Y-113409800D02*
X105809524Y-113457419D01*
X105809524Y-113457419D02*
X106047619Y-113457419D01*
X106047619Y-113457419D02*
X106142857Y-113409800D01*
X106142857Y-113409800D02*
X106190476Y-113362180D01*
X106190476Y-113362180D02*
X106238095Y-113266942D01*
X106238095Y-113266942D02*
X106238095Y-113171704D01*
X106238095Y-113171704D02*
X106190476Y-113076466D01*
X106190476Y-113076466D02*
X106142857Y-113028847D01*
X106142857Y-113028847D02*
X106047619Y-112981228D01*
X106047619Y-112981228D02*
X105857143Y-112933609D01*
X105857143Y-112933609D02*
X105761905Y-112885990D01*
X105761905Y-112885990D02*
X105714286Y-112838371D01*
X105714286Y-112838371D02*
X105666667Y-112743133D01*
X105666667Y-112743133D02*
X105666667Y-112647895D01*
X105666667Y-112647895D02*
X105714286Y-112552657D01*
X105714286Y-112552657D02*
X105761905Y-112505038D01*
X105761905Y-112505038D02*
X105857143Y-112457419D01*
X105857143Y-112457419D02*
X106095238Y-112457419D01*
X106095238Y-112457419D02*
X106238095Y-112505038D01*
X106571429Y-112457419D02*
X106809524Y-113457419D01*
X106809524Y-113457419D02*
X107000000Y-112743133D01*
X107000000Y-112743133D02*
X107190476Y-113457419D01*
X107190476Y-113457419D02*
X107428572Y-112457419D01*
X108238095Y-112790752D02*
X108238095Y-113457419D01*
X108000000Y-112409800D02*
X107761905Y-113124085D01*
X107761905Y-113124085D02*
X108380952Y-113124085D01*
D11*
X214285714Y-129454819D02*
X214285714Y-128454819D01*
X214285714Y-128454819D02*
X214523809Y-128454819D01*
X214523809Y-128454819D02*
X214666666Y-128502438D01*
X214666666Y-128502438D02*
X214761904Y-128597676D01*
X214761904Y-128597676D02*
X214809523Y-128692914D01*
X214809523Y-128692914D02*
X214857142Y-128883390D01*
X214857142Y-128883390D02*
X214857142Y-129026247D01*
X214857142Y-129026247D02*
X214809523Y-129216723D01*
X214809523Y-129216723D02*
X214761904Y-129311961D01*
X214761904Y-129311961D02*
X214666666Y-129407200D01*
X214666666Y-129407200D02*
X214523809Y-129454819D01*
X214523809Y-129454819D02*
X214285714Y-129454819D01*
X215809523Y-129454819D02*
X215238095Y-129454819D01*
X215523809Y-129454819D02*
X215523809Y-128454819D01*
X215523809Y-128454819D02*
X215428571Y-128597676D01*
X215428571Y-128597676D02*
X215333333Y-128692914D01*
X215333333Y-128692914D02*
X215238095Y-128740533D01*
X216666666Y-128454819D02*
X216476190Y-128454819D01*
X216476190Y-128454819D02*
X216380952Y-128502438D01*
X216380952Y-128502438D02*
X216333333Y-128550057D01*
X216333333Y-128550057D02*
X216238095Y-128692914D01*
X216238095Y-128692914D02*
X216190476Y-128883390D01*
X216190476Y-128883390D02*
X216190476Y-129264342D01*
X216190476Y-129264342D02*
X216238095Y-129359580D01*
X216238095Y-129359580D02*
X216285714Y-129407200D01*
X216285714Y-129407200D02*
X216380952Y-129454819D01*
X216380952Y-129454819D02*
X216571428Y-129454819D01*
X216571428Y-129454819D02*
X216666666Y-129407200D01*
X216666666Y-129407200D02*
X216714285Y-129359580D01*
X216714285Y-129359580D02*
X216761904Y-129264342D01*
X216761904Y-129264342D02*
X216761904Y-129026247D01*
X216761904Y-129026247D02*
X216714285Y-128931009D01*
X216714285Y-128931009D02*
X216666666Y-128883390D01*
X216666666Y-128883390D02*
X216571428Y-128835771D01*
X216571428Y-128835771D02*
X216380952Y-128835771D01*
X216380952Y-128835771D02*
X216285714Y-128883390D01*
X216285714Y-128883390D02*
X216238095Y-128931009D01*
X216238095Y-128931009D02*
X216190476Y-129026247D01*
D10*
X155666667Y-113409800D02*
X155809524Y-113457419D01*
X155809524Y-113457419D02*
X156047619Y-113457419D01*
X156047619Y-113457419D02*
X156142857Y-113409800D01*
X156142857Y-113409800D02*
X156190476Y-113362180D01*
X156190476Y-113362180D02*
X156238095Y-113266942D01*
X156238095Y-113266942D02*
X156238095Y-113171704D01*
X156238095Y-113171704D02*
X156190476Y-113076466D01*
X156190476Y-113076466D02*
X156142857Y-113028847D01*
X156142857Y-113028847D02*
X156047619Y-112981228D01*
X156047619Y-112981228D02*
X155857143Y-112933609D01*
X155857143Y-112933609D02*
X155761905Y-112885990D01*
X155761905Y-112885990D02*
X155714286Y-112838371D01*
X155714286Y-112838371D02*
X155666667Y-112743133D01*
X155666667Y-112743133D02*
X155666667Y-112647895D01*
X155666667Y-112647895D02*
X155714286Y-112552657D01*
X155714286Y-112552657D02*
X155761905Y-112505038D01*
X155761905Y-112505038D02*
X155857143Y-112457419D01*
X155857143Y-112457419D02*
X156095238Y-112457419D01*
X156095238Y-112457419D02*
X156238095Y-112505038D01*
X156571429Y-112457419D02*
X156809524Y-113457419D01*
X156809524Y-113457419D02*
X157000000Y-112743133D01*
X157000000Y-112743133D02*
X157190476Y-113457419D01*
X157190476Y-113457419D02*
X157428572Y-112457419D01*
X158238095Y-112457419D02*
X158047619Y-112457419D01*
X158047619Y-112457419D02*
X157952381Y-112505038D01*
X157952381Y-112505038D02*
X157904762Y-112552657D01*
X157904762Y-112552657D02*
X157809524Y-112695514D01*
X157809524Y-112695514D02*
X157761905Y-112885990D01*
X157761905Y-112885990D02*
X157761905Y-113266942D01*
X157761905Y-113266942D02*
X157809524Y-113362180D01*
X157809524Y-113362180D02*
X157857143Y-113409800D01*
X157857143Y-113409800D02*
X157952381Y-113457419D01*
X157952381Y-113457419D02*
X158142857Y-113457419D01*
X158142857Y-113457419D02*
X158238095Y-113409800D01*
X158238095Y-113409800D02*
X158285714Y-113362180D01*
X158285714Y-113362180D02*
X158333333Y-113266942D01*
X158333333Y-113266942D02*
X158333333Y-113028847D01*
X158333333Y-113028847D02*
X158285714Y-112933609D01*
X158285714Y-112933609D02*
X158238095Y-112885990D01*
X158238095Y-112885990D02*
X158142857Y-112838371D01*
X158142857Y-112838371D02*
X157952381Y-112838371D01*
X157952381Y-112838371D02*
X157857143Y-112885990D01*
X157857143Y-112885990D02*
X157809524Y-112933609D01*
X157809524Y-112933609D02*
X157761905Y-113028847D01*
X205666667Y-113409800D02*
X205809524Y-113457419D01*
X205809524Y-113457419D02*
X206047619Y-113457419D01*
X206047619Y-113457419D02*
X206142857Y-113409800D01*
X206142857Y-113409800D02*
X206190476Y-113362180D01*
X206190476Y-113362180D02*
X206238095Y-113266942D01*
X206238095Y-113266942D02*
X206238095Y-113171704D01*
X206238095Y-113171704D02*
X206190476Y-113076466D01*
X206190476Y-113076466D02*
X206142857Y-113028847D01*
X206142857Y-113028847D02*
X206047619Y-112981228D01*
X206047619Y-112981228D02*
X205857143Y-112933609D01*
X205857143Y-112933609D02*
X205761905Y-112885990D01*
X205761905Y-112885990D02*
X205714286Y-112838371D01*
X205714286Y-112838371D02*
X205666667Y-112743133D01*
X205666667Y-112743133D02*
X205666667Y-112647895D01*
X205666667Y-112647895D02*
X205714286Y-112552657D01*
X205714286Y-112552657D02*
X205761905Y-112505038D01*
X205761905Y-112505038D02*
X205857143Y-112457419D01*
X205857143Y-112457419D02*
X206095238Y-112457419D01*
X206095238Y-112457419D02*
X206238095Y-112505038D01*
X206571429Y-112457419D02*
X206809524Y-113457419D01*
X206809524Y-113457419D02*
X207000000Y-112743133D01*
X207000000Y-112743133D02*
X207190476Y-113457419D01*
X207190476Y-113457419D02*
X207428572Y-112457419D01*
X207952381Y-112885990D02*
X207857143Y-112838371D01*
X207857143Y-112838371D02*
X207809524Y-112790752D01*
X207809524Y-112790752D02*
X207761905Y-112695514D01*
X207761905Y-112695514D02*
X207761905Y-112647895D01*
X207761905Y-112647895D02*
X207809524Y-112552657D01*
X207809524Y-112552657D02*
X207857143Y-112505038D01*
X207857143Y-112505038D02*
X207952381Y-112457419D01*
X207952381Y-112457419D02*
X208142857Y-112457419D01*
X208142857Y-112457419D02*
X208238095Y-112505038D01*
X208238095Y-112505038D02*
X208285714Y-112552657D01*
X208285714Y-112552657D02*
X208333333Y-112647895D01*
X208333333Y-112647895D02*
X208333333Y-112695514D01*
X208333333Y-112695514D02*
X208285714Y-112790752D01*
X208285714Y-112790752D02*
X208238095Y-112838371D01*
X208238095Y-112838371D02*
X208142857Y-112885990D01*
X208142857Y-112885990D02*
X207952381Y-112885990D01*
X207952381Y-112885990D02*
X207857143Y-112933609D01*
X207857143Y-112933609D02*
X207809524Y-112981228D01*
X207809524Y-112981228D02*
X207761905Y-113076466D01*
X207761905Y-113076466D02*
X207761905Y-113266942D01*
X207761905Y-113266942D02*
X207809524Y-113362180D01*
X207809524Y-113362180D02*
X207857143Y-113409800D01*
X207857143Y-113409800D02*
X207952381Y-113457419D01*
X207952381Y-113457419D02*
X208142857Y-113457419D01*
X208142857Y-113457419D02*
X208238095Y-113409800D01*
X208238095Y-113409800D02*
X208285714Y-113362180D01*
X208285714Y-113362180D02*
X208333333Y-113266942D01*
X208333333Y-113266942D02*
X208333333Y-113076466D01*
X208333333Y-113076466D02*
X208285714Y-112981228D01*
X208285714Y-112981228D02*
X208238095Y-112933609D01*
X208238095Y-112933609D02*
X208142857Y-112885990D01*
D11*
X222804819Y-97230357D02*
X222328628Y-97563690D01*
X222804819Y-97801785D02*
X221804819Y-97801785D01*
X221804819Y-97801785D02*
X221804819Y-97420833D01*
X221804819Y-97420833D02*
X221852438Y-97325595D01*
X221852438Y-97325595D02*
X221900057Y-97277976D01*
X221900057Y-97277976D02*
X221995295Y-97230357D01*
X221995295Y-97230357D02*
X222138152Y-97230357D01*
X222138152Y-97230357D02*
X222233390Y-97277976D01*
X222233390Y-97277976D02*
X222281009Y-97325595D01*
X222281009Y-97325595D02*
X222328628Y-97420833D01*
X222328628Y-97420833D02*
X222328628Y-97801785D01*
X222804819Y-96277976D02*
X222804819Y-96849404D01*
X222804819Y-96563690D02*
X221804819Y-96563690D01*
X221804819Y-96563690D02*
X221947676Y-96658928D01*
X221947676Y-96658928D02*
X222042914Y-96754166D01*
X222042914Y-96754166D02*
X222090533Y-96849404D01*
X221804819Y-95944642D02*
X221804819Y-95277976D01*
X221804819Y-95277976D02*
X222804819Y-95706547D01*
X245883333Y-84359580D02*
X245835714Y-84407200D01*
X245835714Y-84407200D02*
X245692857Y-84454819D01*
X245692857Y-84454819D02*
X245597619Y-84454819D01*
X245597619Y-84454819D02*
X245454762Y-84407200D01*
X245454762Y-84407200D02*
X245359524Y-84311961D01*
X245359524Y-84311961D02*
X245311905Y-84216723D01*
X245311905Y-84216723D02*
X245264286Y-84026247D01*
X245264286Y-84026247D02*
X245264286Y-83883390D01*
X245264286Y-83883390D02*
X245311905Y-83692914D01*
X245311905Y-83692914D02*
X245359524Y-83597676D01*
X245359524Y-83597676D02*
X245454762Y-83502438D01*
X245454762Y-83502438D02*
X245597619Y-83454819D01*
X245597619Y-83454819D02*
X245692857Y-83454819D01*
X245692857Y-83454819D02*
X245835714Y-83502438D01*
X245835714Y-83502438D02*
X245883333Y-83550057D01*
X246264286Y-83550057D02*
X246311905Y-83502438D01*
X246311905Y-83502438D02*
X246407143Y-83454819D01*
X246407143Y-83454819D02*
X246645238Y-83454819D01*
X246645238Y-83454819D02*
X246740476Y-83502438D01*
X246740476Y-83502438D02*
X246788095Y-83550057D01*
X246788095Y-83550057D02*
X246835714Y-83645295D01*
X246835714Y-83645295D02*
X246835714Y-83740533D01*
X246835714Y-83740533D02*
X246788095Y-83883390D01*
X246788095Y-83883390D02*
X246216667Y-84454819D01*
X246216667Y-84454819D02*
X246835714Y-84454819D01*
D10*
X55190476Y-137409800D02*
X55333333Y-137457419D01*
X55333333Y-137457419D02*
X55571428Y-137457419D01*
X55571428Y-137457419D02*
X55666666Y-137409800D01*
X55666666Y-137409800D02*
X55714285Y-137362180D01*
X55714285Y-137362180D02*
X55761904Y-137266942D01*
X55761904Y-137266942D02*
X55761904Y-137171704D01*
X55761904Y-137171704D02*
X55714285Y-137076466D01*
X55714285Y-137076466D02*
X55666666Y-137028847D01*
X55666666Y-137028847D02*
X55571428Y-136981228D01*
X55571428Y-136981228D02*
X55380952Y-136933609D01*
X55380952Y-136933609D02*
X55285714Y-136885990D01*
X55285714Y-136885990D02*
X55238095Y-136838371D01*
X55238095Y-136838371D02*
X55190476Y-136743133D01*
X55190476Y-136743133D02*
X55190476Y-136647895D01*
X55190476Y-136647895D02*
X55238095Y-136552657D01*
X55238095Y-136552657D02*
X55285714Y-136505038D01*
X55285714Y-136505038D02*
X55380952Y-136457419D01*
X55380952Y-136457419D02*
X55619047Y-136457419D01*
X55619047Y-136457419D02*
X55761904Y-136505038D01*
X56095238Y-136457419D02*
X56333333Y-137457419D01*
X56333333Y-137457419D02*
X56523809Y-136743133D01*
X56523809Y-136743133D02*
X56714285Y-137457419D01*
X56714285Y-137457419D02*
X56952381Y-136457419D01*
X57857142Y-137457419D02*
X57285714Y-137457419D01*
X57571428Y-137457419D02*
X57571428Y-136457419D01*
X57571428Y-136457419D02*
X57476190Y-136600276D01*
X57476190Y-136600276D02*
X57380952Y-136695514D01*
X57380952Y-136695514D02*
X57285714Y-136743133D01*
X58476190Y-136457419D02*
X58571428Y-136457419D01*
X58571428Y-136457419D02*
X58666666Y-136505038D01*
X58666666Y-136505038D02*
X58714285Y-136552657D01*
X58714285Y-136552657D02*
X58761904Y-136647895D01*
X58761904Y-136647895D02*
X58809523Y-136838371D01*
X58809523Y-136838371D02*
X58809523Y-137076466D01*
X58809523Y-137076466D02*
X58761904Y-137266942D01*
X58761904Y-137266942D02*
X58714285Y-137362180D01*
X58714285Y-137362180D02*
X58666666Y-137409800D01*
X58666666Y-137409800D02*
X58571428Y-137457419D01*
X58571428Y-137457419D02*
X58476190Y-137457419D01*
X58476190Y-137457419D02*
X58380952Y-137409800D01*
X58380952Y-137409800D02*
X58333333Y-137362180D01*
X58333333Y-137362180D02*
X58285714Y-137266942D01*
X58285714Y-137266942D02*
X58238095Y-137076466D01*
X58238095Y-137076466D02*
X58238095Y-136838371D01*
X58238095Y-136838371D02*
X58285714Y-136647895D01*
X58285714Y-136647895D02*
X58333333Y-136552657D01*
X58333333Y-136552657D02*
X58380952Y-136505038D01*
X58380952Y-136505038D02*
X58476190Y-136457419D01*
X230190476Y-113409800D02*
X230333333Y-113457419D01*
X230333333Y-113457419D02*
X230571428Y-113457419D01*
X230571428Y-113457419D02*
X230666666Y-113409800D01*
X230666666Y-113409800D02*
X230714285Y-113362180D01*
X230714285Y-113362180D02*
X230761904Y-113266942D01*
X230761904Y-113266942D02*
X230761904Y-113171704D01*
X230761904Y-113171704D02*
X230714285Y-113076466D01*
X230714285Y-113076466D02*
X230666666Y-113028847D01*
X230666666Y-113028847D02*
X230571428Y-112981228D01*
X230571428Y-112981228D02*
X230380952Y-112933609D01*
X230380952Y-112933609D02*
X230285714Y-112885990D01*
X230285714Y-112885990D02*
X230238095Y-112838371D01*
X230238095Y-112838371D02*
X230190476Y-112743133D01*
X230190476Y-112743133D02*
X230190476Y-112647895D01*
X230190476Y-112647895D02*
X230238095Y-112552657D01*
X230238095Y-112552657D02*
X230285714Y-112505038D01*
X230285714Y-112505038D02*
X230380952Y-112457419D01*
X230380952Y-112457419D02*
X230619047Y-112457419D01*
X230619047Y-112457419D02*
X230761904Y-112505038D01*
X231095238Y-112457419D02*
X231333333Y-113457419D01*
X231333333Y-113457419D02*
X231523809Y-112743133D01*
X231523809Y-112743133D02*
X231714285Y-113457419D01*
X231714285Y-113457419D02*
X231952381Y-112457419D01*
X232857142Y-113457419D02*
X232285714Y-113457419D01*
X232571428Y-113457419D02*
X232571428Y-112457419D01*
X232571428Y-112457419D02*
X232476190Y-112600276D01*
X232476190Y-112600276D02*
X232380952Y-112695514D01*
X232380952Y-112695514D02*
X232285714Y-112743133D01*
X233190476Y-112457419D02*
X233857142Y-112457419D01*
X233857142Y-112457419D02*
X233428571Y-113457419D01*
D11*
X122804819Y-119142857D02*
X122328628Y-119476190D01*
X122804819Y-119714285D02*
X121804819Y-119714285D01*
X121804819Y-119714285D02*
X121804819Y-119333333D01*
X121804819Y-119333333D02*
X121852438Y-119238095D01*
X121852438Y-119238095D02*
X121900057Y-119190476D01*
X121900057Y-119190476D02*
X121995295Y-119142857D01*
X121995295Y-119142857D02*
X122138152Y-119142857D01*
X122138152Y-119142857D02*
X122233390Y-119190476D01*
X122233390Y-119190476D02*
X122281009Y-119238095D01*
X122281009Y-119238095D02*
X122328628Y-119333333D01*
X122328628Y-119333333D02*
X122328628Y-119714285D01*
X122804819Y-118190476D02*
X122804819Y-118761904D01*
X122804819Y-118476190D02*
X121804819Y-118476190D01*
X121804819Y-118476190D02*
X121947676Y-118571428D01*
X121947676Y-118571428D02*
X122042914Y-118666666D01*
X122042914Y-118666666D02*
X122090533Y-118761904D01*
X121804819Y-117857142D02*
X121804819Y-117238095D01*
X121804819Y-117238095D02*
X122185771Y-117571428D01*
X122185771Y-117571428D02*
X122185771Y-117428571D01*
X122185771Y-117428571D02*
X122233390Y-117333333D01*
X122233390Y-117333333D02*
X122281009Y-117285714D01*
X122281009Y-117285714D02*
X122376247Y-117238095D01*
X122376247Y-117238095D02*
X122614342Y-117238095D01*
X122614342Y-117238095D02*
X122709580Y-117285714D01*
X122709580Y-117285714D02*
X122757200Y-117333333D01*
X122757200Y-117333333D02*
X122804819Y-117428571D01*
X122804819Y-117428571D02*
X122804819Y-117714285D01*
X122804819Y-117714285D02*
X122757200Y-117809523D01*
X122757200Y-117809523D02*
X122709580Y-117857142D01*
X220857142Y-131454819D02*
X220523809Y-130978628D01*
X220285714Y-131454819D02*
X220285714Y-130454819D01*
X220285714Y-130454819D02*
X220666666Y-130454819D01*
X220666666Y-130454819D02*
X220761904Y-130502438D01*
X220761904Y-130502438D02*
X220809523Y-130550057D01*
X220809523Y-130550057D02*
X220857142Y-130645295D01*
X220857142Y-130645295D02*
X220857142Y-130788152D01*
X220857142Y-130788152D02*
X220809523Y-130883390D01*
X220809523Y-130883390D02*
X220761904Y-130931009D01*
X220761904Y-130931009D02*
X220666666Y-130978628D01*
X220666666Y-130978628D02*
X220285714Y-130978628D01*
X221190476Y-130454819D02*
X221809523Y-130454819D01*
X221809523Y-130454819D02*
X221476190Y-130835771D01*
X221476190Y-130835771D02*
X221619047Y-130835771D01*
X221619047Y-130835771D02*
X221714285Y-130883390D01*
X221714285Y-130883390D02*
X221761904Y-130931009D01*
X221761904Y-130931009D02*
X221809523Y-131026247D01*
X221809523Y-131026247D02*
X221809523Y-131264342D01*
X221809523Y-131264342D02*
X221761904Y-131359580D01*
X221761904Y-131359580D02*
X221714285Y-131407200D01*
X221714285Y-131407200D02*
X221619047Y-131454819D01*
X221619047Y-131454819D02*
X221333333Y-131454819D01*
X221333333Y-131454819D02*
X221238095Y-131407200D01*
X221238095Y-131407200D02*
X221190476Y-131359580D01*
X222190476Y-130550057D02*
X222238095Y-130502438D01*
X222238095Y-130502438D02*
X222333333Y-130454819D01*
X222333333Y-130454819D02*
X222571428Y-130454819D01*
X222571428Y-130454819D02*
X222666666Y-130502438D01*
X222666666Y-130502438D02*
X222714285Y-130550057D01*
X222714285Y-130550057D02*
X222761904Y-130645295D01*
X222761904Y-130645295D02*
X222761904Y-130740533D01*
X222761904Y-130740533D02*
X222714285Y-130883390D01*
X222714285Y-130883390D02*
X222142857Y-131454819D01*
X222142857Y-131454819D02*
X222761904Y-131454819D01*
X265454819Y-99714285D02*
X264454819Y-99714285D01*
X264454819Y-99714285D02*
X264454819Y-99476190D01*
X264454819Y-99476190D02*
X264502438Y-99333333D01*
X264502438Y-99333333D02*
X264597676Y-99238095D01*
X264597676Y-99238095D02*
X264692914Y-99190476D01*
X264692914Y-99190476D02*
X264883390Y-99142857D01*
X264883390Y-99142857D02*
X265026247Y-99142857D01*
X265026247Y-99142857D02*
X265216723Y-99190476D01*
X265216723Y-99190476D02*
X265311961Y-99238095D01*
X265311961Y-99238095D02*
X265407200Y-99333333D01*
X265407200Y-99333333D02*
X265454819Y-99476190D01*
X265454819Y-99476190D02*
X265454819Y-99714285D01*
X265454819Y-98190476D02*
X265454819Y-98761904D01*
X265454819Y-98476190D02*
X264454819Y-98476190D01*
X264454819Y-98476190D02*
X264597676Y-98571428D01*
X264597676Y-98571428D02*
X264692914Y-98666666D01*
X264692914Y-98666666D02*
X264740533Y-98761904D01*
X264883390Y-97619047D02*
X264835771Y-97714285D01*
X264835771Y-97714285D02*
X264788152Y-97761904D01*
X264788152Y-97761904D02*
X264692914Y-97809523D01*
X264692914Y-97809523D02*
X264645295Y-97809523D01*
X264645295Y-97809523D02*
X264550057Y-97761904D01*
X264550057Y-97761904D02*
X264502438Y-97714285D01*
X264502438Y-97714285D02*
X264454819Y-97619047D01*
X264454819Y-97619047D02*
X264454819Y-97428571D01*
X264454819Y-97428571D02*
X264502438Y-97333333D01*
X264502438Y-97333333D02*
X264550057Y-97285714D01*
X264550057Y-97285714D02*
X264645295Y-97238095D01*
X264645295Y-97238095D02*
X264692914Y-97238095D01*
X264692914Y-97238095D02*
X264788152Y-97285714D01*
X264788152Y-97285714D02*
X264835771Y-97333333D01*
X264835771Y-97333333D02*
X264883390Y-97428571D01*
X264883390Y-97428571D02*
X264883390Y-97619047D01*
X264883390Y-97619047D02*
X264931009Y-97714285D01*
X264931009Y-97714285D02*
X264978628Y-97761904D01*
X264978628Y-97761904D02*
X265073866Y-97809523D01*
X265073866Y-97809523D02*
X265264342Y-97809523D01*
X265264342Y-97809523D02*
X265359580Y-97761904D01*
X265359580Y-97761904D02*
X265407200Y-97714285D01*
X265407200Y-97714285D02*
X265454819Y-97619047D01*
X265454819Y-97619047D02*
X265454819Y-97428571D01*
X265454819Y-97428571D02*
X265407200Y-97333333D01*
X265407200Y-97333333D02*
X265359580Y-97285714D01*
X265359580Y-97285714D02*
X265264342Y-97238095D01*
X265264342Y-97238095D02*
X265073866Y-97238095D01*
X265073866Y-97238095D02*
X264978628Y-97285714D01*
X264978628Y-97285714D02*
X264931009Y-97333333D01*
X264931009Y-97333333D02*
X264883390Y-97428571D01*
X258509818Y-89611904D02*
X259319341Y-89611904D01*
X259319341Y-89611904D02*
X259414579Y-89564285D01*
X259414579Y-89564285D02*
X259462199Y-89516666D01*
X259462199Y-89516666D02*
X259509818Y-89421428D01*
X259509818Y-89421428D02*
X259509818Y-89230952D01*
X259509818Y-89230952D02*
X259462199Y-89135714D01*
X259462199Y-89135714D02*
X259414579Y-89088095D01*
X259414579Y-89088095D02*
X259319341Y-89040476D01*
X259319341Y-89040476D02*
X258509818Y-89040476D01*
X258605056Y-88611904D02*
X258557437Y-88564285D01*
X258557437Y-88564285D02*
X258509818Y-88469047D01*
X258509818Y-88469047D02*
X258509818Y-88230952D01*
X258509818Y-88230952D02*
X258557437Y-88135714D01*
X258557437Y-88135714D02*
X258605056Y-88088095D01*
X258605056Y-88088095D02*
X258700294Y-88040476D01*
X258700294Y-88040476D02*
X258795532Y-88040476D01*
X258795532Y-88040476D02*
X258938389Y-88088095D01*
X258938389Y-88088095D02*
X259509818Y-88659523D01*
X259509818Y-88659523D02*
X259509818Y-88040476D01*
D10*
X130666667Y-113409800D02*
X130809524Y-113457419D01*
X130809524Y-113457419D02*
X131047619Y-113457419D01*
X131047619Y-113457419D02*
X131142857Y-113409800D01*
X131142857Y-113409800D02*
X131190476Y-113362180D01*
X131190476Y-113362180D02*
X131238095Y-113266942D01*
X131238095Y-113266942D02*
X131238095Y-113171704D01*
X131238095Y-113171704D02*
X131190476Y-113076466D01*
X131190476Y-113076466D02*
X131142857Y-113028847D01*
X131142857Y-113028847D02*
X131047619Y-112981228D01*
X131047619Y-112981228D02*
X130857143Y-112933609D01*
X130857143Y-112933609D02*
X130761905Y-112885990D01*
X130761905Y-112885990D02*
X130714286Y-112838371D01*
X130714286Y-112838371D02*
X130666667Y-112743133D01*
X130666667Y-112743133D02*
X130666667Y-112647895D01*
X130666667Y-112647895D02*
X130714286Y-112552657D01*
X130714286Y-112552657D02*
X130761905Y-112505038D01*
X130761905Y-112505038D02*
X130857143Y-112457419D01*
X130857143Y-112457419D02*
X131095238Y-112457419D01*
X131095238Y-112457419D02*
X131238095Y-112505038D01*
X131571429Y-112457419D02*
X131809524Y-113457419D01*
X131809524Y-113457419D02*
X132000000Y-112743133D01*
X132000000Y-112743133D02*
X132190476Y-113457419D01*
X132190476Y-113457419D02*
X132428572Y-112457419D01*
X133285714Y-112457419D02*
X132809524Y-112457419D01*
X132809524Y-112457419D02*
X132761905Y-112933609D01*
X132761905Y-112933609D02*
X132809524Y-112885990D01*
X132809524Y-112885990D02*
X132904762Y-112838371D01*
X132904762Y-112838371D02*
X133142857Y-112838371D01*
X133142857Y-112838371D02*
X133238095Y-112885990D01*
X133238095Y-112885990D02*
X133285714Y-112933609D01*
X133285714Y-112933609D02*
X133333333Y-113028847D01*
X133333333Y-113028847D02*
X133333333Y-113266942D01*
X133333333Y-113266942D02*
X133285714Y-113362180D01*
X133285714Y-113362180D02*
X133238095Y-113409800D01*
X133238095Y-113409800D02*
X133142857Y-113457419D01*
X133142857Y-113457419D02*
X132904762Y-113457419D01*
X132904762Y-113457419D02*
X132809524Y-113409800D01*
X132809524Y-113409800D02*
X132761905Y-113362180D01*
D11*
X39761905Y-129454819D02*
X39761905Y-128454819D01*
X39761905Y-128454819D02*
X40000000Y-128454819D01*
X40000000Y-128454819D02*
X40142857Y-128502438D01*
X40142857Y-128502438D02*
X40238095Y-128597676D01*
X40238095Y-128597676D02*
X40285714Y-128692914D01*
X40285714Y-128692914D02*
X40333333Y-128883390D01*
X40333333Y-128883390D02*
X40333333Y-129026247D01*
X40333333Y-129026247D02*
X40285714Y-129216723D01*
X40285714Y-129216723D02*
X40238095Y-129311961D01*
X40238095Y-129311961D02*
X40142857Y-129407200D01*
X40142857Y-129407200D02*
X40000000Y-129454819D01*
X40000000Y-129454819D02*
X39761905Y-129454819D01*
X40809524Y-129454819D02*
X41000000Y-129454819D01*
X41000000Y-129454819D02*
X41095238Y-129407200D01*
X41095238Y-129407200D02*
X41142857Y-129359580D01*
X41142857Y-129359580D02*
X41238095Y-129216723D01*
X41238095Y-129216723D02*
X41285714Y-129026247D01*
X41285714Y-129026247D02*
X41285714Y-128645295D01*
X41285714Y-128645295D02*
X41238095Y-128550057D01*
X41238095Y-128550057D02*
X41190476Y-128502438D01*
X41190476Y-128502438D02*
X41095238Y-128454819D01*
X41095238Y-128454819D02*
X40904762Y-128454819D01*
X40904762Y-128454819D02*
X40809524Y-128502438D01*
X40809524Y-128502438D02*
X40761905Y-128550057D01*
X40761905Y-128550057D02*
X40714286Y-128645295D01*
X40714286Y-128645295D02*
X40714286Y-128883390D01*
X40714286Y-128883390D02*
X40761905Y-128978628D01*
X40761905Y-128978628D02*
X40809524Y-129026247D01*
X40809524Y-129026247D02*
X40904762Y-129073866D01*
X40904762Y-129073866D02*
X41095238Y-129073866D01*
X41095238Y-129073866D02*
X41190476Y-129026247D01*
X41190476Y-129026247D02*
X41238095Y-128978628D01*
X41238095Y-128978628D02*
X41285714Y-128883390D01*
X122804819Y-94666666D02*
X122328628Y-94999999D01*
X122804819Y-95238094D02*
X121804819Y-95238094D01*
X121804819Y-95238094D02*
X121804819Y-94857142D01*
X121804819Y-94857142D02*
X121852438Y-94761904D01*
X121852438Y-94761904D02*
X121900057Y-94714285D01*
X121900057Y-94714285D02*
X121995295Y-94666666D01*
X121995295Y-94666666D02*
X122138152Y-94666666D01*
X122138152Y-94666666D02*
X122233390Y-94714285D01*
X122233390Y-94714285D02*
X122281009Y-94761904D01*
X122281009Y-94761904D02*
X122328628Y-94857142D01*
X122328628Y-94857142D02*
X122328628Y-95238094D01*
X121804819Y-93761904D02*
X121804819Y-94238094D01*
X121804819Y-94238094D02*
X122281009Y-94285713D01*
X122281009Y-94285713D02*
X122233390Y-94238094D01*
X122233390Y-94238094D02*
X122185771Y-94142856D01*
X122185771Y-94142856D02*
X122185771Y-93904761D01*
X122185771Y-93904761D02*
X122233390Y-93809523D01*
X122233390Y-93809523D02*
X122281009Y-93761904D01*
X122281009Y-93761904D02*
X122376247Y-93714285D01*
X122376247Y-93714285D02*
X122614342Y-93714285D01*
X122614342Y-93714285D02*
X122709580Y-93761904D01*
X122709580Y-93761904D02*
X122757200Y-93809523D01*
X122757200Y-93809523D02*
X122804819Y-93904761D01*
X122804819Y-93904761D02*
X122804819Y-94142856D01*
X122804819Y-94142856D02*
X122757200Y-94238094D01*
X122757200Y-94238094D02*
X122709580Y-94285713D01*
X74954819Y-135730357D02*
X74478628Y-136063690D01*
X74954819Y-136301785D02*
X73954819Y-136301785D01*
X73954819Y-136301785D02*
X73954819Y-135920833D01*
X73954819Y-135920833D02*
X74002438Y-135825595D01*
X74002438Y-135825595D02*
X74050057Y-135777976D01*
X74050057Y-135777976D02*
X74145295Y-135730357D01*
X74145295Y-135730357D02*
X74288152Y-135730357D01*
X74288152Y-135730357D02*
X74383390Y-135777976D01*
X74383390Y-135777976D02*
X74431009Y-135825595D01*
X74431009Y-135825595D02*
X74478628Y-135920833D01*
X74478628Y-135920833D02*
X74478628Y-136301785D01*
X74050057Y-135349404D02*
X74002438Y-135301785D01*
X74002438Y-135301785D02*
X73954819Y-135206547D01*
X73954819Y-135206547D02*
X73954819Y-134968452D01*
X73954819Y-134968452D02*
X74002438Y-134873214D01*
X74002438Y-134873214D02*
X74050057Y-134825595D01*
X74050057Y-134825595D02*
X74145295Y-134777976D01*
X74145295Y-134777976D02*
X74240533Y-134777976D01*
X74240533Y-134777976D02*
X74383390Y-134825595D01*
X74383390Y-134825595D02*
X74954819Y-135397023D01*
X74954819Y-135397023D02*
X74954819Y-134777976D01*
X73954819Y-133920833D02*
X73954819Y-134111309D01*
X73954819Y-134111309D02*
X74002438Y-134206547D01*
X74002438Y-134206547D02*
X74050057Y-134254166D01*
X74050057Y-134254166D02*
X74192914Y-134349404D01*
X74192914Y-134349404D02*
X74383390Y-134397023D01*
X74383390Y-134397023D02*
X74764342Y-134397023D01*
X74764342Y-134397023D02*
X74859580Y-134349404D01*
X74859580Y-134349404D02*
X74907200Y-134301785D01*
X74907200Y-134301785D02*
X74954819Y-134206547D01*
X74954819Y-134206547D02*
X74954819Y-134016071D01*
X74954819Y-134016071D02*
X74907200Y-133920833D01*
X74907200Y-133920833D02*
X74859580Y-133873214D01*
X74859580Y-133873214D02*
X74764342Y-133825595D01*
X74764342Y-133825595D02*
X74526247Y-133825595D01*
X74526247Y-133825595D02*
X74431009Y-133873214D01*
X74431009Y-133873214D02*
X74383390Y-133920833D01*
X74383390Y-133920833D02*
X74335771Y-134016071D01*
X74335771Y-134016071D02*
X74335771Y-134206547D01*
X74335771Y-134206547D02*
X74383390Y-134301785D01*
X74383390Y-134301785D02*
X74431009Y-134349404D01*
X74431009Y-134349404D02*
X74526247Y-134397023D01*
X172804819Y-119142857D02*
X172328628Y-119476190D01*
X172804819Y-119714285D02*
X171804819Y-119714285D01*
X171804819Y-119714285D02*
X171804819Y-119333333D01*
X171804819Y-119333333D02*
X171852438Y-119238095D01*
X171852438Y-119238095D02*
X171900057Y-119190476D01*
X171900057Y-119190476D02*
X171995295Y-119142857D01*
X171995295Y-119142857D02*
X172138152Y-119142857D01*
X172138152Y-119142857D02*
X172233390Y-119190476D01*
X172233390Y-119190476D02*
X172281009Y-119238095D01*
X172281009Y-119238095D02*
X172328628Y-119333333D01*
X172328628Y-119333333D02*
X172328628Y-119714285D01*
X172804819Y-118190476D02*
X172804819Y-118761904D01*
X172804819Y-118476190D02*
X171804819Y-118476190D01*
X171804819Y-118476190D02*
X171947676Y-118571428D01*
X171947676Y-118571428D02*
X172042914Y-118666666D01*
X172042914Y-118666666D02*
X172090533Y-118761904D01*
X171804819Y-117285714D02*
X171804819Y-117761904D01*
X171804819Y-117761904D02*
X172281009Y-117809523D01*
X172281009Y-117809523D02*
X172233390Y-117761904D01*
X172233390Y-117761904D02*
X172185771Y-117666666D01*
X172185771Y-117666666D02*
X172185771Y-117428571D01*
X172185771Y-117428571D02*
X172233390Y-117333333D01*
X172233390Y-117333333D02*
X172281009Y-117285714D01*
X172281009Y-117285714D02*
X172376247Y-117238095D01*
X172376247Y-117238095D02*
X172614342Y-117238095D01*
X172614342Y-117238095D02*
X172709580Y-117285714D01*
X172709580Y-117285714D02*
X172757200Y-117333333D01*
X172757200Y-117333333D02*
X172804819Y-117428571D01*
X172804819Y-117428571D02*
X172804819Y-117666666D01*
X172804819Y-117666666D02*
X172757200Y-117761904D01*
X172757200Y-117761904D02*
X172709580Y-117809523D01*
X47804819Y-119142857D02*
X47328628Y-119476190D01*
X47804819Y-119714285D02*
X46804819Y-119714285D01*
X46804819Y-119714285D02*
X46804819Y-119333333D01*
X46804819Y-119333333D02*
X46852438Y-119238095D01*
X46852438Y-119238095D02*
X46900057Y-119190476D01*
X46900057Y-119190476D02*
X46995295Y-119142857D01*
X46995295Y-119142857D02*
X47138152Y-119142857D01*
X47138152Y-119142857D02*
X47233390Y-119190476D01*
X47233390Y-119190476D02*
X47281009Y-119238095D01*
X47281009Y-119238095D02*
X47328628Y-119333333D01*
X47328628Y-119333333D02*
X47328628Y-119714285D01*
X47804819Y-118190476D02*
X47804819Y-118761904D01*
X47804819Y-118476190D02*
X46804819Y-118476190D01*
X46804819Y-118476190D02*
X46947676Y-118571428D01*
X46947676Y-118571428D02*
X47042914Y-118666666D01*
X47042914Y-118666666D02*
X47090533Y-118761904D01*
X46804819Y-117571428D02*
X46804819Y-117476190D01*
X46804819Y-117476190D02*
X46852438Y-117380952D01*
X46852438Y-117380952D02*
X46900057Y-117333333D01*
X46900057Y-117333333D02*
X46995295Y-117285714D01*
X46995295Y-117285714D02*
X47185771Y-117238095D01*
X47185771Y-117238095D02*
X47423866Y-117238095D01*
X47423866Y-117238095D02*
X47614342Y-117285714D01*
X47614342Y-117285714D02*
X47709580Y-117333333D01*
X47709580Y-117333333D02*
X47757200Y-117380952D01*
X47757200Y-117380952D02*
X47804819Y-117476190D01*
X47804819Y-117476190D02*
X47804819Y-117571428D01*
X47804819Y-117571428D02*
X47757200Y-117666666D01*
X47757200Y-117666666D02*
X47709580Y-117714285D01*
X47709580Y-117714285D02*
X47614342Y-117761904D01*
X47614342Y-117761904D02*
X47423866Y-117809523D01*
X47423866Y-117809523D02*
X47185771Y-117809523D01*
X47185771Y-117809523D02*
X46995295Y-117761904D01*
X46995295Y-117761904D02*
X46900057Y-117714285D01*
X46900057Y-117714285D02*
X46852438Y-117666666D01*
X46852438Y-117666666D02*
X46804819Y-117571428D01*
D10*
X180190476Y-137409800D02*
X180333333Y-137457419D01*
X180333333Y-137457419D02*
X180571428Y-137457419D01*
X180571428Y-137457419D02*
X180666666Y-137409800D01*
X180666666Y-137409800D02*
X180714285Y-137362180D01*
X180714285Y-137362180D02*
X180761904Y-137266942D01*
X180761904Y-137266942D02*
X180761904Y-137171704D01*
X180761904Y-137171704D02*
X180714285Y-137076466D01*
X180714285Y-137076466D02*
X180666666Y-137028847D01*
X180666666Y-137028847D02*
X180571428Y-136981228D01*
X180571428Y-136981228D02*
X180380952Y-136933609D01*
X180380952Y-136933609D02*
X180285714Y-136885990D01*
X180285714Y-136885990D02*
X180238095Y-136838371D01*
X180238095Y-136838371D02*
X180190476Y-136743133D01*
X180190476Y-136743133D02*
X180190476Y-136647895D01*
X180190476Y-136647895D02*
X180238095Y-136552657D01*
X180238095Y-136552657D02*
X180285714Y-136505038D01*
X180285714Y-136505038D02*
X180380952Y-136457419D01*
X180380952Y-136457419D02*
X180619047Y-136457419D01*
X180619047Y-136457419D02*
X180761904Y-136505038D01*
X181095238Y-136457419D02*
X181333333Y-137457419D01*
X181333333Y-137457419D02*
X181523809Y-136743133D01*
X181523809Y-136743133D02*
X181714285Y-137457419D01*
X181714285Y-137457419D02*
X181952381Y-136457419D01*
X182857142Y-137457419D02*
X182285714Y-137457419D01*
X182571428Y-137457419D02*
X182571428Y-136457419D01*
X182571428Y-136457419D02*
X182476190Y-136600276D01*
X182476190Y-136600276D02*
X182380952Y-136695514D01*
X182380952Y-136695514D02*
X182285714Y-136743133D01*
X183761904Y-136457419D02*
X183285714Y-136457419D01*
X183285714Y-136457419D02*
X183238095Y-136933609D01*
X183238095Y-136933609D02*
X183285714Y-136885990D01*
X183285714Y-136885990D02*
X183380952Y-136838371D01*
X183380952Y-136838371D02*
X183619047Y-136838371D01*
X183619047Y-136838371D02*
X183714285Y-136885990D01*
X183714285Y-136885990D02*
X183761904Y-136933609D01*
X183761904Y-136933609D02*
X183809523Y-137028847D01*
X183809523Y-137028847D02*
X183809523Y-137266942D01*
X183809523Y-137266942D02*
X183761904Y-137362180D01*
X183761904Y-137362180D02*
X183714285Y-137409800D01*
X183714285Y-137409800D02*
X183619047Y-137457419D01*
X183619047Y-137457419D02*
X183380952Y-137457419D01*
X183380952Y-137457419D02*
X183285714Y-137409800D01*
X183285714Y-137409800D02*
X183238095Y-137362180D01*
X155190476Y-137409800D02*
X155333333Y-137457419D01*
X155333333Y-137457419D02*
X155571428Y-137457419D01*
X155571428Y-137457419D02*
X155666666Y-137409800D01*
X155666666Y-137409800D02*
X155714285Y-137362180D01*
X155714285Y-137362180D02*
X155761904Y-137266942D01*
X155761904Y-137266942D02*
X155761904Y-137171704D01*
X155761904Y-137171704D02*
X155714285Y-137076466D01*
X155714285Y-137076466D02*
X155666666Y-137028847D01*
X155666666Y-137028847D02*
X155571428Y-136981228D01*
X155571428Y-136981228D02*
X155380952Y-136933609D01*
X155380952Y-136933609D02*
X155285714Y-136885990D01*
X155285714Y-136885990D02*
X155238095Y-136838371D01*
X155238095Y-136838371D02*
X155190476Y-136743133D01*
X155190476Y-136743133D02*
X155190476Y-136647895D01*
X155190476Y-136647895D02*
X155238095Y-136552657D01*
X155238095Y-136552657D02*
X155285714Y-136505038D01*
X155285714Y-136505038D02*
X155380952Y-136457419D01*
X155380952Y-136457419D02*
X155619047Y-136457419D01*
X155619047Y-136457419D02*
X155761904Y-136505038D01*
X156095238Y-136457419D02*
X156333333Y-137457419D01*
X156333333Y-137457419D02*
X156523809Y-136743133D01*
X156523809Y-136743133D02*
X156714285Y-137457419D01*
X156714285Y-137457419D02*
X156952381Y-136457419D01*
X157857142Y-137457419D02*
X157285714Y-137457419D01*
X157571428Y-137457419D02*
X157571428Y-136457419D01*
X157571428Y-136457419D02*
X157476190Y-136600276D01*
X157476190Y-136600276D02*
X157380952Y-136695514D01*
X157380952Y-136695514D02*
X157285714Y-136743133D01*
X158714285Y-136790752D02*
X158714285Y-137457419D01*
X158476190Y-136409800D02*
X158238095Y-137124085D01*
X158238095Y-137124085D02*
X158857142Y-137124085D01*
D11*
X239285714Y-105454819D02*
X239285714Y-104454819D01*
X239285714Y-104454819D02*
X239523809Y-104454819D01*
X239523809Y-104454819D02*
X239666666Y-104502438D01*
X239666666Y-104502438D02*
X239761904Y-104597676D01*
X239761904Y-104597676D02*
X239809523Y-104692914D01*
X239809523Y-104692914D02*
X239857142Y-104883390D01*
X239857142Y-104883390D02*
X239857142Y-105026247D01*
X239857142Y-105026247D02*
X239809523Y-105216723D01*
X239809523Y-105216723D02*
X239761904Y-105311961D01*
X239761904Y-105311961D02*
X239666666Y-105407200D01*
X239666666Y-105407200D02*
X239523809Y-105454819D01*
X239523809Y-105454819D02*
X239285714Y-105454819D01*
X240809523Y-105454819D02*
X240238095Y-105454819D01*
X240523809Y-105454819D02*
X240523809Y-104454819D01*
X240523809Y-104454819D02*
X240428571Y-104597676D01*
X240428571Y-104597676D02*
X240333333Y-104692914D01*
X240333333Y-104692914D02*
X240238095Y-104740533D01*
X241142857Y-104454819D02*
X241809523Y-104454819D01*
X241809523Y-104454819D02*
X241380952Y-105454819D01*
X114761905Y-105454819D02*
X114761905Y-104454819D01*
X114761905Y-104454819D02*
X115000000Y-104454819D01*
X115000000Y-104454819D02*
X115142857Y-104502438D01*
X115142857Y-104502438D02*
X115238095Y-104597676D01*
X115238095Y-104597676D02*
X115285714Y-104692914D01*
X115285714Y-104692914D02*
X115333333Y-104883390D01*
X115333333Y-104883390D02*
X115333333Y-105026247D01*
X115333333Y-105026247D02*
X115285714Y-105216723D01*
X115285714Y-105216723D02*
X115238095Y-105311961D01*
X115238095Y-105311961D02*
X115142857Y-105407200D01*
X115142857Y-105407200D02*
X115000000Y-105454819D01*
X115000000Y-105454819D02*
X114761905Y-105454819D01*
X116190476Y-104788152D02*
X116190476Y-105454819D01*
X115952381Y-104407200D02*
X115714286Y-105121485D01*
X115714286Y-105121485D02*
X116333333Y-105121485D01*
X242454819Y-142761904D02*
X243264342Y-142761904D01*
X243264342Y-142761904D02*
X243359580Y-142714285D01*
X243359580Y-142714285D02*
X243407200Y-142666666D01*
X243407200Y-142666666D02*
X243454819Y-142571428D01*
X243454819Y-142571428D02*
X243454819Y-142380952D01*
X243454819Y-142380952D02*
X243407200Y-142285714D01*
X243407200Y-142285714D02*
X243359580Y-142238095D01*
X243359580Y-142238095D02*
X243264342Y-142190476D01*
X243264342Y-142190476D02*
X242454819Y-142190476D01*
X242454819Y-141809523D02*
X242454819Y-141190476D01*
X242454819Y-141190476D02*
X242835771Y-141523809D01*
X242835771Y-141523809D02*
X242835771Y-141380952D01*
X242835771Y-141380952D02*
X242883390Y-141285714D01*
X242883390Y-141285714D02*
X242931009Y-141238095D01*
X242931009Y-141238095D02*
X243026247Y-141190476D01*
X243026247Y-141190476D02*
X243264342Y-141190476D01*
X243264342Y-141190476D02*
X243359580Y-141238095D01*
X243359580Y-141238095D02*
X243407200Y-141285714D01*
X243407200Y-141285714D02*
X243454819Y-141380952D01*
X243454819Y-141380952D02*
X243454819Y-141666666D01*
X243454819Y-141666666D02*
X243407200Y-141761904D01*
X243407200Y-141761904D02*
X243359580Y-141809523D01*
X174954819Y-136142857D02*
X174478628Y-136476190D01*
X174954819Y-136714285D02*
X173954819Y-136714285D01*
X173954819Y-136714285D02*
X173954819Y-136333333D01*
X173954819Y-136333333D02*
X174002438Y-136238095D01*
X174002438Y-136238095D02*
X174050057Y-136190476D01*
X174050057Y-136190476D02*
X174145295Y-136142857D01*
X174145295Y-136142857D02*
X174288152Y-136142857D01*
X174288152Y-136142857D02*
X174383390Y-136190476D01*
X174383390Y-136190476D02*
X174431009Y-136238095D01*
X174431009Y-136238095D02*
X174478628Y-136333333D01*
X174478628Y-136333333D02*
X174478628Y-136714285D01*
X173954819Y-135809523D02*
X173954819Y-135190476D01*
X173954819Y-135190476D02*
X174335771Y-135523809D01*
X174335771Y-135523809D02*
X174335771Y-135380952D01*
X174335771Y-135380952D02*
X174383390Y-135285714D01*
X174383390Y-135285714D02*
X174431009Y-135238095D01*
X174431009Y-135238095D02*
X174526247Y-135190476D01*
X174526247Y-135190476D02*
X174764342Y-135190476D01*
X174764342Y-135190476D02*
X174859580Y-135238095D01*
X174859580Y-135238095D02*
X174907200Y-135285714D01*
X174907200Y-135285714D02*
X174954819Y-135380952D01*
X174954819Y-135380952D02*
X174954819Y-135666666D01*
X174954819Y-135666666D02*
X174907200Y-135761904D01*
X174907200Y-135761904D02*
X174859580Y-135809523D01*
X173954819Y-134571428D02*
X173954819Y-134476190D01*
X173954819Y-134476190D02*
X174002438Y-134380952D01*
X174002438Y-134380952D02*
X174050057Y-134333333D01*
X174050057Y-134333333D02*
X174145295Y-134285714D01*
X174145295Y-134285714D02*
X174335771Y-134238095D01*
X174335771Y-134238095D02*
X174573866Y-134238095D01*
X174573866Y-134238095D02*
X174764342Y-134285714D01*
X174764342Y-134285714D02*
X174859580Y-134333333D01*
X174859580Y-134333333D02*
X174907200Y-134380952D01*
X174907200Y-134380952D02*
X174954819Y-134476190D01*
X174954819Y-134476190D02*
X174954819Y-134571428D01*
X174954819Y-134571428D02*
X174907200Y-134666666D01*
X174907200Y-134666666D02*
X174859580Y-134714285D01*
X174859580Y-134714285D02*
X174764342Y-134761904D01*
X174764342Y-134761904D02*
X174573866Y-134809523D01*
X174573866Y-134809523D02*
X174335771Y-134809523D01*
X174335771Y-134809523D02*
X174145295Y-134761904D01*
X174145295Y-134761904D02*
X174050057Y-134714285D01*
X174050057Y-134714285D02*
X174002438Y-134666666D01*
X174002438Y-134666666D02*
X173954819Y-134571428D01*
D10*
X105190476Y-137409800D02*
X105333333Y-137457419D01*
X105333333Y-137457419D02*
X105571428Y-137457419D01*
X105571428Y-137457419D02*
X105666666Y-137409800D01*
X105666666Y-137409800D02*
X105714285Y-137362180D01*
X105714285Y-137362180D02*
X105761904Y-137266942D01*
X105761904Y-137266942D02*
X105761904Y-137171704D01*
X105761904Y-137171704D02*
X105714285Y-137076466D01*
X105714285Y-137076466D02*
X105666666Y-137028847D01*
X105666666Y-137028847D02*
X105571428Y-136981228D01*
X105571428Y-136981228D02*
X105380952Y-136933609D01*
X105380952Y-136933609D02*
X105285714Y-136885990D01*
X105285714Y-136885990D02*
X105238095Y-136838371D01*
X105238095Y-136838371D02*
X105190476Y-136743133D01*
X105190476Y-136743133D02*
X105190476Y-136647895D01*
X105190476Y-136647895D02*
X105238095Y-136552657D01*
X105238095Y-136552657D02*
X105285714Y-136505038D01*
X105285714Y-136505038D02*
X105380952Y-136457419D01*
X105380952Y-136457419D02*
X105619047Y-136457419D01*
X105619047Y-136457419D02*
X105761904Y-136505038D01*
X106095238Y-136457419D02*
X106333333Y-137457419D01*
X106333333Y-137457419D02*
X106523809Y-136743133D01*
X106523809Y-136743133D02*
X106714285Y-137457419D01*
X106714285Y-137457419D02*
X106952381Y-136457419D01*
X107857142Y-137457419D02*
X107285714Y-137457419D01*
X107571428Y-137457419D02*
X107571428Y-136457419D01*
X107571428Y-136457419D02*
X107476190Y-136600276D01*
X107476190Y-136600276D02*
X107380952Y-136695514D01*
X107380952Y-136695514D02*
X107285714Y-136743133D01*
X108238095Y-136552657D02*
X108285714Y-136505038D01*
X108285714Y-136505038D02*
X108380952Y-136457419D01*
X108380952Y-136457419D02*
X108619047Y-136457419D01*
X108619047Y-136457419D02*
X108714285Y-136505038D01*
X108714285Y-136505038D02*
X108761904Y-136552657D01*
X108761904Y-136552657D02*
X108809523Y-136647895D01*
X108809523Y-136647895D02*
X108809523Y-136743133D01*
X108809523Y-136743133D02*
X108761904Y-136885990D01*
X108761904Y-136885990D02*
X108190476Y-137457419D01*
X108190476Y-137457419D02*
X108809523Y-137457419D01*
D11*
X124454819Y-133730357D02*
X123978628Y-134063690D01*
X124454819Y-134301785D02*
X123454819Y-134301785D01*
X123454819Y-134301785D02*
X123454819Y-133920833D01*
X123454819Y-133920833D02*
X123502438Y-133825595D01*
X123502438Y-133825595D02*
X123550057Y-133777976D01*
X123550057Y-133777976D02*
X123645295Y-133730357D01*
X123645295Y-133730357D02*
X123788152Y-133730357D01*
X123788152Y-133730357D02*
X123883390Y-133777976D01*
X123883390Y-133777976D02*
X123931009Y-133825595D01*
X123931009Y-133825595D02*
X123978628Y-133920833D01*
X123978628Y-133920833D02*
X123978628Y-134301785D01*
X123550057Y-133349404D02*
X123502438Y-133301785D01*
X123502438Y-133301785D02*
X123454819Y-133206547D01*
X123454819Y-133206547D02*
X123454819Y-132968452D01*
X123454819Y-132968452D02*
X123502438Y-132873214D01*
X123502438Y-132873214D02*
X123550057Y-132825595D01*
X123550057Y-132825595D02*
X123645295Y-132777976D01*
X123645295Y-132777976D02*
X123740533Y-132777976D01*
X123740533Y-132777976D02*
X123883390Y-132825595D01*
X123883390Y-132825595D02*
X124454819Y-133397023D01*
X124454819Y-133397023D02*
X124454819Y-132777976D01*
X123883390Y-132206547D02*
X123835771Y-132301785D01*
X123835771Y-132301785D02*
X123788152Y-132349404D01*
X123788152Y-132349404D02*
X123692914Y-132397023D01*
X123692914Y-132397023D02*
X123645295Y-132397023D01*
X123645295Y-132397023D02*
X123550057Y-132349404D01*
X123550057Y-132349404D02*
X123502438Y-132301785D01*
X123502438Y-132301785D02*
X123454819Y-132206547D01*
X123454819Y-132206547D02*
X123454819Y-132016071D01*
X123454819Y-132016071D02*
X123502438Y-131920833D01*
X123502438Y-131920833D02*
X123550057Y-131873214D01*
X123550057Y-131873214D02*
X123645295Y-131825595D01*
X123645295Y-131825595D02*
X123692914Y-131825595D01*
X123692914Y-131825595D02*
X123788152Y-131873214D01*
X123788152Y-131873214D02*
X123835771Y-131920833D01*
X123835771Y-131920833D02*
X123883390Y-132016071D01*
X123883390Y-132016071D02*
X123883390Y-132206547D01*
X123883390Y-132206547D02*
X123931009Y-132301785D01*
X123931009Y-132301785D02*
X123978628Y-132349404D01*
X123978628Y-132349404D02*
X124073866Y-132397023D01*
X124073866Y-132397023D02*
X124264342Y-132397023D01*
X124264342Y-132397023D02*
X124359580Y-132349404D01*
X124359580Y-132349404D02*
X124407200Y-132301785D01*
X124407200Y-132301785D02*
X124454819Y-132206547D01*
X124454819Y-132206547D02*
X124454819Y-132016071D01*
X124454819Y-132016071D02*
X124407200Y-131920833D01*
X124407200Y-131920833D02*
X124359580Y-131873214D01*
X124359580Y-131873214D02*
X124264342Y-131825595D01*
X124264342Y-131825595D02*
X124073866Y-131825595D01*
X124073866Y-131825595D02*
X123978628Y-131873214D01*
X123978628Y-131873214D02*
X123931009Y-131920833D01*
X123931009Y-131920833D02*
X123883390Y-132016071D01*
X197954819Y-135230357D02*
X197478628Y-135563690D01*
X197954819Y-135801785D02*
X196954819Y-135801785D01*
X196954819Y-135801785D02*
X196954819Y-135420833D01*
X196954819Y-135420833D02*
X197002438Y-135325595D01*
X197002438Y-135325595D02*
X197050057Y-135277976D01*
X197050057Y-135277976D02*
X197145295Y-135230357D01*
X197145295Y-135230357D02*
X197288152Y-135230357D01*
X197288152Y-135230357D02*
X197383390Y-135277976D01*
X197383390Y-135277976D02*
X197431009Y-135325595D01*
X197431009Y-135325595D02*
X197478628Y-135420833D01*
X197478628Y-135420833D02*
X197478628Y-135801785D01*
X196954819Y-134897023D02*
X196954819Y-134277976D01*
X196954819Y-134277976D02*
X197335771Y-134611309D01*
X197335771Y-134611309D02*
X197335771Y-134468452D01*
X197335771Y-134468452D02*
X197383390Y-134373214D01*
X197383390Y-134373214D02*
X197431009Y-134325595D01*
X197431009Y-134325595D02*
X197526247Y-134277976D01*
X197526247Y-134277976D02*
X197764342Y-134277976D01*
X197764342Y-134277976D02*
X197859580Y-134325595D01*
X197859580Y-134325595D02*
X197907200Y-134373214D01*
X197907200Y-134373214D02*
X197954819Y-134468452D01*
X197954819Y-134468452D02*
X197954819Y-134754166D01*
X197954819Y-134754166D02*
X197907200Y-134849404D01*
X197907200Y-134849404D02*
X197859580Y-134897023D01*
X197954819Y-133325595D02*
X197954819Y-133897023D01*
X197954819Y-133611309D02*
X196954819Y-133611309D01*
X196954819Y-133611309D02*
X197097676Y-133706547D01*
X197097676Y-133706547D02*
X197192914Y-133801785D01*
X197192914Y-133801785D02*
X197240533Y-133897023D01*
X89285714Y-129454819D02*
X89285714Y-128454819D01*
X89285714Y-128454819D02*
X89523809Y-128454819D01*
X89523809Y-128454819D02*
X89666666Y-128502438D01*
X89666666Y-128502438D02*
X89761904Y-128597676D01*
X89761904Y-128597676D02*
X89809523Y-128692914D01*
X89809523Y-128692914D02*
X89857142Y-128883390D01*
X89857142Y-128883390D02*
X89857142Y-129026247D01*
X89857142Y-129026247D02*
X89809523Y-129216723D01*
X89809523Y-129216723D02*
X89761904Y-129311961D01*
X89761904Y-129311961D02*
X89666666Y-129407200D01*
X89666666Y-129407200D02*
X89523809Y-129454819D01*
X89523809Y-129454819D02*
X89285714Y-129454819D01*
X90809523Y-129454819D02*
X90238095Y-129454819D01*
X90523809Y-129454819D02*
X90523809Y-128454819D01*
X90523809Y-128454819D02*
X90428571Y-128597676D01*
X90428571Y-128597676D02*
X90333333Y-128692914D01*
X90333333Y-128692914D02*
X90238095Y-128740533D01*
X91761904Y-129454819D02*
X91190476Y-129454819D01*
X91476190Y-129454819D02*
X91476190Y-128454819D01*
X91476190Y-128454819D02*
X91380952Y-128597676D01*
X91380952Y-128597676D02*
X91285714Y-128692914D01*
X91285714Y-128692914D02*
X91190476Y-128740533D01*
D10*
X130190476Y-137409800D02*
X130333333Y-137457419D01*
X130333333Y-137457419D02*
X130571428Y-137457419D01*
X130571428Y-137457419D02*
X130666666Y-137409800D01*
X130666666Y-137409800D02*
X130714285Y-137362180D01*
X130714285Y-137362180D02*
X130761904Y-137266942D01*
X130761904Y-137266942D02*
X130761904Y-137171704D01*
X130761904Y-137171704D02*
X130714285Y-137076466D01*
X130714285Y-137076466D02*
X130666666Y-137028847D01*
X130666666Y-137028847D02*
X130571428Y-136981228D01*
X130571428Y-136981228D02*
X130380952Y-136933609D01*
X130380952Y-136933609D02*
X130285714Y-136885990D01*
X130285714Y-136885990D02*
X130238095Y-136838371D01*
X130238095Y-136838371D02*
X130190476Y-136743133D01*
X130190476Y-136743133D02*
X130190476Y-136647895D01*
X130190476Y-136647895D02*
X130238095Y-136552657D01*
X130238095Y-136552657D02*
X130285714Y-136505038D01*
X130285714Y-136505038D02*
X130380952Y-136457419D01*
X130380952Y-136457419D02*
X130619047Y-136457419D01*
X130619047Y-136457419D02*
X130761904Y-136505038D01*
X131095238Y-136457419D02*
X131333333Y-137457419D01*
X131333333Y-137457419D02*
X131523809Y-136743133D01*
X131523809Y-136743133D02*
X131714285Y-137457419D01*
X131714285Y-137457419D02*
X131952381Y-136457419D01*
X132857142Y-137457419D02*
X132285714Y-137457419D01*
X132571428Y-137457419D02*
X132571428Y-136457419D01*
X132571428Y-136457419D02*
X132476190Y-136600276D01*
X132476190Y-136600276D02*
X132380952Y-136695514D01*
X132380952Y-136695514D02*
X132285714Y-136743133D01*
X133190476Y-136457419D02*
X133809523Y-136457419D01*
X133809523Y-136457419D02*
X133476190Y-136838371D01*
X133476190Y-136838371D02*
X133619047Y-136838371D01*
X133619047Y-136838371D02*
X133714285Y-136885990D01*
X133714285Y-136885990D02*
X133761904Y-136933609D01*
X133761904Y-136933609D02*
X133809523Y-137028847D01*
X133809523Y-137028847D02*
X133809523Y-137266942D01*
X133809523Y-137266942D02*
X133761904Y-137362180D01*
X133761904Y-137362180D02*
X133714285Y-137409800D01*
X133714285Y-137409800D02*
X133619047Y-137457419D01*
X133619047Y-137457419D02*
X133333333Y-137457419D01*
X133333333Y-137457419D02*
X133238095Y-137409800D01*
X133238095Y-137409800D02*
X133190476Y-137362180D01*
D11*
X259333333Y-144859580D02*
X259285714Y-144907200D01*
X259285714Y-144907200D02*
X259142857Y-144954819D01*
X259142857Y-144954819D02*
X259047619Y-144954819D01*
X259047619Y-144954819D02*
X258904762Y-144907200D01*
X258904762Y-144907200D02*
X258809524Y-144811961D01*
X258809524Y-144811961D02*
X258761905Y-144716723D01*
X258761905Y-144716723D02*
X258714286Y-144526247D01*
X258714286Y-144526247D02*
X258714286Y-144383390D01*
X258714286Y-144383390D02*
X258761905Y-144192914D01*
X258761905Y-144192914D02*
X258809524Y-144097676D01*
X258809524Y-144097676D02*
X258904762Y-144002438D01*
X258904762Y-144002438D02*
X259047619Y-143954819D01*
X259047619Y-143954819D02*
X259142857Y-143954819D01*
X259142857Y-143954819D02*
X259285714Y-144002438D01*
X259285714Y-144002438D02*
X259333333Y-144050057D01*
X259666667Y-143954819D02*
X260285714Y-143954819D01*
X260285714Y-143954819D02*
X259952381Y-144335771D01*
X259952381Y-144335771D02*
X260095238Y-144335771D01*
X260095238Y-144335771D02*
X260190476Y-144383390D01*
X260190476Y-144383390D02*
X260238095Y-144431009D01*
X260238095Y-144431009D02*
X260285714Y-144526247D01*
X260285714Y-144526247D02*
X260285714Y-144764342D01*
X260285714Y-144764342D02*
X260238095Y-144859580D01*
X260238095Y-144859580D02*
X260190476Y-144907200D01*
X260190476Y-144907200D02*
X260095238Y-144954819D01*
X260095238Y-144954819D02*
X259809524Y-144954819D01*
X259809524Y-144954819D02*
X259714286Y-144907200D01*
X259714286Y-144907200D02*
X259666667Y-144859580D01*
D10*
X30666667Y-113409800D02*
X30809524Y-113457419D01*
X30809524Y-113457419D02*
X31047619Y-113457419D01*
X31047619Y-113457419D02*
X31142857Y-113409800D01*
X31142857Y-113409800D02*
X31190476Y-113362180D01*
X31190476Y-113362180D02*
X31238095Y-113266942D01*
X31238095Y-113266942D02*
X31238095Y-113171704D01*
X31238095Y-113171704D02*
X31190476Y-113076466D01*
X31190476Y-113076466D02*
X31142857Y-113028847D01*
X31142857Y-113028847D02*
X31047619Y-112981228D01*
X31047619Y-112981228D02*
X30857143Y-112933609D01*
X30857143Y-112933609D02*
X30761905Y-112885990D01*
X30761905Y-112885990D02*
X30714286Y-112838371D01*
X30714286Y-112838371D02*
X30666667Y-112743133D01*
X30666667Y-112743133D02*
X30666667Y-112647895D01*
X30666667Y-112647895D02*
X30714286Y-112552657D01*
X30714286Y-112552657D02*
X30761905Y-112505038D01*
X30761905Y-112505038D02*
X30857143Y-112457419D01*
X30857143Y-112457419D02*
X31095238Y-112457419D01*
X31095238Y-112457419D02*
X31238095Y-112505038D01*
X31571429Y-112457419D02*
X31809524Y-113457419D01*
X31809524Y-113457419D02*
X32000000Y-112743133D01*
X32000000Y-112743133D02*
X32190476Y-113457419D01*
X32190476Y-113457419D02*
X32428572Y-112457419D01*
X33333333Y-113457419D02*
X32761905Y-113457419D01*
X33047619Y-113457419D02*
X33047619Y-112457419D01*
X33047619Y-112457419D02*
X32952381Y-112600276D01*
X32952381Y-112600276D02*
X32857143Y-112695514D01*
X32857143Y-112695514D02*
X32761905Y-112743133D01*
D11*
X72804819Y-119142857D02*
X72328628Y-119476190D01*
X72804819Y-119714285D02*
X71804819Y-119714285D01*
X71804819Y-119714285D02*
X71804819Y-119333333D01*
X71804819Y-119333333D02*
X71852438Y-119238095D01*
X71852438Y-119238095D02*
X71900057Y-119190476D01*
X71900057Y-119190476D02*
X71995295Y-119142857D01*
X71995295Y-119142857D02*
X72138152Y-119142857D01*
X72138152Y-119142857D02*
X72233390Y-119190476D01*
X72233390Y-119190476D02*
X72281009Y-119238095D01*
X72281009Y-119238095D02*
X72328628Y-119333333D01*
X72328628Y-119333333D02*
X72328628Y-119714285D01*
X72804819Y-118190476D02*
X72804819Y-118761904D01*
X72804819Y-118476190D02*
X71804819Y-118476190D01*
X71804819Y-118476190D02*
X71947676Y-118571428D01*
X71947676Y-118571428D02*
X72042914Y-118666666D01*
X72042914Y-118666666D02*
X72090533Y-118761904D01*
X72804819Y-117238095D02*
X72804819Y-117809523D01*
X72804819Y-117523809D02*
X71804819Y-117523809D01*
X71804819Y-117523809D02*
X71947676Y-117619047D01*
X71947676Y-117619047D02*
X72042914Y-117714285D01*
X72042914Y-117714285D02*
X72090533Y-117809523D01*
D10*
X30666667Y-137409800D02*
X30809524Y-137457419D01*
X30809524Y-137457419D02*
X31047619Y-137457419D01*
X31047619Y-137457419D02*
X31142857Y-137409800D01*
X31142857Y-137409800D02*
X31190476Y-137362180D01*
X31190476Y-137362180D02*
X31238095Y-137266942D01*
X31238095Y-137266942D02*
X31238095Y-137171704D01*
X31238095Y-137171704D02*
X31190476Y-137076466D01*
X31190476Y-137076466D02*
X31142857Y-137028847D01*
X31142857Y-137028847D02*
X31047619Y-136981228D01*
X31047619Y-136981228D02*
X30857143Y-136933609D01*
X30857143Y-136933609D02*
X30761905Y-136885990D01*
X30761905Y-136885990D02*
X30714286Y-136838371D01*
X30714286Y-136838371D02*
X30666667Y-136743133D01*
X30666667Y-136743133D02*
X30666667Y-136647895D01*
X30666667Y-136647895D02*
X30714286Y-136552657D01*
X30714286Y-136552657D02*
X30761905Y-136505038D01*
X30761905Y-136505038D02*
X30857143Y-136457419D01*
X30857143Y-136457419D02*
X31095238Y-136457419D01*
X31095238Y-136457419D02*
X31238095Y-136505038D01*
X31571429Y-136457419D02*
X31809524Y-137457419D01*
X31809524Y-137457419D02*
X32000000Y-136743133D01*
X32000000Y-136743133D02*
X32190476Y-137457419D01*
X32190476Y-137457419D02*
X32428572Y-136457419D01*
X32857143Y-137457419D02*
X33047619Y-137457419D01*
X33047619Y-137457419D02*
X33142857Y-137409800D01*
X33142857Y-137409800D02*
X33190476Y-137362180D01*
X33190476Y-137362180D02*
X33285714Y-137219323D01*
X33285714Y-137219323D02*
X33333333Y-137028847D01*
X33333333Y-137028847D02*
X33333333Y-136647895D01*
X33333333Y-136647895D02*
X33285714Y-136552657D01*
X33285714Y-136552657D02*
X33238095Y-136505038D01*
X33238095Y-136505038D02*
X33142857Y-136457419D01*
X33142857Y-136457419D02*
X32952381Y-136457419D01*
X32952381Y-136457419D02*
X32857143Y-136505038D01*
X32857143Y-136505038D02*
X32809524Y-136552657D01*
X32809524Y-136552657D02*
X32761905Y-136647895D01*
X32761905Y-136647895D02*
X32761905Y-136885990D01*
X32761905Y-136885990D02*
X32809524Y-136981228D01*
X32809524Y-136981228D02*
X32857143Y-137028847D01*
X32857143Y-137028847D02*
X32952381Y-137076466D01*
X32952381Y-137076466D02*
X33142857Y-137076466D01*
X33142857Y-137076466D02*
X33238095Y-137028847D01*
X33238095Y-137028847D02*
X33285714Y-136981228D01*
X33285714Y-136981228D02*
X33333333Y-136885990D01*
D11*
X164454819Y-140142857D02*
X163978628Y-140476190D01*
X164454819Y-140714285D02*
X163454819Y-140714285D01*
X163454819Y-140714285D02*
X163454819Y-140333333D01*
X163454819Y-140333333D02*
X163502438Y-140238095D01*
X163502438Y-140238095D02*
X163550057Y-140190476D01*
X163550057Y-140190476D02*
X163645295Y-140142857D01*
X163645295Y-140142857D02*
X163788152Y-140142857D01*
X163788152Y-140142857D02*
X163883390Y-140190476D01*
X163883390Y-140190476D02*
X163931009Y-140238095D01*
X163931009Y-140238095D02*
X163978628Y-140333333D01*
X163978628Y-140333333D02*
X163978628Y-140714285D01*
X163550057Y-139761904D02*
X163502438Y-139714285D01*
X163502438Y-139714285D02*
X163454819Y-139619047D01*
X163454819Y-139619047D02*
X163454819Y-139380952D01*
X163454819Y-139380952D02*
X163502438Y-139285714D01*
X163502438Y-139285714D02*
X163550057Y-139238095D01*
X163550057Y-139238095D02*
X163645295Y-139190476D01*
X163645295Y-139190476D02*
X163740533Y-139190476D01*
X163740533Y-139190476D02*
X163883390Y-139238095D01*
X163883390Y-139238095D02*
X164454819Y-139809523D01*
X164454819Y-139809523D02*
X164454819Y-139190476D01*
X164454819Y-138714285D02*
X164454819Y-138523809D01*
X164454819Y-138523809D02*
X164407200Y-138428571D01*
X164407200Y-138428571D02*
X164359580Y-138380952D01*
X164359580Y-138380952D02*
X164216723Y-138285714D01*
X164216723Y-138285714D02*
X164026247Y-138238095D01*
X164026247Y-138238095D02*
X163645295Y-138238095D01*
X163645295Y-138238095D02*
X163550057Y-138285714D01*
X163550057Y-138285714D02*
X163502438Y-138333333D01*
X163502438Y-138333333D02*
X163454819Y-138428571D01*
X163454819Y-138428571D02*
X163454819Y-138619047D01*
X163454819Y-138619047D02*
X163502438Y-138714285D01*
X163502438Y-138714285D02*
X163550057Y-138761904D01*
X163550057Y-138761904D02*
X163645295Y-138809523D01*
X163645295Y-138809523D02*
X163883390Y-138809523D01*
X163883390Y-138809523D02*
X163978628Y-138761904D01*
X163978628Y-138761904D02*
X164026247Y-138714285D01*
X164026247Y-138714285D02*
X164073866Y-138619047D01*
X164073866Y-138619047D02*
X164073866Y-138428571D01*
X164073866Y-138428571D02*
X164026247Y-138333333D01*
X164026247Y-138333333D02*
X163978628Y-138285714D01*
X163978628Y-138285714D02*
X163883390Y-138238095D01*
X241954819Y-89761904D02*
X242764342Y-89761904D01*
X242764342Y-89761904D02*
X242859580Y-89714285D01*
X242859580Y-89714285D02*
X242907200Y-89666666D01*
X242907200Y-89666666D02*
X242954819Y-89571428D01*
X242954819Y-89571428D02*
X242954819Y-89380952D01*
X242954819Y-89380952D02*
X242907200Y-89285714D01*
X242907200Y-89285714D02*
X242859580Y-89238095D01*
X242859580Y-89238095D02*
X242764342Y-89190476D01*
X242764342Y-89190476D02*
X241954819Y-89190476D01*
X242954819Y-88190476D02*
X242954819Y-88761904D01*
X242954819Y-88476190D02*
X241954819Y-88476190D01*
X241954819Y-88476190D02*
X242097676Y-88571428D01*
X242097676Y-88571428D02*
X242192914Y-88666666D01*
X242192914Y-88666666D02*
X242240533Y-88761904D01*
X164285714Y-129454819D02*
X164285714Y-128454819D01*
X164285714Y-128454819D02*
X164523809Y-128454819D01*
X164523809Y-128454819D02*
X164666666Y-128502438D01*
X164666666Y-128502438D02*
X164761904Y-128597676D01*
X164761904Y-128597676D02*
X164809523Y-128692914D01*
X164809523Y-128692914D02*
X164857142Y-128883390D01*
X164857142Y-128883390D02*
X164857142Y-129026247D01*
X164857142Y-129026247D02*
X164809523Y-129216723D01*
X164809523Y-129216723D02*
X164761904Y-129311961D01*
X164761904Y-129311961D02*
X164666666Y-129407200D01*
X164666666Y-129407200D02*
X164523809Y-129454819D01*
X164523809Y-129454819D02*
X164285714Y-129454819D01*
X165809523Y-129454819D02*
X165238095Y-129454819D01*
X165523809Y-129454819D02*
X165523809Y-128454819D01*
X165523809Y-128454819D02*
X165428571Y-128597676D01*
X165428571Y-128597676D02*
X165333333Y-128692914D01*
X165333333Y-128692914D02*
X165238095Y-128740533D01*
X166666666Y-128788152D02*
X166666666Y-129454819D01*
X166428571Y-128407200D02*
X166190476Y-129121485D01*
X166190476Y-129121485D02*
X166809523Y-129121485D01*
X147804819Y-119142857D02*
X147328628Y-119476190D01*
X147804819Y-119714285D02*
X146804819Y-119714285D01*
X146804819Y-119714285D02*
X146804819Y-119333333D01*
X146804819Y-119333333D02*
X146852438Y-119238095D01*
X146852438Y-119238095D02*
X146900057Y-119190476D01*
X146900057Y-119190476D02*
X146995295Y-119142857D01*
X146995295Y-119142857D02*
X147138152Y-119142857D01*
X147138152Y-119142857D02*
X147233390Y-119190476D01*
X147233390Y-119190476D02*
X147281009Y-119238095D01*
X147281009Y-119238095D02*
X147328628Y-119333333D01*
X147328628Y-119333333D02*
X147328628Y-119714285D01*
X147804819Y-118190476D02*
X147804819Y-118761904D01*
X147804819Y-118476190D02*
X146804819Y-118476190D01*
X146804819Y-118476190D02*
X146947676Y-118571428D01*
X146947676Y-118571428D02*
X147042914Y-118666666D01*
X147042914Y-118666666D02*
X147090533Y-118761904D01*
X147138152Y-117333333D02*
X147804819Y-117333333D01*
X146757200Y-117571428D02*
X147471485Y-117809523D01*
X147471485Y-117809523D02*
X147471485Y-117190476D01*
X197804819Y-119142857D02*
X197328628Y-119476190D01*
X197804819Y-119714285D02*
X196804819Y-119714285D01*
X196804819Y-119714285D02*
X196804819Y-119333333D01*
X196804819Y-119333333D02*
X196852438Y-119238095D01*
X196852438Y-119238095D02*
X196900057Y-119190476D01*
X196900057Y-119190476D02*
X196995295Y-119142857D01*
X196995295Y-119142857D02*
X197138152Y-119142857D01*
X197138152Y-119142857D02*
X197233390Y-119190476D01*
X197233390Y-119190476D02*
X197281009Y-119238095D01*
X197281009Y-119238095D02*
X197328628Y-119333333D01*
X197328628Y-119333333D02*
X197328628Y-119714285D01*
X197804819Y-118190476D02*
X197804819Y-118761904D01*
X197804819Y-118476190D02*
X196804819Y-118476190D01*
X196804819Y-118476190D02*
X196947676Y-118571428D01*
X196947676Y-118571428D02*
X197042914Y-118666666D01*
X197042914Y-118666666D02*
X197090533Y-118761904D01*
X196804819Y-117333333D02*
X196804819Y-117523809D01*
X196804819Y-117523809D02*
X196852438Y-117619047D01*
X196852438Y-117619047D02*
X196900057Y-117666666D01*
X196900057Y-117666666D02*
X197042914Y-117761904D01*
X197042914Y-117761904D02*
X197233390Y-117809523D01*
X197233390Y-117809523D02*
X197614342Y-117809523D01*
X197614342Y-117809523D02*
X197709580Y-117761904D01*
X197709580Y-117761904D02*
X197757200Y-117714285D01*
X197757200Y-117714285D02*
X197804819Y-117619047D01*
X197804819Y-117619047D02*
X197804819Y-117428571D01*
X197804819Y-117428571D02*
X197757200Y-117333333D01*
X197757200Y-117333333D02*
X197709580Y-117285714D01*
X197709580Y-117285714D02*
X197614342Y-117238095D01*
X197614342Y-117238095D02*
X197376247Y-117238095D01*
X197376247Y-117238095D02*
X197281009Y-117285714D01*
X197281009Y-117285714D02*
X197233390Y-117333333D01*
X197233390Y-117333333D02*
X197185771Y-117428571D01*
X197185771Y-117428571D02*
X197185771Y-117619047D01*
X197185771Y-117619047D02*
X197233390Y-117714285D01*
X197233390Y-117714285D02*
X197281009Y-117761904D01*
X197281009Y-117761904D02*
X197376247Y-117809523D01*
X147804819Y-96254166D02*
X147328628Y-96587499D01*
X147804819Y-96825594D02*
X146804819Y-96825594D01*
X146804819Y-96825594D02*
X146804819Y-96444642D01*
X146804819Y-96444642D02*
X146852438Y-96349404D01*
X146852438Y-96349404D02*
X146900057Y-96301785D01*
X146900057Y-96301785D02*
X146995295Y-96254166D01*
X146995295Y-96254166D02*
X147138152Y-96254166D01*
X147138152Y-96254166D02*
X147233390Y-96301785D01*
X147233390Y-96301785D02*
X147281009Y-96349404D01*
X147281009Y-96349404D02*
X147328628Y-96444642D01*
X147328628Y-96444642D02*
X147328628Y-96825594D01*
X146804819Y-95397023D02*
X146804819Y-95587499D01*
X146804819Y-95587499D02*
X146852438Y-95682737D01*
X146852438Y-95682737D02*
X146900057Y-95730356D01*
X146900057Y-95730356D02*
X147042914Y-95825594D01*
X147042914Y-95825594D02*
X147233390Y-95873213D01*
X147233390Y-95873213D02*
X147614342Y-95873213D01*
X147614342Y-95873213D02*
X147709580Y-95825594D01*
X147709580Y-95825594D02*
X147757200Y-95777975D01*
X147757200Y-95777975D02*
X147804819Y-95682737D01*
X147804819Y-95682737D02*
X147804819Y-95492261D01*
X147804819Y-95492261D02*
X147757200Y-95397023D01*
X147757200Y-95397023D02*
X147709580Y-95349404D01*
X147709580Y-95349404D02*
X147614342Y-95301785D01*
X147614342Y-95301785D02*
X147376247Y-95301785D01*
X147376247Y-95301785D02*
X147281009Y-95349404D01*
X147281009Y-95349404D02*
X147233390Y-95397023D01*
X147233390Y-95397023D02*
X147185771Y-95492261D01*
X147185771Y-95492261D02*
X147185771Y-95682737D01*
X147185771Y-95682737D02*
X147233390Y-95777975D01*
X147233390Y-95777975D02*
X147281009Y-95825594D01*
X147281009Y-95825594D02*
X147376247Y-95873213D01*
X265454819Y-123214285D02*
X264454819Y-123214285D01*
X264454819Y-123214285D02*
X264454819Y-122976190D01*
X264454819Y-122976190D02*
X264502438Y-122833333D01*
X264502438Y-122833333D02*
X264597676Y-122738095D01*
X264597676Y-122738095D02*
X264692914Y-122690476D01*
X264692914Y-122690476D02*
X264883390Y-122642857D01*
X264883390Y-122642857D02*
X265026247Y-122642857D01*
X265026247Y-122642857D02*
X265216723Y-122690476D01*
X265216723Y-122690476D02*
X265311961Y-122738095D01*
X265311961Y-122738095D02*
X265407200Y-122833333D01*
X265407200Y-122833333D02*
X265454819Y-122976190D01*
X265454819Y-122976190D02*
X265454819Y-123214285D01*
X264550057Y-122261904D02*
X264502438Y-122214285D01*
X264502438Y-122214285D02*
X264454819Y-122119047D01*
X264454819Y-122119047D02*
X264454819Y-121880952D01*
X264454819Y-121880952D02*
X264502438Y-121785714D01*
X264502438Y-121785714D02*
X264550057Y-121738095D01*
X264550057Y-121738095D02*
X264645295Y-121690476D01*
X264645295Y-121690476D02*
X264740533Y-121690476D01*
X264740533Y-121690476D02*
X264883390Y-121738095D01*
X264883390Y-121738095D02*
X265454819Y-122309523D01*
X265454819Y-122309523D02*
X265454819Y-121690476D01*
X264454819Y-121071428D02*
X264454819Y-120976190D01*
X264454819Y-120976190D02*
X264502438Y-120880952D01*
X264502438Y-120880952D02*
X264550057Y-120833333D01*
X264550057Y-120833333D02*
X264645295Y-120785714D01*
X264645295Y-120785714D02*
X264835771Y-120738095D01*
X264835771Y-120738095D02*
X265073866Y-120738095D01*
X265073866Y-120738095D02*
X265264342Y-120785714D01*
X265264342Y-120785714D02*
X265359580Y-120833333D01*
X265359580Y-120833333D02*
X265407200Y-120880952D01*
X265407200Y-120880952D02*
X265454819Y-120976190D01*
X265454819Y-120976190D02*
X265454819Y-121071428D01*
X265454819Y-121071428D02*
X265407200Y-121166666D01*
X265407200Y-121166666D02*
X265359580Y-121214285D01*
X265359580Y-121214285D02*
X265264342Y-121261904D01*
X265264342Y-121261904D02*
X265073866Y-121309523D01*
X265073866Y-121309523D02*
X264835771Y-121309523D01*
X264835771Y-121309523D02*
X264645295Y-121261904D01*
X264645295Y-121261904D02*
X264550057Y-121214285D01*
X264550057Y-121214285D02*
X264502438Y-121166666D01*
X264502438Y-121166666D02*
X264454819Y-121071428D01*
X72804819Y-94666666D02*
X72328628Y-94999999D01*
X72804819Y-95238094D02*
X71804819Y-95238094D01*
X71804819Y-95238094D02*
X71804819Y-94857142D01*
X71804819Y-94857142D02*
X71852438Y-94761904D01*
X71852438Y-94761904D02*
X71900057Y-94714285D01*
X71900057Y-94714285D02*
X71995295Y-94666666D01*
X71995295Y-94666666D02*
X72138152Y-94666666D01*
X72138152Y-94666666D02*
X72233390Y-94714285D01*
X72233390Y-94714285D02*
X72281009Y-94761904D01*
X72281009Y-94761904D02*
X72328628Y-94857142D01*
X72328628Y-94857142D02*
X72328628Y-95238094D01*
X71804819Y-94333332D02*
X71804819Y-93714285D01*
X71804819Y-93714285D02*
X72185771Y-94047618D01*
X72185771Y-94047618D02*
X72185771Y-93904761D01*
X72185771Y-93904761D02*
X72233390Y-93809523D01*
X72233390Y-93809523D02*
X72281009Y-93761904D01*
X72281009Y-93761904D02*
X72376247Y-93714285D01*
X72376247Y-93714285D02*
X72614342Y-93714285D01*
X72614342Y-93714285D02*
X72709580Y-93761904D01*
X72709580Y-93761904D02*
X72757200Y-93809523D01*
X72757200Y-93809523D02*
X72804819Y-93904761D01*
X72804819Y-93904761D02*
X72804819Y-94190475D01*
X72804819Y-94190475D02*
X72757200Y-94285713D01*
X72757200Y-94285713D02*
X72709580Y-94333332D01*
D10*
X255190476Y-113409800D02*
X255333333Y-113457419D01*
X255333333Y-113457419D02*
X255571428Y-113457419D01*
X255571428Y-113457419D02*
X255666666Y-113409800D01*
X255666666Y-113409800D02*
X255714285Y-113362180D01*
X255714285Y-113362180D02*
X255761904Y-113266942D01*
X255761904Y-113266942D02*
X255761904Y-113171704D01*
X255761904Y-113171704D02*
X255714285Y-113076466D01*
X255714285Y-113076466D02*
X255666666Y-113028847D01*
X255666666Y-113028847D02*
X255571428Y-112981228D01*
X255571428Y-112981228D02*
X255380952Y-112933609D01*
X255380952Y-112933609D02*
X255285714Y-112885990D01*
X255285714Y-112885990D02*
X255238095Y-112838371D01*
X255238095Y-112838371D02*
X255190476Y-112743133D01*
X255190476Y-112743133D02*
X255190476Y-112647895D01*
X255190476Y-112647895D02*
X255238095Y-112552657D01*
X255238095Y-112552657D02*
X255285714Y-112505038D01*
X255285714Y-112505038D02*
X255380952Y-112457419D01*
X255380952Y-112457419D02*
X255619047Y-112457419D01*
X255619047Y-112457419D02*
X255761904Y-112505038D01*
X256095238Y-112457419D02*
X256333333Y-113457419D01*
X256333333Y-113457419D02*
X256523809Y-112743133D01*
X256523809Y-112743133D02*
X256714285Y-113457419D01*
X256714285Y-113457419D02*
X256952381Y-112457419D01*
X257857142Y-113457419D02*
X257285714Y-113457419D01*
X257571428Y-113457419D02*
X257571428Y-112457419D01*
X257571428Y-112457419D02*
X257476190Y-112600276D01*
X257476190Y-112600276D02*
X257380952Y-112695514D01*
X257380952Y-112695514D02*
X257285714Y-112743133D01*
X258428571Y-112885990D02*
X258333333Y-112838371D01*
X258333333Y-112838371D02*
X258285714Y-112790752D01*
X258285714Y-112790752D02*
X258238095Y-112695514D01*
X258238095Y-112695514D02*
X258238095Y-112647895D01*
X258238095Y-112647895D02*
X258285714Y-112552657D01*
X258285714Y-112552657D02*
X258333333Y-112505038D01*
X258333333Y-112505038D02*
X258428571Y-112457419D01*
X258428571Y-112457419D02*
X258619047Y-112457419D01*
X258619047Y-112457419D02*
X258714285Y-112505038D01*
X258714285Y-112505038D02*
X258761904Y-112552657D01*
X258761904Y-112552657D02*
X258809523Y-112647895D01*
X258809523Y-112647895D02*
X258809523Y-112695514D01*
X258809523Y-112695514D02*
X258761904Y-112790752D01*
X258761904Y-112790752D02*
X258714285Y-112838371D01*
X258714285Y-112838371D02*
X258619047Y-112885990D01*
X258619047Y-112885990D02*
X258428571Y-112885990D01*
X258428571Y-112885990D02*
X258333333Y-112933609D01*
X258333333Y-112933609D02*
X258285714Y-112981228D01*
X258285714Y-112981228D02*
X258238095Y-113076466D01*
X258238095Y-113076466D02*
X258238095Y-113266942D01*
X258238095Y-113266942D02*
X258285714Y-113362180D01*
X258285714Y-113362180D02*
X258333333Y-113409800D01*
X258333333Y-113409800D02*
X258428571Y-113457419D01*
X258428571Y-113457419D02*
X258619047Y-113457419D01*
X258619047Y-113457419D02*
X258714285Y-113409800D01*
X258714285Y-113409800D02*
X258761904Y-113362180D01*
X258761904Y-113362180D02*
X258809523Y-113266942D01*
X258809523Y-113266942D02*
X258809523Y-113076466D01*
X258809523Y-113076466D02*
X258761904Y-112981228D01*
X258761904Y-112981228D02*
X258714285Y-112933609D01*
X258714285Y-112933609D02*
X258619047Y-112885990D01*
D11*
X39761905Y-105454819D02*
X39761905Y-104454819D01*
X39761905Y-104454819D02*
X40000000Y-104454819D01*
X40000000Y-104454819D02*
X40142857Y-104502438D01*
X40142857Y-104502438D02*
X40238095Y-104597676D01*
X40238095Y-104597676D02*
X40285714Y-104692914D01*
X40285714Y-104692914D02*
X40333333Y-104883390D01*
X40333333Y-104883390D02*
X40333333Y-105026247D01*
X40333333Y-105026247D02*
X40285714Y-105216723D01*
X40285714Y-105216723D02*
X40238095Y-105311961D01*
X40238095Y-105311961D02*
X40142857Y-105407200D01*
X40142857Y-105407200D02*
X40000000Y-105454819D01*
X40000000Y-105454819D02*
X39761905Y-105454819D01*
X41285714Y-105454819D02*
X40714286Y-105454819D01*
X41000000Y-105454819D02*
X41000000Y-104454819D01*
X41000000Y-104454819D02*
X40904762Y-104597676D01*
X40904762Y-104597676D02*
X40809524Y-104692914D01*
X40809524Y-104692914D02*
X40714286Y-104740533D01*
X270666666Y-138324819D02*
X270666666Y-139039104D01*
X270666666Y-139039104D02*
X270619047Y-139181961D01*
X270619047Y-139181961D02*
X270523809Y-139277200D01*
X270523809Y-139277200D02*
X270380952Y-139324819D01*
X270380952Y-139324819D02*
X270285714Y-139324819D01*
X271666666Y-139324819D02*
X271095238Y-139324819D01*
X271380952Y-139324819D02*
X271380952Y-138324819D01*
X271380952Y-138324819D02*
X271285714Y-138467676D01*
X271285714Y-138467676D02*
X271190476Y-138562914D01*
X271190476Y-138562914D02*
X271095238Y-138610533D01*
X164761905Y-105454819D02*
X164761905Y-104454819D01*
X164761905Y-104454819D02*
X165000000Y-104454819D01*
X165000000Y-104454819D02*
X165142857Y-104502438D01*
X165142857Y-104502438D02*
X165238095Y-104597676D01*
X165238095Y-104597676D02*
X165285714Y-104692914D01*
X165285714Y-104692914D02*
X165333333Y-104883390D01*
X165333333Y-104883390D02*
X165333333Y-105026247D01*
X165333333Y-105026247D02*
X165285714Y-105216723D01*
X165285714Y-105216723D02*
X165238095Y-105311961D01*
X165238095Y-105311961D02*
X165142857Y-105407200D01*
X165142857Y-105407200D02*
X165000000Y-105454819D01*
X165000000Y-105454819D02*
X164761905Y-105454819D01*
X166190476Y-104454819D02*
X166000000Y-104454819D01*
X166000000Y-104454819D02*
X165904762Y-104502438D01*
X165904762Y-104502438D02*
X165857143Y-104550057D01*
X165857143Y-104550057D02*
X165761905Y-104692914D01*
X165761905Y-104692914D02*
X165714286Y-104883390D01*
X165714286Y-104883390D02*
X165714286Y-105264342D01*
X165714286Y-105264342D02*
X165761905Y-105359580D01*
X165761905Y-105359580D02*
X165809524Y-105407200D01*
X165809524Y-105407200D02*
X165904762Y-105454819D01*
X165904762Y-105454819D02*
X166095238Y-105454819D01*
X166095238Y-105454819D02*
X166190476Y-105407200D01*
X166190476Y-105407200D02*
X166238095Y-105359580D01*
X166238095Y-105359580D02*
X166285714Y-105264342D01*
X166285714Y-105264342D02*
X166285714Y-105026247D01*
X166285714Y-105026247D02*
X166238095Y-104931009D01*
X166238095Y-104931009D02*
X166190476Y-104883390D01*
X166190476Y-104883390D02*
X166095238Y-104835771D01*
X166095238Y-104835771D02*
X165904762Y-104835771D01*
X165904762Y-104835771D02*
X165809524Y-104883390D01*
X165809524Y-104883390D02*
X165761905Y-104931009D01*
X165761905Y-104931009D02*
X165714286Y-105026247D01*
D10*
X255190476Y-137409800D02*
X255333333Y-137457419D01*
X255333333Y-137457419D02*
X255571428Y-137457419D01*
X255571428Y-137457419D02*
X255666666Y-137409800D01*
X255666666Y-137409800D02*
X255714285Y-137362180D01*
X255714285Y-137362180D02*
X255761904Y-137266942D01*
X255761904Y-137266942D02*
X255761904Y-137171704D01*
X255761904Y-137171704D02*
X255714285Y-137076466D01*
X255714285Y-137076466D02*
X255666666Y-137028847D01*
X255666666Y-137028847D02*
X255571428Y-136981228D01*
X255571428Y-136981228D02*
X255380952Y-136933609D01*
X255380952Y-136933609D02*
X255285714Y-136885990D01*
X255285714Y-136885990D02*
X255238095Y-136838371D01*
X255238095Y-136838371D02*
X255190476Y-136743133D01*
X255190476Y-136743133D02*
X255190476Y-136647895D01*
X255190476Y-136647895D02*
X255238095Y-136552657D01*
X255238095Y-136552657D02*
X255285714Y-136505038D01*
X255285714Y-136505038D02*
X255380952Y-136457419D01*
X255380952Y-136457419D02*
X255619047Y-136457419D01*
X255619047Y-136457419D02*
X255761904Y-136505038D01*
X256095238Y-136457419D02*
X256333333Y-137457419D01*
X256333333Y-137457419D02*
X256523809Y-136743133D01*
X256523809Y-136743133D02*
X256714285Y-137457419D01*
X256714285Y-137457419D02*
X256952381Y-136457419D01*
X257285714Y-136552657D02*
X257333333Y-136505038D01*
X257333333Y-136505038D02*
X257428571Y-136457419D01*
X257428571Y-136457419D02*
X257666666Y-136457419D01*
X257666666Y-136457419D02*
X257761904Y-136505038D01*
X257761904Y-136505038D02*
X257809523Y-136552657D01*
X257809523Y-136552657D02*
X257857142Y-136647895D01*
X257857142Y-136647895D02*
X257857142Y-136743133D01*
X257857142Y-136743133D02*
X257809523Y-136885990D01*
X257809523Y-136885990D02*
X257238095Y-137457419D01*
X257238095Y-137457419D02*
X257857142Y-137457419D01*
X258476190Y-136457419D02*
X258571428Y-136457419D01*
X258571428Y-136457419D02*
X258666666Y-136505038D01*
X258666666Y-136505038D02*
X258714285Y-136552657D01*
X258714285Y-136552657D02*
X258761904Y-136647895D01*
X258761904Y-136647895D02*
X258809523Y-136838371D01*
X258809523Y-136838371D02*
X258809523Y-137076466D01*
X258809523Y-137076466D02*
X258761904Y-137266942D01*
X258761904Y-137266942D02*
X258714285Y-137362180D01*
X258714285Y-137362180D02*
X258666666Y-137409800D01*
X258666666Y-137409800D02*
X258571428Y-137457419D01*
X258571428Y-137457419D02*
X258476190Y-137457419D01*
X258476190Y-137457419D02*
X258380952Y-137409800D01*
X258380952Y-137409800D02*
X258333333Y-137362180D01*
X258333333Y-137362180D02*
X258285714Y-137266942D01*
X258285714Y-137266942D02*
X258238095Y-137076466D01*
X258238095Y-137076466D02*
X258238095Y-136838371D01*
X258238095Y-136838371D02*
X258285714Y-136647895D01*
X258285714Y-136647895D02*
X258333333Y-136552657D01*
X258333333Y-136552657D02*
X258380952Y-136505038D01*
X258380952Y-136505038D02*
X258476190Y-136457419D01*
D11*
X22804819Y-118666666D02*
X22328628Y-118999999D01*
X22804819Y-119238094D02*
X21804819Y-119238094D01*
X21804819Y-119238094D02*
X21804819Y-118857142D01*
X21804819Y-118857142D02*
X21852438Y-118761904D01*
X21852438Y-118761904D02*
X21900057Y-118714285D01*
X21900057Y-118714285D02*
X21995295Y-118666666D01*
X21995295Y-118666666D02*
X22138152Y-118666666D01*
X22138152Y-118666666D02*
X22233390Y-118714285D01*
X22233390Y-118714285D02*
X22281009Y-118761904D01*
X22281009Y-118761904D02*
X22328628Y-118857142D01*
X22328628Y-118857142D02*
X22328628Y-119238094D01*
X22804819Y-118190475D02*
X22804819Y-117999999D01*
X22804819Y-117999999D02*
X22757200Y-117904761D01*
X22757200Y-117904761D02*
X22709580Y-117857142D01*
X22709580Y-117857142D02*
X22566723Y-117761904D01*
X22566723Y-117761904D02*
X22376247Y-117714285D01*
X22376247Y-117714285D02*
X21995295Y-117714285D01*
X21995295Y-117714285D02*
X21900057Y-117761904D01*
X21900057Y-117761904D02*
X21852438Y-117809523D01*
X21852438Y-117809523D02*
X21804819Y-117904761D01*
X21804819Y-117904761D02*
X21804819Y-118095237D01*
X21804819Y-118095237D02*
X21852438Y-118190475D01*
X21852438Y-118190475D02*
X21900057Y-118238094D01*
X21900057Y-118238094D02*
X21995295Y-118285713D01*
X21995295Y-118285713D02*
X22233390Y-118285713D01*
X22233390Y-118285713D02*
X22328628Y-118238094D01*
X22328628Y-118238094D02*
X22376247Y-118190475D01*
X22376247Y-118190475D02*
X22423866Y-118095237D01*
X22423866Y-118095237D02*
X22423866Y-117904761D01*
X22423866Y-117904761D02*
X22376247Y-117809523D01*
X22376247Y-117809523D02*
X22328628Y-117761904D01*
X22328628Y-117761904D02*
X22233390Y-117714285D01*
X97804819Y-94666666D02*
X97328628Y-94999999D01*
X97804819Y-95238094D02*
X96804819Y-95238094D01*
X96804819Y-95238094D02*
X96804819Y-94857142D01*
X96804819Y-94857142D02*
X96852438Y-94761904D01*
X96852438Y-94761904D02*
X96900057Y-94714285D01*
X96900057Y-94714285D02*
X96995295Y-94666666D01*
X96995295Y-94666666D02*
X97138152Y-94666666D01*
X97138152Y-94666666D02*
X97233390Y-94714285D01*
X97233390Y-94714285D02*
X97281009Y-94761904D01*
X97281009Y-94761904D02*
X97328628Y-94857142D01*
X97328628Y-94857142D02*
X97328628Y-95238094D01*
X97138152Y-93809523D02*
X97804819Y-93809523D01*
X96757200Y-94047618D02*
X97471485Y-94285713D01*
X97471485Y-94285713D02*
X97471485Y-93666666D01*
X47804819Y-94666666D02*
X47328628Y-94999999D01*
X47804819Y-95238094D02*
X46804819Y-95238094D01*
X46804819Y-95238094D02*
X46804819Y-94857142D01*
X46804819Y-94857142D02*
X46852438Y-94761904D01*
X46852438Y-94761904D02*
X46900057Y-94714285D01*
X46900057Y-94714285D02*
X46995295Y-94666666D01*
X46995295Y-94666666D02*
X47138152Y-94666666D01*
X47138152Y-94666666D02*
X47233390Y-94714285D01*
X47233390Y-94714285D02*
X47281009Y-94761904D01*
X47281009Y-94761904D02*
X47328628Y-94857142D01*
X47328628Y-94857142D02*
X47328628Y-95238094D01*
X46900057Y-94285713D02*
X46852438Y-94238094D01*
X46852438Y-94238094D02*
X46804819Y-94142856D01*
X46804819Y-94142856D02*
X46804819Y-93904761D01*
X46804819Y-93904761D02*
X46852438Y-93809523D01*
X46852438Y-93809523D02*
X46900057Y-93761904D01*
X46900057Y-93761904D02*
X46995295Y-93714285D01*
X46995295Y-93714285D02*
X47090533Y-93714285D01*
X47090533Y-93714285D02*
X47233390Y-93761904D01*
X47233390Y-93761904D02*
X47804819Y-94333332D01*
X47804819Y-94333332D02*
X47804819Y-93714285D01*
X229383333Y-84304580D02*
X229335714Y-84352200D01*
X229335714Y-84352200D02*
X229192857Y-84399819D01*
X229192857Y-84399819D02*
X229097619Y-84399819D01*
X229097619Y-84399819D02*
X228954762Y-84352200D01*
X228954762Y-84352200D02*
X228859524Y-84256961D01*
X228859524Y-84256961D02*
X228811905Y-84161723D01*
X228811905Y-84161723D02*
X228764286Y-83971247D01*
X228764286Y-83971247D02*
X228764286Y-83828390D01*
X228764286Y-83828390D02*
X228811905Y-83637914D01*
X228811905Y-83637914D02*
X228859524Y-83542676D01*
X228859524Y-83542676D02*
X228954762Y-83447438D01*
X228954762Y-83447438D02*
X229097619Y-83399819D01*
X229097619Y-83399819D02*
X229192857Y-83399819D01*
X229192857Y-83399819D02*
X229335714Y-83447438D01*
X229335714Y-83447438D02*
X229383333Y-83495057D01*
X230335714Y-84399819D02*
X229764286Y-84399819D01*
X230050000Y-84399819D02*
X230050000Y-83399819D01*
X230050000Y-83399819D02*
X229954762Y-83542676D01*
X229954762Y-83542676D02*
X229859524Y-83637914D01*
X229859524Y-83637914D02*
X229764286Y-83685533D01*
X239285714Y-129454819D02*
X239285714Y-128454819D01*
X239285714Y-128454819D02*
X239523809Y-128454819D01*
X239523809Y-128454819D02*
X239666666Y-128502438D01*
X239666666Y-128502438D02*
X239761904Y-128597676D01*
X239761904Y-128597676D02*
X239809523Y-128692914D01*
X239809523Y-128692914D02*
X239857142Y-128883390D01*
X239857142Y-128883390D02*
X239857142Y-129026247D01*
X239857142Y-129026247D02*
X239809523Y-129216723D01*
X239809523Y-129216723D02*
X239761904Y-129311961D01*
X239761904Y-129311961D02*
X239666666Y-129407200D01*
X239666666Y-129407200D02*
X239523809Y-129454819D01*
X239523809Y-129454819D02*
X239285714Y-129454819D01*
X240809523Y-129454819D02*
X240238095Y-129454819D01*
X240523809Y-129454819D02*
X240523809Y-128454819D01*
X240523809Y-128454819D02*
X240428571Y-128597676D01*
X240428571Y-128597676D02*
X240333333Y-128692914D01*
X240333333Y-128692914D02*
X240238095Y-128740533D01*
X241285714Y-129454819D02*
X241476190Y-129454819D01*
X241476190Y-129454819D02*
X241571428Y-129407200D01*
X241571428Y-129407200D02*
X241619047Y-129359580D01*
X241619047Y-129359580D02*
X241714285Y-129216723D01*
X241714285Y-129216723D02*
X241761904Y-129026247D01*
X241761904Y-129026247D02*
X241761904Y-128645295D01*
X241761904Y-128645295D02*
X241714285Y-128550057D01*
X241714285Y-128550057D02*
X241666666Y-128502438D01*
X241666666Y-128502438D02*
X241571428Y-128454819D01*
X241571428Y-128454819D02*
X241380952Y-128454819D01*
X241380952Y-128454819D02*
X241285714Y-128502438D01*
X241285714Y-128502438D02*
X241238095Y-128550057D01*
X241238095Y-128550057D02*
X241190476Y-128645295D01*
X241190476Y-128645295D02*
X241190476Y-128883390D01*
X241190476Y-128883390D02*
X241238095Y-128978628D01*
X241238095Y-128978628D02*
X241285714Y-129026247D01*
X241285714Y-129026247D02*
X241380952Y-129073866D01*
X241380952Y-129073866D02*
X241571428Y-129073866D01*
X241571428Y-129073866D02*
X241666666Y-129026247D01*
X241666666Y-129026247D02*
X241714285Y-128978628D01*
X241714285Y-128978628D02*
X241761904Y-128883390D01*
D10*
X80666667Y-113409800D02*
X80809524Y-113457419D01*
X80809524Y-113457419D02*
X81047619Y-113457419D01*
X81047619Y-113457419D02*
X81142857Y-113409800D01*
X81142857Y-113409800D02*
X81190476Y-113362180D01*
X81190476Y-113362180D02*
X81238095Y-113266942D01*
X81238095Y-113266942D02*
X81238095Y-113171704D01*
X81238095Y-113171704D02*
X81190476Y-113076466D01*
X81190476Y-113076466D02*
X81142857Y-113028847D01*
X81142857Y-113028847D02*
X81047619Y-112981228D01*
X81047619Y-112981228D02*
X80857143Y-112933609D01*
X80857143Y-112933609D02*
X80761905Y-112885990D01*
X80761905Y-112885990D02*
X80714286Y-112838371D01*
X80714286Y-112838371D02*
X80666667Y-112743133D01*
X80666667Y-112743133D02*
X80666667Y-112647895D01*
X80666667Y-112647895D02*
X80714286Y-112552657D01*
X80714286Y-112552657D02*
X80761905Y-112505038D01*
X80761905Y-112505038D02*
X80857143Y-112457419D01*
X80857143Y-112457419D02*
X81095238Y-112457419D01*
X81095238Y-112457419D02*
X81238095Y-112505038D01*
X81571429Y-112457419D02*
X81809524Y-113457419D01*
X81809524Y-113457419D02*
X82000000Y-112743133D01*
X82000000Y-112743133D02*
X82190476Y-113457419D01*
X82190476Y-113457419D02*
X82428572Y-112457419D01*
X82714286Y-112457419D02*
X83333333Y-112457419D01*
X83333333Y-112457419D02*
X83000000Y-112838371D01*
X83000000Y-112838371D02*
X83142857Y-112838371D01*
X83142857Y-112838371D02*
X83238095Y-112885990D01*
X83238095Y-112885990D02*
X83285714Y-112933609D01*
X83285714Y-112933609D02*
X83333333Y-113028847D01*
X83333333Y-113028847D02*
X83333333Y-113266942D01*
X83333333Y-113266942D02*
X83285714Y-113362180D01*
X83285714Y-113362180D02*
X83238095Y-113409800D01*
X83238095Y-113409800D02*
X83142857Y-113457419D01*
X83142857Y-113457419D02*
X82857143Y-113457419D01*
X82857143Y-113457419D02*
X82761905Y-113409800D01*
X82761905Y-113409800D02*
X82714286Y-113362180D01*
D11*
X89761905Y-105454819D02*
X89761905Y-104454819D01*
X89761905Y-104454819D02*
X90000000Y-104454819D01*
X90000000Y-104454819D02*
X90142857Y-104502438D01*
X90142857Y-104502438D02*
X90238095Y-104597676D01*
X90238095Y-104597676D02*
X90285714Y-104692914D01*
X90285714Y-104692914D02*
X90333333Y-104883390D01*
X90333333Y-104883390D02*
X90333333Y-105026247D01*
X90333333Y-105026247D02*
X90285714Y-105216723D01*
X90285714Y-105216723D02*
X90238095Y-105311961D01*
X90238095Y-105311961D02*
X90142857Y-105407200D01*
X90142857Y-105407200D02*
X90000000Y-105454819D01*
X90000000Y-105454819D02*
X89761905Y-105454819D01*
X90666667Y-104454819D02*
X91285714Y-104454819D01*
X91285714Y-104454819D02*
X90952381Y-104835771D01*
X90952381Y-104835771D02*
X91095238Y-104835771D01*
X91095238Y-104835771D02*
X91190476Y-104883390D01*
X91190476Y-104883390D02*
X91238095Y-104931009D01*
X91238095Y-104931009D02*
X91285714Y-105026247D01*
X91285714Y-105026247D02*
X91285714Y-105264342D01*
X91285714Y-105264342D02*
X91238095Y-105359580D01*
X91238095Y-105359580D02*
X91190476Y-105407200D01*
X91190476Y-105407200D02*
X91095238Y-105454819D01*
X91095238Y-105454819D02*
X90809524Y-105454819D01*
X90809524Y-105454819D02*
X90714286Y-105407200D01*
X90714286Y-105407200D02*
X90666667Y-105359580D01*
X189285714Y-129454819D02*
X189285714Y-128454819D01*
X189285714Y-128454819D02*
X189523809Y-128454819D01*
X189523809Y-128454819D02*
X189666666Y-128502438D01*
X189666666Y-128502438D02*
X189761904Y-128597676D01*
X189761904Y-128597676D02*
X189809523Y-128692914D01*
X189809523Y-128692914D02*
X189857142Y-128883390D01*
X189857142Y-128883390D02*
X189857142Y-129026247D01*
X189857142Y-129026247D02*
X189809523Y-129216723D01*
X189809523Y-129216723D02*
X189761904Y-129311961D01*
X189761904Y-129311961D02*
X189666666Y-129407200D01*
X189666666Y-129407200D02*
X189523809Y-129454819D01*
X189523809Y-129454819D02*
X189285714Y-129454819D01*
X190809523Y-129454819D02*
X190238095Y-129454819D01*
X190523809Y-129454819D02*
X190523809Y-128454819D01*
X190523809Y-128454819D02*
X190428571Y-128597676D01*
X190428571Y-128597676D02*
X190333333Y-128692914D01*
X190333333Y-128692914D02*
X190238095Y-128740533D01*
X191714285Y-128454819D02*
X191238095Y-128454819D01*
X191238095Y-128454819D02*
X191190476Y-128931009D01*
X191190476Y-128931009D02*
X191238095Y-128883390D01*
X191238095Y-128883390D02*
X191333333Y-128835771D01*
X191333333Y-128835771D02*
X191571428Y-128835771D01*
X191571428Y-128835771D02*
X191666666Y-128883390D01*
X191666666Y-128883390D02*
X191714285Y-128931009D01*
X191714285Y-128931009D02*
X191761904Y-129026247D01*
X191761904Y-129026247D02*
X191761904Y-129264342D01*
X191761904Y-129264342D02*
X191714285Y-129359580D01*
X191714285Y-129359580D02*
X191666666Y-129407200D01*
X191666666Y-129407200D02*
X191571428Y-129454819D01*
X191571428Y-129454819D02*
X191333333Y-129454819D01*
X191333333Y-129454819D02*
X191238095Y-129407200D01*
X191238095Y-129407200D02*
X191190476Y-129359580D01*
X247804819Y-119142857D02*
X247328628Y-119476190D01*
X247804819Y-119714285D02*
X246804819Y-119714285D01*
X246804819Y-119714285D02*
X246804819Y-119333333D01*
X246804819Y-119333333D02*
X246852438Y-119238095D01*
X246852438Y-119238095D02*
X246900057Y-119190476D01*
X246900057Y-119190476D02*
X246995295Y-119142857D01*
X246995295Y-119142857D02*
X247138152Y-119142857D01*
X247138152Y-119142857D02*
X247233390Y-119190476D01*
X247233390Y-119190476D02*
X247281009Y-119238095D01*
X247281009Y-119238095D02*
X247328628Y-119333333D01*
X247328628Y-119333333D02*
X247328628Y-119714285D01*
X246900057Y-118761904D02*
X246852438Y-118714285D01*
X246852438Y-118714285D02*
X246804819Y-118619047D01*
X246804819Y-118619047D02*
X246804819Y-118380952D01*
X246804819Y-118380952D02*
X246852438Y-118285714D01*
X246852438Y-118285714D02*
X246900057Y-118238095D01*
X246900057Y-118238095D02*
X246995295Y-118190476D01*
X246995295Y-118190476D02*
X247090533Y-118190476D01*
X247090533Y-118190476D02*
X247233390Y-118238095D01*
X247233390Y-118238095D02*
X247804819Y-118809523D01*
X247804819Y-118809523D02*
X247804819Y-118190476D01*
X246804819Y-117571428D02*
X246804819Y-117476190D01*
X246804819Y-117476190D02*
X246852438Y-117380952D01*
X246852438Y-117380952D02*
X246900057Y-117333333D01*
X246900057Y-117333333D02*
X246995295Y-117285714D01*
X246995295Y-117285714D02*
X247185771Y-117238095D01*
X247185771Y-117238095D02*
X247423866Y-117238095D01*
X247423866Y-117238095D02*
X247614342Y-117285714D01*
X247614342Y-117285714D02*
X247709580Y-117333333D01*
X247709580Y-117333333D02*
X247757200Y-117380952D01*
X247757200Y-117380952D02*
X247804819Y-117476190D01*
X247804819Y-117476190D02*
X247804819Y-117571428D01*
X247804819Y-117571428D02*
X247757200Y-117666666D01*
X247757200Y-117666666D02*
X247709580Y-117714285D01*
X247709580Y-117714285D02*
X247614342Y-117761904D01*
X247614342Y-117761904D02*
X247423866Y-117809523D01*
X247423866Y-117809523D02*
X247185771Y-117809523D01*
X247185771Y-117809523D02*
X246995295Y-117761904D01*
X246995295Y-117761904D02*
X246900057Y-117714285D01*
X246900057Y-117714285D02*
X246852438Y-117666666D01*
X246852438Y-117666666D02*
X246804819Y-117571428D01*
X139761905Y-105454819D02*
X139761905Y-104454819D01*
X139761905Y-104454819D02*
X140000000Y-104454819D01*
X140000000Y-104454819D02*
X140142857Y-104502438D01*
X140142857Y-104502438D02*
X140238095Y-104597676D01*
X140238095Y-104597676D02*
X140285714Y-104692914D01*
X140285714Y-104692914D02*
X140333333Y-104883390D01*
X140333333Y-104883390D02*
X140333333Y-105026247D01*
X140333333Y-105026247D02*
X140285714Y-105216723D01*
X140285714Y-105216723D02*
X140238095Y-105311961D01*
X140238095Y-105311961D02*
X140142857Y-105407200D01*
X140142857Y-105407200D02*
X140000000Y-105454819D01*
X140000000Y-105454819D02*
X139761905Y-105454819D01*
X141238095Y-104454819D02*
X140761905Y-104454819D01*
X140761905Y-104454819D02*
X140714286Y-104931009D01*
X140714286Y-104931009D02*
X140761905Y-104883390D01*
X140761905Y-104883390D02*
X140857143Y-104835771D01*
X140857143Y-104835771D02*
X141095238Y-104835771D01*
X141095238Y-104835771D02*
X141190476Y-104883390D01*
X141190476Y-104883390D02*
X141238095Y-104931009D01*
X141238095Y-104931009D02*
X141285714Y-105026247D01*
X141285714Y-105026247D02*
X141285714Y-105264342D01*
X141285714Y-105264342D02*
X141238095Y-105359580D01*
X141238095Y-105359580D02*
X141190476Y-105407200D01*
X141190476Y-105407200D02*
X141095238Y-105454819D01*
X141095238Y-105454819D02*
X140857143Y-105454819D01*
X140857143Y-105454819D02*
X140761905Y-105407200D01*
X140761905Y-105407200D02*
X140714286Y-105359580D01*
X241359580Y-140666666D02*
X241407200Y-140714285D01*
X241407200Y-140714285D02*
X241454819Y-140857142D01*
X241454819Y-140857142D02*
X241454819Y-140952380D01*
X241454819Y-140952380D02*
X241407200Y-141095237D01*
X241407200Y-141095237D02*
X241311961Y-141190475D01*
X241311961Y-141190475D02*
X241216723Y-141238094D01*
X241216723Y-141238094D02*
X241026247Y-141285713D01*
X241026247Y-141285713D02*
X240883390Y-141285713D01*
X240883390Y-141285713D02*
X240692914Y-141238094D01*
X240692914Y-141238094D02*
X240597676Y-141190475D01*
X240597676Y-141190475D02*
X240502438Y-141095237D01*
X240502438Y-141095237D02*
X240454819Y-140952380D01*
X240454819Y-140952380D02*
X240454819Y-140857142D01*
X240454819Y-140857142D02*
X240502438Y-140714285D01*
X240502438Y-140714285D02*
X240550057Y-140666666D01*
X240788152Y-139809523D02*
X241454819Y-139809523D01*
X240407200Y-140047618D02*
X241121485Y-140285713D01*
X241121485Y-140285713D02*
X241121485Y-139666666D01*
X214761905Y-105454819D02*
X214761905Y-104454819D01*
X214761905Y-104454819D02*
X215000000Y-104454819D01*
X215000000Y-104454819D02*
X215142857Y-104502438D01*
X215142857Y-104502438D02*
X215238095Y-104597676D01*
X215238095Y-104597676D02*
X215285714Y-104692914D01*
X215285714Y-104692914D02*
X215333333Y-104883390D01*
X215333333Y-104883390D02*
X215333333Y-105026247D01*
X215333333Y-105026247D02*
X215285714Y-105216723D01*
X215285714Y-105216723D02*
X215238095Y-105311961D01*
X215238095Y-105311961D02*
X215142857Y-105407200D01*
X215142857Y-105407200D02*
X215000000Y-105454819D01*
X215000000Y-105454819D02*
X214761905Y-105454819D01*
X215904762Y-104883390D02*
X215809524Y-104835771D01*
X215809524Y-104835771D02*
X215761905Y-104788152D01*
X215761905Y-104788152D02*
X215714286Y-104692914D01*
X215714286Y-104692914D02*
X215714286Y-104645295D01*
X215714286Y-104645295D02*
X215761905Y-104550057D01*
X215761905Y-104550057D02*
X215809524Y-104502438D01*
X215809524Y-104502438D02*
X215904762Y-104454819D01*
X215904762Y-104454819D02*
X216095238Y-104454819D01*
X216095238Y-104454819D02*
X216190476Y-104502438D01*
X216190476Y-104502438D02*
X216238095Y-104550057D01*
X216238095Y-104550057D02*
X216285714Y-104645295D01*
X216285714Y-104645295D02*
X216285714Y-104692914D01*
X216285714Y-104692914D02*
X216238095Y-104788152D01*
X216238095Y-104788152D02*
X216190476Y-104835771D01*
X216190476Y-104835771D02*
X216095238Y-104883390D01*
X216095238Y-104883390D02*
X215904762Y-104883390D01*
X215904762Y-104883390D02*
X215809524Y-104931009D01*
X215809524Y-104931009D02*
X215761905Y-104978628D01*
X215761905Y-104978628D02*
X215714286Y-105073866D01*
X215714286Y-105073866D02*
X215714286Y-105264342D01*
X215714286Y-105264342D02*
X215761905Y-105359580D01*
X215761905Y-105359580D02*
X215809524Y-105407200D01*
X215809524Y-105407200D02*
X215904762Y-105454819D01*
X215904762Y-105454819D02*
X216095238Y-105454819D01*
X216095238Y-105454819D02*
X216190476Y-105407200D01*
X216190476Y-105407200D02*
X216238095Y-105359580D01*
X216238095Y-105359580D02*
X216285714Y-105264342D01*
X216285714Y-105264342D02*
X216285714Y-105073866D01*
X216285714Y-105073866D02*
X216238095Y-104978628D01*
X216238095Y-104978628D02*
X216190476Y-104931009D01*
X216190476Y-104931009D02*
X216095238Y-104883390D01*
X247804819Y-97142857D02*
X247328628Y-97476190D01*
X247804819Y-97714285D02*
X246804819Y-97714285D01*
X246804819Y-97714285D02*
X246804819Y-97333333D01*
X246804819Y-97333333D02*
X246852438Y-97238095D01*
X246852438Y-97238095D02*
X246900057Y-97190476D01*
X246900057Y-97190476D02*
X246995295Y-97142857D01*
X246995295Y-97142857D02*
X247138152Y-97142857D01*
X247138152Y-97142857D02*
X247233390Y-97190476D01*
X247233390Y-97190476D02*
X247281009Y-97238095D01*
X247281009Y-97238095D02*
X247328628Y-97333333D01*
X247328628Y-97333333D02*
X247328628Y-97714285D01*
X247804819Y-96190476D02*
X247804819Y-96761904D01*
X247804819Y-96476190D02*
X246804819Y-96476190D01*
X246804819Y-96476190D02*
X246947676Y-96571428D01*
X246947676Y-96571428D02*
X247042914Y-96666666D01*
X247042914Y-96666666D02*
X247090533Y-96761904D01*
X247233390Y-95619047D02*
X247185771Y-95714285D01*
X247185771Y-95714285D02*
X247138152Y-95761904D01*
X247138152Y-95761904D02*
X247042914Y-95809523D01*
X247042914Y-95809523D02*
X246995295Y-95809523D01*
X246995295Y-95809523D02*
X246900057Y-95761904D01*
X246900057Y-95761904D02*
X246852438Y-95714285D01*
X246852438Y-95714285D02*
X246804819Y-95619047D01*
X246804819Y-95619047D02*
X246804819Y-95428571D01*
X246804819Y-95428571D02*
X246852438Y-95333333D01*
X246852438Y-95333333D02*
X246900057Y-95285714D01*
X246900057Y-95285714D02*
X246995295Y-95238095D01*
X246995295Y-95238095D02*
X247042914Y-95238095D01*
X247042914Y-95238095D02*
X247138152Y-95285714D01*
X247138152Y-95285714D02*
X247185771Y-95333333D01*
X247185771Y-95333333D02*
X247233390Y-95428571D01*
X247233390Y-95428571D02*
X247233390Y-95619047D01*
X247233390Y-95619047D02*
X247281009Y-95714285D01*
X247281009Y-95714285D02*
X247328628Y-95761904D01*
X247328628Y-95761904D02*
X247423866Y-95809523D01*
X247423866Y-95809523D02*
X247614342Y-95809523D01*
X247614342Y-95809523D02*
X247709580Y-95761904D01*
X247709580Y-95761904D02*
X247757200Y-95714285D01*
X247757200Y-95714285D02*
X247804819Y-95619047D01*
X247804819Y-95619047D02*
X247804819Y-95428571D01*
X247804819Y-95428571D02*
X247757200Y-95333333D01*
X247757200Y-95333333D02*
X247709580Y-95285714D01*
X247709580Y-95285714D02*
X247614342Y-95238095D01*
X247614342Y-95238095D02*
X247423866Y-95238095D01*
X247423866Y-95238095D02*
X247328628Y-95285714D01*
X247328628Y-95285714D02*
X247281009Y-95333333D01*
X247281009Y-95333333D02*
X247233390Y-95428571D01*
D12*
%TO.C,D12*%
X114500000Y-127960000D02*
X117185000Y-127960000D01*
X117185000Y-126040000D02*
X114500000Y-126040000D01*
X117185000Y-127960000D02*
X117185000Y-126040000D01*
%TO.C,R19*%
X223265000Y-118727064D02*
X223265000Y-118272936D01*
X224735000Y-118727064D02*
X224735000Y-118272936D01*
D13*
%TO.C,SW2*%
X50777000Y-94237000D02*
X50777000Y-95380000D01*
X50777000Y-96142000D02*
X50777000Y-97285000D01*
X50777000Y-98047000D02*
X50777000Y-99190000D01*
X50777000Y-99952000D02*
X50777000Y-101095000D01*
X50777000Y-101857000D02*
X50777000Y-103000000D01*
X50777000Y-103762000D02*
X50777000Y-104905000D01*
X50777000Y-105667000D02*
X50777000Y-106810000D01*
X50777000Y-107572000D02*
X50777000Y-108715000D01*
X50777000Y-109477000D02*
X50777000Y-110620000D01*
X50777000Y-111255000D02*
X50777000Y-111763000D01*
X50777000Y-111763000D02*
X63223000Y-111763000D01*
X63223000Y-94237000D02*
X50777000Y-94237000D01*
X63223000Y-94237000D02*
X63223000Y-95380000D01*
X63223000Y-96142000D02*
X63223000Y-97285000D01*
X63223000Y-98047000D02*
X63223000Y-99190000D01*
X63223000Y-99952000D02*
X63223000Y-101095000D01*
X63223000Y-101857000D02*
X63223000Y-103000000D01*
X63223000Y-103762000D02*
X63223000Y-104905000D01*
X63223000Y-105667000D02*
X63223000Y-106810000D01*
X63223000Y-107572000D02*
X63223000Y-108715000D01*
X63223000Y-109477000D02*
X63223000Y-110620000D01*
X63223000Y-111255000D02*
X63223000Y-111763000D01*
%TO.C,SW19*%
X225777000Y-118237000D02*
X225777000Y-119380000D01*
X225777000Y-120142000D02*
X225777000Y-121285000D01*
X225777000Y-122047000D02*
X225777000Y-123190000D01*
X225777000Y-123952000D02*
X225777000Y-125095000D01*
X225777000Y-125857000D02*
X225777000Y-127000000D01*
X225777000Y-127762000D02*
X225777000Y-128905000D01*
X225777000Y-129667000D02*
X225777000Y-130810000D01*
X225777000Y-131572000D02*
X225777000Y-132715000D01*
X225777000Y-133477000D02*
X225777000Y-134620000D01*
X225777000Y-135255000D02*
X225777000Y-135763000D01*
X225777000Y-135763000D02*
X238223000Y-135763000D01*
X238223000Y-118237000D02*
X225777000Y-118237000D01*
X238223000Y-118237000D02*
X238223000Y-119380000D01*
X238223000Y-120142000D02*
X238223000Y-121285000D01*
X238223000Y-122047000D02*
X238223000Y-123190000D01*
X238223000Y-123952000D02*
X238223000Y-125095000D01*
X238223000Y-125857000D02*
X238223000Y-127000000D01*
X238223000Y-127762000D02*
X238223000Y-128905000D01*
X238223000Y-129667000D02*
X238223000Y-130810000D01*
X238223000Y-131572000D02*
X238223000Y-132715000D01*
X238223000Y-133477000D02*
X238223000Y-134620000D01*
X238223000Y-135255000D02*
X238223000Y-135763000D01*
D12*
%TO.C,D13*%
X139500000Y-127960000D02*
X142185000Y-127960000D01*
X142185000Y-126040000D02*
X139500000Y-126040000D01*
X142185000Y-127960000D02*
X142185000Y-126040000D01*
%TO.C,J2*%
X269670000Y-108080000D02*
X269670000Y-95320000D01*
X272330000Y-95320000D02*
X269670000Y-95320000D01*
X272330000Y-108080000D02*
X269670000Y-108080000D01*
X272330000Y-108080000D02*
X272330000Y-95320000D01*
X272330000Y-109350000D02*
X272330000Y-110680000D01*
X272330000Y-110680000D02*
X271000000Y-110680000D01*
%TO.C,R27*%
X96765000Y-137772936D02*
X96765000Y-138227064D01*
X98235000Y-137772936D02*
X98235000Y-138227064D01*
%TO.C,R7*%
X173265000Y-94727064D02*
X173265000Y-94272936D01*
X174735000Y-94727064D02*
X174735000Y-94272936D01*
%TO.C,C5*%
X266265000Y-116761252D02*
X266265000Y-116238748D01*
X267735000Y-116761252D02*
X267735000Y-116238748D01*
D13*
%TO.C,SW11*%
X75777000Y-118237000D02*
X75777000Y-119380000D01*
X75777000Y-120142000D02*
X75777000Y-121285000D01*
X75777000Y-122047000D02*
X75777000Y-123190000D01*
X75777000Y-123952000D02*
X75777000Y-125095000D01*
X75777000Y-125857000D02*
X75777000Y-127000000D01*
X75777000Y-127762000D02*
X75777000Y-128905000D01*
X75777000Y-129667000D02*
X75777000Y-130810000D01*
X75777000Y-131572000D02*
X75777000Y-132715000D01*
X75777000Y-133477000D02*
X75777000Y-134620000D01*
X75777000Y-135255000D02*
X75777000Y-135763000D01*
X75777000Y-135763000D02*
X88223000Y-135763000D01*
X88223000Y-118237000D02*
X75777000Y-118237000D01*
X88223000Y-118237000D02*
X88223000Y-119380000D01*
X88223000Y-120142000D02*
X88223000Y-121285000D01*
X88223000Y-122047000D02*
X88223000Y-123190000D01*
X88223000Y-123952000D02*
X88223000Y-125095000D01*
X88223000Y-125857000D02*
X88223000Y-127000000D01*
X88223000Y-127762000D02*
X88223000Y-128905000D01*
X88223000Y-129667000D02*
X88223000Y-130810000D01*
X88223000Y-131572000D02*
X88223000Y-132715000D01*
X88223000Y-133477000D02*
X88223000Y-134620000D01*
X88223000Y-135255000D02*
X88223000Y-135763000D01*
D12*
%TO.C,R1*%
X23265000Y-94727064D02*
X23265000Y-94272936D01*
X24735000Y-94727064D02*
X24735000Y-94272936D01*
D13*
%TO.C,SW7*%
X175777000Y-94237000D02*
X175777000Y-95380000D01*
X175777000Y-96142000D02*
X175777000Y-97285000D01*
X175777000Y-98047000D02*
X175777000Y-99190000D01*
X175777000Y-99952000D02*
X175777000Y-101095000D01*
X175777000Y-101857000D02*
X175777000Y-103000000D01*
X175777000Y-103762000D02*
X175777000Y-104905000D01*
X175777000Y-105667000D02*
X175777000Y-106810000D01*
X175777000Y-107572000D02*
X175777000Y-108715000D01*
X175777000Y-109477000D02*
X175777000Y-110620000D01*
X175777000Y-111255000D02*
X175777000Y-111763000D01*
X175777000Y-111763000D02*
X188223000Y-111763000D01*
X188223000Y-94237000D02*
X175777000Y-94237000D01*
X188223000Y-94237000D02*
X188223000Y-95380000D01*
X188223000Y-96142000D02*
X188223000Y-97285000D01*
X188223000Y-98047000D02*
X188223000Y-99190000D01*
X188223000Y-99952000D02*
X188223000Y-101095000D01*
X188223000Y-101857000D02*
X188223000Y-103000000D01*
X188223000Y-103762000D02*
X188223000Y-104905000D01*
X188223000Y-105667000D02*
X188223000Y-106810000D01*
X188223000Y-107572000D02*
X188223000Y-108715000D01*
X188223000Y-109477000D02*
X188223000Y-110620000D01*
X188223000Y-111255000D02*
X188223000Y-111763000D01*
%TO.C,SW16*%
X200777000Y-118237000D02*
X200777000Y-119380000D01*
X200777000Y-120142000D02*
X200777000Y-121285000D01*
X200777000Y-122047000D02*
X200777000Y-123190000D01*
X200777000Y-123952000D02*
X200777000Y-125095000D01*
X200777000Y-125857000D02*
X200777000Y-127000000D01*
X200777000Y-127762000D02*
X200777000Y-128905000D01*
X200777000Y-129667000D02*
X200777000Y-130810000D01*
X200777000Y-131572000D02*
X200777000Y-132715000D01*
X200777000Y-133477000D02*
X200777000Y-134620000D01*
X200777000Y-135255000D02*
X200777000Y-135763000D01*
X200777000Y-135763000D02*
X213223000Y-135763000D01*
X213223000Y-118237000D02*
X200777000Y-118237000D01*
X213223000Y-118237000D02*
X213223000Y-119380000D01*
X213223000Y-120142000D02*
X213223000Y-121285000D01*
X213223000Y-122047000D02*
X213223000Y-123190000D01*
X213223000Y-123952000D02*
X213223000Y-125095000D01*
X213223000Y-125857000D02*
X213223000Y-127000000D01*
X213223000Y-127762000D02*
X213223000Y-128905000D01*
X213223000Y-129667000D02*
X213223000Y-130810000D01*
X213223000Y-131572000D02*
X213223000Y-132715000D01*
X213223000Y-133477000D02*
X213223000Y-134620000D01*
X213223000Y-135255000D02*
X213223000Y-135763000D01*
D12*
%TO.C,D10*%
X64500000Y-127960000D02*
X67185000Y-127960000D01*
X67185000Y-126040000D02*
X64500000Y-126040000D01*
X67185000Y-127960000D02*
X67185000Y-126040000D01*
%TO.C,R8*%
X198265000Y-94727064D02*
X198265000Y-94272936D01*
X199735000Y-94727064D02*
X199735000Y-94272936D01*
%TO.C,J3*%
X269670000Y-116505000D02*
X269670000Y-113905000D01*
X272330000Y-113905000D02*
X269670000Y-113905000D01*
X272330000Y-116505000D02*
X269670000Y-116505000D01*
X272330000Y-116505000D02*
X272330000Y-113905000D01*
X272330000Y-117775000D02*
X272330000Y-119105000D01*
X272330000Y-119105000D02*
X271000000Y-119105000D01*
%TO.C,R12*%
X98265000Y-118727064D02*
X98265000Y-118272936D01*
X99735000Y-118727064D02*
X99735000Y-118272936D01*
%TO.C,U4*%
X229440000Y-142000000D02*
X229440000Y-140050000D01*
X229440000Y-142000000D02*
X229440000Y-143950000D01*
X239560000Y-142000000D02*
X239560000Y-140050000D01*
X239560000Y-142000000D02*
X239560000Y-143950000D01*
X239835000Y-139540000D02*
X239505000Y-139300000D01*
X239835000Y-139060000D01*
X239835000Y-139540000D01*
G36*
X239835000Y-139540000D02*
G01*
X239505000Y-139300000D01*
X239835000Y-139060000D01*
X239835000Y-139540000D01*
G37*
%TO.C,D2*%
X64562500Y-103960000D02*
X67247500Y-103960000D01*
X67247500Y-102040000D02*
X64562500Y-102040000D01*
X67247500Y-103960000D02*
X67247500Y-102040000D01*
%TO.C,R25*%
X48265000Y-140360436D02*
X48265000Y-140814564D01*
X49735000Y-140360436D02*
X49735000Y-140814564D01*
%TO.C,D7*%
X189500000Y-103960000D02*
X192185000Y-103960000D01*
X192185000Y-102040000D02*
X189500000Y-102040000D01*
X192185000Y-103960000D02*
X192185000Y-102040000D01*
D13*
%TO.C,SW4*%
X100777000Y-94237000D02*
X100777000Y-95380000D01*
X100777000Y-96142000D02*
X100777000Y-97285000D01*
X100777000Y-98047000D02*
X100777000Y-99190000D01*
X100777000Y-99952000D02*
X100777000Y-101095000D01*
X100777000Y-101857000D02*
X100777000Y-103000000D01*
X100777000Y-103762000D02*
X100777000Y-104905000D01*
X100777000Y-105667000D02*
X100777000Y-106810000D01*
X100777000Y-107572000D02*
X100777000Y-108715000D01*
X100777000Y-109477000D02*
X100777000Y-110620000D01*
X100777000Y-111255000D02*
X100777000Y-111763000D01*
X100777000Y-111763000D02*
X113223000Y-111763000D01*
X113223000Y-94237000D02*
X100777000Y-94237000D01*
X113223000Y-94237000D02*
X113223000Y-95380000D01*
X113223000Y-96142000D02*
X113223000Y-97285000D01*
X113223000Y-98047000D02*
X113223000Y-99190000D01*
X113223000Y-99952000D02*
X113223000Y-101095000D01*
X113223000Y-101857000D02*
X113223000Y-103000000D01*
X113223000Y-103762000D02*
X113223000Y-104905000D01*
X113223000Y-105667000D02*
X113223000Y-106810000D01*
X113223000Y-107572000D02*
X113223000Y-108715000D01*
X113223000Y-109477000D02*
X113223000Y-110620000D01*
X113223000Y-111255000D02*
X113223000Y-111763000D01*
D12*
%TO.C,D16*%
X214500000Y-127960000D02*
X217185000Y-127960000D01*
X217185000Y-126040000D02*
X214500000Y-126040000D01*
X217185000Y-127960000D02*
X217185000Y-126040000D01*
D13*
%TO.C,SW6*%
X150777000Y-94237000D02*
X150777000Y-95380000D01*
X150777000Y-96142000D02*
X150777000Y-97285000D01*
X150777000Y-98047000D02*
X150777000Y-99190000D01*
X150777000Y-99952000D02*
X150777000Y-101095000D01*
X150777000Y-101857000D02*
X150777000Y-103000000D01*
X150777000Y-103762000D02*
X150777000Y-104905000D01*
X150777000Y-105667000D02*
X150777000Y-106810000D01*
X150777000Y-107572000D02*
X150777000Y-108715000D01*
X150777000Y-109477000D02*
X150777000Y-110620000D01*
X150777000Y-111255000D02*
X150777000Y-111763000D01*
X150777000Y-111763000D02*
X163223000Y-111763000D01*
X163223000Y-94237000D02*
X150777000Y-94237000D01*
X163223000Y-94237000D02*
X163223000Y-95380000D01*
X163223000Y-96142000D02*
X163223000Y-97285000D01*
X163223000Y-98047000D02*
X163223000Y-99190000D01*
X163223000Y-99952000D02*
X163223000Y-101095000D01*
X163223000Y-101857000D02*
X163223000Y-103000000D01*
X163223000Y-103762000D02*
X163223000Y-104905000D01*
X163223000Y-105667000D02*
X163223000Y-106810000D01*
X163223000Y-107572000D02*
X163223000Y-108715000D01*
X163223000Y-109477000D02*
X163223000Y-110620000D01*
X163223000Y-111255000D02*
X163223000Y-111763000D01*
%TO.C,SW8*%
X200777000Y-94237000D02*
X200777000Y-95380000D01*
X200777000Y-96142000D02*
X200777000Y-97285000D01*
X200777000Y-98047000D02*
X200777000Y-99190000D01*
X200777000Y-99952000D02*
X200777000Y-101095000D01*
X200777000Y-101857000D02*
X200777000Y-103000000D01*
X200777000Y-103762000D02*
X200777000Y-104905000D01*
X200777000Y-105667000D02*
X200777000Y-106810000D01*
X200777000Y-107572000D02*
X200777000Y-108715000D01*
X200777000Y-109477000D02*
X200777000Y-110620000D01*
X200777000Y-111255000D02*
X200777000Y-111763000D01*
X200777000Y-111763000D02*
X213223000Y-111763000D01*
X213223000Y-94237000D02*
X200777000Y-94237000D01*
X213223000Y-94237000D02*
X213223000Y-95380000D01*
X213223000Y-96142000D02*
X213223000Y-97285000D01*
X213223000Y-98047000D02*
X213223000Y-99190000D01*
X213223000Y-99952000D02*
X213223000Y-101095000D01*
X213223000Y-101857000D02*
X213223000Y-103000000D01*
X213223000Y-103762000D02*
X213223000Y-104905000D01*
X213223000Y-105667000D02*
X213223000Y-106810000D01*
X213223000Y-107572000D02*
X213223000Y-108715000D01*
X213223000Y-109477000D02*
X213223000Y-110620000D01*
X213223000Y-111255000D02*
X213223000Y-111763000D01*
D12*
%TO.C,R17*%
X223265000Y-96814564D02*
X223265000Y-96360436D01*
X224735000Y-96814564D02*
X224735000Y-96360436D01*
%TO.C,C2*%
X245811252Y-85265000D02*
X245288748Y-85265000D01*
X245811252Y-86735000D02*
X245288748Y-86735000D01*
D13*
%TO.C,SW10*%
X50777000Y-118237000D02*
X50777000Y-119380000D01*
X50777000Y-120142000D02*
X50777000Y-121285000D01*
X50777000Y-122047000D02*
X50777000Y-123190000D01*
X50777000Y-123952000D02*
X50777000Y-125095000D01*
X50777000Y-125857000D02*
X50777000Y-127000000D01*
X50777000Y-127762000D02*
X50777000Y-128905000D01*
X50777000Y-129667000D02*
X50777000Y-130810000D01*
X50777000Y-131572000D02*
X50777000Y-132715000D01*
X50777000Y-133477000D02*
X50777000Y-134620000D01*
X50777000Y-135255000D02*
X50777000Y-135763000D01*
X50777000Y-135763000D02*
X63223000Y-135763000D01*
X63223000Y-118237000D02*
X50777000Y-118237000D01*
X63223000Y-118237000D02*
X63223000Y-119380000D01*
X63223000Y-120142000D02*
X63223000Y-121285000D01*
X63223000Y-122047000D02*
X63223000Y-123190000D01*
X63223000Y-123952000D02*
X63223000Y-125095000D01*
X63223000Y-125857000D02*
X63223000Y-127000000D01*
X63223000Y-127762000D02*
X63223000Y-128905000D01*
X63223000Y-129667000D02*
X63223000Y-130810000D01*
X63223000Y-131572000D02*
X63223000Y-132715000D01*
X63223000Y-133477000D02*
X63223000Y-134620000D01*
X63223000Y-135255000D02*
X63223000Y-135763000D01*
%TO.C,SW17*%
X225777000Y-94237000D02*
X225777000Y-95380000D01*
X225777000Y-96142000D02*
X225777000Y-97285000D01*
X225777000Y-98047000D02*
X225777000Y-99190000D01*
X225777000Y-99952000D02*
X225777000Y-101095000D01*
X225777000Y-101857000D02*
X225777000Y-103000000D01*
X225777000Y-103762000D02*
X225777000Y-104905000D01*
X225777000Y-105667000D02*
X225777000Y-106810000D01*
X225777000Y-107572000D02*
X225777000Y-108715000D01*
X225777000Y-109477000D02*
X225777000Y-110620000D01*
X225777000Y-111255000D02*
X225777000Y-111763000D01*
X225777000Y-111763000D02*
X238223000Y-111763000D01*
X238223000Y-94237000D02*
X225777000Y-94237000D01*
X238223000Y-94237000D02*
X238223000Y-95380000D01*
X238223000Y-96142000D02*
X238223000Y-97285000D01*
X238223000Y-98047000D02*
X238223000Y-99190000D01*
X238223000Y-99952000D02*
X238223000Y-101095000D01*
X238223000Y-101857000D02*
X238223000Y-103000000D01*
X238223000Y-103762000D02*
X238223000Y-104905000D01*
X238223000Y-105667000D02*
X238223000Y-106810000D01*
X238223000Y-107572000D02*
X238223000Y-108715000D01*
X238223000Y-109477000D02*
X238223000Y-110620000D01*
X238223000Y-111255000D02*
X238223000Y-111763000D01*
D12*
%TO.C,R13*%
X123265000Y-118727064D02*
X123265000Y-118272936D01*
X124735000Y-118727064D02*
X124735000Y-118272936D01*
%TO.C,R32*%
X217727064Y-130265000D02*
X217272936Y-130265000D01*
X217727064Y-131735000D02*
X217272936Y-131735000D01*
%TO.C,D18*%
X264040000Y-100377500D02*
X264040000Y-103062500D01*
X265960000Y-100377500D02*
X264040000Y-100377500D01*
X265960000Y-103062500D02*
X265960000Y-100377500D01*
%TO.C,U2*%
X247994999Y-88850000D02*
X247994999Y-86900000D01*
X247994999Y-88850000D02*
X247994999Y-90800000D01*
X258114999Y-88850000D02*
X258114999Y-86900000D01*
X258114999Y-88850000D02*
X258114999Y-90800000D01*
X248049999Y-91550000D02*
X247719999Y-91790000D01*
X247719999Y-91310000D01*
X248049999Y-91550000D01*
G36*
X248049999Y-91550000D02*
G01*
X247719999Y-91790000D01*
X247719999Y-91310000D01*
X248049999Y-91550000D01*
G37*
D13*
%TO.C,SW5*%
X125777000Y-94237000D02*
X125777000Y-95380000D01*
X125777000Y-96142000D02*
X125777000Y-97285000D01*
X125777000Y-98047000D02*
X125777000Y-99190000D01*
X125777000Y-99952000D02*
X125777000Y-101095000D01*
X125777000Y-101857000D02*
X125777000Y-103000000D01*
X125777000Y-103762000D02*
X125777000Y-104905000D01*
X125777000Y-105667000D02*
X125777000Y-106810000D01*
X125777000Y-107572000D02*
X125777000Y-108715000D01*
X125777000Y-109477000D02*
X125777000Y-110620000D01*
X125777000Y-111255000D02*
X125777000Y-111763000D01*
X125777000Y-111763000D02*
X138223000Y-111763000D01*
X138223000Y-94237000D02*
X125777000Y-94237000D01*
X138223000Y-94237000D02*
X138223000Y-95380000D01*
X138223000Y-96142000D02*
X138223000Y-97285000D01*
X138223000Y-98047000D02*
X138223000Y-99190000D01*
X138223000Y-99952000D02*
X138223000Y-101095000D01*
X138223000Y-101857000D02*
X138223000Y-103000000D01*
X138223000Y-103762000D02*
X138223000Y-104905000D01*
X138223000Y-105667000D02*
X138223000Y-106810000D01*
X138223000Y-107572000D02*
X138223000Y-108715000D01*
X138223000Y-109477000D02*
X138223000Y-110620000D01*
X138223000Y-111255000D02*
X138223000Y-111763000D01*
D12*
%TO.C,D9*%
X39500000Y-127960000D02*
X42185000Y-127960000D01*
X42185000Y-126040000D02*
X39500000Y-126040000D01*
X42185000Y-127960000D02*
X42185000Y-126040000D01*
%TO.C,R5*%
X123265000Y-94727064D02*
X123265000Y-94272936D01*
X124735000Y-94727064D02*
X124735000Y-94272936D01*
%TO.C,R26*%
X73765000Y-138860436D02*
X73765000Y-139314564D01*
X75235000Y-138860436D02*
X75235000Y-139314564D01*
%TO.C,R15*%
X173265000Y-118727064D02*
X173265000Y-118272936D01*
X174735000Y-118727064D02*
X174735000Y-118272936D01*
%TO.C,R10*%
X48265000Y-118727064D02*
X48265000Y-118272936D01*
X49735000Y-118727064D02*
X49735000Y-118272936D01*
D13*
%TO.C,SW15*%
X175777000Y-118237000D02*
X175777000Y-119380000D01*
X175777000Y-120142000D02*
X175777000Y-121285000D01*
X175777000Y-122047000D02*
X175777000Y-123190000D01*
X175777000Y-123952000D02*
X175777000Y-125095000D01*
X175777000Y-125857000D02*
X175777000Y-127000000D01*
X175777000Y-127762000D02*
X175777000Y-128905000D01*
X175777000Y-129667000D02*
X175777000Y-130810000D01*
X175777000Y-131572000D02*
X175777000Y-132715000D01*
X175777000Y-133477000D02*
X175777000Y-134620000D01*
X175777000Y-135255000D02*
X175777000Y-135763000D01*
X175777000Y-135763000D02*
X188223000Y-135763000D01*
X188223000Y-118237000D02*
X175777000Y-118237000D01*
X188223000Y-118237000D02*
X188223000Y-119380000D01*
X188223000Y-120142000D02*
X188223000Y-121285000D01*
X188223000Y-122047000D02*
X188223000Y-123190000D01*
X188223000Y-123952000D02*
X188223000Y-125095000D01*
X188223000Y-125857000D02*
X188223000Y-127000000D01*
X188223000Y-127762000D02*
X188223000Y-128905000D01*
X188223000Y-129667000D02*
X188223000Y-130810000D01*
X188223000Y-131572000D02*
X188223000Y-132715000D01*
X188223000Y-133477000D02*
X188223000Y-134620000D01*
X188223000Y-135255000D02*
X188223000Y-135763000D01*
%TO.C,SW14*%
X150777000Y-118237000D02*
X150777000Y-119380000D01*
X150777000Y-120142000D02*
X150777000Y-121285000D01*
X150777000Y-122047000D02*
X150777000Y-123190000D01*
X150777000Y-123952000D02*
X150777000Y-125095000D01*
X150777000Y-125857000D02*
X150777000Y-127000000D01*
X150777000Y-127762000D02*
X150777000Y-128905000D01*
X150777000Y-129667000D02*
X150777000Y-130810000D01*
X150777000Y-131572000D02*
X150777000Y-132715000D01*
X150777000Y-133477000D02*
X150777000Y-134620000D01*
X150777000Y-135255000D02*
X150777000Y-135763000D01*
X150777000Y-135763000D02*
X163223000Y-135763000D01*
X163223000Y-118237000D02*
X150777000Y-118237000D01*
X163223000Y-118237000D02*
X163223000Y-119380000D01*
X163223000Y-120142000D02*
X163223000Y-121285000D01*
X163223000Y-122047000D02*
X163223000Y-123190000D01*
X163223000Y-123952000D02*
X163223000Y-125095000D01*
X163223000Y-125857000D02*
X163223000Y-127000000D01*
X163223000Y-127762000D02*
X163223000Y-128905000D01*
X163223000Y-129667000D02*
X163223000Y-130810000D01*
X163223000Y-131572000D02*
X163223000Y-132715000D01*
X163223000Y-133477000D02*
X163223000Y-134620000D01*
X163223000Y-135255000D02*
X163223000Y-135763000D01*
D12*
%TO.C,D17*%
X239500000Y-103960000D02*
X242185000Y-103960000D01*
X242185000Y-102040000D02*
X239500000Y-102040000D01*
X242185000Y-103960000D02*
X242185000Y-102040000D01*
%TO.C,D4*%
X114500000Y-103960000D02*
X117185000Y-103960000D01*
X117185000Y-102040000D02*
X114500000Y-102040000D01*
X117185000Y-103960000D02*
X117185000Y-102040000D01*
%TO.C,U3*%
X243940000Y-142000000D02*
X243940000Y-140050000D01*
X243940000Y-142000000D02*
X243940000Y-143950000D01*
X254060000Y-142000000D02*
X254060000Y-140050000D01*
X254060000Y-142000000D02*
X254060000Y-143950000D01*
X254335000Y-139540000D02*
X254005000Y-139300000D01*
X254335000Y-139060000D01*
X254335000Y-139540000D01*
G36*
X254335000Y-139540000D02*
G01*
X254005000Y-139300000D01*
X254335000Y-139060000D01*
X254335000Y-139540000D01*
G37*
%TO.C,R30*%
X173765000Y-139272936D02*
X173765000Y-139727064D01*
X175235000Y-139272936D02*
X175235000Y-139727064D01*
D13*
%TO.C,SW12*%
X100777000Y-118237000D02*
X100777000Y-119380000D01*
X100777000Y-120142000D02*
X100777000Y-121285000D01*
X100777000Y-122047000D02*
X100777000Y-123190000D01*
X100777000Y-123952000D02*
X100777000Y-125095000D01*
X100777000Y-125857000D02*
X100777000Y-127000000D01*
X100777000Y-127762000D02*
X100777000Y-128905000D01*
X100777000Y-129667000D02*
X100777000Y-130810000D01*
X100777000Y-131572000D02*
X100777000Y-132715000D01*
X100777000Y-133477000D02*
X100777000Y-134620000D01*
X100777000Y-135255000D02*
X100777000Y-135763000D01*
X100777000Y-135763000D02*
X113223000Y-135763000D01*
X113223000Y-118237000D02*
X100777000Y-118237000D01*
X113223000Y-118237000D02*
X113223000Y-119380000D01*
X113223000Y-120142000D02*
X113223000Y-121285000D01*
X113223000Y-122047000D02*
X113223000Y-123190000D01*
X113223000Y-123952000D02*
X113223000Y-125095000D01*
X113223000Y-125857000D02*
X113223000Y-127000000D01*
X113223000Y-127762000D02*
X113223000Y-128905000D01*
X113223000Y-129667000D02*
X113223000Y-130810000D01*
X113223000Y-131572000D02*
X113223000Y-132715000D01*
X113223000Y-133477000D02*
X113223000Y-134620000D01*
X113223000Y-135255000D02*
X113223000Y-135763000D01*
D12*
%TO.C,R28*%
X123265000Y-136860436D02*
X123265000Y-137314564D01*
X124735000Y-136860436D02*
X124735000Y-137314564D01*
%TO.C,R31*%
X196765000Y-138360436D02*
X196765000Y-138814564D01*
X198235000Y-138360436D02*
X198235000Y-138814564D01*
%TO.C,D11*%
X89500000Y-127960000D02*
X92185000Y-127960000D01*
X92185000Y-126040000D02*
X89500000Y-126040000D01*
X92185000Y-127960000D02*
X92185000Y-126040000D01*
D13*
%TO.C,SW13*%
X125777000Y-118237000D02*
X125777000Y-119380000D01*
X125777000Y-120142000D02*
X125777000Y-121285000D01*
X125777000Y-122047000D02*
X125777000Y-123190000D01*
X125777000Y-123952000D02*
X125777000Y-125095000D01*
X125777000Y-125857000D02*
X125777000Y-127000000D01*
X125777000Y-127762000D02*
X125777000Y-128905000D01*
X125777000Y-129667000D02*
X125777000Y-130810000D01*
X125777000Y-131572000D02*
X125777000Y-132715000D01*
X125777000Y-133477000D02*
X125777000Y-134620000D01*
X125777000Y-135255000D02*
X125777000Y-135763000D01*
X125777000Y-135763000D02*
X138223000Y-135763000D01*
X138223000Y-118237000D02*
X125777000Y-118237000D01*
X138223000Y-118237000D02*
X138223000Y-119380000D01*
X138223000Y-120142000D02*
X138223000Y-121285000D01*
X138223000Y-122047000D02*
X138223000Y-123190000D01*
X138223000Y-123952000D02*
X138223000Y-125095000D01*
X138223000Y-125857000D02*
X138223000Y-127000000D01*
X138223000Y-127762000D02*
X138223000Y-128905000D01*
X138223000Y-129667000D02*
X138223000Y-130810000D01*
X138223000Y-131572000D02*
X138223000Y-132715000D01*
X138223000Y-133477000D02*
X138223000Y-134620000D01*
X138223000Y-135255000D02*
X138223000Y-135763000D01*
D12*
%TO.C,C3*%
X256238748Y-143765000D02*
X256761252Y-143765000D01*
X256238748Y-145235000D02*
X256761252Y-145235000D01*
D13*
%TO.C,SW1*%
X25777000Y-94237000D02*
X25777000Y-95380000D01*
X25777000Y-96142000D02*
X25777000Y-97285000D01*
X25777000Y-98047000D02*
X25777000Y-99190000D01*
X25777000Y-99952000D02*
X25777000Y-101095000D01*
X25777000Y-101857000D02*
X25777000Y-103000000D01*
X25777000Y-103762000D02*
X25777000Y-104905000D01*
X25777000Y-105667000D02*
X25777000Y-106810000D01*
X25777000Y-107572000D02*
X25777000Y-108715000D01*
X25777000Y-109477000D02*
X25777000Y-110620000D01*
X25777000Y-111255000D02*
X25777000Y-111763000D01*
X25777000Y-111763000D02*
X38223000Y-111763000D01*
X38223000Y-94237000D02*
X25777000Y-94237000D01*
X38223000Y-94237000D02*
X38223000Y-95380000D01*
X38223000Y-96142000D02*
X38223000Y-97285000D01*
X38223000Y-98047000D02*
X38223000Y-99190000D01*
X38223000Y-99952000D02*
X38223000Y-101095000D01*
X38223000Y-101857000D02*
X38223000Y-103000000D01*
X38223000Y-103762000D02*
X38223000Y-104905000D01*
X38223000Y-105667000D02*
X38223000Y-106810000D01*
X38223000Y-107572000D02*
X38223000Y-108715000D01*
X38223000Y-109477000D02*
X38223000Y-110620000D01*
X38223000Y-111255000D02*
X38223000Y-111763000D01*
D12*
%TO.C,R11*%
X73265000Y-118727064D02*
X73265000Y-118272936D01*
X74735000Y-118727064D02*
X74735000Y-118272936D01*
D13*
%TO.C,SW9*%
X25777000Y-118237000D02*
X25777000Y-119380000D01*
X25777000Y-120142000D02*
X25777000Y-121285000D01*
X25777000Y-122047000D02*
X25777000Y-123190000D01*
X25777000Y-123952000D02*
X25777000Y-125095000D01*
X25777000Y-125857000D02*
X25777000Y-127000000D01*
X25777000Y-127762000D02*
X25777000Y-128905000D01*
X25777000Y-129667000D02*
X25777000Y-130810000D01*
X25777000Y-131572000D02*
X25777000Y-132715000D01*
X25777000Y-133477000D02*
X25777000Y-134620000D01*
X25777000Y-135255000D02*
X25777000Y-135763000D01*
X25777000Y-135763000D02*
X38223000Y-135763000D01*
X38223000Y-118237000D02*
X25777000Y-118237000D01*
X38223000Y-118237000D02*
X38223000Y-119380000D01*
X38223000Y-120142000D02*
X38223000Y-121285000D01*
X38223000Y-122047000D02*
X38223000Y-123190000D01*
X38223000Y-123952000D02*
X38223000Y-125095000D01*
X38223000Y-125857000D02*
X38223000Y-127000000D01*
X38223000Y-127762000D02*
X38223000Y-128905000D01*
X38223000Y-129667000D02*
X38223000Y-130810000D01*
X38223000Y-131572000D02*
X38223000Y-132715000D01*
X38223000Y-133477000D02*
X38223000Y-134620000D01*
X38223000Y-135255000D02*
X38223000Y-135763000D01*
D12*
%TO.C,R29*%
X161265000Y-140272936D02*
X161265000Y-140727064D01*
X162735000Y-140272936D02*
X162735000Y-140727064D01*
%TO.C,U1*%
X231440000Y-89000000D02*
X231440000Y-87050000D01*
X231440000Y-89000000D02*
X231440000Y-90950000D01*
X241560000Y-89000000D02*
X241560000Y-87050000D01*
X241560000Y-89000000D02*
X241560000Y-90950000D01*
X231495000Y-91700000D02*
X231165000Y-91940000D01*
X231165000Y-91460000D01*
X231495000Y-91700000D01*
G36*
X231495000Y-91700000D02*
G01*
X231165000Y-91940000D01*
X231165000Y-91460000D01*
X231495000Y-91700000D01*
G37*
%TO.C,D14*%
X164500000Y-127960000D02*
X167185000Y-127960000D01*
X167185000Y-126040000D02*
X164500000Y-126040000D01*
X167185000Y-127960000D02*
X167185000Y-126040000D01*
%TO.C,R14*%
X148265000Y-118727064D02*
X148265000Y-118272936D01*
X149735000Y-118727064D02*
X149735000Y-118272936D01*
%TO.C,R16*%
X198265000Y-118727064D02*
X198265000Y-118272936D01*
X199735000Y-118727064D02*
X199735000Y-118272936D01*
%TO.C,R6*%
X148265000Y-96314564D02*
X148265000Y-95860436D01*
X149735000Y-96314564D02*
X149735000Y-95860436D01*
%TO.C,D20*%
X264040000Y-123935000D02*
X264040000Y-126620000D01*
X265960000Y-123935000D02*
X264040000Y-123935000D01*
X265960000Y-126620000D02*
X265960000Y-123935000D01*
%TO.C,R3*%
X73265000Y-94727064D02*
X73265000Y-94272936D01*
X74735000Y-94727064D02*
X74735000Y-94272936D01*
D13*
%TO.C,SW18*%
X250777000Y-94237000D02*
X250777000Y-95380000D01*
X250777000Y-96142000D02*
X250777000Y-97285000D01*
X250777000Y-98047000D02*
X250777000Y-99190000D01*
X250777000Y-99952000D02*
X250777000Y-101095000D01*
X250777000Y-101857000D02*
X250777000Y-103000000D01*
X250777000Y-103762000D02*
X250777000Y-104905000D01*
X250777000Y-105667000D02*
X250777000Y-106810000D01*
X250777000Y-107572000D02*
X250777000Y-108715000D01*
X250777000Y-109477000D02*
X250777000Y-110620000D01*
X250777000Y-111255000D02*
X250777000Y-111763000D01*
X250777000Y-111763000D02*
X263223000Y-111763000D01*
X263223000Y-94237000D02*
X250777000Y-94237000D01*
X263223000Y-94237000D02*
X263223000Y-95380000D01*
X263223000Y-96142000D02*
X263223000Y-97285000D01*
X263223000Y-98047000D02*
X263223000Y-99190000D01*
X263223000Y-99952000D02*
X263223000Y-101095000D01*
X263223000Y-101857000D02*
X263223000Y-103000000D01*
X263223000Y-103762000D02*
X263223000Y-104905000D01*
X263223000Y-105667000D02*
X263223000Y-106810000D01*
X263223000Y-107572000D02*
X263223000Y-108715000D01*
X263223000Y-109477000D02*
X263223000Y-110620000D01*
X263223000Y-111255000D02*
X263223000Y-111763000D01*
D12*
%TO.C,D1*%
X39500000Y-103960000D02*
X42185000Y-103960000D01*
X42185000Y-102040000D02*
X39500000Y-102040000D01*
X42185000Y-103960000D02*
X42185000Y-102040000D01*
%TO.C,J1*%
X269670000Y-135270000D02*
X269670000Y-122510000D01*
X272330000Y-122510000D02*
X269670000Y-122510000D01*
X272330000Y-135270000D02*
X269670000Y-135270000D01*
X272330000Y-135270000D02*
X272330000Y-122510000D01*
X272330000Y-136540000D02*
X272330000Y-137870000D01*
X272330000Y-137870000D02*
X271000000Y-137870000D01*
%TO.C,D6*%
X164500000Y-103960000D02*
X167185000Y-103960000D01*
X167185000Y-102040000D02*
X164500000Y-102040000D01*
X167185000Y-103960000D02*
X167185000Y-102040000D01*
D13*
%TO.C,SW20*%
X250777000Y-118237000D02*
X250777000Y-119380000D01*
X250777000Y-120142000D02*
X250777000Y-121285000D01*
X250777000Y-122047000D02*
X250777000Y-123190000D01*
X250777000Y-123952000D02*
X250777000Y-125095000D01*
X250777000Y-125857000D02*
X250777000Y-127000000D01*
X250777000Y-127762000D02*
X250777000Y-128905000D01*
X250777000Y-129667000D02*
X250777000Y-130810000D01*
X250777000Y-131572000D02*
X250777000Y-132715000D01*
X250777000Y-133477000D02*
X250777000Y-134620000D01*
X250777000Y-135255000D02*
X250777000Y-135763000D01*
X250777000Y-135763000D02*
X263223000Y-135763000D01*
X263223000Y-118237000D02*
X250777000Y-118237000D01*
X263223000Y-118237000D02*
X263223000Y-119380000D01*
X263223000Y-120142000D02*
X263223000Y-121285000D01*
X263223000Y-122047000D02*
X263223000Y-123190000D01*
X263223000Y-123952000D02*
X263223000Y-125095000D01*
X263223000Y-125857000D02*
X263223000Y-127000000D01*
X263223000Y-127762000D02*
X263223000Y-128905000D01*
X263223000Y-129667000D02*
X263223000Y-130810000D01*
X263223000Y-131572000D02*
X263223000Y-132715000D01*
X263223000Y-133477000D02*
X263223000Y-134620000D01*
X263223000Y-135255000D02*
X263223000Y-135763000D01*
D12*
%TO.C,R9*%
X23265000Y-118727064D02*
X23265000Y-118272936D01*
X24735000Y-118727064D02*
X24735000Y-118272936D01*
%TO.C,R4*%
X98265000Y-94727064D02*
X98265000Y-94272936D01*
X99735000Y-94727064D02*
X99735000Y-94272936D01*
%TO.C,R2*%
X48265000Y-94727064D02*
X48265000Y-94272936D01*
X49735000Y-94727064D02*
X49735000Y-94272936D01*
%TO.C,C1*%
X229311252Y-85265000D02*
X228788748Y-85265000D01*
X229311252Y-86735000D02*
X228788748Y-86735000D01*
%TO.C,D19*%
X239500000Y-127960000D02*
X242185000Y-127960000D01*
X242185000Y-126040000D02*
X239500000Y-126040000D01*
X242185000Y-127960000D02*
X242185000Y-126040000D01*
D13*
%TO.C,SW3*%
X75777000Y-94237000D02*
X75777000Y-95380000D01*
X75777000Y-96142000D02*
X75777000Y-97285000D01*
X75777000Y-98047000D02*
X75777000Y-99190000D01*
X75777000Y-99952000D02*
X75777000Y-101095000D01*
X75777000Y-101857000D02*
X75777000Y-103000000D01*
X75777000Y-103762000D02*
X75777000Y-104905000D01*
X75777000Y-105667000D02*
X75777000Y-106810000D01*
X75777000Y-107572000D02*
X75777000Y-108715000D01*
X75777000Y-109477000D02*
X75777000Y-110620000D01*
X75777000Y-111255000D02*
X75777000Y-111763000D01*
X75777000Y-111763000D02*
X88223000Y-111763000D01*
X88223000Y-94237000D02*
X75777000Y-94237000D01*
X88223000Y-94237000D02*
X88223000Y-95380000D01*
X88223000Y-96142000D02*
X88223000Y-97285000D01*
X88223000Y-98047000D02*
X88223000Y-99190000D01*
X88223000Y-99952000D02*
X88223000Y-101095000D01*
X88223000Y-101857000D02*
X88223000Y-103000000D01*
X88223000Y-103762000D02*
X88223000Y-104905000D01*
X88223000Y-105667000D02*
X88223000Y-106810000D01*
X88223000Y-107572000D02*
X88223000Y-108715000D01*
X88223000Y-109477000D02*
X88223000Y-110620000D01*
X88223000Y-111255000D02*
X88223000Y-111763000D01*
D12*
%TO.C,D3*%
X89500000Y-103960000D02*
X92185000Y-103960000D01*
X92185000Y-102040000D02*
X89500000Y-102040000D01*
X92185000Y-103960000D02*
X92185000Y-102040000D01*
%TO.C,D15*%
X189500000Y-127960000D02*
X192185000Y-127960000D01*
X192185000Y-126040000D02*
X189500000Y-126040000D01*
X192185000Y-127960000D02*
X192185000Y-126040000D01*
%TO.C,R20*%
X248265000Y-118727064D02*
X248265000Y-118272936D01*
X249735000Y-118727064D02*
X249735000Y-118272936D01*
%TO.C,D5*%
X139500000Y-103960000D02*
X142185000Y-103960000D01*
X142185000Y-102040000D02*
X139500000Y-102040000D01*
X142185000Y-103960000D02*
X142185000Y-102040000D01*
%TO.C,C4*%
X240265000Y-143761252D02*
X240265000Y-143238748D01*
X241735000Y-143761252D02*
X241735000Y-143238748D01*
%TO.C,D8*%
X214500000Y-103960000D02*
X217185000Y-103960000D01*
X217185000Y-102040000D02*
X214500000Y-102040000D01*
X217185000Y-103960000D02*
X217185000Y-102040000D01*
%TO.C,R18*%
X248265000Y-96727064D02*
X248265000Y-96272936D01*
X249735000Y-96727064D02*
X249735000Y-96272936D01*
%TD*%
M02*
