M48
; DRILL file {KiCad 8.0.4} date 2024-09-21T20:50:27+0200
; FORMAT={-:-/ absolute / metric / decimal}
; #@! TF.CreationDate,2024-09-21T20:50:27+02:00
; #@! TF.GenerationSoftware,Kicad,Pcbnew,8.0.4
; #@! TF.FileFunction,NonPlated,1,2,NPTH
FMAT,2
METRIC
; #@! TA.AperFunction,NonPlated,NPTH,ComponentDrill
T1C1.700
; #@! TA.AperFunction,NonPlated,NPTH,ComponentDrill
T2C3.200
; #@! TA.AperFunction,NonPlated,NPTH,ComponentDrill
T3C3.988
%
G90
G05
T1
X7.5Y148.0
X7.5Y78.0
X17.0Y213.0
X17.0Y173.0
X17.0Y108.0
X17.0Y48.0
X17.0Y18.0
X17.5Y148.0
X17.5Y78.0
X26.5Y148.0
X26.5Y78.0
X27.0Y213.0
X27.0Y173.0
X27.0Y108.0
X27.0Y48.0
X27.0Y18.0
X36.0Y213.0
X36.5Y148.0
X36.5Y78.0
X46.0Y213.0
X55.0Y213.0
X62.0Y188.0
X62.0Y163.0
X62.0Y94.0
X62.0Y75.0
X62.0Y56.0
X62.0Y37.0
X62.0Y18.0
X65.0Y213.0
X71.5Y138.0
X71.5Y119.0
X72.0Y188.0
X72.0Y163.0
X72.0Y94.0
X72.0Y75.0
X72.0Y56.0
X72.0Y37.0
X72.0Y18.0
X74.0Y213.0
X81.0Y188.0
X81.0Y163.0
X81.0Y94.0
X81.0Y75.0
X81.0Y56.0
X81.0Y37.0
X81.0Y18.0
X81.5Y138.0
X81.5Y119.0
X84.0Y213.0
X91.0Y188.0
X91.0Y163.0
X91.0Y94.0
X91.0Y75.0
X91.0Y56.0
X91.0Y37.0
X91.0Y18.0
X93.0Y213.0
X100.0Y188.0
X100.0Y94.0
X100.0Y75.0
X100.0Y56.0
X100.0Y37.0
X103.0Y213.0
X106.0Y163.0
X109.5Y18.0
X110.0Y188.0
X110.0Y94.0
X110.0Y75.0
X110.0Y56.0
X110.0Y37.0
X112.0Y213.0
X115.5Y138.0
X115.5Y119.0
X116.0Y163.0
X119.0Y94.0
X119.0Y75.0
X119.0Y56.0
X119.0Y37.0
X119.5Y18.0
X122.0Y213.0
X125.0Y188.0
X125.0Y163.0
X125.5Y138.0
X125.5Y119.0
X129.0Y94.0
X129.0Y75.0
X129.0Y56.0
X129.0Y37.0
X131.0Y213.0
X135.0Y188.0
X135.0Y163.0
X141.0Y213.0
X144.0Y188.0
X150.0Y213.0
X150.0Y163.0
X154.0Y188.0
X159.5Y138.0
X159.5Y119.0
X159.5Y94.0
X159.5Y75.0
X159.5Y56.0
X159.5Y37.0
X159.5Y18.0
X160.0Y213.0
X160.0Y163.0
X169.0Y213.0
X169.0Y188.0
X169.0Y163.0
X169.5Y138.0
X169.5Y119.0
X169.5Y94.0
X169.5Y75.0
X169.5Y56.0
X169.5Y37.0
X169.5Y18.0
X179.0Y213.0
X179.0Y188.0
X179.0Y163.0
T2
X5.0Y228.0
X5.0Y2.0
X46.0Y108.0
X98.0Y228.0
X100.0Y2.0
X139.5Y94.0
X183.0Y228.0
X183.0Y2.0
T3
X12.5Y148.0
X12.5Y78.0
X22.0Y213.0
X22.0Y173.0
X22.0Y108.0
X22.0Y48.0
X22.0Y18.0
X31.5Y148.0
X31.5Y78.0
X41.0Y213.0
X60.0Y213.0
X67.0Y188.0
X67.0Y163.0
X67.0Y94.0
X67.0Y75.0
X67.0Y56.0
X67.0Y37.0
X67.0Y18.0
X76.5Y138.0
X76.5Y119.0
X79.0Y213.0
X86.0Y188.0
X86.0Y163.0
X86.0Y94.0
X86.0Y75.0
X86.0Y56.0
X86.0Y37.0
X86.0Y18.0
X98.0Y213.0
X105.0Y188.0
X105.0Y94.0
X105.0Y75.0
X105.0Y56.0
X105.0Y37.0
X111.0Y163.0
X114.5Y18.0
X117.0Y213.0
X120.5Y138.0
X120.5Y119.0
X124.0Y94.0
X124.0Y75.0
X124.0Y56.0
X124.0Y37.0
X130.0Y188.0
X130.0Y163.0
X136.0Y213.0
X149.0Y188.0
X155.0Y213.0
X155.0Y163.0
X164.5Y138.0
X164.5Y119.0
X164.5Y94.0
X164.5Y75.0
X164.5Y56.0
X164.5Y37.0
X164.5Y18.0
X174.0Y213.0
X174.0Y188.0
X174.0Y163.0
M30
