G04 #@! TF.GenerationSoftware,KiCad,Pcbnew,8.0.4*
G04 #@! TF.CreationDate,2024-09-21T20:50:24+02:00*
G04 #@! TF.ProjectId,Keyboard,4b657962-6f61-4726-942e-6b696361645f,rev?*
G04 #@! TF.SameCoordinates,Original*
G04 #@! TF.FileFunction,Paste,Top*
G04 #@! TF.FilePolarity,Positive*
%FSLAX46Y46*%
G04 Gerber Fmt 4.6, Leading zero omitted, Abs format (unit mm)*
G04 Created by KiCad (PCBNEW 8.0.4) date 2024-09-21 20:50:24*
%MOMM*%
%LPD*%
G01*
G04 APERTURE LIST*
G04 Aperture macros list*
%AMRoundRect*
0 Rectangle with rounded corners*
0 $1 Rounding radius*
0 $2 $3 $4 $5 $6 $7 $8 $9 X,Y pos of 4 corners*
0 Add a 4 corners polygon primitive as box body*
4,1,4,$2,$3,$4,$5,$6,$7,$8,$9,$2,$3,0*
0 Add four circle primitives for the rounded corners*
1,1,$1+$1,$2,$3*
1,1,$1+$1,$4,$5*
1,1,$1+$1,$6,$7*
1,1,$1+$1,$8,$9*
0 Add four rect primitives between the rounded corners*
20,1,$1+$1,$2,$3,$4,$5,0*
20,1,$1+$1,$4,$5,$6,$7,0*
20,1,$1+$1,$6,$7,$8,$9,0*
20,1,$1+$1,$8,$9,$2,$3,0*%
G04 Aperture macros list end*
%ADD10RoundRect,0.250000X-0.450000X0.262500X-0.450000X-0.262500X0.450000X-0.262500X0.450000X0.262500X0*%
%ADD11RoundRect,0.150000X-0.150000X0.725000X-0.150000X-0.725000X0.150000X-0.725000X0.150000X0.725000X0*%
%ADD12RoundRect,0.150000X0.150000X-0.725000X0.150000X0.725000X-0.150000X0.725000X-0.150000X-0.725000X0*%
%ADD13RoundRect,0.150000X-0.725000X-0.150000X0.725000X-0.150000X0.725000X0.150000X-0.725000X0.150000X0*%
%ADD14RoundRect,0.250000X0.262500X0.450000X-0.262500X0.450000X-0.262500X-0.450000X0.262500X-0.450000X0*%
%ADD15RoundRect,0.250000X0.450000X-0.262500X0.450000X0.262500X-0.450000X0.262500X-0.450000X-0.262500X0*%
%ADD16RoundRect,0.243750X-0.243750X-0.456250X0.243750X-0.456250X0.243750X0.456250X-0.243750X0.456250X0*%
%ADD17RoundRect,0.250000X-0.250000X-0.475000X0.250000X-0.475000X0.250000X0.475000X-0.250000X0.475000X0*%
%ADD18RoundRect,0.250000X0.250000X0.475000X-0.250000X0.475000X-0.250000X-0.475000X0.250000X-0.475000X0*%
%ADD19RoundRect,0.250000X-0.475000X0.250000X-0.475000X-0.250000X0.475000X-0.250000X0.475000X0.250000X0*%
G04 APERTURE END LIST*
D10*
X95000000Y22912500D03*
X95000000Y21087500D03*
X76000000Y22912500D03*
X76000000Y21087500D03*
X173500000Y40175000D03*
X173500000Y42000000D03*
X40500000Y82912500D03*
X40500000Y81087500D03*
D11*
X33945000Y196075000D03*
X32675000Y196075000D03*
X31405000Y196075000D03*
X30135000Y196075000D03*
X28865000Y196075000D03*
X27595000Y196075000D03*
X26325000Y196075000D03*
X25055000Y196075000D03*
X25055000Y190925000D03*
X26325000Y190925000D03*
X27595000Y190925000D03*
X28865000Y190925000D03*
X30135000Y190925000D03*
X31405000Y190925000D03*
X32675000Y190925000D03*
X33945000Y190925000D03*
D12*
X45555000Y129925000D03*
X46825000Y129925000D03*
X48095000Y129925000D03*
X49365000Y129925000D03*
X50635000Y129925000D03*
X51905000Y129925000D03*
X53175000Y129925000D03*
X54445000Y129925000D03*
X54445000Y135075000D03*
X53175000Y135075000D03*
X51905000Y135075000D03*
X50635000Y135075000D03*
X49365000Y135075000D03*
X48095000Y135075000D03*
X46825000Y135075000D03*
X45555000Y135075000D03*
D13*
X178425000Y113445000D03*
X178425000Y112175000D03*
X178425000Y110905000D03*
X178425000Y109635000D03*
X178425000Y108365000D03*
X178425000Y107095000D03*
X178425000Y105825000D03*
X178425000Y104555000D03*
X183575000Y104555000D03*
X183575000Y105825000D03*
X183575000Y107095000D03*
X183575000Y108365000D03*
X183575000Y109635000D03*
X183575000Y110905000D03*
X183575000Y112175000D03*
X183575000Y113445000D03*
D12*
X74055000Y223425000D03*
X75325000Y223425000D03*
X76595000Y223425000D03*
X77865000Y223425000D03*
X79135000Y223425000D03*
X80405000Y223425000D03*
X81675000Y223425000D03*
X82945000Y223425000D03*
X82945000Y228575000D03*
X81675000Y228575000D03*
X80405000Y228575000D03*
X79135000Y228575000D03*
X77865000Y228575000D03*
X76595000Y228575000D03*
X75325000Y228575000D03*
X74055000Y228575000D03*
D14*
X16912500Y197000000D03*
X15087500Y197000000D03*
D15*
X54000000Y177587500D03*
X54000000Y179412500D03*
D14*
X61912500Y148500000D03*
X60087500Y148500000D03*
X81412500Y150000000D03*
X79587500Y150000000D03*
X105825000Y150000000D03*
X104000000Y150000000D03*
X124912500Y151000000D03*
X123087500Y151000000D03*
X149912500Y149500000D03*
X148087500Y149500000D03*
X168912500Y150000000D03*
X167087500Y150000000D03*
D10*
X173500000Y22912500D03*
X173500000Y21087500D03*
X123500000Y22912500D03*
X123500000Y21087500D03*
X133000000Y41912500D03*
X133000000Y40087500D03*
X114000000Y41912500D03*
X114000000Y40087500D03*
X95000000Y41912500D03*
X95000000Y40087500D03*
X76000000Y41912500D03*
X76000000Y40087500D03*
X173500000Y60912500D03*
X173500000Y59087500D03*
X133000000Y60912500D03*
X133000000Y59087500D03*
X114000000Y60912500D03*
X114000000Y59087500D03*
X95000000Y60912500D03*
X95000000Y59087500D03*
X76000000Y60912500D03*
X76000000Y59087500D03*
X173500000Y79912500D03*
X173500000Y78087500D03*
X133000000Y79912500D03*
X133000000Y78087500D03*
X114000000Y79912500D03*
X114000000Y78087500D03*
X95000000Y79912500D03*
X95000000Y78087500D03*
X76000000Y79912500D03*
X76000000Y78087500D03*
X31000000Y22912500D03*
X31000000Y21087500D03*
X31000000Y52912500D03*
X31000000Y51087500D03*
X173500000Y98912500D03*
X173500000Y97087500D03*
X133000000Y98912500D03*
X133000000Y97087500D03*
X114000000Y98912500D03*
X114000000Y97087500D03*
X95000000Y98912500D03*
X95000000Y97087500D03*
X76000000Y98912500D03*
X76000000Y97087500D03*
X21500000Y82912500D03*
X21500000Y81087500D03*
X173500000Y123912500D03*
X173500000Y122087500D03*
X173500000Y142912500D03*
X173500000Y141087500D03*
X129500000Y123912500D03*
X129500000Y122087500D03*
X129500000Y142912500D03*
X129500000Y141087500D03*
X85500000Y123912500D03*
X85500000Y122087500D03*
X85500000Y142912500D03*
X85500000Y141087500D03*
X31000000Y112912500D03*
X31000000Y111087500D03*
X183000000Y167912500D03*
X183000000Y166087500D03*
X164000000Y167912500D03*
X164000000Y166087500D03*
X139000000Y167912500D03*
X139000000Y166087500D03*
X120000000Y167912500D03*
X120000000Y166087500D03*
X95000000Y167912500D03*
X95000000Y166087500D03*
X76000000Y167912500D03*
X76000000Y166087500D03*
X40500000Y152912500D03*
X40500000Y151087500D03*
X21500000Y152912500D03*
X21500000Y151087500D03*
X183000000Y218000000D03*
X183000000Y216175000D03*
X183000000Y192912500D03*
X183000000Y191087500D03*
X158000000Y192912500D03*
X158000000Y191087500D03*
X139000000Y192912500D03*
X139000000Y191087500D03*
X114000000Y192912500D03*
X114000000Y191087500D03*
X95000000Y192912500D03*
X95000000Y191087500D03*
X76000000Y192912500D03*
X76000000Y191087500D03*
X31000000Y177912500D03*
X31000000Y176087500D03*
X164000000Y217912500D03*
X164000000Y216087500D03*
X145000000Y217912500D03*
X145000000Y216087500D03*
X126000000Y218000000D03*
X126000000Y216175000D03*
X107000000Y217912500D03*
X107000000Y216087500D03*
X88000000Y217912500D03*
X88000000Y216087500D03*
X69000000Y217912500D03*
X69000000Y216087500D03*
X50000000Y217912500D03*
X50000000Y216087500D03*
X31000000Y217912500D03*
X31000000Y216087500D03*
D16*
X157562500Y9000000D03*
X159437500Y9000000D03*
X107562500Y9000000D03*
X109437500Y9000000D03*
X117062500Y28000000D03*
X118937500Y28000000D03*
X98062500Y28000000D03*
X99937500Y28000000D03*
X79062500Y28000000D03*
X80937500Y28000000D03*
X60062500Y28000000D03*
X61937500Y28000000D03*
X79062500Y9000000D03*
X80937500Y9000000D03*
X60062500Y9000000D03*
X61937500Y9000000D03*
X157562500Y28000000D03*
X159437500Y28000000D03*
X157562500Y47000000D03*
X159437500Y47000000D03*
X117062500Y47000000D03*
X118937500Y47000000D03*
X98062500Y47000000D03*
X99937500Y47000000D03*
X79062500Y47000000D03*
X80937500Y47000000D03*
X60062500Y47000000D03*
X61937500Y47000000D03*
X157625000Y66000000D03*
X159500000Y66000000D03*
X117062500Y66000000D03*
X118937500Y66000000D03*
X98062500Y66000000D03*
X99937500Y66000000D03*
X79062500Y66000000D03*
X80937500Y66000000D03*
X60062500Y66000000D03*
X61937500Y66000000D03*
X17000000Y9000000D03*
X15125000Y9000000D03*
X17000000Y39000000D03*
X15125000Y39000000D03*
X157625000Y85000000D03*
X159500000Y85000000D03*
X117062500Y85000000D03*
X118937500Y85000000D03*
X98062500Y85000000D03*
X99937500Y85000000D03*
X79062500Y85000000D03*
X80937500Y85000000D03*
X60125000Y85000000D03*
X62000000Y85000000D03*
X24625000Y69000000D03*
X26500000Y69000000D03*
X5562500Y69000000D03*
X7437500Y69000000D03*
X157562500Y110000000D03*
X159437500Y110000000D03*
X157562500Y129000000D03*
X159437500Y129000000D03*
X113625000Y110000000D03*
X115500000Y110000000D03*
X113625000Y129000000D03*
X115500000Y129000000D03*
X69562500Y110000000D03*
X71437500Y110000000D03*
X69562500Y129000000D03*
X71437500Y129000000D03*
X15062500Y99000000D03*
X16937500Y99000000D03*
X167062500Y154000000D03*
X168937500Y154000000D03*
X148062500Y154000000D03*
X149937500Y154000000D03*
X123000000Y154000000D03*
X124875000Y154000000D03*
X104000000Y154000000D03*
X105875000Y154000000D03*
X79062500Y154000000D03*
X80937500Y154000000D03*
X60062500Y154000000D03*
X61937500Y154000000D03*
X24625000Y139000000D03*
X26500000Y139000000D03*
X5562500Y139000000D03*
X7437500Y139000000D03*
X167125000Y204000000D03*
X169000000Y204000000D03*
X167062500Y179000000D03*
X168937500Y179000000D03*
X142062500Y179000000D03*
X143937500Y179000000D03*
X123062500Y179000000D03*
X124937500Y179000000D03*
X98062500Y179000000D03*
X99937500Y179000000D03*
X79062500Y179000000D03*
X80937500Y179000000D03*
X60062500Y179000000D03*
X61937500Y179000000D03*
X15125000Y164000000D03*
X17000000Y164000000D03*
X148125000Y204000000D03*
X150000000Y204000000D03*
X129125000Y204000000D03*
X131000000Y204000000D03*
X110125000Y204000000D03*
X112000000Y204000000D03*
X91125000Y204000000D03*
X93000000Y204000000D03*
X72125000Y204000000D03*
X74000000Y204000000D03*
X53125000Y204000000D03*
X55000000Y204000000D03*
X34125000Y204000000D03*
X36000000Y204000000D03*
X15125000Y204000000D03*
X17000000Y204000000D03*
D17*
X15050000Y224000000D03*
X16950000Y224000000D03*
D18*
X34450000Y188500000D03*
X32550000Y188500000D03*
D19*
X43000000Y135000000D03*
X43000000Y133100000D03*
D18*
X183450000Y116000000D03*
X181550000Y116000000D03*
D19*
X71500000Y228900000D03*
X71500000Y227000000D03*
M02*
