M48
; DRILL file {KiCad 8.0.4} date 2024-09-21T20:50:27+0200
; FORMAT={-:-/ absolute / metric / decimal}
; #@! TF.CreationDate,2024-09-21T20:50:27+02:00
; #@! TF.GenerationSoftware,Kicad,Pcbnew,8.0.4
; #@! TF.FileFunction,Plated,1,2,PTH
FMAT,2
METRIC
; #@! TA.AperFunction,Plated,PTH,ViaDrill
T1C0.400
; #@! TA.AperFunction,Plated,PTH,ComponentDrill
T2C1.000
; #@! TA.AperFunction,Plated,PTH,ComponentDrill
T3C1.500
%
G90
G05
T1
X3.0Y95.0
X3.0Y54.0
X3.0Y31.0
X3.0Y10.0
X3.5Y215.5
X5.0Y117.0
X5.5Y137.25
X7.0Y185.0
X7.0Y164.0
X9.0Y215.0
X9.0Y204.0
X15.0Y179.0
X15.0Y35.0
X15.062Y115.938
X15.125Y192.5
X15.5Y58.5
X16.5Y222.5
X18.0Y229.0
X18.25Y197.0
X18.5Y224.0
X19.0Y1.0
X20.0Y227.0
X22.5Y161.0
X22.5Y142.0
X23.0Y187.0
X23.5Y191.0
X24.5Y137.0
X24.5Y73.5
X25.0Y198.0
X25.0Y194.25
X28.865Y188.5
X29.0Y130.0
X29.5Y223.5
X30.0Y194.0
X31.0Y188.0
X31.0Y47.5
X32.5Y162.5
X34.0Y24.5
X35.5Y196.075
X37.0Y194.5
X38.0Y185.0
X38.5Y60.5
X39.0Y171.0
X40.0Y225.0
X40.0Y190.0
X40.0Y125.0
X40.0Y66.0
X40.25Y131.5
X41.0Y196.0
X41.0Y179.5
X41.0Y133.5
X42.0Y98.0
X42.0Y40.0
X42.0Y16.0
X43.0Y142.5
X43.0Y137.0
X46.5Y113.0
X46.825Y137.0
X48.5Y24.0
X49.0Y137.0
X49.25Y82.75
X49.365Y124.5
X49.5Y133.5
X50.5Y125.5
X50.5Y64.0
X52.0Y177.0
X52.0Y168.0
X52.0Y127.0
X52.0Y55.0
X53.0Y201.5
X53.0Y195.5
X53.0Y148.0
X53.175Y127.825
X54.0Y28.5
X54.0Y1.0
X54.5Y131.5
X54.5Y128.0
X54.5Y35.5
X55.5Y130.0
X56.5Y230.5
X56.75Y174.75
X58.0Y11.0
X60.0Y168.0
X60.0Y159.0
X60.0Y129.0
X60.0Y89.5
X60.0Y79.5
X60.0Y68.0
X60.0Y63.0
X60.0Y49.0
X60.0Y43.5
X60.0Y32.5
X60.062Y144.5
X63.0Y227.0
X63.5Y148.5
X64.5Y229.0
X69.5Y113.5
X70.0Y227.0
X70.5Y195.0
X71.5Y107.5
X72.0Y201.5
X72.5Y224.323
X74.5Y226.5
X78.0Y227.0
X79.0Y196.0
X79.0Y184.0
X79.0Y158.0
X79.0Y89.5
X79.0Y79.5
X79.0Y71.0
X79.0Y63.5
X79.0Y52.0
X79.0Y41.0
X79.0Y32.5
X79.0Y1.0
X79.5Y146.0
X81.0Y173.0
X81.5Y230.5
X83.0Y225.0
X83.0Y150.0
X89.0Y227.0
X90.0Y198.0
X90.0Y109.0
X91.0Y202.0
X91.0Y129.0
X95.0Y149.0
X97.0Y193.08
X98.0Y195.0
X98.0Y184.0
X98.0Y89.5
X98.0Y79.5
X98.0Y71.0
X98.0Y60.5
X98.0Y51.5
X98.0Y41.5
X98.0Y32.5
X99.0Y173.0
X99.0Y127.5
X104.0Y159.0
X104.5Y172.0
X107.5Y150.0
X108.0Y227.0
X109.0Y143.0
X109.5Y199.0
X110.0Y202.0
X110.0Y1.0
X112.25Y145.25
X113.5Y134.0
X113.5Y114.5
X113.625Y107.5
X117.0Y89.5
X117.0Y80.0
X117.0Y71.0
X117.0Y60.5
X117.0Y51.5
X117.0Y41.5
X117.0Y32.5
X118.0Y193.08
X120.0Y174.0
X122.0Y198.0
X123.0Y184.0
X123.0Y158.0
X124.5Y170.5
X125.0Y25.5
X126.5Y151.0
X127.0Y227.0
X128.0Y202.5
X128.0Y200.0
X128.0Y145.0
X133.0Y129.0
X133.0Y26.0
X134.0Y11.0
X134.0Y1.0
X139.0Y174.0
X140.0Y110.0
X140.0Y46.0
X141.0Y149.0
X142.0Y199.0
X142.0Y66.0
X142.062Y183.0
X142.5Y193.0
X143.0Y83.0
X145.0Y28.0
X148.0Y159.0
X148.0Y144.0
X148.0Y129.0
X148.5Y171.5
X148.5Y51.0
X150.0Y227.0
X150.0Y61.08
X151.5Y149.5
X152.0Y23.0
X152.0Y13.5
X154.0Y106.5
X156.0Y199.0
X156.0Y183.5
X156.0Y42.5
X157.5Y133.0
X157.5Y126.5
X157.5Y113.0
X157.5Y89.5
X157.5Y79.5
X157.5Y70.5
X157.5Y51.5
X157.5Y26.0
X157.5Y13.5
X157.625Y63.0
X159.5Y123.5
X162.5Y194.5
X166.0Y216.0
X166.0Y175.0
X166.0Y1.0
X167.0Y194.5
X167.0Y157.0
X168.0Y108.0
X169.5Y146.0
X170.5Y150.0
X171.325Y50.175
X171.5Y135.5
X171.5Y126.0
X172.5Y227.0
X173.0Y104.0
X174.0Y220.0
X176.0Y87.0
X178.0Y176.0
X178.0Y71.0
X179.0Y103.5
X180.0Y152.0
X180.0Y134.0
X180.0Y116.0
X180.0Y54.0
X180.0Y35.0
X181.5Y117.5
X182.0Y201.0
X182.0Y109.5
X183.0Y13.0
X185.5Y111.0
X185.5Y108.365
X185.5Y107.095
X186.0Y99.0
X186.0Y74.0
X186.0Y56.0
X186.0Y34.0
X187.0Y105.0
T2
X11.23Y153.08
X11.23Y83.08
X13.77Y153.08
X13.77Y83.08
X15.46Y227.0
X18.0Y227.0
X20.73Y218.08
X20.73Y178.08
X20.73Y113.08
X20.73Y53.08
X20.73Y23.08
X23.27Y218.08
X23.27Y178.08
X23.27Y113.08
X23.27Y53.08
X23.27Y23.08
X24.15Y227.0
X26.69Y227.0
X29.23Y227.0
X30.23Y153.08
X30.23Y83.08
X31.77Y227.0
X32.77Y153.08
X32.77Y83.08
X34.31Y227.0
X36.85Y227.0
X39.73Y218.08
X42.27Y218.08
X43.15Y227.0
X45.69Y227.0
X48.23Y227.0
X50.77Y227.0
X53.31Y227.0
X55.85Y227.0
X58.73Y218.08
X61.27Y218.08
X65.73Y193.08
X65.73Y168.08
X65.73Y99.08
X65.73Y80.08
X65.73Y61.08
X65.73Y42.08
X65.73Y23.08
X68.27Y193.08
X68.27Y168.08
X68.27Y99.08
X68.27Y80.08
X68.27Y61.08
X68.27Y42.08
X68.27Y23.08
X75.23Y143.08
X75.23Y124.08
X77.73Y218.08
X77.77Y143.08
X77.77Y124.08
X80.27Y218.08
X84.73Y193.08
X84.73Y168.08
X84.73Y99.08
X84.73Y80.08
X84.73Y61.08
X84.73Y42.08
X84.73Y23.08
X87.27Y193.08
X87.27Y168.08
X87.27Y99.08
X87.27Y80.08
X87.27Y61.08
X87.27Y42.08
X87.27Y23.08
X96.73Y218.08
X99.27Y218.08
X103.73Y193.08
X103.73Y99.08
X103.73Y80.08
X103.73Y61.08
X103.73Y42.08
X106.27Y193.08
X106.27Y99.08
X106.27Y80.08
X106.27Y61.08
X106.27Y42.08
X109.73Y168.08
X112.27Y168.08
X113.23Y23.08
X115.73Y218.08
X115.77Y23.08
X118.27Y218.08
X119.23Y143.08
X119.23Y124.08
X121.77Y143.08
X121.77Y124.08
X122.73Y99.08
X122.73Y80.08
X122.73Y61.08
X122.73Y42.08
X125.27Y99.08
X125.27Y80.08
X125.27Y61.08
X125.27Y42.08
X128.73Y193.08
X128.73Y168.08
X131.27Y193.08
X131.27Y168.08
X134.73Y218.08
X137.27Y218.08
X147.73Y193.08
X150.27Y193.08
X153.73Y218.08
X153.73Y168.08
X156.27Y218.08
X156.27Y168.08
X163.23Y143.08
X163.23Y124.08
X163.23Y99.08
X163.23Y80.08
X163.23Y61.08
X163.23Y42.08
X163.23Y23.08
X165.77Y143.08
X165.77Y124.08
X165.77Y99.08
X165.77Y80.08
X165.77Y61.08
X165.77Y42.08
X165.77Y23.08
X172.73Y218.08
X172.73Y193.08
X172.73Y168.08
X175.27Y218.08
X175.27Y193.08
X175.27Y168.08
T3
X9.99Y142.92
X9.99Y72.92
X16.31Y145.46
X16.31Y75.46
X19.49Y207.92
X19.49Y167.92
X19.49Y102.92
X19.49Y42.92
X19.49Y12.92
X25.81Y210.46
X25.81Y170.46
X25.81Y105.46
X25.81Y45.46
X25.81Y15.46
X28.99Y142.92
X28.99Y72.92
X35.31Y145.46
X35.31Y75.46
X38.49Y207.92
X44.81Y210.46
X57.49Y207.92
X63.81Y210.46
X64.49Y182.92
X64.49Y157.92
X64.49Y88.92
X64.49Y69.92
X64.49Y50.92
X64.49Y31.92
X64.49Y12.92
X70.81Y185.46
X70.81Y160.46
X70.81Y91.46
X70.81Y72.46
X70.81Y53.46
X70.81Y34.46
X70.81Y15.46
X73.99Y132.92
X73.99Y113.92
X76.49Y207.92
X80.31Y135.46
X80.31Y116.46
X82.81Y210.46
X83.49Y182.92
X83.49Y157.92
X83.49Y88.92
X83.49Y69.92
X83.49Y50.92
X83.49Y31.92
X83.49Y12.92
X89.81Y185.46
X89.81Y160.46
X89.81Y91.46
X89.81Y72.46
X89.81Y53.46
X89.81Y34.46
X89.81Y15.46
X95.49Y207.92
X101.81Y210.46
X102.49Y182.92
X102.49Y88.92
X102.49Y69.92
X102.49Y50.92
X102.49Y31.92
X108.49Y157.92
X108.81Y185.46
X108.81Y91.46
X108.81Y72.46
X108.81Y53.46
X108.81Y34.46
X111.99Y12.92
X114.49Y207.92
X114.81Y160.46
X117.99Y132.92
X117.99Y113.92
X118.31Y15.46
X120.81Y210.46
X121.49Y88.92
X121.49Y69.92
X121.49Y50.92
X121.49Y31.92
X124.31Y135.46
X124.31Y116.46
X127.49Y182.92
X127.49Y157.92
X127.81Y91.46
X127.81Y72.46
X127.81Y53.46
X127.81Y34.46
X133.49Y207.92
X133.81Y185.46
X133.81Y160.46
X139.81Y210.46
X146.49Y182.92
X152.49Y207.92
X152.49Y157.92
X152.81Y185.46
X158.81Y210.46
X158.81Y160.46
X161.99Y132.92
X161.99Y113.92
X161.99Y88.92
X161.99Y69.92
X161.99Y50.92
X161.99Y31.92
X161.99Y12.92
X168.31Y135.46
X168.31Y116.46
X168.31Y91.46
X168.31Y72.46
X168.31Y53.46
X168.31Y34.46
X168.31Y15.46
X171.49Y207.92
X171.49Y182.92
X171.49Y157.92
X177.81Y210.46
X177.81Y185.46
X177.81Y160.46
M30
