G04 #@! TF.GenerationSoftware,KiCad,Pcbnew,8.0.4*
G04 #@! TF.CreationDate,2024-09-21T20:50:24+02:00*
G04 #@! TF.ProjectId,Keyboard,4b657962-6f61-4726-942e-6b696361645f,rev?*
G04 #@! TF.SameCoordinates,Original*
G04 #@! TF.FileFunction,Soldermask,Bot*
G04 #@! TF.FilePolarity,Negative*
%FSLAX46Y46*%
G04 Gerber Fmt 4.6, Leading zero omitted, Abs format (unit mm)*
G04 Created by KiCad (PCBNEW 8.0.4) date 2024-09-21 20:50:24*
%MOMM*%
%LPD*%
G01*
G04 APERTURE LIST*
%ADD10C,1.700000*%
%ADD11C,3.987800*%
%ADD12C,2.454000*%
%ADD13C,1.712000*%
%ADD14R,1.700000X1.700000*%
%ADD15O,1.700000X1.700000*%
%ADD16C,3.200000*%
G04 APERTURE END LIST*
D10*
X169500000Y18000000D03*
D11*
X164500000Y18000000D03*
D10*
X159500000Y18000000D03*
D12*
X161990000Y12920000D03*
X168310000Y15460000D03*
D13*
X163230000Y23080000D03*
X165770000Y23080000D03*
D10*
X119500000Y18000000D03*
D11*
X114500000Y18000000D03*
D10*
X109500000Y18000000D03*
D12*
X111990000Y12920000D03*
X118310000Y15460000D03*
D13*
X113230000Y23080000D03*
X115770000Y23080000D03*
D10*
X129000000Y37000000D03*
D11*
X124000000Y37000000D03*
D10*
X119000000Y37000000D03*
D12*
X121490000Y31920000D03*
X127810000Y34460000D03*
D13*
X122730000Y42080000D03*
X125270000Y42080000D03*
D10*
X110000000Y37000000D03*
D11*
X105000000Y37000000D03*
D10*
X100000000Y37000000D03*
D12*
X102490000Y31920000D03*
X108810000Y34460000D03*
D13*
X103730000Y42080000D03*
X106270000Y42080000D03*
D10*
X91000000Y37000000D03*
D11*
X86000000Y37000000D03*
D10*
X81000000Y37000000D03*
D12*
X83490000Y31920000D03*
X89810000Y34460000D03*
D13*
X84730000Y42080000D03*
X87270000Y42080000D03*
X68270000Y42080000D03*
X65730000Y42080000D03*
D12*
X70810000Y34460000D03*
X64490000Y31920000D03*
D10*
X62000000Y37000000D03*
D11*
X67000000Y37000000D03*
D10*
X72000000Y37000000D03*
X91000000Y18000000D03*
D11*
X86000000Y18000000D03*
D10*
X81000000Y18000000D03*
D12*
X83490000Y12920000D03*
X89810000Y15460000D03*
D13*
X84730000Y23080000D03*
X87270000Y23080000D03*
D10*
X72000000Y18000000D03*
D11*
X67000000Y18000000D03*
D10*
X62000000Y18000000D03*
D12*
X64490000Y12920000D03*
X70810000Y15460000D03*
D13*
X65730000Y23080000D03*
X68270000Y23080000D03*
D10*
X169500000Y37000000D03*
D11*
X164500000Y37000000D03*
D10*
X159500000Y37000000D03*
D12*
X161990000Y31920000D03*
X168310000Y34460000D03*
D13*
X163230000Y42080000D03*
X165770000Y42080000D03*
D10*
X169500000Y56000000D03*
D11*
X164500000Y56000000D03*
D10*
X159500000Y56000000D03*
D12*
X161990000Y50920000D03*
X168310000Y53460000D03*
D13*
X163230000Y61080000D03*
X165770000Y61080000D03*
D10*
X129000000Y56000000D03*
D11*
X124000000Y56000000D03*
D10*
X119000000Y56000000D03*
D12*
X121490000Y50920000D03*
X127810000Y53460000D03*
D13*
X122730000Y61080000D03*
X125270000Y61080000D03*
D10*
X110000000Y56000000D03*
D11*
X105000000Y56000000D03*
D10*
X100000000Y56000000D03*
D12*
X102490000Y50920000D03*
X108810000Y53460000D03*
D13*
X103730000Y61080000D03*
X106270000Y61080000D03*
D10*
X91000000Y56000000D03*
D11*
X86000000Y56000000D03*
D10*
X81000000Y56000000D03*
D12*
X83490000Y50920000D03*
X89810000Y53460000D03*
D13*
X84730000Y61080000D03*
X87270000Y61080000D03*
D10*
X72000000Y56000000D03*
D11*
X67000000Y56000000D03*
D10*
X62000000Y56000000D03*
D12*
X64490000Y50920000D03*
X70810000Y53460000D03*
D13*
X65730000Y61080000D03*
X68270000Y61080000D03*
D10*
X169500000Y75000000D03*
D11*
X164500000Y75000000D03*
D10*
X159500000Y75000000D03*
D12*
X161990000Y69920000D03*
X168310000Y72460000D03*
D13*
X163230000Y80080000D03*
X165770000Y80080000D03*
D10*
X129000000Y75000000D03*
D11*
X124000000Y75000000D03*
D10*
X119000000Y75000000D03*
D12*
X121490000Y69920000D03*
X127810000Y72460000D03*
D13*
X122730000Y80080000D03*
X125270000Y80080000D03*
D10*
X110000000Y75000000D03*
D11*
X105000000Y75000000D03*
D10*
X100000000Y75000000D03*
D12*
X102490000Y69920000D03*
X108810000Y72460000D03*
D13*
X103730000Y80080000D03*
X106270000Y80080000D03*
D10*
X91000000Y75000000D03*
D11*
X86000000Y75000000D03*
D10*
X81000000Y75000000D03*
D12*
X83490000Y69920000D03*
X89810000Y72460000D03*
D13*
X84730000Y80080000D03*
X87270000Y80080000D03*
D10*
X72000000Y75000000D03*
D11*
X67000000Y75000000D03*
D10*
X62000000Y75000000D03*
D12*
X64490000Y69920000D03*
X70810000Y72460000D03*
D13*
X65730000Y80080000D03*
X68270000Y80080000D03*
D10*
X27000000Y18000000D03*
D11*
X22000000Y18000000D03*
D10*
X17000000Y18000000D03*
D12*
X19490000Y12920000D03*
X25810000Y15460000D03*
D13*
X20730000Y23080000D03*
X23270000Y23080000D03*
D10*
X27000000Y48000000D03*
D11*
X22000000Y48000000D03*
D10*
X17000000Y48000000D03*
D12*
X19490000Y42920000D03*
X25810000Y45460000D03*
D13*
X20730000Y53080000D03*
X23270000Y53080000D03*
D10*
X169500000Y94000000D03*
D11*
X164500000Y94000000D03*
D10*
X159500000Y94000000D03*
D12*
X161990000Y88920000D03*
X168310000Y91460000D03*
D13*
X163230000Y99080000D03*
X165770000Y99080000D03*
D10*
X129000000Y94000000D03*
D11*
X124000000Y94000000D03*
D10*
X119000000Y94000000D03*
D12*
X121490000Y88920000D03*
X127810000Y91460000D03*
D13*
X122730000Y99080000D03*
X125270000Y99080000D03*
D10*
X110000000Y94000000D03*
D11*
X105000000Y94000000D03*
D10*
X100000000Y94000000D03*
D12*
X102490000Y88920000D03*
X108810000Y91460000D03*
D13*
X103730000Y99080000D03*
X106270000Y99080000D03*
D10*
X91000000Y94000000D03*
D11*
X86000000Y94000000D03*
D10*
X81000000Y94000000D03*
D12*
X83490000Y88920000D03*
X89810000Y91460000D03*
D13*
X84730000Y99080000D03*
X87270000Y99080000D03*
D10*
X72000000Y94000000D03*
D11*
X67000000Y94000000D03*
D10*
X62000000Y94000000D03*
D12*
X64490000Y88920000D03*
X70810000Y91460000D03*
D13*
X65730000Y99080000D03*
X68270000Y99080000D03*
D10*
X36500000Y78000000D03*
D11*
X31500000Y78000000D03*
D10*
X26500000Y78000000D03*
D12*
X28990000Y72920000D03*
X35310000Y75460000D03*
D13*
X30230000Y83080000D03*
X32770000Y83080000D03*
D10*
X17500000Y78000000D03*
D11*
X12500000Y78000000D03*
D10*
X7500000Y78000000D03*
D12*
X9990000Y72920000D03*
X16310000Y75460000D03*
D13*
X11230000Y83080000D03*
X13770000Y83080000D03*
D10*
X169500000Y119000000D03*
D11*
X164500000Y119000000D03*
D10*
X159500000Y119000000D03*
D12*
X161990000Y113920000D03*
X168310000Y116460000D03*
D13*
X163230000Y124080000D03*
X165770000Y124080000D03*
D10*
X169500000Y138000000D03*
D11*
X164500000Y138000000D03*
D10*
X159500000Y138000000D03*
D12*
X161990000Y132920000D03*
X168310000Y135460000D03*
D13*
X163230000Y143080000D03*
X165770000Y143080000D03*
D10*
X125500000Y119000000D03*
D11*
X120500000Y119000000D03*
D10*
X115500000Y119000000D03*
D12*
X117990000Y113920000D03*
X124310000Y116460000D03*
D13*
X119230000Y124080000D03*
X121770000Y124080000D03*
D10*
X125500000Y138000000D03*
D11*
X120500000Y138000000D03*
D10*
X115500000Y138000000D03*
D12*
X117990000Y132920000D03*
X124310000Y135460000D03*
D13*
X119230000Y143080000D03*
X121770000Y143080000D03*
D10*
X81500000Y119000000D03*
D11*
X76500000Y119000000D03*
D10*
X71500000Y119000000D03*
D12*
X73990000Y113920000D03*
X80310000Y116460000D03*
D13*
X75230000Y124080000D03*
X77770000Y124080000D03*
D10*
X81500000Y138000000D03*
D11*
X76500000Y138000000D03*
D10*
X71500000Y138000000D03*
D12*
X73990000Y132920000D03*
X80310000Y135460000D03*
D13*
X75230000Y143080000D03*
X77770000Y143080000D03*
D10*
X27000000Y108000000D03*
D11*
X22000000Y108000000D03*
D10*
X17000000Y108000000D03*
D12*
X19490000Y102920000D03*
X25810000Y105460000D03*
D13*
X20730000Y113080000D03*
X23270000Y113080000D03*
D10*
X179000000Y163000000D03*
D11*
X174000000Y163000000D03*
D10*
X169000000Y163000000D03*
D12*
X171490000Y157920000D03*
X177810000Y160460000D03*
D13*
X172730000Y168080000D03*
X175270000Y168080000D03*
D10*
X160000000Y163000000D03*
D11*
X155000000Y163000000D03*
D10*
X150000000Y163000000D03*
D12*
X152490000Y157920000D03*
X158810000Y160460000D03*
D13*
X153730000Y168080000D03*
X156270000Y168080000D03*
D10*
X135000000Y163000000D03*
D11*
X130000000Y163000000D03*
D10*
X125000000Y163000000D03*
D12*
X127490000Y157920000D03*
X133810000Y160460000D03*
D13*
X128730000Y168080000D03*
X131270000Y168080000D03*
D10*
X116000000Y163000000D03*
D11*
X111000000Y163000000D03*
D10*
X106000000Y163000000D03*
D12*
X108490000Y157920000D03*
X114810000Y160460000D03*
D13*
X109730000Y168080000D03*
X112270000Y168080000D03*
D10*
X91000000Y163000000D03*
D11*
X86000000Y163000000D03*
D10*
X81000000Y163000000D03*
D12*
X83490000Y157920000D03*
X89810000Y160460000D03*
D13*
X84730000Y168080000D03*
X87270000Y168080000D03*
D10*
X72000000Y163000000D03*
D11*
X67000000Y163000000D03*
D10*
X62000000Y163000000D03*
D12*
X64490000Y157920000D03*
X70810000Y160460000D03*
D13*
X65730000Y168080000D03*
X68270000Y168080000D03*
X32770000Y153080000D03*
X30230000Y153080000D03*
D12*
X35310000Y145460000D03*
X28990000Y142920000D03*
D10*
X26500000Y148000000D03*
D11*
X31500000Y148000000D03*
D10*
X36500000Y148000000D03*
X17500000Y148000000D03*
D11*
X12500000Y148000000D03*
D10*
X7500000Y148000000D03*
D12*
X9990000Y142920000D03*
X16310000Y145460000D03*
D13*
X11230000Y153080000D03*
X13770000Y153080000D03*
D10*
X179000000Y213000000D03*
D11*
X174000000Y213000000D03*
D10*
X169000000Y213000000D03*
D12*
X171490000Y207920000D03*
X177810000Y210460000D03*
D13*
X172730000Y218080000D03*
X175270000Y218080000D03*
D10*
X179000000Y188000000D03*
D11*
X174000000Y188000000D03*
D10*
X169000000Y188000000D03*
D12*
X171490000Y182920000D03*
X177810000Y185460000D03*
D13*
X172730000Y193080000D03*
X175270000Y193080000D03*
D10*
X135000000Y188000000D03*
D11*
X130000000Y188000000D03*
D10*
X125000000Y188000000D03*
D12*
X127490000Y182920000D03*
X133810000Y185460000D03*
D13*
X128730000Y193080000D03*
X131270000Y193080000D03*
D10*
X110000000Y188000000D03*
D11*
X105000000Y188000000D03*
D10*
X100000000Y188000000D03*
D12*
X102490000Y182920000D03*
X108810000Y185460000D03*
D13*
X103730000Y193080000D03*
X106270000Y193080000D03*
D10*
X91000000Y188000000D03*
D11*
X86000000Y188000000D03*
D10*
X81000000Y188000000D03*
D12*
X83490000Y182920000D03*
X89810000Y185460000D03*
D13*
X84730000Y193080000D03*
X87270000Y193080000D03*
D10*
X72000000Y188000000D03*
D11*
X67000000Y188000000D03*
D10*
X62000000Y188000000D03*
D12*
X64490000Y182920000D03*
X70810000Y185460000D03*
D13*
X65730000Y193080000D03*
X68270000Y193080000D03*
D10*
X27000000Y173000000D03*
D11*
X22000000Y173000000D03*
D10*
X17000000Y173000000D03*
D12*
X19490000Y167920000D03*
X25810000Y170460000D03*
D13*
X20730000Y178080000D03*
X23270000Y178080000D03*
D10*
X160000000Y213000000D03*
D11*
X155000000Y213000000D03*
D10*
X150000000Y213000000D03*
D12*
X152490000Y207920000D03*
X158810000Y210460000D03*
D13*
X153730000Y218080000D03*
X156270000Y218080000D03*
D10*
X141000000Y213000000D03*
D11*
X136000000Y213000000D03*
D10*
X131000000Y213000000D03*
D12*
X133490000Y207920000D03*
X139810000Y210460000D03*
D13*
X134730000Y218080000D03*
X137270000Y218080000D03*
D10*
X122000000Y213000000D03*
D11*
X117000000Y213000000D03*
D10*
X112000000Y213000000D03*
D12*
X114490000Y207920000D03*
X120810000Y210460000D03*
D13*
X115730000Y218080000D03*
X118270000Y218080000D03*
D10*
X103000000Y213000000D03*
D11*
X98000000Y213000000D03*
D10*
X93000000Y213000000D03*
D12*
X95490000Y207920000D03*
X101810000Y210460000D03*
D13*
X96730000Y218080000D03*
X99270000Y218080000D03*
D10*
X84000000Y213000000D03*
D11*
X79000000Y213000000D03*
D10*
X74000000Y213000000D03*
D12*
X76490000Y207920000D03*
X82810000Y210460000D03*
D13*
X77730000Y218080000D03*
X80270000Y218080000D03*
D10*
X65000000Y213000000D03*
D11*
X60000000Y213000000D03*
D10*
X55000000Y213000000D03*
D12*
X57490000Y207920000D03*
X63810000Y210460000D03*
D13*
X58730000Y218080000D03*
X61270000Y218080000D03*
D10*
X46000000Y213000000D03*
D11*
X41000000Y213000000D03*
D10*
X36000000Y213000000D03*
D12*
X38490000Y207920000D03*
X44810000Y210460000D03*
D13*
X39730000Y218080000D03*
X42270000Y218080000D03*
D10*
X27000000Y213000000D03*
D11*
X22000000Y213000000D03*
D10*
X17000000Y213000000D03*
D12*
X19490000Y207920000D03*
X25810000Y210460000D03*
D13*
X20730000Y218080000D03*
X23270000Y218080000D03*
D14*
X15460000Y227000000D03*
D15*
X18000000Y227000000D03*
D14*
X43150000Y227000000D03*
D15*
X45690000Y227000000D03*
X48230000Y227000000D03*
X50770000Y227000000D03*
X53310000Y227000000D03*
X55850000Y227000000D03*
D14*
X24150000Y227000000D03*
D15*
X26690000Y227000000D03*
X29230000Y227000000D03*
X31770000Y227000000D03*
X34310000Y227000000D03*
X36850000Y227000000D03*
D16*
X183000000Y2000000D03*
X100000000Y2000000D03*
X5000000Y2000000D03*
X139500000Y94000000D03*
X46000000Y108000000D03*
X183000000Y228000000D03*
X98000000Y228000000D03*
X5000000Y228000000D03*
D10*
X154000000Y188000000D03*
D11*
X149000000Y188000000D03*
D10*
X144000000Y188000000D03*
D12*
X146490000Y182920000D03*
X152810000Y185460000D03*
D13*
X147730000Y193080000D03*
X150270000Y193080000D03*
M02*
