G04 #@! TF.GenerationSoftware,KiCad,Pcbnew,8.0.4*
G04 #@! TF.CreationDate,2024-09-21T00:31:15+02:00*
G04 #@! TF.ProjectId,Keys_Flash,4b657973-5f46-46c6-9173-682e6b696361,rev?*
G04 #@! TF.SameCoordinates,Original*
G04 #@! TF.FileFunction,Soldermask,Top*
G04 #@! TF.FilePolarity,Negative*
%FSLAX46Y46*%
G04 Gerber Fmt 4.6, Leading zero omitted, Abs format (unit mm)*
G04 Created by KiCad (PCBNEW 8.0.4) date 2024-09-21 00:31:15*
%MOMM*%
%LPD*%
G01*
G04 APERTURE LIST*
G04 Aperture macros list*
%AMRoundRect*
0 Rectangle with rounded corners*
0 $1 Rounding radius*
0 $2 $3 $4 $5 $6 $7 $8 $9 X,Y pos of 4 corners*
0 Add a 4 corners polygon primitive as box body*
4,1,4,$2,$3,$4,$5,$6,$7,$8,$9,$2,$3,0*
0 Add four circle primitives for the rounded corners*
1,1,$1+$1,$2,$3*
1,1,$1+$1,$4,$5*
1,1,$1+$1,$6,$7*
1,1,$1+$1,$8,$9*
0 Add four rect primitives between the rounded corners*
20,1,$1+$1,$2,$3,$4,$5,0*
20,1,$1+$1,$4,$5,$6,$7,0*
20,1,$1+$1,$6,$7,$8,$9,0*
20,1,$1+$1,$8,$9,$2,$3,0*%
G04 Aperture macros list end*
%ADD10RoundRect,0.243750X-0.243750X-0.456250X0.243750X-0.456250X0.243750X0.456250X-0.243750X0.456250X0*%
%ADD11RoundRect,0.250000X0.450000X-0.262500X0.450000X0.262500X-0.450000X0.262500X-0.450000X-0.262500X0*%
%ADD12C,3.200000*%
%ADD13C,1.700000*%
%ADD14C,3.987800*%
%ADD15C,2.454000*%
%ADD16C,1.712000*%
%ADD17R,1.700000X1.700000*%
%ADD18O,1.700000X1.700000*%
%ADD19RoundRect,0.250000X-0.450000X0.262500X-0.450000X-0.262500X0.450000X-0.262500X0.450000X0.262500X0*%
%ADD20RoundRect,0.250000X0.475000X-0.250000X0.475000X0.250000X-0.475000X0.250000X-0.475000X-0.250000X0*%
%ADD21RoundRect,0.150000X-0.150000X0.725000X-0.150000X-0.725000X0.150000X-0.725000X0.150000X0.725000X0*%
%ADD22RoundRect,0.250000X0.250000X0.475000X-0.250000X0.475000X-0.250000X-0.475000X0.250000X-0.475000X0*%
%ADD23RoundRect,0.150000X0.150000X-0.725000X0.150000X0.725000X-0.150000X0.725000X-0.150000X-0.725000X0*%
%ADD24RoundRect,0.250000X-0.250000X-0.475000X0.250000X-0.475000X0.250000X0.475000X-0.250000X0.475000X0*%
G04 APERTURE END LIST*
D10*
X100062500Y-136000000D03*
X101937500Y-136000000D03*
D11*
X241000000Y-121412500D03*
X241000000Y-119587500D03*
D12*
X25000000Y-87000000D03*
D13*
X62000000Y-101500000D03*
D14*
X57000000Y-101500000D03*
D13*
X52000000Y-101500000D03*
D15*
X54490000Y-106580000D03*
X60810000Y-104040000D03*
D16*
X55730000Y-96420000D03*
X58270000Y-96420000D03*
D13*
X237000000Y-126500000D03*
D14*
X232000000Y-126500000D03*
D13*
X227000000Y-126500000D03*
D15*
X229490000Y-131580000D03*
X235810000Y-129040000D03*
D16*
X230730000Y-121420000D03*
X233270000Y-121420000D03*
D10*
X125125000Y-136000000D03*
X127000000Y-136000000D03*
D17*
X271000000Y-109350000D03*
D18*
X271000000Y-106810000D03*
X271000000Y-104270000D03*
X271000000Y-101730000D03*
X271000000Y-99190000D03*
X271000000Y-96650000D03*
D19*
X92500000Y-138175000D03*
X92500000Y-140000000D03*
X191000000Y-96587500D03*
X191000000Y-98412500D03*
D12*
X25000000Y-145000000D03*
D20*
X267000000Y-117450000D03*
X267000000Y-115550000D03*
D13*
X87000000Y-126500000D03*
D14*
X82000000Y-126500000D03*
D13*
X77000000Y-126500000D03*
D15*
X79490000Y-131580000D03*
X85810000Y-129040000D03*
D16*
X80730000Y-121420000D03*
X83270000Y-121420000D03*
D19*
X41000000Y-96587500D03*
X41000000Y-98412500D03*
D13*
X187000000Y-101500000D03*
D14*
X182000000Y-101500000D03*
D13*
X177000000Y-101500000D03*
D15*
X179490000Y-106580000D03*
X185810000Y-104040000D03*
D16*
X180730000Y-96420000D03*
X183270000Y-96420000D03*
D13*
X212000000Y-126500000D03*
D14*
X207000000Y-126500000D03*
D13*
X202000000Y-126500000D03*
D15*
X204490000Y-131580000D03*
X210810000Y-129040000D03*
D16*
X205730000Y-121420000D03*
X208270000Y-121420000D03*
D10*
X50062500Y-136000000D03*
X51937500Y-136000000D03*
D19*
X216000000Y-96500000D03*
X216000000Y-98325000D03*
D17*
X271000000Y-117775000D03*
D18*
X271000000Y-115235000D03*
D19*
X116000000Y-121587500D03*
X116000000Y-123412500D03*
D12*
X145500000Y-145000000D03*
D21*
X238945000Y-139425000D03*
X237675000Y-139425000D03*
X236405000Y-139425000D03*
X235135000Y-139425000D03*
X233865000Y-139425000D03*
X232595000Y-139425000D03*
X231325000Y-139425000D03*
X230055000Y-139425000D03*
X230055000Y-144575000D03*
X231325000Y-144575000D03*
X232595000Y-144575000D03*
X233865000Y-144575000D03*
X235135000Y-144575000D03*
X236405000Y-144575000D03*
X237675000Y-144575000D03*
X238945000Y-144575000D03*
D10*
X50062500Y-111000000D03*
X51937500Y-111000000D03*
D12*
X145500000Y-87000000D03*
D19*
X42500000Y-140175000D03*
X42500000Y-142000000D03*
D10*
X175062500Y-111000000D03*
X176937500Y-111000000D03*
D13*
X112000000Y-101500000D03*
D14*
X107000000Y-101500000D03*
D13*
X102000000Y-101500000D03*
D15*
X104490000Y-106580000D03*
X110810000Y-104040000D03*
D16*
X105730000Y-96420000D03*
X108270000Y-96420000D03*
D10*
X200125000Y-136000000D03*
X202000000Y-136000000D03*
D13*
X162000000Y-101500000D03*
D14*
X157000000Y-101500000D03*
D13*
X152000000Y-101500000D03*
D15*
X154490000Y-106580000D03*
X160810000Y-104040000D03*
D16*
X155730000Y-96420000D03*
X158270000Y-96420000D03*
D13*
X212000000Y-101500000D03*
D14*
X207000000Y-101500000D03*
D13*
X202000000Y-101500000D03*
D15*
X204490000Y-106580000D03*
X210810000Y-104040000D03*
D16*
X205730000Y-96420000D03*
X208270000Y-96420000D03*
D19*
X241000000Y-96587500D03*
X241000000Y-98412500D03*
D22*
X246500000Y-86000000D03*
X244600000Y-86000000D03*
D13*
X62000000Y-126500000D03*
D14*
X57000000Y-126500000D03*
D13*
X52000000Y-126500000D03*
D15*
X54490000Y-131580000D03*
X60810000Y-129040000D03*
D16*
X55730000Y-121420000D03*
X58270000Y-121420000D03*
D13*
X237000000Y-101500000D03*
D14*
X232000000Y-101500000D03*
D13*
X227000000Y-101500000D03*
D15*
X229490000Y-106580000D03*
X235810000Y-104040000D03*
D16*
X230730000Y-96420000D03*
X233270000Y-96420000D03*
D19*
X141000000Y-121587500D03*
X141000000Y-123412500D03*
X212000000Y-137587500D03*
X212000000Y-139412500D03*
D10*
X250062500Y-111000000D03*
X251937500Y-111000000D03*
D23*
X248609999Y-91425000D03*
X249879999Y-91425000D03*
X251149999Y-91425000D03*
X252419999Y-91425000D03*
X253689999Y-91425000D03*
X254959999Y-91425000D03*
X256229999Y-91425000D03*
X257499999Y-91425000D03*
X257499999Y-86275000D03*
X256229999Y-86275000D03*
X254959999Y-86275000D03*
X253689999Y-86275000D03*
X252419999Y-86275000D03*
X251149999Y-86275000D03*
X249879999Y-86275000D03*
X248609999Y-86275000D03*
D13*
X137000000Y-101500000D03*
D14*
X132000000Y-101500000D03*
D13*
X127000000Y-101500000D03*
D15*
X129490000Y-106580000D03*
X135810000Y-104040000D03*
D16*
X130730000Y-96420000D03*
X133270000Y-96420000D03*
D10*
X25062500Y-136000000D03*
X26937500Y-136000000D03*
D12*
X270000000Y-87000000D03*
D19*
X141000000Y-96587500D03*
X141000000Y-98412500D03*
X67500000Y-139175000D03*
X67500000Y-141000000D03*
X191000000Y-121587500D03*
X191000000Y-123412500D03*
X66000000Y-121587500D03*
X66000000Y-123412500D03*
D13*
X187000000Y-126500000D03*
D14*
X182000000Y-126500000D03*
D13*
X177000000Y-126500000D03*
D15*
X179490000Y-131580000D03*
X185810000Y-129040000D03*
D16*
X180730000Y-121420000D03*
X183270000Y-121420000D03*
D13*
X162000000Y-126500000D03*
D14*
X157000000Y-126500000D03*
D13*
X152000000Y-126500000D03*
D15*
X154490000Y-131580000D03*
X160810000Y-129040000D03*
D16*
X155730000Y-121420000D03*
X158270000Y-121420000D03*
D10*
X225062500Y-111000000D03*
X226937500Y-111000000D03*
X100125000Y-111000000D03*
X102000000Y-111000000D03*
D21*
X253445000Y-139425000D03*
X252175000Y-139425000D03*
X250905000Y-139425000D03*
X249635000Y-139425000D03*
X248365000Y-139425000D03*
X247095000Y-139425000D03*
X245825000Y-139425000D03*
X244555000Y-139425000D03*
X244555000Y-144575000D03*
X245825000Y-144575000D03*
X247095000Y-144575000D03*
X248365000Y-144575000D03*
X249635000Y-144575000D03*
X250905000Y-144575000D03*
X252175000Y-144575000D03*
X253445000Y-144575000D03*
D19*
X167500000Y-140587500D03*
X167500000Y-142412500D03*
D12*
X270000000Y-145000000D03*
D13*
X112000000Y-126500000D03*
D14*
X107000000Y-126500000D03*
D13*
X102000000Y-126500000D03*
D15*
X104490000Y-131580000D03*
X110810000Y-129040000D03*
D16*
X105730000Y-121420000D03*
X108270000Y-121420000D03*
D19*
X117500000Y-137175000D03*
X117500000Y-139000000D03*
X192500000Y-139587500D03*
X192500000Y-141412500D03*
D10*
X75062500Y-136000000D03*
X76937500Y-136000000D03*
D13*
X137000000Y-126500000D03*
D14*
X132000000Y-126500000D03*
D13*
X127000000Y-126500000D03*
D15*
X129490000Y-131580000D03*
X135810000Y-129040000D03*
D16*
X130730000Y-121420000D03*
X133270000Y-121420000D03*
D24*
X255550000Y-144500000D03*
X257450000Y-144500000D03*
D13*
X37000000Y-101500000D03*
D14*
X32000000Y-101500000D03*
D13*
X27000000Y-101500000D03*
D15*
X29490000Y-106580000D03*
X35810000Y-104040000D03*
D16*
X30730000Y-96420000D03*
X33270000Y-96420000D03*
D19*
X91000000Y-121587500D03*
X91000000Y-123412500D03*
D13*
X37000000Y-126500000D03*
D14*
X32000000Y-126500000D03*
D13*
X27000000Y-126500000D03*
D15*
X29490000Y-131580000D03*
X35810000Y-129040000D03*
D16*
X30730000Y-121420000D03*
X33270000Y-121420000D03*
D19*
X142500000Y-136087500D03*
X142500000Y-137912500D03*
D23*
X232055000Y-91575000D03*
X233325000Y-91575000D03*
X234595000Y-91575000D03*
X235865000Y-91575000D03*
X237135000Y-91575000D03*
X238405000Y-91575000D03*
X239675000Y-91575000D03*
X240945000Y-91575000D03*
X240945000Y-86425000D03*
X239675000Y-86425000D03*
X238405000Y-86425000D03*
X237135000Y-86425000D03*
X235865000Y-86425000D03*
X234595000Y-86425000D03*
X233325000Y-86425000D03*
X232055000Y-86425000D03*
D10*
X150125000Y-136000000D03*
X152000000Y-136000000D03*
D19*
X166000000Y-121587500D03*
X166000000Y-123412500D03*
X216000000Y-121587500D03*
X216000000Y-123412500D03*
X166000000Y-96587500D03*
X166000000Y-98412500D03*
D10*
X250062500Y-135500000D03*
X251937500Y-135500000D03*
D19*
X91000000Y-96587500D03*
X91000000Y-98412500D03*
D13*
X262000000Y-101500000D03*
D14*
X257000000Y-101500000D03*
D13*
X252000000Y-101500000D03*
D15*
X254490000Y-106580000D03*
X260810000Y-104040000D03*
D16*
X255730000Y-96420000D03*
X258270000Y-96420000D03*
D10*
X25000000Y-111000000D03*
X26875000Y-111000000D03*
D17*
X271000000Y-136540000D03*
D18*
X271000000Y-134000000D03*
X271000000Y-131460000D03*
X271000000Y-128920000D03*
X271000000Y-126380000D03*
X271000000Y-123840000D03*
D10*
X150062500Y-111000000D03*
X151937500Y-111000000D03*
D13*
X262000000Y-126500000D03*
D14*
X257000000Y-126500000D03*
D13*
X252000000Y-126500000D03*
D15*
X254490000Y-131580000D03*
X260810000Y-129040000D03*
D16*
X255730000Y-121420000D03*
X258270000Y-121420000D03*
D19*
X41000000Y-121587500D03*
X41000000Y-123412500D03*
X116000000Y-96500000D03*
X116000000Y-98325000D03*
X66000000Y-96587500D03*
X66000000Y-98412500D03*
D22*
X230000000Y-86000000D03*
X228100000Y-86000000D03*
D10*
X225062500Y-135500000D03*
X226937500Y-135500000D03*
D13*
X87000000Y-101500000D03*
D14*
X82000000Y-101500000D03*
D13*
X77000000Y-101500000D03*
D15*
X79490000Y-106580000D03*
X85810000Y-104040000D03*
D16*
X80730000Y-96420000D03*
X83270000Y-96420000D03*
D10*
X75062500Y-111000000D03*
X76937500Y-111000000D03*
X175125000Y-136000000D03*
X177000000Y-136000000D03*
D11*
X248000000Y-121412500D03*
X248000000Y-119587500D03*
D10*
X125125000Y-111000000D03*
X127000000Y-111000000D03*
D20*
X241000000Y-144450000D03*
X241000000Y-142550000D03*
D10*
X200125000Y-111000000D03*
X202000000Y-111000000D03*
D19*
X248000000Y-96587500D03*
X248000000Y-98412500D03*
M02*
