M48
; DRILL file {KiCad 8.0.4} date 2024-09-21T00:31:17+0200
; FORMAT={-:-/ absolute / metric / decimal}
; #@! TF.CreationDate,2024-09-21T00:31:17+02:00
; #@! TF.GenerationSoftware,Kicad,Pcbnew,8.0.4
; #@! TF.FileFunction,Plated,1,2,PTH
FMAT,2
METRIC
; #@! TA.AperFunction,Plated,PTH,ViaDrill
T1C0.300
; #@! TA.AperFunction,Plated,PTH,ComponentDrill
T2C1.000
; #@! TA.AperFunction,Plated,PTH,ComponentDrill
T3C1.500
%
G90
G05
T1
X21.5Y-100.0
X22.0Y-132.0
X25.0Y-113.0
X25.0Y-133.0
X32.0Y-86.5
X38.0Y-146.5
X40.0Y-114.0
X42.5Y-138.5
X44.0Y-90.5
X45.0Y-101.5
X50.0Y-113.0
X50.0Y-132.5
X61.5Y-92.5
X65.5Y-84.0
X66.5Y-113.5
X67.5Y-137.5
X68.5Y-126.0
X69.5Y-101.5
X75.0Y-113.0
X75.0Y-132.5
X76.5Y-92.5
X78.0Y-147.0
X83.5Y-89.0
X88.0Y-92.5
X91.5Y-113.0
X92.5Y-136.5
X94.0Y-101.5
X94.5Y-126.5
X100.0Y-113.0
X100.0Y-132.5
X102.0Y-92.5
X102.5Y-87.5
X109.0Y-88.0
X110.0Y-92.5
X116.5Y-112.5
X117.5Y-135.5
X119.5Y-126.5
X120.0Y-102.0
X125.0Y-113.0
X125.0Y-132.5
X126.5Y-84.0
X127.5Y-92.5
X131.0Y-147.0
X133.0Y-87.0
X134.5Y-92.5
X142.0Y-112.5
X142.5Y-134.0
X144.0Y-102.0
X144.0Y-126.0
X146.5Y-96.0
X150.0Y-113.0
X150.0Y-132.5
X159.0Y-87.0
X159.5Y-84.0
X163.0Y-93.5
X166.5Y-112.5
X167.5Y-138.5
X169.0Y-102.0
X169.5Y-126.5
X169.5Y-148.5
X175.0Y-113.0
X175.0Y-132.5
X177.0Y-93.5
X191.0Y-94.0
X192.5Y-137.5
X193.5Y-112.5
X194.0Y-101.5
X194.0Y-126.5
X200.0Y-113.0
X200.0Y-132.0
X201.0Y-94.0
X209.0Y-84.0
X210.5Y-148.5
X211.0Y-112.0
X212.0Y-95.0
X212.0Y-135.5
X216.5Y-129.0
X217.0Y-102.0
X217.5Y-111.0
X219.5Y-134.5
X221.0Y-90.0
X221.0Y-98.0
X221.0Y-135.5
X221.0Y-145.5
X222.0Y-120.5
X222.0Y-134.0
X222.0Y-147.5
X222.5Y-89.0
X222.5Y-96.5
X223.0Y-121.5
X223.0Y-134.5
X223.0Y-146.5
X223.5Y-86.0
X223.5Y-111.0
X224.0Y-113.0
X224.75Y-143.25
X226.0Y-91.0
X226.0Y-130.5
X226.5Y-86.0
X226.5Y-99.0
X226.5Y-115.0
X227.0Y-119.0
X227.0Y-139.5
X228.5Y-139.0
X229.5Y-135.5
X233.5Y-107.0
X235.5Y-147.0
X236.0Y-85.0
X237.5Y-99.0
X238.0Y-119.0
X238.0Y-138.0
X238.0Y-143.0
X238.5Y-114.5
X239.0Y-138.0
X240.0Y-147.0
X241.0Y-93.0
X241.0Y-103.0
X241.0Y-117.5
X241.0Y-141.5
X242.5Y-85.5
X242.5Y-87.0
X242.5Y-92.5
X243.0Y-89.0
X243.0Y-97.0
X243.5Y-86.0
X243.5Y-91.5
X243.5Y-139.0
X243.5Y-142.5
X244.5Y-90.5
X244.5Y-118.0
X245.0Y-101.0
X245.5Y-88.0
X245.5Y-133.0
X247.0Y-146.5
X249.5Y-146.0
X250.5Y-106.0
X252.0Y-146.5
X252.5Y-87.5
X252.5Y-121.0
X254.0Y-94.5
X255.5Y-147.0
X256.0Y-138.0
X256.5Y-137.0
X257.5Y-116.0
X257.5Y-146.5
X258.0Y-106.0
X260.0Y-91.5
X261.0Y-86.5
X261.0Y-144.5
X261.0Y-146.5
X263.5Y-145.0
X264.5Y-115.5
X265.0Y-96.0
X265.0Y-147.5
X265.5Y-84.5
X267.0Y-113.5
X267.5Y-122.5
X273.0Y-90.5
X273.0Y-142.0
T2
X30.73Y-96.42
X30.73Y-121.42
X33.27Y-96.42
X33.27Y-121.42
X55.73Y-96.42
X55.73Y-121.42
X58.27Y-96.42
X58.27Y-121.42
X80.73Y-96.42
X80.73Y-121.42
X83.27Y-96.42
X83.27Y-121.42
X105.73Y-96.42
X105.73Y-121.42
X108.27Y-96.42
X108.27Y-121.42
X130.73Y-96.42
X130.73Y-121.42
X133.27Y-96.42
X133.27Y-121.42
X155.73Y-96.42
X155.73Y-121.42
X158.27Y-96.42
X158.27Y-121.42
X180.73Y-96.42
X180.73Y-121.42
X183.27Y-96.42
X183.27Y-121.42
X205.73Y-96.42
X205.73Y-121.42
X208.27Y-96.42
X208.27Y-121.42
X230.73Y-96.42
X230.73Y-121.42
X233.27Y-96.42
X233.27Y-121.42
X255.73Y-96.42
X255.73Y-121.42
X258.27Y-96.42
X258.27Y-121.42
X271.0Y-96.65
X271.0Y-99.19
X271.0Y-101.73
X271.0Y-104.27
X271.0Y-106.81
X271.0Y-109.35
X271.0Y-115.235
X271.0Y-117.775
X271.0Y-123.84
X271.0Y-126.38
X271.0Y-128.92
X271.0Y-131.46
X271.0Y-134.0
X271.0Y-136.54
T3
X29.49Y-106.58
X29.49Y-131.58
X35.81Y-104.04
X35.81Y-129.04
X54.49Y-106.58
X54.49Y-131.58
X60.81Y-104.04
X60.81Y-129.04
X79.49Y-106.58
X79.49Y-131.58
X85.81Y-104.04
X85.81Y-129.04
X104.49Y-106.58
X104.49Y-131.58
X110.81Y-104.04
X110.81Y-129.04
X129.49Y-106.58
X129.49Y-131.58
X135.81Y-104.04
X135.81Y-129.04
X154.49Y-106.58
X154.49Y-131.58
X160.81Y-104.04
X160.81Y-129.04
X179.49Y-106.58
X179.49Y-131.58
X185.81Y-104.04
X185.81Y-129.04
X204.49Y-106.58
X204.49Y-131.58
X210.81Y-104.04
X210.81Y-129.04
X229.49Y-106.58
X229.49Y-131.58
X235.81Y-104.04
X235.81Y-129.04
X254.49Y-106.58
X254.49Y-131.58
X260.81Y-104.04
X260.81Y-129.04
M30
