M48
; DRILL file {KiCad 8.0.4} date 2024-09-20T17:19:15+0200
; FORMAT={-:-/ absolute / metric / decimal}
; #@! TF.CreationDate,2024-09-20T17:19:15+02:00
; #@! TF.GenerationSoftware,Kicad,Pcbnew,8.0.4
; #@! TF.FileFunction,NonPlated,1,2,NPTH
FMAT,2
METRIC
; #@! TA.AperFunction,NonPlated,NPTH,ComponentDrill
T1C1.700
; #@! TA.AperFunction,NonPlated,NPTH,ComponentDrill
T2C3.200
; #@! TA.AperFunction,NonPlated,NPTH,ComponentDrill
T3C3.988
%
G90
G05
T1
X27.0Y-101.5
X27.0Y-126.5
X37.0Y-101.5
X37.0Y-126.5
X52.0Y-101.5
X52.0Y-126.5
X62.0Y-101.5
X62.0Y-126.5
X77.0Y-101.5
X77.0Y-126.5
X87.0Y-101.5
X87.0Y-126.5
X102.0Y-101.5
X102.0Y-126.5
X112.0Y-101.5
X112.0Y-126.5
X127.0Y-101.5
X127.0Y-126.5
X137.0Y-101.5
X137.0Y-126.5
X152.0Y-101.5
X152.0Y-126.5
X162.0Y-101.5
X162.0Y-126.5
X177.0Y-101.5
X177.0Y-126.5
X187.0Y-101.5
X187.0Y-126.5
X202.0Y-101.5
X202.0Y-126.5
X212.0Y-101.5
X212.0Y-126.5
X227.0Y-101.5
X227.0Y-126.5
X237.0Y-101.5
X237.0Y-126.5
X252.0Y-101.5
X252.0Y-126.5
X262.0Y-101.5
X262.0Y-126.5
T2
X25.0Y-87.0
X25.0Y-145.0
X145.5Y-87.0
X145.5Y-145.0
X270.0Y-87.0
X270.0Y-145.0
T3
X32.0Y-101.5
X32.0Y-126.5
X57.0Y-101.5
X57.0Y-126.5
X82.0Y-101.5
X82.0Y-126.5
X107.0Y-101.5
X107.0Y-126.5
X132.0Y-101.5
X132.0Y-126.5
X157.0Y-101.5
X157.0Y-126.5
X182.0Y-101.5
X182.0Y-126.5
X207.0Y-101.5
X207.0Y-126.5
X232.0Y-101.5
X232.0Y-126.5
X257.0Y-101.5
X257.0Y-126.5
M30
