%TF.GenerationSoftware,KiCad,Pcbnew,8.0.4*%
%TF.CreationDate,2024-09-21T00:31:17+02:00*%
%TF.ProjectId,Keys_Flash,4b657973-5f46-46c6-9173-682e6b696361,rev?*%
%TF.SameCoordinates,Original*%
%TF.FileFunction,Drillmap*%
%TF.FilePolarity,Positive*%
%FSLAX45Y45*%
G04 Gerber Fmt 4.5, Leading zero omitted, Abs format (unit mm)*
G04 Created by KiCad (PCBNEW 8.0.4) date 2024-09-21 00:31:17*
%MOMM*%
%LPD*%
G01*
G04 APERTURE LIST*
%ADD10C,0.050000*%
%ADD11C,0.200000*%
%ADD12C,0.170000*%
%ADD13C,0.320000*%
%ADD14C,0.398780*%
G04 APERTURE END LIST*
D10*
X27500000Y-15000000D02*
X27500000Y-8200000D01*
X27500000Y-8200000D02*
X2000000Y-8200000D01*
X2000000Y-8200000D02*
X2000000Y-15000000D01*
X2000000Y-15000000D02*
X27500000Y-15000000D01*
D11*
D12*
X2615000Y-10065000D02*
X2785000Y-10235000D01*
X2785000Y-10065000D02*
X2615000Y-10235000D01*
X2615000Y-12565000D02*
X2785000Y-12735000D01*
X2785000Y-12565000D02*
X2615000Y-12735000D01*
X3615000Y-10065000D02*
X3785000Y-10235000D01*
X3785000Y-10065000D02*
X3615000Y-10235000D01*
X3615000Y-12565000D02*
X3785000Y-12735000D01*
X3785000Y-12565000D02*
X3615000Y-12735000D01*
X5115000Y-10065000D02*
X5285000Y-10235000D01*
X5285000Y-10065000D02*
X5115000Y-10235000D01*
X5115000Y-12565000D02*
X5285000Y-12735000D01*
X5285000Y-12565000D02*
X5115000Y-12735000D01*
X6115000Y-10065000D02*
X6285000Y-10235000D01*
X6285000Y-10065000D02*
X6115000Y-10235000D01*
X6115000Y-12565000D02*
X6285000Y-12735000D01*
X6285000Y-12565000D02*
X6115000Y-12735000D01*
X7615000Y-10065000D02*
X7785000Y-10235000D01*
X7785000Y-10065000D02*
X7615000Y-10235000D01*
X7615000Y-12565000D02*
X7785000Y-12735000D01*
X7785000Y-12565000D02*
X7615000Y-12735000D01*
X8615000Y-10065000D02*
X8785000Y-10235000D01*
X8785000Y-10065000D02*
X8615000Y-10235000D01*
X8615000Y-12565000D02*
X8785000Y-12735000D01*
X8785000Y-12565000D02*
X8615000Y-12735000D01*
X10115000Y-10065000D02*
X10285000Y-10235000D01*
X10285000Y-10065000D02*
X10115000Y-10235000D01*
X10115000Y-12565000D02*
X10285000Y-12735000D01*
X10285000Y-12565000D02*
X10115000Y-12735000D01*
X11115000Y-10065000D02*
X11285000Y-10235000D01*
X11285000Y-10065000D02*
X11115000Y-10235000D01*
X11115000Y-12565000D02*
X11285000Y-12735000D01*
X11285000Y-12565000D02*
X11115000Y-12735000D01*
X12615000Y-10065000D02*
X12785000Y-10235000D01*
X12785000Y-10065000D02*
X12615000Y-10235000D01*
X12615000Y-12565000D02*
X12785000Y-12735000D01*
X12785000Y-12565000D02*
X12615000Y-12735000D01*
X13615000Y-10065000D02*
X13785000Y-10235000D01*
X13785000Y-10065000D02*
X13615000Y-10235000D01*
X13615000Y-12565000D02*
X13785000Y-12735000D01*
X13785000Y-12565000D02*
X13615000Y-12735000D01*
X15115000Y-10065000D02*
X15285000Y-10235000D01*
X15285000Y-10065000D02*
X15115000Y-10235000D01*
X15115000Y-12565000D02*
X15285000Y-12735000D01*
X15285000Y-12565000D02*
X15115000Y-12735000D01*
X16115000Y-10065000D02*
X16285000Y-10235000D01*
X16285000Y-10065000D02*
X16115000Y-10235000D01*
X16115000Y-12565000D02*
X16285000Y-12735000D01*
X16285000Y-12565000D02*
X16115000Y-12735000D01*
X17615000Y-10065000D02*
X17785000Y-10235000D01*
X17785000Y-10065000D02*
X17615000Y-10235000D01*
X17615000Y-12565000D02*
X17785000Y-12735000D01*
X17785000Y-12565000D02*
X17615000Y-12735000D01*
X18615000Y-10065000D02*
X18785000Y-10235000D01*
X18785000Y-10065000D02*
X18615000Y-10235000D01*
X18615000Y-12565000D02*
X18785000Y-12735000D01*
X18785000Y-12565000D02*
X18615000Y-12735000D01*
X20115000Y-10065000D02*
X20285000Y-10235000D01*
X20285000Y-10065000D02*
X20115000Y-10235000D01*
X20115000Y-12565000D02*
X20285000Y-12735000D01*
X20285000Y-12565000D02*
X20115000Y-12735000D01*
X21115000Y-10065000D02*
X21285000Y-10235000D01*
X21285000Y-10065000D02*
X21115000Y-10235000D01*
X21115000Y-12565000D02*
X21285000Y-12735000D01*
X21285000Y-12565000D02*
X21115000Y-12735000D01*
X22615000Y-10065000D02*
X22785000Y-10235000D01*
X22785000Y-10065000D02*
X22615000Y-10235000D01*
X22615000Y-12565000D02*
X22785000Y-12735000D01*
X22785000Y-12565000D02*
X22615000Y-12735000D01*
X23615000Y-10065000D02*
X23785000Y-10235000D01*
X23785000Y-10065000D02*
X23615000Y-10235000D01*
X23615000Y-12565000D02*
X23785000Y-12735000D01*
X23785000Y-12565000D02*
X23615000Y-12735000D01*
X25115000Y-10065000D02*
X25285000Y-10235000D01*
X25285000Y-10065000D02*
X25115000Y-10235000D01*
X25115000Y-12565000D02*
X25285000Y-12735000D01*
X25285000Y-12565000D02*
X25115000Y-12735000D01*
X26115000Y-10065000D02*
X26285000Y-10235000D01*
X26285000Y-10065000D02*
X26115000Y-10235000D01*
X26115000Y-12565000D02*
X26285000Y-12735000D01*
X26285000Y-12565000D02*
X26115000Y-12735000D01*
D13*
X2660000Y-8700000D02*
G75*
G02*
X2340000Y-8700000I-160000J0D01*
G01*
X2340000Y-8700000D02*
G75*
G02*
X2660000Y-8700000I160000J0D01*
G01*
X2660000Y-14500000D02*
G75*
G02*
X2340000Y-14500000I-160000J0D01*
G01*
X2340000Y-14500000D02*
G75*
G02*
X2660000Y-14500000I160000J0D01*
G01*
X14710000Y-8700000D02*
G75*
G02*
X14390000Y-8700000I-160000J0D01*
G01*
X14390000Y-8700000D02*
G75*
G02*
X14710000Y-8700000I160000J0D01*
G01*
X14710000Y-14500000D02*
G75*
G02*
X14390000Y-14500000I-160000J0D01*
G01*
X14390000Y-14500000D02*
G75*
G02*
X14710000Y-14500000I160000J0D01*
G01*
X27160000Y-8700000D02*
G75*
G02*
X26840000Y-8700000I-160000J0D01*
G01*
X26840000Y-8700000D02*
G75*
G02*
X27160000Y-8700000I160000J0D01*
G01*
X27160000Y-14500000D02*
G75*
G02*
X26840000Y-14500000I-160000J0D01*
G01*
X26840000Y-14500000D02*
G75*
G02*
X27160000Y-14500000I160000J0D01*
G01*
D14*
X3200000Y-9950610D02*
X3200000Y-10349390D01*
X3000610Y-10150000D02*
X3399390Y-10150000D01*
X3200000Y-12450610D02*
X3200000Y-12849390D01*
X3000610Y-12650000D02*
X3399390Y-12650000D01*
X5700000Y-9950610D02*
X5700000Y-10349390D01*
X5500610Y-10150000D02*
X5899390Y-10150000D01*
X5700000Y-12450610D02*
X5700000Y-12849390D01*
X5500610Y-12650000D02*
X5899390Y-12650000D01*
X8200000Y-9950610D02*
X8200000Y-10349390D01*
X8000610Y-10150000D02*
X8399390Y-10150000D01*
X8200000Y-12450610D02*
X8200000Y-12849390D01*
X8000610Y-12650000D02*
X8399390Y-12650000D01*
X10700000Y-9950610D02*
X10700000Y-10349390D01*
X10500610Y-10150000D02*
X10899390Y-10150000D01*
X10700000Y-12450610D02*
X10700000Y-12849390D01*
X10500610Y-12650000D02*
X10899390Y-12650000D01*
X13200000Y-9950610D02*
X13200000Y-10349390D01*
X13000610Y-10150000D02*
X13399390Y-10150000D01*
X13200000Y-12450610D02*
X13200000Y-12849390D01*
X13000610Y-12650000D02*
X13399390Y-12650000D01*
X15700000Y-9950610D02*
X15700000Y-10349390D01*
X15500610Y-10150000D02*
X15899390Y-10150000D01*
X15700000Y-12450610D02*
X15700000Y-12849390D01*
X15500610Y-12650000D02*
X15899390Y-12650000D01*
X18200000Y-9950610D02*
X18200000Y-10349390D01*
X18000610Y-10150000D02*
X18399390Y-10150000D01*
X18200000Y-12450610D02*
X18200000Y-12849390D01*
X18000610Y-12650000D02*
X18399390Y-12650000D01*
X20700000Y-9950610D02*
X20700000Y-10349390D01*
X20500610Y-10150000D02*
X20899390Y-10150000D01*
X20700000Y-12450610D02*
X20700000Y-12849390D01*
X20500610Y-12650000D02*
X20899390Y-12650000D01*
X23200000Y-9950610D02*
X23200000Y-10349390D01*
X23000610Y-10150000D02*
X23399390Y-10150000D01*
X23200000Y-12450610D02*
X23200000Y-12849390D01*
X23000610Y-12650000D02*
X23399390Y-12650000D01*
X25700000Y-9950610D02*
X25700000Y-10349390D01*
X25500610Y-10150000D02*
X25899390Y-10150000D01*
X25700000Y-12450610D02*
X25700000Y-12849390D01*
X25500610Y-12650000D02*
X25899390Y-12650000D01*
D11*
X2258277Y-15313984D02*
X2258277Y-15113984D01*
X2258277Y-15113984D02*
X2305896Y-15113984D01*
X2305896Y-15113984D02*
X2334467Y-15123508D01*
X2334467Y-15123508D02*
X2353515Y-15142555D01*
X2353515Y-15142555D02*
X2363039Y-15161603D01*
X2363039Y-15161603D02*
X2372563Y-15199698D01*
X2372563Y-15199698D02*
X2372563Y-15228269D01*
X2372563Y-15228269D02*
X2363039Y-15266365D01*
X2363039Y-15266365D02*
X2353515Y-15285412D01*
X2353515Y-15285412D02*
X2334467Y-15304460D01*
X2334467Y-15304460D02*
X2305896Y-15313984D01*
X2305896Y-15313984D02*
X2258277Y-15313984D01*
X2458277Y-15313984D02*
X2458277Y-15180650D01*
X2458277Y-15218746D02*
X2467801Y-15199698D01*
X2467801Y-15199698D02*
X2477324Y-15190174D01*
X2477324Y-15190174D02*
X2496372Y-15180650D01*
X2496372Y-15180650D02*
X2515420Y-15180650D01*
X2582086Y-15313984D02*
X2582086Y-15180650D01*
X2582086Y-15113984D02*
X2572563Y-15123508D01*
X2572563Y-15123508D02*
X2582086Y-15133031D01*
X2582086Y-15133031D02*
X2591610Y-15123508D01*
X2591610Y-15123508D02*
X2582086Y-15113984D01*
X2582086Y-15113984D02*
X2582086Y-15133031D01*
X2705896Y-15313984D02*
X2686848Y-15304460D01*
X2686848Y-15304460D02*
X2677324Y-15285412D01*
X2677324Y-15285412D02*
X2677324Y-15113984D01*
X2810658Y-15313984D02*
X2791610Y-15304460D01*
X2791610Y-15304460D02*
X2782086Y-15285412D01*
X2782086Y-15285412D02*
X2782086Y-15113984D01*
X3039229Y-15313984D02*
X3039229Y-15113984D01*
X3039229Y-15113984D02*
X3105896Y-15256841D01*
X3105896Y-15256841D02*
X3172562Y-15113984D01*
X3172562Y-15113984D02*
X3172562Y-15313984D01*
X3353515Y-15313984D02*
X3353515Y-15209222D01*
X3353515Y-15209222D02*
X3343991Y-15190174D01*
X3343991Y-15190174D02*
X3324943Y-15180650D01*
X3324943Y-15180650D02*
X3286848Y-15180650D01*
X3286848Y-15180650D02*
X3267801Y-15190174D01*
X3353515Y-15304460D02*
X3334467Y-15313984D01*
X3334467Y-15313984D02*
X3286848Y-15313984D01*
X3286848Y-15313984D02*
X3267801Y-15304460D01*
X3267801Y-15304460D02*
X3258277Y-15285412D01*
X3258277Y-15285412D02*
X3258277Y-15266365D01*
X3258277Y-15266365D02*
X3267801Y-15247317D01*
X3267801Y-15247317D02*
X3286848Y-15237793D01*
X3286848Y-15237793D02*
X3334467Y-15237793D01*
X3334467Y-15237793D02*
X3353515Y-15228269D01*
X3448753Y-15180650D02*
X3448753Y-15380650D01*
X3448753Y-15190174D02*
X3467801Y-15180650D01*
X3467801Y-15180650D02*
X3505896Y-15180650D01*
X3505896Y-15180650D02*
X3524943Y-15190174D01*
X3524943Y-15190174D02*
X3534467Y-15199698D01*
X3534467Y-15199698D02*
X3543991Y-15218746D01*
X3543991Y-15218746D02*
X3543991Y-15275888D01*
X3543991Y-15275888D02*
X3534467Y-15294936D01*
X3534467Y-15294936D02*
X3524943Y-15304460D01*
X3524943Y-15304460D02*
X3505896Y-15313984D01*
X3505896Y-15313984D02*
X3467801Y-15313984D01*
X3467801Y-15313984D02*
X3448753Y-15304460D01*
X3629705Y-15294936D02*
X3639229Y-15304460D01*
X3639229Y-15304460D02*
X3629705Y-15313984D01*
X3629705Y-15313984D02*
X3620182Y-15304460D01*
X3620182Y-15304460D02*
X3629705Y-15294936D01*
X3629705Y-15294936D02*
X3629705Y-15313984D01*
X3629705Y-15190174D02*
X3639229Y-15199698D01*
X3639229Y-15199698D02*
X3629705Y-15209222D01*
X3629705Y-15209222D02*
X3620182Y-15199698D01*
X3620182Y-15199698D02*
X3629705Y-15190174D01*
X3629705Y-15190174D02*
X3629705Y-15209222D01*
D12*
X1827500Y-15557500D02*
X1997500Y-15727500D01*
X1997500Y-15557500D02*
X1827500Y-15727500D01*
D11*
X2363039Y-15733984D02*
X2248753Y-15733984D01*
X2305896Y-15733984D02*
X2305896Y-15533984D01*
X2305896Y-15533984D02*
X2286848Y-15562555D01*
X2286848Y-15562555D02*
X2267801Y-15581603D01*
X2267801Y-15581603D02*
X2248753Y-15591127D01*
X2448753Y-15714936D02*
X2458277Y-15724460D01*
X2458277Y-15724460D02*
X2448753Y-15733984D01*
X2448753Y-15733984D02*
X2439229Y-15724460D01*
X2439229Y-15724460D02*
X2448753Y-15714936D01*
X2448753Y-15714936D02*
X2448753Y-15733984D01*
X2524944Y-15533984D02*
X2658277Y-15533984D01*
X2658277Y-15533984D02*
X2572563Y-15733984D01*
X2772563Y-15533984D02*
X2791610Y-15533984D01*
X2791610Y-15533984D02*
X2810658Y-15543508D01*
X2810658Y-15543508D02*
X2820182Y-15553031D01*
X2820182Y-15553031D02*
X2829705Y-15572079D01*
X2829705Y-15572079D02*
X2839229Y-15610174D01*
X2839229Y-15610174D02*
X2839229Y-15657793D01*
X2839229Y-15657793D02*
X2829705Y-15695888D01*
X2829705Y-15695888D02*
X2820182Y-15714936D01*
X2820182Y-15714936D02*
X2810658Y-15724460D01*
X2810658Y-15724460D02*
X2791610Y-15733984D01*
X2791610Y-15733984D02*
X2772563Y-15733984D01*
X2772563Y-15733984D02*
X2753515Y-15724460D01*
X2753515Y-15724460D02*
X2743991Y-15714936D01*
X2743991Y-15714936D02*
X2734467Y-15695888D01*
X2734467Y-15695888D02*
X2724944Y-15657793D01*
X2724944Y-15657793D02*
X2724944Y-15610174D01*
X2724944Y-15610174D02*
X2734467Y-15572079D01*
X2734467Y-15572079D02*
X2743991Y-15553031D01*
X2743991Y-15553031D02*
X2753515Y-15543508D01*
X2753515Y-15543508D02*
X2772563Y-15533984D01*
X2963039Y-15533984D02*
X2982086Y-15533984D01*
X2982086Y-15533984D02*
X3001134Y-15543508D01*
X3001134Y-15543508D02*
X3010658Y-15553031D01*
X3010658Y-15553031D02*
X3020182Y-15572079D01*
X3020182Y-15572079D02*
X3029705Y-15610174D01*
X3029705Y-15610174D02*
X3029705Y-15657793D01*
X3029705Y-15657793D02*
X3020182Y-15695888D01*
X3020182Y-15695888D02*
X3010658Y-15714936D01*
X3010658Y-15714936D02*
X3001134Y-15724460D01*
X3001134Y-15724460D02*
X2982086Y-15733984D01*
X2982086Y-15733984D02*
X2963039Y-15733984D01*
X2963039Y-15733984D02*
X2943991Y-15724460D01*
X2943991Y-15724460D02*
X2934467Y-15714936D01*
X2934467Y-15714936D02*
X2924943Y-15695888D01*
X2924943Y-15695888D02*
X2915420Y-15657793D01*
X2915420Y-15657793D02*
X2915420Y-15610174D01*
X2915420Y-15610174D02*
X2924943Y-15572079D01*
X2924943Y-15572079D02*
X2934467Y-15553031D01*
X2934467Y-15553031D02*
X2943991Y-15543508D01*
X2943991Y-15543508D02*
X2963039Y-15533984D01*
X3115420Y-15733984D02*
X3115420Y-15600650D01*
X3115420Y-15619698D02*
X3124943Y-15610174D01*
X3124943Y-15610174D02*
X3143991Y-15600650D01*
X3143991Y-15600650D02*
X3172563Y-15600650D01*
X3172563Y-15600650D02*
X3191610Y-15610174D01*
X3191610Y-15610174D02*
X3201134Y-15629222D01*
X3201134Y-15629222D02*
X3201134Y-15733984D01*
X3201134Y-15629222D02*
X3210658Y-15610174D01*
X3210658Y-15610174D02*
X3229705Y-15600650D01*
X3229705Y-15600650D02*
X3258277Y-15600650D01*
X3258277Y-15600650D02*
X3277324Y-15610174D01*
X3277324Y-15610174D02*
X3286848Y-15629222D01*
X3286848Y-15629222D02*
X3286848Y-15733984D01*
X3382086Y-15733984D02*
X3382086Y-15600650D01*
X3382086Y-15619698D02*
X3391610Y-15610174D01*
X3391610Y-15610174D02*
X3410658Y-15600650D01*
X3410658Y-15600650D02*
X3439229Y-15600650D01*
X3439229Y-15600650D02*
X3458277Y-15610174D01*
X3458277Y-15610174D02*
X3467801Y-15629222D01*
X3467801Y-15629222D02*
X3467801Y-15733984D01*
X3467801Y-15629222D02*
X3477324Y-15610174D01*
X3477324Y-15610174D02*
X3496372Y-15600650D01*
X3496372Y-15600650D02*
X3524943Y-15600650D01*
X3524943Y-15600650D02*
X3543991Y-15610174D01*
X3543991Y-15610174D02*
X3553515Y-15629222D01*
X3553515Y-15629222D02*
X3553515Y-15733984D01*
X3943991Y-15524460D02*
X3772563Y-15781603D01*
X4201134Y-15533984D02*
X4220182Y-15533984D01*
X4220182Y-15533984D02*
X4239229Y-15543508D01*
X4239229Y-15543508D02*
X4248753Y-15553031D01*
X4248753Y-15553031D02*
X4258277Y-15572079D01*
X4258277Y-15572079D02*
X4267801Y-15610174D01*
X4267801Y-15610174D02*
X4267801Y-15657793D01*
X4267801Y-15657793D02*
X4258277Y-15695888D01*
X4258277Y-15695888D02*
X4248753Y-15714936D01*
X4248753Y-15714936D02*
X4239229Y-15724460D01*
X4239229Y-15724460D02*
X4220182Y-15733984D01*
X4220182Y-15733984D02*
X4201134Y-15733984D01*
X4201134Y-15733984D02*
X4182086Y-15724460D01*
X4182086Y-15724460D02*
X4172563Y-15714936D01*
X4172563Y-15714936D02*
X4163039Y-15695888D01*
X4163039Y-15695888D02*
X4153515Y-15657793D01*
X4153515Y-15657793D02*
X4153515Y-15610174D01*
X4153515Y-15610174D02*
X4163039Y-15572079D01*
X4163039Y-15572079D02*
X4172563Y-15553031D01*
X4172563Y-15553031D02*
X4182086Y-15543508D01*
X4182086Y-15543508D02*
X4201134Y-15533984D01*
X4353515Y-15714936D02*
X4363039Y-15724460D01*
X4363039Y-15724460D02*
X4353515Y-15733984D01*
X4353515Y-15733984D02*
X4343991Y-15724460D01*
X4343991Y-15724460D02*
X4353515Y-15714936D01*
X4353515Y-15714936D02*
X4353515Y-15733984D01*
X4486848Y-15533984D02*
X4505896Y-15533984D01*
X4505896Y-15533984D02*
X4524944Y-15543508D01*
X4524944Y-15543508D02*
X4534468Y-15553031D01*
X4534468Y-15553031D02*
X4543991Y-15572079D01*
X4543991Y-15572079D02*
X4553515Y-15610174D01*
X4553515Y-15610174D02*
X4553515Y-15657793D01*
X4553515Y-15657793D02*
X4543991Y-15695888D01*
X4543991Y-15695888D02*
X4534468Y-15714936D01*
X4534468Y-15714936D02*
X4524944Y-15724460D01*
X4524944Y-15724460D02*
X4505896Y-15733984D01*
X4505896Y-15733984D02*
X4486848Y-15733984D01*
X4486848Y-15733984D02*
X4467801Y-15724460D01*
X4467801Y-15724460D02*
X4458277Y-15714936D01*
X4458277Y-15714936D02*
X4448753Y-15695888D01*
X4448753Y-15695888D02*
X4439229Y-15657793D01*
X4439229Y-15657793D02*
X4439229Y-15610174D01*
X4439229Y-15610174D02*
X4448753Y-15572079D01*
X4448753Y-15572079D02*
X4458277Y-15553031D01*
X4458277Y-15553031D02*
X4467801Y-15543508D01*
X4467801Y-15543508D02*
X4486848Y-15533984D01*
X4724944Y-15533984D02*
X4686848Y-15533984D01*
X4686848Y-15533984D02*
X4667801Y-15543508D01*
X4667801Y-15543508D02*
X4658277Y-15553031D01*
X4658277Y-15553031D02*
X4639229Y-15581603D01*
X4639229Y-15581603D02*
X4629706Y-15619698D01*
X4629706Y-15619698D02*
X4629706Y-15695888D01*
X4629706Y-15695888D02*
X4639229Y-15714936D01*
X4639229Y-15714936D02*
X4648753Y-15724460D01*
X4648753Y-15724460D02*
X4667801Y-15733984D01*
X4667801Y-15733984D02*
X4705896Y-15733984D01*
X4705896Y-15733984D02*
X4724944Y-15724460D01*
X4724944Y-15724460D02*
X4734468Y-15714936D01*
X4734468Y-15714936D02*
X4743991Y-15695888D01*
X4743991Y-15695888D02*
X4743991Y-15648269D01*
X4743991Y-15648269D02*
X4734468Y-15629222D01*
X4734468Y-15629222D02*
X4724944Y-15619698D01*
X4724944Y-15619698D02*
X4705896Y-15610174D01*
X4705896Y-15610174D02*
X4667801Y-15610174D01*
X4667801Y-15610174D02*
X4648753Y-15619698D01*
X4648753Y-15619698D02*
X4639229Y-15629222D01*
X4639229Y-15629222D02*
X4629706Y-15648269D01*
X4915420Y-15533984D02*
X4877325Y-15533984D01*
X4877325Y-15533984D02*
X4858277Y-15543508D01*
X4858277Y-15543508D02*
X4848753Y-15553031D01*
X4848753Y-15553031D02*
X4829706Y-15581603D01*
X4829706Y-15581603D02*
X4820182Y-15619698D01*
X4820182Y-15619698D02*
X4820182Y-15695888D01*
X4820182Y-15695888D02*
X4829706Y-15714936D01*
X4829706Y-15714936D02*
X4839229Y-15724460D01*
X4839229Y-15724460D02*
X4858277Y-15733984D01*
X4858277Y-15733984D02*
X4896372Y-15733984D01*
X4896372Y-15733984D02*
X4915420Y-15724460D01*
X4915420Y-15724460D02*
X4924944Y-15714936D01*
X4924944Y-15714936D02*
X4934468Y-15695888D01*
X4934468Y-15695888D02*
X4934468Y-15648269D01*
X4934468Y-15648269D02*
X4924944Y-15629222D01*
X4924944Y-15629222D02*
X4915420Y-15619698D01*
X4915420Y-15619698D02*
X4896372Y-15610174D01*
X4896372Y-15610174D02*
X4858277Y-15610174D01*
X4858277Y-15610174D02*
X4839229Y-15619698D01*
X4839229Y-15619698D02*
X4829706Y-15629222D01*
X4829706Y-15629222D02*
X4820182Y-15648269D01*
X5029706Y-15733984D02*
X5067801Y-15733984D01*
X5067801Y-15733984D02*
X5086849Y-15724460D01*
X5086849Y-15724460D02*
X5096372Y-15714936D01*
X5096372Y-15714936D02*
X5115420Y-15686365D01*
X5115420Y-15686365D02*
X5124944Y-15648269D01*
X5124944Y-15648269D02*
X5124944Y-15572079D01*
X5124944Y-15572079D02*
X5115420Y-15553031D01*
X5115420Y-15553031D02*
X5105896Y-15543508D01*
X5105896Y-15543508D02*
X5086849Y-15533984D01*
X5086849Y-15533984D02*
X5048753Y-15533984D01*
X5048753Y-15533984D02*
X5029706Y-15543508D01*
X5029706Y-15543508D02*
X5020182Y-15553031D01*
X5020182Y-15553031D02*
X5010658Y-15572079D01*
X5010658Y-15572079D02*
X5010658Y-15619698D01*
X5010658Y-15619698D02*
X5020182Y-15638746D01*
X5020182Y-15638746D02*
X5029706Y-15648269D01*
X5029706Y-15648269D02*
X5048753Y-15657793D01*
X5048753Y-15657793D02*
X5086849Y-15657793D01*
X5086849Y-15657793D02*
X5105896Y-15648269D01*
X5105896Y-15648269D02*
X5115420Y-15638746D01*
X5115420Y-15638746D02*
X5124944Y-15619698D01*
X5201134Y-15533984D02*
X5201134Y-15572079D01*
X5277325Y-15533984D02*
X5277325Y-15572079D01*
X5572563Y-15810174D02*
X5563039Y-15800650D01*
X5563039Y-15800650D02*
X5543991Y-15772079D01*
X5543991Y-15772079D02*
X5534468Y-15753031D01*
X5534468Y-15753031D02*
X5524944Y-15724460D01*
X5524944Y-15724460D02*
X5515420Y-15676841D01*
X5515420Y-15676841D02*
X5515420Y-15638746D01*
X5515420Y-15638746D02*
X5524944Y-15591127D01*
X5524944Y-15591127D02*
X5534468Y-15562555D01*
X5534468Y-15562555D02*
X5543991Y-15543508D01*
X5543991Y-15543508D02*
X5563039Y-15514936D01*
X5563039Y-15514936D02*
X5572563Y-15505412D01*
X5734468Y-15600650D02*
X5734468Y-15733984D01*
X5686848Y-15524460D02*
X5639229Y-15667317D01*
X5639229Y-15667317D02*
X5763039Y-15667317D01*
X5877325Y-15533984D02*
X5896372Y-15533984D01*
X5896372Y-15533984D02*
X5915420Y-15543508D01*
X5915420Y-15543508D02*
X5924944Y-15553031D01*
X5924944Y-15553031D02*
X5934468Y-15572079D01*
X5934468Y-15572079D02*
X5943991Y-15610174D01*
X5943991Y-15610174D02*
X5943991Y-15657793D01*
X5943991Y-15657793D02*
X5934468Y-15695888D01*
X5934468Y-15695888D02*
X5924944Y-15714936D01*
X5924944Y-15714936D02*
X5915420Y-15724460D01*
X5915420Y-15724460D02*
X5896372Y-15733984D01*
X5896372Y-15733984D02*
X5877325Y-15733984D01*
X5877325Y-15733984D02*
X5858277Y-15724460D01*
X5858277Y-15724460D02*
X5848753Y-15714936D01*
X5848753Y-15714936D02*
X5839229Y-15695888D01*
X5839229Y-15695888D02*
X5829706Y-15657793D01*
X5829706Y-15657793D02*
X5829706Y-15610174D01*
X5829706Y-15610174D02*
X5839229Y-15572079D01*
X5839229Y-15572079D02*
X5848753Y-15553031D01*
X5848753Y-15553031D02*
X5858277Y-15543508D01*
X5858277Y-15543508D02*
X5877325Y-15533984D01*
X6182087Y-15733984D02*
X6182087Y-15533984D01*
X6267801Y-15733984D02*
X6267801Y-15629222D01*
X6267801Y-15629222D02*
X6258277Y-15610174D01*
X6258277Y-15610174D02*
X6239230Y-15600650D01*
X6239230Y-15600650D02*
X6210658Y-15600650D01*
X6210658Y-15600650D02*
X6191610Y-15610174D01*
X6191610Y-15610174D02*
X6182087Y-15619698D01*
X6391610Y-15733984D02*
X6372563Y-15724460D01*
X6372563Y-15724460D02*
X6363039Y-15714936D01*
X6363039Y-15714936D02*
X6353515Y-15695888D01*
X6353515Y-15695888D02*
X6353515Y-15638746D01*
X6353515Y-15638746D02*
X6363039Y-15619698D01*
X6363039Y-15619698D02*
X6372563Y-15610174D01*
X6372563Y-15610174D02*
X6391610Y-15600650D01*
X6391610Y-15600650D02*
X6420182Y-15600650D01*
X6420182Y-15600650D02*
X6439230Y-15610174D01*
X6439230Y-15610174D02*
X6448753Y-15619698D01*
X6448753Y-15619698D02*
X6458277Y-15638746D01*
X6458277Y-15638746D02*
X6458277Y-15695888D01*
X6458277Y-15695888D02*
X6448753Y-15714936D01*
X6448753Y-15714936D02*
X6439230Y-15724460D01*
X6439230Y-15724460D02*
X6420182Y-15733984D01*
X6420182Y-15733984D02*
X6391610Y-15733984D01*
X6572563Y-15733984D02*
X6553515Y-15724460D01*
X6553515Y-15724460D02*
X6543991Y-15705412D01*
X6543991Y-15705412D02*
X6543991Y-15533984D01*
X6724944Y-15724460D02*
X6705896Y-15733984D01*
X6705896Y-15733984D02*
X6667801Y-15733984D01*
X6667801Y-15733984D02*
X6648753Y-15724460D01*
X6648753Y-15724460D02*
X6639230Y-15705412D01*
X6639230Y-15705412D02*
X6639230Y-15629222D01*
X6639230Y-15629222D02*
X6648753Y-15610174D01*
X6648753Y-15610174D02*
X6667801Y-15600650D01*
X6667801Y-15600650D02*
X6705896Y-15600650D01*
X6705896Y-15600650D02*
X6724944Y-15610174D01*
X6724944Y-15610174D02*
X6734468Y-15629222D01*
X6734468Y-15629222D02*
X6734468Y-15648269D01*
X6734468Y-15648269D02*
X6639230Y-15667317D01*
X6810658Y-15724460D02*
X6829706Y-15733984D01*
X6829706Y-15733984D02*
X6867801Y-15733984D01*
X6867801Y-15733984D02*
X6886849Y-15724460D01*
X6886849Y-15724460D02*
X6896372Y-15705412D01*
X6896372Y-15705412D02*
X6896372Y-15695888D01*
X6896372Y-15695888D02*
X6886849Y-15676841D01*
X6886849Y-15676841D02*
X6867801Y-15667317D01*
X6867801Y-15667317D02*
X6839230Y-15667317D01*
X6839230Y-15667317D02*
X6820182Y-15657793D01*
X6820182Y-15657793D02*
X6810658Y-15638746D01*
X6810658Y-15638746D02*
X6810658Y-15629222D01*
X6810658Y-15629222D02*
X6820182Y-15610174D01*
X6820182Y-15610174D02*
X6839230Y-15600650D01*
X6839230Y-15600650D02*
X6867801Y-15600650D01*
X6867801Y-15600650D02*
X6886849Y-15610174D01*
X6963039Y-15810174D02*
X6972563Y-15800650D01*
X6972563Y-15800650D02*
X6991611Y-15772079D01*
X6991611Y-15772079D02*
X7001134Y-15753031D01*
X7001134Y-15753031D02*
X7010658Y-15724460D01*
X7010658Y-15724460D02*
X7020182Y-15676841D01*
X7020182Y-15676841D02*
X7020182Y-15638746D01*
X7020182Y-15638746D02*
X7010658Y-15591127D01*
X7010658Y-15591127D02*
X7001134Y-15562555D01*
X7001134Y-15562555D02*
X6991611Y-15543508D01*
X6991611Y-15543508D02*
X6972563Y-15514936D01*
X6972563Y-15514936D02*
X6963039Y-15505412D01*
X7324944Y-15810174D02*
X7315420Y-15800650D01*
X7315420Y-15800650D02*
X7296372Y-15772079D01*
X7296372Y-15772079D02*
X7286849Y-15753031D01*
X7286849Y-15753031D02*
X7277325Y-15724460D01*
X7277325Y-15724460D02*
X7267801Y-15676841D01*
X7267801Y-15676841D02*
X7267801Y-15638746D01*
X7267801Y-15638746D02*
X7277325Y-15591127D01*
X7277325Y-15591127D02*
X7286849Y-15562555D01*
X7286849Y-15562555D02*
X7296372Y-15543508D01*
X7296372Y-15543508D02*
X7315420Y-15514936D01*
X7315420Y-15514936D02*
X7324944Y-15505412D01*
X7401134Y-15600650D02*
X7401134Y-15733984D01*
X7401134Y-15619698D02*
X7410658Y-15610174D01*
X7410658Y-15610174D02*
X7429706Y-15600650D01*
X7429706Y-15600650D02*
X7458277Y-15600650D01*
X7458277Y-15600650D02*
X7477325Y-15610174D01*
X7477325Y-15610174D02*
X7486849Y-15629222D01*
X7486849Y-15629222D02*
X7486849Y-15733984D01*
X7610658Y-15733984D02*
X7591611Y-15724460D01*
X7591611Y-15724460D02*
X7582087Y-15714936D01*
X7582087Y-15714936D02*
X7572563Y-15695888D01*
X7572563Y-15695888D02*
X7572563Y-15638746D01*
X7572563Y-15638746D02*
X7582087Y-15619698D01*
X7582087Y-15619698D02*
X7591611Y-15610174D01*
X7591611Y-15610174D02*
X7610658Y-15600650D01*
X7610658Y-15600650D02*
X7639230Y-15600650D01*
X7639230Y-15600650D02*
X7658277Y-15610174D01*
X7658277Y-15610174D02*
X7667801Y-15619698D01*
X7667801Y-15619698D02*
X7677325Y-15638746D01*
X7677325Y-15638746D02*
X7677325Y-15695888D01*
X7677325Y-15695888D02*
X7667801Y-15714936D01*
X7667801Y-15714936D02*
X7658277Y-15724460D01*
X7658277Y-15724460D02*
X7639230Y-15733984D01*
X7639230Y-15733984D02*
X7610658Y-15733984D01*
X7734468Y-15600650D02*
X7810658Y-15600650D01*
X7763039Y-15533984D02*
X7763039Y-15705412D01*
X7763039Y-15705412D02*
X7772563Y-15724460D01*
X7772563Y-15724460D02*
X7791611Y-15733984D01*
X7791611Y-15733984D02*
X7810658Y-15733984D01*
X8029706Y-15600650D02*
X8029706Y-15800650D01*
X8029706Y-15610174D02*
X8048753Y-15600650D01*
X8048753Y-15600650D02*
X8086849Y-15600650D01*
X8086849Y-15600650D02*
X8105896Y-15610174D01*
X8105896Y-15610174D02*
X8115420Y-15619698D01*
X8115420Y-15619698D02*
X8124944Y-15638746D01*
X8124944Y-15638746D02*
X8124944Y-15695888D01*
X8124944Y-15695888D02*
X8115420Y-15714936D01*
X8115420Y-15714936D02*
X8105896Y-15724460D01*
X8105896Y-15724460D02*
X8086849Y-15733984D01*
X8086849Y-15733984D02*
X8048753Y-15733984D01*
X8048753Y-15733984D02*
X8029706Y-15724460D01*
X8239230Y-15733984D02*
X8220182Y-15724460D01*
X8220182Y-15724460D02*
X8210658Y-15705412D01*
X8210658Y-15705412D02*
X8210658Y-15533984D01*
X8401135Y-15733984D02*
X8401135Y-15629222D01*
X8401135Y-15629222D02*
X8391611Y-15610174D01*
X8391611Y-15610174D02*
X8372563Y-15600650D01*
X8372563Y-15600650D02*
X8334468Y-15600650D01*
X8334468Y-15600650D02*
X8315420Y-15610174D01*
X8401135Y-15724460D02*
X8382087Y-15733984D01*
X8382087Y-15733984D02*
X8334468Y-15733984D01*
X8334468Y-15733984D02*
X8315420Y-15724460D01*
X8315420Y-15724460D02*
X8305896Y-15705412D01*
X8305896Y-15705412D02*
X8305896Y-15686365D01*
X8305896Y-15686365D02*
X8315420Y-15667317D01*
X8315420Y-15667317D02*
X8334468Y-15657793D01*
X8334468Y-15657793D02*
X8382087Y-15657793D01*
X8382087Y-15657793D02*
X8401135Y-15648269D01*
X8467801Y-15600650D02*
X8543992Y-15600650D01*
X8496373Y-15533984D02*
X8496373Y-15705412D01*
X8496373Y-15705412D02*
X8505896Y-15724460D01*
X8505896Y-15724460D02*
X8524944Y-15733984D01*
X8524944Y-15733984D02*
X8543992Y-15733984D01*
X8686849Y-15724460D02*
X8667801Y-15733984D01*
X8667801Y-15733984D02*
X8629706Y-15733984D01*
X8629706Y-15733984D02*
X8610658Y-15724460D01*
X8610658Y-15724460D02*
X8601135Y-15705412D01*
X8601135Y-15705412D02*
X8601135Y-15629222D01*
X8601135Y-15629222D02*
X8610658Y-15610174D01*
X8610658Y-15610174D02*
X8629706Y-15600650D01*
X8629706Y-15600650D02*
X8667801Y-15600650D01*
X8667801Y-15600650D02*
X8686849Y-15610174D01*
X8686849Y-15610174D02*
X8696373Y-15629222D01*
X8696373Y-15629222D02*
X8696373Y-15648269D01*
X8696373Y-15648269D02*
X8601135Y-15667317D01*
X8867801Y-15733984D02*
X8867801Y-15533984D01*
X8867801Y-15724460D02*
X8848754Y-15733984D01*
X8848754Y-15733984D02*
X8810658Y-15733984D01*
X8810658Y-15733984D02*
X8791611Y-15724460D01*
X8791611Y-15724460D02*
X8782087Y-15714936D01*
X8782087Y-15714936D02*
X8772563Y-15695888D01*
X8772563Y-15695888D02*
X8772563Y-15638746D01*
X8772563Y-15638746D02*
X8782087Y-15619698D01*
X8782087Y-15619698D02*
X8791611Y-15610174D01*
X8791611Y-15610174D02*
X8810658Y-15600650D01*
X8810658Y-15600650D02*
X8848754Y-15600650D01*
X8848754Y-15600650D02*
X8867801Y-15610174D01*
X8943992Y-15810174D02*
X8953516Y-15800650D01*
X8953516Y-15800650D02*
X8972563Y-15772079D01*
X8972563Y-15772079D02*
X8982087Y-15753031D01*
X8982087Y-15753031D02*
X8991611Y-15724460D01*
X8991611Y-15724460D02*
X9001135Y-15676841D01*
X9001135Y-15676841D02*
X9001135Y-15638746D01*
X9001135Y-15638746D02*
X8991611Y-15591127D01*
X8991611Y-15591127D02*
X8982087Y-15562555D01*
X8982087Y-15562555D02*
X8972563Y-15543508D01*
X8972563Y-15543508D02*
X8953516Y-15514936D01*
X8953516Y-15514936D02*
X8943992Y-15505412D01*
X1997500Y-15932500D02*
G75*
G02*
X1797500Y-15932500I-100000J0D01*
G01*
X1797500Y-15932500D02*
G75*
G02*
X1997500Y-15932500I100000J0D01*
G01*
X2239229Y-15823984D02*
X2363039Y-15823984D01*
X2363039Y-15823984D02*
X2296372Y-15900174D01*
X2296372Y-15900174D02*
X2324944Y-15900174D01*
X2324944Y-15900174D02*
X2343991Y-15909698D01*
X2343991Y-15909698D02*
X2353515Y-15919222D01*
X2353515Y-15919222D02*
X2363039Y-15938269D01*
X2363039Y-15938269D02*
X2363039Y-15985888D01*
X2363039Y-15985888D02*
X2353515Y-16004936D01*
X2353515Y-16004936D02*
X2343991Y-16014460D01*
X2343991Y-16014460D02*
X2324944Y-16023984D01*
X2324944Y-16023984D02*
X2267801Y-16023984D01*
X2267801Y-16023984D02*
X2248753Y-16014460D01*
X2248753Y-16014460D02*
X2239229Y-16004936D01*
X2448753Y-16004936D02*
X2458277Y-16014460D01*
X2458277Y-16014460D02*
X2448753Y-16023984D01*
X2448753Y-16023984D02*
X2439229Y-16014460D01*
X2439229Y-16014460D02*
X2448753Y-16004936D01*
X2448753Y-16004936D02*
X2448753Y-16023984D01*
X2534467Y-15843031D02*
X2543991Y-15833508D01*
X2543991Y-15833508D02*
X2563039Y-15823984D01*
X2563039Y-15823984D02*
X2610658Y-15823984D01*
X2610658Y-15823984D02*
X2629705Y-15833508D01*
X2629705Y-15833508D02*
X2639229Y-15843031D01*
X2639229Y-15843031D02*
X2648753Y-15862079D01*
X2648753Y-15862079D02*
X2648753Y-15881127D01*
X2648753Y-15881127D02*
X2639229Y-15909698D01*
X2639229Y-15909698D02*
X2524944Y-16023984D01*
X2524944Y-16023984D02*
X2648753Y-16023984D01*
X2772563Y-15823984D02*
X2791610Y-15823984D01*
X2791610Y-15823984D02*
X2810658Y-15833508D01*
X2810658Y-15833508D02*
X2820182Y-15843031D01*
X2820182Y-15843031D02*
X2829705Y-15862079D01*
X2829705Y-15862079D02*
X2839229Y-15900174D01*
X2839229Y-15900174D02*
X2839229Y-15947793D01*
X2839229Y-15947793D02*
X2829705Y-15985888D01*
X2829705Y-15985888D02*
X2820182Y-16004936D01*
X2820182Y-16004936D02*
X2810658Y-16014460D01*
X2810658Y-16014460D02*
X2791610Y-16023984D01*
X2791610Y-16023984D02*
X2772563Y-16023984D01*
X2772563Y-16023984D02*
X2753515Y-16014460D01*
X2753515Y-16014460D02*
X2743991Y-16004936D01*
X2743991Y-16004936D02*
X2734467Y-15985888D01*
X2734467Y-15985888D02*
X2724944Y-15947793D01*
X2724944Y-15947793D02*
X2724944Y-15900174D01*
X2724944Y-15900174D02*
X2734467Y-15862079D01*
X2734467Y-15862079D02*
X2743991Y-15843031D01*
X2743991Y-15843031D02*
X2753515Y-15833508D01*
X2753515Y-15833508D02*
X2772563Y-15823984D01*
X2963039Y-15823984D02*
X2982086Y-15823984D01*
X2982086Y-15823984D02*
X3001134Y-15833508D01*
X3001134Y-15833508D02*
X3010658Y-15843031D01*
X3010658Y-15843031D02*
X3020182Y-15862079D01*
X3020182Y-15862079D02*
X3029705Y-15900174D01*
X3029705Y-15900174D02*
X3029705Y-15947793D01*
X3029705Y-15947793D02*
X3020182Y-15985888D01*
X3020182Y-15985888D02*
X3010658Y-16004936D01*
X3010658Y-16004936D02*
X3001134Y-16014460D01*
X3001134Y-16014460D02*
X2982086Y-16023984D01*
X2982086Y-16023984D02*
X2963039Y-16023984D01*
X2963039Y-16023984D02*
X2943991Y-16014460D01*
X2943991Y-16014460D02*
X2934467Y-16004936D01*
X2934467Y-16004936D02*
X2924943Y-15985888D01*
X2924943Y-15985888D02*
X2915420Y-15947793D01*
X2915420Y-15947793D02*
X2915420Y-15900174D01*
X2915420Y-15900174D02*
X2924943Y-15862079D01*
X2924943Y-15862079D02*
X2934467Y-15843031D01*
X2934467Y-15843031D02*
X2943991Y-15833508D01*
X2943991Y-15833508D02*
X2963039Y-15823984D01*
X3115420Y-16023984D02*
X3115420Y-15890650D01*
X3115420Y-15909698D02*
X3124943Y-15900174D01*
X3124943Y-15900174D02*
X3143991Y-15890650D01*
X3143991Y-15890650D02*
X3172563Y-15890650D01*
X3172563Y-15890650D02*
X3191610Y-15900174D01*
X3191610Y-15900174D02*
X3201134Y-15919222D01*
X3201134Y-15919222D02*
X3201134Y-16023984D01*
X3201134Y-15919222D02*
X3210658Y-15900174D01*
X3210658Y-15900174D02*
X3229705Y-15890650D01*
X3229705Y-15890650D02*
X3258277Y-15890650D01*
X3258277Y-15890650D02*
X3277324Y-15900174D01*
X3277324Y-15900174D02*
X3286848Y-15919222D01*
X3286848Y-15919222D02*
X3286848Y-16023984D01*
X3382086Y-16023984D02*
X3382086Y-15890650D01*
X3382086Y-15909698D02*
X3391610Y-15900174D01*
X3391610Y-15900174D02*
X3410658Y-15890650D01*
X3410658Y-15890650D02*
X3439229Y-15890650D01*
X3439229Y-15890650D02*
X3458277Y-15900174D01*
X3458277Y-15900174D02*
X3467801Y-15919222D01*
X3467801Y-15919222D02*
X3467801Y-16023984D01*
X3467801Y-15919222D02*
X3477324Y-15900174D01*
X3477324Y-15900174D02*
X3496372Y-15890650D01*
X3496372Y-15890650D02*
X3524943Y-15890650D01*
X3524943Y-15890650D02*
X3543991Y-15900174D01*
X3543991Y-15900174D02*
X3553515Y-15919222D01*
X3553515Y-15919222D02*
X3553515Y-16023984D01*
X3943991Y-15814460D02*
X3772563Y-16071603D01*
X4201134Y-15823984D02*
X4220182Y-15823984D01*
X4220182Y-15823984D02*
X4239229Y-15833508D01*
X4239229Y-15833508D02*
X4248753Y-15843031D01*
X4248753Y-15843031D02*
X4258277Y-15862079D01*
X4258277Y-15862079D02*
X4267801Y-15900174D01*
X4267801Y-15900174D02*
X4267801Y-15947793D01*
X4267801Y-15947793D02*
X4258277Y-15985888D01*
X4258277Y-15985888D02*
X4248753Y-16004936D01*
X4248753Y-16004936D02*
X4239229Y-16014460D01*
X4239229Y-16014460D02*
X4220182Y-16023984D01*
X4220182Y-16023984D02*
X4201134Y-16023984D01*
X4201134Y-16023984D02*
X4182086Y-16014460D01*
X4182086Y-16014460D02*
X4172563Y-16004936D01*
X4172563Y-16004936D02*
X4163039Y-15985888D01*
X4163039Y-15985888D02*
X4153515Y-15947793D01*
X4153515Y-15947793D02*
X4153515Y-15900174D01*
X4153515Y-15900174D02*
X4163039Y-15862079D01*
X4163039Y-15862079D02*
X4172563Y-15843031D01*
X4172563Y-15843031D02*
X4182086Y-15833508D01*
X4182086Y-15833508D02*
X4201134Y-15823984D01*
X4353515Y-16004936D02*
X4363039Y-16014460D01*
X4363039Y-16014460D02*
X4353515Y-16023984D01*
X4353515Y-16023984D02*
X4343991Y-16014460D01*
X4343991Y-16014460D02*
X4353515Y-16004936D01*
X4353515Y-16004936D02*
X4353515Y-16023984D01*
X4553515Y-16023984D02*
X4439229Y-16023984D01*
X4496372Y-16023984D02*
X4496372Y-15823984D01*
X4496372Y-15823984D02*
X4477325Y-15852555D01*
X4477325Y-15852555D02*
X4458277Y-15871603D01*
X4458277Y-15871603D02*
X4439229Y-15881127D01*
X4629706Y-15843031D02*
X4639229Y-15833508D01*
X4639229Y-15833508D02*
X4658277Y-15823984D01*
X4658277Y-15823984D02*
X4705896Y-15823984D01*
X4705896Y-15823984D02*
X4724944Y-15833508D01*
X4724944Y-15833508D02*
X4734468Y-15843031D01*
X4734468Y-15843031D02*
X4743991Y-15862079D01*
X4743991Y-15862079D02*
X4743991Y-15881127D01*
X4743991Y-15881127D02*
X4734468Y-15909698D01*
X4734468Y-15909698D02*
X4620182Y-16023984D01*
X4620182Y-16023984D02*
X4743991Y-16023984D01*
X4915420Y-15823984D02*
X4877325Y-15823984D01*
X4877325Y-15823984D02*
X4858277Y-15833508D01*
X4858277Y-15833508D02*
X4848753Y-15843031D01*
X4848753Y-15843031D02*
X4829706Y-15871603D01*
X4829706Y-15871603D02*
X4820182Y-15909698D01*
X4820182Y-15909698D02*
X4820182Y-15985888D01*
X4820182Y-15985888D02*
X4829706Y-16004936D01*
X4829706Y-16004936D02*
X4839229Y-16014460D01*
X4839229Y-16014460D02*
X4858277Y-16023984D01*
X4858277Y-16023984D02*
X4896372Y-16023984D01*
X4896372Y-16023984D02*
X4915420Y-16014460D01*
X4915420Y-16014460D02*
X4924944Y-16004936D01*
X4924944Y-16004936D02*
X4934468Y-15985888D01*
X4934468Y-15985888D02*
X4934468Y-15938269D01*
X4934468Y-15938269D02*
X4924944Y-15919222D01*
X4924944Y-15919222D02*
X4915420Y-15909698D01*
X4915420Y-15909698D02*
X4896372Y-15900174D01*
X4896372Y-15900174D02*
X4858277Y-15900174D01*
X4858277Y-15900174D02*
X4839229Y-15909698D01*
X4839229Y-15909698D02*
X4829706Y-15919222D01*
X4829706Y-15919222D02*
X4820182Y-15938269D01*
X5058277Y-15823984D02*
X5077325Y-15823984D01*
X5077325Y-15823984D02*
X5096372Y-15833508D01*
X5096372Y-15833508D02*
X5105896Y-15843031D01*
X5105896Y-15843031D02*
X5115420Y-15862079D01*
X5115420Y-15862079D02*
X5124944Y-15900174D01*
X5124944Y-15900174D02*
X5124944Y-15947793D01*
X5124944Y-15947793D02*
X5115420Y-15985888D01*
X5115420Y-15985888D02*
X5105896Y-16004936D01*
X5105896Y-16004936D02*
X5096372Y-16014460D01*
X5096372Y-16014460D02*
X5077325Y-16023984D01*
X5077325Y-16023984D02*
X5058277Y-16023984D01*
X5058277Y-16023984D02*
X5039229Y-16014460D01*
X5039229Y-16014460D02*
X5029706Y-16004936D01*
X5029706Y-16004936D02*
X5020182Y-15985888D01*
X5020182Y-15985888D02*
X5010658Y-15947793D01*
X5010658Y-15947793D02*
X5010658Y-15900174D01*
X5010658Y-15900174D02*
X5020182Y-15862079D01*
X5020182Y-15862079D02*
X5029706Y-15843031D01*
X5029706Y-15843031D02*
X5039229Y-15833508D01*
X5039229Y-15833508D02*
X5058277Y-15823984D01*
X5201134Y-15823984D02*
X5201134Y-15862079D01*
X5277325Y-15823984D02*
X5277325Y-15862079D01*
X5572563Y-16100174D02*
X5563039Y-16090650D01*
X5563039Y-16090650D02*
X5543991Y-16062079D01*
X5543991Y-16062079D02*
X5534468Y-16043031D01*
X5534468Y-16043031D02*
X5524944Y-16014460D01*
X5524944Y-16014460D02*
X5515420Y-15966841D01*
X5515420Y-15966841D02*
X5515420Y-15928746D01*
X5515420Y-15928746D02*
X5524944Y-15881127D01*
X5524944Y-15881127D02*
X5534468Y-15852555D01*
X5534468Y-15852555D02*
X5543991Y-15833508D01*
X5543991Y-15833508D02*
X5563039Y-15804936D01*
X5563039Y-15804936D02*
X5572563Y-15795412D01*
X5734468Y-15823984D02*
X5696372Y-15823984D01*
X5696372Y-15823984D02*
X5677325Y-15833508D01*
X5677325Y-15833508D02*
X5667801Y-15843031D01*
X5667801Y-15843031D02*
X5648753Y-15871603D01*
X5648753Y-15871603D02*
X5639229Y-15909698D01*
X5639229Y-15909698D02*
X5639229Y-15985888D01*
X5639229Y-15985888D02*
X5648753Y-16004936D01*
X5648753Y-16004936D02*
X5658277Y-16014460D01*
X5658277Y-16014460D02*
X5677325Y-16023984D01*
X5677325Y-16023984D02*
X5715420Y-16023984D01*
X5715420Y-16023984D02*
X5734468Y-16014460D01*
X5734468Y-16014460D02*
X5743991Y-16004936D01*
X5743991Y-16004936D02*
X5753515Y-15985888D01*
X5753515Y-15985888D02*
X5753515Y-15938269D01*
X5753515Y-15938269D02*
X5743991Y-15919222D01*
X5743991Y-15919222D02*
X5734468Y-15909698D01*
X5734468Y-15909698D02*
X5715420Y-15900174D01*
X5715420Y-15900174D02*
X5677325Y-15900174D01*
X5677325Y-15900174D02*
X5658277Y-15909698D01*
X5658277Y-15909698D02*
X5648753Y-15919222D01*
X5648753Y-15919222D02*
X5639229Y-15938269D01*
X5991610Y-16023984D02*
X5991610Y-15823984D01*
X6077325Y-16023984D02*
X6077325Y-15919222D01*
X6077325Y-15919222D02*
X6067801Y-15900174D01*
X6067801Y-15900174D02*
X6048753Y-15890650D01*
X6048753Y-15890650D02*
X6020182Y-15890650D01*
X6020182Y-15890650D02*
X6001134Y-15900174D01*
X6001134Y-15900174D02*
X5991610Y-15909698D01*
X6201134Y-16023984D02*
X6182087Y-16014460D01*
X6182087Y-16014460D02*
X6172563Y-16004936D01*
X6172563Y-16004936D02*
X6163039Y-15985888D01*
X6163039Y-15985888D02*
X6163039Y-15928746D01*
X6163039Y-15928746D02*
X6172563Y-15909698D01*
X6172563Y-15909698D02*
X6182087Y-15900174D01*
X6182087Y-15900174D02*
X6201134Y-15890650D01*
X6201134Y-15890650D02*
X6229706Y-15890650D01*
X6229706Y-15890650D02*
X6248753Y-15900174D01*
X6248753Y-15900174D02*
X6258277Y-15909698D01*
X6258277Y-15909698D02*
X6267801Y-15928746D01*
X6267801Y-15928746D02*
X6267801Y-15985888D01*
X6267801Y-15985888D02*
X6258277Y-16004936D01*
X6258277Y-16004936D02*
X6248753Y-16014460D01*
X6248753Y-16014460D02*
X6229706Y-16023984D01*
X6229706Y-16023984D02*
X6201134Y-16023984D01*
X6382087Y-16023984D02*
X6363039Y-16014460D01*
X6363039Y-16014460D02*
X6353515Y-15995412D01*
X6353515Y-15995412D02*
X6353515Y-15823984D01*
X6534468Y-16014460D02*
X6515420Y-16023984D01*
X6515420Y-16023984D02*
X6477325Y-16023984D01*
X6477325Y-16023984D02*
X6458277Y-16014460D01*
X6458277Y-16014460D02*
X6448753Y-15995412D01*
X6448753Y-15995412D02*
X6448753Y-15919222D01*
X6448753Y-15919222D02*
X6458277Y-15900174D01*
X6458277Y-15900174D02*
X6477325Y-15890650D01*
X6477325Y-15890650D02*
X6515420Y-15890650D01*
X6515420Y-15890650D02*
X6534468Y-15900174D01*
X6534468Y-15900174D02*
X6543991Y-15919222D01*
X6543991Y-15919222D02*
X6543991Y-15938269D01*
X6543991Y-15938269D02*
X6448753Y-15957317D01*
X6620182Y-16014460D02*
X6639230Y-16023984D01*
X6639230Y-16023984D02*
X6677325Y-16023984D01*
X6677325Y-16023984D02*
X6696372Y-16014460D01*
X6696372Y-16014460D02*
X6705896Y-15995412D01*
X6705896Y-15995412D02*
X6705896Y-15985888D01*
X6705896Y-15985888D02*
X6696372Y-15966841D01*
X6696372Y-15966841D02*
X6677325Y-15957317D01*
X6677325Y-15957317D02*
X6648753Y-15957317D01*
X6648753Y-15957317D02*
X6629706Y-15947793D01*
X6629706Y-15947793D02*
X6620182Y-15928746D01*
X6620182Y-15928746D02*
X6620182Y-15919222D01*
X6620182Y-15919222D02*
X6629706Y-15900174D01*
X6629706Y-15900174D02*
X6648753Y-15890650D01*
X6648753Y-15890650D02*
X6677325Y-15890650D01*
X6677325Y-15890650D02*
X6696372Y-15900174D01*
X6772563Y-16100174D02*
X6782087Y-16090650D01*
X6782087Y-16090650D02*
X6801134Y-16062079D01*
X6801134Y-16062079D02*
X6810658Y-16043031D01*
X6810658Y-16043031D02*
X6820182Y-16014460D01*
X6820182Y-16014460D02*
X6829706Y-15966841D01*
X6829706Y-15966841D02*
X6829706Y-15928746D01*
X6829706Y-15928746D02*
X6820182Y-15881127D01*
X6820182Y-15881127D02*
X6810658Y-15852555D01*
X6810658Y-15852555D02*
X6801134Y-15833508D01*
X6801134Y-15833508D02*
X6782087Y-15804936D01*
X6782087Y-15804936D02*
X6772563Y-15795412D01*
X7134468Y-16100174D02*
X7124944Y-16090650D01*
X7124944Y-16090650D02*
X7105896Y-16062079D01*
X7105896Y-16062079D02*
X7096372Y-16043031D01*
X7096372Y-16043031D02*
X7086849Y-16014460D01*
X7086849Y-16014460D02*
X7077325Y-15966841D01*
X7077325Y-15966841D02*
X7077325Y-15928746D01*
X7077325Y-15928746D02*
X7086849Y-15881127D01*
X7086849Y-15881127D02*
X7096372Y-15852555D01*
X7096372Y-15852555D02*
X7105896Y-15833508D01*
X7105896Y-15833508D02*
X7124944Y-15804936D01*
X7124944Y-15804936D02*
X7134468Y-15795412D01*
X7210658Y-15890650D02*
X7210658Y-16023984D01*
X7210658Y-15909698D02*
X7220182Y-15900174D01*
X7220182Y-15900174D02*
X7239230Y-15890650D01*
X7239230Y-15890650D02*
X7267801Y-15890650D01*
X7267801Y-15890650D02*
X7286849Y-15900174D01*
X7286849Y-15900174D02*
X7296372Y-15919222D01*
X7296372Y-15919222D02*
X7296372Y-16023984D01*
X7420182Y-16023984D02*
X7401134Y-16014460D01*
X7401134Y-16014460D02*
X7391611Y-16004936D01*
X7391611Y-16004936D02*
X7382087Y-15985888D01*
X7382087Y-15985888D02*
X7382087Y-15928746D01*
X7382087Y-15928746D02*
X7391611Y-15909698D01*
X7391611Y-15909698D02*
X7401134Y-15900174D01*
X7401134Y-15900174D02*
X7420182Y-15890650D01*
X7420182Y-15890650D02*
X7448753Y-15890650D01*
X7448753Y-15890650D02*
X7467801Y-15900174D01*
X7467801Y-15900174D02*
X7477325Y-15909698D01*
X7477325Y-15909698D02*
X7486849Y-15928746D01*
X7486849Y-15928746D02*
X7486849Y-15985888D01*
X7486849Y-15985888D02*
X7477325Y-16004936D01*
X7477325Y-16004936D02*
X7467801Y-16014460D01*
X7467801Y-16014460D02*
X7448753Y-16023984D01*
X7448753Y-16023984D02*
X7420182Y-16023984D01*
X7543992Y-15890650D02*
X7620182Y-15890650D01*
X7572563Y-15823984D02*
X7572563Y-15995412D01*
X7572563Y-15995412D02*
X7582087Y-16014460D01*
X7582087Y-16014460D02*
X7601134Y-16023984D01*
X7601134Y-16023984D02*
X7620182Y-16023984D01*
X7839230Y-15890650D02*
X7839230Y-16090650D01*
X7839230Y-15900174D02*
X7858277Y-15890650D01*
X7858277Y-15890650D02*
X7896373Y-15890650D01*
X7896373Y-15890650D02*
X7915420Y-15900174D01*
X7915420Y-15900174D02*
X7924944Y-15909698D01*
X7924944Y-15909698D02*
X7934468Y-15928746D01*
X7934468Y-15928746D02*
X7934468Y-15985888D01*
X7934468Y-15985888D02*
X7924944Y-16004936D01*
X7924944Y-16004936D02*
X7915420Y-16014460D01*
X7915420Y-16014460D02*
X7896373Y-16023984D01*
X7896373Y-16023984D02*
X7858277Y-16023984D01*
X7858277Y-16023984D02*
X7839230Y-16014460D01*
X8048753Y-16023984D02*
X8029706Y-16014460D01*
X8029706Y-16014460D02*
X8020182Y-15995412D01*
X8020182Y-15995412D02*
X8020182Y-15823984D01*
X8210658Y-16023984D02*
X8210658Y-15919222D01*
X8210658Y-15919222D02*
X8201134Y-15900174D01*
X8201134Y-15900174D02*
X8182087Y-15890650D01*
X8182087Y-15890650D02*
X8143992Y-15890650D01*
X8143992Y-15890650D02*
X8124944Y-15900174D01*
X8210658Y-16014460D02*
X8191611Y-16023984D01*
X8191611Y-16023984D02*
X8143992Y-16023984D01*
X8143992Y-16023984D02*
X8124944Y-16014460D01*
X8124944Y-16014460D02*
X8115420Y-15995412D01*
X8115420Y-15995412D02*
X8115420Y-15976365D01*
X8115420Y-15976365D02*
X8124944Y-15957317D01*
X8124944Y-15957317D02*
X8143992Y-15947793D01*
X8143992Y-15947793D02*
X8191611Y-15947793D01*
X8191611Y-15947793D02*
X8210658Y-15938269D01*
X8277325Y-15890650D02*
X8353515Y-15890650D01*
X8305896Y-15823984D02*
X8305896Y-15995412D01*
X8305896Y-15995412D02*
X8315420Y-16014460D01*
X8315420Y-16014460D02*
X8334468Y-16023984D01*
X8334468Y-16023984D02*
X8353515Y-16023984D01*
X8496373Y-16014460D02*
X8477325Y-16023984D01*
X8477325Y-16023984D02*
X8439230Y-16023984D01*
X8439230Y-16023984D02*
X8420182Y-16014460D01*
X8420182Y-16014460D02*
X8410658Y-15995412D01*
X8410658Y-15995412D02*
X8410658Y-15919222D01*
X8410658Y-15919222D02*
X8420182Y-15900174D01*
X8420182Y-15900174D02*
X8439230Y-15890650D01*
X8439230Y-15890650D02*
X8477325Y-15890650D01*
X8477325Y-15890650D02*
X8496373Y-15900174D01*
X8496373Y-15900174D02*
X8505896Y-15919222D01*
X8505896Y-15919222D02*
X8505896Y-15938269D01*
X8505896Y-15938269D02*
X8410658Y-15957317D01*
X8677325Y-16023984D02*
X8677325Y-15823984D01*
X8677325Y-16014460D02*
X8658277Y-16023984D01*
X8658277Y-16023984D02*
X8620182Y-16023984D01*
X8620182Y-16023984D02*
X8601135Y-16014460D01*
X8601135Y-16014460D02*
X8591611Y-16004936D01*
X8591611Y-16004936D02*
X8582087Y-15985888D01*
X8582087Y-15985888D02*
X8582087Y-15928746D01*
X8582087Y-15928746D02*
X8591611Y-15909698D01*
X8591611Y-15909698D02*
X8601135Y-15900174D01*
X8601135Y-15900174D02*
X8620182Y-15890650D01*
X8620182Y-15890650D02*
X8658277Y-15890650D01*
X8658277Y-15890650D02*
X8677325Y-15900174D01*
X8753516Y-16100174D02*
X8763039Y-16090650D01*
X8763039Y-16090650D02*
X8782087Y-16062079D01*
X8782087Y-16062079D02*
X8791611Y-16043031D01*
X8791611Y-16043031D02*
X8801135Y-16014460D01*
X8801135Y-16014460D02*
X8810658Y-15966841D01*
X8810658Y-15966841D02*
X8810658Y-15928746D01*
X8810658Y-15928746D02*
X8801135Y-15881127D01*
X8801135Y-15881127D02*
X8791611Y-15852555D01*
X8791611Y-15852555D02*
X8782087Y-15833508D01*
X8782087Y-15833508D02*
X8763039Y-15804936D01*
X8763039Y-15804936D02*
X8753516Y-15795412D01*
X1897500Y-16152500D02*
X1897500Y-16352500D01*
X1797500Y-16252500D02*
X1997500Y-16252500D01*
X2239229Y-16143984D02*
X2363039Y-16143984D01*
X2363039Y-16143984D02*
X2296372Y-16220174D01*
X2296372Y-16220174D02*
X2324944Y-16220174D01*
X2324944Y-16220174D02*
X2343991Y-16229698D01*
X2343991Y-16229698D02*
X2353515Y-16239222D01*
X2353515Y-16239222D02*
X2363039Y-16258269D01*
X2363039Y-16258269D02*
X2363039Y-16305888D01*
X2363039Y-16305888D02*
X2353515Y-16324936D01*
X2353515Y-16324936D02*
X2343991Y-16334460D01*
X2343991Y-16334460D02*
X2324944Y-16343984D01*
X2324944Y-16343984D02*
X2267801Y-16343984D01*
X2267801Y-16343984D02*
X2248753Y-16334460D01*
X2248753Y-16334460D02*
X2239229Y-16324936D01*
X2448753Y-16324936D02*
X2458277Y-16334460D01*
X2458277Y-16334460D02*
X2448753Y-16343984D01*
X2448753Y-16343984D02*
X2439229Y-16334460D01*
X2439229Y-16334460D02*
X2448753Y-16324936D01*
X2448753Y-16324936D02*
X2448753Y-16343984D01*
X2553515Y-16343984D02*
X2591610Y-16343984D01*
X2591610Y-16343984D02*
X2610658Y-16334460D01*
X2610658Y-16334460D02*
X2620182Y-16324936D01*
X2620182Y-16324936D02*
X2639229Y-16296365D01*
X2639229Y-16296365D02*
X2648753Y-16258269D01*
X2648753Y-16258269D02*
X2648753Y-16182079D01*
X2648753Y-16182079D02*
X2639229Y-16163031D01*
X2639229Y-16163031D02*
X2629705Y-16153508D01*
X2629705Y-16153508D02*
X2610658Y-16143984D01*
X2610658Y-16143984D02*
X2572563Y-16143984D01*
X2572563Y-16143984D02*
X2553515Y-16153508D01*
X2553515Y-16153508D02*
X2543991Y-16163031D01*
X2543991Y-16163031D02*
X2534467Y-16182079D01*
X2534467Y-16182079D02*
X2534467Y-16229698D01*
X2534467Y-16229698D02*
X2543991Y-16248746D01*
X2543991Y-16248746D02*
X2553515Y-16258269D01*
X2553515Y-16258269D02*
X2572563Y-16267793D01*
X2572563Y-16267793D02*
X2610658Y-16267793D01*
X2610658Y-16267793D02*
X2629705Y-16258269D01*
X2629705Y-16258269D02*
X2639229Y-16248746D01*
X2639229Y-16248746D02*
X2648753Y-16229698D01*
X2763039Y-16229698D02*
X2743991Y-16220174D01*
X2743991Y-16220174D02*
X2734467Y-16210650D01*
X2734467Y-16210650D02*
X2724944Y-16191603D01*
X2724944Y-16191603D02*
X2724944Y-16182079D01*
X2724944Y-16182079D02*
X2734467Y-16163031D01*
X2734467Y-16163031D02*
X2743991Y-16153508D01*
X2743991Y-16153508D02*
X2763039Y-16143984D01*
X2763039Y-16143984D02*
X2801134Y-16143984D01*
X2801134Y-16143984D02*
X2820182Y-16153508D01*
X2820182Y-16153508D02*
X2829705Y-16163031D01*
X2829705Y-16163031D02*
X2839229Y-16182079D01*
X2839229Y-16182079D02*
X2839229Y-16191603D01*
X2839229Y-16191603D02*
X2829705Y-16210650D01*
X2829705Y-16210650D02*
X2820182Y-16220174D01*
X2820182Y-16220174D02*
X2801134Y-16229698D01*
X2801134Y-16229698D02*
X2763039Y-16229698D01*
X2763039Y-16229698D02*
X2743991Y-16239222D01*
X2743991Y-16239222D02*
X2734467Y-16248746D01*
X2734467Y-16248746D02*
X2724944Y-16267793D01*
X2724944Y-16267793D02*
X2724944Y-16305888D01*
X2724944Y-16305888D02*
X2734467Y-16324936D01*
X2734467Y-16324936D02*
X2743991Y-16334460D01*
X2743991Y-16334460D02*
X2763039Y-16343984D01*
X2763039Y-16343984D02*
X2801134Y-16343984D01*
X2801134Y-16343984D02*
X2820182Y-16334460D01*
X2820182Y-16334460D02*
X2829705Y-16324936D01*
X2829705Y-16324936D02*
X2839229Y-16305888D01*
X2839229Y-16305888D02*
X2839229Y-16267793D01*
X2839229Y-16267793D02*
X2829705Y-16248746D01*
X2829705Y-16248746D02*
X2820182Y-16239222D01*
X2820182Y-16239222D02*
X2801134Y-16229698D01*
X2953515Y-16229698D02*
X2934467Y-16220174D01*
X2934467Y-16220174D02*
X2924943Y-16210650D01*
X2924943Y-16210650D02*
X2915420Y-16191603D01*
X2915420Y-16191603D02*
X2915420Y-16182079D01*
X2915420Y-16182079D02*
X2924943Y-16163031D01*
X2924943Y-16163031D02*
X2934467Y-16153508D01*
X2934467Y-16153508D02*
X2953515Y-16143984D01*
X2953515Y-16143984D02*
X2991610Y-16143984D01*
X2991610Y-16143984D02*
X3010658Y-16153508D01*
X3010658Y-16153508D02*
X3020182Y-16163031D01*
X3020182Y-16163031D02*
X3029705Y-16182079D01*
X3029705Y-16182079D02*
X3029705Y-16191603D01*
X3029705Y-16191603D02*
X3020182Y-16210650D01*
X3020182Y-16210650D02*
X3010658Y-16220174D01*
X3010658Y-16220174D02*
X2991610Y-16229698D01*
X2991610Y-16229698D02*
X2953515Y-16229698D01*
X2953515Y-16229698D02*
X2934467Y-16239222D01*
X2934467Y-16239222D02*
X2924943Y-16248746D01*
X2924943Y-16248746D02*
X2915420Y-16267793D01*
X2915420Y-16267793D02*
X2915420Y-16305888D01*
X2915420Y-16305888D02*
X2924943Y-16324936D01*
X2924943Y-16324936D02*
X2934467Y-16334460D01*
X2934467Y-16334460D02*
X2953515Y-16343984D01*
X2953515Y-16343984D02*
X2991610Y-16343984D01*
X2991610Y-16343984D02*
X3010658Y-16334460D01*
X3010658Y-16334460D02*
X3020182Y-16324936D01*
X3020182Y-16324936D02*
X3029705Y-16305888D01*
X3029705Y-16305888D02*
X3029705Y-16267793D01*
X3029705Y-16267793D02*
X3020182Y-16248746D01*
X3020182Y-16248746D02*
X3010658Y-16239222D01*
X3010658Y-16239222D02*
X2991610Y-16229698D01*
X3115420Y-16343984D02*
X3115420Y-16210650D01*
X3115420Y-16229698D02*
X3124943Y-16220174D01*
X3124943Y-16220174D02*
X3143991Y-16210650D01*
X3143991Y-16210650D02*
X3172563Y-16210650D01*
X3172563Y-16210650D02*
X3191610Y-16220174D01*
X3191610Y-16220174D02*
X3201134Y-16239222D01*
X3201134Y-16239222D02*
X3201134Y-16343984D01*
X3201134Y-16239222D02*
X3210658Y-16220174D01*
X3210658Y-16220174D02*
X3229705Y-16210650D01*
X3229705Y-16210650D02*
X3258277Y-16210650D01*
X3258277Y-16210650D02*
X3277324Y-16220174D01*
X3277324Y-16220174D02*
X3286848Y-16239222D01*
X3286848Y-16239222D02*
X3286848Y-16343984D01*
X3382086Y-16343984D02*
X3382086Y-16210650D01*
X3382086Y-16229698D02*
X3391610Y-16220174D01*
X3391610Y-16220174D02*
X3410658Y-16210650D01*
X3410658Y-16210650D02*
X3439229Y-16210650D01*
X3439229Y-16210650D02*
X3458277Y-16220174D01*
X3458277Y-16220174D02*
X3467801Y-16239222D01*
X3467801Y-16239222D02*
X3467801Y-16343984D01*
X3467801Y-16239222D02*
X3477324Y-16220174D01*
X3477324Y-16220174D02*
X3496372Y-16210650D01*
X3496372Y-16210650D02*
X3524943Y-16210650D01*
X3524943Y-16210650D02*
X3543991Y-16220174D01*
X3543991Y-16220174D02*
X3553515Y-16239222D01*
X3553515Y-16239222D02*
X3553515Y-16343984D01*
X3943991Y-16134460D02*
X3772563Y-16391603D01*
X4201134Y-16143984D02*
X4220182Y-16143984D01*
X4220182Y-16143984D02*
X4239229Y-16153508D01*
X4239229Y-16153508D02*
X4248753Y-16163031D01*
X4248753Y-16163031D02*
X4258277Y-16182079D01*
X4258277Y-16182079D02*
X4267801Y-16220174D01*
X4267801Y-16220174D02*
X4267801Y-16267793D01*
X4267801Y-16267793D02*
X4258277Y-16305888D01*
X4258277Y-16305888D02*
X4248753Y-16324936D01*
X4248753Y-16324936D02*
X4239229Y-16334460D01*
X4239229Y-16334460D02*
X4220182Y-16343984D01*
X4220182Y-16343984D02*
X4201134Y-16343984D01*
X4201134Y-16343984D02*
X4182086Y-16334460D01*
X4182086Y-16334460D02*
X4172563Y-16324936D01*
X4172563Y-16324936D02*
X4163039Y-16305888D01*
X4163039Y-16305888D02*
X4153515Y-16267793D01*
X4153515Y-16267793D02*
X4153515Y-16220174D01*
X4153515Y-16220174D02*
X4163039Y-16182079D01*
X4163039Y-16182079D02*
X4172563Y-16163031D01*
X4172563Y-16163031D02*
X4182086Y-16153508D01*
X4182086Y-16153508D02*
X4201134Y-16143984D01*
X4353515Y-16324936D02*
X4363039Y-16334460D01*
X4363039Y-16334460D02*
X4353515Y-16343984D01*
X4353515Y-16343984D02*
X4343991Y-16334460D01*
X4343991Y-16334460D02*
X4353515Y-16324936D01*
X4353515Y-16324936D02*
X4353515Y-16343984D01*
X4553515Y-16343984D02*
X4439229Y-16343984D01*
X4496372Y-16343984D02*
X4496372Y-16143984D01*
X4496372Y-16143984D02*
X4477325Y-16172555D01*
X4477325Y-16172555D02*
X4458277Y-16191603D01*
X4458277Y-16191603D02*
X4439229Y-16201127D01*
X4734468Y-16143984D02*
X4639229Y-16143984D01*
X4639229Y-16143984D02*
X4629706Y-16239222D01*
X4629706Y-16239222D02*
X4639229Y-16229698D01*
X4639229Y-16229698D02*
X4658277Y-16220174D01*
X4658277Y-16220174D02*
X4705896Y-16220174D01*
X4705896Y-16220174D02*
X4724944Y-16229698D01*
X4724944Y-16229698D02*
X4734468Y-16239222D01*
X4734468Y-16239222D02*
X4743991Y-16258269D01*
X4743991Y-16258269D02*
X4743991Y-16305888D01*
X4743991Y-16305888D02*
X4734468Y-16324936D01*
X4734468Y-16324936D02*
X4724944Y-16334460D01*
X4724944Y-16334460D02*
X4705896Y-16343984D01*
X4705896Y-16343984D02*
X4658277Y-16343984D01*
X4658277Y-16343984D02*
X4639229Y-16334460D01*
X4639229Y-16334460D02*
X4629706Y-16324936D01*
X4810658Y-16143984D02*
X4943991Y-16143984D01*
X4943991Y-16143984D02*
X4858277Y-16343984D01*
X5058277Y-16143984D02*
X5077325Y-16143984D01*
X5077325Y-16143984D02*
X5096372Y-16153508D01*
X5096372Y-16153508D02*
X5105896Y-16163031D01*
X5105896Y-16163031D02*
X5115420Y-16182079D01*
X5115420Y-16182079D02*
X5124944Y-16220174D01*
X5124944Y-16220174D02*
X5124944Y-16267793D01*
X5124944Y-16267793D02*
X5115420Y-16305888D01*
X5115420Y-16305888D02*
X5105896Y-16324936D01*
X5105896Y-16324936D02*
X5096372Y-16334460D01*
X5096372Y-16334460D02*
X5077325Y-16343984D01*
X5077325Y-16343984D02*
X5058277Y-16343984D01*
X5058277Y-16343984D02*
X5039229Y-16334460D01*
X5039229Y-16334460D02*
X5029706Y-16324936D01*
X5029706Y-16324936D02*
X5020182Y-16305888D01*
X5020182Y-16305888D02*
X5010658Y-16267793D01*
X5010658Y-16267793D02*
X5010658Y-16220174D01*
X5010658Y-16220174D02*
X5020182Y-16182079D01*
X5020182Y-16182079D02*
X5029706Y-16163031D01*
X5029706Y-16163031D02*
X5039229Y-16153508D01*
X5039229Y-16153508D02*
X5058277Y-16143984D01*
X5201134Y-16143984D02*
X5201134Y-16182079D01*
X5277325Y-16143984D02*
X5277325Y-16182079D01*
X5572563Y-16420174D02*
X5563039Y-16410650D01*
X5563039Y-16410650D02*
X5543991Y-16382079D01*
X5543991Y-16382079D02*
X5534468Y-16363031D01*
X5534468Y-16363031D02*
X5524944Y-16334460D01*
X5524944Y-16334460D02*
X5515420Y-16286841D01*
X5515420Y-16286841D02*
X5515420Y-16248746D01*
X5515420Y-16248746D02*
X5524944Y-16201127D01*
X5524944Y-16201127D02*
X5534468Y-16172555D01*
X5534468Y-16172555D02*
X5543991Y-16153508D01*
X5543991Y-16153508D02*
X5563039Y-16124936D01*
X5563039Y-16124936D02*
X5572563Y-16115412D01*
X5639229Y-16163031D02*
X5648753Y-16153508D01*
X5648753Y-16153508D02*
X5667801Y-16143984D01*
X5667801Y-16143984D02*
X5715420Y-16143984D01*
X5715420Y-16143984D02*
X5734468Y-16153508D01*
X5734468Y-16153508D02*
X5743991Y-16163031D01*
X5743991Y-16163031D02*
X5753515Y-16182079D01*
X5753515Y-16182079D02*
X5753515Y-16201127D01*
X5753515Y-16201127D02*
X5743991Y-16229698D01*
X5743991Y-16229698D02*
X5629706Y-16343984D01*
X5629706Y-16343984D02*
X5753515Y-16343984D01*
X5877325Y-16143984D02*
X5896372Y-16143984D01*
X5896372Y-16143984D02*
X5915420Y-16153508D01*
X5915420Y-16153508D02*
X5924944Y-16163031D01*
X5924944Y-16163031D02*
X5934468Y-16182079D01*
X5934468Y-16182079D02*
X5943991Y-16220174D01*
X5943991Y-16220174D02*
X5943991Y-16267793D01*
X5943991Y-16267793D02*
X5934468Y-16305888D01*
X5934468Y-16305888D02*
X5924944Y-16324936D01*
X5924944Y-16324936D02*
X5915420Y-16334460D01*
X5915420Y-16334460D02*
X5896372Y-16343984D01*
X5896372Y-16343984D02*
X5877325Y-16343984D01*
X5877325Y-16343984D02*
X5858277Y-16334460D01*
X5858277Y-16334460D02*
X5848753Y-16324936D01*
X5848753Y-16324936D02*
X5839229Y-16305888D01*
X5839229Y-16305888D02*
X5829706Y-16267793D01*
X5829706Y-16267793D02*
X5829706Y-16220174D01*
X5829706Y-16220174D02*
X5839229Y-16182079D01*
X5839229Y-16182079D02*
X5848753Y-16163031D01*
X5848753Y-16163031D02*
X5858277Y-16153508D01*
X5858277Y-16153508D02*
X5877325Y-16143984D01*
X6182087Y-16343984D02*
X6182087Y-16143984D01*
X6267801Y-16343984D02*
X6267801Y-16239222D01*
X6267801Y-16239222D02*
X6258277Y-16220174D01*
X6258277Y-16220174D02*
X6239230Y-16210650D01*
X6239230Y-16210650D02*
X6210658Y-16210650D01*
X6210658Y-16210650D02*
X6191610Y-16220174D01*
X6191610Y-16220174D02*
X6182087Y-16229698D01*
X6391610Y-16343984D02*
X6372563Y-16334460D01*
X6372563Y-16334460D02*
X6363039Y-16324936D01*
X6363039Y-16324936D02*
X6353515Y-16305888D01*
X6353515Y-16305888D02*
X6353515Y-16248746D01*
X6353515Y-16248746D02*
X6363039Y-16229698D01*
X6363039Y-16229698D02*
X6372563Y-16220174D01*
X6372563Y-16220174D02*
X6391610Y-16210650D01*
X6391610Y-16210650D02*
X6420182Y-16210650D01*
X6420182Y-16210650D02*
X6439230Y-16220174D01*
X6439230Y-16220174D02*
X6448753Y-16229698D01*
X6448753Y-16229698D02*
X6458277Y-16248746D01*
X6458277Y-16248746D02*
X6458277Y-16305888D01*
X6458277Y-16305888D02*
X6448753Y-16324936D01*
X6448753Y-16324936D02*
X6439230Y-16334460D01*
X6439230Y-16334460D02*
X6420182Y-16343984D01*
X6420182Y-16343984D02*
X6391610Y-16343984D01*
X6572563Y-16343984D02*
X6553515Y-16334460D01*
X6553515Y-16334460D02*
X6543991Y-16315412D01*
X6543991Y-16315412D02*
X6543991Y-16143984D01*
X6724944Y-16334460D02*
X6705896Y-16343984D01*
X6705896Y-16343984D02*
X6667801Y-16343984D01*
X6667801Y-16343984D02*
X6648753Y-16334460D01*
X6648753Y-16334460D02*
X6639230Y-16315412D01*
X6639230Y-16315412D02*
X6639230Y-16239222D01*
X6639230Y-16239222D02*
X6648753Y-16220174D01*
X6648753Y-16220174D02*
X6667801Y-16210650D01*
X6667801Y-16210650D02*
X6705896Y-16210650D01*
X6705896Y-16210650D02*
X6724944Y-16220174D01*
X6724944Y-16220174D02*
X6734468Y-16239222D01*
X6734468Y-16239222D02*
X6734468Y-16258269D01*
X6734468Y-16258269D02*
X6639230Y-16277317D01*
X6810658Y-16334460D02*
X6829706Y-16343984D01*
X6829706Y-16343984D02*
X6867801Y-16343984D01*
X6867801Y-16343984D02*
X6886849Y-16334460D01*
X6886849Y-16334460D02*
X6896372Y-16315412D01*
X6896372Y-16315412D02*
X6896372Y-16305888D01*
X6896372Y-16305888D02*
X6886849Y-16286841D01*
X6886849Y-16286841D02*
X6867801Y-16277317D01*
X6867801Y-16277317D02*
X6839230Y-16277317D01*
X6839230Y-16277317D02*
X6820182Y-16267793D01*
X6820182Y-16267793D02*
X6810658Y-16248746D01*
X6810658Y-16248746D02*
X6810658Y-16239222D01*
X6810658Y-16239222D02*
X6820182Y-16220174D01*
X6820182Y-16220174D02*
X6839230Y-16210650D01*
X6839230Y-16210650D02*
X6867801Y-16210650D01*
X6867801Y-16210650D02*
X6886849Y-16220174D01*
X6963039Y-16420174D02*
X6972563Y-16410650D01*
X6972563Y-16410650D02*
X6991611Y-16382079D01*
X6991611Y-16382079D02*
X7001134Y-16363031D01*
X7001134Y-16363031D02*
X7010658Y-16334460D01*
X7010658Y-16334460D02*
X7020182Y-16286841D01*
X7020182Y-16286841D02*
X7020182Y-16248746D01*
X7020182Y-16248746D02*
X7010658Y-16201127D01*
X7010658Y-16201127D02*
X7001134Y-16172555D01*
X7001134Y-16172555D02*
X6991611Y-16153508D01*
X6991611Y-16153508D02*
X6972563Y-16124936D01*
X6972563Y-16124936D02*
X6963039Y-16115412D01*
X7324944Y-16420174D02*
X7315420Y-16410650D01*
X7315420Y-16410650D02*
X7296372Y-16382079D01*
X7296372Y-16382079D02*
X7286849Y-16363031D01*
X7286849Y-16363031D02*
X7277325Y-16334460D01*
X7277325Y-16334460D02*
X7267801Y-16286841D01*
X7267801Y-16286841D02*
X7267801Y-16248746D01*
X7267801Y-16248746D02*
X7277325Y-16201127D01*
X7277325Y-16201127D02*
X7286849Y-16172555D01*
X7286849Y-16172555D02*
X7296372Y-16153508D01*
X7296372Y-16153508D02*
X7315420Y-16124936D01*
X7315420Y-16124936D02*
X7324944Y-16115412D01*
X7401134Y-16210650D02*
X7401134Y-16343984D01*
X7401134Y-16229698D02*
X7410658Y-16220174D01*
X7410658Y-16220174D02*
X7429706Y-16210650D01*
X7429706Y-16210650D02*
X7458277Y-16210650D01*
X7458277Y-16210650D02*
X7477325Y-16220174D01*
X7477325Y-16220174D02*
X7486849Y-16239222D01*
X7486849Y-16239222D02*
X7486849Y-16343984D01*
X7610658Y-16343984D02*
X7591611Y-16334460D01*
X7591611Y-16334460D02*
X7582087Y-16324936D01*
X7582087Y-16324936D02*
X7572563Y-16305888D01*
X7572563Y-16305888D02*
X7572563Y-16248746D01*
X7572563Y-16248746D02*
X7582087Y-16229698D01*
X7582087Y-16229698D02*
X7591611Y-16220174D01*
X7591611Y-16220174D02*
X7610658Y-16210650D01*
X7610658Y-16210650D02*
X7639230Y-16210650D01*
X7639230Y-16210650D02*
X7658277Y-16220174D01*
X7658277Y-16220174D02*
X7667801Y-16229698D01*
X7667801Y-16229698D02*
X7677325Y-16248746D01*
X7677325Y-16248746D02*
X7677325Y-16305888D01*
X7677325Y-16305888D02*
X7667801Y-16324936D01*
X7667801Y-16324936D02*
X7658277Y-16334460D01*
X7658277Y-16334460D02*
X7639230Y-16343984D01*
X7639230Y-16343984D02*
X7610658Y-16343984D01*
X7734468Y-16210650D02*
X7810658Y-16210650D01*
X7763039Y-16143984D02*
X7763039Y-16315412D01*
X7763039Y-16315412D02*
X7772563Y-16334460D01*
X7772563Y-16334460D02*
X7791611Y-16343984D01*
X7791611Y-16343984D02*
X7810658Y-16343984D01*
X8029706Y-16210650D02*
X8029706Y-16410650D01*
X8029706Y-16220174D02*
X8048753Y-16210650D01*
X8048753Y-16210650D02*
X8086849Y-16210650D01*
X8086849Y-16210650D02*
X8105896Y-16220174D01*
X8105896Y-16220174D02*
X8115420Y-16229698D01*
X8115420Y-16229698D02*
X8124944Y-16248746D01*
X8124944Y-16248746D02*
X8124944Y-16305888D01*
X8124944Y-16305888D02*
X8115420Y-16324936D01*
X8115420Y-16324936D02*
X8105896Y-16334460D01*
X8105896Y-16334460D02*
X8086849Y-16343984D01*
X8086849Y-16343984D02*
X8048753Y-16343984D01*
X8048753Y-16343984D02*
X8029706Y-16334460D01*
X8239230Y-16343984D02*
X8220182Y-16334460D01*
X8220182Y-16334460D02*
X8210658Y-16315412D01*
X8210658Y-16315412D02*
X8210658Y-16143984D01*
X8401135Y-16343984D02*
X8401135Y-16239222D01*
X8401135Y-16239222D02*
X8391611Y-16220174D01*
X8391611Y-16220174D02*
X8372563Y-16210650D01*
X8372563Y-16210650D02*
X8334468Y-16210650D01*
X8334468Y-16210650D02*
X8315420Y-16220174D01*
X8401135Y-16334460D02*
X8382087Y-16343984D01*
X8382087Y-16343984D02*
X8334468Y-16343984D01*
X8334468Y-16343984D02*
X8315420Y-16334460D01*
X8315420Y-16334460D02*
X8305896Y-16315412D01*
X8305896Y-16315412D02*
X8305896Y-16296365D01*
X8305896Y-16296365D02*
X8315420Y-16277317D01*
X8315420Y-16277317D02*
X8334468Y-16267793D01*
X8334468Y-16267793D02*
X8382087Y-16267793D01*
X8382087Y-16267793D02*
X8401135Y-16258269D01*
X8467801Y-16210650D02*
X8543992Y-16210650D01*
X8496373Y-16143984D02*
X8496373Y-16315412D01*
X8496373Y-16315412D02*
X8505896Y-16334460D01*
X8505896Y-16334460D02*
X8524944Y-16343984D01*
X8524944Y-16343984D02*
X8543992Y-16343984D01*
X8686849Y-16334460D02*
X8667801Y-16343984D01*
X8667801Y-16343984D02*
X8629706Y-16343984D01*
X8629706Y-16343984D02*
X8610658Y-16334460D01*
X8610658Y-16334460D02*
X8601135Y-16315412D01*
X8601135Y-16315412D02*
X8601135Y-16239222D01*
X8601135Y-16239222D02*
X8610658Y-16220174D01*
X8610658Y-16220174D02*
X8629706Y-16210650D01*
X8629706Y-16210650D02*
X8667801Y-16210650D01*
X8667801Y-16210650D02*
X8686849Y-16220174D01*
X8686849Y-16220174D02*
X8696373Y-16239222D01*
X8696373Y-16239222D02*
X8696373Y-16258269D01*
X8696373Y-16258269D02*
X8601135Y-16277317D01*
X8867801Y-16343984D02*
X8867801Y-16143984D01*
X8867801Y-16334460D02*
X8848754Y-16343984D01*
X8848754Y-16343984D02*
X8810658Y-16343984D01*
X8810658Y-16343984D02*
X8791611Y-16334460D01*
X8791611Y-16334460D02*
X8782087Y-16324936D01*
X8782087Y-16324936D02*
X8772563Y-16305888D01*
X8772563Y-16305888D02*
X8772563Y-16248746D01*
X8772563Y-16248746D02*
X8782087Y-16229698D01*
X8782087Y-16229698D02*
X8791611Y-16220174D01*
X8791611Y-16220174D02*
X8810658Y-16210650D01*
X8810658Y-16210650D02*
X8848754Y-16210650D01*
X8848754Y-16210650D02*
X8867801Y-16220174D01*
X8943992Y-16420174D02*
X8953516Y-16410650D01*
X8953516Y-16410650D02*
X8972563Y-16382079D01*
X8972563Y-16382079D02*
X8982087Y-16363031D01*
X8982087Y-16363031D02*
X8991611Y-16334460D01*
X8991611Y-16334460D02*
X9001135Y-16286841D01*
X9001135Y-16286841D02*
X9001135Y-16248746D01*
X9001135Y-16248746D02*
X8991611Y-16201127D01*
X8991611Y-16201127D02*
X8982087Y-16172555D01*
X8982087Y-16172555D02*
X8972563Y-16153508D01*
X8972563Y-16153508D02*
X8953516Y-16124936D01*
X8953516Y-16124936D02*
X8943992Y-16115412D01*
M02*
