M48
; DRILL file {KiCad 8.0.4} date 2024-09-22T20:29:33+0200
; FORMAT={-:-/ absolute / metric / decimal}
; #@! TF.CreationDate,2024-09-22T20:29:33+02:00
; #@! TF.GenerationSoftware,Kicad,Pcbnew,8.0.4
; #@! TF.FileFunction,Plated,1,2,PTH
FMAT,2
METRIC
; #@! TA.AperFunction,Plated,PTH,ComponentDrill
T1C0.250
; #@! TA.AperFunction,Plated,PTH,ViaDrill
T2C0.300
; #@! TA.AperFunction,Plated,PTH,ComponentDrill
T3C1.000
; #@! TA.AperFunction,Plated,PTH,ComponentDrill
T4C1.100
; #@! TA.AperFunction,Plated,PTH,ComponentDrill
T5C1.500
%
G90
G05
T1
X190.0Y-100.55
X191.0Y-100.55
T2
X106.0Y-100.0
X111.0Y-93.0
X111.0Y-96.0
X112.0Y-80.0
X114.0Y-107.0
X115.0Y-87.0
X120.0Y-82.45
X120.0Y-96.0
X122.0Y-96.25
X122.0Y-107.0
X123.0Y-101.25
X124.0Y-107.0
X124.2Y-105.6
X124.5Y-102.75
X131.0Y-88.0
X132.0Y-80.0
X135.0Y-100.0
X136.8Y-101.8
X140.5Y-92.5
X140.5Y-97.0
X142.25Y-91.5
X145.0Y-97.95
X149.53Y-98.47
X151.0Y-80.0
X151.0Y-88.0
X153.0Y-107.0
X153.25Y-99.25
X154.0Y-97.0
X154.0Y-101.0
X159.0Y-101.0
X159.25Y-97.25
X164.0Y-106.5
X165.0Y-84.0
X165.0Y-95.25
X170.0Y-88.0
X173.0Y-80.0
X173.0Y-95.75
X173.5Y-103.75
X173.5Y-106.75
X174.25Y-107.5
X175.25Y-95.25
X177.2Y-103.6
X177.5Y-93.25
X177.75Y-98.25
X178.75Y-103.5
X179.0Y-84.0
X179.05Y-91.0
X180.5Y-102.25
X181.25Y-102.75
X181.75Y-103.75
X182.0Y-107.75
X182.25Y-95.75
X182.4Y-101.6
X183.0Y-88.0
X184.5Y-99.0
X184.5Y-101.25
X184.5Y-103.5
X186.0Y-92.0
X188.5Y-93.5
X188.5Y-98.5
X189.0Y-80.0
X189.0Y-103.5
X190.2Y-89.0
X190.8Y-96.0
X191.35Y-102.4
X192.0Y-86.2
X192.125Y-102.875
X194.0Y-97.0
X196.0Y-107.0
T3
X109.0Y-107.0
X111.54Y-107.0
X117.0Y-107.0
X119.54Y-107.0
X126.67Y-104.46
X126.67Y-107.0
X129.21Y-104.46
X129.21Y-107.0
X131.75Y-104.46
X131.75Y-107.0
X134.29Y-104.46
X134.29Y-107.0
X136.83Y-104.46
X136.83Y-107.0
X139.37Y-104.46
X139.37Y-107.0
X141.91Y-104.46
X141.91Y-107.0
X144.45Y-104.46
X144.45Y-107.0
X146.99Y-104.46
X146.99Y-107.0
X149.53Y-104.46
X149.53Y-107.0
X156.445Y-106.5
X158.985Y-106.5
X161.525Y-106.5
X166.46Y-106.5
X169.0Y-106.5
X171.54Y-106.5
T4
X188.2Y-106.5
X193.0Y-106.5
T5
X107.0Y-81.25
X107.0Y-85.0
X107.0Y-92.5
X194.5Y-81.25
X194.5Y-85.0
X194.5Y-88.75
X194.5Y-92.5
M30
