G04 #@! TF.GenerationSoftware,KiCad,Pcbnew,8.0.4*
G04 #@! TF.CreationDate,2024-09-22T20:29:30+02:00*
G04 #@! TF.ProjectId,Fader_Single,46616465-725f-4536-996e-676c652e6b69,rev?*
G04 #@! TF.SameCoordinates,Original*
G04 #@! TF.FileFunction,Legend,Bot*
G04 #@! TF.FilePolarity,Positive*
%FSLAX46Y46*%
G04 Gerber Fmt 4.6, Leading zero omitted, Abs format (unit mm)*
G04 Created by KiCad (PCBNEW 8.0.4) date 2024-09-22 20:29:30*
%MOMM*%
%LPD*%
G01*
G04 APERTURE LIST*
G04 Aperture macros list*
%AMRoundRect*
0 Rectangle with rounded corners*
0 $1 Rounding radius*
0 $2 $3 $4 $5 $6 $7 $8 $9 X,Y pos of 4 corners*
0 Add a 4 corners polygon primitive as box body*
4,1,4,$2,$3,$4,$5,$6,$7,$8,$9,$2,$3,0*
0 Add four circle primitives for the rounded corners*
1,1,$1+$1,$2,$3*
1,1,$1+$1,$4,$5*
1,1,$1+$1,$6,$7*
1,1,$1+$1,$8,$9*
0 Add four rect primitives between the rounded corners*
20,1,$1+$1,$2,$3,$4,$5,0*
20,1,$1+$1,$4,$5,$6,$7,0*
20,1,$1+$1,$6,$7,$8,$9,0*
20,1,$1+$1,$8,$9,$2,$3,0*%
G04 Aperture macros list end*
%ADD10RoundRect,0.250001X-0.899999X-0.899999X0.899999X-0.899999X0.899999X0.899999X-0.899999X0.899999X0*%
%ADD11C,2.300000*%
%ADD12R,1.700000X1.700000*%
%ADD13O,1.700000X1.700000*%
%ADD14C,3.000000*%
%ADD15C,2.000000*%
G04 APERTURE END LIST*
%LPC*%
D10*
X188200000Y-106500000D03*
D11*
X193000000Y-106500000D03*
D12*
X149530000Y-104460000D03*
D13*
X149530000Y-107000000D03*
X146990000Y-104460000D03*
X146990000Y-107000000D03*
X144450000Y-104460000D03*
X144450000Y-107000000D03*
X141910000Y-104460000D03*
X141910000Y-107000000D03*
X139370000Y-104460000D03*
X139370000Y-107000000D03*
X136830000Y-104460000D03*
X136830000Y-107000000D03*
X134290000Y-104460000D03*
X134290000Y-107000000D03*
X131750000Y-104460000D03*
X131750000Y-107000000D03*
X129210000Y-104460000D03*
X129210000Y-107000000D03*
X126670000Y-104460000D03*
X126670000Y-107000000D03*
D12*
X156445000Y-106500000D03*
D13*
X158985000Y-106500000D03*
X161525000Y-106500000D03*
D12*
X166460000Y-106500000D03*
D13*
X169000000Y-106500000D03*
X171540000Y-106500000D03*
D12*
X117000000Y-107000000D03*
D13*
X119540000Y-107000000D03*
D12*
X109000000Y-107000000D03*
D13*
X111540000Y-107000000D03*
D14*
X107000000Y-85000000D03*
X107000000Y-92500000D03*
X107000000Y-81250000D03*
X194500000Y-92500000D03*
X194500000Y-81250000D03*
X194500000Y-88750000D03*
X194500000Y-85000000D03*
D15*
X176600000Y-86875000D03*
X124900000Y-86875000D03*
%LPD*%
M02*
