G04 #@! TF.GenerationSoftware,KiCad,Pcbnew,8.0.4*
G04 #@! TF.CreationDate,2024-09-22T20:29:30+02:00*
G04 #@! TF.ProjectId,Fader_Single,46616465-725f-4536-996e-676c652e6b69,rev?*
G04 #@! TF.SameCoordinates,Original*
G04 #@! TF.FileFunction,Legend,Top*
G04 #@! TF.FilePolarity,Positive*
%FSLAX46Y46*%
G04 Gerber Fmt 4.6, Leading zero omitted, Abs format (unit mm)*
G04 Created by KiCad (PCBNEW 8.0.4) date 2024-09-22 20:29:30*
%MOMM*%
%LPD*%
G01*
G04 APERTURE LIST*
G04 Aperture macros list*
%AMRoundRect*
0 Rectangle with rounded corners*
0 $1 Rounding radius*
0 $2 $3 $4 $5 $6 $7 $8 $9 X,Y pos of 4 corners*
0 Add a 4 corners polygon primitive as box body*
4,1,4,$2,$3,$4,$5,$6,$7,$8,$9,$2,$3,0*
0 Add four circle primitives for the rounded corners*
1,1,$1+$1,$2,$3*
1,1,$1+$1,$4,$5*
1,1,$1+$1,$6,$7*
1,1,$1+$1,$8,$9*
0 Add four rect primitives between the rounded corners*
20,1,$1+$1,$2,$3,$4,$5,0*
20,1,$1+$1,$4,$5,$6,$7,0*
20,1,$1+$1,$6,$7,$8,$9,0*
20,1,$1+$1,$8,$9,$2,$3,0*%
G04 Aperture macros list end*
%ADD10C,0.150000*%
%ADD11C,0.120000*%
%ADD12C,0.100000*%
%ADD13RoundRect,0.100000X0.100000X-0.637500X0.100000X0.637500X-0.100000X0.637500X-0.100000X-0.637500X0*%
%ADD14RoundRect,0.250000X0.850000X0.350000X-0.850000X0.350000X-0.850000X-0.350000X0.850000X-0.350000X0*%
%ADD15RoundRect,0.249997X2.950003X2.650003X-2.950003X2.650003X-2.950003X-2.650003X2.950003X-2.650003X0*%
%ADD16RoundRect,0.375000X0.625000X0.375000X-0.625000X0.375000X-0.625000X-0.375000X0.625000X-0.375000X0*%
%ADD17RoundRect,0.500000X0.500000X1.400000X-0.500000X1.400000X-0.500000X-1.400000X0.500000X-1.400000X0*%
%ADD18RoundRect,0.062500X0.062500X-0.187500X0.062500X0.187500X-0.062500X0.187500X-0.062500X-0.187500X0*%
%ADD19R,1.600000X0.900000*%
%ADD20RoundRect,0.250000X0.262500X0.450000X-0.262500X0.450000X-0.262500X-0.450000X0.262500X-0.450000X0*%
%ADD21RoundRect,0.250000X-0.450000X0.262500X-0.450000X-0.262500X0.450000X-0.262500X0.450000X0.262500X0*%
%ADD22RoundRect,0.250001X-0.899999X-0.899999X0.899999X-0.899999X0.899999X0.899999X-0.899999X0.899999X0*%
%ADD23C,2.300000*%
%ADD24R,1.700000X1.700000*%
%ADD25O,1.700000X1.700000*%
%ADD26RoundRect,0.250000X-0.475000X0.250000X-0.475000X-0.250000X0.475000X-0.250000X0.475000X0.250000X0*%
%ADD27RoundRect,0.250000X-0.250000X-0.475000X0.250000X-0.475000X0.250000X0.475000X-0.250000X0.475000X0*%
%ADD28RoundRect,0.250000X0.250000X0.475000X-0.250000X0.475000X-0.250000X-0.475000X0.250000X-0.475000X0*%
%ADD29C,3.000000*%
%ADD30C,2.000000*%
G04 APERTURE END LIST*
D10*
X161610588Y-103417438D02*
X161515350Y-103369819D01*
X161515350Y-103369819D02*
X161372493Y-103369819D01*
X161372493Y-103369819D02*
X161229636Y-103417438D01*
X161229636Y-103417438D02*
X161134398Y-103512676D01*
X161134398Y-103512676D02*
X161086779Y-103607914D01*
X161086779Y-103607914D02*
X161039160Y-103798390D01*
X161039160Y-103798390D02*
X161039160Y-103941247D01*
X161039160Y-103941247D02*
X161086779Y-104131723D01*
X161086779Y-104131723D02*
X161134398Y-104226961D01*
X161134398Y-104226961D02*
X161229636Y-104322200D01*
X161229636Y-104322200D02*
X161372493Y-104369819D01*
X161372493Y-104369819D02*
X161467731Y-104369819D01*
X161467731Y-104369819D02*
X161610588Y-104322200D01*
X161610588Y-104322200D02*
X161658207Y-104274580D01*
X161658207Y-104274580D02*
X161658207Y-103941247D01*
X161658207Y-103941247D02*
X161467731Y-103941247D01*
X162086779Y-104369819D02*
X162086779Y-103369819D01*
X162086779Y-103369819D02*
X162658207Y-104369819D01*
X162658207Y-104369819D02*
X162658207Y-103369819D01*
X163134398Y-104369819D02*
X163134398Y-103369819D01*
X163134398Y-103369819D02*
X163372493Y-103369819D01*
X163372493Y-103369819D02*
X163515350Y-103417438D01*
X163515350Y-103417438D02*
X163610588Y-103512676D01*
X163610588Y-103512676D02*
X163658207Y-103607914D01*
X163658207Y-103607914D02*
X163705826Y-103798390D01*
X163705826Y-103798390D02*
X163705826Y-103941247D01*
X163705826Y-103941247D02*
X163658207Y-104131723D01*
X163658207Y-104131723D02*
X163610588Y-104226961D01*
X163610588Y-104226961D02*
X163515350Y-104322200D01*
X163515350Y-104322200D02*
X163372493Y-104369819D01*
X163372493Y-104369819D02*
X163134398Y-104369819D01*
X158039160Y-104322200D02*
X158182017Y-104369819D01*
X158182017Y-104369819D02*
X158420112Y-104369819D01*
X158420112Y-104369819D02*
X158515350Y-104322200D01*
X158515350Y-104322200D02*
X158562969Y-104274580D01*
X158562969Y-104274580D02*
X158610588Y-104179342D01*
X158610588Y-104179342D02*
X158610588Y-104084104D01*
X158610588Y-104084104D02*
X158562969Y-103988866D01*
X158562969Y-103988866D02*
X158515350Y-103941247D01*
X158515350Y-103941247D02*
X158420112Y-103893628D01*
X158420112Y-103893628D02*
X158229636Y-103846009D01*
X158229636Y-103846009D02*
X158134398Y-103798390D01*
X158134398Y-103798390D02*
X158086779Y-103750771D01*
X158086779Y-103750771D02*
X158039160Y-103655533D01*
X158039160Y-103655533D02*
X158039160Y-103560295D01*
X158039160Y-103560295D02*
X158086779Y-103465057D01*
X158086779Y-103465057D02*
X158134398Y-103417438D01*
X158134398Y-103417438D02*
X158229636Y-103369819D01*
X158229636Y-103369819D02*
X158467731Y-103369819D01*
X158467731Y-103369819D02*
X158610588Y-103417438D01*
X159610588Y-104274580D02*
X159562969Y-104322200D01*
X159562969Y-104322200D02*
X159420112Y-104369819D01*
X159420112Y-104369819D02*
X159324874Y-104369819D01*
X159324874Y-104369819D02*
X159182017Y-104322200D01*
X159182017Y-104322200D02*
X159086779Y-104226961D01*
X159086779Y-104226961D02*
X159039160Y-104131723D01*
X159039160Y-104131723D02*
X158991541Y-103941247D01*
X158991541Y-103941247D02*
X158991541Y-103798390D01*
X158991541Y-103798390D02*
X159039160Y-103607914D01*
X159039160Y-103607914D02*
X159086779Y-103512676D01*
X159086779Y-103512676D02*
X159182017Y-103417438D01*
X159182017Y-103417438D02*
X159324874Y-103369819D01*
X159324874Y-103369819D02*
X159420112Y-103369819D01*
X159420112Y-103369819D02*
X159562969Y-103417438D01*
X159562969Y-103417438D02*
X159610588Y-103465057D01*
X160515350Y-104369819D02*
X160039160Y-104369819D01*
X160039160Y-104369819D02*
X160039160Y-103369819D01*
X154789160Y-104322200D02*
X154932017Y-104369819D01*
X154932017Y-104369819D02*
X155170112Y-104369819D01*
X155170112Y-104369819D02*
X155265350Y-104322200D01*
X155265350Y-104322200D02*
X155312969Y-104274580D01*
X155312969Y-104274580D02*
X155360588Y-104179342D01*
X155360588Y-104179342D02*
X155360588Y-104084104D01*
X155360588Y-104084104D02*
X155312969Y-103988866D01*
X155312969Y-103988866D02*
X155265350Y-103941247D01*
X155265350Y-103941247D02*
X155170112Y-103893628D01*
X155170112Y-103893628D02*
X154979636Y-103846009D01*
X154979636Y-103846009D02*
X154884398Y-103798390D01*
X154884398Y-103798390D02*
X154836779Y-103750771D01*
X154836779Y-103750771D02*
X154789160Y-103655533D01*
X154789160Y-103655533D02*
X154789160Y-103560295D01*
X154789160Y-103560295D02*
X154836779Y-103465057D01*
X154836779Y-103465057D02*
X154884398Y-103417438D01*
X154884398Y-103417438D02*
X154979636Y-103369819D01*
X154979636Y-103369819D02*
X155217731Y-103369819D01*
X155217731Y-103369819D02*
X155360588Y-103417438D01*
X155789160Y-104369819D02*
X155789160Y-103369819D01*
X155789160Y-103369819D02*
X156027255Y-103369819D01*
X156027255Y-103369819D02*
X156170112Y-103417438D01*
X156170112Y-103417438D02*
X156265350Y-103512676D01*
X156265350Y-103512676D02*
X156312969Y-103607914D01*
X156312969Y-103607914D02*
X156360588Y-103798390D01*
X156360588Y-103798390D02*
X156360588Y-103941247D01*
X156360588Y-103941247D02*
X156312969Y-104131723D01*
X156312969Y-104131723D02*
X156265350Y-104226961D01*
X156265350Y-104226961D02*
X156170112Y-104322200D01*
X156170112Y-104322200D02*
X156027255Y-104369819D01*
X156027255Y-104369819D02*
X155789160Y-104369819D01*
X156741541Y-104084104D02*
X157217731Y-104084104D01*
X156646303Y-104369819D02*
X156979636Y-103369819D01*
X156979636Y-103369819D02*
X157312969Y-104369819D01*
X116110588Y-104869819D02*
X115539160Y-104869819D01*
X115824874Y-104869819D02*
X115824874Y-103869819D01*
X115824874Y-103869819D02*
X115729636Y-104012676D01*
X115729636Y-104012676D02*
X115634398Y-104107914D01*
X115634398Y-104107914D02*
X115539160Y-104155533D01*
X116491541Y-103965057D02*
X116539160Y-103917438D01*
X116539160Y-103917438D02*
X116634398Y-103869819D01*
X116634398Y-103869819D02*
X116872493Y-103869819D01*
X116872493Y-103869819D02*
X116967731Y-103917438D01*
X116967731Y-103917438D02*
X117015350Y-103965057D01*
X117015350Y-103965057D02*
X117062969Y-104060295D01*
X117062969Y-104060295D02*
X117062969Y-104155533D01*
X117062969Y-104155533D02*
X117015350Y-104298390D01*
X117015350Y-104298390D02*
X116443922Y-104869819D01*
X116443922Y-104869819D02*
X117062969Y-104869819D01*
X117348684Y-103869819D02*
X117682017Y-104869819D01*
X117682017Y-104869819D02*
X118015350Y-103869819D01*
X119110588Y-103917438D02*
X119015350Y-103869819D01*
X119015350Y-103869819D02*
X118872493Y-103869819D01*
X118872493Y-103869819D02*
X118729636Y-103917438D01*
X118729636Y-103917438D02*
X118634398Y-104012676D01*
X118634398Y-104012676D02*
X118586779Y-104107914D01*
X118586779Y-104107914D02*
X118539160Y-104298390D01*
X118539160Y-104298390D02*
X118539160Y-104441247D01*
X118539160Y-104441247D02*
X118586779Y-104631723D01*
X118586779Y-104631723D02*
X118634398Y-104726961D01*
X118634398Y-104726961D02*
X118729636Y-104822200D01*
X118729636Y-104822200D02*
X118872493Y-104869819D01*
X118872493Y-104869819D02*
X118967731Y-104869819D01*
X118967731Y-104869819D02*
X119110588Y-104822200D01*
X119110588Y-104822200D02*
X119158207Y-104774580D01*
X119158207Y-104774580D02*
X119158207Y-104441247D01*
X119158207Y-104441247D02*
X118967731Y-104441247D01*
X119586779Y-104869819D02*
X119586779Y-103869819D01*
X119586779Y-103869819D02*
X120158207Y-104869819D01*
X120158207Y-104869819D02*
X120158207Y-103869819D01*
X120634398Y-104869819D02*
X120634398Y-103869819D01*
X120634398Y-103869819D02*
X120872493Y-103869819D01*
X120872493Y-103869819D02*
X121015350Y-103917438D01*
X121015350Y-103917438D02*
X121110588Y-104012676D01*
X121110588Y-104012676D02*
X121158207Y-104107914D01*
X121158207Y-104107914D02*
X121205826Y-104298390D01*
X121205826Y-104298390D02*
X121205826Y-104441247D01*
X121205826Y-104441247D02*
X121158207Y-104631723D01*
X121158207Y-104631723D02*
X121110588Y-104726961D01*
X121110588Y-104726961D02*
X121015350Y-104822200D01*
X121015350Y-104822200D02*
X120872493Y-104869819D01*
X120872493Y-104869819D02*
X120634398Y-104869819D01*
X111110588Y-103917438D02*
X111015350Y-103869819D01*
X111015350Y-103869819D02*
X110872493Y-103869819D01*
X110872493Y-103869819D02*
X110729636Y-103917438D01*
X110729636Y-103917438D02*
X110634398Y-104012676D01*
X110634398Y-104012676D02*
X110586779Y-104107914D01*
X110586779Y-104107914D02*
X110539160Y-104298390D01*
X110539160Y-104298390D02*
X110539160Y-104441247D01*
X110539160Y-104441247D02*
X110586779Y-104631723D01*
X110586779Y-104631723D02*
X110634398Y-104726961D01*
X110634398Y-104726961D02*
X110729636Y-104822200D01*
X110729636Y-104822200D02*
X110872493Y-104869819D01*
X110872493Y-104869819D02*
X110967731Y-104869819D01*
X110967731Y-104869819D02*
X111110588Y-104822200D01*
X111110588Y-104822200D02*
X111158207Y-104774580D01*
X111158207Y-104774580D02*
X111158207Y-104441247D01*
X111158207Y-104441247D02*
X110967731Y-104441247D01*
X111586779Y-104869819D02*
X111586779Y-103869819D01*
X111586779Y-103869819D02*
X112158207Y-104869819D01*
X112158207Y-104869819D02*
X112158207Y-103869819D01*
X112634398Y-104869819D02*
X112634398Y-103869819D01*
X112634398Y-103869819D02*
X112872493Y-103869819D01*
X112872493Y-103869819D02*
X113015350Y-103917438D01*
X113015350Y-103917438D02*
X113110588Y-104012676D01*
X113110588Y-104012676D02*
X113158207Y-104107914D01*
X113158207Y-104107914D02*
X113205826Y-104298390D01*
X113205826Y-104298390D02*
X113205826Y-104441247D01*
X113205826Y-104441247D02*
X113158207Y-104631723D01*
X113158207Y-104631723D02*
X113110588Y-104726961D01*
X113110588Y-104726961D02*
X113015350Y-104822200D01*
X113015350Y-104822200D02*
X112872493Y-104869819D01*
X112872493Y-104869819D02*
X112634398Y-104869819D01*
X108110588Y-104869819D02*
X107539160Y-104869819D01*
X107824874Y-104869819D02*
X107824874Y-103869819D01*
X107824874Y-103869819D02*
X107729636Y-104012676D01*
X107729636Y-104012676D02*
X107634398Y-104107914D01*
X107634398Y-104107914D02*
X107539160Y-104155533D01*
X108491541Y-103965057D02*
X108539160Y-103917438D01*
X108539160Y-103917438D02*
X108634398Y-103869819D01*
X108634398Y-103869819D02*
X108872493Y-103869819D01*
X108872493Y-103869819D02*
X108967731Y-103917438D01*
X108967731Y-103917438D02*
X109015350Y-103965057D01*
X109015350Y-103965057D02*
X109062969Y-104060295D01*
X109062969Y-104060295D02*
X109062969Y-104155533D01*
X109062969Y-104155533D02*
X109015350Y-104298390D01*
X109015350Y-104298390D02*
X108443922Y-104869819D01*
X108443922Y-104869819D02*
X109062969Y-104869819D01*
X109348684Y-103869819D02*
X109682017Y-104869819D01*
X109682017Y-104869819D02*
X110015350Y-103869819D01*
X125158207Y-97054692D02*
X125110588Y-97102312D01*
X125110588Y-97102312D02*
X124967731Y-97149931D01*
X124967731Y-97149931D02*
X124872493Y-97149931D01*
X124872493Y-97149931D02*
X124729636Y-97102312D01*
X124729636Y-97102312D02*
X124634398Y-97007073D01*
X124634398Y-97007073D02*
X124586779Y-96911835D01*
X124586779Y-96911835D02*
X124539160Y-96721359D01*
X124539160Y-96721359D02*
X124539160Y-96578502D01*
X124539160Y-96578502D02*
X124586779Y-96388026D01*
X124586779Y-96388026D02*
X124634398Y-96292788D01*
X124634398Y-96292788D02*
X124729636Y-96197550D01*
X124729636Y-96197550D02*
X124872493Y-96149931D01*
X124872493Y-96149931D02*
X124967731Y-96149931D01*
X124967731Y-96149931D02*
X125110588Y-96197550D01*
X125110588Y-96197550D02*
X125158207Y-96245169D01*
X125729636Y-97149931D02*
X125634398Y-97102312D01*
X125634398Y-97102312D02*
X125586779Y-97054692D01*
X125586779Y-97054692D02*
X125539160Y-96959454D01*
X125539160Y-96959454D02*
X125539160Y-96673740D01*
X125539160Y-96673740D02*
X125586779Y-96578502D01*
X125586779Y-96578502D02*
X125634398Y-96530883D01*
X125634398Y-96530883D02*
X125729636Y-96483264D01*
X125729636Y-96483264D02*
X125872493Y-96483264D01*
X125872493Y-96483264D02*
X125967731Y-96530883D01*
X125967731Y-96530883D02*
X126015350Y-96578502D01*
X126015350Y-96578502D02*
X126062969Y-96673740D01*
X126062969Y-96673740D02*
X126062969Y-96959454D01*
X126062969Y-96959454D02*
X126015350Y-97054692D01*
X126015350Y-97054692D02*
X125967731Y-97102312D01*
X125967731Y-97102312D02*
X125872493Y-97149931D01*
X125872493Y-97149931D02*
X125729636Y-97149931D01*
X126491541Y-96483264D02*
X126491541Y-97149931D01*
X126491541Y-96578502D02*
X126539160Y-96530883D01*
X126539160Y-96530883D02*
X126634398Y-96483264D01*
X126634398Y-96483264D02*
X126777255Y-96483264D01*
X126777255Y-96483264D02*
X126872493Y-96530883D01*
X126872493Y-96530883D02*
X126920112Y-96626121D01*
X126920112Y-96626121D02*
X126920112Y-97149931D01*
X127348684Y-97102312D02*
X127443922Y-97149931D01*
X127443922Y-97149931D02*
X127634398Y-97149931D01*
X127634398Y-97149931D02*
X127729636Y-97102312D01*
X127729636Y-97102312D02*
X127777255Y-97007073D01*
X127777255Y-97007073D02*
X127777255Y-96959454D01*
X127777255Y-96959454D02*
X127729636Y-96864216D01*
X127729636Y-96864216D02*
X127634398Y-96816597D01*
X127634398Y-96816597D02*
X127491541Y-96816597D01*
X127491541Y-96816597D02*
X127396303Y-96768978D01*
X127396303Y-96768978D02*
X127348684Y-96673740D01*
X127348684Y-96673740D02*
X127348684Y-96626121D01*
X127348684Y-96626121D02*
X127396303Y-96530883D01*
X127396303Y-96530883D02*
X127491541Y-96483264D01*
X127491541Y-96483264D02*
X127634398Y-96483264D01*
X127634398Y-96483264D02*
X127729636Y-96530883D01*
X128348684Y-97149931D02*
X128253446Y-97102312D01*
X128253446Y-97102312D02*
X128205827Y-97054692D01*
X128205827Y-97054692D02*
X128158208Y-96959454D01*
X128158208Y-96959454D02*
X128158208Y-96673740D01*
X128158208Y-96673740D02*
X128205827Y-96578502D01*
X128205827Y-96578502D02*
X128253446Y-96530883D01*
X128253446Y-96530883D02*
X128348684Y-96483264D01*
X128348684Y-96483264D02*
X128491541Y-96483264D01*
X128491541Y-96483264D02*
X128586779Y-96530883D01*
X128586779Y-96530883D02*
X128634398Y-96578502D01*
X128634398Y-96578502D02*
X128682017Y-96673740D01*
X128682017Y-96673740D02*
X128682017Y-96959454D01*
X128682017Y-96959454D02*
X128634398Y-97054692D01*
X128634398Y-97054692D02*
X128586779Y-97102312D01*
X128586779Y-97102312D02*
X128491541Y-97149931D01*
X128491541Y-97149931D02*
X128348684Y-97149931D01*
X129253446Y-97149931D02*
X129158208Y-97102312D01*
X129158208Y-97102312D02*
X129110589Y-97007073D01*
X129110589Y-97007073D02*
X129110589Y-96149931D01*
X130015351Y-97102312D02*
X129920113Y-97149931D01*
X129920113Y-97149931D02*
X129729637Y-97149931D01*
X129729637Y-97149931D02*
X129634399Y-97102312D01*
X129634399Y-97102312D02*
X129586780Y-97007073D01*
X129586780Y-97007073D02*
X129586780Y-96626121D01*
X129586780Y-96626121D02*
X129634399Y-96530883D01*
X129634399Y-96530883D02*
X129729637Y-96483264D01*
X129729637Y-96483264D02*
X129920113Y-96483264D01*
X129920113Y-96483264D02*
X130015351Y-96530883D01*
X130015351Y-96530883D02*
X130062970Y-96626121D01*
X130062970Y-96626121D02*
X130062970Y-96721359D01*
X130062970Y-96721359D02*
X129586780Y-96816597D01*
X131158209Y-96483264D02*
X131396304Y-97149931D01*
X131396304Y-97149931D02*
X131634399Y-96483264D01*
X131967733Y-96245169D02*
X132015352Y-96197550D01*
X132015352Y-96197550D02*
X132110590Y-96149931D01*
X132110590Y-96149931D02*
X132348685Y-96149931D01*
X132348685Y-96149931D02*
X132443923Y-96197550D01*
X132443923Y-96197550D02*
X132491542Y-96245169D01*
X132491542Y-96245169D02*
X132539161Y-96340407D01*
X132539161Y-96340407D02*
X132539161Y-96435645D01*
X132539161Y-96435645D02*
X132491542Y-96578502D01*
X132491542Y-96578502D02*
X131920114Y-97149931D01*
X131920114Y-97149931D02*
X132539161Y-97149931D01*
X132967733Y-97054692D02*
X133015352Y-97102312D01*
X133015352Y-97102312D02*
X132967733Y-97149931D01*
X132967733Y-97149931D02*
X132920114Y-97102312D01*
X132920114Y-97102312D02*
X132967733Y-97054692D01*
X132967733Y-97054692D02*
X132967733Y-97149931D01*
X133634399Y-96149931D02*
X133729637Y-96149931D01*
X133729637Y-96149931D02*
X133824875Y-96197550D01*
X133824875Y-96197550D02*
X133872494Y-96245169D01*
X133872494Y-96245169D02*
X133920113Y-96340407D01*
X133920113Y-96340407D02*
X133967732Y-96530883D01*
X133967732Y-96530883D02*
X133967732Y-96768978D01*
X133967732Y-96768978D02*
X133920113Y-96959454D01*
X133920113Y-96959454D02*
X133872494Y-97054692D01*
X133872494Y-97054692D02*
X133824875Y-97102312D01*
X133824875Y-97102312D02*
X133729637Y-97149931D01*
X133729637Y-97149931D02*
X133634399Y-97149931D01*
X133634399Y-97149931D02*
X133539161Y-97102312D01*
X133539161Y-97102312D02*
X133491542Y-97054692D01*
X133491542Y-97054692D02*
X133443923Y-96959454D01*
X133443923Y-96959454D02*
X133396304Y-96768978D01*
X133396304Y-96768978D02*
X133396304Y-96530883D01*
X133396304Y-96530883D02*
X133443923Y-96340407D01*
X133443923Y-96340407D02*
X133491542Y-96245169D01*
X133491542Y-96245169D02*
X133539161Y-96197550D01*
X133539161Y-96197550D02*
X133634399Y-96149931D01*
X124586779Y-98759875D02*
X124586779Y-97759875D01*
X124586779Y-97759875D02*
X124920112Y-98474160D01*
X124920112Y-98474160D02*
X125253445Y-97759875D01*
X125253445Y-97759875D02*
X125253445Y-98759875D01*
X125872493Y-98759875D02*
X125777255Y-98712256D01*
X125777255Y-98712256D02*
X125729636Y-98664636D01*
X125729636Y-98664636D02*
X125682017Y-98569398D01*
X125682017Y-98569398D02*
X125682017Y-98283684D01*
X125682017Y-98283684D02*
X125729636Y-98188446D01*
X125729636Y-98188446D02*
X125777255Y-98140827D01*
X125777255Y-98140827D02*
X125872493Y-98093208D01*
X125872493Y-98093208D02*
X126015350Y-98093208D01*
X126015350Y-98093208D02*
X126110588Y-98140827D01*
X126110588Y-98140827D02*
X126158207Y-98188446D01*
X126158207Y-98188446D02*
X126205826Y-98283684D01*
X126205826Y-98283684D02*
X126205826Y-98569398D01*
X126205826Y-98569398D02*
X126158207Y-98664636D01*
X126158207Y-98664636D02*
X126110588Y-98712256D01*
X126110588Y-98712256D02*
X126015350Y-98759875D01*
X126015350Y-98759875D02*
X125872493Y-98759875D01*
X126491541Y-98093208D02*
X126872493Y-98093208D01*
X126634398Y-97759875D02*
X126634398Y-98617017D01*
X126634398Y-98617017D02*
X126682017Y-98712256D01*
X126682017Y-98712256D02*
X126777255Y-98759875D01*
X126777255Y-98759875D02*
X126872493Y-98759875D01*
X127348684Y-98759875D02*
X127253446Y-98712256D01*
X127253446Y-98712256D02*
X127205827Y-98664636D01*
X127205827Y-98664636D02*
X127158208Y-98569398D01*
X127158208Y-98569398D02*
X127158208Y-98283684D01*
X127158208Y-98283684D02*
X127205827Y-98188446D01*
X127205827Y-98188446D02*
X127253446Y-98140827D01*
X127253446Y-98140827D02*
X127348684Y-98093208D01*
X127348684Y-98093208D02*
X127491541Y-98093208D01*
X127491541Y-98093208D02*
X127586779Y-98140827D01*
X127586779Y-98140827D02*
X127634398Y-98188446D01*
X127634398Y-98188446D02*
X127682017Y-98283684D01*
X127682017Y-98283684D02*
X127682017Y-98569398D01*
X127682017Y-98569398D02*
X127634398Y-98664636D01*
X127634398Y-98664636D02*
X127586779Y-98712256D01*
X127586779Y-98712256D02*
X127491541Y-98759875D01*
X127491541Y-98759875D02*
X127348684Y-98759875D01*
X128110589Y-98759875D02*
X128110589Y-98093208D01*
X128110589Y-98283684D02*
X128158208Y-98188446D01*
X128158208Y-98188446D02*
X128205827Y-98140827D01*
X128205827Y-98140827D02*
X128301065Y-98093208D01*
X128301065Y-98093208D02*
X128396303Y-98093208D01*
X128586780Y-98093208D02*
X128967732Y-98093208D01*
X128729637Y-98759875D02*
X128729637Y-97902732D01*
X128729637Y-97902732D02*
X128777256Y-97807494D01*
X128777256Y-97807494D02*
X128872494Y-97759875D01*
X128872494Y-97759875D02*
X128967732Y-97759875D01*
X129729637Y-98759875D02*
X129729637Y-98236065D01*
X129729637Y-98236065D02*
X129682018Y-98140827D01*
X129682018Y-98140827D02*
X129586780Y-98093208D01*
X129586780Y-98093208D02*
X129396304Y-98093208D01*
X129396304Y-98093208D02*
X129301066Y-98140827D01*
X129729637Y-98712256D02*
X129634399Y-98759875D01*
X129634399Y-98759875D02*
X129396304Y-98759875D01*
X129396304Y-98759875D02*
X129301066Y-98712256D01*
X129301066Y-98712256D02*
X129253447Y-98617017D01*
X129253447Y-98617017D02*
X129253447Y-98521779D01*
X129253447Y-98521779D02*
X129301066Y-98426541D01*
X129301066Y-98426541D02*
X129396304Y-98378922D01*
X129396304Y-98378922D02*
X129634399Y-98378922D01*
X129634399Y-98378922D02*
X129729637Y-98331303D01*
X130634399Y-98759875D02*
X130634399Y-97759875D01*
X130634399Y-98712256D02*
X130539161Y-98759875D01*
X130539161Y-98759875D02*
X130348685Y-98759875D01*
X130348685Y-98759875D02*
X130253447Y-98712256D01*
X130253447Y-98712256D02*
X130205828Y-98664636D01*
X130205828Y-98664636D02*
X130158209Y-98569398D01*
X130158209Y-98569398D02*
X130158209Y-98283684D01*
X130158209Y-98283684D02*
X130205828Y-98188446D01*
X130205828Y-98188446D02*
X130253447Y-98140827D01*
X130253447Y-98140827D02*
X130348685Y-98093208D01*
X130348685Y-98093208D02*
X130539161Y-98093208D01*
X130539161Y-98093208D02*
X130634399Y-98140827D01*
X131491542Y-98712256D02*
X131396304Y-98759875D01*
X131396304Y-98759875D02*
X131205828Y-98759875D01*
X131205828Y-98759875D02*
X131110590Y-98712256D01*
X131110590Y-98712256D02*
X131062971Y-98617017D01*
X131062971Y-98617017D02*
X131062971Y-98236065D01*
X131062971Y-98236065D02*
X131110590Y-98140827D01*
X131110590Y-98140827D02*
X131205828Y-98093208D01*
X131205828Y-98093208D02*
X131396304Y-98093208D01*
X131396304Y-98093208D02*
X131491542Y-98140827D01*
X131491542Y-98140827D02*
X131539161Y-98236065D01*
X131539161Y-98236065D02*
X131539161Y-98331303D01*
X131539161Y-98331303D02*
X131062971Y-98426541D01*
X131967733Y-98759875D02*
X131967733Y-98093208D01*
X131967733Y-98283684D02*
X132015352Y-98188446D01*
X132015352Y-98188446D02*
X132062971Y-98140827D01*
X132062971Y-98140827D02*
X132158209Y-98093208D01*
X132158209Y-98093208D02*
X132253447Y-98093208D01*
X133253448Y-98093208D02*
X133491543Y-98759875D01*
X133491543Y-98759875D02*
X133729638Y-98093208D01*
X134634400Y-98759875D02*
X134062972Y-98759875D01*
X134348686Y-98759875D02*
X134348686Y-97759875D01*
X134348686Y-97759875D02*
X134253448Y-97902732D01*
X134253448Y-97902732D02*
X134158210Y-97997970D01*
X134158210Y-97997970D02*
X134062972Y-98045589D01*
X135062972Y-98664636D02*
X135110591Y-98712256D01*
X135110591Y-98712256D02*
X135062972Y-98759875D01*
X135062972Y-98759875D02*
X135015353Y-98712256D01*
X135015353Y-98712256D02*
X135062972Y-98664636D01*
X135062972Y-98664636D02*
X135062972Y-98759875D01*
X135729638Y-97759875D02*
X135824876Y-97759875D01*
X135824876Y-97759875D02*
X135920114Y-97807494D01*
X135920114Y-97807494D02*
X135967733Y-97855113D01*
X135967733Y-97855113D02*
X136015352Y-97950351D01*
X136015352Y-97950351D02*
X136062971Y-98140827D01*
X136062971Y-98140827D02*
X136062971Y-98378922D01*
X136062971Y-98378922D02*
X136015352Y-98569398D01*
X136015352Y-98569398D02*
X135967733Y-98664636D01*
X135967733Y-98664636D02*
X135920114Y-98712256D01*
X135920114Y-98712256D02*
X135824876Y-98759875D01*
X135824876Y-98759875D02*
X135729638Y-98759875D01*
X135729638Y-98759875D02*
X135634400Y-98712256D01*
X135634400Y-98712256D02*
X135586781Y-98664636D01*
X135586781Y-98664636D02*
X135539162Y-98569398D01*
X135539162Y-98569398D02*
X135491543Y-98378922D01*
X135491543Y-98378922D02*
X135491543Y-98140827D01*
X135491543Y-98140827D02*
X135539162Y-97950351D01*
X135539162Y-97950351D02*
X135586781Y-97855113D01*
X135586781Y-97855113D02*
X135634400Y-97807494D01*
X135634400Y-97807494D02*
X135729638Y-97759875D01*
X125158207Y-100274580D02*
X125110588Y-100322200D01*
X125110588Y-100322200D02*
X124967731Y-100369819D01*
X124967731Y-100369819D02*
X124872493Y-100369819D01*
X124872493Y-100369819D02*
X124729636Y-100322200D01*
X124729636Y-100322200D02*
X124634398Y-100226961D01*
X124634398Y-100226961D02*
X124586779Y-100131723D01*
X124586779Y-100131723D02*
X124539160Y-99941247D01*
X124539160Y-99941247D02*
X124539160Y-99798390D01*
X124539160Y-99798390D02*
X124586779Y-99607914D01*
X124586779Y-99607914D02*
X124634398Y-99512676D01*
X124634398Y-99512676D02*
X124729636Y-99417438D01*
X124729636Y-99417438D02*
X124872493Y-99369819D01*
X124872493Y-99369819D02*
X124967731Y-99369819D01*
X124967731Y-99369819D02*
X125110588Y-99417438D01*
X125110588Y-99417438D02*
X125158207Y-99465057D01*
X125586779Y-100274580D02*
X125634398Y-100322200D01*
X125634398Y-100322200D02*
X125586779Y-100369819D01*
X125586779Y-100369819D02*
X125539160Y-100322200D01*
X125539160Y-100322200D02*
X125586779Y-100274580D01*
X125586779Y-100274580D02*
X125586779Y-100369819D01*
X127348683Y-99417438D02*
X127253445Y-99369819D01*
X127253445Y-99369819D02*
X127110588Y-99369819D01*
X127110588Y-99369819D02*
X126967731Y-99417438D01*
X126967731Y-99417438D02*
X126872493Y-99512676D01*
X126872493Y-99512676D02*
X126824874Y-99607914D01*
X126824874Y-99607914D02*
X126777255Y-99798390D01*
X126777255Y-99798390D02*
X126777255Y-99941247D01*
X126777255Y-99941247D02*
X126824874Y-100131723D01*
X126824874Y-100131723D02*
X126872493Y-100226961D01*
X126872493Y-100226961D02*
X126967731Y-100322200D01*
X126967731Y-100322200D02*
X127110588Y-100369819D01*
X127110588Y-100369819D02*
X127205826Y-100369819D01*
X127205826Y-100369819D02*
X127348683Y-100322200D01*
X127348683Y-100322200D02*
X127396302Y-100274580D01*
X127396302Y-100274580D02*
X127396302Y-99941247D01*
X127396302Y-99941247D02*
X127205826Y-99941247D01*
X128253445Y-99703152D02*
X128253445Y-100369819D01*
X127824874Y-99703152D02*
X127824874Y-100226961D01*
X127824874Y-100226961D02*
X127872493Y-100322200D01*
X127872493Y-100322200D02*
X127967731Y-100369819D01*
X127967731Y-100369819D02*
X128110588Y-100369819D01*
X128110588Y-100369819D02*
X128205826Y-100322200D01*
X128205826Y-100322200D02*
X128253445Y-100274580D01*
X127872493Y-99369819D02*
X127920112Y-99417438D01*
X127920112Y-99417438D02*
X127872493Y-99465057D01*
X127872493Y-99465057D02*
X127824874Y-99417438D01*
X127824874Y-99417438D02*
X127872493Y-99369819D01*
X127872493Y-99369819D02*
X127872493Y-99465057D01*
X128253445Y-99369819D02*
X128301064Y-99417438D01*
X128301064Y-99417438D02*
X128253445Y-99465057D01*
X128253445Y-99465057D02*
X128205826Y-99417438D01*
X128205826Y-99417438D02*
X128253445Y-99369819D01*
X128253445Y-99369819D02*
X128253445Y-99465057D01*
X128682017Y-100322200D02*
X128777255Y-100369819D01*
X128777255Y-100369819D02*
X128967731Y-100369819D01*
X128967731Y-100369819D02*
X129062969Y-100322200D01*
X129062969Y-100322200D02*
X129110588Y-100226961D01*
X129110588Y-100226961D02*
X129110588Y-100179342D01*
X129110588Y-100179342D02*
X129062969Y-100084104D01*
X129062969Y-100084104D02*
X128967731Y-100036485D01*
X128967731Y-100036485D02*
X128824874Y-100036485D01*
X128824874Y-100036485D02*
X128729636Y-99988866D01*
X128729636Y-99988866D02*
X128682017Y-99893628D01*
X128682017Y-99893628D02*
X128682017Y-99846009D01*
X128682017Y-99846009D02*
X128729636Y-99750771D01*
X128729636Y-99750771D02*
X128824874Y-99703152D01*
X128824874Y-99703152D02*
X128967731Y-99703152D01*
X128967731Y-99703152D02*
X129062969Y-99750771D01*
X129920112Y-100322200D02*
X129824874Y-100369819D01*
X129824874Y-100369819D02*
X129634398Y-100369819D01*
X129634398Y-100369819D02*
X129539160Y-100322200D01*
X129539160Y-100322200D02*
X129491541Y-100226961D01*
X129491541Y-100226961D02*
X129491541Y-99846009D01*
X129491541Y-99846009D02*
X129539160Y-99750771D01*
X129539160Y-99750771D02*
X129634398Y-99703152D01*
X129634398Y-99703152D02*
X129824874Y-99703152D01*
X129824874Y-99703152D02*
X129920112Y-99750771D01*
X129920112Y-99750771D02*
X129967731Y-99846009D01*
X129967731Y-99846009D02*
X129967731Y-99941247D01*
X129967731Y-99941247D02*
X129491541Y-100036485D01*
X175254819Y-102011904D02*
X176064342Y-102011904D01*
X176064342Y-102011904D02*
X176159580Y-101964285D01*
X176159580Y-101964285D02*
X176207200Y-101916666D01*
X176207200Y-101916666D02*
X176254819Y-101821428D01*
X176254819Y-101821428D02*
X176254819Y-101630952D01*
X176254819Y-101630952D02*
X176207200Y-101535714D01*
X176207200Y-101535714D02*
X176159580Y-101488095D01*
X176159580Y-101488095D02*
X176064342Y-101440476D01*
X176064342Y-101440476D02*
X175254819Y-101440476D01*
X176254819Y-100440476D02*
X176254819Y-101011904D01*
X176254819Y-100726190D02*
X175254819Y-100726190D01*
X175254819Y-100726190D02*
X175397676Y-100821428D01*
X175397676Y-100821428D02*
X175492914Y-100916666D01*
X175492914Y-100916666D02*
X175540533Y-101011904D01*
X105488095Y-96954819D02*
X105488095Y-97764342D01*
X105488095Y-97764342D02*
X105535714Y-97859580D01*
X105535714Y-97859580D02*
X105583333Y-97907200D01*
X105583333Y-97907200D02*
X105678571Y-97954819D01*
X105678571Y-97954819D02*
X105869047Y-97954819D01*
X105869047Y-97954819D02*
X105964285Y-97907200D01*
X105964285Y-97907200D02*
X106011904Y-97859580D01*
X106011904Y-97859580D02*
X106059523Y-97764342D01*
X106059523Y-97764342D02*
X106059523Y-96954819D01*
X106964285Y-97288152D02*
X106964285Y-97954819D01*
X106726190Y-96907200D02*
X106488095Y-97621485D01*
X106488095Y-97621485D02*
X107107142Y-97621485D01*
X152738095Y-101704819D02*
X152738095Y-102514342D01*
X152738095Y-102514342D02*
X152785714Y-102609580D01*
X152785714Y-102609580D02*
X152833333Y-102657200D01*
X152833333Y-102657200D02*
X152928571Y-102704819D01*
X152928571Y-102704819D02*
X153119047Y-102704819D01*
X153119047Y-102704819D02*
X153214285Y-102657200D01*
X153214285Y-102657200D02*
X153261904Y-102609580D01*
X153261904Y-102609580D02*
X153309523Y-102514342D01*
X153309523Y-102514342D02*
X153309523Y-101704819D01*
X153690476Y-101704819D02*
X154309523Y-101704819D01*
X154309523Y-101704819D02*
X153976190Y-102085771D01*
X153976190Y-102085771D02*
X154119047Y-102085771D01*
X154119047Y-102085771D02*
X154214285Y-102133390D01*
X154214285Y-102133390D02*
X154261904Y-102181009D01*
X154261904Y-102181009D02*
X154309523Y-102276247D01*
X154309523Y-102276247D02*
X154309523Y-102514342D01*
X154309523Y-102514342D02*
X154261904Y-102609580D01*
X154261904Y-102609580D02*
X154214285Y-102657200D01*
X154214285Y-102657200D02*
X154119047Y-102704819D01*
X154119047Y-102704819D02*
X153833333Y-102704819D01*
X153833333Y-102704819D02*
X153738095Y-102657200D01*
X153738095Y-102657200D02*
X153690476Y-102609580D01*
X192204819Y-101261904D02*
X193014342Y-101261904D01*
X193014342Y-101261904D02*
X193109580Y-101214285D01*
X193109580Y-101214285D02*
X193157200Y-101166666D01*
X193157200Y-101166666D02*
X193204819Y-101071428D01*
X193204819Y-101071428D02*
X193204819Y-100880952D01*
X193204819Y-100880952D02*
X193157200Y-100785714D01*
X193157200Y-100785714D02*
X193109580Y-100738095D01*
X193109580Y-100738095D02*
X193014342Y-100690476D01*
X193014342Y-100690476D02*
X192204819Y-100690476D01*
X192300057Y-100261904D02*
X192252438Y-100214285D01*
X192252438Y-100214285D02*
X192204819Y-100119047D01*
X192204819Y-100119047D02*
X192204819Y-99880952D01*
X192204819Y-99880952D02*
X192252438Y-99785714D01*
X192252438Y-99785714D02*
X192300057Y-99738095D01*
X192300057Y-99738095D02*
X192395295Y-99690476D01*
X192395295Y-99690476D02*
X192490533Y-99690476D01*
X192490533Y-99690476D02*
X192633390Y-99738095D01*
X192633390Y-99738095D02*
X193204819Y-100309523D01*
X193204819Y-100309523D02*
X193204819Y-99690476D01*
X184583333Y-105954819D02*
X184250000Y-105478628D01*
X184011905Y-105954819D02*
X184011905Y-104954819D01*
X184011905Y-104954819D02*
X184392857Y-104954819D01*
X184392857Y-104954819D02*
X184488095Y-105002438D01*
X184488095Y-105002438D02*
X184535714Y-105050057D01*
X184535714Y-105050057D02*
X184583333Y-105145295D01*
X184583333Y-105145295D02*
X184583333Y-105288152D01*
X184583333Y-105288152D02*
X184535714Y-105383390D01*
X184535714Y-105383390D02*
X184488095Y-105431009D01*
X184488095Y-105431009D02*
X184392857Y-105478628D01*
X184392857Y-105478628D02*
X184011905Y-105478628D01*
X184964286Y-105050057D02*
X185011905Y-105002438D01*
X185011905Y-105002438D02*
X185107143Y-104954819D01*
X185107143Y-104954819D02*
X185345238Y-104954819D01*
X185345238Y-104954819D02*
X185440476Y-105002438D01*
X185440476Y-105002438D02*
X185488095Y-105050057D01*
X185488095Y-105050057D02*
X185535714Y-105145295D01*
X185535714Y-105145295D02*
X185535714Y-105240533D01*
X185535714Y-105240533D02*
X185488095Y-105383390D01*
X185488095Y-105383390D02*
X184916667Y-105954819D01*
X184916667Y-105954819D02*
X185535714Y-105954819D01*
X170954819Y-101916666D02*
X170478628Y-102249999D01*
X170954819Y-102488094D02*
X169954819Y-102488094D01*
X169954819Y-102488094D02*
X169954819Y-102107142D01*
X169954819Y-102107142D02*
X170002438Y-102011904D01*
X170002438Y-102011904D02*
X170050057Y-101964285D01*
X170050057Y-101964285D02*
X170145295Y-101916666D01*
X170145295Y-101916666D02*
X170288152Y-101916666D01*
X170288152Y-101916666D02*
X170383390Y-101964285D01*
X170383390Y-101964285D02*
X170431009Y-102011904D01*
X170431009Y-102011904D02*
X170478628Y-102107142D01*
X170478628Y-102107142D02*
X170478628Y-102488094D01*
X170954819Y-100964285D02*
X170954819Y-101535713D01*
X170954819Y-101249999D02*
X169954819Y-101249999D01*
X169954819Y-101249999D02*
X170097676Y-101345237D01*
X170097676Y-101345237D02*
X170192914Y-101440475D01*
X170192914Y-101440475D02*
X170240533Y-101535713D01*
X189790476Y-104604819D02*
X189790476Y-103604819D01*
X189790476Y-103604819D02*
X190123809Y-104319104D01*
X190123809Y-104319104D02*
X190457142Y-103604819D01*
X190457142Y-103604819D02*
X190457142Y-104604819D01*
X191457142Y-104604819D02*
X190885714Y-104604819D01*
X191171428Y-104604819D02*
X191171428Y-103604819D01*
X191171428Y-103604819D02*
X191076190Y-103747676D01*
X191076190Y-103747676D02*
X190980952Y-103842914D01*
X190980952Y-103842914D02*
X190885714Y-103890533D01*
X151314819Y-106063333D02*
X152029104Y-106063333D01*
X152029104Y-106063333D02*
X152171961Y-106110952D01*
X152171961Y-106110952D02*
X152267200Y-106206190D01*
X152267200Y-106206190D02*
X152314819Y-106349047D01*
X152314819Y-106349047D02*
X152314819Y-106444285D01*
X151314819Y-105110952D02*
X151314819Y-105587142D01*
X151314819Y-105587142D02*
X151791009Y-105634761D01*
X151791009Y-105634761D02*
X151743390Y-105587142D01*
X151743390Y-105587142D02*
X151695771Y-105491904D01*
X151695771Y-105491904D02*
X151695771Y-105253809D01*
X151695771Y-105253809D02*
X151743390Y-105158571D01*
X151743390Y-105158571D02*
X151791009Y-105110952D01*
X151791009Y-105110952D02*
X151886247Y-105063333D01*
X151886247Y-105063333D02*
X152124342Y-105063333D01*
X152124342Y-105063333D02*
X152219580Y-105110952D01*
X152219580Y-105110952D02*
X152267200Y-105158571D01*
X152267200Y-105158571D02*
X152314819Y-105253809D01*
X152314819Y-105253809D02*
X152314819Y-105491904D01*
X152314819Y-105491904D02*
X152267200Y-105587142D01*
X152267200Y-105587142D02*
X152219580Y-105634761D01*
X153569819Y-106833333D02*
X154284104Y-106833333D01*
X154284104Y-106833333D02*
X154426961Y-106880952D01*
X154426961Y-106880952D02*
X154522200Y-106976190D01*
X154522200Y-106976190D02*
X154569819Y-107119047D01*
X154569819Y-107119047D02*
X154569819Y-107214285D01*
X153903152Y-105928571D02*
X154569819Y-105928571D01*
X153522200Y-106166666D02*
X154236485Y-106404761D01*
X154236485Y-106404761D02*
X154236485Y-105785714D01*
X163584819Y-106833333D02*
X164299104Y-106833333D01*
X164299104Y-106833333D02*
X164441961Y-106880952D01*
X164441961Y-106880952D02*
X164537200Y-106976190D01*
X164537200Y-106976190D02*
X164584819Y-107119047D01*
X164584819Y-107119047D02*
X164584819Y-107214285D01*
X163584819Y-106452380D02*
X163584819Y-105833333D01*
X163584819Y-105833333D02*
X163965771Y-106166666D01*
X163965771Y-106166666D02*
X163965771Y-106023809D01*
X163965771Y-106023809D02*
X164013390Y-105928571D01*
X164013390Y-105928571D02*
X164061009Y-105880952D01*
X164061009Y-105880952D02*
X164156247Y-105833333D01*
X164156247Y-105833333D02*
X164394342Y-105833333D01*
X164394342Y-105833333D02*
X164489580Y-105880952D01*
X164489580Y-105880952D02*
X164537200Y-105928571D01*
X164537200Y-105928571D02*
X164584819Y-106023809D01*
X164584819Y-106023809D02*
X164584819Y-106309523D01*
X164584819Y-106309523D02*
X164537200Y-106404761D01*
X164537200Y-106404761D02*
X164489580Y-106452380D01*
X114124819Y-107333333D02*
X114839104Y-107333333D01*
X114839104Y-107333333D02*
X114981961Y-107380952D01*
X114981961Y-107380952D02*
X115077200Y-107476190D01*
X115077200Y-107476190D02*
X115124819Y-107619047D01*
X115124819Y-107619047D02*
X115124819Y-107714285D01*
X114220057Y-106904761D02*
X114172438Y-106857142D01*
X114172438Y-106857142D02*
X114124819Y-106761904D01*
X114124819Y-106761904D02*
X114124819Y-106523809D01*
X114124819Y-106523809D02*
X114172438Y-106428571D01*
X114172438Y-106428571D02*
X114220057Y-106380952D01*
X114220057Y-106380952D02*
X114315295Y-106333333D01*
X114315295Y-106333333D02*
X114410533Y-106333333D01*
X114410533Y-106333333D02*
X114553390Y-106380952D01*
X114553390Y-106380952D02*
X115124819Y-106952380D01*
X115124819Y-106952380D02*
X115124819Y-106333333D01*
X106124819Y-107333333D02*
X106839104Y-107333333D01*
X106839104Y-107333333D02*
X106981961Y-107380952D01*
X106981961Y-107380952D02*
X107077200Y-107476190D01*
X107077200Y-107476190D02*
X107124819Y-107619047D01*
X107124819Y-107619047D02*
X107124819Y-107714285D01*
X107124819Y-106333333D02*
X107124819Y-106904761D01*
X107124819Y-106619047D02*
X106124819Y-106619047D01*
X106124819Y-106619047D02*
X106267676Y-106714285D01*
X106267676Y-106714285D02*
X106362914Y-106809523D01*
X106362914Y-106809523D02*
X106410533Y-106904761D01*
X143859580Y-100892857D02*
X143907200Y-100940476D01*
X143907200Y-100940476D02*
X143954819Y-101083333D01*
X143954819Y-101083333D02*
X143954819Y-101178571D01*
X143954819Y-101178571D02*
X143907200Y-101321428D01*
X143907200Y-101321428D02*
X143811961Y-101416666D01*
X143811961Y-101416666D02*
X143716723Y-101464285D01*
X143716723Y-101464285D02*
X143526247Y-101511904D01*
X143526247Y-101511904D02*
X143383390Y-101511904D01*
X143383390Y-101511904D02*
X143192914Y-101464285D01*
X143192914Y-101464285D02*
X143097676Y-101416666D01*
X143097676Y-101416666D02*
X143002438Y-101321428D01*
X143002438Y-101321428D02*
X142954819Y-101178571D01*
X142954819Y-101178571D02*
X142954819Y-101083333D01*
X142954819Y-101083333D02*
X143002438Y-100940476D01*
X143002438Y-100940476D02*
X143050057Y-100892857D01*
X143954819Y-99940476D02*
X143954819Y-100511904D01*
X143954819Y-100226190D02*
X142954819Y-100226190D01*
X142954819Y-100226190D02*
X143097676Y-100321428D01*
X143097676Y-100321428D02*
X143192914Y-100416666D01*
X143192914Y-100416666D02*
X143240533Y-100511904D01*
X143288152Y-99083333D02*
X143954819Y-99083333D01*
X142907200Y-99321428D02*
X143621485Y-99559523D01*
X143621485Y-99559523D02*
X143621485Y-98940476D01*
X120107142Y-99859580D02*
X120059523Y-99907200D01*
X120059523Y-99907200D02*
X119916666Y-99954819D01*
X119916666Y-99954819D02*
X119821428Y-99954819D01*
X119821428Y-99954819D02*
X119678571Y-99907200D01*
X119678571Y-99907200D02*
X119583333Y-99811961D01*
X119583333Y-99811961D02*
X119535714Y-99716723D01*
X119535714Y-99716723D02*
X119488095Y-99526247D01*
X119488095Y-99526247D02*
X119488095Y-99383390D01*
X119488095Y-99383390D02*
X119535714Y-99192914D01*
X119535714Y-99192914D02*
X119583333Y-99097676D01*
X119583333Y-99097676D02*
X119678571Y-99002438D01*
X119678571Y-99002438D02*
X119821428Y-98954819D01*
X119821428Y-98954819D02*
X119916666Y-98954819D01*
X119916666Y-98954819D02*
X120059523Y-99002438D01*
X120059523Y-99002438D02*
X120107142Y-99050057D01*
X121059523Y-99954819D02*
X120488095Y-99954819D01*
X120773809Y-99954819D02*
X120773809Y-98954819D01*
X120773809Y-98954819D02*
X120678571Y-99097676D01*
X120678571Y-99097676D02*
X120583333Y-99192914D01*
X120583333Y-99192914D02*
X120488095Y-99240533D01*
X121392857Y-98954819D02*
X122011904Y-98954819D01*
X122011904Y-98954819D02*
X121678571Y-99335771D01*
X121678571Y-99335771D02*
X121821428Y-99335771D01*
X121821428Y-99335771D02*
X121916666Y-99383390D01*
X121916666Y-99383390D02*
X121964285Y-99431009D01*
X121964285Y-99431009D02*
X122011904Y-99526247D01*
X122011904Y-99526247D02*
X122011904Y-99764342D01*
X122011904Y-99764342D02*
X121964285Y-99859580D01*
X121964285Y-99859580D02*
X121916666Y-99907200D01*
X121916666Y-99907200D02*
X121821428Y-99954819D01*
X121821428Y-99954819D02*
X121535714Y-99954819D01*
X121535714Y-99954819D02*
X121440476Y-99907200D01*
X121440476Y-99907200D02*
X121392857Y-99859580D01*
X120107142Y-101179580D02*
X120059523Y-101227200D01*
X120059523Y-101227200D02*
X119916666Y-101274819D01*
X119916666Y-101274819D02*
X119821428Y-101274819D01*
X119821428Y-101274819D02*
X119678571Y-101227200D01*
X119678571Y-101227200D02*
X119583333Y-101131961D01*
X119583333Y-101131961D02*
X119535714Y-101036723D01*
X119535714Y-101036723D02*
X119488095Y-100846247D01*
X119488095Y-100846247D02*
X119488095Y-100703390D01*
X119488095Y-100703390D02*
X119535714Y-100512914D01*
X119535714Y-100512914D02*
X119583333Y-100417676D01*
X119583333Y-100417676D02*
X119678571Y-100322438D01*
X119678571Y-100322438D02*
X119821428Y-100274819D01*
X119821428Y-100274819D02*
X119916666Y-100274819D01*
X119916666Y-100274819D02*
X120059523Y-100322438D01*
X120059523Y-100322438D02*
X120107142Y-100370057D01*
X121059523Y-101274819D02*
X120488095Y-101274819D01*
X120773809Y-101274819D02*
X120773809Y-100274819D01*
X120773809Y-100274819D02*
X120678571Y-100417676D01*
X120678571Y-100417676D02*
X120583333Y-100512914D01*
X120583333Y-100512914D02*
X120488095Y-100560533D01*
X121440476Y-100370057D02*
X121488095Y-100322438D01*
X121488095Y-100322438D02*
X121583333Y-100274819D01*
X121583333Y-100274819D02*
X121821428Y-100274819D01*
X121821428Y-100274819D02*
X121916666Y-100322438D01*
X121916666Y-100322438D02*
X121964285Y-100370057D01*
X121964285Y-100370057D02*
X122011904Y-100465295D01*
X122011904Y-100465295D02*
X122011904Y-100560533D01*
X122011904Y-100560533D02*
X121964285Y-100703390D01*
X121964285Y-100703390D02*
X121392857Y-101274819D01*
X121392857Y-101274819D02*
X122011904Y-101274819D01*
X194607142Y-103859580D02*
X194559523Y-103907200D01*
X194559523Y-103907200D02*
X194416666Y-103954819D01*
X194416666Y-103954819D02*
X194321428Y-103954819D01*
X194321428Y-103954819D02*
X194178571Y-103907200D01*
X194178571Y-103907200D02*
X194083333Y-103811961D01*
X194083333Y-103811961D02*
X194035714Y-103716723D01*
X194035714Y-103716723D02*
X193988095Y-103526247D01*
X193988095Y-103526247D02*
X193988095Y-103383390D01*
X193988095Y-103383390D02*
X194035714Y-103192914D01*
X194035714Y-103192914D02*
X194083333Y-103097676D01*
X194083333Y-103097676D02*
X194178571Y-103002438D01*
X194178571Y-103002438D02*
X194321428Y-102954819D01*
X194321428Y-102954819D02*
X194416666Y-102954819D01*
X194416666Y-102954819D02*
X194559523Y-103002438D01*
X194559523Y-103002438D02*
X194607142Y-103050057D01*
X195559523Y-103954819D02*
X194988095Y-103954819D01*
X195273809Y-103954819D02*
X195273809Y-102954819D01*
X195273809Y-102954819D02*
X195178571Y-103097676D01*
X195178571Y-103097676D02*
X195083333Y-103192914D01*
X195083333Y-103192914D02*
X194988095Y-103240533D01*
X196511904Y-103954819D02*
X195940476Y-103954819D01*
X196226190Y-103954819D02*
X196226190Y-102954819D01*
X196226190Y-102954819D02*
X196130952Y-103097676D01*
X196130952Y-103097676D02*
X196035714Y-103192914D01*
X196035714Y-103192914D02*
X195940476Y-103240533D01*
X194607142Y-101609580D02*
X194559523Y-101657200D01*
X194559523Y-101657200D02*
X194416666Y-101704819D01*
X194416666Y-101704819D02*
X194321428Y-101704819D01*
X194321428Y-101704819D02*
X194178571Y-101657200D01*
X194178571Y-101657200D02*
X194083333Y-101561961D01*
X194083333Y-101561961D02*
X194035714Y-101466723D01*
X194035714Y-101466723D02*
X193988095Y-101276247D01*
X193988095Y-101276247D02*
X193988095Y-101133390D01*
X193988095Y-101133390D02*
X194035714Y-100942914D01*
X194035714Y-100942914D02*
X194083333Y-100847676D01*
X194083333Y-100847676D02*
X194178571Y-100752438D01*
X194178571Y-100752438D02*
X194321428Y-100704819D01*
X194321428Y-100704819D02*
X194416666Y-100704819D01*
X194416666Y-100704819D02*
X194559523Y-100752438D01*
X194559523Y-100752438D02*
X194607142Y-100800057D01*
X195559523Y-101704819D02*
X194988095Y-101704819D01*
X195273809Y-101704819D02*
X195273809Y-100704819D01*
X195273809Y-100704819D02*
X195178571Y-100847676D01*
X195178571Y-100847676D02*
X195083333Y-100942914D01*
X195083333Y-100942914D02*
X194988095Y-100990533D01*
X196178571Y-100704819D02*
X196273809Y-100704819D01*
X196273809Y-100704819D02*
X196369047Y-100752438D01*
X196369047Y-100752438D02*
X196416666Y-100800057D01*
X196416666Y-100800057D02*
X196464285Y-100895295D01*
X196464285Y-100895295D02*
X196511904Y-101085771D01*
X196511904Y-101085771D02*
X196511904Y-101323866D01*
X196511904Y-101323866D02*
X196464285Y-101514342D01*
X196464285Y-101514342D02*
X196416666Y-101609580D01*
X196416666Y-101609580D02*
X196369047Y-101657200D01*
X196369047Y-101657200D02*
X196273809Y-101704819D01*
X196273809Y-101704819D02*
X196178571Y-101704819D01*
X196178571Y-101704819D02*
X196083333Y-101657200D01*
X196083333Y-101657200D02*
X196035714Y-101609580D01*
X196035714Y-101609580D02*
X195988095Y-101514342D01*
X195988095Y-101514342D02*
X195940476Y-101323866D01*
X195940476Y-101323866D02*
X195940476Y-101085771D01*
X195940476Y-101085771D02*
X195988095Y-100895295D01*
X195988095Y-100895295D02*
X196035714Y-100800057D01*
X196035714Y-100800057D02*
X196083333Y-100752438D01*
X196083333Y-100752438D02*
X196178571Y-100704819D01*
X194833333Y-99359580D02*
X194785714Y-99407200D01*
X194785714Y-99407200D02*
X194642857Y-99454819D01*
X194642857Y-99454819D02*
X194547619Y-99454819D01*
X194547619Y-99454819D02*
X194404762Y-99407200D01*
X194404762Y-99407200D02*
X194309524Y-99311961D01*
X194309524Y-99311961D02*
X194261905Y-99216723D01*
X194261905Y-99216723D02*
X194214286Y-99026247D01*
X194214286Y-99026247D02*
X194214286Y-98883390D01*
X194214286Y-98883390D02*
X194261905Y-98692914D01*
X194261905Y-98692914D02*
X194309524Y-98597676D01*
X194309524Y-98597676D02*
X194404762Y-98502438D01*
X194404762Y-98502438D02*
X194547619Y-98454819D01*
X194547619Y-98454819D02*
X194642857Y-98454819D01*
X194642857Y-98454819D02*
X194785714Y-98502438D01*
X194785714Y-98502438D02*
X194833333Y-98550057D01*
X195309524Y-99454819D02*
X195500000Y-99454819D01*
X195500000Y-99454819D02*
X195595238Y-99407200D01*
X195595238Y-99407200D02*
X195642857Y-99359580D01*
X195642857Y-99359580D02*
X195738095Y-99216723D01*
X195738095Y-99216723D02*
X195785714Y-99026247D01*
X195785714Y-99026247D02*
X195785714Y-98645295D01*
X195785714Y-98645295D02*
X195738095Y-98550057D01*
X195738095Y-98550057D02*
X195690476Y-98502438D01*
X195690476Y-98502438D02*
X195595238Y-98454819D01*
X195595238Y-98454819D02*
X195404762Y-98454819D01*
X195404762Y-98454819D02*
X195309524Y-98502438D01*
X195309524Y-98502438D02*
X195261905Y-98550057D01*
X195261905Y-98550057D02*
X195214286Y-98645295D01*
X195214286Y-98645295D02*
X195214286Y-98883390D01*
X195214286Y-98883390D02*
X195261905Y-98978628D01*
X195261905Y-98978628D02*
X195309524Y-99026247D01*
X195309524Y-99026247D02*
X195404762Y-99073866D01*
X195404762Y-99073866D02*
X195595238Y-99073866D01*
X195595238Y-99073866D02*
X195690476Y-99026247D01*
X195690476Y-99026247D02*
X195738095Y-98978628D01*
X195738095Y-98978628D02*
X195785714Y-98883390D01*
X135583333Y-101359580D02*
X135535714Y-101407200D01*
X135535714Y-101407200D02*
X135392857Y-101454819D01*
X135392857Y-101454819D02*
X135297619Y-101454819D01*
X135297619Y-101454819D02*
X135154762Y-101407200D01*
X135154762Y-101407200D02*
X135059524Y-101311961D01*
X135059524Y-101311961D02*
X135011905Y-101216723D01*
X135011905Y-101216723D02*
X134964286Y-101026247D01*
X134964286Y-101026247D02*
X134964286Y-100883390D01*
X134964286Y-100883390D02*
X135011905Y-100692914D01*
X135011905Y-100692914D02*
X135059524Y-100597676D01*
X135059524Y-100597676D02*
X135154762Y-100502438D01*
X135154762Y-100502438D02*
X135297619Y-100454819D01*
X135297619Y-100454819D02*
X135392857Y-100454819D01*
X135392857Y-100454819D02*
X135535714Y-100502438D01*
X135535714Y-100502438D02*
X135583333Y-100550057D01*
X136154762Y-100883390D02*
X136059524Y-100835771D01*
X136059524Y-100835771D02*
X136011905Y-100788152D01*
X136011905Y-100788152D02*
X135964286Y-100692914D01*
X135964286Y-100692914D02*
X135964286Y-100645295D01*
X135964286Y-100645295D02*
X136011905Y-100550057D01*
X136011905Y-100550057D02*
X136059524Y-100502438D01*
X136059524Y-100502438D02*
X136154762Y-100454819D01*
X136154762Y-100454819D02*
X136345238Y-100454819D01*
X136345238Y-100454819D02*
X136440476Y-100502438D01*
X136440476Y-100502438D02*
X136488095Y-100550057D01*
X136488095Y-100550057D02*
X136535714Y-100645295D01*
X136535714Y-100645295D02*
X136535714Y-100692914D01*
X136535714Y-100692914D02*
X136488095Y-100788152D01*
X136488095Y-100788152D02*
X136440476Y-100835771D01*
X136440476Y-100835771D02*
X136345238Y-100883390D01*
X136345238Y-100883390D02*
X136154762Y-100883390D01*
X136154762Y-100883390D02*
X136059524Y-100931009D01*
X136059524Y-100931009D02*
X136011905Y-100978628D01*
X136011905Y-100978628D02*
X135964286Y-101073866D01*
X135964286Y-101073866D02*
X135964286Y-101264342D01*
X135964286Y-101264342D02*
X136011905Y-101359580D01*
X136011905Y-101359580D02*
X136059524Y-101407200D01*
X136059524Y-101407200D02*
X136154762Y-101454819D01*
X136154762Y-101454819D02*
X136345238Y-101454819D01*
X136345238Y-101454819D02*
X136440476Y-101407200D01*
X136440476Y-101407200D02*
X136488095Y-101359580D01*
X136488095Y-101359580D02*
X136535714Y-101264342D01*
X136535714Y-101264342D02*
X136535714Y-101073866D01*
X136535714Y-101073866D02*
X136488095Y-100978628D01*
X136488095Y-100978628D02*
X136440476Y-100931009D01*
X136440476Y-100931009D02*
X136345238Y-100883390D01*
X170483333Y-104109580D02*
X170435714Y-104157200D01*
X170435714Y-104157200D02*
X170292857Y-104204819D01*
X170292857Y-104204819D02*
X170197619Y-104204819D01*
X170197619Y-104204819D02*
X170054762Y-104157200D01*
X170054762Y-104157200D02*
X169959524Y-104061961D01*
X169959524Y-104061961D02*
X169911905Y-103966723D01*
X169911905Y-103966723D02*
X169864286Y-103776247D01*
X169864286Y-103776247D02*
X169864286Y-103633390D01*
X169864286Y-103633390D02*
X169911905Y-103442914D01*
X169911905Y-103442914D02*
X169959524Y-103347676D01*
X169959524Y-103347676D02*
X170054762Y-103252438D01*
X170054762Y-103252438D02*
X170197619Y-103204819D01*
X170197619Y-103204819D02*
X170292857Y-103204819D01*
X170292857Y-103204819D02*
X170435714Y-103252438D01*
X170435714Y-103252438D02*
X170483333Y-103300057D01*
X170816667Y-103204819D02*
X171483333Y-103204819D01*
X171483333Y-103204819D02*
X171054762Y-104204819D01*
X172583333Y-104109580D02*
X172535714Y-104157200D01*
X172535714Y-104157200D02*
X172392857Y-104204819D01*
X172392857Y-104204819D02*
X172297619Y-104204819D01*
X172297619Y-104204819D02*
X172154762Y-104157200D01*
X172154762Y-104157200D02*
X172059524Y-104061961D01*
X172059524Y-104061961D02*
X172011905Y-103966723D01*
X172011905Y-103966723D02*
X171964286Y-103776247D01*
X171964286Y-103776247D02*
X171964286Y-103633390D01*
X171964286Y-103633390D02*
X172011905Y-103442914D01*
X172011905Y-103442914D02*
X172059524Y-103347676D01*
X172059524Y-103347676D02*
X172154762Y-103252438D01*
X172154762Y-103252438D02*
X172297619Y-103204819D01*
X172297619Y-103204819D02*
X172392857Y-103204819D01*
X172392857Y-103204819D02*
X172535714Y-103252438D01*
X172535714Y-103252438D02*
X172583333Y-103300057D01*
X173440476Y-103204819D02*
X173250000Y-103204819D01*
X173250000Y-103204819D02*
X173154762Y-103252438D01*
X173154762Y-103252438D02*
X173107143Y-103300057D01*
X173107143Y-103300057D02*
X173011905Y-103442914D01*
X173011905Y-103442914D02*
X172964286Y-103633390D01*
X172964286Y-103633390D02*
X172964286Y-104014342D01*
X172964286Y-104014342D02*
X173011905Y-104109580D01*
X173011905Y-104109580D02*
X173059524Y-104157200D01*
X173059524Y-104157200D02*
X173154762Y-104204819D01*
X173154762Y-104204819D02*
X173345238Y-104204819D01*
X173345238Y-104204819D02*
X173440476Y-104157200D01*
X173440476Y-104157200D02*
X173488095Y-104109580D01*
X173488095Y-104109580D02*
X173535714Y-104014342D01*
X173535714Y-104014342D02*
X173535714Y-103776247D01*
X173535714Y-103776247D02*
X173488095Y-103681009D01*
X173488095Y-103681009D02*
X173440476Y-103633390D01*
X173440476Y-103633390D02*
X173345238Y-103585771D01*
X173345238Y-103585771D02*
X173154762Y-103585771D01*
X173154762Y-103585771D02*
X173059524Y-103633390D01*
X173059524Y-103633390D02*
X173011905Y-103681009D01*
X173011905Y-103681009D02*
X172964286Y-103776247D01*
X182583333Y-97109580D02*
X182535714Y-97157200D01*
X182535714Y-97157200D02*
X182392857Y-97204819D01*
X182392857Y-97204819D02*
X182297619Y-97204819D01*
X182297619Y-97204819D02*
X182154762Y-97157200D01*
X182154762Y-97157200D02*
X182059524Y-97061961D01*
X182059524Y-97061961D02*
X182011905Y-96966723D01*
X182011905Y-96966723D02*
X181964286Y-96776247D01*
X181964286Y-96776247D02*
X181964286Y-96633390D01*
X181964286Y-96633390D02*
X182011905Y-96442914D01*
X182011905Y-96442914D02*
X182059524Y-96347676D01*
X182059524Y-96347676D02*
X182154762Y-96252438D01*
X182154762Y-96252438D02*
X182297619Y-96204819D01*
X182297619Y-96204819D02*
X182392857Y-96204819D01*
X182392857Y-96204819D02*
X182535714Y-96252438D01*
X182535714Y-96252438D02*
X182583333Y-96300057D01*
X182916667Y-96204819D02*
X183535714Y-96204819D01*
X183535714Y-96204819D02*
X183202381Y-96585771D01*
X183202381Y-96585771D02*
X183345238Y-96585771D01*
X183345238Y-96585771D02*
X183440476Y-96633390D01*
X183440476Y-96633390D02*
X183488095Y-96681009D01*
X183488095Y-96681009D02*
X183535714Y-96776247D01*
X183535714Y-96776247D02*
X183535714Y-97014342D01*
X183535714Y-97014342D02*
X183488095Y-97109580D01*
X183488095Y-97109580D02*
X183440476Y-97157200D01*
X183440476Y-97157200D02*
X183345238Y-97204819D01*
X183345238Y-97204819D02*
X183059524Y-97204819D01*
X183059524Y-97204819D02*
X182964286Y-97157200D01*
X182964286Y-97157200D02*
X182916667Y-97109580D01*
X168833333Y-97109580D02*
X168785714Y-97157200D01*
X168785714Y-97157200D02*
X168642857Y-97204819D01*
X168642857Y-97204819D02*
X168547619Y-97204819D01*
X168547619Y-97204819D02*
X168404762Y-97157200D01*
X168404762Y-97157200D02*
X168309524Y-97061961D01*
X168309524Y-97061961D02*
X168261905Y-96966723D01*
X168261905Y-96966723D02*
X168214286Y-96776247D01*
X168214286Y-96776247D02*
X168214286Y-96633390D01*
X168214286Y-96633390D02*
X168261905Y-96442914D01*
X168261905Y-96442914D02*
X168309524Y-96347676D01*
X168309524Y-96347676D02*
X168404762Y-96252438D01*
X168404762Y-96252438D02*
X168547619Y-96204819D01*
X168547619Y-96204819D02*
X168642857Y-96204819D01*
X168642857Y-96204819D02*
X168785714Y-96252438D01*
X168785714Y-96252438D02*
X168833333Y-96300057D01*
X169214286Y-96300057D02*
X169261905Y-96252438D01*
X169261905Y-96252438D02*
X169357143Y-96204819D01*
X169357143Y-96204819D02*
X169595238Y-96204819D01*
X169595238Y-96204819D02*
X169690476Y-96252438D01*
X169690476Y-96252438D02*
X169738095Y-96300057D01*
X169738095Y-96300057D02*
X169785714Y-96395295D01*
X169785714Y-96395295D02*
X169785714Y-96490533D01*
X169785714Y-96490533D02*
X169738095Y-96633390D01*
X169738095Y-96633390D02*
X169166667Y-97204819D01*
X169166667Y-97204819D02*
X169785714Y-97204819D01*
X165833333Y-100429580D02*
X165785714Y-100477200D01*
X165785714Y-100477200D02*
X165642857Y-100524819D01*
X165642857Y-100524819D02*
X165547619Y-100524819D01*
X165547619Y-100524819D02*
X165404762Y-100477200D01*
X165404762Y-100477200D02*
X165309524Y-100381961D01*
X165309524Y-100381961D02*
X165261905Y-100286723D01*
X165261905Y-100286723D02*
X165214286Y-100096247D01*
X165214286Y-100096247D02*
X165214286Y-99953390D01*
X165214286Y-99953390D02*
X165261905Y-99762914D01*
X165261905Y-99762914D02*
X165309524Y-99667676D01*
X165309524Y-99667676D02*
X165404762Y-99572438D01*
X165404762Y-99572438D02*
X165547619Y-99524819D01*
X165547619Y-99524819D02*
X165642857Y-99524819D01*
X165642857Y-99524819D02*
X165785714Y-99572438D01*
X165785714Y-99572438D02*
X165833333Y-99620057D01*
X166785714Y-100524819D02*
X166214286Y-100524819D01*
X166500000Y-100524819D02*
X166500000Y-99524819D01*
X166500000Y-99524819D02*
X166404762Y-99667676D01*
X166404762Y-99667676D02*
X166309524Y-99762914D01*
X166309524Y-99762914D02*
X166214286Y-99810533D01*
X173583333Y-97109580D02*
X173535714Y-97157200D01*
X173535714Y-97157200D02*
X173392857Y-97204819D01*
X173392857Y-97204819D02*
X173297619Y-97204819D01*
X173297619Y-97204819D02*
X173154762Y-97157200D01*
X173154762Y-97157200D02*
X173059524Y-97061961D01*
X173059524Y-97061961D02*
X173011905Y-96966723D01*
X173011905Y-96966723D02*
X172964286Y-96776247D01*
X172964286Y-96776247D02*
X172964286Y-96633390D01*
X172964286Y-96633390D02*
X173011905Y-96442914D01*
X173011905Y-96442914D02*
X173059524Y-96347676D01*
X173059524Y-96347676D02*
X173154762Y-96252438D01*
X173154762Y-96252438D02*
X173297619Y-96204819D01*
X173297619Y-96204819D02*
X173392857Y-96204819D01*
X173392857Y-96204819D02*
X173535714Y-96252438D01*
X173535714Y-96252438D02*
X173583333Y-96300057D01*
X174488095Y-96204819D02*
X174011905Y-96204819D01*
X174011905Y-96204819D02*
X173964286Y-96681009D01*
X173964286Y-96681009D02*
X174011905Y-96633390D01*
X174011905Y-96633390D02*
X174107143Y-96585771D01*
X174107143Y-96585771D02*
X174345238Y-96585771D01*
X174345238Y-96585771D02*
X174440476Y-96633390D01*
X174440476Y-96633390D02*
X174488095Y-96681009D01*
X174488095Y-96681009D02*
X174535714Y-96776247D01*
X174535714Y-96776247D02*
X174535714Y-97014342D01*
X174535714Y-97014342D02*
X174488095Y-97109580D01*
X174488095Y-97109580D02*
X174440476Y-97157200D01*
X174440476Y-97157200D02*
X174345238Y-97204819D01*
X174345238Y-97204819D02*
X174107143Y-97204819D01*
X174107143Y-97204819D02*
X174011905Y-97157200D01*
X174011905Y-97157200D02*
X173964286Y-97109580D01*
D11*
X176615000Y-102500000D02*
X176615000Y-104700000D01*
X176615000Y-102500000D02*
X176615000Y-100300000D01*
X183385000Y-102500000D02*
X183385000Y-104700000D01*
X183385000Y-102500000D02*
X183385000Y-100300000D01*
X176500000Y-105500000D02*
X176170000Y-105740000D01*
X176170000Y-105260000D01*
X176500000Y-105500000D01*
G36*
X176500000Y-105500000D02*
G01*
X176170000Y-105740000D01*
X176170000Y-105260000D01*
X176500000Y-105500000D01*
G37*
X115520000Y-103450000D02*
X115520000Y-103180000D01*
X115520000Y-96550000D02*
X115520000Y-96820000D01*
X109100000Y-103450000D02*
X115520000Y-103450000D01*
X109100000Y-96550000D02*
X115520000Y-96550000D01*
X117180000Y-103490000D02*
X116700000Y-103490000D01*
X116940000Y-103160000D01*
X117180000Y-103490000D01*
G36*
X117180000Y-103490000D02*
G01*
X116700000Y-103490000D01*
X116940000Y-103160000D01*
X117180000Y-103490000D01*
G37*
X161100000Y-102660000D02*
X157340000Y-102660000D01*
X161100000Y-95840000D02*
X157340000Y-95840000D01*
X157340000Y-102660000D02*
X157340000Y-101400000D01*
X157340000Y-95840000D02*
X157340000Y-97100000D01*
X162620000Y-102890000D02*
X162140000Y-102890000D01*
X162380000Y-102560000D01*
X162620000Y-102890000D01*
G36*
X162620000Y-102890000D02*
G01*
X162140000Y-102890000D01*
X162380000Y-102560000D01*
X162620000Y-102890000D01*
G37*
X189360000Y-101560000D02*
X189360000Y-99560000D01*
X191640000Y-101550000D02*
X191640000Y-99550000D01*
X189430000Y-102200000D02*
X189150000Y-101920000D01*
X189430000Y-101920000D01*
X189430000Y-102200000D01*
G36*
X189430000Y-102200000D02*
G01*
X189150000Y-101920000D01*
X189430000Y-101920000D01*
X189430000Y-102200000D01*
G37*
X184477064Y-108235000D02*
X184022936Y-108235000D01*
X184477064Y-106765000D02*
X184022936Y-106765000D01*
X175735000Y-104272936D02*
X175735000Y-104727064D01*
X174265000Y-104272936D02*
X174265000Y-104727064D01*
X150860000Y-103130000D02*
X150860000Y-104460000D01*
X149530000Y-103130000D02*
X150860000Y-103130000D01*
X148260000Y-103130000D02*
X125340000Y-103130000D01*
X148260000Y-103130000D02*
X148260000Y-105730000D01*
X125340000Y-103130000D02*
X125340000Y-108330000D01*
X150860000Y-105730000D02*
X150860000Y-108330000D01*
X148260000Y-105730000D02*
X150860000Y-105730000D01*
X150860000Y-108330000D02*
X125340000Y-108330000D01*
X155115000Y-107830000D02*
X155115000Y-106500000D01*
X156445000Y-107830000D02*
X155115000Y-107830000D01*
X157715000Y-107830000D02*
X162855000Y-107830000D01*
X157715000Y-107830000D02*
X157715000Y-105170000D01*
X162855000Y-107830000D02*
X162855000Y-105170000D01*
X157715000Y-105170000D02*
X162855000Y-105170000D01*
X165130000Y-107830000D02*
X165130000Y-106500000D01*
X166460000Y-107830000D02*
X165130000Y-107830000D01*
X167730000Y-107830000D02*
X172870000Y-107830000D01*
X167730000Y-107830000D02*
X167730000Y-105170000D01*
X172870000Y-107830000D02*
X172870000Y-105170000D01*
X167730000Y-105170000D02*
X172870000Y-105170000D01*
X115670000Y-108330000D02*
X115670000Y-107000000D01*
X117000000Y-108330000D02*
X115670000Y-108330000D01*
X118270000Y-108330000D02*
X120870000Y-108330000D01*
X118270000Y-108330000D02*
X118270000Y-105670000D01*
X120870000Y-108330000D02*
X120870000Y-105670000D01*
X118270000Y-105670000D02*
X120870000Y-105670000D01*
X107670000Y-108330000D02*
X107670000Y-107000000D01*
X109000000Y-108330000D02*
X107670000Y-108330000D01*
X110270000Y-108330000D02*
X112870000Y-108330000D01*
X110270000Y-108330000D02*
X110270000Y-105670000D01*
X112870000Y-108330000D02*
X112870000Y-105670000D01*
X110270000Y-105670000D02*
X112870000Y-105670000D01*
X144235000Y-96738748D02*
X144235000Y-97261252D01*
X142765000Y-96738748D02*
X142765000Y-97261252D01*
X120488748Y-97015000D02*
X121011252Y-97015000D01*
X120488748Y-98485000D02*
X121011252Y-98485000D01*
X120488748Y-101765000D02*
X121011252Y-101765000D01*
X120488748Y-103235000D02*
X121011252Y-103235000D01*
X186761252Y-104235000D02*
X186238748Y-104235000D01*
X186761252Y-102765000D02*
X186238748Y-102765000D01*
X186761252Y-101985000D02*
X186238748Y-101985000D01*
X186761252Y-100515000D02*
X186238748Y-100515000D01*
X186761252Y-99735000D02*
X186238748Y-99735000D01*
X186761252Y-98265000D02*
X186238748Y-98265000D01*
X132488748Y-100265000D02*
X133011252Y-100265000D01*
X132488748Y-101735000D02*
X133011252Y-101735000D01*
X176661252Y-108235000D02*
X176138748Y-108235000D01*
X176661252Y-106765000D02*
X176138748Y-106765000D01*
X179738748Y-106765000D02*
X180261252Y-106765000D01*
X179738748Y-108235000D02*
X180261252Y-108235000D01*
X179738748Y-96015000D02*
X180261252Y-96015000D01*
X179738748Y-97485000D02*
X180261252Y-97485000D01*
X165738748Y-96015000D02*
X166261252Y-96015000D01*
X165738748Y-97485000D02*
X166261252Y-97485000D01*
X165738748Y-101015000D02*
X166261252Y-101015000D01*
X165738748Y-102485000D02*
X166261252Y-102485000D01*
D12*
X194750000Y-94875000D02*
X106750000Y-94875000D01*
X194750000Y-94375000D02*
X194750000Y-94875000D01*
X194750000Y-78875000D02*
X194750000Y-79375000D01*
X106750000Y-94375000D02*
X106750000Y-94875000D01*
X106750000Y-89875000D02*
X106750000Y-87375000D01*
X106750000Y-78875000D02*
X194750000Y-78875000D01*
X106750000Y-78875000D02*
X106750000Y-79375000D01*
D11*
X176761252Y-97485000D02*
X176238748Y-97485000D01*
X176761252Y-96015000D02*
X176238748Y-96015000D01*
%LPC*%
D13*
X177075000Y-105362500D03*
X177725000Y-105362500D03*
X178375000Y-105362500D03*
X179025000Y-105362500D03*
X179675000Y-105362500D03*
X180325000Y-105362500D03*
X180975000Y-105362500D03*
X181625000Y-105362500D03*
X182275000Y-105362500D03*
X182925000Y-105362500D03*
X182925000Y-99637500D03*
X182275000Y-99637500D03*
X181625000Y-99637500D03*
X180975000Y-99637500D03*
X180325000Y-99637500D03*
X179675000Y-99637500D03*
X179025000Y-99637500D03*
X178375000Y-99637500D03*
X177725000Y-99637500D03*
X177075000Y-99637500D03*
D14*
X117250000Y-102280000D03*
X117250000Y-100000000D03*
X117250000Y-97720000D03*
D15*
X110950000Y-100000000D03*
D16*
X162400000Y-101550000D03*
X162400000Y-99250000D03*
X162400000Y-96950000D03*
D17*
X156100000Y-99250000D03*
D18*
X189750000Y-101500000D03*
X190250000Y-101500000D03*
X190750000Y-101500000D03*
X191250000Y-101500000D03*
X191250000Y-99600000D03*
X190750000Y-99600000D03*
X190250000Y-99600000D03*
X189750000Y-99600000D03*
D19*
X190500000Y-100550000D03*
D20*
X185162500Y-107500000D03*
X183337500Y-107500000D03*
D21*
X175000000Y-103587500D03*
X175000000Y-105412500D03*
D22*
X188200000Y-106500000D03*
D23*
X193000000Y-106500000D03*
D24*
X149530000Y-104460000D03*
D25*
X149530000Y-107000000D03*
X146990000Y-104460000D03*
X146990000Y-107000000D03*
X144450000Y-104460000D03*
X144450000Y-107000000D03*
X141910000Y-104460000D03*
X141910000Y-107000000D03*
X139370000Y-104460000D03*
X139370000Y-107000000D03*
X136830000Y-104460000D03*
X136830000Y-107000000D03*
X134290000Y-104460000D03*
X134290000Y-107000000D03*
X131750000Y-104460000D03*
X131750000Y-107000000D03*
X129210000Y-104460000D03*
X129210000Y-107000000D03*
X126670000Y-104460000D03*
X126670000Y-107000000D03*
D24*
X156445000Y-106500000D03*
D25*
X158985000Y-106500000D03*
X161525000Y-106500000D03*
D24*
X166460000Y-106500000D03*
D25*
X169000000Y-106500000D03*
X171540000Y-106500000D03*
D24*
X117000000Y-107000000D03*
D25*
X119540000Y-107000000D03*
D24*
X109000000Y-107000000D03*
D25*
X111540000Y-107000000D03*
D26*
X143500000Y-96050000D03*
X143500000Y-97950000D03*
D27*
X119800000Y-97750000D03*
X121700000Y-97750000D03*
X119800000Y-102500000D03*
X121700000Y-102500000D03*
D28*
X187450000Y-103500000D03*
X185550000Y-103500000D03*
X187450000Y-101250000D03*
X185550000Y-101250000D03*
X187450000Y-99000000D03*
X185550000Y-99000000D03*
D27*
X131800000Y-101000000D03*
X133700000Y-101000000D03*
D28*
X177350000Y-107500000D03*
X175450000Y-107500000D03*
D27*
X179050000Y-107500000D03*
X180950000Y-107500000D03*
X179050000Y-96750000D03*
X180950000Y-96750000D03*
X165050000Y-96750000D03*
X166950000Y-96750000D03*
X165050000Y-101750000D03*
X166950000Y-101750000D03*
D29*
X107000000Y-85000000D03*
X107000000Y-92500000D03*
X107000000Y-81250000D03*
X194500000Y-92500000D03*
X194500000Y-81250000D03*
X194500000Y-88750000D03*
X194500000Y-85000000D03*
D30*
X176600000Y-86875000D03*
X124900000Y-86875000D03*
D28*
X177450000Y-96750000D03*
X175550000Y-96750000D03*
%LPD*%
M02*
