G04 #@! TF.GenerationSoftware,KiCad,Pcbnew,8.0.4*
G04 #@! TF.CreationDate,2024-09-22T20:29:30+02:00*
G04 #@! TF.ProjectId,Fader_Single,46616465-725f-4536-996e-676c652e6b69,rev?*
G04 #@! TF.SameCoordinates,Original*
G04 #@! TF.FileFunction,Copper,L2,Bot*
G04 #@! TF.FilePolarity,Positive*
%FSLAX46Y46*%
G04 Gerber Fmt 4.6, Leading zero omitted, Abs format (unit mm)*
G04 Created by KiCad (PCBNEW 8.0.4) date 2024-09-22 20:29:30*
%MOMM*%
%LPD*%
G01*
G04 APERTURE LIST*
G04 Aperture macros list*
%AMRoundRect*
0 Rectangle with rounded corners*
0 $1 Rounding radius*
0 $2 $3 $4 $5 $6 $7 $8 $9 X,Y pos of 4 corners*
0 Add a 4 corners polygon primitive as box body*
4,1,4,$2,$3,$4,$5,$6,$7,$8,$9,$2,$3,0*
0 Add four circle primitives for the rounded corners*
1,1,$1+$1,$2,$3*
1,1,$1+$1,$4,$5*
1,1,$1+$1,$6,$7*
1,1,$1+$1,$8,$9*
0 Add four rect primitives between the rounded corners*
20,1,$1+$1,$2,$3,$4,$5,0*
20,1,$1+$1,$4,$5,$6,$7,0*
20,1,$1+$1,$6,$7,$8,$9,0*
20,1,$1+$1,$8,$9,$2,$3,0*%
G04 Aperture macros list end*
G04 #@! TA.AperFunction,ComponentPad*
%ADD10C,0.600000*%
G04 #@! TD*
G04 #@! TA.AperFunction,SMDPad,CuDef*
%ADD11R,1.600000X0.900000*%
G04 #@! TD*
G04 #@! TA.AperFunction,ComponentPad*
%ADD12RoundRect,0.250001X-0.899999X-0.899999X0.899999X-0.899999X0.899999X0.899999X-0.899999X0.899999X0*%
G04 #@! TD*
G04 #@! TA.AperFunction,ComponentPad*
%ADD13C,2.300000*%
G04 #@! TD*
G04 #@! TA.AperFunction,ComponentPad*
%ADD14R,1.700000X1.700000*%
G04 #@! TD*
G04 #@! TA.AperFunction,ComponentPad*
%ADD15O,1.700000X1.700000*%
G04 #@! TD*
G04 #@! TA.AperFunction,ComponentPad*
%ADD16C,3.000000*%
G04 #@! TD*
G04 #@! TA.AperFunction,ViaPad*
%ADD17C,0.600000*%
G04 #@! TD*
G04 #@! TA.AperFunction,Conductor*
%ADD18C,1.000000*%
G04 #@! TD*
G04 #@! TA.AperFunction,Conductor*
%ADD19C,0.500000*%
G04 #@! TD*
G04 #@! TA.AperFunction,Conductor*
%ADD20C,0.400000*%
G04 #@! TD*
G04 #@! TA.AperFunction,Conductor*
%ADD21C,0.800000*%
G04 #@! TD*
G04 #@! TA.AperFunction,Conductor*
%ADD22C,0.300000*%
G04 #@! TD*
G04 APERTURE END LIST*
D10*
X190000000Y-100550000D03*
D11*
X190500000Y-100550000D03*
D10*
X191000000Y-100550000D03*
D12*
X188200000Y-106500000D03*
D13*
X193000000Y-106500000D03*
D14*
X149530000Y-104460000D03*
D15*
X149530000Y-107000000D03*
X146990000Y-104460000D03*
X146990000Y-107000000D03*
X144450000Y-104460000D03*
X144450000Y-107000000D03*
X141910000Y-104460000D03*
X141910000Y-107000000D03*
X139370000Y-104460000D03*
X139370000Y-107000000D03*
X136830000Y-104460000D03*
X136830000Y-107000000D03*
X134290000Y-104460000D03*
X134290000Y-107000000D03*
X131750000Y-104460000D03*
X131750000Y-107000000D03*
X129210000Y-104460000D03*
X129210000Y-107000000D03*
X126670000Y-104460000D03*
X126670000Y-107000000D03*
D14*
X156445000Y-106500000D03*
D15*
X158985000Y-106500000D03*
X161525000Y-106500000D03*
D14*
X166460000Y-106500000D03*
D15*
X169000000Y-106500000D03*
X171540000Y-106500000D03*
D14*
X117000000Y-107000000D03*
D15*
X119540000Y-107000000D03*
D14*
X109000000Y-107000000D03*
D15*
X111540000Y-107000000D03*
D16*
X107000000Y-85000000D03*
X107000000Y-92500000D03*
X107000000Y-81250000D03*
X194500000Y-92500000D03*
X194500000Y-81250000D03*
X194500000Y-88750000D03*
X194500000Y-85000000D03*
D17*
X124200000Y-105600000D03*
X192000000Y-86200000D03*
X190800000Y-96000000D03*
X191350000Y-102400000D03*
X182400000Y-101600000D03*
X177200000Y-103600000D03*
X140500000Y-97000000D03*
X153000000Y-107000000D03*
X196000000Y-107000000D03*
X194000000Y-97000000D03*
X186000000Y-92000000D03*
X183000000Y-88000000D03*
X170000000Y-88000000D03*
X151000000Y-88000000D03*
X131000000Y-88000000D03*
X111000000Y-93000000D03*
X115000000Y-87000000D03*
X189000000Y-80000000D03*
X173000000Y-80000000D03*
X151000000Y-80000000D03*
X132000000Y-80000000D03*
X112000000Y-80000000D03*
X122000000Y-96250000D03*
X123000000Y-101250000D03*
X145000000Y-97950000D03*
X135000000Y-100000000D03*
X175250000Y-95250000D03*
X182250000Y-95750000D03*
X184500000Y-103500000D03*
X184500000Y-101250000D03*
X184500000Y-99000000D03*
X182000000Y-107750000D03*
X173500000Y-103750000D03*
X174250000Y-107500000D03*
X173500000Y-106750000D03*
X164000000Y-106500000D03*
X159000000Y-101000000D03*
X159250000Y-97250000D03*
X154000000Y-101000000D03*
X154000000Y-97000000D03*
X149530000Y-98470000D03*
X124000000Y-107000000D03*
X122000000Y-107000000D03*
X114000000Y-107000000D03*
X106000000Y-100000000D03*
X111000000Y-96000000D03*
X120000000Y-82450003D03*
X188500000Y-93500000D03*
X188500000Y-98500000D03*
X165000000Y-95250000D03*
X165000000Y-84000000D03*
X179000000Y-84000000D03*
X179050000Y-91000000D03*
X189000000Y-103500000D03*
X120000000Y-96000000D03*
X192125000Y-102875000D03*
X124500000Y-102750000D03*
X136800000Y-101800000D03*
X177500000Y-93250000D03*
X177750000Y-98250000D03*
X142250000Y-91500000D03*
X140500000Y-92500000D03*
X178750000Y-103500000D03*
X153250000Y-99250000D03*
X173000000Y-95750000D03*
X181750000Y-103750000D03*
X180500000Y-102250000D03*
X181250000Y-102750000D03*
X190200000Y-89000000D03*
D18*
X125000000Y-102250000D02*
X124500000Y-102750000D01*
X136800000Y-101800000D02*
X136350000Y-102250000D01*
X136350000Y-102250000D02*
X125000000Y-102250000D01*
X144450000Y-104460000D02*
X146990000Y-104460000D01*
X144450000Y-102250000D02*
X144400000Y-102200000D01*
X144450000Y-104460000D02*
X144450000Y-102250000D01*
X146990000Y-102290000D02*
X146800000Y-102100000D01*
X146990000Y-104460000D02*
X146990000Y-102290000D01*
D19*
X149530000Y-98470000D02*
X149530000Y-104460000D01*
X120000000Y-82450003D02*
X120000000Y-96000000D01*
X192125000Y-102875000D02*
X191500000Y-103500000D01*
X191500000Y-103500000D02*
X189000000Y-103500000D01*
D20*
X179050000Y-91000000D02*
X179000000Y-90950000D01*
X179000000Y-90950000D02*
X179000000Y-84000000D01*
D21*
X188500000Y-98500000D02*
X188500000Y-93500000D01*
D22*
X181250000Y-102750000D02*
X181250000Y-99250000D01*
X181250000Y-99250000D02*
X188000000Y-92500000D01*
X188000000Y-92500000D02*
X194500000Y-92500000D01*
D21*
X165000000Y-95250000D02*
X165000000Y-84000000D01*
D22*
X177500000Y-93250000D02*
X177750000Y-93500000D01*
X141910000Y-104460000D02*
X141910000Y-91840000D01*
X141910000Y-91840000D02*
X142250000Y-91500000D01*
X177750000Y-93500000D02*
X177750000Y-98250000D01*
X140500000Y-92500000D02*
X139370000Y-93630000D01*
X139370000Y-93630000D02*
X139370000Y-104460000D01*
X153250000Y-99250000D02*
X174500000Y-99250000D01*
X174500000Y-99250000D02*
X178750000Y-103500000D01*
X173000000Y-95750000D02*
X173000000Y-96500000D01*
X180250000Y-103750000D02*
X181750000Y-103750000D01*
X173000000Y-96500000D02*
X180250000Y-103750000D01*
X180500000Y-102250000D02*
X180500000Y-95250000D01*
X180500000Y-95250000D02*
X194500000Y-81250000D01*
G04 #@! TA.AperFunction,Conductor*
G36*
X196442539Y-78520185D02*
G01*
X196488294Y-78572989D01*
X196499500Y-78624500D01*
X196499500Y-80251743D01*
X196479815Y-80318782D01*
X196427011Y-80364537D01*
X196357853Y-80374481D01*
X196294297Y-80345456D01*
X196266668Y-80311170D01*
X196187229Y-80165690D01*
X196187224Y-80165682D01*
X196015745Y-79936612D01*
X196015729Y-79936594D01*
X195813405Y-79734270D01*
X195813387Y-79734254D01*
X195584317Y-79562775D01*
X195584309Y-79562770D01*
X195333166Y-79425635D01*
X195333167Y-79425635D01*
X195225915Y-79385632D01*
X195065046Y-79325631D01*
X195065043Y-79325630D01*
X195065037Y-79325628D01*
X194785433Y-79264804D01*
X194500001Y-79244390D01*
X194499999Y-79244390D01*
X194214566Y-79264804D01*
X193934962Y-79325628D01*
X193666833Y-79425635D01*
X193415690Y-79562770D01*
X193415682Y-79562775D01*
X193186612Y-79734254D01*
X193186594Y-79734270D01*
X192984270Y-79936594D01*
X192984254Y-79936612D01*
X192812775Y-80165682D01*
X192812770Y-80165690D01*
X192675635Y-80416833D01*
X192575628Y-80684962D01*
X192514804Y-80964566D01*
X192494390Y-81249998D01*
X192494390Y-81250001D01*
X192514804Y-81535433D01*
X192575629Y-81815037D01*
X192575631Y-81815046D01*
X192625123Y-81947740D01*
X192667142Y-82060397D01*
X192672126Y-82130088D01*
X192638641Y-82191411D01*
X179994724Y-94835328D01*
X179951193Y-94900477D01*
X179951194Y-94900478D01*
X179923534Y-94941874D01*
X179874499Y-95060255D01*
X179874497Y-95060261D01*
X179849500Y-95185928D01*
X179849500Y-101744931D01*
X179830494Y-101810903D01*
X179774211Y-101900477D01*
X179774209Y-101900481D01*
X179721761Y-102050367D01*
X179681039Y-102107143D01*
X179616087Y-102132890D01*
X179547525Y-102119433D01*
X179517039Y-102097093D01*
X173716097Y-96296151D01*
X173682612Y-96234828D01*
X173687596Y-96165136D01*
X173698781Y-96142503D01*
X173725789Y-96099522D01*
X173785368Y-95929255D01*
X173797223Y-95824038D01*
X173805565Y-95750003D01*
X173805565Y-95749996D01*
X173785369Y-95570750D01*
X173785368Y-95570745D01*
X173725788Y-95400476D01*
X173629815Y-95247737D01*
X173502262Y-95120184D01*
X173349523Y-95024211D01*
X173179254Y-94964631D01*
X173179249Y-94964630D01*
X173000004Y-94944435D01*
X172999996Y-94944435D01*
X172820750Y-94964630D01*
X172820745Y-94964631D01*
X172650476Y-95024211D01*
X172497737Y-95120184D01*
X172370184Y-95247737D01*
X172274211Y-95400476D01*
X172214631Y-95570745D01*
X172214630Y-95570750D01*
X172194435Y-95749996D01*
X172194435Y-95750003D01*
X172214630Y-95929249D01*
X172214631Y-95929254D01*
X172274211Y-96099524D01*
X172330493Y-96189094D01*
X172349500Y-96255067D01*
X172349500Y-96564069D01*
X172366693Y-96650500D01*
X172374499Y-96689744D01*
X172423534Y-96808125D01*
X172494726Y-96914673D01*
X172494727Y-96914674D01*
X173967873Y-98387819D01*
X174001358Y-98449142D01*
X173996374Y-98518834D01*
X173954502Y-98574767D01*
X173889038Y-98599184D01*
X173880192Y-98599500D01*
X153755068Y-98599500D01*
X153689096Y-98580494D01*
X153599522Y-98524210D01*
X153599518Y-98524209D01*
X153429262Y-98464633D01*
X153429249Y-98464630D01*
X153250004Y-98444435D01*
X153249996Y-98444435D01*
X153070750Y-98464630D01*
X153070745Y-98464631D01*
X152900476Y-98524211D01*
X152747737Y-98620184D01*
X152620184Y-98747737D01*
X152524211Y-98900476D01*
X152464631Y-99070745D01*
X152464630Y-99070750D01*
X152444435Y-99249996D01*
X152444435Y-99250003D01*
X152464630Y-99429249D01*
X152464631Y-99429254D01*
X152524211Y-99599523D01*
X152560106Y-99656649D01*
X152620184Y-99752262D01*
X152747738Y-99879816D01*
X152900478Y-99975789D01*
X153070739Y-100035366D01*
X153070745Y-100035368D01*
X153070750Y-100035369D01*
X153249996Y-100055565D01*
X153250000Y-100055565D01*
X153250004Y-100055565D01*
X153429249Y-100035369D01*
X153429251Y-100035368D01*
X153429255Y-100035368D01*
X153429258Y-100035366D01*
X153429262Y-100035366D01*
X153519377Y-100003832D01*
X153599522Y-99975789D01*
X153689096Y-99919505D01*
X153755068Y-99900500D01*
X174179192Y-99900500D01*
X174246231Y-99920185D01*
X174266873Y-99936819D01*
X177928277Y-103598223D01*
X177961762Y-103659546D01*
X177963815Y-103672012D01*
X177964630Y-103679246D01*
X177964632Y-103679255D01*
X178024210Y-103849521D01*
X178090547Y-103955095D01*
X178120184Y-104002262D01*
X178247738Y-104129816D01*
X178338080Y-104186582D01*
X178393903Y-104221658D01*
X178400478Y-104225789D01*
X178570745Y-104285368D01*
X178570750Y-104285369D01*
X178749996Y-104305565D01*
X178750000Y-104305565D01*
X178750004Y-104305565D01*
X178929249Y-104285369D01*
X178929252Y-104285368D01*
X178929255Y-104285368D01*
X179099522Y-104225789D01*
X179252262Y-104129816D01*
X179379816Y-104002262D01*
X179379824Y-104002248D01*
X179383139Y-103998093D01*
X179440326Y-103957949D01*
X179510137Y-103955095D01*
X179567772Y-103987719D01*
X179835327Y-104255274D01*
X179886227Y-104289284D01*
X179941866Y-104326461D01*
X179941872Y-104326464D01*
X179941873Y-104326465D01*
X180060256Y-104375501D01*
X180060260Y-104375501D01*
X180060261Y-104375502D01*
X180185928Y-104400500D01*
X180185931Y-104400500D01*
X181244932Y-104400500D01*
X181310904Y-104419506D01*
X181400477Y-104475789D01*
X181400481Y-104475790D01*
X181570737Y-104535366D01*
X181570743Y-104535367D01*
X181570745Y-104535368D01*
X181570746Y-104535368D01*
X181570750Y-104535369D01*
X181749996Y-104555565D01*
X181750000Y-104555565D01*
X181750004Y-104555565D01*
X181929249Y-104535369D01*
X181929252Y-104535368D01*
X181929255Y-104535368D01*
X182099522Y-104475789D01*
X182252262Y-104379816D01*
X182379816Y-104252262D01*
X182475789Y-104099522D01*
X182535368Y-103929255D01*
X182547019Y-103825848D01*
X182555565Y-103750003D01*
X182555565Y-103749996D01*
X182535369Y-103570750D01*
X182535368Y-103570745D01*
X182520110Y-103527139D01*
X182510612Y-103499996D01*
X188194435Y-103499996D01*
X188194435Y-103500003D01*
X188214630Y-103679249D01*
X188214631Y-103679254D01*
X188274211Y-103849523D01*
X188340547Y-103955095D01*
X188370184Y-104002262D01*
X188497738Y-104129816D01*
X188588080Y-104186582D01*
X188643903Y-104221658D01*
X188650478Y-104225789D01*
X188820745Y-104285368D01*
X188820750Y-104285369D01*
X188999996Y-104305565D01*
X189000000Y-104305565D01*
X189000004Y-104305565D01*
X189179249Y-104285369D01*
X189179252Y-104285368D01*
X189179255Y-104285368D01*
X189259017Y-104257457D01*
X189299972Y-104250500D01*
X191573920Y-104250500D01*
X191671462Y-104231096D01*
X191718913Y-104221658D01*
X191855495Y-104165084D01*
X191914735Y-104125501D01*
X191978416Y-104082952D01*
X192433063Y-103628303D01*
X192469134Y-103605650D01*
X192468248Y-103603810D01*
X192474510Y-103600792D01*
X192474522Y-103600789D01*
X192627262Y-103504816D01*
X192754816Y-103377262D01*
X192850789Y-103224522D01*
X192910368Y-103054255D01*
X192910369Y-103054249D01*
X192930565Y-102875003D01*
X192930565Y-102874996D01*
X192910369Y-102695750D01*
X192910368Y-102695745D01*
X192866630Y-102570750D01*
X192850789Y-102525478D01*
X192754816Y-102372738D01*
X192627262Y-102245184D01*
X192626859Y-102244931D01*
X192474523Y-102149211D01*
X192304254Y-102089631D01*
X192304249Y-102089630D01*
X192125004Y-102069435D01*
X192124996Y-102069435D01*
X191945750Y-102089630D01*
X191945745Y-102089631D01*
X191775476Y-102149211D01*
X191622737Y-102245184D01*
X191495184Y-102372737D01*
X191399212Y-102525475D01*
X191396191Y-102531750D01*
X191394370Y-102530873D01*
X191371693Y-102566937D01*
X191225449Y-102713182D01*
X191164129Y-102746666D01*
X191137770Y-102749500D01*
X189299972Y-102749500D01*
X189259017Y-102742542D01*
X189179254Y-102714631D01*
X189179249Y-102714630D01*
X189000004Y-102694435D01*
X188999996Y-102694435D01*
X188820750Y-102714630D01*
X188820745Y-102714631D01*
X188650476Y-102774211D01*
X188497737Y-102870184D01*
X188370184Y-102997737D01*
X188274211Y-103150476D01*
X188214631Y-103320745D01*
X188214630Y-103320750D01*
X188194435Y-103499996D01*
X182510612Y-103499996D01*
X182475789Y-103400478D01*
X182470554Y-103392147D01*
X182427099Y-103322989D01*
X182379816Y-103247738D01*
X182252262Y-103120184D01*
X182235259Y-103109500D01*
X182095590Y-103021740D01*
X182049299Y-102969405D01*
X182038342Y-102902862D01*
X182055565Y-102750002D01*
X182055565Y-102749996D01*
X182035369Y-102570750D01*
X182035366Y-102570737D01*
X181975790Y-102400481D01*
X181975789Y-102400478D01*
X181954008Y-102365814D01*
X181919506Y-102310903D01*
X181900500Y-102244931D01*
X181900500Y-101047844D01*
X189200000Y-101047844D01*
X189206401Y-101107372D01*
X189206403Y-101107379D01*
X189256645Y-101242086D01*
X189256649Y-101242093D01*
X189342809Y-101357187D01*
X189342812Y-101357190D01*
X189457906Y-101443350D01*
X189457913Y-101443354D01*
X189592620Y-101493596D01*
X189592627Y-101493598D01*
X189652155Y-101499999D01*
X189652172Y-101500000D01*
X190250000Y-101500000D01*
X190250000Y-101153553D01*
X190249999Y-101153552D01*
X190750000Y-101153552D01*
X190750000Y-101500000D01*
X191347828Y-101500000D01*
X191347844Y-101499999D01*
X191407372Y-101493598D01*
X191407379Y-101493596D01*
X191542086Y-101443354D01*
X191542093Y-101443350D01*
X191657187Y-101357190D01*
X191657190Y-101357187D01*
X191743350Y-101242093D01*
X191743354Y-101242086D01*
X191793596Y-101107379D01*
X191793598Y-101107372D01*
X191799999Y-101047844D01*
X191800000Y-101047827D01*
X191800000Y-100800000D01*
X191103552Y-100800000D01*
X190750000Y-101153552D01*
X190249999Y-101153552D01*
X189896447Y-100800000D01*
X189200000Y-100800000D01*
X189200000Y-101047844D01*
X181900500Y-101047844D01*
X181900500Y-100525136D01*
X189875000Y-100525136D01*
X189875000Y-100574864D01*
X189894030Y-100620807D01*
X189929193Y-100655970D01*
X189975136Y-100675000D01*
X190024864Y-100675000D01*
X190070807Y-100655970D01*
X190105970Y-100620807D01*
X190125000Y-100574864D01*
X190125000Y-100525136D01*
X190875000Y-100525136D01*
X190875000Y-100574864D01*
X190894030Y-100620807D01*
X190929193Y-100655970D01*
X190975136Y-100675000D01*
X191024864Y-100675000D01*
X191070807Y-100655970D01*
X191105970Y-100620807D01*
X191125000Y-100574864D01*
X191125000Y-100525136D01*
X191105970Y-100479193D01*
X191070807Y-100444030D01*
X191024864Y-100425000D01*
X190975136Y-100425000D01*
X190929193Y-100444030D01*
X190894030Y-100479193D01*
X190875000Y-100525136D01*
X190125000Y-100525136D01*
X190105970Y-100479193D01*
X190070807Y-100444030D01*
X190024864Y-100425000D01*
X189975136Y-100425000D01*
X189929193Y-100444030D01*
X189894030Y-100479193D01*
X189875000Y-100525136D01*
X181900500Y-100525136D01*
X181900500Y-100052155D01*
X189200000Y-100052155D01*
X189200000Y-100300000D01*
X189896447Y-100300000D01*
X189896447Y-100299999D01*
X190000000Y-100196447D01*
X190249999Y-99946446D01*
X190750000Y-99946446D01*
X191000000Y-100196447D01*
X191103553Y-100300000D01*
X191800000Y-100300000D01*
X191800000Y-100052172D01*
X191799999Y-100052155D01*
X191793598Y-99992627D01*
X191793596Y-99992620D01*
X191743354Y-99857913D01*
X191743350Y-99857906D01*
X191657190Y-99742812D01*
X191657187Y-99742809D01*
X191542093Y-99656649D01*
X191542086Y-99656645D01*
X191407379Y-99606403D01*
X191407372Y-99606401D01*
X191347844Y-99600000D01*
X190750000Y-99600000D01*
X190750000Y-99946446D01*
X190249999Y-99946446D01*
X190250000Y-99946445D01*
X190250000Y-99600000D01*
X189652155Y-99600000D01*
X189592627Y-99606401D01*
X189592620Y-99606403D01*
X189457913Y-99656645D01*
X189457906Y-99656649D01*
X189342812Y-99742809D01*
X189342809Y-99742812D01*
X189256649Y-99857906D01*
X189256645Y-99857913D01*
X189206403Y-99992620D01*
X189206401Y-99992627D01*
X189200000Y-100052155D01*
X181900500Y-100052155D01*
X181900500Y-99570808D01*
X181920185Y-99503769D01*
X181936819Y-99483127D01*
X187387819Y-94032127D01*
X187449142Y-93998642D01*
X187518834Y-94003626D01*
X187574767Y-94045498D01*
X187599184Y-94110962D01*
X187599500Y-94119808D01*
X187599500Y-98588695D01*
X187634103Y-98762658D01*
X187634106Y-98762667D01*
X187701983Y-98926540D01*
X187701990Y-98926553D01*
X187800535Y-99074034D01*
X187800538Y-99074038D01*
X187925961Y-99199461D01*
X187925965Y-99199464D01*
X188073446Y-99298009D01*
X188073459Y-99298016D01*
X188196363Y-99348923D01*
X188237334Y-99365894D01*
X188237336Y-99365894D01*
X188237341Y-99365896D01*
X188411304Y-99400499D01*
X188411307Y-99400500D01*
X188411309Y-99400500D01*
X188588693Y-99400500D01*
X188588694Y-99400499D01*
X188646682Y-99388964D01*
X188762658Y-99365896D01*
X188762661Y-99365894D01*
X188762666Y-99365894D01*
X188926547Y-99298013D01*
X189074035Y-99199464D01*
X189199464Y-99074035D01*
X189298013Y-98926547D01*
X189365894Y-98762666D01*
X189367964Y-98752262D01*
X189398345Y-98599523D01*
X189400500Y-98588691D01*
X189400500Y-93411309D01*
X189400500Y-93411306D01*
X189378099Y-93298692D01*
X189384326Y-93229100D01*
X189427189Y-93173923D01*
X189493078Y-93150678D01*
X189499716Y-93150500D01*
X192521409Y-93150500D01*
X192588448Y-93170185D01*
X192634203Y-93222989D01*
X192637589Y-93231162D01*
X192671420Y-93321866D01*
X192675635Y-93333166D01*
X192812770Y-93584309D01*
X192812775Y-93584317D01*
X192984254Y-93813387D01*
X192984270Y-93813405D01*
X193186594Y-94015729D01*
X193186612Y-94015745D01*
X193415682Y-94187224D01*
X193415690Y-94187229D01*
X193666833Y-94324364D01*
X193666832Y-94324364D01*
X193666836Y-94324365D01*
X193666839Y-94324367D01*
X193934954Y-94424369D01*
X193934960Y-94424370D01*
X193934962Y-94424371D01*
X194214566Y-94485195D01*
X194214568Y-94485195D01*
X194214572Y-94485196D01*
X194468220Y-94503337D01*
X194499999Y-94505610D01*
X194500000Y-94505610D01*
X194500001Y-94505610D01*
X194528595Y-94503564D01*
X194785428Y-94485196D01*
X195065046Y-94424369D01*
X195333161Y-94324367D01*
X195584315Y-94187226D01*
X195813395Y-94015739D01*
X196015739Y-93813395D01*
X196187226Y-93584315D01*
X196265886Y-93440261D01*
X196266668Y-93438829D01*
X196316073Y-93389424D01*
X196384346Y-93374572D01*
X196449811Y-93398989D01*
X196491682Y-93454923D01*
X196499500Y-93498256D01*
X196499500Y-108375500D01*
X196479815Y-108442539D01*
X196427011Y-108488294D01*
X196375500Y-108499500D01*
X150069196Y-108499500D01*
X150002157Y-108479815D01*
X149956402Y-108427011D01*
X149946458Y-108357853D01*
X149975483Y-108294297D01*
X150016791Y-108263118D01*
X150207830Y-108174035D01*
X150401401Y-108038495D01*
X150568495Y-107871401D01*
X150704035Y-107677830D01*
X150803903Y-107463663D01*
X150865063Y-107235408D01*
X150885659Y-107000000D01*
X150865063Y-106764592D01*
X150818626Y-106591285D01*
X150803905Y-106536344D01*
X150803904Y-106536343D01*
X150803903Y-106536337D01*
X150704035Y-106322171D01*
X150698730Y-106314595D01*
X150568496Y-106128600D01*
X150510471Y-106070575D01*
X150446567Y-106006671D01*
X150413084Y-105945351D01*
X150418068Y-105875659D01*
X150459939Y-105819725D01*
X150490915Y-105802810D01*
X150622331Y-105753796D01*
X150737546Y-105667546D01*
X150786513Y-105602135D01*
X155094500Y-105602135D01*
X155094500Y-107397870D01*
X155094501Y-107397876D01*
X155100908Y-107457483D01*
X155151202Y-107592328D01*
X155151206Y-107592335D01*
X155237452Y-107707544D01*
X155237455Y-107707547D01*
X155352664Y-107793793D01*
X155352671Y-107793797D01*
X155487517Y-107844091D01*
X155487516Y-107844091D01*
X155494444Y-107844835D01*
X155547127Y-107850500D01*
X157342872Y-107850499D01*
X157402483Y-107844091D01*
X157537331Y-107793796D01*
X157652546Y-107707546D01*
X157738796Y-107592331D01*
X157787810Y-107460916D01*
X157829681Y-107404984D01*
X157895145Y-107380566D01*
X157963418Y-107395417D01*
X157991673Y-107416569D01*
X158113599Y-107538495D01*
X158210384Y-107606265D01*
X158307165Y-107674032D01*
X158307167Y-107674033D01*
X158307170Y-107674035D01*
X158521337Y-107773903D01*
X158749592Y-107835063D01*
X158926034Y-107850500D01*
X158984999Y-107855659D01*
X158985000Y-107855659D01*
X158985001Y-107855659D01*
X159043966Y-107850500D01*
X159220408Y-107835063D01*
X159448663Y-107773903D01*
X159662830Y-107674035D01*
X159856401Y-107538495D01*
X160023495Y-107371401D01*
X160153730Y-107185405D01*
X160208307Y-107141781D01*
X160277805Y-107134587D01*
X160340160Y-107166110D01*
X160356879Y-107185405D01*
X160486890Y-107371078D01*
X160653917Y-107538105D01*
X160847421Y-107673600D01*
X161061507Y-107773429D01*
X161061516Y-107773433D01*
X161275000Y-107830634D01*
X161275000Y-106933012D01*
X161332007Y-106965925D01*
X161459174Y-107000000D01*
X161590826Y-107000000D01*
X161717993Y-106965925D01*
X161775000Y-106933012D01*
X161775000Y-107830634D01*
X161988483Y-107773433D01*
X161988492Y-107773429D01*
X162202578Y-107673600D01*
X162396082Y-107538105D01*
X162563105Y-107371082D01*
X162698600Y-107177578D01*
X162798429Y-106963492D01*
X162798432Y-106963486D01*
X162855636Y-106750000D01*
X161958012Y-106750000D01*
X161990925Y-106692993D01*
X162025000Y-106565826D01*
X162025000Y-106434174D01*
X161990925Y-106307007D01*
X161958012Y-106250000D01*
X162855636Y-106250000D01*
X162855635Y-106249999D01*
X162798432Y-106036513D01*
X162798429Y-106036507D01*
X162698600Y-105822422D01*
X162698599Y-105822420D01*
X162563113Y-105628926D01*
X162563108Y-105628920D01*
X162536323Y-105602135D01*
X165109500Y-105602135D01*
X165109500Y-107397870D01*
X165109501Y-107397876D01*
X165115908Y-107457483D01*
X165166202Y-107592328D01*
X165166206Y-107592335D01*
X165252452Y-107707544D01*
X165252455Y-107707547D01*
X165367664Y-107793793D01*
X165367671Y-107793797D01*
X165502517Y-107844091D01*
X165502516Y-107844091D01*
X165509444Y-107844835D01*
X165562127Y-107850500D01*
X167357872Y-107850499D01*
X167417483Y-107844091D01*
X167552331Y-107793796D01*
X167667546Y-107707546D01*
X167753796Y-107592331D01*
X167802810Y-107460916D01*
X167844681Y-107404984D01*
X167910145Y-107380566D01*
X167978418Y-107395417D01*
X168006673Y-107416569D01*
X168128599Y-107538495D01*
X168225384Y-107606265D01*
X168322165Y-107674032D01*
X168322167Y-107674033D01*
X168322170Y-107674035D01*
X168536337Y-107773903D01*
X168764592Y-107835063D01*
X168941034Y-107850500D01*
X168999999Y-107855659D01*
X169000000Y-107855659D01*
X169000001Y-107855659D01*
X169058966Y-107850500D01*
X169235408Y-107835063D01*
X169463663Y-107773903D01*
X169677830Y-107674035D01*
X169871401Y-107538495D01*
X170038495Y-107371401D01*
X170168730Y-107185405D01*
X170223307Y-107141781D01*
X170292805Y-107134587D01*
X170355160Y-107166110D01*
X170371879Y-107185405D01*
X170501890Y-107371078D01*
X170668917Y-107538105D01*
X170862421Y-107673600D01*
X171076507Y-107773429D01*
X171076516Y-107773433D01*
X171290000Y-107830634D01*
X171290000Y-106933012D01*
X171347007Y-106965925D01*
X171474174Y-107000000D01*
X171605826Y-107000000D01*
X171732993Y-106965925D01*
X171790000Y-106933012D01*
X171790000Y-107830633D01*
X172003483Y-107773433D01*
X172003492Y-107773429D01*
X172217578Y-107673600D01*
X172411082Y-107538105D01*
X172578105Y-107371082D01*
X172713600Y-107177578D01*
X172813429Y-106963492D01*
X172813432Y-106963486D01*
X172870636Y-106750000D01*
X171973012Y-106750000D01*
X172005925Y-106692993D01*
X172040000Y-106565826D01*
X172040000Y-106434174D01*
X172005925Y-106307007D01*
X171973012Y-106250000D01*
X172870636Y-106250000D01*
X172870635Y-106249999D01*
X172813432Y-106036513D01*
X172813429Y-106036507D01*
X172713600Y-105822422D01*
X172713599Y-105822420D01*
X172578113Y-105628926D01*
X172578108Y-105628920D01*
X172499172Y-105549984D01*
X186549500Y-105549984D01*
X186549500Y-107450015D01*
X186560000Y-107552795D01*
X186560001Y-107552796D01*
X186615186Y-107719335D01*
X186615187Y-107719337D01*
X186707286Y-107868651D01*
X186707289Y-107868655D01*
X186831344Y-107992710D01*
X186831348Y-107992713D01*
X186980662Y-108084812D01*
X186980664Y-108084813D01*
X186980666Y-108084814D01*
X187147203Y-108139999D01*
X187249992Y-108150500D01*
X187249997Y-108150500D01*
X189150003Y-108150500D01*
X189150008Y-108150500D01*
X189252797Y-108139999D01*
X189419334Y-108084814D01*
X189568655Y-107992711D01*
X189692711Y-107868655D01*
X189784814Y-107719334D01*
X189839999Y-107552797D01*
X189850500Y-107450008D01*
X189850500Y-106500000D01*
X191344396Y-106500000D01*
X191364778Y-106758990D01*
X191425427Y-107011610D01*
X191524843Y-107251623D01*
X191524845Y-107251627D01*
X191524846Y-107251628D01*
X191660588Y-107473140D01*
X191829311Y-107670689D01*
X192026860Y-107839412D01*
X192248372Y-107975154D01*
X192248374Y-107975154D01*
X192248376Y-107975156D01*
X192290756Y-107992710D01*
X192488390Y-108074573D01*
X192741006Y-108135221D01*
X193000000Y-108155604D01*
X193258994Y-108135221D01*
X193511610Y-108074573D01*
X193751628Y-107975154D01*
X193973140Y-107839412D01*
X194170689Y-107670689D01*
X194339412Y-107473140D01*
X194475154Y-107251628D01*
X194574573Y-107011610D01*
X194635221Y-106758994D01*
X194655604Y-106500000D01*
X194635221Y-106241006D01*
X194574573Y-105988390D01*
X194505723Y-105822171D01*
X194475156Y-105748376D01*
X194463895Y-105730000D01*
X194339412Y-105526860D01*
X194170689Y-105329311D01*
X193973140Y-105160588D01*
X193751628Y-105024846D01*
X193751627Y-105024845D01*
X193751623Y-105024843D01*
X193585627Y-104956086D01*
X193511610Y-104925427D01*
X193511611Y-104925427D01*
X193373921Y-104892370D01*
X193258994Y-104864779D01*
X193258992Y-104864778D01*
X193258991Y-104864778D01*
X193000000Y-104844396D01*
X192741009Y-104864778D01*
X192488389Y-104925427D01*
X192248376Y-105024843D01*
X192026859Y-105160588D01*
X191829311Y-105329311D01*
X191660588Y-105526859D01*
X191524843Y-105748376D01*
X191425427Y-105988389D01*
X191364778Y-106241009D01*
X191344396Y-106500000D01*
X189850500Y-106500000D01*
X189850500Y-105549992D01*
X189839999Y-105447203D01*
X189784814Y-105280666D01*
X189751155Y-105226097D01*
X189692713Y-105131348D01*
X189692710Y-105131344D01*
X189568655Y-105007289D01*
X189568651Y-105007286D01*
X189419337Y-104915187D01*
X189419335Y-104915186D01*
X189336065Y-104887593D01*
X189252797Y-104860001D01*
X189252795Y-104860000D01*
X189150015Y-104849500D01*
X189150008Y-104849500D01*
X187249992Y-104849500D01*
X187249984Y-104849500D01*
X187147204Y-104860000D01*
X187147203Y-104860001D01*
X186980664Y-104915186D01*
X186980662Y-104915187D01*
X186831348Y-105007286D01*
X186831344Y-105007289D01*
X186707289Y-105131344D01*
X186707286Y-105131348D01*
X186615187Y-105280662D01*
X186615186Y-105280664D01*
X186560001Y-105447203D01*
X186560000Y-105447204D01*
X186549500Y-105549984D01*
X172499172Y-105549984D01*
X172411082Y-105461894D01*
X172217578Y-105326399D01*
X172003492Y-105226570D01*
X172003486Y-105226567D01*
X171790000Y-105169364D01*
X171790000Y-106066988D01*
X171732993Y-106034075D01*
X171605826Y-106000000D01*
X171474174Y-106000000D01*
X171347007Y-106034075D01*
X171290000Y-106066988D01*
X171290000Y-105169364D01*
X171289999Y-105169364D01*
X171076513Y-105226567D01*
X171076507Y-105226570D01*
X170862422Y-105326399D01*
X170862420Y-105326400D01*
X170668926Y-105461886D01*
X170668920Y-105461891D01*
X170501891Y-105628920D01*
X170501890Y-105628922D01*
X170371880Y-105814595D01*
X170317303Y-105858219D01*
X170247804Y-105865412D01*
X170185450Y-105833890D01*
X170168730Y-105814594D01*
X170038494Y-105628597D01*
X169871402Y-105461506D01*
X169871395Y-105461501D01*
X169677834Y-105325967D01*
X169677830Y-105325965D01*
X169677828Y-105325964D01*
X169463663Y-105226097D01*
X169463659Y-105226096D01*
X169463655Y-105226094D01*
X169235413Y-105164938D01*
X169235403Y-105164936D01*
X169000001Y-105144341D01*
X168999999Y-105144341D01*
X168764596Y-105164936D01*
X168764586Y-105164938D01*
X168536344Y-105226094D01*
X168536335Y-105226098D01*
X168322171Y-105325964D01*
X168322169Y-105325965D01*
X168128600Y-105461503D01*
X168006673Y-105583430D01*
X167945350Y-105616914D01*
X167875658Y-105611930D01*
X167819725Y-105570058D01*
X167802810Y-105539081D01*
X167753797Y-105407671D01*
X167753793Y-105407664D01*
X167667547Y-105292455D01*
X167667544Y-105292452D01*
X167552335Y-105206206D01*
X167552328Y-105206202D01*
X167417482Y-105155908D01*
X167417483Y-105155908D01*
X167357883Y-105149501D01*
X167357881Y-105149500D01*
X167357873Y-105149500D01*
X167357864Y-105149500D01*
X165562129Y-105149500D01*
X165562123Y-105149501D01*
X165502516Y-105155908D01*
X165367671Y-105206202D01*
X165367664Y-105206206D01*
X165252455Y-105292452D01*
X165252452Y-105292455D01*
X165166206Y-105407664D01*
X165166202Y-105407671D01*
X165115908Y-105542517D01*
X165109501Y-105602116D01*
X165109500Y-105602135D01*
X162536323Y-105602135D01*
X162396082Y-105461894D01*
X162202578Y-105326399D01*
X161988492Y-105226570D01*
X161988486Y-105226567D01*
X161775000Y-105169364D01*
X161775000Y-106066988D01*
X161717993Y-106034075D01*
X161590826Y-106000000D01*
X161459174Y-106000000D01*
X161332007Y-106034075D01*
X161275000Y-106066988D01*
X161275000Y-105169364D01*
X161274999Y-105169364D01*
X161061513Y-105226567D01*
X161061507Y-105226570D01*
X160847422Y-105326399D01*
X160847420Y-105326400D01*
X160653926Y-105461886D01*
X160653920Y-105461891D01*
X160486891Y-105628920D01*
X160486890Y-105628922D01*
X160356880Y-105814595D01*
X160302303Y-105858219D01*
X160232804Y-105865412D01*
X160170450Y-105833890D01*
X160153730Y-105814594D01*
X160023494Y-105628597D01*
X159856402Y-105461506D01*
X159856395Y-105461501D01*
X159662834Y-105325967D01*
X159662830Y-105325965D01*
X159662828Y-105325964D01*
X159448663Y-105226097D01*
X159448659Y-105226096D01*
X159448655Y-105226094D01*
X159220413Y-105164938D01*
X159220403Y-105164936D01*
X158985001Y-105144341D01*
X158984999Y-105144341D01*
X158749596Y-105164936D01*
X158749586Y-105164938D01*
X158521344Y-105226094D01*
X158521335Y-105226098D01*
X158307171Y-105325964D01*
X158307169Y-105325965D01*
X158113600Y-105461503D01*
X157991673Y-105583430D01*
X157930350Y-105616914D01*
X157860658Y-105611930D01*
X157804725Y-105570058D01*
X157787810Y-105539081D01*
X157738797Y-105407671D01*
X157738793Y-105407664D01*
X157652547Y-105292455D01*
X157652544Y-105292452D01*
X157537335Y-105206206D01*
X157537328Y-105206202D01*
X157402482Y-105155908D01*
X157402483Y-105155908D01*
X157342883Y-105149501D01*
X157342881Y-105149500D01*
X157342873Y-105149500D01*
X157342864Y-105149500D01*
X155547129Y-105149500D01*
X155547123Y-105149501D01*
X155487516Y-105155908D01*
X155352671Y-105206202D01*
X155352664Y-105206206D01*
X155237455Y-105292452D01*
X155237452Y-105292455D01*
X155151206Y-105407664D01*
X155151202Y-105407671D01*
X155100908Y-105542517D01*
X155094501Y-105602116D01*
X155094500Y-105602135D01*
X150786513Y-105602135D01*
X150823796Y-105552331D01*
X150874091Y-105417483D01*
X150880500Y-105357873D01*
X150880499Y-103562128D01*
X150874091Y-103502517D01*
X150873153Y-103500003D01*
X150823797Y-103367671D01*
X150823793Y-103367664D01*
X150737547Y-103252455D01*
X150737544Y-103252452D01*
X150622335Y-103166206D01*
X150622328Y-103166202D01*
X150487482Y-103115908D01*
X150487483Y-103115908D01*
X150427883Y-103109501D01*
X150427881Y-103109500D01*
X150427873Y-103109500D01*
X150427865Y-103109500D01*
X150404500Y-103109500D01*
X150337461Y-103089815D01*
X150291706Y-103037011D01*
X150280500Y-102985500D01*
X150280500Y-98769972D01*
X150287458Y-98729017D01*
X150315368Y-98649254D01*
X150315369Y-98649249D01*
X150335565Y-98470003D01*
X150335565Y-98469996D01*
X150315369Y-98290750D01*
X150315368Y-98290745D01*
X150255789Y-98120478D01*
X150159816Y-97967738D01*
X150032262Y-97840184D01*
X149937524Y-97780656D01*
X149879523Y-97744211D01*
X149709254Y-97684631D01*
X149709249Y-97684630D01*
X149530004Y-97664435D01*
X149529996Y-97664435D01*
X149350750Y-97684630D01*
X149350745Y-97684631D01*
X149180476Y-97744211D01*
X149027737Y-97840184D01*
X148900184Y-97967737D01*
X148804211Y-98120476D01*
X148744631Y-98290745D01*
X148744630Y-98290750D01*
X148724435Y-98469996D01*
X148724435Y-98470003D01*
X148744630Y-98649249D01*
X148744631Y-98649254D01*
X148772542Y-98729017D01*
X148779500Y-98769972D01*
X148779500Y-102985500D01*
X148759815Y-103052539D01*
X148707011Y-103098294D01*
X148655505Y-103109500D01*
X148632132Y-103109500D01*
X148632123Y-103109501D01*
X148572516Y-103115908D01*
X148437671Y-103166202D01*
X148437664Y-103166206D01*
X148322455Y-103252452D01*
X148322452Y-103252455D01*
X148236206Y-103367664D01*
X148236202Y-103367671D01*
X148186997Y-103499598D01*
X148145126Y-103555532D01*
X148079661Y-103579949D01*
X148011388Y-103565097D01*
X147983134Y-103543946D01*
X147861082Y-103421894D01*
X147667578Y-103286399D01*
X147453492Y-103186570D01*
X147453486Y-103186567D01*
X147240000Y-103129364D01*
X147240000Y-104026988D01*
X147182993Y-103994075D01*
X147055826Y-103960000D01*
X146924174Y-103960000D01*
X146797007Y-103994075D01*
X146740000Y-104026988D01*
X146740000Y-103129364D01*
X146739999Y-103129364D01*
X146526513Y-103186567D01*
X146526507Y-103186570D01*
X146312422Y-103286399D01*
X146312420Y-103286400D01*
X146118926Y-103421886D01*
X146118920Y-103421891D01*
X145951891Y-103588920D01*
X145951890Y-103588922D01*
X145821575Y-103775031D01*
X145766998Y-103818655D01*
X145697499Y-103825848D01*
X145635145Y-103794326D01*
X145618425Y-103775031D01*
X145488109Y-103588922D01*
X145488108Y-103588920D01*
X145321082Y-103421894D01*
X145127578Y-103286399D01*
X144913492Y-103186570D01*
X144913486Y-103186567D01*
X144700000Y-103129364D01*
X144700000Y-104026988D01*
X144642993Y-103994075D01*
X144515826Y-103960000D01*
X144384174Y-103960000D01*
X144257007Y-103994075D01*
X144200000Y-104026988D01*
X144200000Y-103129364D01*
X144199999Y-103129364D01*
X143986513Y-103186567D01*
X143986507Y-103186570D01*
X143772422Y-103286399D01*
X143772420Y-103286400D01*
X143578926Y-103421886D01*
X143578920Y-103421891D01*
X143411891Y-103588920D01*
X143411890Y-103588922D01*
X143281880Y-103774595D01*
X143227303Y-103818219D01*
X143157804Y-103825412D01*
X143095450Y-103793890D01*
X143078730Y-103774594D01*
X142948494Y-103588597D01*
X142781402Y-103421506D01*
X142781401Y-103421505D01*
X142640706Y-103322989D01*
X142613376Y-103303852D01*
X142569751Y-103249275D01*
X142560500Y-103202277D01*
X142560500Y-92318840D01*
X142580185Y-92251801D01*
X142618525Y-92213847D01*
X142752262Y-92129816D01*
X142879816Y-92002262D01*
X142975789Y-91849522D01*
X143035368Y-91679255D01*
X143038635Y-91650261D01*
X143055565Y-91500003D01*
X143055565Y-91499996D01*
X143035369Y-91320750D01*
X143035368Y-91320745D01*
X142988430Y-91186605D01*
X142975789Y-91150478D01*
X142879816Y-90997738D01*
X142752262Y-90870184D01*
X142599523Y-90774211D01*
X142429254Y-90714631D01*
X142429249Y-90714630D01*
X142250004Y-90694435D01*
X142249996Y-90694435D01*
X142070750Y-90714630D01*
X142070745Y-90714631D01*
X141900476Y-90774211D01*
X141747737Y-90870184D01*
X141620184Y-90997737D01*
X141524210Y-91150478D01*
X141464632Y-91320744D01*
X141464630Y-91320752D01*
X141463815Y-91327988D01*
X141436743Y-91392400D01*
X141428279Y-91401774D01*
X141404720Y-91425332D01*
X141404720Y-91425333D01*
X141354833Y-91499998D01*
X141354832Y-91499999D01*
X141333536Y-91531870D01*
X141333534Y-91531874D01*
X141284499Y-91650255D01*
X141284497Y-91650261D01*
X141259500Y-91775928D01*
X141259500Y-91828060D01*
X141239815Y-91895099D01*
X141187011Y-91940854D01*
X141117853Y-91950798D01*
X141054297Y-91921773D01*
X141047819Y-91915741D01*
X141002262Y-91870184D01*
X140849523Y-91774211D01*
X140679254Y-91714631D01*
X140679249Y-91714630D01*
X140500004Y-91694435D01*
X140499996Y-91694435D01*
X140320750Y-91714630D01*
X140320745Y-91714631D01*
X140150476Y-91774211D01*
X139997737Y-91870184D01*
X139870184Y-91997737D01*
X139774210Y-92150478D01*
X139714632Y-92320744D01*
X139714630Y-92320752D01*
X139713815Y-92327988D01*
X139686743Y-92392400D01*
X139678277Y-92401775D01*
X138864724Y-93215328D01*
X138801296Y-93310257D01*
X138793539Y-93321866D01*
X138793533Y-93321877D01*
X138744499Y-93440255D01*
X138744497Y-93440261D01*
X138719500Y-93565928D01*
X138719500Y-103202278D01*
X138699815Y-103269317D01*
X138666623Y-103303853D01*
X138498597Y-103421505D01*
X138331505Y-103588597D01*
X138201575Y-103774158D01*
X138146998Y-103817783D01*
X138077500Y-103824977D01*
X138015145Y-103793454D01*
X137998425Y-103774158D01*
X137868494Y-103588597D01*
X137701402Y-103421506D01*
X137701395Y-103421501D01*
X137671368Y-103400476D01*
X137659473Y-103392147D01*
X137507834Y-103285967D01*
X137507830Y-103285965D01*
X137472128Y-103269317D01*
X137293663Y-103186097D01*
X137293659Y-103186096D01*
X137293655Y-103186094D01*
X137134512Y-103143453D01*
X137074851Y-103107088D01*
X137044322Y-103044241D01*
X137052617Y-102974866D01*
X137078924Y-102935997D01*
X137085666Y-102929255D01*
X137127139Y-102887782D01*
X137127139Y-102887780D01*
X137134196Y-102880724D01*
X137134201Y-102880717D01*
X137577139Y-102437781D01*
X137686631Y-102273914D01*
X137762051Y-102091836D01*
X137800500Y-101898540D01*
X137800500Y-101701460D01*
X137800500Y-101701457D01*
X137800499Y-101701455D01*
X137782749Y-101612221D01*
X137762051Y-101508164D01*
X137686631Y-101326086D01*
X137686629Y-101326083D01*
X137686627Y-101326079D01*
X137577139Y-101162219D01*
X137577136Y-101162215D01*
X137437784Y-101022863D01*
X137437780Y-101022860D01*
X137273920Y-100913372D01*
X137273910Y-100913367D01*
X137091836Y-100837949D01*
X137091828Y-100837947D01*
X136898543Y-100799500D01*
X136898540Y-100799500D01*
X136701460Y-100799500D01*
X136701457Y-100799500D01*
X136508171Y-100837947D01*
X136508163Y-100837949D01*
X136326089Y-100913367D01*
X136326079Y-100913372D01*
X136162219Y-101022860D01*
X136162215Y-101022863D01*
X135971899Y-101213181D01*
X135910576Y-101246666D01*
X135884218Y-101249500D01*
X124901458Y-101249500D01*
X124882662Y-101253239D01*
X124845068Y-101260717D01*
X124708170Y-101287947D01*
X124708160Y-101287950D01*
X124684531Y-101297738D01*
X124526088Y-101363366D01*
X124526079Y-101363371D01*
X124362219Y-101472859D01*
X124326916Y-101508163D01*
X124222861Y-101612218D01*
X123722863Y-102112215D01*
X123722860Y-102112219D01*
X123613372Y-102276079D01*
X123613367Y-102276089D01*
X123537949Y-102458163D01*
X123537947Y-102458171D01*
X123499500Y-102651455D01*
X123499500Y-102848544D01*
X123537947Y-103041828D01*
X123537949Y-103041836D01*
X123613367Y-103223910D01*
X123613372Y-103223920D01*
X123722860Y-103387780D01*
X123722863Y-103387784D01*
X123862215Y-103527136D01*
X123862219Y-103527139D01*
X124026079Y-103636627D01*
X124026083Y-103636629D01*
X124026086Y-103636631D01*
X124208164Y-103712051D01*
X124398926Y-103749996D01*
X124401455Y-103750499D01*
X124401458Y-103750500D01*
X124401460Y-103750500D01*
X124598542Y-103750500D01*
X124598543Y-103750499D01*
X124791836Y-103712051D01*
X124973914Y-103636631D01*
X125137781Y-103527139D01*
X125378101Y-103286819D01*
X125439424Y-103253334D01*
X125465782Y-103250500D01*
X125670241Y-103250500D01*
X125737280Y-103270185D01*
X125783035Y-103322989D01*
X125792979Y-103392147D01*
X125763954Y-103455703D01*
X125757922Y-103462181D01*
X125631505Y-103588597D01*
X125495965Y-103782169D01*
X125495964Y-103782171D01*
X125396098Y-103996335D01*
X125396094Y-103996344D01*
X125334938Y-104224586D01*
X125334936Y-104224596D01*
X125314341Y-104459999D01*
X125314341Y-104460000D01*
X125334936Y-104695403D01*
X125334938Y-104695413D01*
X125396094Y-104923655D01*
X125396096Y-104923659D01*
X125396097Y-104923663D01*
X125476004Y-105095023D01*
X125495965Y-105137830D01*
X125495967Y-105137834D01*
X125595980Y-105280666D01*
X125631505Y-105331401D01*
X125798599Y-105498495D01*
X125900801Y-105570058D01*
X125984594Y-105628730D01*
X126028219Y-105683307D01*
X126035413Y-105752805D01*
X126003890Y-105815160D01*
X125984595Y-105831880D01*
X125798922Y-105961890D01*
X125798920Y-105961891D01*
X125631891Y-106128920D01*
X125631886Y-106128926D01*
X125496400Y-106322420D01*
X125496399Y-106322422D01*
X125396570Y-106536507D01*
X125396567Y-106536513D01*
X125339364Y-106749999D01*
X125339364Y-106750000D01*
X126236988Y-106750000D01*
X126204075Y-106807007D01*
X126170000Y-106934174D01*
X126170000Y-107065826D01*
X126204075Y-107192993D01*
X126236988Y-107250000D01*
X125339364Y-107250000D01*
X125396567Y-107463486D01*
X125396570Y-107463492D01*
X125496399Y-107677578D01*
X125631894Y-107871082D01*
X125798917Y-108038105D01*
X125992421Y-108173600D01*
X126184393Y-108263118D01*
X126236832Y-108309290D01*
X126255984Y-108376484D01*
X126235768Y-108443365D01*
X126182603Y-108488700D01*
X126131988Y-108499500D01*
X120078012Y-108499500D01*
X120010973Y-108479815D01*
X119965218Y-108427011D01*
X119955274Y-108357853D01*
X119984299Y-108294297D01*
X120025607Y-108263118D01*
X120217578Y-108173600D01*
X120411082Y-108038105D01*
X120578105Y-107871082D01*
X120713600Y-107677578D01*
X120813429Y-107463492D01*
X120813432Y-107463486D01*
X120870636Y-107250000D01*
X119973012Y-107250000D01*
X120005925Y-107192993D01*
X120040000Y-107065826D01*
X120040000Y-106934174D01*
X120005925Y-106807007D01*
X119973012Y-106750000D01*
X120870636Y-106750000D01*
X120870635Y-106749999D01*
X120813432Y-106536513D01*
X120813429Y-106536507D01*
X120713600Y-106322422D01*
X120713599Y-106322420D01*
X120578113Y-106128926D01*
X120578108Y-106128920D01*
X120411082Y-105961894D01*
X120217578Y-105826399D01*
X120003492Y-105726570D01*
X120003486Y-105726567D01*
X119790000Y-105669364D01*
X119790000Y-106566988D01*
X119732993Y-106534075D01*
X119605826Y-106500000D01*
X119474174Y-106500000D01*
X119347007Y-106534075D01*
X119290000Y-106566988D01*
X119290000Y-105669364D01*
X119289999Y-105669364D01*
X119076513Y-105726567D01*
X119076507Y-105726570D01*
X118862422Y-105826399D01*
X118862420Y-105826400D01*
X118668926Y-105961886D01*
X118546865Y-106083947D01*
X118485542Y-106117431D01*
X118415850Y-106112447D01*
X118359917Y-106070575D01*
X118343002Y-106039598D01*
X118341851Y-106036513D01*
X118314021Y-105961894D01*
X118293797Y-105907671D01*
X118293793Y-105907664D01*
X118207547Y-105792455D01*
X118207544Y-105792452D01*
X118092335Y-105706206D01*
X118092328Y-105706202D01*
X117957482Y-105655908D01*
X117957483Y-105655908D01*
X117897883Y-105649501D01*
X117897881Y-105649500D01*
X117897873Y-105649500D01*
X117897864Y-105649500D01*
X116102129Y-105649500D01*
X116102123Y-105649501D01*
X116042516Y-105655908D01*
X115907671Y-105706202D01*
X115907664Y-105706206D01*
X115792455Y-105792452D01*
X115792452Y-105792455D01*
X115706206Y-105907664D01*
X115706202Y-105907671D01*
X115655908Y-106042517D01*
X115649501Y-106102116D01*
X115649500Y-106102135D01*
X115649500Y-107897870D01*
X115649501Y-107897876D01*
X115655908Y-107957483D01*
X115706202Y-108092328D01*
X115706206Y-108092335D01*
X115792452Y-108207544D01*
X115792455Y-108207547D01*
X115884208Y-108276234D01*
X115926079Y-108332168D01*
X115931063Y-108401859D01*
X115897577Y-108463182D01*
X115836254Y-108496666D01*
X115809897Y-108499500D01*
X112078012Y-108499500D01*
X112010973Y-108479815D01*
X111965218Y-108427011D01*
X111955274Y-108357853D01*
X111984299Y-108294297D01*
X112025607Y-108263118D01*
X112217578Y-108173600D01*
X112411082Y-108038105D01*
X112578105Y-107871082D01*
X112713600Y-107677578D01*
X112813429Y-107463492D01*
X112813432Y-107463486D01*
X112870636Y-107250000D01*
X111973012Y-107250000D01*
X112005925Y-107192993D01*
X112040000Y-107065826D01*
X112040000Y-106934174D01*
X112005925Y-106807007D01*
X111973012Y-106750000D01*
X112870636Y-106750000D01*
X112870635Y-106749999D01*
X112813432Y-106536513D01*
X112813429Y-106536507D01*
X112713600Y-106322422D01*
X112713599Y-106322420D01*
X112578113Y-106128926D01*
X112578108Y-106128920D01*
X112411082Y-105961894D01*
X112217578Y-105826399D01*
X112003492Y-105726570D01*
X112003486Y-105726567D01*
X111790000Y-105669364D01*
X111790000Y-106566988D01*
X111732993Y-106534075D01*
X111605826Y-106500000D01*
X111474174Y-106500000D01*
X111347007Y-106534075D01*
X111290000Y-106566988D01*
X111290000Y-105669364D01*
X111289999Y-105669364D01*
X111076513Y-105726567D01*
X111076507Y-105726570D01*
X110862422Y-105826399D01*
X110862420Y-105826400D01*
X110668926Y-105961886D01*
X110546865Y-106083947D01*
X110485542Y-106117431D01*
X110415850Y-106112447D01*
X110359917Y-106070575D01*
X110343002Y-106039598D01*
X110341851Y-106036513D01*
X110314021Y-105961894D01*
X110293797Y-105907671D01*
X110293793Y-105907664D01*
X110207547Y-105792455D01*
X110207544Y-105792452D01*
X110092335Y-105706206D01*
X110092328Y-105706202D01*
X109957482Y-105655908D01*
X109957483Y-105655908D01*
X109897883Y-105649501D01*
X109897881Y-105649500D01*
X109897873Y-105649500D01*
X109897864Y-105649500D01*
X108102129Y-105649500D01*
X108102123Y-105649501D01*
X108042516Y-105655908D01*
X107907671Y-105706202D01*
X107907664Y-105706206D01*
X107792455Y-105792452D01*
X107792452Y-105792455D01*
X107706206Y-105907664D01*
X107706202Y-105907671D01*
X107655908Y-106042517D01*
X107649501Y-106102116D01*
X107649500Y-106102135D01*
X107649500Y-107897870D01*
X107649501Y-107897876D01*
X107655908Y-107957483D01*
X107706202Y-108092328D01*
X107706206Y-108092335D01*
X107792452Y-108207544D01*
X107792455Y-108207547D01*
X107884208Y-108276234D01*
X107926079Y-108332168D01*
X107931063Y-108401859D01*
X107897577Y-108463182D01*
X107836254Y-108496666D01*
X107809897Y-108499500D01*
X104624500Y-108499500D01*
X104557461Y-108479815D01*
X104511706Y-108427011D01*
X104500500Y-108375500D01*
X104500500Y-92499998D01*
X104994390Y-92499998D01*
X104994390Y-92500001D01*
X105014804Y-92785433D01*
X105075628Y-93065037D01*
X105075630Y-93065043D01*
X105075631Y-93065046D01*
X105171420Y-93321866D01*
X105175635Y-93333166D01*
X105312770Y-93584309D01*
X105312775Y-93584317D01*
X105484254Y-93813387D01*
X105484270Y-93813405D01*
X105686594Y-94015729D01*
X105686612Y-94015745D01*
X105915682Y-94187224D01*
X105915690Y-94187229D01*
X106166833Y-94324364D01*
X106166832Y-94324364D01*
X106166836Y-94324365D01*
X106166839Y-94324367D01*
X106434954Y-94424369D01*
X106434960Y-94424370D01*
X106434962Y-94424371D01*
X106714566Y-94485195D01*
X106714568Y-94485195D01*
X106714572Y-94485196D01*
X106968220Y-94503337D01*
X106999999Y-94505610D01*
X107000000Y-94505610D01*
X107000001Y-94505610D01*
X107028595Y-94503564D01*
X107285428Y-94485196D01*
X107565046Y-94424369D01*
X107833161Y-94324367D01*
X108084315Y-94187226D01*
X108313395Y-94015739D01*
X108515739Y-93813395D01*
X108687226Y-93584315D01*
X108824367Y-93333161D01*
X108924369Y-93065046D01*
X108924371Y-93065037D01*
X108985195Y-92785433D01*
X108985195Y-92785432D01*
X108985196Y-92785428D01*
X109005610Y-92500000D01*
X109003080Y-92464632D01*
X108997914Y-92392400D01*
X108985196Y-92214572D01*
X108971253Y-92150478D01*
X108924371Y-91934962D01*
X108924370Y-91934960D01*
X108924369Y-91934954D01*
X108824367Y-91666839D01*
X108815311Y-91650255D01*
X108687229Y-91415690D01*
X108687224Y-91415682D01*
X108515745Y-91186612D01*
X108515729Y-91186594D01*
X108313405Y-90984270D01*
X108313387Y-90984254D01*
X108084317Y-90812775D01*
X108084309Y-90812770D01*
X107833166Y-90675635D01*
X107833167Y-90675635D01*
X107672928Y-90615869D01*
X107565046Y-90575631D01*
X107565043Y-90575630D01*
X107565037Y-90575628D01*
X107285433Y-90514804D01*
X107000001Y-90494390D01*
X106999999Y-90494390D01*
X106714566Y-90514804D01*
X106434962Y-90575628D01*
X106166833Y-90675635D01*
X105915690Y-90812770D01*
X105915682Y-90812775D01*
X105686612Y-90984254D01*
X105686594Y-90984270D01*
X105484270Y-91186594D01*
X105484254Y-91186612D01*
X105312775Y-91415682D01*
X105312770Y-91415690D01*
X105175635Y-91666833D01*
X105075628Y-91934962D01*
X105014804Y-92214566D01*
X104994390Y-92499998D01*
X104500500Y-92499998D01*
X104500500Y-81249998D01*
X104994390Y-81249998D01*
X104994390Y-81250001D01*
X105014804Y-81535433D01*
X105075628Y-81815037D01*
X105075629Y-81815039D01*
X105075631Y-81815046D01*
X105175633Y-82083161D01*
X105175635Y-82083166D01*
X105312770Y-82334309D01*
X105312775Y-82334317D01*
X105484254Y-82563387D01*
X105484270Y-82563405D01*
X105686594Y-82765729D01*
X105686612Y-82765745D01*
X105915682Y-82937224D01*
X105915690Y-82937229D01*
X106060254Y-83016168D01*
X106109659Y-83065574D01*
X106124511Y-83133847D01*
X106100094Y-83199311D01*
X106060254Y-83233832D01*
X105915690Y-83312770D01*
X105915682Y-83312775D01*
X105686612Y-83484254D01*
X105686594Y-83484270D01*
X105484270Y-83686594D01*
X105484254Y-83686612D01*
X105312775Y-83915682D01*
X105312770Y-83915690D01*
X105175635Y-84166833D01*
X105075628Y-84434962D01*
X105014804Y-84714566D01*
X104994390Y-84999998D01*
X104994390Y-85000001D01*
X105014804Y-85285433D01*
X105075628Y-85565037D01*
X105075630Y-85565043D01*
X105075631Y-85565046D01*
X105165307Y-85805476D01*
X105175635Y-85833166D01*
X105312770Y-86084309D01*
X105312775Y-86084317D01*
X105484254Y-86313387D01*
X105484270Y-86313405D01*
X105686594Y-86515729D01*
X105686612Y-86515745D01*
X105915682Y-86687224D01*
X105915690Y-86687229D01*
X106166833Y-86824364D01*
X106166832Y-86824364D01*
X106166836Y-86824365D01*
X106166839Y-86824367D01*
X106434954Y-86924369D01*
X106434960Y-86924370D01*
X106434962Y-86924371D01*
X106714566Y-86985195D01*
X106714568Y-86985195D01*
X106714572Y-86985196D01*
X106968220Y-87003337D01*
X106999999Y-87005610D01*
X107000000Y-87005610D01*
X107000001Y-87005610D01*
X107028595Y-87003564D01*
X107285428Y-86985196D01*
X107291699Y-86983832D01*
X107565037Y-86924371D01*
X107565037Y-86924370D01*
X107565046Y-86924369D01*
X107833161Y-86824367D01*
X108084315Y-86687226D01*
X108313395Y-86515739D01*
X108515739Y-86313395D01*
X108687226Y-86084315D01*
X108824367Y-85833161D01*
X108924369Y-85565046D01*
X108943284Y-85478097D01*
X108985195Y-85285433D01*
X108985195Y-85285432D01*
X108985196Y-85285428D01*
X109005610Y-85000000D01*
X108985196Y-84714572D01*
X108970376Y-84646447D01*
X108924371Y-84434962D01*
X108924370Y-84434960D01*
X108924369Y-84434954D01*
X108824367Y-84166839D01*
X108796377Y-84115580D01*
X108687229Y-83915690D01*
X108687224Y-83915682D01*
X108515745Y-83686612D01*
X108515729Y-83686594D01*
X108313405Y-83484270D01*
X108313387Y-83484254D01*
X108084317Y-83312775D01*
X108084309Y-83312770D01*
X107939745Y-83233832D01*
X107890340Y-83184427D01*
X107875488Y-83116154D01*
X107899905Y-83050689D01*
X107939745Y-83016168D01*
X108084304Y-82937232D01*
X108084315Y-82937226D01*
X108313395Y-82765739D01*
X108515739Y-82563395D01*
X108600626Y-82449999D01*
X119194435Y-82449999D01*
X119194435Y-82450006D01*
X119214630Y-82629252D01*
X119214631Y-82629257D01*
X119242542Y-82709020D01*
X119249500Y-82749975D01*
X119249500Y-95700028D01*
X119242542Y-95740982D01*
X119214631Y-95820747D01*
X119194435Y-95999996D01*
X119194435Y-96000003D01*
X119214630Y-96179249D01*
X119214631Y-96179254D01*
X119274211Y-96349523D01*
X119370184Y-96502262D01*
X119497738Y-96629816D01*
X119650478Y-96725789D01*
X119820745Y-96785368D01*
X119820750Y-96785369D01*
X119999996Y-96805565D01*
X120000000Y-96805565D01*
X120000004Y-96805565D01*
X120179249Y-96785369D01*
X120179252Y-96785368D01*
X120179255Y-96785368D01*
X120349522Y-96725789D01*
X120502262Y-96629816D01*
X120629816Y-96502262D01*
X120725789Y-96349522D01*
X120785368Y-96179255D01*
X120792507Y-96115893D01*
X120805565Y-96000003D01*
X120805565Y-95999996D01*
X120785739Y-95824038D01*
X120785368Y-95820745D01*
X120757458Y-95740982D01*
X120750500Y-95700028D01*
X120750500Y-86776577D01*
X123649500Y-86776577D01*
X123649500Y-86973422D01*
X123680290Y-87167826D01*
X123741117Y-87355029D01*
X123826925Y-87523436D01*
X123830476Y-87530405D01*
X123946172Y-87689646D01*
X124085354Y-87828828D01*
X124244595Y-87944524D01*
X124327455Y-87986743D01*
X124419970Y-88033882D01*
X124419972Y-88033882D01*
X124419975Y-88033884D01*
X124520317Y-88066487D01*
X124607173Y-88094709D01*
X124801578Y-88125500D01*
X124801583Y-88125500D01*
X124998422Y-88125500D01*
X125192826Y-88094709D01*
X125221602Y-88085359D01*
X125380025Y-88033884D01*
X125555405Y-87944524D01*
X125714646Y-87828828D01*
X125853828Y-87689646D01*
X125969524Y-87530405D01*
X126058884Y-87355025D01*
X126119709Y-87167826D01*
X126136281Y-87063196D01*
X126150500Y-86973422D01*
X126150500Y-86776577D01*
X126119709Y-86582173D01*
X126058882Y-86394970D01*
X126011743Y-86302455D01*
X125969524Y-86219595D01*
X125853828Y-86060354D01*
X125714646Y-85921172D01*
X125555405Y-85805476D01*
X125380029Y-85716117D01*
X125192826Y-85655290D01*
X124998422Y-85624500D01*
X124998417Y-85624500D01*
X124801583Y-85624500D01*
X124801578Y-85624500D01*
X124607173Y-85655290D01*
X124419970Y-85716117D01*
X124244594Y-85805476D01*
X124206483Y-85833166D01*
X124085354Y-85921172D01*
X124085352Y-85921174D01*
X124085351Y-85921174D01*
X123946174Y-86060351D01*
X123946174Y-86060352D01*
X123946172Y-86060354D01*
X123928762Y-86084317D01*
X123830476Y-86219594D01*
X123741117Y-86394970D01*
X123680290Y-86582173D01*
X123649500Y-86776577D01*
X120750500Y-86776577D01*
X120750500Y-83911304D01*
X164099500Y-83911304D01*
X164099500Y-95338695D01*
X164134103Y-95512658D01*
X164134106Y-95512667D01*
X164201983Y-95676540D01*
X164201990Y-95676553D01*
X164300535Y-95824034D01*
X164300538Y-95824038D01*
X164425961Y-95949461D01*
X164425965Y-95949464D01*
X164573446Y-96048009D01*
X164573459Y-96048016D01*
X164696363Y-96098923D01*
X164737334Y-96115894D01*
X164737336Y-96115894D01*
X164737341Y-96115896D01*
X164911304Y-96150499D01*
X164911307Y-96150500D01*
X164911309Y-96150500D01*
X165088693Y-96150500D01*
X165088694Y-96150499D01*
X165146682Y-96138964D01*
X165262658Y-96115896D01*
X165262661Y-96115894D01*
X165262666Y-96115894D01*
X165426547Y-96048013D01*
X165574035Y-95949464D01*
X165699464Y-95824035D01*
X165798013Y-95676547D01*
X165865894Y-95512666D01*
X165900500Y-95338691D01*
X165900500Y-93249996D01*
X176694435Y-93249996D01*
X176694435Y-93250003D01*
X176714630Y-93429249D01*
X176714631Y-93429254D01*
X176774211Y-93599523D01*
X176870184Y-93752262D01*
X176997737Y-93879815D01*
X176997740Y-93879817D01*
X177041471Y-93907295D01*
X177087763Y-93959629D01*
X177099500Y-94012289D01*
X177099500Y-97744931D01*
X177080494Y-97810903D01*
X177024211Y-97900477D01*
X177024209Y-97900481D01*
X176964633Y-98070737D01*
X176964630Y-98070750D01*
X176944435Y-98249996D01*
X176944435Y-98250003D01*
X176964630Y-98429249D01*
X176964631Y-98429254D01*
X177024211Y-98599523D01*
X177055460Y-98649255D01*
X177120184Y-98752262D01*
X177247738Y-98879816D01*
X177400478Y-98975789D01*
X177570745Y-99035368D01*
X177570750Y-99035369D01*
X177749996Y-99055565D01*
X177750000Y-99055565D01*
X177750004Y-99055565D01*
X177929249Y-99035369D01*
X177929252Y-99035368D01*
X177929255Y-99035368D01*
X178099522Y-98975789D01*
X178252262Y-98879816D01*
X178379816Y-98752262D01*
X178475789Y-98599522D01*
X178535368Y-98429255D01*
X178550974Y-98290750D01*
X178555565Y-98250003D01*
X178555565Y-98249996D01*
X178535369Y-98070750D01*
X178535366Y-98070737D01*
X178475790Y-97900481D01*
X178475789Y-97900478D01*
X178437904Y-97840184D01*
X178419506Y-97810903D01*
X178400500Y-97744931D01*
X178400500Y-93435928D01*
X178375502Y-93310261D01*
X178375500Y-93310254D01*
X178340513Y-93225789D01*
X178326465Y-93191873D01*
X178310191Y-93167518D01*
X178290074Y-93112510D01*
X178285369Y-93070750D01*
X178285368Y-93070745D01*
X178225788Y-92900476D01*
X178129815Y-92747737D01*
X178002262Y-92620184D01*
X177849523Y-92524211D01*
X177679254Y-92464631D01*
X177679249Y-92464630D01*
X177500004Y-92444435D01*
X177499996Y-92444435D01*
X177320750Y-92464630D01*
X177320745Y-92464631D01*
X177150476Y-92524211D01*
X176997737Y-92620184D01*
X176870184Y-92747737D01*
X176774211Y-92900476D01*
X176714631Y-93070745D01*
X176714630Y-93070750D01*
X176694435Y-93249996D01*
X165900500Y-93249996D01*
X165900500Y-86776577D01*
X175349500Y-86776577D01*
X175349500Y-86973422D01*
X175380290Y-87167826D01*
X175441117Y-87355029D01*
X175526925Y-87523436D01*
X175530476Y-87530405D01*
X175646172Y-87689646D01*
X175785354Y-87828828D01*
X175944595Y-87944524D01*
X176027455Y-87986743D01*
X176119970Y-88033882D01*
X176119972Y-88033882D01*
X176119975Y-88033884D01*
X176220317Y-88066487D01*
X176307173Y-88094709D01*
X176501578Y-88125500D01*
X176501583Y-88125500D01*
X176698422Y-88125500D01*
X176892826Y-88094709D01*
X176921602Y-88085359D01*
X177080025Y-88033884D01*
X177255405Y-87944524D01*
X177414646Y-87828828D01*
X177553828Y-87689646D01*
X177669524Y-87530405D01*
X177758884Y-87355025D01*
X177819709Y-87167826D01*
X177836281Y-87063196D01*
X177850500Y-86973422D01*
X177850500Y-86776577D01*
X177819709Y-86582173D01*
X177758882Y-86394970D01*
X177711743Y-86302455D01*
X177669524Y-86219595D01*
X177553828Y-86060354D01*
X177414646Y-85921172D01*
X177255405Y-85805476D01*
X177080029Y-85716117D01*
X176892826Y-85655290D01*
X176698422Y-85624500D01*
X176698417Y-85624500D01*
X176501583Y-85624500D01*
X176501578Y-85624500D01*
X176307173Y-85655290D01*
X176119970Y-85716117D01*
X175944594Y-85805476D01*
X175906483Y-85833166D01*
X175785354Y-85921172D01*
X175785352Y-85921174D01*
X175785351Y-85921174D01*
X175646174Y-86060351D01*
X175646174Y-86060352D01*
X175646172Y-86060354D01*
X175628762Y-86084317D01*
X175530476Y-86219594D01*
X175441117Y-86394970D01*
X175380290Y-86582173D01*
X175349500Y-86776577D01*
X165900500Y-86776577D01*
X165900500Y-83999996D01*
X178194435Y-83999996D01*
X178194435Y-84000003D01*
X178214630Y-84179249D01*
X178214631Y-84179254D01*
X178274212Y-84349525D01*
X178280492Y-84359519D01*
X178299500Y-84425493D01*
X178299500Y-90700028D01*
X178292542Y-90740982D01*
X178264631Y-90820747D01*
X178244435Y-90999996D01*
X178244435Y-91000003D01*
X178264630Y-91179249D01*
X178264631Y-91179254D01*
X178324211Y-91349523D01*
X178371846Y-91425333D01*
X178420184Y-91502262D01*
X178547738Y-91629816D01*
X178580268Y-91650256D01*
X178682721Y-91714632D01*
X178700478Y-91725789D01*
X178823494Y-91768834D01*
X178870745Y-91785368D01*
X178870750Y-91785369D01*
X179049996Y-91805565D01*
X179050000Y-91805565D01*
X179050004Y-91805565D01*
X179229249Y-91785369D01*
X179229252Y-91785368D01*
X179229255Y-91785368D01*
X179399522Y-91725789D01*
X179552262Y-91629816D01*
X179679816Y-91502262D01*
X179775789Y-91349522D01*
X179835368Y-91179255D01*
X179835369Y-91179249D01*
X179855565Y-91000003D01*
X179855565Y-90999996D01*
X179835369Y-90820750D01*
X179835366Y-90820737D01*
X179775790Y-90650481D01*
X179775789Y-90650478D01*
X179722261Y-90565288D01*
X179719506Y-90560903D01*
X179700500Y-90494931D01*
X179700500Y-84425493D01*
X179719508Y-84359519D01*
X179725787Y-84349525D01*
X179725786Y-84349525D01*
X179725789Y-84349522D01*
X179785368Y-84179255D01*
X179791422Y-84125524D01*
X179805565Y-84000003D01*
X179805565Y-83999996D01*
X179785369Y-83820750D01*
X179785368Y-83820745D01*
X179756181Y-83737334D01*
X179725789Y-83650478D01*
X179629816Y-83497738D01*
X179502262Y-83370184D01*
X179349523Y-83274211D01*
X179179254Y-83214631D01*
X179179249Y-83214630D01*
X179000004Y-83194435D01*
X178999996Y-83194435D01*
X178820750Y-83214630D01*
X178820745Y-83214631D01*
X178650476Y-83274211D01*
X178497737Y-83370184D01*
X178370184Y-83497737D01*
X178274211Y-83650476D01*
X178214631Y-83820745D01*
X178214630Y-83820750D01*
X178194435Y-83999996D01*
X165900500Y-83999996D01*
X165900500Y-83911309D01*
X165900500Y-83911306D01*
X165900499Y-83911304D01*
X165865896Y-83737341D01*
X165865893Y-83737332D01*
X165798016Y-83573459D01*
X165798009Y-83573446D01*
X165699464Y-83425965D01*
X165699461Y-83425961D01*
X165574038Y-83300538D01*
X165574034Y-83300535D01*
X165426553Y-83201990D01*
X165426540Y-83201983D01*
X165262667Y-83134106D01*
X165262658Y-83134103D01*
X165088694Y-83099500D01*
X165088691Y-83099500D01*
X164911309Y-83099500D01*
X164911306Y-83099500D01*
X164737341Y-83134103D01*
X164737332Y-83134106D01*
X164573459Y-83201983D01*
X164573446Y-83201990D01*
X164425965Y-83300535D01*
X164425961Y-83300538D01*
X164300538Y-83425961D01*
X164300535Y-83425965D01*
X164201990Y-83573446D01*
X164201983Y-83573459D01*
X164134106Y-83737332D01*
X164134103Y-83737341D01*
X164099500Y-83911304D01*
X120750500Y-83911304D01*
X120750500Y-82749975D01*
X120757458Y-82709020D01*
X120785368Y-82629257D01*
X120785369Y-82629252D01*
X120805565Y-82450006D01*
X120805565Y-82449999D01*
X120785369Y-82270753D01*
X120785368Y-82270748D01*
X120756703Y-82188829D01*
X120725789Y-82100481D01*
X120629816Y-81947741D01*
X120502262Y-81820187D01*
X120494066Y-81815037D01*
X120349523Y-81724214D01*
X120179254Y-81664634D01*
X120179249Y-81664633D01*
X120000004Y-81644438D01*
X119999996Y-81644438D01*
X119820750Y-81664633D01*
X119820745Y-81664634D01*
X119650476Y-81724214D01*
X119497737Y-81820187D01*
X119370184Y-81947740D01*
X119274211Y-82100479D01*
X119214631Y-82270748D01*
X119214630Y-82270753D01*
X119194435Y-82449999D01*
X108600626Y-82449999D01*
X108687226Y-82334315D01*
X108824367Y-82083161D01*
X108924369Y-81815046D01*
X108985196Y-81535428D01*
X109005610Y-81250000D01*
X108985196Y-80964572D01*
X108924369Y-80684954D01*
X108824367Y-80416839D01*
X108734217Y-80251743D01*
X108687229Y-80165690D01*
X108687224Y-80165682D01*
X108515745Y-79936612D01*
X108515729Y-79936594D01*
X108313405Y-79734270D01*
X108313387Y-79734254D01*
X108084317Y-79562775D01*
X108084309Y-79562770D01*
X107833166Y-79425635D01*
X107833167Y-79425635D01*
X107725915Y-79385632D01*
X107565046Y-79325631D01*
X107565043Y-79325630D01*
X107565037Y-79325628D01*
X107285433Y-79264804D01*
X107000001Y-79244390D01*
X106999999Y-79244390D01*
X106714566Y-79264804D01*
X106434962Y-79325628D01*
X106166833Y-79425635D01*
X105915690Y-79562770D01*
X105915682Y-79562775D01*
X105686612Y-79734254D01*
X105686594Y-79734270D01*
X105484270Y-79936594D01*
X105484254Y-79936612D01*
X105312775Y-80165682D01*
X105312770Y-80165690D01*
X105175635Y-80416833D01*
X105075628Y-80684962D01*
X105014804Y-80964566D01*
X104994390Y-81249998D01*
X104500500Y-81249998D01*
X104500500Y-78624500D01*
X104520185Y-78557461D01*
X104572989Y-78511706D01*
X104624500Y-78500500D01*
X196375500Y-78500500D01*
X196442539Y-78520185D01*
G37*
G04 #@! TD.AperFunction*
G04 #@! TA.AperFunction,Conductor*
G36*
X128744075Y-106807007D02*
G01*
X128710000Y-106934174D01*
X128710000Y-107065826D01*
X128744075Y-107192993D01*
X128776988Y-107250000D01*
X127103012Y-107250000D01*
X127135925Y-107192993D01*
X127170000Y-107065826D01*
X127170000Y-106934174D01*
X127135925Y-106807007D01*
X127103012Y-106750000D01*
X128776988Y-106750000D01*
X128744075Y-106807007D01*
G37*
G04 #@! TD.AperFunction*
G04 #@! TA.AperFunction,Conductor*
G36*
X146524075Y-104267007D02*
G01*
X146490000Y-104394174D01*
X146490000Y-104525826D01*
X146524075Y-104652993D01*
X146556988Y-104710000D01*
X144883012Y-104710000D01*
X144915925Y-104652993D01*
X144950000Y-104525826D01*
X144950000Y-104394174D01*
X144915925Y-104267007D01*
X144883012Y-104210000D01*
X146556988Y-104210000D01*
X146524075Y-104267007D01*
G37*
G04 #@! TD.AperFunction*
G04 #@! TA.AperFunction,Conductor*
G36*
X141178834Y-93055758D02*
G01*
X141234767Y-93097630D01*
X141259184Y-93163094D01*
X141259500Y-93171940D01*
X141259500Y-103202278D01*
X141239815Y-103269317D01*
X141206623Y-103303853D01*
X141038597Y-103421505D01*
X140871505Y-103588597D01*
X140741575Y-103774158D01*
X140686998Y-103817783D01*
X140617500Y-103824977D01*
X140555145Y-103793454D01*
X140538425Y-103774158D01*
X140408494Y-103588597D01*
X140241402Y-103421506D01*
X140241401Y-103421505D01*
X140100706Y-103322989D01*
X140073376Y-103303852D01*
X140029751Y-103249275D01*
X140020500Y-103202277D01*
X140020500Y-93950807D01*
X140040185Y-93883768D01*
X140056815Y-93863130D01*
X140598224Y-93321720D01*
X140659545Y-93288237D01*
X140672019Y-93286183D01*
X140679255Y-93285368D01*
X140849522Y-93225789D01*
X141002262Y-93129816D01*
X141047819Y-93084259D01*
X141109142Y-93050774D01*
X141178834Y-93055758D01*
G37*
G04 #@! TD.AperFunction*
G04 #@! TA.AperFunction,Conductor*
G36*
X192507063Y-84265395D02*
G01*
X192562996Y-84307267D01*
X192587413Y-84372731D01*
X192579913Y-84424906D01*
X192576109Y-84435104D01*
X192515300Y-84714637D01*
X192494891Y-84999998D01*
X192494891Y-85000001D01*
X192515300Y-85285362D01*
X192576109Y-85564895D01*
X192676091Y-85832958D01*
X192813191Y-86084038D01*
X192813196Y-86084046D01*
X192919882Y-86226561D01*
X192919883Y-86226562D01*
X193822421Y-85324024D01*
X193835359Y-85355258D01*
X193917437Y-85478097D01*
X194021903Y-85582563D01*
X194144742Y-85664641D01*
X194175974Y-85677578D01*
X193273436Y-86580115D01*
X193415960Y-86686807D01*
X193415961Y-86686808D01*
X193561298Y-86766168D01*
X193610703Y-86815573D01*
X193625555Y-86883846D01*
X193601138Y-86949310D01*
X193561298Y-86983832D01*
X193415961Y-87063191D01*
X193415953Y-87063196D01*
X193273437Y-87169882D01*
X193273436Y-87169883D01*
X194175975Y-88072421D01*
X194144742Y-88085359D01*
X194021903Y-88167437D01*
X193917437Y-88271903D01*
X193835359Y-88394742D01*
X193822421Y-88425974D01*
X192919883Y-87523436D01*
X192919882Y-87523437D01*
X192813196Y-87665953D01*
X192813191Y-87665961D01*
X192676091Y-87917041D01*
X192576109Y-88185104D01*
X192515300Y-88464637D01*
X192494891Y-88749998D01*
X192494891Y-88750001D01*
X192515300Y-89035362D01*
X192576109Y-89314895D01*
X192676091Y-89582958D01*
X192813191Y-89834038D01*
X192813196Y-89834046D01*
X192919882Y-89976561D01*
X192919883Y-89976562D01*
X193822421Y-89074024D01*
X193835359Y-89105258D01*
X193917437Y-89228097D01*
X194021903Y-89332563D01*
X194144742Y-89414641D01*
X194175974Y-89427578D01*
X193273436Y-90330115D01*
X193415960Y-90436807D01*
X193415961Y-90436808D01*
X193560776Y-90515883D01*
X193610181Y-90565288D01*
X193625033Y-90633561D01*
X193600616Y-90699025D01*
X193560776Y-90733547D01*
X193415690Y-90812770D01*
X193415682Y-90812775D01*
X193186612Y-90984254D01*
X193186594Y-90984270D01*
X192984270Y-91186594D01*
X192984254Y-91186612D01*
X192812775Y-91415682D01*
X192812770Y-91415690D01*
X192675635Y-91666833D01*
X192637591Y-91768834D01*
X192595719Y-91824767D01*
X192530255Y-91849184D01*
X192521409Y-91849500D01*
X187935929Y-91849500D01*
X187810261Y-91874497D01*
X187810251Y-91874500D01*
X187779341Y-91887303D01*
X187779342Y-91887304D01*
X187691877Y-91923532D01*
X187691863Y-91923540D01*
X187585332Y-91994721D01*
X187585325Y-91994727D01*
X181362181Y-98217872D01*
X181300858Y-98251357D01*
X181231166Y-98246373D01*
X181175233Y-98204501D01*
X181150816Y-98139037D01*
X181150500Y-98130191D01*
X181150500Y-95570807D01*
X181170185Y-95503768D01*
X181186814Y-95483131D01*
X192376050Y-84293894D01*
X192437371Y-84260411D01*
X192507063Y-84265395D01*
G37*
G04 #@! TD.AperFunction*
G04 #@! TA.AperFunction,Conductor*
G36*
X196080115Y-89976562D02*
G01*
X196080116Y-89976561D01*
X196186803Y-89834047D01*
X196266668Y-89687786D01*
X196316073Y-89638381D01*
X196384346Y-89623529D01*
X196449810Y-89647946D01*
X196491682Y-89703879D01*
X196499500Y-89747213D01*
X196499500Y-91501743D01*
X196479815Y-91568782D01*
X196427011Y-91614537D01*
X196357853Y-91624481D01*
X196294297Y-91595456D01*
X196266668Y-91561170D01*
X196187229Y-91415690D01*
X196187224Y-91415682D01*
X196015745Y-91186612D01*
X196015729Y-91186594D01*
X195813405Y-90984270D01*
X195813387Y-90984254D01*
X195584317Y-90812775D01*
X195584309Y-90812770D01*
X195439223Y-90733547D01*
X195389818Y-90684142D01*
X195374966Y-90615869D01*
X195399383Y-90550404D01*
X195439224Y-90515883D01*
X195584041Y-90436807D01*
X195584047Y-90436803D01*
X195726561Y-90330116D01*
X195726562Y-90330115D01*
X194824025Y-89427577D01*
X194855258Y-89414641D01*
X194978097Y-89332563D01*
X195082563Y-89228097D01*
X195164641Y-89105258D01*
X195177578Y-89074025D01*
X196080115Y-89976562D01*
G37*
G04 #@! TD.AperFunction*
G04 #@! TA.AperFunction,Conductor*
G36*
X196080115Y-86226562D02*
G01*
X196080116Y-86226561D01*
X196186803Y-86084047D01*
X196266668Y-85937786D01*
X196316073Y-85888381D01*
X196384346Y-85873529D01*
X196449810Y-85897946D01*
X196491682Y-85953879D01*
X196499500Y-85997213D01*
X196499500Y-87752786D01*
X196479815Y-87819825D01*
X196427011Y-87865580D01*
X196357853Y-87875524D01*
X196294297Y-87846499D01*
X196266668Y-87812213D01*
X196186808Y-87665961D01*
X196186807Y-87665960D01*
X196080115Y-87523436D01*
X195177577Y-88425973D01*
X195164641Y-88394742D01*
X195082563Y-88271903D01*
X194978097Y-88167437D01*
X194855258Y-88085359D01*
X194824024Y-88072421D01*
X195726562Y-87169883D01*
X195726561Y-87169882D01*
X195584046Y-87063196D01*
X195584033Y-87063188D01*
X195438702Y-86983832D01*
X195389296Y-86934427D01*
X195374444Y-86866154D01*
X195398861Y-86800690D01*
X195438702Y-86766168D01*
X195584041Y-86686807D01*
X195584047Y-86686803D01*
X195726561Y-86580116D01*
X195726562Y-86580115D01*
X194824025Y-85677577D01*
X194855258Y-85664641D01*
X194978097Y-85582563D01*
X195082563Y-85478097D01*
X195164641Y-85355258D01*
X195177578Y-85324025D01*
X196080115Y-86226562D01*
G37*
G04 #@! TD.AperFunction*
G04 #@! TA.AperFunction,Conductor*
G36*
X196449811Y-82148989D02*
G01*
X196491682Y-82204923D01*
X196499500Y-82248256D01*
X196499500Y-84002786D01*
X196479815Y-84069825D01*
X196427011Y-84115580D01*
X196357853Y-84125524D01*
X196294297Y-84096499D01*
X196266668Y-84062213D01*
X196186808Y-83915961D01*
X196186807Y-83915960D01*
X196080115Y-83773436D01*
X195177577Y-84675973D01*
X195164641Y-84644742D01*
X195082563Y-84521903D01*
X194978097Y-84417437D01*
X194855258Y-84335359D01*
X194824024Y-84322421D01*
X195726562Y-83419883D01*
X195726561Y-83419882D01*
X195584046Y-83313196D01*
X195584038Y-83313191D01*
X195439223Y-83234116D01*
X195389818Y-83184711D01*
X195374966Y-83116438D01*
X195399383Y-83050973D01*
X195439224Y-83016452D01*
X195584304Y-82937232D01*
X195584303Y-82937232D01*
X195584315Y-82937226D01*
X195813395Y-82765739D01*
X196015739Y-82563395D01*
X196187226Y-82334315D01*
X196266668Y-82188829D01*
X196316073Y-82139424D01*
X196384346Y-82124572D01*
X196449811Y-82148989D01*
G37*
G04 #@! TD.AperFunction*
M02*
