G04 #@! TF.GenerationSoftware,KiCad,Pcbnew,8.0.4*
G04 #@! TF.CreationDate,2024-09-22T20:29:30+02:00*
G04 #@! TF.ProjectId,Fader_Single,46616465-725f-4536-996e-676c652e6b69,rev?*
G04 #@! TF.SameCoordinates,Original*
G04 #@! TF.FileFunction,Paste,Top*
G04 #@! TF.FilePolarity,Positive*
%FSLAX46Y46*%
G04 Gerber Fmt 4.6, Leading zero omitted, Abs format (unit mm)*
G04 Created by KiCad (PCBNEW 8.0.4) date 2024-09-22 20:29:30*
%MOMM*%
%LPD*%
G01*
G04 APERTURE LIST*
G04 Aperture macros list*
%AMRoundRect*
0 Rectangle with rounded corners*
0 $1 Rounding radius*
0 $2 $3 $4 $5 $6 $7 $8 $9 X,Y pos of 4 corners*
0 Add a 4 corners polygon primitive as box body*
4,1,4,$2,$3,$4,$5,$6,$7,$8,$9,$2,$3,0*
0 Add four circle primitives for the rounded corners*
1,1,$1+$1,$2,$3*
1,1,$1+$1,$4,$5*
1,1,$1+$1,$6,$7*
1,1,$1+$1,$8,$9*
0 Add four rect primitives between the rounded corners*
20,1,$1+$1,$2,$3,$4,$5,0*
20,1,$1+$1,$4,$5,$6,$7,0*
20,1,$1+$1,$6,$7,$8,$9,0*
20,1,$1+$1,$8,$9,$2,$3,0*%
G04 Aperture macros list end*
%ADD10RoundRect,0.100000X0.100000X-0.637500X0.100000X0.637500X-0.100000X0.637500X-0.100000X-0.637500X0*%
%ADD11RoundRect,0.250000X0.850000X0.350000X-0.850000X0.350000X-0.850000X-0.350000X0.850000X-0.350000X0*%
%ADD12RoundRect,0.250000X1.275000X1.125000X-1.275000X1.125000X-1.275000X-1.125000X1.275000X-1.125000X0*%
%ADD13RoundRect,0.375000X0.625000X0.375000X-0.625000X0.375000X-0.625000X-0.375000X0.625000X-0.375000X0*%
%ADD14RoundRect,0.500000X0.500000X1.400000X-0.500000X1.400000X-0.500000X-1.400000X0.500000X-1.400000X0*%
%ADD15R,0.650000X0.750000*%
%ADD16RoundRect,0.062500X0.062500X-0.187500X0.062500X0.187500X-0.062500X0.187500X-0.062500X-0.187500X0*%
%ADD17RoundRect,0.250000X0.262500X0.450000X-0.262500X0.450000X-0.262500X-0.450000X0.262500X-0.450000X0*%
%ADD18RoundRect,0.250000X-0.450000X0.262500X-0.450000X-0.262500X0.450000X-0.262500X0.450000X0.262500X0*%
%ADD19RoundRect,0.250000X-0.475000X0.250000X-0.475000X-0.250000X0.475000X-0.250000X0.475000X0.250000X0*%
%ADD20RoundRect,0.250000X-0.250000X-0.475000X0.250000X-0.475000X0.250000X0.475000X-0.250000X0.475000X0*%
%ADD21RoundRect,0.250000X0.250000X0.475000X-0.250000X0.475000X-0.250000X-0.475000X0.250000X-0.475000X0*%
G04 APERTURE END LIST*
D10*
X177075000Y-105362500D03*
X177725000Y-105362500D03*
X178375000Y-105362500D03*
X179025000Y-105362500D03*
X179675000Y-105362500D03*
X180325000Y-105362500D03*
X180975000Y-105362500D03*
X181625000Y-105362500D03*
X182275000Y-105362500D03*
X182925000Y-105362500D03*
X182925000Y-99637500D03*
X182275000Y-99637500D03*
X181625000Y-99637500D03*
X180975000Y-99637500D03*
X180325000Y-99637500D03*
X179675000Y-99637500D03*
X179025000Y-99637500D03*
X178375000Y-99637500D03*
X177725000Y-99637500D03*
X177075000Y-99637500D03*
D11*
X117250000Y-102280000D03*
X117250000Y-100000000D03*
X117250000Y-97720000D03*
D12*
X112625000Y-101525000D03*
X112625000Y-98475000D03*
X109275000Y-101525000D03*
X109275000Y-98475000D03*
D13*
X162400000Y-101550000D03*
X162400000Y-99250000D03*
X162400000Y-96950000D03*
D14*
X156100000Y-99250000D03*
D15*
X190100000Y-100550000D03*
X190900000Y-100550000D03*
D16*
X189750000Y-101500000D03*
X190250000Y-101500000D03*
X190750000Y-101500000D03*
X191250000Y-101500000D03*
X191250000Y-99600000D03*
X190750000Y-99600000D03*
X190250000Y-99600000D03*
X189750000Y-99600000D03*
D17*
X185162500Y-107500000D03*
X183337500Y-107500000D03*
D18*
X175000000Y-103587500D03*
X175000000Y-105412500D03*
D19*
X143500000Y-96050000D03*
X143500000Y-97950000D03*
D20*
X119800000Y-97750000D03*
X121700000Y-97750000D03*
X119800000Y-102500000D03*
X121700000Y-102500000D03*
D21*
X187450000Y-103500000D03*
X185550000Y-103500000D03*
X187450000Y-101250000D03*
X185550000Y-101250000D03*
X187450000Y-99000000D03*
X185550000Y-99000000D03*
D20*
X131800000Y-101000000D03*
X133700000Y-101000000D03*
D21*
X177350000Y-107500000D03*
X175450000Y-107500000D03*
D20*
X179050000Y-107500000D03*
X180950000Y-107500000D03*
X179050000Y-96750000D03*
X180950000Y-96750000D03*
X165050000Y-96750000D03*
X166950000Y-96750000D03*
X165050000Y-101750000D03*
X166950000Y-101750000D03*
D21*
X177450000Y-96750000D03*
X175550000Y-96750000D03*
M02*
