G04 #@! TF.GenerationSoftware,KiCad,Pcbnew,8.0.4*
G04 #@! TF.CreationDate,2024-09-22T20:29:30+02:00*
G04 #@! TF.ProjectId,Fader_Single,46616465-725f-4536-996e-676c652e6b69,rev?*
G04 #@! TF.SameCoordinates,Original*
G04 #@! TF.FileFunction,Copper,L1,Top*
G04 #@! TF.FilePolarity,Positive*
%FSLAX46Y46*%
G04 Gerber Fmt 4.6, Leading zero omitted, Abs format (unit mm)*
G04 Created by KiCad (PCBNEW 8.0.4) date 2024-09-22 20:29:30*
%MOMM*%
%LPD*%
G01*
G04 APERTURE LIST*
G04 Aperture macros list*
%AMRoundRect*
0 Rectangle with rounded corners*
0 $1 Rounding radius*
0 $2 $3 $4 $5 $6 $7 $8 $9 X,Y pos of 4 corners*
0 Add a 4 corners polygon primitive as box body*
4,1,4,$2,$3,$4,$5,$6,$7,$8,$9,$2,$3,0*
0 Add four circle primitives for the rounded corners*
1,1,$1+$1,$2,$3*
1,1,$1+$1,$4,$5*
1,1,$1+$1,$6,$7*
1,1,$1+$1,$8,$9*
0 Add four rect primitives between the rounded corners*
20,1,$1+$1,$2,$3,$4,$5,0*
20,1,$1+$1,$4,$5,$6,$7,0*
20,1,$1+$1,$6,$7,$8,$9,0*
20,1,$1+$1,$8,$9,$2,$3,0*%
G04 Aperture macros list end*
G04 #@! TA.AperFunction,SMDPad,CuDef*
%ADD10RoundRect,0.100000X0.100000X-0.637500X0.100000X0.637500X-0.100000X0.637500X-0.100000X-0.637500X0*%
G04 #@! TD*
G04 #@! TA.AperFunction,SMDPad,CuDef*
%ADD11RoundRect,0.250000X0.850000X0.350000X-0.850000X0.350000X-0.850000X-0.350000X0.850000X-0.350000X0*%
G04 #@! TD*
G04 #@! TA.AperFunction,SMDPad,CuDef*
%ADD12RoundRect,0.250000X1.275000X1.125000X-1.275000X1.125000X-1.275000X-1.125000X1.275000X-1.125000X0*%
G04 #@! TD*
G04 #@! TA.AperFunction,SMDPad,CuDef*
%ADD13RoundRect,0.249997X2.950003X2.650003X-2.950003X2.650003X-2.950003X-2.650003X2.950003X-2.650003X0*%
G04 #@! TD*
G04 #@! TA.AperFunction,SMDPad,CuDef*
%ADD14RoundRect,0.375000X0.625000X0.375000X-0.625000X0.375000X-0.625000X-0.375000X0.625000X-0.375000X0*%
G04 #@! TD*
G04 #@! TA.AperFunction,SMDPad,CuDef*
%ADD15RoundRect,0.500000X0.500000X1.400000X-0.500000X1.400000X-0.500000X-1.400000X0.500000X-1.400000X0*%
G04 #@! TD*
G04 #@! TA.AperFunction,SMDPad,CuDef*
%ADD16RoundRect,0.062500X0.062500X-0.187500X0.062500X0.187500X-0.062500X0.187500X-0.062500X-0.187500X0*%
G04 #@! TD*
G04 #@! TA.AperFunction,ComponentPad*
%ADD17C,0.600000*%
G04 #@! TD*
G04 #@! TA.AperFunction,SMDPad,CuDef*
%ADD18R,1.600000X0.900000*%
G04 #@! TD*
G04 #@! TA.AperFunction,SMDPad,CuDef*
%ADD19RoundRect,0.250000X0.262500X0.450000X-0.262500X0.450000X-0.262500X-0.450000X0.262500X-0.450000X0*%
G04 #@! TD*
G04 #@! TA.AperFunction,SMDPad,CuDef*
%ADD20RoundRect,0.250000X-0.450000X0.262500X-0.450000X-0.262500X0.450000X-0.262500X0.450000X0.262500X0*%
G04 #@! TD*
G04 #@! TA.AperFunction,ComponentPad*
%ADD21RoundRect,0.250001X-0.899999X-0.899999X0.899999X-0.899999X0.899999X0.899999X-0.899999X0.899999X0*%
G04 #@! TD*
G04 #@! TA.AperFunction,ComponentPad*
%ADD22C,2.300000*%
G04 #@! TD*
G04 #@! TA.AperFunction,ComponentPad*
%ADD23R,1.700000X1.700000*%
G04 #@! TD*
G04 #@! TA.AperFunction,ComponentPad*
%ADD24O,1.700000X1.700000*%
G04 #@! TD*
G04 #@! TA.AperFunction,SMDPad,CuDef*
%ADD25RoundRect,0.250000X-0.475000X0.250000X-0.475000X-0.250000X0.475000X-0.250000X0.475000X0.250000X0*%
G04 #@! TD*
G04 #@! TA.AperFunction,SMDPad,CuDef*
%ADD26RoundRect,0.250000X-0.250000X-0.475000X0.250000X-0.475000X0.250000X0.475000X-0.250000X0.475000X0*%
G04 #@! TD*
G04 #@! TA.AperFunction,SMDPad,CuDef*
%ADD27RoundRect,0.250000X0.250000X0.475000X-0.250000X0.475000X-0.250000X-0.475000X0.250000X-0.475000X0*%
G04 #@! TD*
G04 #@! TA.AperFunction,ComponentPad*
%ADD28C,3.000000*%
G04 #@! TD*
G04 #@! TA.AperFunction,ViaPad*
%ADD29C,0.600000*%
G04 #@! TD*
G04 #@! TA.AperFunction,Conductor*
%ADD30C,0.500000*%
G04 #@! TD*
G04 #@! TA.AperFunction,Conductor*
%ADD31C,1.000000*%
G04 #@! TD*
G04 #@! TA.AperFunction,Conductor*
%ADD32C,0.200000*%
G04 #@! TD*
G04 #@! TA.AperFunction,Conductor*
%ADD33C,0.300000*%
G04 #@! TD*
G04 #@! TA.AperFunction,Conductor*
%ADD34C,0.400000*%
G04 #@! TD*
G04 #@! TA.AperFunction,Conductor*
%ADD35C,0.800000*%
G04 #@! TD*
G04 APERTURE END LIST*
D10*
X177075000Y-105362500D03*
X177725000Y-105362500D03*
X178375000Y-105362500D03*
X179025000Y-105362500D03*
X179675000Y-105362500D03*
X180325000Y-105362500D03*
X180975000Y-105362500D03*
X181625000Y-105362500D03*
X182275000Y-105362500D03*
X182925000Y-105362500D03*
X182925000Y-99637500D03*
X182275000Y-99637500D03*
X181625000Y-99637500D03*
X180975000Y-99637500D03*
X180325000Y-99637500D03*
X179675000Y-99637500D03*
X179025000Y-99637500D03*
X178375000Y-99637500D03*
X177725000Y-99637500D03*
X177075000Y-99637500D03*
D11*
X117250000Y-102280000D03*
X117250000Y-100000000D03*
X117250000Y-97720000D03*
D12*
X112625000Y-101525000D03*
X112625000Y-98475000D03*
D13*
X110950000Y-100000000D03*
D12*
X109275000Y-101525000D03*
X109275000Y-98475000D03*
D14*
X162400000Y-101550000D03*
X162400000Y-99250000D03*
X162400000Y-96950000D03*
D15*
X156100000Y-99250000D03*
D16*
X189750000Y-101500000D03*
X190250000Y-101500000D03*
X190750000Y-101500000D03*
X191250000Y-101500000D03*
X191250000Y-99600000D03*
X190750000Y-99600000D03*
X190250000Y-99600000D03*
X189750000Y-99600000D03*
D17*
X190000000Y-100550000D03*
D18*
X190500000Y-100550000D03*
D17*
X191000000Y-100550000D03*
D19*
X185162500Y-107500000D03*
X183337500Y-107500000D03*
D20*
X175000000Y-103587500D03*
X175000000Y-105412500D03*
D21*
X188200000Y-106500000D03*
D22*
X193000000Y-106500000D03*
D23*
X149530000Y-104460000D03*
D24*
X149530000Y-107000000D03*
X146990000Y-104460000D03*
X146990000Y-107000000D03*
X144450000Y-104460000D03*
X144450000Y-107000000D03*
X141910000Y-104460000D03*
X141910000Y-107000000D03*
X139370000Y-104460000D03*
X139370000Y-107000000D03*
X136830000Y-104460000D03*
X136830000Y-107000000D03*
X134290000Y-104460000D03*
X134290000Y-107000000D03*
X131750000Y-104460000D03*
X131750000Y-107000000D03*
X129210000Y-104460000D03*
X129210000Y-107000000D03*
X126670000Y-104460000D03*
X126670000Y-107000000D03*
D23*
X156445000Y-106500000D03*
D24*
X158985000Y-106500000D03*
X161525000Y-106500000D03*
D23*
X166460000Y-106500000D03*
D24*
X169000000Y-106500000D03*
X171540000Y-106500000D03*
D23*
X117000000Y-107000000D03*
D24*
X119540000Y-107000000D03*
D23*
X109000000Y-107000000D03*
D24*
X111540000Y-107000000D03*
D25*
X143500000Y-96050000D03*
X143500000Y-97950000D03*
D26*
X119800000Y-97750000D03*
X121700000Y-97750000D03*
X119800000Y-102500000D03*
X121700000Y-102500000D03*
D27*
X187450000Y-103500000D03*
X185550000Y-103500000D03*
X187450000Y-101250000D03*
X185550000Y-101250000D03*
X187450000Y-99000000D03*
X185550000Y-99000000D03*
D26*
X131800000Y-101000000D03*
X133700000Y-101000000D03*
D27*
X177350000Y-107500000D03*
X175450000Y-107500000D03*
D26*
X179050000Y-107500000D03*
X180950000Y-107500000D03*
X179050000Y-96750000D03*
X180950000Y-96750000D03*
X165050000Y-96750000D03*
X166950000Y-96750000D03*
X165050000Y-101750000D03*
X166950000Y-101750000D03*
D28*
X107000000Y-85000000D03*
X107000000Y-92500000D03*
X107000000Y-81250000D03*
X194500000Y-92500000D03*
X194500000Y-81250000D03*
X194500000Y-88750000D03*
X194500000Y-85000000D03*
D27*
X177450000Y-96750000D03*
X175550000Y-96750000D03*
D29*
X124200000Y-105600000D03*
X192000000Y-86200000D03*
X190800000Y-96000000D03*
X191350000Y-102400000D03*
X182400000Y-101600000D03*
X177200000Y-103600000D03*
X140500000Y-97000000D03*
X153000000Y-107000000D03*
X196000000Y-107000000D03*
X194000000Y-97000000D03*
X186000000Y-92000000D03*
X183000000Y-88000000D03*
X170000000Y-88000000D03*
X151000000Y-88000000D03*
X131000000Y-88000000D03*
X111000000Y-93000000D03*
X115000000Y-87000000D03*
X189000000Y-80000000D03*
X173000000Y-80000000D03*
X151000000Y-80000000D03*
X132000000Y-80000000D03*
X112000000Y-80000000D03*
X122000000Y-96250000D03*
X123000000Y-101250000D03*
X145000000Y-97950000D03*
X135000000Y-100000000D03*
X175250000Y-95250000D03*
X182250000Y-95750000D03*
X184500000Y-103500000D03*
X184500000Y-101250000D03*
X184500000Y-99000000D03*
X182000000Y-107750000D03*
X173500000Y-103750000D03*
X174250000Y-107500000D03*
X173500000Y-106750000D03*
X164000000Y-106500000D03*
X159000000Y-101000000D03*
X159250000Y-97250000D03*
X154000000Y-101000000D03*
X154000000Y-97000000D03*
X149530000Y-98470000D03*
X124000000Y-107000000D03*
X122000000Y-107000000D03*
X114000000Y-107000000D03*
X106000000Y-100000000D03*
X111000000Y-96000000D03*
X120000000Y-82450003D03*
X188500000Y-93500000D03*
X188500000Y-98500000D03*
X165000000Y-95250000D03*
X165000000Y-84000000D03*
X179000000Y-84000000D03*
X179050000Y-91000000D03*
X189000000Y-103500000D03*
X120000000Y-96000000D03*
X192125000Y-102875000D03*
X124500000Y-102750000D03*
X136800000Y-101800000D03*
X177500000Y-93250000D03*
X177750000Y-98250000D03*
X142250000Y-91500000D03*
X140500000Y-92500000D03*
X178750000Y-103500000D03*
X153250000Y-99250000D03*
X173000000Y-95750000D03*
X181750000Y-103750000D03*
X180500000Y-102250000D03*
X181250000Y-102750000D03*
X190200000Y-89000000D03*
D30*
X126670000Y-107000000D02*
X125600000Y-107000000D01*
X125600000Y-107000000D02*
X124200000Y-105600000D01*
D31*
X129210000Y-107000000D02*
X126670000Y-107000000D01*
D30*
X120000000Y-82450003D02*
X186250003Y-82450003D01*
X186250003Y-82450003D02*
X192250000Y-88450000D01*
X192250000Y-88450000D02*
X192250000Y-102750000D01*
X192250000Y-102750000D02*
X192125000Y-102875000D01*
D32*
X191250000Y-102300000D02*
X191350000Y-102400000D01*
X191250000Y-101500000D02*
X191250000Y-102300000D01*
X191250000Y-101500000D02*
X191250000Y-100800000D01*
X191250000Y-100800000D02*
X191000000Y-100550000D01*
D33*
X180325000Y-99637500D02*
X180325000Y-97375000D01*
X180325000Y-97375000D02*
X180950000Y-96750000D01*
X180325000Y-99637500D02*
X180325000Y-100374999D01*
X181550001Y-101600000D02*
X182400000Y-101600000D01*
X180325000Y-100374999D02*
X181550001Y-101600000D01*
D31*
X136800000Y-101800000D02*
X152600000Y-101800000D01*
X152600000Y-101800000D02*
X153400000Y-102600000D01*
X153400000Y-102600000D02*
X161350000Y-102600000D01*
X161350000Y-102600000D02*
X162400000Y-101550000D01*
D33*
X177075000Y-99637500D02*
X176607044Y-99637500D01*
X176607044Y-99637500D02*
X174000000Y-97030456D01*
X174000000Y-97030456D02*
X174000000Y-95750000D01*
X174000000Y-95750000D02*
X170750000Y-92500000D01*
X170750000Y-92500000D02*
X140500000Y-92500000D01*
X143500000Y-96050000D02*
X146450000Y-96050000D01*
X146450000Y-96050000D02*
X149100000Y-93400000D01*
X149100000Y-93400000D02*
X170650000Y-93400000D01*
X170650000Y-93400000D02*
X173000000Y-95750000D01*
D30*
X121700000Y-96550000D02*
X122000000Y-96250000D01*
X121700000Y-97750000D02*
X121700000Y-96550000D01*
X121750000Y-102500000D02*
X123000000Y-101250000D01*
X121700000Y-102500000D02*
X121750000Y-102500000D01*
X135000000Y-100000000D02*
X134000000Y-101000000D01*
X134000000Y-101000000D02*
X133700000Y-101000000D01*
X145000000Y-97950000D02*
X143500000Y-97950000D01*
X175550000Y-95550000D02*
X175250000Y-95250000D01*
X175550000Y-96750000D02*
X175550000Y-95550000D01*
X181250000Y-96750000D02*
X182250000Y-95750000D01*
X180950000Y-96750000D02*
X181250000Y-96750000D01*
X185550000Y-103500000D02*
X184500000Y-103500000D01*
X185550000Y-101250000D02*
X184500000Y-101250000D01*
X185550000Y-99000000D02*
X184500000Y-99000000D01*
X185550000Y-103500000D02*
X185550000Y-99000000D01*
X181750000Y-107500000D02*
X182000000Y-107750000D01*
X180950000Y-107500000D02*
X181750000Y-107500000D01*
X173662500Y-103587500D02*
X173500000Y-103750000D01*
X175000000Y-103587500D02*
X173662500Y-103587500D01*
X175550000Y-107500000D02*
X174250000Y-107500000D01*
X173250000Y-106500000D02*
X173500000Y-106750000D01*
X171540000Y-106500000D02*
X173250000Y-106500000D01*
X161525000Y-106500000D02*
X164000000Y-106500000D01*
X157250000Y-99250000D02*
X159000000Y-101000000D01*
X157250000Y-99250000D02*
X159250000Y-97250000D01*
X156100000Y-99250000D02*
X157250000Y-99250000D01*
X155750000Y-99250000D02*
X154000000Y-101000000D01*
X156100000Y-99250000D02*
X155750000Y-99250000D01*
X156100000Y-99100000D02*
X154000000Y-97000000D01*
X156100000Y-99250000D02*
X156100000Y-99100000D01*
X149530000Y-98470000D02*
X152000000Y-96000000D01*
X152000000Y-96000000D02*
X161450000Y-96000000D01*
X161450000Y-96000000D02*
X162400000Y-96950000D01*
D31*
X149530000Y-107000000D02*
X149530000Y-104460000D01*
X126670000Y-107000000D02*
X124000000Y-107000000D01*
X119540000Y-107000000D02*
X122000000Y-107000000D01*
X111540000Y-107000000D02*
X114000000Y-107000000D01*
X107525000Y-101525000D02*
X106000000Y-100000000D01*
X109275000Y-101525000D02*
X107525000Y-101525000D01*
X109275000Y-97725000D02*
X111000000Y-96000000D01*
X109275000Y-98475000D02*
X109275000Y-97725000D01*
X109000000Y-107000000D02*
X111750000Y-104250000D01*
X111750000Y-104250000D02*
X115280000Y-104250000D01*
X115280000Y-104250000D02*
X117250000Y-102280000D01*
X117000000Y-107000000D02*
X117000000Y-102530000D01*
X117000000Y-102530000D02*
X117250000Y-102280000D01*
D34*
X179050000Y-91000000D02*
X179050000Y-96750000D01*
D35*
X188500000Y-93500000D02*
X188500000Y-86500000D01*
X186000000Y-84000000D02*
X179000000Y-84000000D01*
X188500000Y-86500000D02*
X186000000Y-84000000D01*
D34*
X179674999Y-104094238D02*
X179675000Y-104094237D01*
X179675000Y-104094237D02*
X179675000Y-99637500D01*
X179675000Y-104094239D02*
X179674999Y-104094238D01*
X179675000Y-105362500D02*
X179675000Y-104094239D01*
D35*
X188000000Y-99000000D02*
X188500000Y-98500000D01*
X187450000Y-99000000D02*
X188000000Y-99000000D01*
X165050000Y-95300000D02*
X165000000Y-95250000D01*
X165050000Y-96750000D02*
X165050000Y-95300000D01*
X179000000Y-84000000D02*
X165000000Y-84000000D01*
X165000000Y-84000000D02*
X109750000Y-84000000D01*
X107000000Y-92500000D02*
X104800000Y-90300000D01*
X104800000Y-90300000D02*
X104800000Y-83450000D01*
X104800000Y-83450000D02*
X107000000Y-81250000D01*
X109750000Y-84000000D02*
X107000000Y-81250000D01*
D30*
X120000000Y-96000000D02*
X120000000Y-97550000D01*
X120000000Y-97550000D02*
X119800000Y-97750000D01*
D33*
X107000000Y-85000000D02*
X117000000Y-95000000D01*
X117000000Y-95000000D02*
X142450000Y-95000000D01*
X142450000Y-95000000D02*
X143500000Y-96050000D01*
D30*
X187450000Y-103500000D02*
X189000000Y-103500000D01*
D33*
X177075000Y-105362500D02*
X175050000Y-105362500D01*
X175050000Y-105362500D02*
X175000000Y-105412500D01*
D31*
X162400000Y-101550000D02*
X164850000Y-101550000D01*
X164850000Y-101550000D02*
X165050000Y-101750000D01*
X162400000Y-96950000D02*
X164850000Y-96950000D01*
X164850000Y-96950000D02*
X165050000Y-96750000D01*
X124500000Y-102750000D02*
X122750000Y-104500000D01*
X122750000Y-104500000D02*
X120750000Y-104500000D01*
X120750000Y-104500000D02*
X119800000Y-103550000D01*
X119800000Y-103550000D02*
X119800000Y-102500000D01*
X162400000Y-101550000D02*
X162400000Y-99250000D01*
X117250000Y-97720000D02*
X119770000Y-97720000D01*
X119770000Y-97720000D02*
X119800000Y-97750000D01*
X117250000Y-102280000D02*
X119580000Y-102280000D01*
X119580000Y-102280000D02*
X119800000Y-102500000D01*
D33*
X189750000Y-99600000D02*
X188050000Y-99600000D01*
X188050000Y-99600000D02*
X187450000Y-99000000D01*
X187450000Y-101250000D02*
X187450000Y-103500000D01*
X189750000Y-101500000D02*
X187700000Y-101500000D01*
X187700000Y-101500000D02*
X187450000Y-101250000D01*
D34*
X179675000Y-105362500D02*
X179675000Y-106875000D01*
X179675000Y-106875000D02*
X179050000Y-107500000D01*
X177450000Y-107500000D02*
X179050000Y-107500000D01*
X179675000Y-99637500D02*
X179675000Y-97375000D01*
X179675000Y-97375000D02*
X179050000Y-96750000D01*
D30*
X177450000Y-96750000D02*
X179050000Y-96750000D01*
D33*
X175750000Y-91500000D02*
X177500000Y-93250000D01*
X142250000Y-91500000D02*
X175750000Y-91500000D01*
X177750000Y-98250000D02*
X177750000Y-99612500D01*
X177750000Y-99612500D02*
X177725000Y-99637500D01*
X132250000Y-99250000D02*
X131800000Y-99700000D01*
X153250000Y-99250000D02*
X132250000Y-99250000D01*
X131800000Y-99700000D02*
X131800000Y-101000000D01*
X131800000Y-101000000D02*
X131800000Y-104410000D01*
X131800000Y-104410000D02*
X131750000Y-104460000D01*
X179025000Y-103775000D02*
X178750000Y-103500000D01*
X179025000Y-105362500D02*
X179025000Y-103775000D01*
X185162500Y-107500000D02*
X185162500Y-105412500D01*
X185162500Y-105412500D02*
X183750000Y-104000000D01*
X182275000Y-104625001D02*
X182275000Y-105362500D01*
X183750000Y-104000000D02*
X182900001Y-104000000D01*
X182900001Y-104000000D02*
X182275000Y-104625001D01*
X183337500Y-107500000D02*
X182750000Y-107500000D01*
X182750000Y-107500000D02*
X181625000Y-106375000D01*
X181625000Y-106375000D02*
X181625000Y-105362500D01*
X181625000Y-103875000D02*
X181625000Y-105362500D01*
X181750000Y-103750000D02*
X181625000Y-103875000D01*
X180325000Y-102425000D02*
X180500000Y-102250000D01*
X180325000Y-105362500D02*
X180325000Y-102425000D01*
X180975000Y-103025000D02*
X181250000Y-102750000D01*
X180975000Y-105362500D02*
X180975000Y-103025000D01*
D32*
X190250000Y-99600000D02*
X190250000Y-99000000D01*
X190250000Y-99000000D02*
X188750000Y-97500000D01*
X188750000Y-97500000D02*
X184500000Y-97500000D01*
X184500000Y-97500000D02*
X182925000Y-99075000D01*
X182925000Y-99075000D02*
X182925000Y-99637500D01*
X190750000Y-99600000D02*
X190750000Y-98750000D01*
X190750000Y-98750000D02*
X189000000Y-97000000D01*
X182275000Y-98725000D02*
X182275000Y-99637500D01*
X189000000Y-97000000D02*
X184000000Y-97000000D01*
X184000000Y-97000000D02*
X182275000Y-98725000D01*
X191250000Y-99600000D02*
X191250000Y-98396403D01*
X191250000Y-98396403D02*
X189353597Y-96500000D01*
X189353597Y-96500000D02*
X183750000Y-96500000D01*
X183750000Y-96500000D02*
X181625000Y-98625000D01*
X181625000Y-98625000D02*
X181625000Y-99637500D01*
D33*
X166460000Y-106500000D02*
X164710000Y-104750000D01*
X164710000Y-104750000D02*
X158195000Y-104750000D01*
X158195000Y-104750000D02*
X156445000Y-106500000D01*
X169000000Y-106500000D02*
X167250000Y-108250000D01*
X160735000Y-108250000D02*
X158985000Y-106500000D01*
X167250000Y-108250000D02*
X160735000Y-108250000D01*
X171460000Y-101500000D02*
X177500000Y-101500000D01*
X166460000Y-106500000D02*
X171460000Y-101500000D01*
X177500000Y-101500000D02*
X178375000Y-100625000D01*
X178375000Y-100625000D02*
X178375000Y-99637500D01*
X173250000Y-102250000D02*
X178000000Y-102250000D01*
X179025000Y-101225000D02*
X179025000Y-99637500D01*
X169000000Y-106500000D02*
X173250000Y-102250000D01*
X178000000Y-102250000D02*
X179025000Y-101225000D01*
D32*
X193000000Y-106500000D02*
X190750000Y-104250000D01*
X190750000Y-104250000D02*
X190750000Y-101500000D01*
X190250000Y-101500000D02*
X190250000Y-104350000D01*
X190250000Y-104350000D02*
X188200000Y-106400000D01*
X188200000Y-106400000D02*
X188200000Y-106500000D01*
G04 #@! TA.AperFunction,Conductor*
G36*
X105898810Y-86674594D02*
G01*
X105915120Y-86686803D01*
X105915685Y-86687226D01*
X105915690Y-86687229D01*
X106166833Y-86824364D01*
X106166832Y-86824364D01*
X106166836Y-86824365D01*
X106166839Y-86824367D01*
X106434954Y-86924369D01*
X106434960Y-86924370D01*
X106434962Y-86924371D01*
X106714566Y-86985195D01*
X106714568Y-86985195D01*
X106714572Y-86985196D01*
X106968220Y-87003337D01*
X106999999Y-87005610D01*
X107000000Y-87005610D01*
X107000001Y-87005610D01*
X107028595Y-87003564D01*
X107285428Y-86985196D01*
X107291699Y-86983832D01*
X107565037Y-86924371D01*
X107565037Y-86924370D01*
X107565046Y-86924369D01*
X107810398Y-86832856D01*
X107880089Y-86827873D01*
X107941412Y-86861358D01*
X116585325Y-95505272D01*
X116585332Y-95505278D01*
X116691863Y-95576459D01*
X116691865Y-95576460D01*
X116691874Y-95576466D01*
X116724998Y-95590186D01*
X116810256Y-95625501D01*
X116810260Y-95625501D01*
X116810261Y-95625502D01*
X116935928Y-95650500D01*
X116935931Y-95650500D01*
X119099441Y-95650500D01*
X119166480Y-95670185D01*
X119212235Y-95722989D01*
X119222179Y-95792147D01*
X119216483Y-95815454D01*
X119214632Y-95820742D01*
X119214630Y-95820750D01*
X119194435Y-95999996D01*
X119194435Y-96000003D01*
X119214630Y-96179249D01*
X119214631Y-96179254D01*
X119242542Y-96259017D01*
X119249500Y-96299972D01*
X119249500Y-96509362D01*
X119229815Y-96576401D01*
X119190598Y-96614899D01*
X119122288Y-96657033D01*
X119081342Y-96682289D01*
X119080451Y-96683181D01*
X119079687Y-96683597D01*
X119075681Y-96686766D01*
X119075139Y-96686081D01*
X119019128Y-96716666D01*
X118992770Y-96719500D01*
X118510132Y-96719500D01*
X118445036Y-96701039D01*
X118419334Y-96685186D01*
X118252797Y-96630001D01*
X118252795Y-96630000D01*
X118150010Y-96619500D01*
X116349998Y-96619500D01*
X116349981Y-96619501D01*
X116247203Y-96630000D01*
X116247200Y-96630001D01*
X116080668Y-96685185D01*
X116080663Y-96685187D01*
X115931342Y-96777289D01*
X115807289Y-96901342D01*
X115715187Y-97050663D01*
X115715185Y-97050668D01*
X115700652Y-97094526D01*
X115660001Y-97217203D01*
X115660001Y-97217204D01*
X115660000Y-97217204D01*
X115649500Y-97319983D01*
X115649500Y-98120001D01*
X115649501Y-98120019D01*
X115660000Y-98222796D01*
X115660001Y-98222799D01*
X115682518Y-98290750D01*
X115715186Y-98389334D01*
X115807288Y-98538656D01*
X115931344Y-98662712D01*
X116080094Y-98754461D01*
X116126818Y-98806409D01*
X116138041Y-98875372D01*
X116110197Y-98939454D01*
X116080094Y-98965538D01*
X116063946Y-98975499D01*
X115931342Y-99057289D01*
X115807289Y-99181342D01*
X115715187Y-99330663D01*
X115715186Y-99330666D01*
X115660001Y-99497203D01*
X115660001Y-99497204D01*
X115660000Y-99497204D01*
X115649500Y-99599983D01*
X115649500Y-100400001D01*
X115649501Y-100400019D01*
X115660000Y-100502796D01*
X115660001Y-100502799D01*
X115715185Y-100669331D01*
X115715187Y-100669336D01*
X115736125Y-100703282D01*
X115807288Y-100818656D01*
X115931344Y-100942712D01*
X116080092Y-101034460D01*
X116080094Y-101034461D01*
X116126818Y-101086409D01*
X116138041Y-101155372D01*
X116110197Y-101219454D01*
X116080094Y-101245539D01*
X115931342Y-101337289D01*
X115807289Y-101461342D01*
X115715187Y-101610663D01*
X115715185Y-101610668D01*
X115701669Y-101651457D01*
X115660001Y-101777203D01*
X115660001Y-101777204D01*
X115660000Y-101777204D01*
X115649500Y-101879983D01*
X115649500Y-102414216D01*
X115629815Y-102481255D01*
X115613181Y-102501897D01*
X115428451Y-102686628D01*
X115072933Y-103042147D01*
X114901899Y-103213181D01*
X114840576Y-103246666D01*
X114814218Y-103249500D01*
X114633595Y-103249500D01*
X114566556Y-103229815D01*
X114520801Y-103177011D01*
X114510857Y-103107853D01*
X114528057Y-103060403D01*
X114584354Y-102969131D01*
X114584359Y-102969120D01*
X114639505Y-102802698D01*
X114649999Y-102699988D01*
X114650000Y-102699975D01*
X114650000Y-101775000D01*
X111200000Y-101775000D01*
X111200000Y-103347927D01*
X111180315Y-103414966D01*
X111144892Y-103451028D01*
X111128398Y-103462048D01*
X111128399Y-103462049D01*
X111112216Y-103472862D01*
X108971897Y-105613181D01*
X108910574Y-105646666D01*
X108884216Y-105649500D01*
X108102129Y-105649500D01*
X108102123Y-105649501D01*
X108042516Y-105655908D01*
X107907671Y-105706202D01*
X107907664Y-105706206D01*
X107792455Y-105792452D01*
X107792452Y-105792455D01*
X107706206Y-105907664D01*
X107706202Y-105907671D01*
X107655908Y-106042517D01*
X107649501Y-106102116D01*
X107649500Y-106102135D01*
X107649500Y-107897870D01*
X107649501Y-107897876D01*
X107655908Y-107957483D01*
X107706202Y-108092328D01*
X107706206Y-108092335D01*
X107792452Y-108207544D01*
X107792455Y-108207547D01*
X107884208Y-108276234D01*
X107926079Y-108332168D01*
X107931063Y-108401859D01*
X107897577Y-108463182D01*
X107836254Y-108496666D01*
X107809897Y-108499500D01*
X104624500Y-108499500D01*
X104557461Y-108479815D01*
X104511706Y-108427011D01*
X104500500Y-108375500D01*
X104500500Y-102699988D01*
X107250001Y-102699988D01*
X107260494Y-102802699D01*
X107315640Y-102969120D01*
X107315642Y-102969125D01*
X107407683Y-103118346D01*
X107531653Y-103242316D01*
X107680874Y-103334357D01*
X107680879Y-103334359D01*
X107847302Y-103389506D01*
X107847300Y-103389506D01*
X107906134Y-103395516D01*
X107917124Y-103400000D01*
X107943701Y-103400000D01*
X107956304Y-103400642D01*
X107963461Y-103401373D01*
X107971419Y-103400000D01*
X108001375Y-103400000D01*
X108001384Y-103399999D01*
X109025000Y-103399999D01*
X109525000Y-103399999D01*
X110700000Y-103399999D01*
X110700000Y-101775000D01*
X109525000Y-101775000D01*
X109525000Y-103399999D01*
X109025000Y-103399999D01*
X109025000Y-101775000D01*
X107250001Y-101775000D01*
X107250001Y-102699988D01*
X104500500Y-102699988D01*
X104500500Y-101274999D01*
X107250000Y-101274999D01*
X107250002Y-101275000D01*
X109025000Y-101275000D01*
X109525000Y-101275000D01*
X110700000Y-101275000D01*
X111200000Y-101275000D01*
X112375000Y-101275000D01*
X112875000Y-101275000D01*
X114649999Y-101275000D01*
X114649999Y-100250000D01*
X112875000Y-100250000D01*
X112875000Y-101275000D01*
X112375000Y-101275000D01*
X112375000Y-100250000D01*
X111200000Y-100250000D01*
X111200000Y-101275000D01*
X110700000Y-101275000D01*
X110700000Y-100250000D01*
X109525000Y-100250000D01*
X109525000Y-101275000D01*
X109025000Y-101275000D01*
X109025000Y-100250000D01*
X107250000Y-100250000D01*
X107250000Y-101274999D01*
X104500500Y-101274999D01*
X104500500Y-99750000D01*
X107250000Y-99750000D01*
X109025000Y-99750000D01*
X109525000Y-99750000D01*
X110700000Y-99750000D01*
X111200000Y-99750000D01*
X112375000Y-99750000D01*
X112875000Y-99750000D01*
X114649999Y-99750000D01*
X114649999Y-99656113D01*
X114650000Y-99656092D01*
X114650000Y-98725000D01*
X112875000Y-98725000D01*
X112875000Y-99750000D01*
X112375000Y-99750000D01*
X112375000Y-98725000D01*
X111200000Y-98725000D01*
X111200000Y-99750000D01*
X110700000Y-99750000D01*
X110700000Y-98725000D01*
X109525000Y-98725000D01*
X109525000Y-99750000D01*
X109025000Y-99750000D01*
X109025000Y-98725000D01*
X107250000Y-98725000D01*
X107250000Y-99750000D01*
X104500500Y-99750000D01*
X104500500Y-97300011D01*
X107250000Y-97300011D01*
X107250000Y-98225000D01*
X109025000Y-98225000D01*
X109525000Y-98225000D01*
X110700000Y-98225000D01*
X111200000Y-98225000D01*
X112375000Y-98225000D01*
X112875000Y-98225000D01*
X114649999Y-98225000D01*
X114649999Y-97300028D01*
X114649998Y-97300010D01*
X114642338Y-97225022D01*
X114639506Y-97197301D01*
X114584359Y-97030879D01*
X114584357Y-97030874D01*
X114492316Y-96881653D01*
X114368346Y-96757683D01*
X114219125Y-96665642D01*
X114219120Y-96665640D01*
X114052698Y-96610494D01*
X113949988Y-96600000D01*
X112875000Y-96600000D01*
X112875000Y-98225000D01*
X112375000Y-98225000D01*
X112375000Y-96600000D01*
X111200000Y-96600000D01*
X111200000Y-98225000D01*
X110700000Y-98225000D01*
X110700000Y-96600000D01*
X109525000Y-96600000D01*
X109525000Y-98225000D01*
X109025000Y-98225000D01*
X109025000Y-96600000D01*
X107949197Y-96600000D01*
X107946364Y-96600374D01*
X107847300Y-96610494D01*
X107680879Y-96665640D01*
X107680874Y-96665642D01*
X107531653Y-96757683D01*
X107407683Y-96881653D01*
X107315642Y-97030874D01*
X107315640Y-97030879D01*
X107260494Y-97197301D01*
X107250000Y-97300011D01*
X104500500Y-97300011D01*
X104500500Y-91573362D01*
X104520185Y-91506323D01*
X104572989Y-91460568D01*
X104642147Y-91450624D01*
X104705703Y-91479649D01*
X104712181Y-91485681D01*
X105043087Y-91816587D01*
X105076572Y-91877910D01*
X105079406Y-91904268D01*
X105079406Y-91904269D01*
X105076572Y-91930627D01*
X105014804Y-92214566D01*
X104994390Y-92499998D01*
X104994390Y-92500001D01*
X105014804Y-92785433D01*
X105075628Y-93065037D01*
X105075630Y-93065043D01*
X105075631Y-93065046D01*
X105160336Y-93292147D01*
X105175635Y-93333166D01*
X105312770Y-93584309D01*
X105312775Y-93584317D01*
X105484254Y-93813387D01*
X105484270Y-93813405D01*
X105686594Y-94015729D01*
X105686612Y-94015745D01*
X105915682Y-94187224D01*
X105915690Y-94187229D01*
X106166833Y-94324364D01*
X106166832Y-94324364D01*
X106166836Y-94324365D01*
X106166839Y-94324367D01*
X106434954Y-94424369D01*
X106434960Y-94424370D01*
X106434962Y-94424371D01*
X106714566Y-94485195D01*
X106714568Y-94485195D01*
X106714572Y-94485196D01*
X106968220Y-94503337D01*
X106999999Y-94505610D01*
X107000000Y-94505610D01*
X107000001Y-94505610D01*
X107028595Y-94503564D01*
X107285428Y-94485196D01*
X107438093Y-94451986D01*
X107565037Y-94424371D01*
X107565037Y-94424370D01*
X107565046Y-94424369D01*
X107833161Y-94324367D01*
X108084315Y-94187226D01*
X108313395Y-94015739D01*
X108515739Y-93813395D01*
X108687226Y-93584315D01*
X108824367Y-93333161D01*
X108924369Y-93065046D01*
X108938027Y-93002262D01*
X108985195Y-92785433D01*
X108985195Y-92785432D01*
X108985196Y-92785428D01*
X109005610Y-92500000D01*
X109003080Y-92464632D01*
X108992790Y-92320750D01*
X108985196Y-92214572D01*
X108976638Y-92175233D01*
X108924371Y-91934962D01*
X108924370Y-91934960D01*
X108924369Y-91934954D01*
X108824367Y-91666839D01*
X108773324Y-91573362D01*
X108687229Y-91415690D01*
X108687224Y-91415682D01*
X108515745Y-91186612D01*
X108515729Y-91186594D01*
X108313405Y-90984270D01*
X108313387Y-90984254D01*
X108084317Y-90812775D01*
X108084309Y-90812770D01*
X107833166Y-90675635D01*
X107833167Y-90675635D01*
X107672928Y-90615869D01*
X107565046Y-90575631D01*
X107565043Y-90575630D01*
X107565037Y-90575628D01*
X107285433Y-90514804D01*
X107000001Y-90494390D01*
X106999999Y-90494390D01*
X106714566Y-90514804D01*
X106430627Y-90576572D01*
X106404269Y-90579406D01*
X106404268Y-90579406D01*
X106337229Y-90559721D01*
X106316587Y-90543087D01*
X105736819Y-89963319D01*
X105703334Y-89901996D01*
X105700500Y-89875638D01*
X105700500Y-86773860D01*
X105720185Y-86706821D01*
X105772989Y-86661066D01*
X105842147Y-86651122D01*
X105898810Y-86674594D01*
G37*
G04 #@! TD.AperFunction*
G04 #@! TA.AperFunction,Conductor*
G36*
X115940666Y-105099028D02*
G01*
X115987357Y-105151007D01*
X115999500Y-105204524D01*
X115999500Y-105585858D01*
X115979815Y-105652897D01*
X115927011Y-105698652D01*
X115918847Y-105702034D01*
X115907669Y-105706204D01*
X115907664Y-105706206D01*
X115792455Y-105792452D01*
X115792452Y-105792455D01*
X115706206Y-105907664D01*
X115706202Y-105907671D01*
X115655908Y-106042517D01*
X115649501Y-106102116D01*
X115649500Y-106102135D01*
X115649500Y-107897870D01*
X115649501Y-107897876D01*
X115655908Y-107957483D01*
X115706202Y-108092328D01*
X115706206Y-108092335D01*
X115792452Y-108207544D01*
X115792455Y-108207547D01*
X115884208Y-108276234D01*
X115926079Y-108332168D01*
X115931063Y-108401859D01*
X115897577Y-108463182D01*
X115836254Y-108496666D01*
X115809897Y-108499500D01*
X112078012Y-108499500D01*
X112010973Y-108479815D01*
X111965218Y-108427011D01*
X111955274Y-108357853D01*
X111984299Y-108294297D01*
X112025607Y-108263118D01*
X112217578Y-108173600D01*
X112411082Y-108038105D01*
X112578105Y-107871082D01*
X112713600Y-107677578D01*
X112813429Y-107463492D01*
X112813432Y-107463486D01*
X112870636Y-107250000D01*
X111973012Y-107250000D01*
X112005925Y-107192993D01*
X112040000Y-107065826D01*
X112040000Y-106934174D01*
X112005925Y-106807007D01*
X111973012Y-106750000D01*
X112870636Y-106750000D01*
X112870635Y-106749999D01*
X112813432Y-106536513D01*
X112813429Y-106536507D01*
X112713600Y-106322422D01*
X112713599Y-106322420D01*
X112578113Y-106128926D01*
X112578108Y-106128920D01*
X112411082Y-105961894D01*
X112217578Y-105826399D01*
X112003492Y-105726570D01*
X112003488Y-105726568D01*
X111962402Y-105715559D01*
X111902742Y-105679193D01*
X111872214Y-105616346D01*
X111880509Y-105546970D01*
X111906810Y-105508110D01*
X112128104Y-105286816D01*
X112189425Y-105253334D01*
X112215783Y-105250500D01*
X115378543Y-105250500D01*
X115471525Y-105232004D01*
X115518018Y-105222756D01*
X115571836Y-105212051D01*
X115625165Y-105189961D01*
X115753914Y-105136632D01*
X115806610Y-105101421D01*
X115873286Y-105080544D01*
X115940666Y-105099028D01*
G37*
G04 #@! TD.AperFunction*
G04 #@! TA.AperFunction,Conductor*
G36*
X170396231Y-94070185D02*
G01*
X170416873Y-94086819D01*
X172178277Y-95848223D01*
X172211762Y-95909546D01*
X172213815Y-95922012D01*
X172214630Y-95929246D01*
X172214632Y-95929255D01*
X172274210Y-96099521D01*
X172353048Y-96224991D01*
X172370184Y-96252262D01*
X172497738Y-96379816D01*
X172588080Y-96436582D01*
X172613889Y-96452799D01*
X172650478Y-96475789D01*
X172746424Y-96509362D01*
X172820745Y-96535368D01*
X172820750Y-96535369D01*
X172999996Y-96555565D01*
X173000000Y-96555565D01*
X173000004Y-96555565D01*
X173178137Y-96535494D01*
X173179255Y-96535368D01*
X173184542Y-96533517D01*
X173254316Y-96529952D01*
X173314945Y-96564676D01*
X173347177Y-96626667D01*
X173349500Y-96650557D01*
X173349500Y-97094526D01*
X173352117Y-97107681D01*
X173362573Y-97160247D01*
X173364647Y-97170670D01*
X173364647Y-97170672D01*
X173374497Y-97220192D01*
X173374499Y-97220200D01*
X173415830Y-97319983D01*
X173423535Y-97338583D01*
X173451797Y-97380880D01*
X173494726Y-97445129D01*
X176192370Y-100142773D01*
X176192373Y-100142775D01*
X176192375Y-100142777D01*
X176293478Y-100210331D01*
X176298909Y-100213960D01*
X176298911Y-100213961D01*
X176298917Y-100213965D01*
X176298923Y-100213967D01*
X176304285Y-100216833D01*
X176303713Y-100217902D01*
X176353135Y-100257721D01*
X176374225Y-100312267D01*
X176389954Y-100431754D01*
X176389956Y-100431762D01*
X176450464Y-100577842D01*
X176505844Y-100650014D01*
X176531038Y-100715183D01*
X176517000Y-100783628D01*
X176468186Y-100833617D01*
X176407468Y-100849500D01*
X171395929Y-100849500D01*
X171270261Y-100874497D01*
X171270255Y-100874499D01*
X171151874Y-100923534D01*
X171045326Y-100994726D01*
X171045325Y-100994727D01*
X166926872Y-105113181D01*
X166865549Y-105146666D01*
X166839191Y-105149500D01*
X166080808Y-105149500D01*
X166013769Y-105129815D01*
X165993127Y-105113181D01*
X165124674Y-104244727D01*
X165124673Y-104244726D01*
X165124669Y-104244723D01*
X165018127Y-104173535D01*
X164968534Y-104152993D01*
X164899744Y-104124499D01*
X164899738Y-104124497D01*
X164774071Y-104099500D01*
X164774069Y-104099500D01*
X158130931Y-104099500D01*
X158130929Y-104099500D01*
X158005261Y-104124497D01*
X158005255Y-104124499D01*
X157899837Y-104168165D01*
X157899836Y-104168165D01*
X157886876Y-104173532D01*
X157780326Y-104244726D01*
X156911871Y-105113181D01*
X156850548Y-105146666D01*
X156824190Y-105149500D01*
X155547129Y-105149500D01*
X155547123Y-105149501D01*
X155487516Y-105155908D01*
X155352671Y-105206202D01*
X155352664Y-105206206D01*
X155237455Y-105292452D01*
X155237452Y-105292455D01*
X155151206Y-105407664D01*
X155151202Y-105407671D01*
X155100908Y-105542517D01*
X155094501Y-105602116D01*
X155094500Y-105602135D01*
X155094500Y-107397870D01*
X155094501Y-107397876D01*
X155100908Y-107457483D01*
X155151202Y-107592328D01*
X155151206Y-107592335D01*
X155237452Y-107707544D01*
X155237455Y-107707547D01*
X155352664Y-107793793D01*
X155352671Y-107793797D01*
X155487517Y-107844091D01*
X155487516Y-107844091D01*
X155494444Y-107844835D01*
X155547127Y-107850500D01*
X157342872Y-107850499D01*
X157402483Y-107844091D01*
X157537331Y-107793796D01*
X157652546Y-107707546D01*
X157738796Y-107592331D01*
X157787810Y-107460916D01*
X157829681Y-107404984D01*
X157895145Y-107380566D01*
X157963418Y-107395417D01*
X157991673Y-107416569D01*
X158113599Y-107538495D01*
X158200723Y-107599500D01*
X158307165Y-107674032D01*
X158307167Y-107674033D01*
X158307170Y-107674035D01*
X158521337Y-107773903D01*
X158749592Y-107835063D01*
X158926034Y-107850500D01*
X158984999Y-107855659D01*
X158985000Y-107855659D01*
X158985001Y-107855659D01*
X159043966Y-107850500D01*
X159220408Y-107835063D01*
X159292989Y-107815615D01*
X159362839Y-107817278D01*
X159412763Y-107847709D01*
X159852873Y-108287819D01*
X159886358Y-108349142D01*
X159881374Y-108418834D01*
X159839502Y-108474767D01*
X159774038Y-108499184D01*
X159765192Y-108499500D01*
X150069196Y-108499500D01*
X150002157Y-108479815D01*
X149956402Y-108427011D01*
X149946458Y-108357853D01*
X149975483Y-108294297D01*
X150016791Y-108263118D01*
X150207830Y-108174035D01*
X150401401Y-108038495D01*
X150568495Y-107871401D01*
X150704035Y-107677830D01*
X150803903Y-107463663D01*
X150865063Y-107235408D01*
X150885659Y-107000000D01*
X150865063Y-106764592D01*
X150815962Y-106581342D01*
X150803905Y-106536344D01*
X150803904Y-106536343D01*
X150803903Y-106536337D01*
X150704035Y-106322171D01*
X150698731Y-106314595D01*
X150568494Y-106128597D01*
X150566819Y-106126922D01*
X150566315Y-106126000D01*
X150565014Y-106124449D01*
X150565325Y-106124187D01*
X150533334Y-106065599D01*
X150530500Y-106039241D01*
X150530500Y-105874141D01*
X150550185Y-105807102D01*
X150602989Y-105761347D01*
X150611149Y-105757966D01*
X150622331Y-105753796D01*
X150624063Y-105752500D01*
X150684174Y-105707500D01*
X150737546Y-105667546D01*
X150823796Y-105552331D01*
X150874091Y-105417483D01*
X150880500Y-105357873D01*
X150880499Y-103562128D01*
X150874091Y-103502517D01*
X150873153Y-103500003D01*
X150823797Y-103367671D01*
X150823793Y-103367664D01*
X150737547Y-103252455D01*
X150737544Y-103252452D01*
X150622335Y-103166206D01*
X150622328Y-103166202D01*
X150487482Y-103115908D01*
X150487483Y-103115908D01*
X150427883Y-103109501D01*
X150427881Y-103109500D01*
X150427873Y-103109500D01*
X150427864Y-103109500D01*
X148632129Y-103109500D01*
X148632123Y-103109501D01*
X148572516Y-103115908D01*
X148437671Y-103166202D01*
X148437664Y-103166206D01*
X148322455Y-103252452D01*
X148322452Y-103252455D01*
X148236206Y-103367664D01*
X148236202Y-103367671D01*
X148186997Y-103499598D01*
X148145126Y-103555532D01*
X148079661Y-103579949D01*
X148011388Y-103565097D01*
X147983134Y-103543946D01*
X147861082Y-103421894D01*
X147667578Y-103286399D01*
X147453492Y-103186570D01*
X147453486Y-103186567D01*
X147240000Y-103129364D01*
X147240000Y-104026988D01*
X147182993Y-103994075D01*
X147055826Y-103960000D01*
X146924174Y-103960000D01*
X146797007Y-103994075D01*
X146740000Y-104026988D01*
X146740000Y-103129364D01*
X146739999Y-103129364D01*
X146526513Y-103186567D01*
X146526507Y-103186570D01*
X146312422Y-103286399D01*
X146312420Y-103286400D01*
X146118926Y-103421886D01*
X146118920Y-103421891D01*
X145951891Y-103588920D01*
X145951890Y-103588922D01*
X145821575Y-103775031D01*
X145766998Y-103818655D01*
X145697499Y-103825848D01*
X145635145Y-103794326D01*
X145618425Y-103775031D01*
X145488109Y-103588922D01*
X145488108Y-103588920D01*
X145321082Y-103421894D01*
X145127578Y-103286399D01*
X144913492Y-103186570D01*
X144913486Y-103186567D01*
X144700000Y-103129364D01*
X144700000Y-104026988D01*
X144642993Y-103994075D01*
X144515826Y-103960000D01*
X144384174Y-103960000D01*
X144257007Y-103994075D01*
X144200000Y-104026988D01*
X144200000Y-103129364D01*
X144199999Y-103129364D01*
X143986513Y-103186567D01*
X143986507Y-103186570D01*
X143772422Y-103286399D01*
X143772420Y-103286400D01*
X143578926Y-103421886D01*
X143578920Y-103421891D01*
X143411891Y-103588920D01*
X143411890Y-103588922D01*
X143281880Y-103774595D01*
X143227303Y-103818219D01*
X143157804Y-103825412D01*
X143095450Y-103793890D01*
X143078730Y-103774594D01*
X142948494Y-103588597D01*
X142781402Y-103421506D01*
X142781395Y-103421501D01*
X142774761Y-103416856D01*
X142733238Y-103387781D01*
X142587834Y-103285967D01*
X142587830Y-103285965D01*
X142576110Y-103280500D01*
X142373663Y-103186097D01*
X142373659Y-103186096D01*
X142373655Y-103186094D01*
X142145413Y-103124938D01*
X142145403Y-103124936D01*
X141910001Y-103104341D01*
X141909999Y-103104341D01*
X141674596Y-103124936D01*
X141674586Y-103124938D01*
X141446344Y-103186094D01*
X141446335Y-103186098D01*
X141232171Y-103285964D01*
X141232169Y-103285965D01*
X141038597Y-103421505D01*
X140871505Y-103588597D01*
X140741575Y-103774158D01*
X140686998Y-103817783D01*
X140617500Y-103824977D01*
X140555145Y-103793454D01*
X140538425Y-103774158D01*
X140408494Y-103588597D01*
X140241402Y-103421506D01*
X140241395Y-103421501D01*
X140234761Y-103416856D01*
X140193238Y-103387781D01*
X140047834Y-103285967D01*
X140047830Y-103285965D01*
X140036110Y-103280500D01*
X139833663Y-103186097D01*
X139833659Y-103186096D01*
X139833655Y-103186094D01*
X139605413Y-103124938D01*
X139605403Y-103124936D01*
X139370001Y-103104341D01*
X139369999Y-103104341D01*
X139134596Y-103124936D01*
X139134586Y-103124938D01*
X138906344Y-103186094D01*
X138906335Y-103186098D01*
X138692171Y-103285964D01*
X138692169Y-103285965D01*
X138498597Y-103421505D01*
X138331505Y-103588597D01*
X138201575Y-103774158D01*
X138146998Y-103817783D01*
X138077500Y-103824977D01*
X138015145Y-103793454D01*
X137998425Y-103774158D01*
X137868494Y-103588597D01*
X137701402Y-103421506D01*
X137701395Y-103421501D01*
X137694761Y-103416856D01*
X137653238Y-103387781D01*
X137507834Y-103285967D01*
X137507830Y-103285965D01*
X137496110Y-103280500D01*
X137293663Y-103186097D01*
X137293659Y-103186096D01*
X137293655Y-103186094D01*
X137065413Y-103124938D01*
X137065403Y-103124936D01*
X136830001Y-103104341D01*
X136829999Y-103104341D01*
X136594596Y-103124936D01*
X136594586Y-103124938D01*
X136366344Y-103186094D01*
X136366335Y-103186098D01*
X136152171Y-103285964D01*
X136152169Y-103285965D01*
X135958597Y-103421505D01*
X135791505Y-103588597D01*
X135661575Y-103774158D01*
X135606998Y-103817783D01*
X135537500Y-103824977D01*
X135475145Y-103793454D01*
X135458425Y-103774158D01*
X135328494Y-103588597D01*
X135161402Y-103421506D01*
X135161395Y-103421501D01*
X135154761Y-103416856D01*
X135113238Y-103387781D01*
X134967834Y-103285967D01*
X134967830Y-103285965D01*
X134956110Y-103280500D01*
X134753663Y-103186097D01*
X134753659Y-103186096D01*
X134753655Y-103186094D01*
X134525413Y-103124938D01*
X134525403Y-103124936D01*
X134290001Y-103104341D01*
X134289999Y-103104341D01*
X134054596Y-103124936D01*
X134054586Y-103124938D01*
X133826344Y-103186094D01*
X133826335Y-103186098D01*
X133612171Y-103285964D01*
X133612169Y-103285965D01*
X133418597Y-103421505D01*
X133251505Y-103588597D01*
X133121575Y-103774158D01*
X133066998Y-103817783D01*
X132997500Y-103824977D01*
X132935145Y-103793454D01*
X132918425Y-103774158D01*
X132788494Y-103588597D01*
X132621404Y-103421508D01*
X132621402Y-103421506D01*
X132621401Y-103421505D01*
X132621396Y-103421501D01*
X132621393Y-103421499D01*
X132503376Y-103338861D01*
X132459751Y-103284284D01*
X132450500Y-103237287D01*
X132450500Y-102178957D01*
X132470185Y-102111918D01*
X132509407Y-102073416D01*
X132518656Y-102067712D01*
X132642712Y-101943656D01*
X132644752Y-101940347D01*
X132646745Y-101938555D01*
X132647193Y-101937989D01*
X132647289Y-101938065D01*
X132696694Y-101893623D01*
X132765656Y-101882395D01*
X132829740Y-101910234D01*
X132855829Y-101940339D01*
X132857681Y-101943341D01*
X132857683Y-101943344D01*
X132981654Y-102067315D01*
X133130875Y-102159356D01*
X133130880Y-102159358D01*
X133297302Y-102214505D01*
X133297309Y-102214506D01*
X133400019Y-102224999D01*
X133950000Y-102224999D01*
X133999972Y-102224999D01*
X133999986Y-102224998D01*
X134102697Y-102214505D01*
X134269119Y-102159358D01*
X134269124Y-102159356D01*
X134418345Y-102067315D01*
X134542315Y-101943345D01*
X134634356Y-101794124D01*
X134634358Y-101794119D01*
X134689505Y-101627697D01*
X134689506Y-101627690D01*
X134699999Y-101524986D01*
X134700000Y-101524973D01*
X134700000Y-101250000D01*
X133950000Y-101250000D01*
X133950000Y-102224999D01*
X133400019Y-102224999D01*
X133449999Y-102224998D01*
X133450000Y-102224998D01*
X133450000Y-100874000D01*
X133469685Y-100806961D01*
X133522489Y-100761206D01*
X133574000Y-100750000D01*
X134699999Y-100750000D01*
X134699999Y-100475028D01*
X134699998Y-100475013D01*
X134689505Y-100372302D01*
X134634358Y-100205880D01*
X134634356Y-100205875D01*
X134562635Y-100089597D01*
X134544195Y-100022204D01*
X134565118Y-99955541D01*
X134618760Y-99910771D01*
X134668174Y-99900500D01*
X152744932Y-99900500D01*
X152810904Y-99919506D01*
X152900477Y-99975789D01*
X152900481Y-99975790D01*
X153070737Y-100035366D01*
X153070743Y-100035367D01*
X153070745Y-100035368D01*
X153070746Y-100035368D01*
X153070750Y-100035369D01*
X153249996Y-100055565D01*
X153250000Y-100055565D01*
X153250004Y-100055565D01*
X153429249Y-100035369D01*
X153429252Y-100035368D01*
X153429255Y-100035368D01*
X153599522Y-99975789D01*
X153752262Y-99879816D01*
X153879816Y-99752262D01*
X153975789Y-99599522D01*
X154035368Y-99429255D01*
X154055565Y-99250000D01*
X154050839Y-99208057D01*
X154035369Y-99070750D01*
X154035368Y-99070745D01*
X154002040Y-98975499D01*
X153975789Y-98900478D01*
X153975174Y-98899500D01*
X153911947Y-98798874D01*
X153879816Y-98747738D01*
X153752262Y-98620184D01*
X153703827Y-98589750D01*
X153599523Y-98524211D01*
X153429254Y-98464631D01*
X153429249Y-98464630D01*
X153250004Y-98444435D01*
X153249996Y-98444435D01*
X153070750Y-98464630D01*
X153070737Y-98464633D01*
X152900481Y-98524209D01*
X152900477Y-98524210D01*
X152810904Y-98580494D01*
X152744932Y-98599500D01*
X150761230Y-98599500D01*
X150694191Y-98579815D01*
X150648436Y-98527011D01*
X150638492Y-98457853D01*
X150667517Y-98394297D01*
X150673549Y-98387819D01*
X152274548Y-96786819D01*
X152335871Y-96753334D01*
X152362229Y-96750500D01*
X155039832Y-96750500D01*
X155106871Y-96770185D01*
X155152626Y-96822989D01*
X155162570Y-96892147D01*
X155133545Y-96955703D01*
X155097243Y-96984409D01*
X155046870Y-97010721D01*
X154889246Y-97139246D01*
X154760721Y-97296870D01*
X154666557Y-97477138D01*
X154610609Y-97672671D01*
X154610608Y-97672674D01*
X154600000Y-97791999D01*
X154600000Y-99000000D01*
X157600000Y-99000000D01*
X157600000Y-97792002D01*
X157599999Y-97791999D01*
X157589391Y-97672674D01*
X157589390Y-97672671D01*
X157533442Y-97477138D01*
X157439278Y-97296870D01*
X157310753Y-97139246D01*
X157153129Y-97010721D01*
X157102757Y-96984409D01*
X157052450Y-96935923D01*
X157036342Y-96867935D01*
X157059548Y-96802032D01*
X157114701Y-96759137D01*
X157160168Y-96750500D01*
X160775500Y-96750500D01*
X160842539Y-96770185D01*
X160888294Y-96822989D01*
X160899500Y-96874500D01*
X160899500Y-97401122D01*
X160899501Y-97401125D01*
X160902399Y-97443886D01*
X160902399Y-97443887D01*
X160948360Y-97628696D01*
X161032967Y-97799292D01*
X161032969Y-97799295D01*
X161152277Y-97947721D01*
X161152278Y-97947722D01*
X161221486Y-98003353D01*
X161261405Y-98060696D01*
X161263985Y-98130518D01*
X161228406Y-98190651D01*
X161221486Y-98196647D01*
X161152278Y-98252277D01*
X161152277Y-98252278D01*
X161032969Y-98400704D01*
X161032967Y-98400707D01*
X160948360Y-98571302D01*
X160902400Y-98756107D01*
X160899500Y-98798879D01*
X160899500Y-99701122D01*
X160899501Y-99701125D01*
X160902399Y-99743886D01*
X160902399Y-99743887D01*
X160948360Y-99928696D01*
X161032967Y-100099292D01*
X161032969Y-100099295D01*
X161152277Y-100247721D01*
X161152278Y-100247722D01*
X161221486Y-100303353D01*
X161261405Y-100360696D01*
X161263985Y-100430518D01*
X161228406Y-100490651D01*
X161221486Y-100496647D01*
X161152278Y-100552277D01*
X161152277Y-100552278D01*
X161032969Y-100700704D01*
X161032967Y-100700707D01*
X160948360Y-100871302D01*
X160902400Y-101056107D01*
X160902400Y-101056111D01*
X160899500Y-101098877D01*
X160899500Y-101340643D01*
X160899501Y-101475500D01*
X160879817Y-101542539D01*
X160827013Y-101588294D01*
X160775501Y-101599500D01*
X157366248Y-101599500D01*
X157299209Y-101579815D01*
X157253454Y-101527011D01*
X157243510Y-101457853D01*
X157272535Y-101394297D01*
X157287887Y-101379398D01*
X157310753Y-101360753D01*
X157439278Y-101203129D01*
X157533442Y-101022861D01*
X157589390Y-100827328D01*
X157589391Y-100827325D01*
X157599999Y-100708000D01*
X157600000Y-100707998D01*
X157600000Y-99500000D01*
X154600000Y-99500000D01*
X154600000Y-100708000D01*
X154610608Y-100827325D01*
X154610609Y-100827328D01*
X154666557Y-101022861D01*
X154760721Y-101203129D01*
X154889246Y-101360753D01*
X154912113Y-101379398D01*
X154951630Y-101437019D01*
X154953722Y-101506857D01*
X154917724Y-101566740D01*
X154855066Y-101597655D01*
X154833752Y-101599500D01*
X153865782Y-101599500D01*
X153798743Y-101579815D01*
X153778101Y-101563181D01*
X153381479Y-101166559D01*
X153381459Y-101166537D01*
X153237785Y-101022863D01*
X153237781Y-101022860D01*
X153073920Y-100913371D01*
X153073911Y-100913366D01*
X152982491Y-100875499D01*
X152945165Y-100860038D01*
X152912881Y-100846666D01*
X152891837Y-100837949D01*
X152891833Y-100837948D01*
X152775177Y-100814744D01*
X152736050Y-100806961D01*
X152698543Y-100799500D01*
X152698541Y-100799500D01*
X136701459Y-100799500D01*
X136701457Y-100799500D01*
X136508170Y-100837947D01*
X136508160Y-100837950D01*
X136326092Y-100913364D01*
X136326079Y-100913371D01*
X136162218Y-101022860D01*
X136162214Y-101022863D01*
X136022863Y-101162214D01*
X136022860Y-101162218D01*
X135913371Y-101326079D01*
X135913364Y-101326092D01*
X135837950Y-101508160D01*
X135837947Y-101508170D01*
X135799500Y-101701456D01*
X135799500Y-101701459D01*
X135799500Y-101898541D01*
X135799500Y-101898543D01*
X135799499Y-101898543D01*
X135837947Y-102091829D01*
X135837950Y-102091839D01*
X135913364Y-102273907D01*
X135913371Y-102273920D01*
X136022860Y-102437781D01*
X136022863Y-102437785D01*
X136162214Y-102577136D01*
X136162218Y-102577139D01*
X136326079Y-102686628D01*
X136326092Y-102686635D01*
X136477864Y-102749500D01*
X136508165Y-102762051D01*
X136508169Y-102762051D01*
X136508170Y-102762052D01*
X136701456Y-102800500D01*
X136701459Y-102800500D01*
X152134218Y-102800500D01*
X152201257Y-102820185D01*
X152221899Y-102836819D01*
X152619735Y-103234655D01*
X152619764Y-103234686D01*
X152762217Y-103377139D01*
X152889293Y-103462048D01*
X152926086Y-103486632D01*
X153031994Y-103530500D01*
X153108164Y-103562051D01*
X153204812Y-103581275D01*
X153241621Y-103588597D01*
X153301458Y-103600500D01*
X153301459Y-103600500D01*
X161448542Y-103600500D01*
X161467870Y-103596655D01*
X161545188Y-103581275D01*
X161641836Y-103562051D01*
X161718006Y-103530500D01*
X161823914Y-103486632D01*
X161987782Y-103377139D01*
X162127139Y-103237782D01*
X162127140Y-103237779D01*
X162134206Y-103230714D01*
X162134209Y-103230710D01*
X162528101Y-102836818D01*
X162589424Y-102803333D01*
X162615782Y-102800499D01*
X163101123Y-102800499D01*
X163101123Y-102800498D01*
X163143889Y-102797600D01*
X163328693Y-102751641D01*
X163499296Y-102667030D01*
X163610237Y-102577852D01*
X163674821Y-102551194D01*
X163687924Y-102550500D01*
X164049782Y-102550500D01*
X164116821Y-102570185D01*
X164155319Y-102609401D01*
X164207288Y-102693656D01*
X164331344Y-102817712D01*
X164480666Y-102909814D01*
X164647203Y-102964999D01*
X164749991Y-102975500D01*
X165350008Y-102975499D01*
X165350016Y-102975498D01*
X165350019Y-102975498D01*
X165414559Y-102968905D01*
X165452797Y-102964999D01*
X165619334Y-102909814D01*
X165768656Y-102817712D01*
X165892712Y-102693656D01*
X165894752Y-102690347D01*
X165896745Y-102688555D01*
X165897193Y-102687989D01*
X165897289Y-102688065D01*
X165946694Y-102643623D01*
X166015656Y-102632395D01*
X166079740Y-102660234D01*
X166105829Y-102690339D01*
X166107681Y-102693341D01*
X166107683Y-102693344D01*
X166231654Y-102817315D01*
X166380875Y-102909356D01*
X166380880Y-102909358D01*
X166547302Y-102964505D01*
X166547309Y-102964506D01*
X166650019Y-102974999D01*
X167200000Y-102974999D01*
X167249972Y-102974999D01*
X167249986Y-102974998D01*
X167352697Y-102964505D01*
X167519119Y-102909358D01*
X167519124Y-102909356D01*
X167668345Y-102817315D01*
X167792315Y-102693345D01*
X167884356Y-102544124D01*
X167884358Y-102544119D01*
X167939505Y-102377697D01*
X167939506Y-102377690D01*
X167949999Y-102274986D01*
X167950000Y-102274973D01*
X167950000Y-102000000D01*
X167200000Y-102000000D01*
X167200000Y-102974999D01*
X166650019Y-102974999D01*
X166699999Y-102974998D01*
X166700000Y-102974998D01*
X166700000Y-101500000D01*
X167200000Y-101500000D01*
X167949999Y-101500000D01*
X167949999Y-101225028D01*
X167949998Y-101225013D01*
X167939505Y-101122302D01*
X167884358Y-100955880D01*
X167884356Y-100955875D01*
X167792315Y-100806654D01*
X167668345Y-100682684D01*
X167519124Y-100590643D01*
X167519119Y-100590641D01*
X167352697Y-100535494D01*
X167352690Y-100535493D01*
X167249986Y-100525000D01*
X167200000Y-100525000D01*
X167200000Y-101500000D01*
X166700000Y-101500000D01*
X166700000Y-100525000D01*
X166699999Y-100524999D01*
X166650029Y-100525000D01*
X166650011Y-100525001D01*
X166547302Y-100535494D01*
X166380880Y-100590641D01*
X166380875Y-100590643D01*
X166231654Y-100682684D01*
X166107683Y-100806655D01*
X166107679Y-100806660D01*
X166105826Y-100809665D01*
X166104018Y-100811290D01*
X166103202Y-100812323D01*
X166103025Y-100812183D01*
X166053874Y-100856385D01*
X165984911Y-100867601D01*
X165920831Y-100839752D01*
X165894753Y-100809653D01*
X165894737Y-100809628D01*
X165892712Y-100806344D01*
X165768656Y-100682288D01*
X165619334Y-100590186D01*
X165452797Y-100535001D01*
X165452795Y-100535000D01*
X165350010Y-100524500D01*
X164749998Y-100524500D01*
X164749980Y-100524501D01*
X164647203Y-100535000D01*
X164628617Y-100541159D01*
X164622441Y-100543206D01*
X164583438Y-100549500D01*
X163687924Y-100549500D01*
X163620885Y-100529815D01*
X163610248Y-100522155D01*
X163578511Y-100496645D01*
X163538595Y-100439303D01*
X163536015Y-100369481D01*
X163571594Y-100309349D01*
X163578514Y-100303353D01*
X163608463Y-100279279D01*
X163647722Y-100247722D01*
X163767030Y-100099296D01*
X163851641Y-99928693D01*
X163897600Y-99743889D01*
X163900500Y-99701123D01*
X163900499Y-98798878D01*
X163897600Y-98756111D01*
X163851641Y-98571307D01*
X163837426Y-98542645D01*
X163767032Y-98400707D01*
X163767030Y-98400704D01*
X163728435Y-98352690D01*
X163647722Y-98252278D01*
X163578513Y-98196646D01*
X163538595Y-98139302D01*
X163536015Y-98069480D01*
X163571594Y-98009347D01*
X163578497Y-98003365D01*
X163610239Y-97977851D01*
X163674822Y-97951194D01*
X163687924Y-97950500D01*
X164583438Y-97950500D01*
X164622441Y-97956794D01*
X164636915Y-97961590D01*
X164647203Y-97964999D01*
X164749991Y-97975500D01*
X165350008Y-97975499D01*
X165350016Y-97975498D01*
X165350019Y-97975498D01*
X165406302Y-97969748D01*
X165452797Y-97964999D01*
X165619334Y-97909814D01*
X165768656Y-97817712D01*
X165892712Y-97693656D01*
X165894752Y-97690347D01*
X165896745Y-97688555D01*
X165897193Y-97687989D01*
X165897289Y-97688065D01*
X165946694Y-97643623D01*
X166015656Y-97632395D01*
X166079740Y-97660234D01*
X166105829Y-97690339D01*
X166107681Y-97693341D01*
X166107683Y-97693344D01*
X166231654Y-97817315D01*
X166380875Y-97909356D01*
X166380880Y-97909358D01*
X166547302Y-97964505D01*
X166547309Y-97964506D01*
X166650019Y-97974999D01*
X167200000Y-97974999D01*
X167249972Y-97974999D01*
X167249986Y-97974998D01*
X167352697Y-97964505D01*
X167519119Y-97909358D01*
X167519124Y-97909356D01*
X167668345Y-97817315D01*
X167792315Y-97693345D01*
X167884356Y-97544124D01*
X167884358Y-97544119D01*
X167939505Y-97377697D01*
X167939506Y-97377690D01*
X167949999Y-97274986D01*
X167950000Y-97274973D01*
X167950000Y-97000000D01*
X167200000Y-97000000D01*
X167200000Y-97974999D01*
X166650019Y-97974999D01*
X166699999Y-97974998D01*
X166700000Y-97974998D01*
X166700000Y-96500000D01*
X167200000Y-96500000D01*
X167949999Y-96500000D01*
X167949999Y-96225028D01*
X167949998Y-96225013D01*
X167939505Y-96122302D01*
X167884358Y-95955880D01*
X167884356Y-95955875D01*
X167792315Y-95806654D01*
X167668345Y-95682684D01*
X167519124Y-95590643D01*
X167519119Y-95590641D01*
X167352697Y-95535494D01*
X167352690Y-95535493D01*
X167249986Y-95525000D01*
X167200000Y-95525000D01*
X167200000Y-96500000D01*
X166700000Y-96500000D01*
X166700000Y-95525000D01*
X166699999Y-95524999D01*
X166650029Y-95525000D01*
X166650011Y-95525001D01*
X166547302Y-95535494D01*
X166380880Y-95590641D01*
X166380875Y-95590643D01*
X166231654Y-95682684D01*
X166162181Y-95752158D01*
X166100858Y-95785643D01*
X166031166Y-95780659D01*
X165975233Y-95738787D01*
X165950816Y-95673323D01*
X165950500Y-95664477D01*
X165950500Y-95211311D01*
X165947143Y-95194430D01*
X165947143Y-95194429D01*
X165931381Y-95115187D01*
X165915895Y-95037334D01*
X165850339Y-94879071D01*
X165848695Y-94874474D01*
X165814602Y-94823451D01*
X165749464Y-94725965D01*
X165749461Y-94725961D01*
X165699464Y-94675965D01*
X165699463Y-94675964D01*
X165574036Y-94550536D01*
X165426545Y-94451986D01*
X165262666Y-94384105D01*
X165262658Y-94384103D01*
X165088696Y-94349500D01*
X165088692Y-94349500D01*
X164911308Y-94349500D01*
X164911303Y-94349500D01*
X164737341Y-94384103D01*
X164737333Y-94384105D01*
X164573451Y-94451988D01*
X164425965Y-94550534D01*
X164425958Y-94550540D01*
X164300540Y-94675958D01*
X164300536Y-94675964D01*
X164201988Y-94823451D01*
X164134105Y-94987333D01*
X164134103Y-94987341D01*
X164099500Y-95161303D01*
X164099500Y-95338696D01*
X164120024Y-95441876D01*
X164134105Y-95512666D01*
X164140061Y-95527046D01*
X164149500Y-95574497D01*
X164149500Y-95825500D01*
X164129815Y-95892539D01*
X164077011Y-95938294D01*
X164025500Y-95949500D01*
X163687924Y-95949500D01*
X163620885Y-95929815D01*
X163610237Y-95922147D01*
X163556440Y-95878904D01*
X163499296Y-95832970D01*
X163499295Y-95832969D01*
X163499292Y-95832967D01*
X163328697Y-95748360D01*
X163143892Y-95702400D01*
X163118229Y-95700660D01*
X163101123Y-95699500D01*
X163101121Y-95699500D01*
X162262230Y-95699500D01*
X162195191Y-95679815D01*
X162174549Y-95663181D01*
X161928421Y-95417052D01*
X161928414Y-95417046D01*
X161854729Y-95367812D01*
X161854729Y-95367813D01*
X161805491Y-95334913D01*
X161668917Y-95278343D01*
X161668907Y-95278340D01*
X161523920Y-95249500D01*
X161523918Y-95249500D01*
X151926082Y-95249500D01*
X151926080Y-95249500D01*
X151781092Y-95278340D01*
X151781082Y-95278343D01*
X151644511Y-95334912D01*
X151644498Y-95334919D01*
X151521584Y-95417048D01*
X151521580Y-95417051D01*
X149221937Y-97716693D01*
X149185873Y-97739370D01*
X149186750Y-97741191D01*
X149180475Y-97744212D01*
X149027737Y-97840184D01*
X148900184Y-97967737D01*
X148804211Y-98120476D01*
X148744631Y-98290745D01*
X148744630Y-98290750D01*
X148724435Y-98469997D01*
X148724435Y-98475500D01*
X148704750Y-98542539D01*
X148651946Y-98588294D01*
X148600435Y-98599500D01*
X144804443Y-98599500D01*
X144737404Y-98579815D01*
X144691649Y-98527011D01*
X144681705Y-98457853D01*
X144686737Y-98436496D01*
X144714505Y-98352697D01*
X144714506Y-98352690D01*
X144724999Y-98249986D01*
X144725000Y-98249973D01*
X144725000Y-98200000D01*
X142275001Y-98200000D01*
X142275001Y-98249986D01*
X142285493Y-98352695D01*
X142313263Y-98436495D01*
X142315665Y-98506324D01*
X142279934Y-98566366D01*
X142217413Y-98597559D01*
X142195557Y-98599500D01*
X132185929Y-98599500D01*
X132060261Y-98624497D01*
X132060255Y-98624499D01*
X131941874Y-98673534D01*
X131835326Y-98744726D01*
X131294726Y-99285326D01*
X131239009Y-99368715D01*
X131239007Y-99368717D01*
X131223539Y-99391865D01*
X131223533Y-99391875D01*
X131174499Y-99510255D01*
X131174497Y-99510261D01*
X131149500Y-99635928D01*
X131149500Y-99821042D01*
X131129815Y-99888081D01*
X131090598Y-99926580D01*
X131081344Y-99932287D01*
X130957289Y-100056342D01*
X130865187Y-100205663D01*
X130865185Y-100205668D01*
X130837349Y-100289670D01*
X130810001Y-100372203D01*
X130810001Y-100372204D01*
X130810000Y-100372204D01*
X130799500Y-100474983D01*
X130799500Y-101525001D01*
X130799501Y-101525019D01*
X130810000Y-101627796D01*
X130810001Y-101627799D01*
X130850329Y-101749500D01*
X130865186Y-101794334D01*
X130957288Y-101943656D01*
X131081344Y-102067712D01*
X131090591Y-102073416D01*
X131137318Y-102125360D01*
X131149500Y-102178957D01*
X131149500Y-103170908D01*
X131129815Y-103237947D01*
X131077914Y-103283286D01*
X131072173Y-103285963D01*
X131072169Y-103285965D01*
X130878597Y-103421505D01*
X130711505Y-103588597D01*
X130581575Y-103774158D01*
X130526998Y-103817783D01*
X130457500Y-103824977D01*
X130395145Y-103793454D01*
X130378425Y-103774158D01*
X130248494Y-103588597D01*
X130081402Y-103421506D01*
X130081395Y-103421501D01*
X130074761Y-103416856D01*
X130033238Y-103387781D01*
X129887834Y-103285967D01*
X129887830Y-103285965D01*
X129876110Y-103280500D01*
X129673663Y-103186097D01*
X129673659Y-103186096D01*
X129673655Y-103186094D01*
X129445413Y-103124938D01*
X129445403Y-103124936D01*
X129210001Y-103104341D01*
X129209999Y-103104341D01*
X128974596Y-103124936D01*
X128974586Y-103124938D01*
X128746344Y-103186094D01*
X128746335Y-103186098D01*
X128532171Y-103285964D01*
X128532169Y-103285965D01*
X128338597Y-103421505D01*
X128171505Y-103588597D01*
X128041575Y-103774158D01*
X127986998Y-103817783D01*
X127917500Y-103824977D01*
X127855145Y-103793454D01*
X127838425Y-103774158D01*
X127708494Y-103588597D01*
X127541402Y-103421506D01*
X127541395Y-103421501D01*
X127534761Y-103416856D01*
X127493238Y-103387781D01*
X127347834Y-103285967D01*
X127347830Y-103285965D01*
X127336110Y-103280500D01*
X127133663Y-103186097D01*
X127133659Y-103186096D01*
X127133655Y-103186094D01*
X126905413Y-103124938D01*
X126905403Y-103124936D01*
X126670001Y-103104341D01*
X126669999Y-103104341D01*
X126434596Y-103124936D01*
X126434586Y-103124938D01*
X126206344Y-103186094D01*
X126206335Y-103186098D01*
X125992171Y-103285964D01*
X125992169Y-103285965D01*
X125798597Y-103421505D01*
X125631505Y-103588597D01*
X125495965Y-103782169D01*
X125495964Y-103782171D01*
X125396098Y-103996335D01*
X125396094Y-103996344D01*
X125334938Y-104224586D01*
X125334936Y-104224596D01*
X125314341Y-104459999D01*
X125314341Y-104460000D01*
X125334936Y-104695403D01*
X125334938Y-104695413D01*
X125396094Y-104923655D01*
X125396096Y-104923659D01*
X125396097Y-104923663D01*
X125490296Y-105125673D01*
X125495965Y-105137830D01*
X125495967Y-105137834D01*
X125595980Y-105280666D01*
X125631505Y-105331401D01*
X125798599Y-105498495D01*
X125962387Y-105613181D01*
X125984594Y-105628730D01*
X126028219Y-105683307D01*
X126035413Y-105752805D01*
X126003890Y-105815160D01*
X125984595Y-105831880D01*
X125798922Y-105961890D01*
X125798920Y-105961891D01*
X125631891Y-106128920D01*
X125631886Y-106128926D01*
X125496400Y-106322420D01*
X125496399Y-106322422D01*
X125396570Y-106536507D01*
X125396567Y-106536513D01*
X125339364Y-106749999D01*
X125339364Y-106750000D01*
X126236988Y-106750000D01*
X126204075Y-106807007D01*
X126170000Y-106934174D01*
X126170000Y-107065826D01*
X126204075Y-107192993D01*
X126236988Y-107250000D01*
X125339364Y-107250000D01*
X125396567Y-107463486D01*
X125396570Y-107463492D01*
X125496399Y-107677578D01*
X125631894Y-107871082D01*
X125798917Y-108038105D01*
X125992421Y-108173600D01*
X126184393Y-108263118D01*
X126236832Y-108309290D01*
X126255984Y-108376484D01*
X126235768Y-108443365D01*
X126182603Y-108488700D01*
X126131988Y-108499500D01*
X120078012Y-108499500D01*
X120010973Y-108479815D01*
X119965218Y-108427011D01*
X119955274Y-108357853D01*
X119984299Y-108294297D01*
X120025607Y-108263118D01*
X120217578Y-108173600D01*
X120411082Y-108038105D01*
X120578105Y-107871082D01*
X120713600Y-107677578D01*
X120813429Y-107463492D01*
X120813432Y-107463486D01*
X120870636Y-107250000D01*
X119973012Y-107250000D01*
X120005925Y-107192993D01*
X120040000Y-107065826D01*
X120040000Y-106934174D01*
X120005925Y-106807007D01*
X119973012Y-106750000D01*
X120870636Y-106750000D01*
X120870635Y-106749999D01*
X120813432Y-106536513D01*
X120813429Y-106536507D01*
X120713600Y-106322422D01*
X120713599Y-106322420D01*
X120578113Y-106128926D01*
X120578108Y-106128920D01*
X120411082Y-105961894D01*
X120217578Y-105826399D01*
X120003492Y-105726570D01*
X120003486Y-105726567D01*
X119790000Y-105669364D01*
X119790000Y-106566988D01*
X119732993Y-106534075D01*
X119605826Y-106500000D01*
X119474174Y-106500000D01*
X119347007Y-106534075D01*
X119290000Y-106566988D01*
X119290000Y-105669364D01*
X119289999Y-105669364D01*
X119076513Y-105726567D01*
X119076507Y-105726570D01*
X118862422Y-105826399D01*
X118862420Y-105826400D01*
X118668926Y-105961886D01*
X118546865Y-106083947D01*
X118485542Y-106117431D01*
X118415850Y-106112447D01*
X118359917Y-106070575D01*
X118343002Y-106039598D01*
X118342913Y-106039360D01*
X118314021Y-105961894D01*
X118293797Y-105907671D01*
X118293793Y-105907664D01*
X118207547Y-105792455D01*
X118207544Y-105792452D01*
X118092335Y-105706206D01*
X118092332Y-105706205D01*
X118092331Y-105706204D01*
X118081161Y-105702038D01*
X118025231Y-105660166D01*
X118000816Y-105594701D01*
X118000500Y-105585858D01*
X118000500Y-103504499D01*
X118020185Y-103437460D01*
X118072989Y-103391705D01*
X118124500Y-103380499D01*
X118150002Y-103380499D01*
X118150008Y-103380499D01*
X118252797Y-103369999D01*
X118419334Y-103314814D01*
X118445036Y-103298960D01*
X118510132Y-103280500D01*
X118675500Y-103280500D01*
X118742539Y-103300185D01*
X118788294Y-103352989D01*
X118799500Y-103404500D01*
X118799500Y-103648541D01*
X118799500Y-103648543D01*
X118799499Y-103648543D01*
X118813497Y-103718910D01*
X118813497Y-103718911D01*
X118815175Y-103727346D01*
X118824573Y-103774595D01*
X118824870Y-103776085D01*
X118824870Y-103776086D01*
X118837946Y-103841828D01*
X118837949Y-103841837D01*
X118913364Y-104023907D01*
X118913371Y-104023920D01*
X119022860Y-104187781D01*
X119022863Y-104187785D01*
X119166537Y-104331459D01*
X119166559Y-104331479D01*
X119969735Y-105134655D01*
X119969764Y-105134686D01*
X120112214Y-105277136D01*
X120112218Y-105277139D01*
X120276082Y-105386630D01*
X120276084Y-105386630D01*
X120276086Y-105386632D01*
X120384391Y-105431493D01*
X120458164Y-105462051D01*
X120531151Y-105476569D01*
X120561228Y-105482551D01*
X120651456Y-105500500D01*
X120651459Y-105500500D01*
X122848543Y-105500500D01*
X122928746Y-105484546D01*
X122968849Y-105476569D01*
X123041836Y-105462051D01*
X123115609Y-105431493D01*
X123223914Y-105386632D01*
X123387782Y-105277139D01*
X123527139Y-105137782D01*
X123527139Y-105137780D01*
X123537347Y-105127573D01*
X123537348Y-105127570D01*
X125277140Y-103387781D01*
X125386631Y-103223914D01*
X125462051Y-103041836D01*
X125500500Y-102848540D01*
X125500500Y-102651460D01*
X125500500Y-102651457D01*
X125500499Y-102651455D01*
X125492134Y-102609403D01*
X125462051Y-102458164D01*
X125386631Y-102276086D01*
X125277140Y-102112218D01*
X125277138Y-102112216D01*
X125277136Y-102112213D01*
X125137786Y-101972863D01*
X125137782Y-101972860D01*
X124973914Y-101863369D01*
X124973909Y-101863367D01*
X124791836Y-101787949D01*
X124791828Y-101787947D01*
X124598543Y-101749500D01*
X124598540Y-101749500D01*
X124401460Y-101749500D01*
X124401457Y-101749500D01*
X124208171Y-101787947D01*
X124208163Y-101787949D01*
X124026087Y-101863367D01*
X123862214Y-101972863D01*
X123862213Y-101972864D01*
X122911681Y-102923397D01*
X122850358Y-102956882D01*
X122780666Y-102951898D01*
X122724733Y-102910026D01*
X122700316Y-102844562D01*
X122700000Y-102835716D01*
X122700000Y-102750000D01*
X121574000Y-102750000D01*
X121506961Y-102730315D01*
X121461206Y-102677511D01*
X121450000Y-102626000D01*
X121450000Y-102250000D01*
X121950000Y-102250000D01*
X122699999Y-102250000D01*
X122699999Y-101975028D01*
X122699998Y-101975013D01*
X122689505Y-101872302D01*
X122634358Y-101705880D01*
X122634356Y-101705875D01*
X122542315Y-101556654D01*
X122418345Y-101432684D01*
X122269124Y-101340643D01*
X122269119Y-101340641D01*
X122102697Y-101285494D01*
X122102690Y-101285493D01*
X121999986Y-101275000D01*
X121950000Y-101275000D01*
X121950000Y-102250000D01*
X121450000Y-102250000D01*
X121450000Y-101275000D01*
X121449999Y-101274999D01*
X121400029Y-101275000D01*
X121400011Y-101275001D01*
X121297302Y-101285494D01*
X121130880Y-101340641D01*
X121130875Y-101340643D01*
X120981654Y-101432684D01*
X120857683Y-101556655D01*
X120857679Y-101556660D01*
X120855826Y-101559665D01*
X120854018Y-101561290D01*
X120853202Y-101562323D01*
X120853025Y-101562183D01*
X120803874Y-101606385D01*
X120734911Y-101617601D01*
X120670831Y-101589752D01*
X120644753Y-101559653D01*
X120644737Y-101559628D01*
X120642712Y-101556344D01*
X120518656Y-101432288D01*
X120369334Y-101340186D01*
X120202797Y-101285001D01*
X120202795Y-101285000D01*
X120100010Y-101274500D01*
X119499998Y-101274500D01*
X119499982Y-101274501D01*
X119457340Y-101278858D01*
X119444738Y-101279500D01*
X118510132Y-101279500D01*
X118445033Y-101261037D01*
X118419903Y-101245536D01*
X118373180Y-101193588D01*
X118361959Y-101124625D01*
X118389803Y-101060543D01*
X118419901Y-101034464D01*
X118568656Y-100942712D01*
X118692712Y-100818656D01*
X118784814Y-100669334D01*
X118839999Y-100502797D01*
X118850500Y-100400009D01*
X118850499Y-99599992D01*
X118839999Y-99497203D01*
X118784814Y-99330666D01*
X118692712Y-99181344D01*
X118568656Y-99057288D01*
X118568655Y-99057287D01*
X118436054Y-98975499D01*
X118419905Y-98965538D01*
X118373181Y-98913591D01*
X118361958Y-98844629D01*
X118389801Y-98780546D01*
X118419906Y-98754461D01*
X118445036Y-98738961D01*
X118510132Y-98720500D01*
X118932770Y-98720500D01*
X118999809Y-98740185D01*
X119020451Y-98756819D01*
X119081344Y-98817712D01*
X119230666Y-98909814D01*
X119397203Y-98964999D01*
X119499991Y-98975500D01*
X120100008Y-98975499D01*
X120100016Y-98975498D01*
X120100019Y-98975498D01*
X120156302Y-98969748D01*
X120202797Y-98964999D01*
X120369334Y-98909814D01*
X120518656Y-98817712D01*
X120642712Y-98693656D01*
X120644752Y-98690347D01*
X120646745Y-98688555D01*
X120647193Y-98687989D01*
X120647289Y-98688065D01*
X120696694Y-98643623D01*
X120765656Y-98632395D01*
X120829740Y-98660234D01*
X120855829Y-98690339D01*
X120857681Y-98693341D01*
X120857683Y-98693344D01*
X120981654Y-98817315D01*
X121130875Y-98909356D01*
X121130880Y-98909358D01*
X121297302Y-98964505D01*
X121297309Y-98964506D01*
X121400019Y-98974999D01*
X121950000Y-98974999D01*
X121999972Y-98974999D01*
X121999986Y-98974998D01*
X122102697Y-98964505D01*
X122269119Y-98909358D01*
X122269124Y-98909356D01*
X122418345Y-98817315D01*
X122542315Y-98693345D01*
X122634356Y-98544124D01*
X122634358Y-98544119D01*
X122689505Y-98377697D01*
X122689506Y-98377690D01*
X122699999Y-98274986D01*
X122700000Y-98274973D01*
X122700000Y-98000000D01*
X121950000Y-98000000D01*
X121950000Y-98974999D01*
X121400019Y-98974999D01*
X121449999Y-98974998D01*
X121450000Y-98974998D01*
X121450000Y-97500000D01*
X121950000Y-97500000D01*
X122699999Y-97500000D01*
X122699999Y-97225021D01*
X122699998Y-97225013D01*
X122689505Y-97122302D01*
X122634358Y-96955880D01*
X122634356Y-96955875D01*
X122542315Y-96806654D01*
X122418345Y-96682684D01*
X122269124Y-96590643D01*
X122269119Y-96590641D01*
X122102697Y-96535494D01*
X122102690Y-96535493D01*
X121999986Y-96525000D01*
X121950000Y-96525000D01*
X121950000Y-97500000D01*
X121450000Y-97500000D01*
X121450000Y-96525000D01*
X121449999Y-96524999D01*
X121400029Y-96525000D01*
X121400011Y-96525001D01*
X121297302Y-96535494D01*
X121130880Y-96590641D01*
X121130875Y-96590643D01*
X120981654Y-96682684D01*
X120962181Y-96702158D01*
X120900858Y-96735643D01*
X120831166Y-96730659D01*
X120775233Y-96688787D01*
X120750816Y-96623323D01*
X120750500Y-96614477D01*
X120750500Y-96299972D01*
X120757458Y-96259017D01*
X120769351Y-96225028D01*
X120785368Y-96179255D01*
X120785369Y-96179249D01*
X120805565Y-96000003D01*
X120805565Y-95999996D01*
X120785369Y-95820750D01*
X120785367Y-95820742D01*
X120783517Y-95815454D01*
X120779956Y-95745675D01*
X120814685Y-95685048D01*
X120876678Y-95652821D01*
X120900559Y-95650500D01*
X142129192Y-95650500D01*
X142196231Y-95670185D01*
X142216873Y-95686819D01*
X142238181Y-95708127D01*
X142271666Y-95769450D01*
X142274500Y-95795808D01*
X142274500Y-96350001D01*
X142274501Y-96350019D01*
X142285000Y-96452796D01*
X142285001Y-96452799D01*
X142340185Y-96619331D01*
X142340187Y-96619336D01*
X142360001Y-96651460D01*
X142432288Y-96768656D01*
X142556344Y-96892712D01*
X142559628Y-96894737D01*
X142559653Y-96894753D01*
X142561445Y-96896746D01*
X142562011Y-96897193D01*
X142561934Y-96897289D01*
X142606379Y-96946699D01*
X142617603Y-97015661D01*
X142589761Y-97079744D01*
X142559665Y-97105826D01*
X142556660Y-97107679D01*
X142556655Y-97107683D01*
X142432684Y-97231654D01*
X142340643Y-97380875D01*
X142340641Y-97380880D01*
X142285494Y-97547302D01*
X142285493Y-97547309D01*
X142275000Y-97650013D01*
X142275000Y-97700000D01*
X144724999Y-97700000D01*
X144724999Y-97650028D01*
X144724998Y-97650013D01*
X144714505Y-97547302D01*
X144659358Y-97380880D01*
X144659356Y-97380875D01*
X144567315Y-97231654D01*
X144443344Y-97107683D01*
X144443341Y-97107681D01*
X144440339Y-97105829D01*
X144438713Y-97104021D01*
X144437677Y-97103202D01*
X144437817Y-97103024D01*
X144393617Y-97053880D01*
X144382397Y-96984917D01*
X144410243Y-96920836D01*
X144440344Y-96894754D01*
X144443656Y-96892712D01*
X144567712Y-96768656D01*
X144573420Y-96759402D01*
X144625368Y-96712678D01*
X144678958Y-96700500D01*
X146514071Y-96700500D01*
X146601135Y-96683181D01*
X146639744Y-96675501D01*
X146758127Y-96626465D01*
X146864669Y-96555277D01*
X149333127Y-94086819D01*
X149394450Y-94053334D01*
X149420808Y-94050500D01*
X170329192Y-94050500D01*
X170396231Y-94070185D01*
G37*
G04 #@! TD.AperFunction*
G04 #@! TA.AperFunction,Conductor*
G36*
X173795880Y-102920185D02*
G01*
X173841635Y-102972989D01*
X173851579Y-103042147D01*
X173846547Y-103063504D01*
X173810494Y-103172302D01*
X173810493Y-103172309D01*
X173800000Y-103275013D01*
X173800000Y-103337500D01*
X176199999Y-103337500D01*
X176199999Y-103275028D01*
X176199998Y-103275013D01*
X176189505Y-103172302D01*
X176153453Y-103063504D01*
X176151051Y-102993676D01*
X176186783Y-102933634D01*
X176249303Y-102902441D01*
X176271159Y-102900500D01*
X177956921Y-102900500D01*
X178023960Y-102920185D01*
X178069715Y-102972989D01*
X178079659Y-103042147D01*
X178061915Y-103090472D01*
X178024211Y-103150476D01*
X177964631Y-103320745D01*
X177964630Y-103320750D01*
X177944435Y-103499996D01*
X177944435Y-103500003D01*
X177964630Y-103679249D01*
X177964631Y-103679254D01*
X178024211Y-103849523D01*
X178086655Y-103948901D01*
X178105655Y-104016137D01*
X178085287Y-104082973D01*
X178032020Y-104128187D01*
X177965476Y-104137811D01*
X177864361Y-104124500D01*
X177585636Y-104124500D01*
X177468246Y-104139953D01*
X177468234Y-104139957D01*
X177447450Y-104148566D01*
X177377981Y-104156033D01*
X177352550Y-104148566D01*
X177331765Y-104139957D01*
X177331760Y-104139955D01*
X177214361Y-104124500D01*
X176935636Y-104124500D01*
X176818246Y-104139953D01*
X176818237Y-104139956D01*
X176672160Y-104200463D01*
X176546718Y-104296718D01*
X176450463Y-104422160D01*
X176389956Y-104568237D01*
X176389955Y-104568240D01*
X176385224Y-104604184D01*
X176356958Y-104668081D01*
X176298634Y-104706553D01*
X176262285Y-104712000D01*
X176124730Y-104712000D01*
X176057691Y-104692315D01*
X176037049Y-104675681D01*
X175948695Y-104587327D01*
X175915210Y-104526004D01*
X175920194Y-104456312D01*
X175948695Y-104411964D01*
X176042317Y-104318342D01*
X176134356Y-104169124D01*
X176134358Y-104169119D01*
X176189505Y-104002697D01*
X176189506Y-104002690D01*
X176199999Y-103899986D01*
X176200000Y-103899973D01*
X176200000Y-103837500D01*
X173800001Y-103837500D01*
X173800001Y-103899986D01*
X173810494Y-104002697D01*
X173865641Y-104169119D01*
X173865643Y-104169124D01*
X173957684Y-104318345D01*
X174051304Y-104411965D01*
X174084789Y-104473288D01*
X174079805Y-104542980D01*
X174051305Y-104587327D01*
X173957287Y-104681345D01*
X173865187Y-104830663D01*
X173865186Y-104830666D01*
X173810001Y-104997203D01*
X173810001Y-104997204D01*
X173810000Y-104997204D01*
X173799500Y-105099983D01*
X173799500Y-105725001D01*
X173799501Y-105725019D01*
X173810000Y-105827796D01*
X173810001Y-105827799D01*
X173865185Y-105994331D01*
X173865187Y-105994336D01*
X173891198Y-106036507D01*
X173957288Y-106143656D01*
X174081344Y-106267712D01*
X174230666Y-106359814D01*
X174397203Y-106414999D01*
X174480625Y-106423521D01*
X174545316Y-106449917D01*
X174585467Y-106507097D01*
X174588331Y-106576908D01*
X174573561Y-106611975D01*
X174515645Y-106705871D01*
X174515641Y-106705880D01*
X174460494Y-106872302D01*
X174460493Y-106872309D01*
X174450000Y-106975013D01*
X174450000Y-107250000D01*
X175576000Y-107250000D01*
X175643039Y-107269685D01*
X175688794Y-107322489D01*
X175700000Y-107374000D01*
X175700000Y-107626000D01*
X175680315Y-107693039D01*
X175627511Y-107738794D01*
X175576000Y-107750000D01*
X174450001Y-107750000D01*
X174450001Y-108024986D01*
X174460494Y-108127697D01*
X174515641Y-108294119D01*
X174515644Y-108294126D01*
X174525684Y-108310402D01*
X174544125Y-108377794D01*
X174523203Y-108444458D01*
X174469562Y-108489228D01*
X174420146Y-108499500D01*
X168219808Y-108499500D01*
X168152769Y-108479815D01*
X168107014Y-108427011D01*
X168097070Y-108357853D01*
X168126095Y-108294297D01*
X168132127Y-108287819D01*
X168228696Y-108191248D01*
X168572238Y-107847706D01*
X168633559Y-107814223D01*
X168692006Y-107815613D01*
X168764592Y-107835063D01*
X168941034Y-107850500D01*
X168999999Y-107855659D01*
X169000000Y-107855659D01*
X169000001Y-107855659D01*
X169058966Y-107850500D01*
X169235408Y-107835063D01*
X169463663Y-107773903D01*
X169677830Y-107674035D01*
X169871401Y-107538495D01*
X170038495Y-107371401D01*
X170168730Y-107185405D01*
X170223307Y-107141781D01*
X170292805Y-107134587D01*
X170355160Y-107166110D01*
X170371879Y-107185405D01*
X170501890Y-107371078D01*
X170668917Y-107538105D01*
X170862421Y-107673600D01*
X171076507Y-107773429D01*
X171076516Y-107773433D01*
X171290000Y-107830634D01*
X171290000Y-106933012D01*
X171347007Y-106965925D01*
X171474174Y-107000000D01*
X171605826Y-107000000D01*
X171732993Y-106965925D01*
X171790000Y-106933012D01*
X171790000Y-107830633D01*
X172003483Y-107773433D01*
X172003492Y-107773429D01*
X172217578Y-107673600D01*
X172411082Y-107538105D01*
X172578105Y-107371082D01*
X172713600Y-107177578D01*
X172813429Y-106963492D01*
X172813432Y-106963486D01*
X172870636Y-106750000D01*
X171973012Y-106750000D01*
X172005925Y-106692993D01*
X172040000Y-106565826D01*
X172040000Y-106434174D01*
X172005925Y-106307007D01*
X171973012Y-106250000D01*
X172870636Y-106250000D01*
X172870635Y-106249999D01*
X172813432Y-106036513D01*
X172813429Y-106036507D01*
X172713600Y-105822422D01*
X172713599Y-105822420D01*
X172578113Y-105628926D01*
X172578108Y-105628920D01*
X172411082Y-105461894D01*
X172217578Y-105326399D01*
X172003492Y-105226570D01*
X172003486Y-105226567D01*
X171790000Y-105169364D01*
X171790000Y-106066988D01*
X171732993Y-106034075D01*
X171605826Y-106000000D01*
X171474174Y-106000000D01*
X171347007Y-106034075D01*
X171290000Y-106066988D01*
X171290000Y-105181306D01*
X171309685Y-105114267D01*
X171326313Y-105093631D01*
X173483127Y-102936819D01*
X173544450Y-102903334D01*
X173570808Y-102900500D01*
X173728841Y-102900500D01*
X173795880Y-102920185D01*
G37*
G04 #@! TD.AperFunction*
G04 #@! TA.AperFunction,Conductor*
G36*
X182155201Y-107825593D02*
G01*
X182161680Y-107831626D01*
X182292674Y-107962620D01*
X182326159Y-108023943D01*
X182328351Y-108037699D01*
X182335001Y-108102797D01*
X182335001Y-108102799D01*
X182358607Y-108174035D01*
X182390186Y-108269334D01*
X182415518Y-108310404D01*
X182433958Y-108377796D01*
X182413035Y-108444459D01*
X182359393Y-108489229D01*
X182309979Y-108499500D01*
X181979854Y-108499500D01*
X181912815Y-108479815D01*
X181867060Y-108427011D01*
X181857116Y-108357853D01*
X181874316Y-108310402D01*
X181884355Y-108294126D01*
X181884358Y-108294119D01*
X181939505Y-108127697D01*
X181939506Y-108127690D01*
X181949999Y-108024986D01*
X181949999Y-107919308D01*
X181969683Y-107852268D01*
X182022487Y-107806513D01*
X182091645Y-107796569D01*
X182155201Y-107825593D01*
G37*
G04 #@! TD.AperFunction*
G04 #@! TA.AperFunction,Conductor*
G36*
X196449811Y-93398989D02*
G01*
X196491682Y-93454923D01*
X196499500Y-93498256D01*
X196499500Y-108375500D01*
X196479815Y-108442539D01*
X196427011Y-108488294D01*
X196375500Y-108499500D01*
X186190021Y-108499500D01*
X186122982Y-108479815D01*
X186077227Y-108427011D01*
X186067283Y-108357853D01*
X186084481Y-108310405D01*
X186109814Y-108269334D01*
X186164999Y-108102797D01*
X186175500Y-108000009D01*
X186175499Y-106999992D01*
X186172947Y-106975013D01*
X186164999Y-106897203D01*
X186164998Y-106897200D01*
X186135111Y-106807007D01*
X186109814Y-106730666D01*
X186017712Y-106581344D01*
X185893656Y-106457288D01*
X185881706Y-106449917D01*
X185871900Y-106443868D01*
X185825177Y-106391918D01*
X185813000Y-106338331D01*
X185813000Y-105348428D01*
X185788001Y-105222756D01*
X185757657Y-105149500D01*
X185756142Y-105145842D01*
X185738968Y-105104378D01*
X185738962Y-105104368D01*
X185667778Y-104997832D01*
X185667772Y-104997825D01*
X185606627Y-104936680D01*
X185573142Y-104875357D01*
X185578126Y-104805665D01*
X185619998Y-104749732D01*
X185685462Y-104725315D01*
X185694308Y-104724999D01*
X185849972Y-104724999D01*
X185849986Y-104724998D01*
X185952697Y-104714505D01*
X186119119Y-104659358D01*
X186119124Y-104659356D01*
X186268345Y-104567315D01*
X186392318Y-104443342D01*
X186394165Y-104440348D01*
X186395969Y-104438724D01*
X186396798Y-104437677D01*
X186396976Y-104437818D01*
X186446110Y-104393621D01*
X186515073Y-104382396D01*
X186579156Y-104410236D01*
X186605243Y-104440341D01*
X186607288Y-104443656D01*
X186731344Y-104567712D01*
X186880666Y-104659814D01*
X186962988Y-104687093D01*
X187020432Y-104726865D01*
X187047255Y-104791380D01*
X187034940Y-104860156D01*
X186987397Y-104911356D01*
X186983718Y-104913302D01*
X186831348Y-105007286D01*
X186831344Y-105007289D01*
X186707289Y-105131344D01*
X186707286Y-105131348D01*
X186615187Y-105280662D01*
X186615186Y-105280664D01*
X186560001Y-105447203D01*
X186560000Y-105447204D01*
X186549500Y-105549984D01*
X186549500Y-107450015D01*
X186560000Y-107552795D01*
X186560001Y-107552797D01*
X186573100Y-107592328D01*
X186615186Y-107719335D01*
X186615187Y-107719337D01*
X186707286Y-107868651D01*
X186707289Y-107868655D01*
X186831344Y-107992710D01*
X186831348Y-107992713D01*
X186980662Y-108084812D01*
X186980664Y-108084813D01*
X186980666Y-108084814D01*
X187147203Y-108139999D01*
X187249992Y-108150500D01*
X187249997Y-108150500D01*
X189150003Y-108150500D01*
X189150008Y-108150500D01*
X189252797Y-108139999D01*
X189419334Y-108084814D01*
X189568655Y-107992711D01*
X189692711Y-107868655D01*
X189784814Y-107719334D01*
X189839999Y-107552797D01*
X189850500Y-107450008D01*
X189850500Y-105650097D01*
X189870185Y-105583058D01*
X189886819Y-105562416D01*
X190462319Y-104986916D01*
X190523642Y-104953431D01*
X190593334Y-104958415D01*
X190637681Y-104986916D01*
X191429439Y-105778674D01*
X191462924Y-105839997D01*
X191457940Y-105909689D01*
X191456319Y-105913807D01*
X191425426Y-105988388D01*
X191425426Y-105988389D01*
X191364778Y-106241009D01*
X191344396Y-106500000D01*
X191364778Y-106758990D01*
X191425427Y-107011610D01*
X191524843Y-107251623D01*
X191524845Y-107251627D01*
X191524846Y-107251628D01*
X191660588Y-107473140D01*
X191829311Y-107670689D01*
X192026860Y-107839412D01*
X192248372Y-107975154D01*
X192248374Y-107975154D01*
X192248376Y-107975156D01*
X192290756Y-107992710D01*
X192488390Y-108074573D01*
X192741006Y-108135221D01*
X193000000Y-108155604D01*
X193258994Y-108135221D01*
X193511610Y-108074573D01*
X193751628Y-107975154D01*
X193973140Y-107839412D01*
X194170689Y-107670689D01*
X194339412Y-107473140D01*
X194475154Y-107251628D01*
X194574573Y-107011610D01*
X194635221Y-106758994D01*
X194655604Y-106500000D01*
X194635221Y-106241006D01*
X194574573Y-105988390D01*
X194502584Y-105814594D01*
X194475156Y-105748376D01*
X194465922Y-105733308D01*
X194339412Y-105526860D01*
X194170689Y-105329311D01*
X193973140Y-105160588D01*
X193751628Y-105024846D01*
X193751627Y-105024845D01*
X193751623Y-105024843D01*
X193579217Y-104953431D01*
X193511610Y-104925427D01*
X193511611Y-104925427D01*
X193303054Y-104875357D01*
X193258994Y-104864779D01*
X193258992Y-104864778D01*
X193258991Y-104864778D01*
X193000000Y-104844396D01*
X192741009Y-104864778D01*
X192488389Y-104925426D01*
X192488388Y-104925426D01*
X192413807Y-104956319D01*
X192344338Y-104963788D01*
X192281859Y-104932512D01*
X192278674Y-104929439D01*
X191386819Y-104037583D01*
X191353334Y-103976260D01*
X191350500Y-103949902D01*
X191350500Y-103531940D01*
X191370185Y-103464901D01*
X191422989Y-103419146D01*
X191492147Y-103409202D01*
X191555703Y-103438227D01*
X191562181Y-103444259D01*
X191622738Y-103504816D01*
X191663619Y-103530503D01*
X191756588Y-103588920D01*
X191775478Y-103600789D01*
X191911951Y-103648543D01*
X191945745Y-103660368D01*
X191945750Y-103660369D01*
X192124996Y-103680565D01*
X192125000Y-103680565D01*
X192125004Y-103680565D01*
X192304249Y-103660369D01*
X192304252Y-103660368D01*
X192304255Y-103660368D01*
X192474522Y-103600789D01*
X192627262Y-103504816D01*
X192754816Y-103377262D01*
X192850789Y-103224522D01*
X192862343Y-103191501D01*
X192876281Y-103163566D01*
X192885027Y-103150478D01*
X192915084Y-103105495D01*
X192941452Y-103041836D01*
X192971659Y-102968912D01*
X193000500Y-102823917D01*
X193000500Y-102676082D01*
X193000500Y-94124143D01*
X193020185Y-94057104D01*
X193072989Y-94011349D01*
X193142147Y-94001405D01*
X193198810Y-94024876D01*
X193415682Y-94187224D01*
X193415690Y-94187229D01*
X193666833Y-94324364D01*
X193666832Y-94324364D01*
X193666836Y-94324365D01*
X193666839Y-94324367D01*
X193934954Y-94424369D01*
X193934960Y-94424370D01*
X193934962Y-94424371D01*
X194214566Y-94485195D01*
X194214568Y-94485195D01*
X194214572Y-94485196D01*
X194468220Y-94503337D01*
X194499999Y-94505610D01*
X194500000Y-94505610D01*
X194500001Y-94505610D01*
X194528595Y-94503564D01*
X194785428Y-94485196D01*
X194938093Y-94451986D01*
X195065037Y-94424371D01*
X195065037Y-94424370D01*
X195065046Y-94424369D01*
X195333161Y-94324367D01*
X195584315Y-94187226D01*
X195813395Y-94015739D01*
X196015739Y-93813395D01*
X196187226Y-93584315D01*
X196266668Y-93438829D01*
X196316073Y-93389424D01*
X196384346Y-93374572D01*
X196449811Y-93398989D01*
G37*
G04 #@! TD.AperFunction*
G04 #@! TA.AperFunction,Conductor*
G36*
X164456231Y-105420185D02*
G01*
X164476873Y-105436819D01*
X165073181Y-106033127D01*
X165106666Y-106094450D01*
X165109500Y-106120808D01*
X165109500Y-107397870D01*
X165109501Y-107397876D01*
X165116421Y-107462247D01*
X165104014Y-107531006D01*
X165056403Y-107582143D01*
X164993131Y-107599500D01*
X162634050Y-107599500D01*
X162567011Y-107579815D01*
X162521256Y-107527011D01*
X162511312Y-107457853D01*
X162540337Y-107394297D01*
X162546369Y-107387819D01*
X162563105Y-107371082D01*
X162698600Y-107177578D01*
X162798429Y-106963492D01*
X162798432Y-106963486D01*
X162855636Y-106750000D01*
X161958012Y-106750000D01*
X161990925Y-106692993D01*
X162025000Y-106565826D01*
X162025000Y-106434174D01*
X161990925Y-106307007D01*
X161958012Y-106250000D01*
X162855636Y-106250000D01*
X162855635Y-106249999D01*
X162798432Y-106036513D01*
X162798429Y-106036507D01*
X162698600Y-105822422D01*
X162698599Y-105822420D01*
X162563113Y-105628926D01*
X162563108Y-105628920D01*
X162546369Y-105612181D01*
X162512884Y-105550858D01*
X162517868Y-105481166D01*
X162559740Y-105425233D01*
X162625204Y-105400816D01*
X162634050Y-105400500D01*
X164389192Y-105400500D01*
X164456231Y-105420185D01*
G37*
G04 #@! TD.AperFunction*
G04 #@! TA.AperFunction,Conductor*
G36*
X128744075Y-106807007D02*
G01*
X128710000Y-106934174D01*
X128710000Y-107065826D01*
X128744075Y-107192993D01*
X128776988Y-107250000D01*
X127103012Y-107250000D01*
X127135925Y-107192993D01*
X127170000Y-107065826D01*
X127170000Y-106934174D01*
X127135925Y-106807007D01*
X127103012Y-106750000D01*
X128776988Y-106750000D01*
X128744075Y-106807007D01*
G37*
G04 #@! TD.AperFunction*
G04 #@! TA.AperFunction,Conductor*
G36*
X146524075Y-104267007D02*
G01*
X146490000Y-104394174D01*
X146490000Y-104525826D01*
X146524075Y-104652993D01*
X146556988Y-104710000D01*
X144883012Y-104710000D01*
X144915925Y-104652993D01*
X144950000Y-104525826D01*
X144950000Y-104394174D01*
X144915925Y-104267007D01*
X144883012Y-104210000D01*
X146556988Y-104210000D01*
X146524075Y-104267007D01*
G37*
G04 #@! TD.AperFunction*
G04 #@! TA.AperFunction,Conductor*
G36*
X184469334Y-98482414D02*
G01*
X184525267Y-98524286D01*
X184549684Y-98589750D01*
X184550000Y-98598596D01*
X184550000Y-98750000D01*
X185676000Y-98750000D01*
X185743039Y-98769685D01*
X185788794Y-98822489D01*
X185800000Y-98874000D01*
X185800000Y-103626000D01*
X185780315Y-103693039D01*
X185727511Y-103738794D01*
X185676000Y-103750000D01*
X184531166Y-103750000D01*
X184511327Y-103760832D01*
X184441635Y-103755845D01*
X184397292Y-103727346D01*
X184164674Y-103494727D01*
X184164673Y-103494726D01*
X184164669Y-103494723D01*
X184058127Y-103423535D01*
X184054165Y-103421894D01*
X183939744Y-103374499D01*
X183939738Y-103374497D01*
X183814071Y-103349500D01*
X183814069Y-103349500D01*
X182835932Y-103349500D01*
X182835930Y-103349500D01*
X182710262Y-103374497D01*
X182710252Y-103374500D01*
X182607996Y-103416856D01*
X182538527Y-103424325D01*
X182476048Y-103393049D01*
X182455551Y-103368268D01*
X182379817Y-103247739D01*
X182252262Y-103120184D01*
X182095590Y-103021740D01*
X182054259Y-102975013D01*
X184550000Y-102975013D01*
X184550000Y-103250000D01*
X185300000Y-103250000D01*
X185300000Y-101500000D01*
X184550001Y-101500000D01*
X184550001Y-101774986D01*
X184560494Y-101877697D01*
X184615641Y-102044119D01*
X184615643Y-102044124D01*
X184707684Y-102193345D01*
X184801658Y-102287319D01*
X184835143Y-102348642D01*
X184830159Y-102418334D01*
X184801658Y-102462681D01*
X184707684Y-102556654D01*
X184615643Y-102705875D01*
X184615641Y-102705880D01*
X184560494Y-102872302D01*
X184560493Y-102872309D01*
X184550000Y-102975013D01*
X182054259Y-102975013D01*
X182049299Y-102969405D01*
X182038342Y-102902862D01*
X182055565Y-102750000D01*
X182055565Y-102749996D01*
X182035369Y-102570750D01*
X182035368Y-102570745D01*
X181997555Y-102462681D01*
X181975789Y-102400478D01*
X181949789Y-102359100D01*
X181936582Y-102338080D01*
X181879816Y-102247738D01*
X181752262Y-102120184D01*
X181739107Y-102111918D01*
X181599523Y-102024211D01*
X181429254Y-101964631D01*
X181429250Y-101964630D01*
X181313008Y-101951533D01*
X181248594Y-101924466D01*
X181221898Y-101894285D01*
X181129815Y-101747737D01*
X181002262Y-101620184D01*
X180849523Y-101524211D01*
X180679254Y-101464631D01*
X180679249Y-101464630D01*
X180500004Y-101444435D01*
X180499500Y-101444435D01*
X180499186Y-101444342D01*
X180493081Y-101443655D01*
X180493201Y-101442585D01*
X180432461Y-101424750D01*
X180386706Y-101371946D01*
X180375500Y-101320435D01*
X180375500Y-100995437D01*
X180395185Y-100928398D01*
X180447989Y-100882643D01*
X180483316Y-100872498D01*
X180581631Y-100859555D01*
X180601887Y-100851165D01*
X180671356Y-100843693D01*
X180696798Y-100851163D01*
X180718238Y-100860044D01*
X180835639Y-100875500D01*
X181114360Y-100875499D01*
X181114361Y-100875499D01*
X181126594Y-100873888D01*
X181231762Y-100860044D01*
X181252545Y-100851434D01*
X181322014Y-100843965D01*
X181347453Y-100851434D01*
X181368238Y-100860044D01*
X181485639Y-100875500D01*
X181764360Y-100875499D01*
X181764361Y-100875499D01*
X181776594Y-100873888D01*
X181881762Y-100860044D01*
X181902545Y-100851434D01*
X181972014Y-100843965D01*
X181997453Y-100851434D01*
X182018238Y-100860044D01*
X182135639Y-100875500D01*
X182414360Y-100875499D01*
X182414361Y-100875499D01*
X182426594Y-100873888D01*
X182531762Y-100860044D01*
X182552545Y-100851434D01*
X182622014Y-100843965D01*
X182647453Y-100851434D01*
X182668238Y-100860044D01*
X182785639Y-100875500D01*
X183064360Y-100875499D01*
X183064363Y-100875499D01*
X183181753Y-100860046D01*
X183181757Y-100860044D01*
X183181762Y-100860044D01*
X183327841Y-100799536D01*
X183424962Y-100725013D01*
X184550000Y-100725013D01*
X184550000Y-101000000D01*
X185300000Y-101000000D01*
X185300000Y-99250000D01*
X184550001Y-99250000D01*
X184550001Y-99524986D01*
X184560494Y-99627697D01*
X184615641Y-99794119D01*
X184615643Y-99794124D01*
X184707684Y-99943345D01*
X184801658Y-100037319D01*
X184835143Y-100098642D01*
X184830159Y-100168334D01*
X184801658Y-100212681D01*
X184707684Y-100306654D01*
X184615643Y-100455875D01*
X184615641Y-100455880D01*
X184560494Y-100622302D01*
X184560493Y-100622309D01*
X184550000Y-100725013D01*
X183424962Y-100725013D01*
X183453282Y-100703282D01*
X183549536Y-100577841D01*
X183610044Y-100431762D01*
X183625500Y-100314361D01*
X183625499Y-99275095D01*
X183645183Y-99208057D01*
X183661813Y-99187420D01*
X184338320Y-98510914D01*
X184399642Y-98477430D01*
X184469334Y-98482414D01*
G37*
G04 #@! TD.AperFunction*
G04 #@! TA.AperFunction,Conductor*
G36*
X189166177Y-100270185D02*
G01*
X189186819Y-100286819D01*
X189200000Y-100300000D01*
X189428930Y-100300000D01*
X189476382Y-100309438D01*
X189540528Y-100336009D01*
X189650599Y-100350500D01*
X189849400Y-100350499D01*
X189849401Y-100350499D01*
X189866087Y-100348302D01*
X189959472Y-100336009D01*
X189959475Y-100336007D01*
X189967326Y-100333905D01*
X189968210Y-100337207D01*
X190021925Y-100331392D01*
X190032514Y-100334501D01*
X190032674Y-100333905D01*
X190040524Y-100336008D01*
X190040526Y-100336008D01*
X190040528Y-100336009D01*
X190150599Y-100350500D01*
X190349400Y-100350499D01*
X190349401Y-100350499D01*
X190366087Y-100348302D01*
X190459472Y-100336009D01*
X190459475Y-100336007D01*
X190467326Y-100333905D01*
X190468210Y-100337207D01*
X190521925Y-100331392D01*
X190532514Y-100334501D01*
X190532674Y-100333905D01*
X190540524Y-100336008D01*
X190540526Y-100336008D01*
X190540528Y-100336009D01*
X190650599Y-100350500D01*
X190849400Y-100350499D01*
X190849401Y-100350499D01*
X190866087Y-100348302D01*
X190959472Y-100336009D01*
X190959475Y-100336007D01*
X190967326Y-100333905D01*
X190968210Y-100337207D01*
X191021925Y-100331392D01*
X191032514Y-100334501D01*
X191032674Y-100333905D01*
X191040524Y-100336008D01*
X191040526Y-100336008D01*
X191040528Y-100336009D01*
X191112845Y-100345529D01*
X191176740Y-100373795D01*
X191184340Y-100380787D01*
X191265871Y-100462318D01*
X191299356Y-100523641D01*
X191294372Y-100593333D01*
X191265871Y-100637680D01*
X191145400Y-100758151D01*
X191084077Y-100791636D01*
X191014385Y-100786652D01*
X191010277Y-100785035D01*
X190959472Y-100763991D01*
X190959470Y-100763990D01*
X190849401Y-100749500D01*
X190650596Y-100749500D01*
X190540531Y-100763989D01*
X190532678Y-100766094D01*
X190531802Y-100762824D01*
X190477853Y-100768567D01*
X190467477Y-100765518D01*
X190467323Y-100766095D01*
X190459470Y-100763990D01*
X190349401Y-100749500D01*
X190150596Y-100749500D01*
X190040531Y-100763989D01*
X190032678Y-100766094D01*
X190031802Y-100762824D01*
X189977853Y-100768567D01*
X189967477Y-100765518D01*
X189967323Y-100766095D01*
X189959470Y-100763990D01*
X189849401Y-100749500D01*
X189650596Y-100749500D01*
X189540536Y-100763988D01*
X189540527Y-100763991D01*
X189476383Y-100790561D01*
X189428930Y-100800000D01*
X189200000Y-100800000D01*
X189186819Y-100813181D01*
X189125496Y-100846666D01*
X189099138Y-100849500D01*
X188574499Y-100849500D01*
X188507460Y-100829815D01*
X188461705Y-100777011D01*
X188451068Y-100728120D01*
X188450659Y-100728141D01*
X188450532Y-100725653D01*
X188450499Y-100725500D01*
X188450499Y-100724998D01*
X188450498Y-100724981D01*
X188439999Y-100622203D01*
X188439998Y-100622200D01*
X188429390Y-100590187D01*
X188407834Y-100525136D01*
X189875000Y-100525136D01*
X189875000Y-100574864D01*
X189894030Y-100620807D01*
X189929193Y-100655970D01*
X189975136Y-100675000D01*
X190024864Y-100675000D01*
X190070807Y-100655970D01*
X190105970Y-100620807D01*
X190125000Y-100574864D01*
X190125000Y-100525136D01*
X190875000Y-100525136D01*
X190875000Y-100574864D01*
X190894030Y-100620807D01*
X190929193Y-100655970D01*
X190975136Y-100675000D01*
X191024864Y-100675000D01*
X191070807Y-100655970D01*
X191105970Y-100620807D01*
X191125000Y-100574864D01*
X191125000Y-100525136D01*
X191105970Y-100479193D01*
X191070807Y-100444030D01*
X191024864Y-100425000D01*
X190975136Y-100425000D01*
X190929193Y-100444030D01*
X190894030Y-100479193D01*
X190875000Y-100525136D01*
X190125000Y-100525136D01*
X190105970Y-100479193D01*
X190070807Y-100444030D01*
X190024864Y-100425000D01*
X189975136Y-100425000D01*
X189929193Y-100444030D01*
X189894030Y-100479193D01*
X189875000Y-100525136D01*
X188407834Y-100525136D01*
X188384814Y-100455666D01*
X188374901Y-100439595D01*
X188356462Y-100372205D01*
X188377384Y-100305541D01*
X188431026Y-100260771D01*
X188480441Y-100250500D01*
X189099138Y-100250500D01*
X189166177Y-100270185D01*
G37*
G04 #@! TD.AperFunction*
G04 #@! TA.AperFunction,Conductor*
G36*
X109185134Y-84705590D02*
G01*
X109323453Y-84798013D01*
X109323455Y-84798014D01*
X109323459Y-84798016D01*
X109370593Y-84817539D01*
X109487334Y-84865894D01*
X109529935Y-84874368D01*
X109661305Y-84900500D01*
X109661308Y-84900500D01*
X109661309Y-84900500D01*
X164911309Y-84900500D01*
X178911309Y-84900500D01*
X185575638Y-84900500D01*
X185642677Y-84920185D01*
X185663319Y-84936819D01*
X187563181Y-86836681D01*
X187596666Y-86898004D01*
X187599500Y-86924362D01*
X187599500Y-93588695D01*
X187634103Y-93762658D01*
X187634106Y-93762667D01*
X187701983Y-93926540D01*
X187701990Y-93926553D01*
X187800535Y-94074034D01*
X187800538Y-94074038D01*
X187925961Y-94199461D01*
X187925965Y-94199464D01*
X188073446Y-94298009D01*
X188073459Y-94298016D01*
X188196363Y-94348923D01*
X188237334Y-94365894D01*
X188237336Y-94365894D01*
X188237341Y-94365896D01*
X188411304Y-94400499D01*
X188411307Y-94400500D01*
X188411309Y-94400500D01*
X188588693Y-94400500D01*
X188588694Y-94400499D01*
X188671124Y-94384103D01*
X188762658Y-94365896D01*
X188762661Y-94365894D01*
X188762666Y-94365894D01*
X188926547Y-94298013D01*
X189074035Y-94199464D01*
X189199464Y-94074035D01*
X189298013Y-93926547D01*
X189365894Y-93762666D01*
X189367964Y-93752262D01*
X189388964Y-93646682D01*
X189400500Y-93588691D01*
X189400500Y-86961229D01*
X189420185Y-86894190D01*
X189472989Y-86848435D01*
X189542147Y-86838491D01*
X189605703Y-86867516D01*
X189612181Y-86873548D01*
X191463181Y-88724548D01*
X191496666Y-88785871D01*
X191499500Y-88812229D01*
X191499500Y-97497306D01*
X191479815Y-97564345D01*
X191427011Y-97610100D01*
X191357853Y-97620044D01*
X191294297Y-97591019D01*
X191287819Y-97584987D01*
X189841187Y-96138355D01*
X189841185Y-96138352D01*
X189722314Y-96019481D01*
X189722306Y-96019475D01*
X189605916Y-95952278D01*
X189605915Y-95952277D01*
X189591482Y-95943945D01*
X189585382Y-95940423D01*
X189432654Y-95899499D01*
X189274540Y-95899499D01*
X189266944Y-95899499D01*
X189266928Y-95899500D01*
X183836669Y-95899500D01*
X183836653Y-95899499D01*
X183829057Y-95899499D01*
X183670943Y-95899499D01*
X183518215Y-95940423D01*
X183518213Y-95940424D01*
X183497680Y-95952277D01*
X183497681Y-95952278D01*
X183381287Y-96019477D01*
X183381282Y-96019481D01*
X183269478Y-96131286D01*
X182161681Y-97239082D01*
X182100358Y-97272567D01*
X182030666Y-97267583D01*
X181974733Y-97225711D01*
X181950316Y-97160247D01*
X181950000Y-97151401D01*
X181950000Y-97000000D01*
X181200000Y-97000000D01*
X181200000Y-97974999D01*
X181225201Y-98000200D01*
X181258686Y-98061523D01*
X181253702Y-98131215D01*
X181225202Y-98175562D01*
X181144478Y-98256285D01*
X181109227Y-98317345D01*
X181109224Y-98317350D01*
X181097587Y-98337504D01*
X181047018Y-98385718D01*
X180990203Y-98399500D01*
X180835636Y-98399500D01*
X180718241Y-98414954D01*
X180718239Y-98414955D01*
X180696796Y-98423837D01*
X180627327Y-98431304D01*
X180601895Y-98423837D01*
X180581634Y-98415445D01*
X180581630Y-98415444D01*
X180483314Y-98402500D01*
X180419418Y-98374233D01*
X180380947Y-98315909D01*
X180375500Y-98279561D01*
X180375500Y-98079295D01*
X180395185Y-98012256D01*
X180447989Y-97966501D01*
X180517147Y-97956557D01*
X180538508Y-97961590D01*
X180547308Y-97964506D01*
X180650019Y-97974999D01*
X180699999Y-97974998D01*
X180700000Y-97974998D01*
X180700000Y-96500000D01*
X181200000Y-96500000D01*
X181949999Y-96500000D01*
X181949999Y-96225028D01*
X181949998Y-96225013D01*
X181939505Y-96122302D01*
X181884358Y-95955880D01*
X181884356Y-95955875D01*
X181792315Y-95806654D01*
X181668345Y-95682684D01*
X181519124Y-95590643D01*
X181519119Y-95590641D01*
X181352697Y-95535494D01*
X181352690Y-95535493D01*
X181249986Y-95525000D01*
X181200000Y-95525000D01*
X181200000Y-96500000D01*
X180700000Y-96500000D01*
X180700000Y-95525000D01*
X180699999Y-95524999D01*
X180650029Y-95525000D01*
X180650011Y-95525001D01*
X180547302Y-95535494D01*
X180380880Y-95590641D01*
X180380875Y-95590643D01*
X180231654Y-95682684D01*
X180107683Y-95806655D01*
X180107679Y-95806660D01*
X180105826Y-95809665D01*
X180104018Y-95811290D01*
X180103202Y-95812323D01*
X180103025Y-95812183D01*
X180053874Y-95856385D01*
X179984911Y-95867601D01*
X179920831Y-95839752D01*
X179894753Y-95809653D01*
X179892713Y-95806346D01*
X179892712Y-95806344D01*
X179786818Y-95700450D01*
X179753334Y-95639127D01*
X179750500Y-95612769D01*
X179750500Y-91425493D01*
X179769508Y-91359519D01*
X179775787Y-91349525D01*
X179775786Y-91349525D01*
X179775789Y-91349522D01*
X179835368Y-91179255D01*
X179836370Y-91170366D01*
X179855565Y-91000003D01*
X179855565Y-90999996D01*
X179835369Y-90820750D01*
X179835368Y-90820745D01*
X179791170Y-90694435D01*
X179775789Y-90650478D01*
X179765159Y-90633561D01*
X179728758Y-90575628D01*
X179679816Y-90497738D01*
X179552262Y-90370184D01*
X179399523Y-90274211D01*
X179229254Y-90214631D01*
X179229249Y-90214630D01*
X179050004Y-90194435D01*
X179049996Y-90194435D01*
X178870750Y-90214630D01*
X178870745Y-90214631D01*
X178700476Y-90274211D01*
X178547737Y-90370184D01*
X178420184Y-90497737D01*
X178324211Y-90650476D01*
X178264631Y-90820745D01*
X178264630Y-90820750D01*
X178244435Y-90999996D01*
X178244435Y-91000003D01*
X178264630Y-91179249D01*
X178264631Y-91179254D01*
X178324212Y-91349525D01*
X178330492Y-91359519D01*
X178349500Y-91425493D01*
X178349500Y-92668841D01*
X178329815Y-92735880D01*
X178277011Y-92781635D01*
X178207853Y-92791579D01*
X178144297Y-92762554D01*
X178134770Y-92752631D01*
X178134740Y-92752662D01*
X178002262Y-92620184D01*
X177849521Y-92524210D01*
X177679255Y-92464632D01*
X177679246Y-92464630D01*
X177672012Y-92463815D01*
X177607600Y-92436744D01*
X177598223Y-92428277D01*
X176164674Y-90994727D01*
X176164673Y-90994726D01*
X176149024Y-90984270D01*
X176129479Y-90971210D01*
X176058125Y-90923533D01*
X175939746Y-90874499D01*
X175938598Y-90874271D01*
X175937419Y-90874036D01*
X175937419Y-90874035D01*
X175937406Y-90874034D01*
X175814071Y-90849500D01*
X175814069Y-90849500D01*
X142755068Y-90849500D01*
X142689096Y-90830494D01*
X142599522Y-90774210D01*
X142599518Y-90774209D01*
X142429262Y-90714633D01*
X142429249Y-90714630D01*
X142250004Y-90694435D01*
X142249996Y-90694435D01*
X142070750Y-90714630D01*
X142070745Y-90714631D01*
X141900476Y-90774211D01*
X141747737Y-90870184D01*
X141620184Y-90997737D01*
X141524211Y-91150476D01*
X141464631Y-91320745D01*
X141464630Y-91320750D01*
X141444435Y-91499996D01*
X141444435Y-91500003D01*
X141464630Y-91679249D01*
X141464632Y-91679257D01*
X141466483Y-91684546D01*
X141470044Y-91754325D01*
X141435315Y-91814952D01*
X141373322Y-91847179D01*
X141349441Y-91849500D01*
X141005068Y-91849500D01*
X140939096Y-91830494D01*
X140849522Y-91774210D01*
X140849518Y-91774209D01*
X140679262Y-91714633D01*
X140679249Y-91714630D01*
X140500004Y-91694435D01*
X140499996Y-91694435D01*
X140320750Y-91714630D01*
X140320745Y-91714631D01*
X140150476Y-91774211D01*
X139997737Y-91870184D01*
X139870184Y-91997737D01*
X139774211Y-92150476D01*
X139714631Y-92320745D01*
X139714630Y-92320750D01*
X139694435Y-92499996D01*
X139694435Y-92500003D01*
X139714630Y-92679249D01*
X139714631Y-92679254D01*
X139774211Y-92849523D01*
X139870184Y-93002262D01*
X139997738Y-93129816D01*
X140060904Y-93169506D01*
X140146021Y-93222989D01*
X140150478Y-93225789D01*
X140320739Y-93285366D01*
X140320745Y-93285368D01*
X140320750Y-93285369D01*
X140499996Y-93305565D01*
X140500000Y-93305565D01*
X140500004Y-93305565D01*
X140679249Y-93285369D01*
X140679251Y-93285368D01*
X140679255Y-93285368D01*
X140679258Y-93285366D01*
X140679262Y-93285366D01*
X140780331Y-93250000D01*
X140849522Y-93225789D01*
X140939096Y-93169505D01*
X141005068Y-93150500D01*
X148130192Y-93150500D01*
X148197231Y-93170185D01*
X148242986Y-93222989D01*
X148252930Y-93292147D01*
X148223905Y-93355703D01*
X148217873Y-93362181D01*
X146216873Y-95363181D01*
X146155550Y-95396666D01*
X146129192Y-95399500D01*
X144678958Y-95399500D01*
X144611919Y-95379815D01*
X144573420Y-95340598D01*
X144567712Y-95331344D01*
X144443657Y-95207289D01*
X144443656Y-95207288D01*
X144294334Y-95115186D01*
X144127797Y-95060001D01*
X144127795Y-95060000D01*
X144025016Y-95049500D01*
X144025009Y-95049500D01*
X143470808Y-95049500D01*
X143403769Y-95029815D01*
X143383127Y-95013181D01*
X142864674Y-94494727D01*
X142864673Y-94494726D01*
X142864669Y-94494723D01*
X142758127Y-94423535D01*
X142702513Y-94400499D01*
X142639744Y-94374499D01*
X142639738Y-94374497D01*
X142514071Y-94349500D01*
X142514069Y-94349500D01*
X117320808Y-94349500D01*
X117253769Y-94329815D01*
X117233127Y-94313181D01*
X109696523Y-86776577D01*
X123649500Y-86776577D01*
X123649500Y-86973422D01*
X123680290Y-87167826D01*
X123741117Y-87355029D01*
X123826925Y-87523436D01*
X123830476Y-87530405D01*
X123946172Y-87689646D01*
X124085354Y-87828828D01*
X124244595Y-87944524D01*
X124297704Y-87971584D01*
X124419970Y-88033882D01*
X124419972Y-88033882D01*
X124419975Y-88033884D01*
X124520317Y-88066487D01*
X124607173Y-88094709D01*
X124801578Y-88125500D01*
X124801583Y-88125500D01*
X124998422Y-88125500D01*
X125192826Y-88094709D01*
X125221602Y-88085359D01*
X125380025Y-88033884D01*
X125555405Y-87944524D01*
X125714646Y-87828828D01*
X125853828Y-87689646D01*
X125969524Y-87530405D01*
X126058884Y-87355025D01*
X126119709Y-87167826D01*
X126136281Y-87063196D01*
X126150500Y-86973422D01*
X126150500Y-86776577D01*
X175349500Y-86776577D01*
X175349500Y-86973422D01*
X175380290Y-87167826D01*
X175441117Y-87355029D01*
X175526925Y-87523436D01*
X175530476Y-87530405D01*
X175646172Y-87689646D01*
X175785354Y-87828828D01*
X175944595Y-87944524D01*
X175997704Y-87971584D01*
X176119970Y-88033882D01*
X176119972Y-88033882D01*
X176119975Y-88033884D01*
X176220317Y-88066487D01*
X176307173Y-88094709D01*
X176501578Y-88125500D01*
X176501583Y-88125500D01*
X176698422Y-88125500D01*
X176892826Y-88094709D01*
X176921602Y-88085359D01*
X177080025Y-88033884D01*
X177255405Y-87944524D01*
X177414646Y-87828828D01*
X177553828Y-87689646D01*
X177669524Y-87530405D01*
X177758884Y-87355025D01*
X177819709Y-87167826D01*
X177836281Y-87063196D01*
X177850500Y-86973422D01*
X177850500Y-86776577D01*
X177819709Y-86582173D01*
X177758882Y-86394970D01*
X177711743Y-86302455D01*
X177669524Y-86219595D01*
X177553828Y-86060354D01*
X177414646Y-85921172D01*
X177255405Y-85805476D01*
X177080029Y-85716117D01*
X176892826Y-85655290D01*
X176698422Y-85624500D01*
X176698417Y-85624500D01*
X176501583Y-85624500D01*
X176501578Y-85624500D01*
X176307173Y-85655290D01*
X176119970Y-85716117D01*
X175944594Y-85805476D01*
X175853741Y-85871485D01*
X175785354Y-85921172D01*
X175785352Y-85921174D01*
X175785351Y-85921174D01*
X175646174Y-86060351D01*
X175646174Y-86060352D01*
X175646172Y-86060354D01*
X175628959Y-86084046D01*
X175530476Y-86219594D01*
X175441117Y-86394970D01*
X175380290Y-86582173D01*
X175349500Y-86776577D01*
X126150500Y-86776577D01*
X126119709Y-86582173D01*
X126058882Y-86394970D01*
X126011743Y-86302455D01*
X125969524Y-86219595D01*
X125853828Y-86060354D01*
X125714646Y-85921172D01*
X125555405Y-85805476D01*
X125380029Y-85716117D01*
X125192826Y-85655290D01*
X124998422Y-85624500D01*
X124998417Y-85624500D01*
X124801583Y-85624500D01*
X124801578Y-85624500D01*
X124607173Y-85655290D01*
X124419970Y-85716117D01*
X124244594Y-85805476D01*
X124153741Y-85871485D01*
X124085354Y-85921172D01*
X124085352Y-85921174D01*
X124085351Y-85921174D01*
X123946174Y-86060351D01*
X123946174Y-86060352D01*
X123946172Y-86060354D01*
X123928959Y-86084046D01*
X123830476Y-86219594D01*
X123741117Y-86394970D01*
X123680290Y-86582173D01*
X123649500Y-86776577D01*
X109696523Y-86776577D01*
X108861358Y-85941412D01*
X108827873Y-85880089D01*
X108832856Y-85810398D01*
X108924369Y-85565046D01*
X108943284Y-85478097D01*
X108985195Y-85285433D01*
X108985195Y-85285432D01*
X108985196Y-85285428D01*
X109005610Y-85000000D01*
X108992560Y-84817538D01*
X109007412Y-84749266D01*
X109056817Y-84699861D01*
X109125090Y-84685009D01*
X109185134Y-84705590D01*
G37*
G04 #@! TD.AperFunction*
G04 #@! TA.AperFunction,Conductor*
G36*
X175496231Y-92170185D02*
G01*
X175516873Y-92186819D01*
X176678277Y-93348223D01*
X176711762Y-93409546D01*
X176713815Y-93422012D01*
X176714630Y-93429246D01*
X176714632Y-93429255D01*
X176774210Y-93599521D01*
X176774211Y-93599522D01*
X176870184Y-93752262D01*
X176997738Y-93879816D01*
X177150478Y-93975789D01*
X177252103Y-94011349D01*
X177320745Y-94035368D01*
X177320750Y-94035369D01*
X177499996Y-94055565D01*
X177500000Y-94055565D01*
X177500004Y-94055565D01*
X177679249Y-94035369D01*
X177679252Y-94035368D01*
X177679255Y-94035368D01*
X177849522Y-93975789D01*
X178002262Y-93879816D01*
X178129816Y-93752262D01*
X178129816Y-93752261D01*
X178134740Y-93747338D01*
X178136011Y-93748609D01*
X178185740Y-93713705D01*
X178255552Y-93710855D01*
X178315822Y-93746200D01*
X178347416Y-93808518D01*
X178349500Y-93831158D01*
X178349500Y-95571659D01*
X178329815Y-95638698D01*
X178277011Y-95684453D01*
X178207853Y-95694397D01*
X178160404Y-95677198D01*
X178019340Y-95590189D01*
X178019335Y-95590187D01*
X178019334Y-95590186D01*
X177852797Y-95535001D01*
X177852795Y-95535000D01*
X177750010Y-95524500D01*
X177149998Y-95524500D01*
X177149980Y-95524501D01*
X177047203Y-95535000D01*
X177047200Y-95535001D01*
X176880668Y-95590185D01*
X176880663Y-95590187D01*
X176731342Y-95682289D01*
X176607288Y-95806343D01*
X176607283Y-95806349D01*
X176605241Y-95809661D01*
X176603247Y-95811453D01*
X176602807Y-95812011D01*
X176602711Y-95811935D01*
X176553291Y-95856383D01*
X176484328Y-95867602D01*
X176420247Y-95839755D01*
X176394168Y-95809656D01*
X176392319Y-95806659D01*
X176392316Y-95806655D01*
X176268345Y-95682684D01*
X176119124Y-95590643D01*
X176119119Y-95590641D01*
X175952697Y-95535494D01*
X175952690Y-95535493D01*
X175849986Y-95525000D01*
X175800000Y-95525000D01*
X175800000Y-96876000D01*
X175780315Y-96943039D01*
X175727511Y-96988794D01*
X175676000Y-97000000D01*
X175424000Y-97000000D01*
X175356961Y-96980315D01*
X175311206Y-96927511D01*
X175300000Y-96876000D01*
X175300000Y-95525000D01*
X175299999Y-95524999D01*
X175250029Y-95525000D01*
X175250011Y-95525001D01*
X175147302Y-95535494D01*
X174980880Y-95590641D01*
X174980875Y-95590643D01*
X174825509Y-95686475D01*
X174824500Y-95684840D01*
X174768733Y-95707329D01*
X174700093Y-95694277D01*
X174649405Y-95646188D01*
X174635021Y-95608115D01*
X174625501Y-95560256D01*
X174576465Y-95441873D01*
X174559878Y-95417049D01*
X174505277Y-95335331D01*
X174505275Y-95335329D01*
X174505273Y-95335326D01*
X174505272Y-95335325D01*
X171532127Y-92362181D01*
X171498642Y-92300858D01*
X171503626Y-92231166D01*
X171545498Y-92175233D01*
X171610962Y-92150816D01*
X171619808Y-92150500D01*
X175429192Y-92150500D01*
X175496231Y-92170185D01*
G37*
G04 #@! TD.AperFunction*
G04 #@! TA.AperFunction,Conductor*
G36*
X196080115Y-89976562D02*
G01*
X196080116Y-89976561D01*
X196186803Y-89834047D01*
X196266668Y-89687786D01*
X196316073Y-89638381D01*
X196384346Y-89623529D01*
X196449810Y-89647946D01*
X196491682Y-89703879D01*
X196499500Y-89747213D01*
X196499500Y-91501743D01*
X196479815Y-91568782D01*
X196427011Y-91614537D01*
X196357853Y-91624481D01*
X196294297Y-91595456D01*
X196266668Y-91561170D01*
X196187229Y-91415690D01*
X196187224Y-91415682D01*
X196015745Y-91186612D01*
X196015729Y-91186594D01*
X195813405Y-90984270D01*
X195813387Y-90984254D01*
X195584317Y-90812775D01*
X195584309Y-90812770D01*
X195439223Y-90733547D01*
X195389818Y-90684142D01*
X195374966Y-90615869D01*
X195399383Y-90550404D01*
X195439224Y-90515883D01*
X195584041Y-90436807D01*
X195584047Y-90436803D01*
X195726561Y-90330116D01*
X195726562Y-90330115D01*
X194824025Y-89427578D01*
X194855258Y-89414641D01*
X194978097Y-89332563D01*
X195082563Y-89228097D01*
X195164641Y-89105258D01*
X195177578Y-89074025D01*
X196080115Y-89976562D01*
G37*
G04 #@! TD.AperFunction*
G04 #@! TA.AperFunction,Conductor*
G36*
X196442539Y-78520185D02*
G01*
X196488294Y-78572989D01*
X196499500Y-78624500D01*
X196499500Y-80251743D01*
X196479815Y-80318782D01*
X196427011Y-80364537D01*
X196357853Y-80374481D01*
X196294297Y-80345456D01*
X196266668Y-80311170D01*
X196187229Y-80165690D01*
X196187224Y-80165682D01*
X196015745Y-79936612D01*
X196015729Y-79936594D01*
X195813405Y-79734270D01*
X195813387Y-79734254D01*
X195584317Y-79562775D01*
X195584309Y-79562770D01*
X195333166Y-79425635D01*
X195333167Y-79425635D01*
X195225915Y-79385632D01*
X195065046Y-79325631D01*
X195065043Y-79325630D01*
X195065037Y-79325628D01*
X194785433Y-79264804D01*
X194500001Y-79244390D01*
X194499999Y-79244390D01*
X194214566Y-79264804D01*
X193934962Y-79325628D01*
X193666833Y-79425635D01*
X193415690Y-79562770D01*
X193415682Y-79562775D01*
X193186612Y-79734254D01*
X193186594Y-79734270D01*
X192984270Y-79936594D01*
X192984254Y-79936612D01*
X192812775Y-80165682D01*
X192812770Y-80165690D01*
X192675635Y-80416833D01*
X192575628Y-80684962D01*
X192514804Y-80964566D01*
X192494390Y-81249998D01*
X192494390Y-81250001D01*
X192514804Y-81535433D01*
X192575628Y-81815037D01*
X192575630Y-81815043D01*
X192575631Y-81815046D01*
X192625124Y-81947741D01*
X192675635Y-82083166D01*
X192812770Y-82334309D01*
X192812775Y-82334317D01*
X192984254Y-82563387D01*
X192984270Y-82563405D01*
X193186594Y-82765729D01*
X193186612Y-82765745D01*
X193415682Y-82937224D01*
X193415690Y-82937229D01*
X193560776Y-83016452D01*
X193610181Y-83065857D01*
X193625033Y-83134130D01*
X193600616Y-83199594D01*
X193560776Y-83234116D01*
X193415961Y-83313191D01*
X193415953Y-83313196D01*
X193273437Y-83419882D01*
X193273436Y-83419883D01*
X194175975Y-84322421D01*
X194144742Y-84335359D01*
X194021903Y-84417437D01*
X193917437Y-84521903D01*
X193835359Y-84644742D01*
X193822421Y-84675974D01*
X192919883Y-83773436D01*
X192919882Y-83773437D01*
X192813196Y-83915953D01*
X192813191Y-83915961D01*
X192676091Y-84167041D01*
X192576109Y-84435104D01*
X192515300Y-84714637D01*
X192494891Y-84999998D01*
X192494891Y-85000001D01*
X192515300Y-85285362D01*
X192576109Y-85564895D01*
X192676091Y-85832958D01*
X192813191Y-86084038D01*
X192813196Y-86084046D01*
X192919882Y-86226561D01*
X192919883Y-86226562D01*
X193822421Y-85324024D01*
X193835359Y-85355258D01*
X193917437Y-85478097D01*
X194021903Y-85582563D01*
X194144742Y-85664641D01*
X194175974Y-85677578D01*
X193273436Y-86580115D01*
X193415960Y-86686807D01*
X193415961Y-86686808D01*
X193561298Y-86766168D01*
X193610703Y-86815573D01*
X193625555Y-86883846D01*
X193601138Y-86949310D01*
X193561298Y-86983832D01*
X193415961Y-87063191D01*
X193415953Y-87063196D01*
X193273437Y-87169882D01*
X193273436Y-87169883D01*
X194175975Y-88072421D01*
X194144742Y-88085359D01*
X194021903Y-88167437D01*
X193917437Y-88271903D01*
X193835359Y-88394742D01*
X193822421Y-88425975D01*
X192919882Y-87523436D01*
X192813196Y-87665953D01*
X192813195Y-87665955D01*
X192791613Y-87705480D01*
X192742207Y-87754885D01*
X192673934Y-87769736D01*
X192608470Y-87745319D01*
X192595100Y-87733733D01*
X189727262Y-84865895D01*
X186728419Y-81867051D01*
X186728418Y-81867050D01*
X186728416Y-81867048D01*
X186657063Y-81819374D01*
X186650586Y-81815046D01*
X186650573Y-81815037D01*
X186605506Y-81784923D01*
X186605491Y-81784915D01*
X186468920Y-81728346D01*
X186468910Y-81728343D01*
X186323923Y-81699503D01*
X186323921Y-81699503D01*
X120299972Y-81699503D01*
X120259017Y-81692545D01*
X120179254Y-81664634D01*
X120179249Y-81664633D01*
X120000004Y-81644438D01*
X119999996Y-81644438D01*
X119820750Y-81664633D01*
X119820745Y-81664634D01*
X119650476Y-81724214D01*
X119497737Y-81820187D01*
X119370184Y-81947740D01*
X119274211Y-82100479D01*
X119214631Y-82270748D01*
X119214630Y-82270753D01*
X119194435Y-82449999D01*
X119194435Y-82450006D01*
X119214630Y-82629252D01*
X119214631Y-82629257D01*
X119274211Y-82799527D01*
X119343330Y-82909527D01*
X119362331Y-82976764D01*
X119341964Y-83043599D01*
X119288696Y-83088814D01*
X119238337Y-83099500D01*
X110174361Y-83099500D01*
X110107322Y-83079815D01*
X110086680Y-83063181D01*
X108956913Y-81933413D01*
X108923428Y-81872090D01*
X108923428Y-81819374D01*
X108985195Y-81535433D01*
X108985195Y-81535432D01*
X108985196Y-81535428D01*
X109005610Y-81250000D01*
X108985196Y-80964572D01*
X108924369Y-80684954D01*
X108824367Y-80416839D01*
X108734217Y-80251743D01*
X108687229Y-80165690D01*
X108687224Y-80165682D01*
X108515745Y-79936612D01*
X108515729Y-79936594D01*
X108313405Y-79734270D01*
X108313387Y-79734254D01*
X108084317Y-79562775D01*
X108084309Y-79562770D01*
X107833166Y-79425635D01*
X107833167Y-79425635D01*
X107725915Y-79385632D01*
X107565046Y-79325631D01*
X107565043Y-79325630D01*
X107565037Y-79325628D01*
X107285433Y-79264804D01*
X107000001Y-79244390D01*
X106999999Y-79244390D01*
X106714566Y-79264804D01*
X106434962Y-79325628D01*
X106166833Y-79425635D01*
X105915690Y-79562770D01*
X105915682Y-79562775D01*
X105686612Y-79734254D01*
X105686594Y-79734270D01*
X105484270Y-79936594D01*
X105484254Y-79936612D01*
X105312775Y-80165682D01*
X105312770Y-80165690D01*
X105175635Y-80416833D01*
X105075628Y-80684962D01*
X105014804Y-80964566D01*
X104994390Y-81249998D01*
X104994390Y-81250001D01*
X105014804Y-81535433D01*
X105076572Y-81819373D01*
X105071588Y-81889064D01*
X105043087Y-81933412D01*
X104712181Y-82264318D01*
X104650858Y-82297803D01*
X104581166Y-82292819D01*
X104525233Y-82250947D01*
X104500816Y-82185483D01*
X104500500Y-82176637D01*
X104500500Y-78624500D01*
X104520185Y-78557461D01*
X104572989Y-78511706D01*
X104624500Y-78500500D01*
X196375500Y-78500500D01*
X196442539Y-78520185D01*
G37*
G04 #@! TD.AperFunction*
G04 #@! TA.AperFunction,Conductor*
G36*
X196080115Y-86226562D02*
G01*
X196080116Y-86226561D01*
X196186803Y-86084047D01*
X196266668Y-85937786D01*
X196316073Y-85888381D01*
X196384346Y-85873529D01*
X196449810Y-85897946D01*
X196491682Y-85953879D01*
X196499500Y-85997213D01*
X196499500Y-87752786D01*
X196479815Y-87819825D01*
X196427011Y-87865580D01*
X196357853Y-87875524D01*
X196294297Y-87846499D01*
X196266668Y-87812213D01*
X196186808Y-87665961D01*
X196186807Y-87665960D01*
X196080115Y-87523436D01*
X195177577Y-88425973D01*
X195164641Y-88394742D01*
X195082563Y-88271903D01*
X194978097Y-88167437D01*
X194855258Y-88085359D01*
X194824024Y-88072421D01*
X195726562Y-87169883D01*
X195726561Y-87169882D01*
X195584046Y-87063196D01*
X195584033Y-87063188D01*
X195438702Y-86983832D01*
X195389296Y-86934427D01*
X195374444Y-86866154D01*
X195398861Y-86800690D01*
X195438702Y-86766168D01*
X195584041Y-86686807D01*
X195584047Y-86686803D01*
X195726561Y-86580116D01*
X195726562Y-86580115D01*
X194824025Y-85677577D01*
X194855258Y-85664641D01*
X194978097Y-85582563D01*
X195082563Y-85478097D01*
X195164641Y-85355258D01*
X195177578Y-85324025D01*
X196080115Y-86226562D01*
G37*
G04 #@! TD.AperFunction*
G04 #@! TA.AperFunction,Conductor*
G36*
X196449811Y-82148989D02*
G01*
X196491682Y-82204923D01*
X196499500Y-82248256D01*
X196499500Y-84002786D01*
X196479815Y-84069825D01*
X196427011Y-84115580D01*
X196357853Y-84125524D01*
X196294297Y-84096499D01*
X196266668Y-84062213D01*
X196186808Y-83915961D01*
X196186807Y-83915960D01*
X196080115Y-83773436D01*
X195177577Y-84675973D01*
X195164641Y-84644742D01*
X195082563Y-84521903D01*
X194978097Y-84417437D01*
X194855258Y-84335359D01*
X194824024Y-84322421D01*
X195726562Y-83419883D01*
X195726561Y-83419882D01*
X195584046Y-83313196D01*
X195584038Y-83313191D01*
X195439223Y-83234116D01*
X195389818Y-83184711D01*
X195374966Y-83116438D01*
X195399383Y-83050973D01*
X195439224Y-83016452D01*
X195584304Y-82937232D01*
X195584303Y-82937232D01*
X195584315Y-82937226D01*
X195813395Y-82765739D01*
X196015739Y-82563395D01*
X196187226Y-82334315D01*
X196266668Y-82188829D01*
X196316073Y-82139424D01*
X196384346Y-82124572D01*
X196449811Y-82148989D01*
G37*
G04 #@! TD.AperFunction*
M02*
