%TF.GenerationSoftware,KiCad,Pcbnew,8.0.4*%
%TF.CreationDate,2024-09-22T20:29:33+02:00*%
%TF.ProjectId,Fader_Single,46616465-725f-4536-996e-676c652e6b69,rev?*%
%TF.SameCoordinates,Original*%
%TF.FileFunction,Drillmap*%
%TF.FilePolarity,Positive*%
%FSLAX45Y45*%
G04 Gerber Fmt 4.5, Leading zero omitted, Abs format (unit mm)*
G04 Created by KiCad (PCBNEW 8.0.4) date 2024-09-22 20:29:33*
%MOMM*%
%LPD*%
G01*
G04 APERTURE LIST*
%ADD10C,0.050000*%
%ADD11C,0.200000*%
G04 APERTURE END LIST*
D10*
X10400000Y-7800000D02*
X19700000Y-7800000D01*
X19700000Y-10900000D01*
X10400000Y-10900000D01*
X10400000Y-7800000D01*
D11*
X12390000Y-8587500D02*
X12590000Y-8787500D01*
X12590000Y-8587500D02*
X12390000Y-8787500D01*
X17560000Y-8587500D02*
X17760000Y-8787500D01*
X17760000Y-8587500D02*
X17560000Y-8787500D01*
X10658277Y-11213984D02*
X10658277Y-11013984D01*
X10658277Y-11013984D02*
X10705896Y-11013984D01*
X10705896Y-11013984D02*
X10734467Y-11023508D01*
X10734467Y-11023508D02*
X10753515Y-11042555D01*
X10753515Y-11042555D02*
X10763039Y-11061603D01*
X10763039Y-11061603D02*
X10772563Y-11099698D01*
X10772563Y-11099698D02*
X10772563Y-11128270D01*
X10772563Y-11128270D02*
X10763039Y-11166365D01*
X10763039Y-11166365D02*
X10753515Y-11185412D01*
X10753515Y-11185412D02*
X10734467Y-11204460D01*
X10734467Y-11204460D02*
X10705896Y-11213984D01*
X10705896Y-11213984D02*
X10658277Y-11213984D01*
X10858277Y-11213984D02*
X10858277Y-11080650D01*
X10858277Y-11118746D02*
X10867801Y-11099698D01*
X10867801Y-11099698D02*
X10877324Y-11090174D01*
X10877324Y-11090174D02*
X10896372Y-11080650D01*
X10896372Y-11080650D02*
X10915420Y-11080650D01*
X10982086Y-11213984D02*
X10982086Y-11080650D01*
X10982086Y-11013984D02*
X10972563Y-11023508D01*
X10972563Y-11023508D02*
X10982086Y-11033031D01*
X10982086Y-11033031D02*
X10991610Y-11023508D01*
X10991610Y-11023508D02*
X10982086Y-11013984D01*
X10982086Y-11013984D02*
X10982086Y-11033031D01*
X11105896Y-11213984D02*
X11086848Y-11204460D01*
X11086848Y-11204460D02*
X11077324Y-11185412D01*
X11077324Y-11185412D02*
X11077324Y-11013984D01*
X11210658Y-11213984D02*
X11191610Y-11204460D01*
X11191610Y-11204460D02*
X11182086Y-11185412D01*
X11182086Y-11185412D02*
X11182086Y-11013984D01*
X11439229Y-11213984D02*
X11439229Y-11013984D01*
X11439229Y-11013984D02*
X11505896Y-11156841D01*
X11505896Y-11156841D02*
X11572562Y-11013984D01*
X11572562Y-11013984D02*
X11572562Y-11213984D01*
X11753515Y-11213984D02*
X11753515Y-11109222D01*
X11753515Y-11109222D02*
X11743991Y-11090174D01*
X11743991Y-11090174D02*
X11724943Y-11080650D01*
X11724943Y-11080650D02*
X11686848Y-11080650D01*
X11686848Y-11080650D02*
X11667801Y-11090174D01*
X11753515Y-11204460D02*
X11734467Y-11213984D01*
X11734467Y-11213984D02*
X11686848Y-11213984D01*
X11686848Y-11213984D02*
X11667801Y-11204460D01*
X11667801Y-11204460D02*
X11658277Y-11185412D01*
X11658277Y-11185412D02*
X11658277Y-11166365D01*
X11658277Y-11166365D02*
X11667801Y-11147317D01*
X11667801Y-11147317D02*
X11686848Y-11137793D01*
X11686848Y-11137793D02*
X11734467Y-11137793D01*
X11734467Y-11137793D02*
X11753515Y-11128270D01*
X11848753Y-11080650D02*
X11848753Y-11280650D01*
X11848753Y-11090174D02*
X11867801Y-11080650D01*
X11867801Y-11080650D02*
X11905896Y-11080650D01*
X11905896Y-11080650D02*
X11924943Y-11090174D01*
X11924943Y-11090174D02*
X11934467Y-11099698D01*
X11934467Y-11099698D02*
X11943991Y-11118746D01*
X11943991Y-11118746D02*
X11943991Y-11175889D01*
X11943991Y-11175889D02*
X11934467Y-11194936D01*
X11934467Y-11194936D02*
X11924943Y-11204460D01*
X11924943Y-11204460D02*
X11905896Y-11213984D01*
X11905896Y-11213984D02*
X11867801Y-11213984D01*
X11867801Y-11213984D02*
X11848753Y-11204460D01*
X12029705Y-11194936D02*
X12039229Y-11204460D01*
X12039229Y-11204460D02*
X12029705Y-11213984D01*
X12029705Y-11213984D02*
X12020182Y-11204460D01*
X12020182Y-11204460D02*
X12029705Y-11194936D01*
X12029705Y-11194936D02*
X12029705Y-11213984D01*
X12029705Y-11090174D02*
X12039229Y-11099698D01*
X12039229Y-11099698D02*
X12029705Y-11109222D01*
X12029705Y-11109222D02*
X12020182Y-11099698D01*
X12020182Y-11099698D02*
X12029705Y-11090174D01*
X12029705Y-11090174D02*
X12029705Y-11109222D01*
X10197500Y-11442500D02*
X10397500Y-11642500D01*
X10397500Y-11442500D02*
X10197500Y-11642500D01*
X10648753Y-11453031D02*
X10658277Y-11443508D01*
X10658277Y-11443508D02*
X10677324Y-11433984D01*
X10677324Y-11433984D02*
X10724944Y-11433984D01*
X10724944Y-11433984D02*
X10743991Y-11443508D01*
X10743991Y-11443508D02*
X10753515Y-11453031D01*
X10753515Y-11453031D02*
X10763039Y-11472079D01*
X10763039Y-11472079D02*
X10763039Y-11491127D01*
X10763039Y-11491127D02*
X10753515Y-11519698D01*
X10753515Y-11519698D02*
X10639229Y-11633984D01*
X10639229Y-11633984D02*
X10763039Y-11633984D01*
X10848753Y-11614936D02*
X10858277Y-11624460D01*
X10858277Y-11624460D02*
X10848753Y-11633984D01*
X10848753Y-11633984D02*
X10839229Y-11624460D01*
X10839229Y-11624460D02*
X10848753Y-11614936D01*
X10848753Y-11614936D02*
X10848753Y-11633984D01*
X10982086Y-11433984D02*
X11001134Y-11433984D01*
X11001134Y-11433984D02*
X11020182Y-11443508D01*
X11020182Y-11443508D02*
X11029705Y-11453031D01*
X11029705Y-11453031D02*
X11039229Y-11472079D01*
X11039229Y-11472079D02*
X11048753Y-11510174D01*
X11048753Y-11510174D02*
X11048753Y-11557793D01*
X11048753Y-11557793D02*
X11039229Y-11595888D01*
X11039229Y-11595888D02*
X11029705Y-11614936D01*
X11029705Y-11614936D02*
X11020182Y-11624460D01*
X11020182Y-11624460D02*
X11001134Y-11633984D01*
X11001134Y-11633984D02*
X10982086Y-11633984D01*
X10982086Y-11633984D02*
X10963039Y-11624460D01*
X10963039Y-11624460D02*
X10953515Y-11614936D01*
X10953515Y-11614936D02*
X10943991Y-11595888D01*
X10943991Y-11595888D02*
X10934467Y-11557793D01*
X10934467Y-11557793D02*
X10934467Y-11510174D01*
X10934467Y-11510174D02*
X10943991Y-11472079D01*
X10943991Y-11472079D02*
X10953515Y-11453031D01*
X10953515Y-11453031D02*
X10963039Y-11443508D01*
X10963039Y-11443508D02*
X10982086Y-11433984D01*
X11172563Y-11433984D02*
X11191610Y-11433984D01*
X11191610Y-11433984D02*
X11210658Y-11443508D01*
X11210658Y-11443508D02*
X11220182Y-11453031D01*
X11220182Y-11453031D02*
X11229705Y-11472079D01*
X11229705Y-11472079D02*
X11239229Y-11510174D01*
X11239229Y-11510174D02*
X11239229Y-11557793D01*
X11239229Y-11557793D02*
X11229705Y-11595888D01*
X11229705Y-11595888D02*
X11220182Y-11614936D01*
X11220182Y-11614936D02*
X11210658Y-11624460D01*
X11210658Y-11624460D02*
X11191610Y-11633984D01*
X11191610Y-11633984D02*
X11172563Y-11633984D01*
X11172563Y-11633984D02*
X11153515Y-11624460D01*
X11153515Y-11624460D02*
X11143991Y-11614936D01*
X11143991Y-11614936D02*
X11134467Y-11595888D01*
X11134467Y-11595888D02*
X11124944Y-11557793D01*
X11124944Y-11557793D02*
X11124944Y-11510174D01*
X11124944Y-11510174D02*
X11134467Y-11472079D01*
X11134467Y-11472079D02*
X11143991Y-11453031D01*
X11143991Y-11453031D02*
X11153515Y-11443508D01*
X11153515Y-11443508D02*
X11172563Y-11433984D01*
X11363039Y-11433984D02*
X11382086Y-11433984D01*
X11382086Y-11433984D02*
X11401134Y-11443508D01*
X11401134Y-11443508D02*
X11410658Y-11453031D01*
X11410658Y-11453031D02*
X11420182Y-11472079D01*
X11420182Y-11472079D02*
X11429705Y-11510174D01*
X11429705Y-11510174D02*
X11429705Y-11557793D01*
X11429705Y-11557793D02*
X11420182Y-11595888D01*
X11420182Y-11595888D02*
X11410658Y-11614936D01*
X11410658Y-11614936D02*
X11401134Y-11624460D01*
X11401134Y-11624460D02*
X11382086Y-11633984D01*
X11382086Y-11633984D02*
X11363039Y-11633984D01*
X11363039Y-11633984D02*
X11343991Y-11624460D01*
X11343991Y-11624460D02*
X11334467Y-11614936D01*
X11334467Y-11614936D02*
X11324943Y-11595888D01*
X11324943Y-11595888D02*
X11315420Y-11557793D01*
X11315420Y-11557793D02*
X11315420Y-11510174D01*
X11315420Y-11510174D02*
X11324943Y-11472079D01*
X11324943Y-11472079D02*
X11334467Y-11453031D01*
X11334467Y-11453031D02*
X11343991Y-11443508D01*
X11343991Y-11443508D02*
X11363039Y-11433984D01*
X11515420Y-11633984D02*
X11515420Y-11500650D01*
X11515420Y-11519698D02*
X11524943Y-11510174D01*
X11524943Y-11510174D02*
X11543991Y-11500650D01*
X11543991Y-11500650D02*
X11572563Y-11500650D01*
X11572563Y-11500650D02*
X11591610Y-11510174D01*
X11591610Y-11510174D02*
X11601134Y-11529222D01*
X11601134Y-11529222D02*
X11601134Y-11633984D01*
X11601134Y-11529222D02*
X11610658Y-11510174D01*
X11610658Y-11510174D02*
X11629705Y-11500650D01*
X11629705Y-11500650D02*
X11658277Y-11500650D01*
X11658277Y-11500650D02*
X11677324Y-11510174D01*
X11677324Y-11510174D02*
X11686848Y-11529222D01*
X11686848Y-11529222D02*
X11686848Y-11633984D01*
X11782086Y-11633984D02*
X11782086Y-11500650D01*
X11782086Y-11519698D02*
X11791610Y-11510174D01*
X11791610Y-11510174D02*
X11810658Y-11500650D01*
X11810658Y-11500650D02*
X11839229Y-11500650D01*
X11839229Y-11500650D02*
X11858277Y-11510174D01*
X11858277Y-11510174D02*
X11867801Y-11529222D01*
X11867801Y-11529222D02*
X11867801Y-11633984D01*
X11867801Y-11529222D02*
X11877324Y-11510174D01*
X11877324Y-11510174D02*
X11896372Y-11500650D01*
X11896372Y-11500650D02*
X11924943Y-11500650D01*
X11924943Y-11500650D02*
X11943991Y-11510174D01*
X11943991Y-11510174D02*
X11953515Y-11529222D01*
X11953515Y-11529222D02*
X11953515Y-11633984D01*
X12343991Y-11424460D02*
X12172563Y-11681603D01*
X12601134Y-11433984D02*
X12620182Y-11433984D01*
X12620182Y-11433984D02*
X12639229Y-11443508D01*
X12639229Y-11443508D02*
X12648753Y-11453031D01*
X12648753Y-11453031D02*
X12658277Y-11472079D01*
X12658277Y-11472079D02*
X12667801Y-11510174D01*
X12667801Y-11510174D02*
X12667801Y-11557793D01*
X12667801Y-11557793D02*
X12658277Y-11595888D01*
X12658277Y-11595888D02*
X12648753Y-11614936D01*
X12648753Y-11614936D02*
X12639229Y-11624460D01*
X12639229Y-11624460D02*
X12620182Y-11633984D01*
X12620182Y-11633984D02*
X12601134Y-11633984D01*
X12601134Y-11633984D02*
X12582086Y-11624460D01*
X12582086Y-11624460D02*
X12572563Y-11614936D01*
X12572563Y-11614936D02*
X12563039Y-11595888D01*
X12563039Y-11595888D02*
X12553515Y-11557793D01*
X12553515Y-11557793D02*
X12553515Y-11510174D01*
X12553515Y-11510174D02*
X12563039Y-11472079D01*
X12563039Y-11472079D02*
X12572563Y-11453031D01*
X12572563Y-11453031D02*
X12582086Y-11443508D01*
X12582086Y-11443508D02*
X12601134Y-11433984D01*
X12753515Y-11614936D02*
X12763039Y-11624460D01*
X12763039Y-11624460D02*
X12753515Y-11633984D01*
X12753515Y-11633984D02*
X12743991Y-11624460D01*
X12743991Y-11624460D02*
X12753515Y-11614936D01*
X12753515Y-11614936D02*
X12753515Y-11633984D01*
X12886848Y-11433984D02*
X12905896Y-11433984D01*
X12905896Y-11433984D02*
X12924944Y-11443508D01*
X12924944Y-11443508D02*
X12934467Y-11453031D01*
X12934467Y-11453031D02*
X12943991Y-11472079D01*
X12943991Y-11472079D02*
X12953515Y-11510174D01*
X12953515Y-11510174D02*
X12953515Y-11557793D01*
X12953515Y-11557793D02*
X12943991Y-11595888D01*
X12943991Y-11595888D02*
X12934467Y-11614936D01*
X12934467Y-11614936D02*
X12924944Y-11624460D01*
X12924944Y-11624460D02*
X12905896Y-11633984D01*
X12905896Y-11633984D02*
X12886848Y-11633984D01*
X12886848Y-11633984D02*
X12867801Y-11624460D01*
X12867801Y-11624460D02*
X12858277Y-11614936D01*
X12858277Y-11614936D02*
X12848753Y-11595888D01*
X12848753Y-11595888D02*
X12839229Y-11557793D01*
X12839229Y-11557793D02*
X12839229Y-11510174D01*
X12839229Y-11510174D02*
X12848753Y-11472079D01*
X12848753Y-11472079D02*
X12858277Y-11453031D01*
X12858277Y-11453031D02*
X12867801Y-11443508D01*
X12867801Y-11443508D02*
X12886848Y-11433984D01*
X13020182Y-11433984D02*
X13153515Y-11433984D01*
X13153515Y-11433984D02*
X13067801Y-11633984D01*
X13258277Y-11519698D02*
X13239229Y-11510174D01*
X13239229Y-11510174D02*
X13229706Y-11500650D01*
X13229706Y-11500650D02*
X13220182Y-11481603D01*
X13220182Y-11481603D02*
X13220182Y-11472079D01*
X13220182Y-11472079D02*
X13229706Y-11453031D01*
X13229706Y-11453031D02*
X13239229Y-11443508D01*
X13239229Y-11443508D02*
X13258277Y-11433984D01*
X13258277Y-11433984D02*
X13296372Y-11433984D01*
X13296372Y-11433984D02*
X13315420Y-11443508D01*
X13315420Y-11443508D02*
X13324944Y-11453031D01*
X13324944Y-11453031D02*
X13334467Y-11472079D01*
X13334467Y-11472079D02*
X13334467Y-11481603D01*
X13334467Y-11481603D02*
X13324944Y-11500650D01*
X13324944Y-11500650D02*
X13315420Y-11510174D01*
X13315420Y-11510174D02*
X13296372Y-11519698D01*
X13296372Y-11519698D02*
X13258277Y-11519698D01*
X13258277Y-11519698D02*
X13239229Y-11529222D01*
X13239229Y-11529222D02*
X13229706Y-11538746D01*
X13229706Y-11538746D02*
X13220182Y-11557793D01*
X13220182Y-11557793D02*
X13220182Y-11595888D01*
X13220182Y-11595888D02*
X13229706Y-11614936D01*
X13229706Y-11614936D02*
X13239229Y-11624460D01*
X13239229Y-11624460D02*
X13258277Y-11633984D01*
X13258277Y-11633984D02*
X13296372Y-11633984D01*
X13296372Y-11633984D02*
X13315420Y-11624460D01*
X13315420Y-11624460D02*
X13324944Y-11614936D01*
X13324944Y-11614936D02*
X13334467Y-11595888D01*
X13334467Y-11595888D02*
X13334467Y-11557793D01*
X13334467Y-11557793D02*
X13324944Y-11538746D01*
X13324944Y-11538746D02*
X13315420Y-11529222D01*
X13315420Y-11529222D02*
X13296372Y-11519698D01*
X13401134Y-11433984D02*
X13534467Y-11433984D01*
X13534467Y-11433984D02*
X13448753Y-11633984D01*
X13601134Y-11433984D02*
X13601134Y-11472079D01*
X13677325Y-11433984D02*
X13677325Y-11472079D01*
X13972563Y-11710174D02*
X13963039Y-11700650D01*
X13963039Y-11700650D02*
X13943991Y-11672079D01*
X13943991Y-11672079D02*
X13934468Y-11653031D01*
X13934468Y-11653031D02*
X13924944Y-11624460D01*
X13924944Y-11624460D02*
X13915420Y-11576841D01*
X13915420Y-11576841D02*
X13915420Y-11538746D01*
X13915420Y-11538746D02*
X13924944Y-11491127D01*
X13924944Y-11491127D02*
X13934468Y-11462555D01*
X13934468Y-11462555D02*
X13943991Y-11443508D01*
X13943991Y-11443508D02*
X13963039Y-11414936D01*
X13963039Y-11414936D02*
X13972563Y-11405412D01*
X14039229Y-11453031D02*
X14048753Y-11443508D01*
X14048753Y-11443508D02*
X14067801Y-11433984D01*
X14067801Y-11433984D02*
X14115420Y-11433984D01*
X14115420Y-11433984D02*
X14134468Y-11443508D01*
X14134468Y-11443508D02*
X14143991Y-11453031D01*
X14143991Y-11453031D02*
X14153515Y-11472079D01*
X14153515Y-11472079D02*
X14153515Y-11491127D01*
X14153515Y-11491127D02*
X14143991Y-11519698D01*
X14143991Y-11519698D02*
X14029706Y-11633984D01*
X14029706Y-11633984D02*
X14153515Y-11633984D01*
X14391610Y-11633984D02*
X14391610Y-11433984D01*
X14477325Y-11633984D02*
X14477325Y-11529222D01*
X14477325Y-11529222D02*
X14467801Y-11510174D01*
X14467801Y-11510174D02*
X14448753Y-11500650D01*
X14448753Y-11500650D02*
X14420182Y-11500650D01*
X14420182Y-11500650D02*
X14401134Y-11510174D01*
X14401134Y-11510174D02*
X14391610Y-11519698D01*
X14601134Y-11633984D02*
X14582087Y-11624460D01*
X14582087Y-11624460D02*
X14572563Y-11614936D01*
X14572563Y-11614936D02*
X14563039Y-11595888D01*
X14563039Y-11595888D02*
X14563039Y-11538746D01*
X14563039Y-11538746D02*
X14572563Y-11519698D01*
X14572563Y-11519698D02*
X14582087Y-11510174D01*
X14582087Y-11510174D02*
X14601134Y-11500650D01*
X14601134Y-11500650D02*
X14629706Y-11500650D01*
X14629706Y-11500650D02*
X14648753Y-11510174D01*
X14648753Y-11510174D02*
X14658277Y-11519698D01*
X14658277Y-11519698D02*
X14667801Y-11538746D01*
X14667801Y-11538746D02*
X14667801Y-11595888D01*
X14667801Y-11595888D02*
X14658277Y-11614936D01*
X14658277Y-11614936D02*
X14648753Y-11624460D01*
X14648753Y-11624460D02*
X14629706Y-11633984D01*
X14629706Y-11633984D02*
X14601134Y-11633984D01*
X14782087Y-11633984D02*
X14763039Y-11624460D01*
X14763039Y-11624460D02*
X14753515Y-11605412D01*
X14753515Y-11605412D02*
X14753515Y-11433984D01*
X14934468Y-11624460D02*
X14915420Y-11633984D01*
X14915420Y-11633984D02*
X14877325Y-11633984D01*
X14877325Y-11633984D02*
X14858277Y-11624460D01*
X14858277Y-11624460D02*
X14848753Y-11605412D01*
X14848753Y-11605412D02*
X14848753Y-11529222D01*
X14848753Y-11529222D02*
X14858277Y-11510174D01*
X14858277Y-11510174D02*
X14877325Y-11500650D01*
X14877325Y-11500650D02*
X14915420Y-11500650D01*
X14915420Y-11500650D02*
X14934468Y-11510174D01*
X14934468Y-11510174D02*
X14943991Y-11529222D01*
X14943991Y-11529222D02*
X14943991Y-11548269D01*
X14943991Y-11548269D02*
X14848753Y-11567317D01*
X15020182Y-11624460D02*
X15039230Y-11633984D01*
X15039230Y-11633984D02*
X15077325Y-11633984D01*
X15077325Y-11633984D02*
X15096372Y-11624460D01*
X15096372Y-11624460D02*
X15105896Y-11605412D01*
X15105896Y-11605412D02*
X15105896Y-11595888D01*
X15105896Y-11595888D02*
X15096372Y-11576841D01*
X15096372Y-11576841D02*
X15077325Y-11567317D01*
X15077325Y-11567317D02*
X15048753Y-11567317D01*
X15048753Y-11567317D02*
X15029706Y-11557793D01*
X15029706Y-11557793D02*
X15020182Y-11538746D01*
X15020182Y-11538746D02*
X15020182Y-11529222D01*
X15020182Y-11529222D02*
X15029706Y-11510174D01*
X15029706Y-11510174D02*
X15048753Y-11500650D01*
X15048753Y-11500650D02*
X15077325Y-11500650D01*
X15077325Y-11500650D02*
X15096372Y-11510174D01*
X15172563Y-11710174D02*
X15182087Y-11700650D01*
X15182087Y-11700650D02*
X15201134Y-11672079D01*
X15201134Y-11672079D02*
X15210658Y-11653031D01*
X15210658Y-11653031D02*
X15220182Y-11624460D01*
X15220182Y-11624460D02*
X15229706Y-11576841D01*
X15229706Y-11576841D02*
X15229706Y-11538746D01*
X15229706Y-11538746D02*
X15220182Y-11491127D01*
X15220182Y-11491127D02*
X15210658Y-11462555D01*
X15210658Y-11462555D02*
X15201134Y-11443508D01*
X15201134Y-11443508D02*
X15182087Y-11414936D01*
X15182087Y-11414936D02*
X15172563Y-11405412D01*
X15534468Y-11710174D02*
X15524944Y-11700650D01*
X15524944Y-11700650D02*
X15505896Y-11672079D01*
X15505896Y-11672079D02*
X15496372Y-11653031D01*
X15496372Y-11653031D02*
X15486849Y-11624460D01*
X15486849Y-11624460D02*
X15477325Y-11576841D01*
X15477325Y-11576841D02*
X15477325Y-11538746D01*
X15477325Y-11538746D02*
X15486849Y-11491127D01*
X15486849Y-11491127D02*
X15496372Y-11462555D01*
X15496372Y-11462555D02*
X15505896Y-11443508D01*
X15505896Y-11443508D02*
X15524944Y-11414936D01*
X15524944Y-11414936D02*
X15534468Y-11405412D01*
X15610658Y-11500650D02*
X15610658Y-11633984D01*
X15610658Y-11519698D02*
X15620182Y-11510174D01*
X15620182Y-11510174D02*
X15639230Y-11500650D01*
X15639230Y-11500650D02*
X15667801Y-11500650D01*
X15667801Y-11500650D02*
X15686849Y-11510174D01*
X15686849Y-11510174D02*
X15696372Y-11529222D01*
X15696372Y-11529222D02*
X15696372Y-11633984D01*
X15820182Y-11633984D02*
X15801134Y-11624460D01*
X15801134Y-11624460D02*
X15791611Y-11614936D01*
X15791611Y-11614936D02*
X15782087Y-11595888D01*
X15782087Y-11595888D02*
X15782087Y-11538746D01*
X15782087Y-11538746D02*
X15791611Y-11519698D01*
X15791611Y-11519698D02*
X15801134Y-11510174D01*
X15801134Y-11510174D02*
X15820182Y-11500650D01*
X15820182Y-11500650D02*
X15848753Y-11500650D01*
X15848753Y-11500650D02*
X15867801Y-11510174D01*
X15867801Y-11510174D02*
X15877325Y-11519698D01*
X15877325Y-11519698D02*
X15886849Y-11538746D01*
X15886849Y-11538746D02*
X15886849Y-11595888D01*
X15886849Y-11595888D02*
X15877325Y-11614936D01*
X15877325Y-11614936D02*
X15867801Y-11624460D01*
X15867801Y-11624460D02*
X15848753Y-11633984D01*
X15848753Y-11633984D02*
X15820182Y-11633984D01*
X15943992Y-11500650D02*
X16020182Y-11500650D01*
X15972563Y-11433984D02*
X15972563Y-11605412D01*
X15972563Y-11605412D02*
X15982087Y-11624460D01*
X15982087Y-11624460D02*
X16001134Y-11633984D01*
X16001134Y-11633984D02*
X16020182Y-11633984D01*
X16239230Y-11500650D02*
X16239230Y-11700650D01*
X16239230Y-11510174D02*
X16258277Y-11500650D01*
X16258277Y-11500650D02*
X16296373Y-11500650D01*
X16296373Y-11500650D02*
X16315420Y-11510174D01*
X16315420Y-11510174D02*
X16324944Y-11519698D01*
X16324944Y-11519698D02*
X16334468Y-11538746D01*
X16334468Y-11538746D02*
X16334468Y-11595888D01*
X16334468Y-11595888D02*
X16324944Y-11614936D01*
X16324944Y-11614936D02*
X16315420Y-11624460D01*
X16315420Y-11624460D02*
X16296373Y-11633984D01*
X16296373Y-11633984D02*
X16258277Y-11633984D01*
X16258277Y-11633984D02*
X16239230Y-11624460D01*
X16448753Y-11633984D02*
X16429706Y-11624460D01*
X16429706Y-11624460D02*
X16420182Y-11605412D01*
X16420182Y-11605412D02*
X16420182Y-11433984D01*
X16610658Y-11633984D02*
X16610658Y-11529222D01*
X16610658Y-11529222D02*
X16601134Y-11510174D01*
X16601134Y-11510174D02*
X16582087Y-11500650D01*
X16582087Y-11500650D02*
X16543992Y-11500650D01*
X16543992Y-11500650D02*
X16524944Y-11510174D01*
X16610658Y-11624460D02*
X16591611Y-11633984D01*
X16591611Y-11633984D02*
X16543992Y-11633984D01*
X16543992Y-11633984D02*
X16524944Y-11624460D01*
X16524944Y-11624460D02*
X16515420Y-11605412D01*
X16515420Y-11605412D02*
X16515420Y-11586365D01*
X16515420Y-11586365D02*
X16524944Y-11567317D01*
X16524944Y-11567317D02*
X16543992Y-11557793D01*
X16543992Y-11557793D02*
X16591611Y-11557793D01*
X16591611Y-11557793D02*
X16610658Y-11548269D01*
X16677325Y-11500650D02*
X16753515Y-11500650D01*
X16705896Y-11433984D02*
X16705896Y-11605412D01*
X16705896Y-11605412D02*
X16715420Y-11624460D01*
X16715420Y-11624460D02*
X16734468Y-11633984D01*
X16734468Y-11633984D02*
X16753515Y-11633984D01*
X16896373Y-11624460D02*
X16877325Y-11633984D01*
X16877325Y-11633984D02*
X16839230Y-11633984D01*
X16839230Y-11633984D02*
X16820182Y-11624460D01*
X16820182Y-11624460D02*
X16810658Y-11605412D01*
X16810658Y-11605412D02*
X16810658Y-11529222D01*
X16810658Y-11529222D02*
X16820182Y-11510174D01*
X16820182Y-11510174D02*
X16839230Y-11500650D01*
X16839230Y-11500650D02*
X16877325Y-11500650D01*
X16877325Y-11500650D02*
X16896373Y-11510174D01*
X16896373Y-11510174D02*
X16905896Y-11529222D01*
X16905896Y-11529222D02*
X16905896Y-11548269D01*
X16905896Y-11548269D02*
X16810658Y-11567317D01*
X17077325Y-11633984D02*
X17077325Y-11433984D01*
X17077325Y-11624460D02*
X17058277Y-11633984D01*
X17058277Y-11633984D02*
X17020182Y-11633984D01*
X17020182Y-11633984D02*
X17001135Y-11624460D01*
X17001135Y-11624460D02*
X16991611Y-11614936D01*
X16991611Y-11614936D02*
X16982087Y-11595888D01*
X16982087Y-11595888D02*
X16982087Y-11538746D01*
X16982087Y-11538746D02*
X16991611Y-11519698D01*
X16991611Y-11519698D02*
X17001135Y-11510174D01*
X17001135Y-11510174D02*
X17020182Y-11500650D01*
X17020182Y-11500650D02*
X17058277Y-11500650D01*
X17058277Y-11500650D02*
X17077325Y-11510174D01*
X17153516Y-11710174D02*
X17163039Y-11700650D01*
X17163039Y-11700650D02*
X17182087Y-11672079D01*
X17182087Y-11672079D02*
X17191611Y-11653031D01*
X17191611Y-11653031D02*
X17201135Y-11624460D01*
X17201135Y-11624460D02*
X17210658Y-11576841D01*
X17210658Y-11576841D02*
X17210658Y-11538746D01*
X17210658Y-11538746D02*
X17201135Y-11491127D01*
X17201135Y-11491127D02*
X17191611Y-11462555D01*
X17191611Y-11462555D02*
X17182087Y-11443508D01*
X17182087Y-11443508D02*
X17163039Y-11414936D01*
X17163039Y-11414936D02*
X17153516Y-11405412D01*
M02*
