%TF.GenerationSoftware,KiCad,Pcbnew,8.0.4*%
%TF.CreationDate,2024-09-18T22:36:12+02:00*%
%TF.ProjectId,Displays_Strip,44697370-6c61-4797-935f-53747269702e,rev?*%
%TF.SameCoordinates,Original*%
%TF.FileFunction,Soldermask,Top*%
%TF.FilePolarity,Negative*%
%FSLAX46Y46*%
G04 Gerber Fmt 4.6, Leading zero omitted, Abs format (unit mm)*
G04 Created by KiCad (PCBNEW 8.0.4) date 2024-09-18 22:36:12*
%MOMM*%
%LPD*%
G01*
G04 APERTURE LIST*
G04 Aperture macros list*
%AMRoundRect*
0 Rectangle with rounded corners*
0 $1 Rounding radius*
0 $2 $3 $4 $5 $6 $7 $8 $9 X,Y pos of 4 corners*
0 Add a 4 corners polygon primitive as box body*
4,1,4,$2,$3,$4,$5,$6,$7,$8,$9,$2,$3,0*
0 Add four circle primitives for the rounded corners*
1,1,$1+$1,$2,$3*
1,1,$1+$1,$4,$5*
1,1,$1+$1,$6,$7*
1,1,$1+$1,$8,$9*
0 Add four rect primitives between the rounded corners*
20,1,$1+$1,$2,$3,$4,$5,0*
20,1,$1+$1,$4,$5,$6,$7,0*
20,1,$1+$1,$6,$7,$8,$9,0*
20,1,$1+$1,$8,$9,$2,$3,0*%
G04 Aperture macros list end*
%ADD10C,3.200000*%
%ADD11RoundRect,0.250000X0.450000X-0.262500X0.450000X0.262500X-0.450000X0.262500X-0.450000X-0.262500X0*%
%ADD12R,1.700000X1.700000*%
%ADD13O,1.700000X1.700000*%
%ADD14R,0.550000X1.500000*%
%ADD15R,1.500000X0.550000*%
%ADD16RoundRect,0.150000X0.150000X-0.825000X0.150000X0.825000X-0.150000X0.825000X-0.150000X-0.825000X0*%
%ADD17RoundRect,0.250000X-0.250000X-0.475000X0.250000X-0.475000X0.250000X0.475000X-0.250000X0.475000X0*%
%ADD18R,0.300000X1.300000*%
%ADD19R,1.800000X2.200000*%
%ADD20RoundRect,0.250000X-0.262500X-0.450000X0.262500X-0.450000X0.262500X0.450000X-0.262500X0.450000X0*%
%ADD21RoundRect,0.250000X0.262500X0.450000X-0.262500X0.450000X-0.262500X-0.450000X0.262500X-0.450000X0*%
%ADD22RoundRect,0.250000X0.475000X-0.250000X0.475000X0.250000X-0.475000X0.250000X-0.475000X-0.250000X0*%
%ADD23RoundRect,0.150000X-0.825000X-0.150000X0.825000X-0.150000X0.825000X0.150000X-0.825000X0.150000X0*%
%ADD24RoundRect,0.250000X0.250000X0.475000X-0.250000X0.475000X-0.250000X-0.475000X0.250000X-0.475000X0*%
%ADD25RoundRect,0.375000X0.625000X0.375000X-0.625000X0.375000X-0.625000X-0.375000X0.625000X-0.375000X0*%
%ADD26RoundRect,0.500000X0.500000X1.400000X-0.500000X1.400000X-0.500000X-1.400000X0.500000X-1.400000X0*%
%ADD27C,1.500000*%
%ADD28RoundRect,0.250000X-0.475000X0.250000X-0.475000X-0.250000X0.475000X-0.250000X0.475000X0.250000X0*%
%ADD29RoundRect,0.150000X-0.150000X0.825000X-0.150000X-0.825000X0.150000X-0.825000X0.150000X0.825000X0*%
G04 APERTURE END LIST*
D10*
%TO.C,H5*%
X194000000Y-145000000D03*
%TD*%
%TO.C,H4*%
X69000000Y-145000000D03*
%TD*%
%TO.C,H3*%
X119000000Y-125000000D03*
%TD*%
%TO.C,H2*%
X267000000Y-123000000D03*
%TD*%
%TO.C,H1*%
X44000000Y-125000000D03*
%TD*%
D11*
%TO.C,R1*%
X67000000Y-124162500D03*
X67000000Y-122337500D03*
%TD*%
D12*
%TO.C,J1*%
X153285000Y-123000000D03*
D13*
X150745000Y-123000000D03*
%TD*%
D14*
%TO.C,U1*%
X216500000Y-126300000D03*
X217300000Y-126300000D03*
X218100000Y-126300000D03*
X218900000Y-126300000D03*
X219700000Y-126300000D03*
X220500000Y-126300000D03*
X221300000Y-126300000D03*
X222100000Y-126300000D03*
X222900000Y-126300000D03*
X223700000Y-126300000D03*
X224500000Y-126300000D03*
D15*
X226200000Y-128000000D03*
X226200000Y-128800000D03*
X226200000Y-129600000D03*
X226200000Y-130400000D03*
X226200000Y-131200000D03*
X226200000Y-132000000D03*
X226200000Y-132800000D03*
X226200000Y-133600000D03*
X226200000Y-134400000D03*
X226200000Y-135200000D03*
X226200000Y-136000000D03*
D14*
X224500000Y-137700000D03*
X223700000Y-137700000D03*
X222900000Y-137700000D03*
X222100000Y-137700000D03*
X221300000Y-137700000D03*
X220500000Y-137700000D03*
X219700000Y-137700000D03*
X218900000Y-137700000D03*
X218100000Y-137700000D03*
X217300000Y-137700000D03*
X216500000Y-137700000D03*
D15*
X214800000Y-136000000D03*
X214800000Y-135200000D03*
X214800000Y-134400000D03*
X214800000Y-133600000D03*
X214800000Y-132800000D03*
X214800000Y-132000000D03*
X214800000Y-131200000D03*
X214800000Y-130400000D03*
X214800000Y-129600000D03*
X214800000Y-128800000D03*
X214800000Y-128000000D03*
%TD*%
D16*
%TO.C,U13*%
X166595000Y-135975000D03*
X167865000Y-135975000D03*
X169135000Y-135975000D03*
X170405000Y-135975000D03*
X170405000Y-131025000D03*
X169135000Y-131025000D03*
X167865000Y-131025000D03*
X166595000Y-131025000D03*
%TD*%
D17*
%TO.C,C3*%
X200450000Y-134250000D03*
X198550000Y-134250000D03*
%TD*%
D11*
%TO.C,R6*%
X181250000Y-127575000D03*
X181250000Y-125750000D03*
%TD*%
D16*
%TO.C,U12*%
X67095000Y-131725000D03*
X68365000Y-131725000D03*
X69635000Y-131725000D03*
X70905000Y-131725000D03*
X70905000Y-126775000D03*
X69635000Y-126775000D03*
X68365000Y-126775000D03*
X67095000Y-126775000D03*
%TD*%
D18*
%TO.C,U2*%
X35000000Y-143150000D03*
X34500000Y-143150000D03*
X34000000Y-143150000D03*
X33500000Y-143150000D03*
X33000000Y-143150000D03*
X32500000Y-143150000D03*
X32000000Y-143150000D03*
X31500000Y-143150000D03*
X31000000Y-143150000D03*
X30500000Y-143150000D03*
X30000000Y-143150000D03*
X29500000Y-143150000D03*
X29000000Y-143150000D03*
D19*
X27100000Y-146400000D03*
X36900000Y-146400000D03*
%TD*%
D20*
%TO.C,R5*%
X176675000Y-125750000D03*
X178500000Y-125750000D03*
%TD*%
D18*
%TO.C,U8*%
X185000000Y-143150000D03*
X184500000Y-143150000D03*
X184000000Y-143150000D03*
X183500000Y-143150000D03*
X183000000Y-143150000D03*
X182500000Y-143150000D03*
X182000000Y-143150000D03*
X181500000Y-143150000D03*
X181000000Y-143150000D03*
X180500000Y-143150000D03*
X180000000Y-143150000D03*
X179500000Y-143150000D03*
X179000000Y-143150000D03*
D19*
X177100000Y-146400000D03*
X186900000Y-146400000D03*
%TD*%
D17*
%TO.C,C10*%
X238950000Y-127000000D03*
X237050000Y-127000000D03*
%TD*%
D21*
%TO.C,R9*%
X205087500Y-126000000D03*
X206912500Y-126000000D03*
%TD*%
%TO.C,R4*%
X186500000Y-126000000D03*
X188325000Y-126000000D03*
%TD*%
%TO.C,R8*%
X256702500Y-126250000D03*
X254877500Y-126250000D03*
%TD*%
D22*
%TO.C,C11*%
X211500000Y-134200000D03*
X211500000Y-132300000D03*
%TD*%
D17*
%TO.C,C4*%
X218550000Y-124000000D03*
X220450000Y-124000000D03*
%TD*%
D23*
%TO.C,U14*%
X258025000Y-131845000D03*
X258025000Y-133115000D03*
X258025000Y-134385000D03*
X258025000Y-135655000D03*
X262975000Y-135655000D03*
X262975000Y-134385000D03*
X262975000Y-133115000D03*
X262975000Y-131845000D03*
%TD*%
D11*
%TO.C,R3*%
X263000000Y-129662500D03*
X263000000Y-127837500D03*
%TD*%
D18*
%TO.C,U3*%
X60000000Y-143150000D03*
X59500000Y-143150000D03*
X59000000Y-143150000D03*
X58500000Y-143150000D03*
X58000000Y-143150000D03*
X57500000Y-143150000D03*
X57000000Y-143150000D03*
X56500000Y-143150000D03*
X56000000Y-143150000D03*
X55500000Y-143150000D03*
X55000000Y-143150000D03*
X54500000Y-143150000D03*
X54000000Y-143150000D03*
D19*
X52100000Y-146400000D03*
X61900000Y-146400000D03*
%TD*%
D12*
%TO.C,J2*%
X258330000Y-123250000D03*
D13*
X255790000Y-123250000D03*
X253250000Y-123250000D03*
X250710000Y-123250000D03*
X248170000Y-123250000D03*
X245630000Y-123250000D03*
%TD*%
D18*
%TO.C,U9*%
X210000000Y-143150000D03*
X209500000Y-143150000D03*
X209000000Y-143150000D03*
X208500000Y-143150000D03*
X208000000Y-143150000D03*
X207500000Y-143150000D03*
X207000000Y-143150000D03*
X206500000Y-143150000D03*
X206000000Y-143150000D03*
X205500000Y-143150000D03*
X205000000Y-143150000D03*
X204500000Y-143150000D03*
X204000000Y-143150000D03*
D19*
X202100000Y-146400000D03*
X211900000Y-146400000D03*
%TD*%
D24*
%TO.C,C1*%
X152950000Y-126000000D03*
X151050000Y-126000000D03*
%TD*%
%TO.C,C5*%
X219050000Y-140000000D03*
X220950000Y-140000000D03*
%TD*%
D25*
%TO.C,U16*%
X163435000Y-127300000D03*
X163435000Y-125000000D03*
D26*
X157135000Y-125000000D03*
D25*
X163435000Y-122700000D03*
%TD*%
D24*
%TO.C,C6*%
X256740000Y-128250000D03*
X254840000Y-128250000D03*
%TD*%
D18*
%TO.C,U11*%
X260000000Y-143150000D03*
X259500000Y-143150000D03*
X259000000Y-143150000D03*
X258500000Y-143150000D03*
X258000000Y-143150000D03*
X257500000Y-143150000D03*
X257000000Y-143150000D03*
X256500000Y-143150000D03*
X256000000Y-143150000D03*
X255500000Y-143150000D03*
X255000000Y-143150000D03*
X254500000Y-143150000D03*
X254000000Y-143150000D03*
D19*
X252100000Y-146400000D03*
X261900000Y-146400000D03*
%TD*%
D17*
%TO.C,C9*%
X238950000Y-131000000D03*
X237050000Y-131000000D03*
%TD*%
%TO.C,C8*%
X226550000Y-124000000D03*
X228450000Y-124000000D03*
%TD*%
D18*
%TO.C,U5*%
X110000000Y-143150000D03*
X109500000Y-143150000D03*
X109000000Y-143150000D03*
X108500000Y-143150000D03*
X108000000Y-143150000D03*
X107500000Y-143150000D03*
X107000000Y-143150000D03*
X106500000Y-143150000D03*
X106000000Y-143150000D03*
X105500000Y-143150000D03*
X105000000Y-143150000D03*
X104500000Y-143150000D03*
X104000000Y-143150000D03*
D19*
X102100000Y-146400000D03*
X111900000Y-146400000D03*
%TD*%
D18*
%TO.C,U10*%
X235000000Y-143150000D03*
X234500000Y-143150000D03*
X234000000Y-143150000D03*
X233500000Y-143150000D03*
X233000000Y-143150000D03*
X232500000Y-143150000D03*
X232000000Y-143150000D03*
X231500000Y-143150000D03*
X231000000Y-143150000D03*
X230500000Y-143150000D03*
X230000000Y-143150000D03*
X229500000Y-143150000D03*
X229000000Y-143150000D03*
D19*
X227100000Y-146400000D03*
X236900000Y-146400000D03*
%TD*%
D18*
%TO.C,U7*%
X160000000Y-143150000D03*
X159500000Y-143150000D03*
X159000000Y-143150000D03*
X158500000Y-143150000D03*
X158000000Y-143150000D03*
X157500000Y-143150000D03*
X157000000Y-143150000D03*
X156500000Y-143150000D03*
X156000000Y-143150000D03*
X155500000Y-143150000D03*
X155000000Y-143150000D03*
X154500000Y-143150000D03*
X154000000Y-143150000D03*
D19*
X152100000Y-146400000D03*
X161900000Y-146400000D03*
%TD*%
D20*
%TO.C,R10*%
X202412500Y-126000000D03*
X200587500Y-126000000D03*
%TD*%
D17*
%TO.C,C2*%
X159335000Y-130000000D03*
X161235000Y-130000000D03*
%TD*%
D27*
%TO.C,Y1*%
X233000000Y-126570000D03*
X233000000Y-131450000D03*
%TD*%
D13*
%TO.C,J3*%
X207540000Y-123000000D03*
X205000000Y-123000000D03*
D12*
X202460000Y-123000000D03*
%TD*%
D18*
%TO.C,U4*%
X85000000Y-143150000D03*
X84500000Y-143150000D03*
X84000000Y-143150000D03*
X83500000Y-143150000D03*
X83000000Y-143150000D03*
X82500000Y-143150000D03*
X82000000Y-143150000D03*
X81500000Y-143150000D03*
X81000000Y-143150000D03*
X80500000Y-143150000D03*
X80000000Y-143150000D03*
X79500000Y-143150000D03*
X79000000Y-143150000D03*
D19*
X77100000Y-146400000D03*
X86900000Y-146400000D03*
%TD*%
D13*
%TO.C,J4*%
X188905000Y-123000000D03*
X186365000Y-123000000D03*
X183825000Y-123000000D03*
X181285000Y-123000000D03*
X178745000Y-123000000D03*
X176205000Y-123000000D03*
X173665000Y-123000000D03*
D12*
X171125000Y-123000000D03*
%TD*%
D18*
%TO.C,U6*%
X135000000Y-143150000D03*
X134500000Y-143150000D03*
X134000000Y-143150000D03*
X133500000Y-143150000D03*
X133000000Y-143150000D03*
X132500000Y-143150000D03*
X132000000Y-143150000D03*
X131500000Y-143150000D03*
X131000000Y-143150000D03*
X130500000Y-143150000D03*
X130000000Y-143150000D03*
X129500000Y-143150000D03*
X129000000Y-143150000D03*
D19*
X127100000Y-146400000D03*
X136900000Y-146400000D03*
%TD*%
D11*
%TO.C,R7*%
X258790000Y-128162500D03*
X258790000Y-126337500D03*
%TD*%
D28*
%TO.C,C7*%
X209500000Y-132300000D03*
X209500000Y-134200000D03*
%TD*%
D11*
%TO.C,R2*%
X166500000Y-128912500D03*
X166500000Y-127087500D03*
%TD*%
D22*
%TO.C,C12*%
X229000000Y-132450000D03*
X229000000Y-130550000D03*
%TD*%
D29*
%TO.C,U15*%
X195405000Y-134975000D03*
X194135000Y-134975000D03*
X192865000Y-134975000D03*
X191595000Y-134975000D03*
X191595000Y-130025000D03*
X192865000Y-130025000D03*
X194135000Y-130025000D03*
X195405000Y-130025000D03*
%TD*%
M02*
