M48
; DRILL file {KiCad 8.0.4} date 2024-09-19T20:08:31+0200
; FORMAT={-:-/ absolute / metric / decimal}
; #@! TF.CreationDate,2024-09-19T20:08:31+02:00
; #@! TF.GenerationSoftware,Kicad,Pcbnew,8.0.4
; #@! TF.FileFunction,Plated,1,2,PTH
FMAT,2
METRIC
; #@! TA.AperFunction,Plated,PTH,ViaDrill
T1C0.400
; #@! TA.AperFunction,Plated,PTH,ComponentDrill
T2C0.800
; #@! TA.AperFunction,Plated,PTH,ComponentDrill
T3C1.000
%
G90
G05
T1
X23.5Y-145.0
X25.5Y-124.0
X25.5Y-134.0
X27.5Y-143.0
X32.0Y-147.0
X33.5Y-127.5
X38.5Y-142.5
X42.0Y-133.5
X44.0Y-147.0
X49.25Y-144.0
X49.25Y-145.75
X52.5Y-143.0
X54.75Y-135.25
X54.75Y-141.0
X56.0Y-137.25
X56.0Y-141.0
X56.5Y-144.75
X56.75Y-147.25
X57.0Y-138.0
X57.0Y-141.0
X57.5Y-128.5
X58.0Y-139.0
X58.0Y-141.0
X64.0Y-123.0
X64.0Y-142.5
X68.0Y-135.0
X72.5Y-122.5
X73.0Y-126.0
X74.0Y-133.0
X74.25Y-144.0
X74.25Y-145.75
X75.0Y-128.5
X77.5Y-135.25
X77.5Y-143.0
X78.0Y-131.75
X80.0Y-141.25
X81.0Y-137.25
X81.0Y-141.25
X81.5Y-144.75
X81.75Y-147.25
X82.0Y-138.0
X82.0Y-141.0
X83.0Y-132.75
X83.0Y-139.0
X83.0Y-140.75
X86.0Y-136.0
X89.0Y-142.5
X92.0Y-133.5
X93.0Y-124.5
X94.0Y-147.0
X99.25Y-144.0
X99.25Y-145.75
X102.0Y-143.0
X104.75Y-136.75
X105.0Y-141.0
X106.0Y-136.75
X106.0Y-141.0
X106.5Y-144.75
X107.0Y-138.0
X107.0Y-141.0
X107.0Y-147.25
X108.0Y-139.0
X108.0Y-140.75
X115.0Y-143.0
X118.5Y-135.0
X119.0Y-147.0
X124.25Y-144.0
X124.25Y-145.75
X127.5Y-143.0
X129.75Y-137.0
X130.0Y-141.25
X131.0Y-135.5
X131.0Y-141.25
X131.5Y-125.0
X131.5Y-144.75
X132.0Y-138.0
X132.0Y-141.25
X132.0Y-147.25
X133.0Y-139.0
X133.0Y-140.75
X140.0Y-142.5
X141.0Y-135.0
X143.5Y-122.5
X144.0Y-147.0
X146.5Y-129.0
X147.75Y-130.0
X148.0Y-123.0
X149.25Y-144.0
X149.25Y-145.75
X149.5Y-131.0
X151.0Y-132.0
X152.0Y-133.0
X152.5Y-143.0
X154.5Y-134.75
X154.75Y-141.0
X155.75Y-136.75
X155.75Y-141.0
X156.5Y-144.75
X156.5Y-147.25
X157.0Y-134.75
X157.0Y-136.0
X157.0Y-138.0
X157.0Y-141.0
X158.0Y-139.0
X158.0Y-141.0
X161.0Y-127.0
X162.0Y-136.0
X164.5Y-142.5
X165.0Y-133.75
X167.0Y-125.0
X169.0Y-147.0
X169.25Y-137.75
X170.5Y-129.0
X170.5Y-137.75
X174.25Y-144.0
X174.25Y-145.75
X177.0Y-136.0
X177.5Y-143.0
X178.25Y-141.25
X180.5Y-141.25
X181.5Y-138.5
X181.5Y-144.75
X182.0Y-141.25
X182.0Y-147.25
X182.5Y-128.5
X182.5Y-139.5
X183.0Y-141.25
X185.25Y-141.25
X188.25Y-134.0
X188.5Y-131.5
X189.5Y-143.0
X194.0Y-133.25
X197.0Y-124.0
X197.0Y-130.0
X197.0Y-133.5
X199.25Y-144.0
X199.25Y-145.75
X199.75Y-130.5
X202.0Y-134.0
X202.5Y-143.0
X204.5Y-131.2
X206.0Y-141.5
X206.5Y-138.5
X206.5Y-144.75
X207.0Y-147.25
X207.01Y-141.25
X207.5Y-134.0
X207.5Y-139.5
X208.01Y-141.25
X209.75Y-141.75
X211.0Y-137.75
X212.5Y-124.5
X214.5Y-138.5
X215.5Y-139.5
X215.5Y-142.0
X217.0Y-132.0
X217.25Y-129.5
X219.0Y-128.75
X219.0Y-135.2
X219.0Y-142.0
X219.0Y-147.0
X220.5Y-129.0
X220.5Y-136.25
X220.75Y-134.25
X221.25Y-128.0
X221.5Y-136.0
X222.0Y-124.5
X222.5Y-140.0
X223.0Y-123.75
X223.25Y-128.25
X223.5Y-139.25
X223.75Y-123.0
X224.0Y-131.0
X224.191Y-128.588
X224.25Y-145.75
X224.5Y-122.25
X224.5Y-134.5
X224.5Y-142.0
X226.0Y-137.75
X226.0Y-142.0
X227.057Y-144.2
X228.0Y-143.0
X228.5Y-126.5
X230.0Y-141.5
X230.5Y-131.0
X230.5Y-137.5
X231.0Y-141.5
X231.5Y-144.75
X231.5Y-147.25
X231.75Y-137.5
X232.0Y-139.25
X232.25Y-141.5
X233.0Y-140.0
X233.25Y-141.5
X239.0Y-129.0
X240.0Y-143.0
X241.75Y-136.05
X242.0Y-124.0
X245.0Y-147.0
X246.0Y-131.0
X246.75Y-126.0
X249.25Y-144.0
X249.25Y-145.75
X249.75Y-137.5
X251.0Y-135.75
X252.5Y-143.0
X253.0Y-125.5
X253.0Y-128.0
X253.5Y-135.75
X254.25Y-140.75
X254.75Y-136.75
X255.5Y-140.5
X255.75Y-141.74
X256.25Y-138.25
X257.0Y-140.625
X257.0Y-147.0
X257.75Y-139.0
X258.089Y-141.5
X263.0Y-126.0
X263.0Y-137.5
X266.0Y-130.0
X266.0Y-145.5
T2
X233.0Y-126.57
X233.0Y-131.45
T3
X150.745Y-123.0
X153.285Y-123.0
X171.125Y-123.0
X173.665Y-123.0
X176.205Y-123.0
X178.745Y-123.0
X181.285Y-123.0
X183.825Y-123.0
X186.365Y-123.0
X188.905Y-123.0
X202.46Y-123.0
X205.0Y-123.0
X207.54Y-123.0
X245.63Y-123.25
X248.17Y-123.25
X250.71Y-123.25
X253.25Y-123.25
X255.79Y-123.25
X258.33Y-123.25
M30
