%TF.GenerationSoftware,KiCad,Pcbnew,8.0.4*%
%TF.CreationDate,2024-09-18T22:36:12+02:00*%
%TF.ProjectId,Displays_Strip,44697370-6c61-4797-935f-53747269702e,rev?*%
%TF.SameCoordinates,Original*%
%TF.FileFunction,Copper,L2,Bot*%
%TF.FilePolarity,Positive*%
%FSLAX46Y46*%
G04 Gerber Fmt 4.6, Leading zero omitted, Abs format (unit mm)*
G04 Created by KiCad (PCBNEW 8.0.4) date 2024-09-18 22:36:12*
%MOMM*%
%LPD*%
G01*
G04 APERTURE LIST*
%TA.AperFunction,ComponentPad*%
%ADD10R,1.700000X1.700000*%
%TD*%
%TA.AperFunction,ComponentPad*%
%ADD11O,1.700000X1.700000*%
%TD*%
%TA.AperFunction,ComponentPad*%
%ADD12C,1.500000*%
%TD*%
%TA.AperFunction,ViaPad*%
%ADD13C,0.800000*%
%TD*%
%TA.AperFunction,Conductor*%
%ADD14C,0.200000*%
%TD*%
%TA.AperFunction,Conductor*%
%ADD15C,0.800000*%
%TD*%
%TA.AperFunction,Conductor*%
%ADD16C,0.300000*%
%TD*%
%TA.AperFunction,Conductor*%
%ADD17C,0.500000*%
%TD*%
G04 APERTURE END LIST*
D10*
%TO.P,J1,1,Pin_1*%
%TO.N,+12V*%
X153285000Y-123000000D03*
D11*
%TO.P,J1,2,Pin_2*%
%TO.N,GND*%
X150745000Y-123000000D03*
%TD*%
D10*
%TO.P,J2,1,Pin_1*%
%TO.N,Net-(J2-Pin_1)*%
X258330000Y-123250000D03*
D11*
%TO.P,J2,2,Pin_2*%
%TO.N,+3.3V*%
X255790000Y-123250000D03*
%TO.P,J2,3,Pin_3*%
%TO.N,GND*%
X253250000Y-123250000D03*
%TO.P,J2,4,Pin_4*%
%TO.N,/PGED*%
X250710000Y-123250000D03*
%TO.P,J2,5,Pin_5*%
%TO.N,/PGEC*%
X248170000Y-123250000D03*
%TO.P,J2,6,Pin_6*%
%TO.N,unconnected-(J2-Pin_6-Pad6)*%
X245630000Y-123250000D03*
%TD*%
D12*
%TO.P,Y1,2,2*%
%TO.N,Net-(U1-RA3)*%
X233000000Y-126570000D03*
%TO.P,Y1,1,1*%
%TO.N,Net-(U1-RA2)*%
X233000000Y-131450000D03*
%TD*%
D11*
%TO.P,J3,3,Pin_3*%
%TO.N,GND*%
X207540000Y-123000000D03*
%TO.P,J3,2,Pin_2*%
%TO.N,/SCL1*%
X205000000Y-123000000D03*
D10*
%TO.P,J3,1,Pin_1*%
%TO.N,/SDA1*%
X202460000Y-123000000D03*
%TD*%
D11*
%TO.P,J4,8,Pin_8*%
%TO.N,GND*%
X188905000Y-123000000D03*
%TO.P,J4,7,Pin_7*%
%TO.N,/nCS_MEM*%
X186365000Y-123000000D03*
%TO.P,J4,6,Pin_6*%
%TO.N,/MISO_MEM*%
X183825000Y-123000000D03*
%TO.P,J4,5,Pin_5*%
%TO.N,/nW_MEM*%
X181285000Y-123000000D03*
%TO.P,J4,4,Pin_4*%
%TO.N,/nHOLD_MEM*%
X178745000Y-123000000D03*
%TO.P,J4,3,Pin_3*%
%TO.N,+3.3V*%
X176205000Y-123000000D03*
%TO.P,J4,2,Pin_2*%
%TO.N,/MOSI_MEM*%
X173665000Y-123000000D03*
D10*
%TO.P,J4,1,Pin_1*%
%TO.N,/CLK_MEM*%
X171125000Y-123000000D03*
%TD*%
D13*
%TO.N,GND*%
X75000000Y-128500000D03*
X56500000Y-144750000D03*
X81500000Y-144750000D03*
X106500000Y-144750000D03*
X231500000Y-147250000D03*
X207000000Y-147250000D03*
X131500000Y-144750000D03*
X156500000Y-144750000D03*
X181500000Y-144750000D03*
X206500000Y-144750000D03*
X231500000Y-144750000D03*
X253000000Y-125500000D03*
X202000000Y-134000000D03*
X27500000Y-143000000D03*
X52500000Y-143000000D03*
X77500000Y-143000000D03*
X102000000Y-143000000D03*
X127500000Y-143000000D03*
X152500000Y-143000000D03*
X177500000Y-143000000D03*
X202500000Y-143000000D03*
X252500000Y-143000000D03*
X255749999Y-141739949D03*
X228000000Y-143000000D03*
X215500000Y-142000000D03*
X162000000Y-136000000D03*
X74000000Y-133000000D03*
X68000000Y-135000000D03*
X257000000Y-147000000D03*
X245000000Y-147000000D03*
X219000000Y-147000000D03*
X182000000Y-147250000D03*
X169000000Y-147000000D03*
X156500000Y-147250000D03*
X144000000Y-147000000D03*
X132000000Y-147250000D03*
X119000000Y-147000000D03*
X107000000Y-147250000D03*
X94000000Y-147000000D03*
X81750000Y-147250000D03*
X56750000Y-147250000D03*
X44000000Y-147000000D03*
X32000000Y-147000000D03*
X42000000Y-133500000D03*
X86000000Y-136000000D03*
X92000000Y-133500000D03*
X141000000Y-135000000D03*
X177000000Y-136000000D03*
X240000000Y-143000000D03*
X266000000Y-145500000D03*
X266000000Y-130000000D03*
X246000000Y-131000000D03*
X25500000Y-124000000D03*
X33500000Y-127500000D03*
X25500000Y-134000000D03*
X57500000Y-128500000D03*
X143500000Y-122500000D03*
X72500000Y-122500000D03*
X131500000Y-125000000D03*
X93000000Y-124500000D03*
X23500000Y-145000000D03*
X38500000Y-142500000D03*
X64000000Y-142500000D03*
X89000000Y-142500000D03*
X115000000Y-143000000D03*
X118500000Y-135000000D03*
X140000000Y-142500000D03*
X164500000Y-142500000D03*
X189500000Y-143000000D03*
X212500000Y-124500000D03*
X207500000Y-134000000D03*
X188500000Y-131500000D03*
X197000000Y-124000000D03*
X219000000Y-142000000D03*
X224000000Y-131000000D03*
X217000000Y-132000000D03*
X220500000Y-129000000D03*
X230500000Y-131000000D03*
X263000000Y-137500000D03*
X253000000Y-128000000D03*
X263000000Y-126000000D03*
X239000000Y-129000000D03*
X228500000Y-126500000D03*
X182500000Y-128500000D03*
X170500000Y-129000000D03*
X167000000Y-125000000D03*
X161000000Y-127000000D03*
X148000000Y-123000000D03*
X73000000Y-126000000D03*
X64000000Y-123000000D03*
%TO.N,+3.3V*%
X249250000Y-145750000D03*
X249250000Y-144000000D03*
X224250000Y-145750000D03*
X227057471Y-144200000D03*
X199250000Y-145750000D03*
X199250000Y-144000000D03*
X174250000Y-145750000D03*
X174250000Y-144000000D03*
X149250000Y-145750000D03*
X149250000Y-144000000D03*
X124250000Y-145750000D03*
X124250000Y-144000000D03*
X99250000Y-145750000D03*
X99250000Y-144000000D03*
X74250000Y-145750000D03*
X74250000Y-144000000D03*
X49250000Y-145750000D03*
X49250000Y-144000000D03*
X220750000Y-134250000D03*
X220500000Y-136250000D03*
%TO.N,/LCDs/Backlight_3*%
X83000000Y-132750000D03*
X104750000Y-136750000D03*
X78000000Y-131750000D03*
X105000000Y-141000000D03*
%TO.N,/LCDs/Backlight_2*%
X80000000Y-141250000D03*
%TO.N,/LCDs/Backlight_1*%
X54750000Y-135250000D03*
%TO.N,/nCS_1*%
X56000000Y-137250000D03*
%TO.N,/nCS_2*%
X81000000Y-137250000D03*
%TO.N,/nCS_3*%
X106000000Y-136750000D03*
%TO.N,/nCS_4*%
X131000000Y-135500000D03*
%TO.N,/nCS_0*%
X146500000Y-129000000D03*
%TO.N,/nCS_1*%
X147750000Y-130000000D03*
%TO.N,/nCS_2*%
X149500000Y-131000000D03*
%TO.N,/nCS_3*%
X151000000Y-132000000D03*
%TO.N,/nCS_4*%
X152000000Y-133000000D03*
%TO.N,/LCDs/Backlight_2*%
X77500000Y-135250000D03*
%TO.N,/LCDs/Backlight_1*%
X54750000Y-141000000D03*
%TO.N,/LCDs/Backlight_4*%
X130000000Y-141250000D03*
X129750000Y-137000000D03*
X154500000Y-134750000D03*
%TO.N,/LCDs/Backlight_5*%
X154750000Y-141000000D03*
%TO.N,/nCS_5*%
X155750000Y-136750000D03*
X165000000Y-133750000D03*
%TO.N,/LCDs/Backlight_7*%
X185250000Y-141250000D03*
%TO.N,/LCDs/Backlight_6*%
X178250000Y-141250000D03*
%TO.N,/LCDs/Backlight_7*%
X170500000Y-137750000D03*
%TO.N,/LCDs/Backlight_6*%
X169250000Y-137750000D03*
%TO.N,/LCDs/Backlight_5*%
X157000000Y-136000000D03*
%TO.N,/LCDs/Backlight_4*%
X157000000Y-134750000D03*
%TO.N,/LCDs/Backlight_8*%
X249750000Y-137500000D03*
X230000000Y-141500000D03*
X231750000Y-137500000D03*
X251000000Y-135750000D03*
%TO.N,/LCDs/Backlight_9*%
X254250000Y-140750000D03*
X253500000Y-135750000D03*
%TO.N,/PGEC*%
X224191116Y-128588093D03*
X246750000Y-126000000D03*
%TO.N,/PGED*%
X242000000Y-124000000D03*
X223250000Y-128250000D03*
%TO.N,/SDA_LCD*%
X226000000Y-142000000D03*
X226000000Y-137750000D03*
%TO.N,Net-(J2-Pin_1)*%
X221500000Y-136000000D03*
X241750000Y-136050000D03*
%TO.N,/nCS_1*%
X56000000Y-141000000D03*
%TO.N,/nCS_2*%
X81000000Y-141250000D03*
%TO.N,/nCS_3*%
X106000000Y-141000000D03*
%TO.N,/nCS_4*%
X131000000Y-141250000D03*
%TO.N,/nCS_5*%
X155750000Y-141000000D03*
%TO.N,/nCS_6*%
X180500000Y-141250000D03*
X217250000Y-129500000D03*
%TO.N,/nCS_5*%
X219000000Y-128750000D03*
%TO.N,/nCS_4*%
X221250000Y-128000000D03*
%TO.N,/nCS_3*%
X222000000Y-124500000D03*
%TO.N,/nCS_2*%
X223000000Y-123750000D03*
%TO.N,/nCS_1*%
X223750000Y-123000000D03*
%TO.N,/nCS_0*%
X224500000Y-122250000D03*
%TO.N,/nCS_7*%
X206000000Y-141500000D03*
X209750000Y-141750000D03*
X224500000Y-134500000D03*
X224500000Y-142000000D03*
%TO.N,/nCS_8*%
X230500000Y-137500000D03*
X231000000Y-141500000D03*
%TO.N,/nCS_9*%
X255500000Y-140500000D03*
X254750000Y-136750000D03*
%TO.N,/nRESET_LCD*%
X232249997Y-141500000D03*
%TO.N,/D{slash}C_LCD*%
X233250000Y-141500000D03*
%TO.N,/nRESET_LCD*%
X232000000Y-139250000D03*
%TO.N,/D{slash}C_LCD*%
X233000000Y-140000000D03*
%TO.N,/PWM_LCD*%
X219000000Y-135200000D03*
X211000000Y-137750000D03*
%TO.N,/nRESET_LCD*%
X257000000Y-140625000D03*
X256250000Y-138250000D03*
%TO.N,/D{slash}C_LCD*%
X258089340Y-141500000D03*
X257750000Y-139000000D03*
%TO.N,/nRESET_LCD*%
X223500000Y-139250000D03*
%TO.N,/D{slash}C_LCD*%
X222500000Y-140000000D03*
%TO.N,/nRESET_LCD*%
X214500000Y-138500000D03*
%TO.N,/D{slash}C_LCD*%
X215500000Y-139500000D03*
%TO.N,/nRESET_LCD*%
X207010048Y-141250000D03*
%TO.N,/D{slash}C_LCD*%
X208010051Y-141250000D03*
%TO.N,/nRESET_LCD*%
X182000000Y-141250000D03*
%TO.N,/D{slash}C_LCD*%
X183000000Y-141250000D03*
%TO.N,/nRESET_LCD*%
X157000000Y-141000000D03*
%TO.N,/D{slash}C_LCD*%
X158000000Y-141000000D03*
%TO.N,/nRESET_LCD*%
X132000000Y-141250000D03*
%TO.N,/D{slash}C_LCD*%
X133000000Y-140750000D03*
%TO.N,/nRESET_LCD*%
X107000000Y-141000000D03*
%TO.N,/D{slash}C_LCD*%
X108000000Y-140750000D03*
%TO.N,/nRESET_LCD*%
X82000000Y-141000000D03*
%TO.N,/D{slash}C_LCD*%
X83000000Y-140750000D03*
%TO.N,/nRESET_LCD*%
X57000000Y-141000000D03*
X206500000Y-138500000D03*
%TO.N,/D{slash}C_LCD*%
X207500000Y-139500000D03*
%TO.N,/nRESET_LCD*%
X181500000Y-138500000D03*
%TO.N,/D{slash}C_LCD*%
X182500000Y-139500000D03*
%TO.N,/nRESET_LCD*%
X157000000Y-138000000D03*
%TO.N,/D{slash}C_LCD*%
X158000000Y-139000000D03*
X133000000Y-139000000D03*
%TO.N,/nRESET_LCD*%
X132000000Y-138000000D03*
%TO.N,/D{slash}C_LCD*%
X108000000Y-139000000D03*
%TO.N,/nRESET_LCD*%
X107000000Y-138000000D03*
X82000000Y-138000000D03*
%TO.N,/D{slash}C_LCD*%
X83000000Y-139000000D03*
%TO.N,/nRESET_LCD*%
X57000000Y-138000000D03*
%TO.N,/D{slash}C_LCD*%
X58000000Y-139000000D03*
X58000000Y-141000000D03*
%TO.N,/nHOLD_MEM*%
X188250000Y-134000000D03*
X194000000Y-133250000D03*
%TO.N,+3.3V*%
X197000000Y-130000000D03*
X197000000Y-133500000D03*
%TO.N,/nCS_MEM*%
X204500000Y-131200000D03*
X199750000Y-130500000D03*
%TD*%
D14*
%TO.N,/nCS_5*%
X165000000Y-133750000D02*
X184657843Y-133750000D01*
X216610050Y-129150000D02*
X217010050Y-128750000D01*
X184657843Y-133750000D02*
X189257843Y-129150000D01*
X189257843Y-129150000D02*
X216610050Y-129150000D01*
X217010050Y-128750000D02*
X219000000Y-128750000D01*
D15*
%TO.N,+3.3V*%
X197000000Y-133500000D02*
X197000000Y-130000000D01*
D16*
%TO.N,/nCS_MEM*%
X199750000Y-130500000D02*
X201500000Y-130500000D01*
X201500000Y-130500000D02*
X202200000Y-131200000D01*
X202200000Y-131200000D02*
X204500000Y-131200000D01*
%TO.N,+3.3V*%
X227057471Y-144200000D02*
X225507471Y-145750000D01*
X225507471Y-145750000D02*
X224250000Y-145750000D01*
D14*
%TO.N,/PWM_LCD*%
X211000000Y-137750000D02*
X212250000Y-137750000D01*
X212250000Y-137750000D02*
X214800000Y-135200000D01*
X214800000Y-135200000D02*
X219000000Y-135200000D01*
D16*
%TO.N,/LCDs/Backlight_6*%
X169250000Y-137750000D02*
X170000000Y-138500000D01*
X170000000Y-138500000D02*
X175500000Y-138500000D01*
X175500000Y-138500000D02*
X178250000Y-141250000D01*
%TO.N,+3.3V*%
X249250000Y-144000000D02*
X249250000Y-145750000D01*
X199250000Y-144000000D02*
X199250000Y-145750000D01*
X174250000Y-144000000D02*
X174250000Y-145750000D01*
X149250000Y-144000000D02*
X149250000Y-145750000D01*
X124250000Y-144000000D02*
X124250000Y-145750000D01*
X99250000Y-144000000D02*
X99250000Y-145750000D01*
X74250000Y-144000000D02*
X74250000Y-145750000D01*
X49250000Y-144000000D02*
X49250000Y-145750000D01*
D17*
X220500000Y-134500000D02*
X220750000Y-134250000D01*
X220500000Y-136250000D02*
X220500000Y-134500000D01*
D16*
%TO.N,/LCDs/Backlight_3*%
X83000000Y-132750000D02*
X82000000Y-131750000D01*
X82000000Y-131750000D02*
X78000000Y-131750000D01*
D14*
%TO.N,/nCS_2*%
X149500000Y-131000000D02*
X152000000Y-131000000D01*
X152000000Y-131000000D02*
X152500000Y-131500000D01*
X152500000Y-131500000D02*
X183750000Y-131500000D01*
X183750000Y-131500000D02*
X187350000Y-127900000D01*
X187350000Y-127900000D02*
X215350000Y-127900000D01*
X215350000Y-127900000D02*
X219500000Y-123750000D01*
X219500000Y-123750000D02*
X223000000Y-123750000D01*
%TO.N,/nCS_1*%
X147750000Y-130000000D02*
X152375000Y-130000000D01*
X152375000Y-130000000D02*
X153375000Y-131000000D01*
X153375000Y-131000000D02*
X183250000Y-131000000D01*
X219350000Y-123000000D02*
X223750000Y-123000000D01*
X183250000Y-131000000D02*
X186750000Y-127500000D01*
X186750000Y-127500000D02*
X214850000Y-127500000D01*
X214850000Y-127500000D02*
X219350000Y-123000000D01*
%TO.N,/nCS_0*%
X146500000Y-129000000D02*
X146750000Y-129250000D01*
X154000000Y-130250000D02*
X183000000Y-130250000D01*
X146750000Y-129250000D02*
X153000000Y-129250000D01*
X214400000Y-127100000D02*
X219250000Y-122250000D01*
X153000000Y-129250000D02*
X154000000Y-130250000D01*
X183000000Y-130250000D02*
X186150000Y-127100000D01*
X219250000Y-122250000D02*
X224500000Y-122250000D01*
X186150000Y-127100000D02*
X214400000Y-127100000D01*
%TO.N,/nCS_3*%
X151000000Y-132000000D02*
X151250000Y-132250000D01*
X151250000Y-132250000D02*
X184000000Y-132250000D01*
X184000000Y-132250000D02*
X187950000Y-128300000D01*
X187950000Y-128300000D02*
X215700000Y-128300000D01*
X215700000Y-128300000D02*
X219500000Y-124500000D01*
X219500000Y-124500000D02*
X222000000Y-124500000D01*
%TO.N,/nCS_4*%
X189500000Y-128750000D02*
X188500000Y-128750000D01*
X188500000Y-128750000D02*
X184250000Y-133000000D01*
X184250000Y-133000000D02*
X152000000Y-133000000D01*
X216000000Y-128750000D02*
X189500000Y-128750000D01*
D16*
%TO.N,/LCDs/Backlight_3*%
X104750000Y-136750000D02*
X104750000Y-140750000D01*
X104750000Y-140750000D02*
X105000000Y-141000000D01*
%TO.N,/LCDs/Backlight_2*%
X77500000Y-138750000D02*
X80000000Y-141250000D01*
X77500000Y-135250000D02*
X77500000Y-138750000D01*
%TO.N,/LCDs/Backlight_1*%
X54750000Y-135250000D02*
X54750000Y-141000000D01*
D14*
%TO.N,/nCS_3*%
X106000000Y-136750000D02*
X106000000Y-141000000D01*
%TO.N,/nCS_4*%
X131000000Y-135500000D02*
X131000000Y-141250000D01*
%TO.N,/LCDs/Backlight_4*%
X129750000Y-141000000D02*
X130000000Y-141250000D01*
X129750000Y-137000000D02*
X129750000Y-141000000D01*
X157000000Y-134750000D02*
X154500000Y-134750000D01*
%TO.N,/LCDs/Backlight_5*%
X154750000Y-136760050D02*
X154750000Y-141000000D01*
X155510050Y-136000000D02*
X154750000Y-136760050D01*
X157000000Y-136000000D02*
X155510050Y-136000000D01*
%TO.N,/nCS_5*%
X155750000Y-136750000D02*
X155750000Y-141000000D01*
D16*
%TO.N,/LCDs/Backlight_7*%
X184500000Y-142000000D02*
X185250000Y-141250000D01*
X180189339Y-142000000D02*
X184500000Y-142000000D01*
X175939339Y-137750000D02*
X180189339Y-142000000D01*
X170500000Y-137750000D02*
X175939339Y-137750000D01*
D14*
%TO.N,/nCS_4*%
X221250000Y-128000000D02*
X216750000Y-128000000D01*
X216750000Y-128000000D02*
X216000000Y-128750000D01*
%TO.N,/nCS_2*%
X81000000Y-137500000D02*
X81000000Y-141250000D01*
%TO.N,/nCS_1*%
X56000000Y-137250000D02*
X56000000Y-141000000D01*
D16*
%TO.N,/LCDs/Backlight_8*%
X230000000Y-140750000D02*
X229750000Y-140500000D01*
X230189339Y-136750000D02*
X231000000Y-136750000D01*
X231000000Y-136750000D02*
X231750000Y-137500000D01*
X230000000Y-141500000D02*
X230000000Y-140750000D01*
X229750000Y-137189339D02*
X230189339Y-136750000D01*
X249750000Y-137000000D02*
X251000000Y-135750000D01*
X249750000Y-137500000D02*
X249750000Y-137000000D01*
X229750000Y-140500000D02*
X229750000Y-137189339D01*
%TO.N,/LCDs/Backlight_9*%
X253500000Y-140000000D02*
X254250000Y-140750000D01*
X253500000Y-135750000D02*
X253500000Y-140000000D01*
%TO.N,/PGEC*%
X246750000Y-126000000D02*
X242939339Y-126000000D01*
X242939339Y-126000000D02*
X239189339Y-122250000D01*
X239189339Y-122250000D02*
X230529209Y-122250000D01*
X230529209Y-122250000D02*
X224191116Y-128588093D01*
%TO.N,/PGED*%
X239500000Y-121750000D02*
X229750000Y-121750000D01*
X242000000Y-124000000D02*
X241750000Y-124000000D01*
X241750000Y-124000000D02*
X239500000Y-121750000D01*
X229750000Y-121750000D02*
X223250000Y-128250000D01*
%TO.N,/SDA_LCD*%
X226000000Y-137750000D02*
X226000000Y-142000000D01*
D14*
%TO.N,Net-(J2-Pin_1)*%
X221500000Y-136000000D02*
X223700000Y-133800000D01*
X228750000Y-136250000D02*
X241750000Y-136250000D01*
X223700000Y-133800000D02*
X226300000Y-133800000D01*
X226300000Y-133800000D02*
X228750000Y-136250000D01*
X241750000Y-136250000D02*
X241750000Y-136050000D01*
%TO.N,/nRESET_LCD*%
X157000000Y-138000000D02*
X157000000Y-141000000D01*
%TO.N,/D{slash}C_LCD*%
X158000000Y-139000000D02*
X158000000Y-141000000D01*
%TO.N,/nCS_6*%
X217250000Y-129500000D02*
X209000000Y-137750000D01*
X209000000Y-137750000D02*
X181000000Y-137750000D01*
X181000000Y-137750000D02*
X180500000Y-138250000D01*
X180500000Y-138250000D02*
X180500000Y-141250000D01*
%TO.N,/nCS_7*%
X206450000Y-141950000D02*
X206000000Y-141500000D01*
X209550000Y-141950000D02*
X206450000Y-141950000D01*
X209750000Y-141750000D02*
X209550000Y-141950000D01*
X224500000Y-134500000D02*
X224500000Y-142000000D01*
%TO.N,/nCS_8*%
X230500000Y-137500000D02*
X231000000Y-138000000D01*
X231000000Y-138000000D02*
X231000000Y-141500000D01*
%TO.N,/nCS_9*%
X255500000Y-137500000D02*
X255500000Y-140500000D01*
X254750000Y-136750000D02*
X255500000Y-137500000D01*
%TO.N,/nRESET_LCD*%
X256250000Y-139875000D02*
X256250000Y-138250000D01*
X257000000Y-140625000D02*
X256250000Y-139875000D01*
X206500000Y-138500000D02*
X206500000Y-140739952D01*
X206500000Y-140739952D02*
X207010048Y-141250000D01*
%TO.N,/D{slash}C_LCD*%
X207500000Y-139500000D02*
X207500000Y-140739949D01*
X207500000Y-140739949D02*
X208010051Y-141250000D01*
%TO.N,/nRESET_LCD*%
X181500000Y-138500000D02*
X181500000Y-140750000D01*
X181500000Y-140750000D02*
X182000000Y-141250000D01*
%TO.N,/D{slash}C_LCD*%
X183000000Y-141250000D02*
X182500000Y-140750000D01*
X182500000Y-140750000D02*
X182500000Y-139500000D01*
%TO.N,/nRESET_LCD*%
X232249997Y-141500000D02*
X232000000Y-141250003D01*
X232000000Y-141250003D02*
X232000000Y-139250000D01*
%TO.N,/D{slash}C_LCD*%
X233250000Y-141500000D02*
X233000000Y-141250000D01*
X233000000Y-141250000D02*
X233000000Y-140000000D01*
X257750000Y-139000000D02*
X257750000Y-141160660D01*
X257750000Y-141160660D02*
X258089340Y-141500000D01*
%TO.N,/nRESET_LCD*%
X132000000Y-138000000D02*
X132000000Y-141250000D01*
%TO.N,/D{slash}C_LCD*%
X133000000Y-139000000D02*
X133000000Y-140750000D01*
%TO.N,/nRESET_LCD*%
X107000000Y-138000000D02*
X107000000Y-141000000D01*
%TO.N,/D{slash}C_LCD*%
X108000000Y-139000000D02*
X108000000Y-140750000D01*
X83000000Y-139000000D02*
X83000000Y-140750000D01*
%TO.N,/nRESET_LCD*%
X82000000Y-138000000D02*
X82000000Y-141000000D01*
X57000000Y-138000000D02*
X57000000Y-141000000D01*
%TO.N,/D{slash}C_LCD*%
X58000000Y-141000000D02*
X58000000Y-139000000D01*
D16*
%TO.N,/nHOLD_MEM*%
X190500000Y-134000000D02*
X188250000Y-134000000D01*
X194000000Y-133250000D02*
X191250000Y-133250000D01*
X191250000Y-133250000D02*
X190500000Y-134000000D01*
%TO.N,/nRESET_LCD*%
X223500000Y-139250000D02*
X216500000Y-139250000D01*
X216500000Y-139250000D02*
X215750000Y-138500000D01*
X215750000Y-138500000D02*
X214500000Y-138500000D01*
%TO.N,/D{slash}C_LCD*%
X222500000Y-140000000D02*
X216000000Y-140000000D01*
X216000000Y-140000000D02*
X215500000Y-139500000D01*
%TD*%
%TA.AperFunction,Conductor*%
%TO.N,GND*%
G36*
X269442539Y-120520185D02*
G01*
X269488294Y-120572989D01*
X269499500Y-120624500D01*
X269499500Y-149375500D01*
X269479815Y-149442539D01*
X269427011Y-149488294D01*
X269375500Y-149499500D01*
X20624500Y-149499500D01*
X20557461Y-149479815D01*
X20511706Y-149427011D01*
X20500500Y-149375500D01*
X20500500Y-144000000D01*
X48344540Y-144000000D01*
X48364326Y-144188256D01*
X48364327Y-144188259D01*
X48422818Y-144368277D01*
X48422821Y-144368284D01*
X48517466Y-144532215D01*
X48567649Y-144587948D01*
X48597880Y-144650940D01*
X48599500Y-144670921D01*
X48599500Y-145079078D01*
X48579815Y-145146117D01*
X48567650Y-145162050D01*
X48517466Y-145217785D01*
X48422821Y-145381715D01*
X48422818Y-145381722D01*
X48364327Y-145561740D01*
X48364326Y-145561744D01*
X48344540Y-145750000D01*
X48364326Y-145938256D01*
X48364327Y-145938259D01*
X48422818Y-146118277D01*
X48422821Y-146118284D01*
X48517467Y-146282216D01*
X48618352Y-146394260D01*
X48644129Y-146422888D01*
X48797265Y-146534148D01*
X48797270Y-146534151D01*
X48970192Y-146611142D01*
X48970197Y-146611144D01*
X49155354Y-146650500D01*
X49155355Y-146650500D01*
X49344644Y-146650500D01*
X49344646Y-146650500D01*
X49529803Y-146611144D01*
X49702730Y-146534151D01*
X49855871Y-146422888D01*
X49982533Y-146282216D01*
X50077179Y-146118284D01*
X50135674Y-145938256D01*
X50155460Y-145750000D01*
X50135674Y-145561744D01*
X50077179Y-145381716D01*
X49982533Y-145217784D01*
X49932350Y-145162050D01*
X49902120Y-145099058D01*
X49900500Y-145079078D01*
X49900500Y-144878712D01*
X67149500Y-144878712D01*
X67149500Y-145121288D01*
X67181162Y-145361789D01*
X67186503Y-145381722D01*
X67243947Y-145596104D01*
X67307693Y-145750000D01*
X67336776Y-145820212D01*
X67458064Y-146030289D01*
X67458066Y-146030292D01*
X67458067Y-146030293D01*
X67605733Y-146222736D01*
X67605739Y-146222743D01*
X67777256Y-146394260D01*
X67777263Y-146394266D01*
X67890321Y-146481018D01*
X67969711Y-146541936D01*
X68179788Y-146663224D01*
X68403900Y-146756054D01*
X68638211Y-146818838D01*
X68818586Y-146842584D01*
X68878711Y-146850500D01*
X68878712Y-146850500D01*
X69121289Y-146850500D01*
X69169388Y-146844167D01*
X69361789Y-146818838D01*
X69596100Y-146756054D01*
X69820212Y-146663224D01*
X70030289Y-146541936D01*
X70222738Y-146394265D01*
X70394265Y-146222738D01*
X70541936Y-146030289D01*
X70663224Y-145820212D01*
X70756054Y-145596100D01*
X70818838Y-145361789D01*
X70850500Y-145121288D01*
X70850500Y-144878712D01*
X70818838Y-144638211D01*
X70756054Y-144403900D01*
X70663224Y-144179788D01*
X70559423Y-144000000D01*
X73344540Y-144000000D01*
X73364326Y-144188256D01*
X73364327Y-144188259D01*
X73422818Y-144368277D01*
X73422821Y-144368284D01*
X73517466Y-144532215D01*
X73567649Y-144587948D01*
X73597880Y-144650940D01*
X73599500Y-144670921D01*
X73599500Y-145079078D01*
X73579815Y-145146117D01*
X73567650Y-145162050D01*
X73517466Y-145217785D01*
X73422821Y-145381715D01*
X73422818Y-145381722D01*
X73364327Y-145561740D01*
X73364326Y-145561744D01*
X73344540Y-145750000D01*
X73364326Y-145938256D01*
X73364327Y-145938259D01*
X73422818Y-146118277D01*
X73422821Y-146118284D01*
X73517467Y-146282216D01*
X73618352Y-146394260D01*
X73644129Y-146422888D01*
X73797265Y-146534148D01*
X73797270Y-146534151D01*
X73970192Y-146611142D01*
X73970197Y-146611144D01*
X74155354Y-146650500D01*
X74155355Y-146650500D01*
X74344644Y-146650500D01*
X74344646Y-146650500D01*
X74529803Y-146611144D01*
X74702730Y-146534151D01*
X74855871Y-146422888D01*
X74982533Y-146282216D01*
X75077179Y-146118284D01*
X75135674Y-145938256D01*
X75155460Y-145750000D01*
X75135674Y-145561744D01*
X75077179Y-145381716D01*
X74982533Y-145217784D01*
X74932350Y-145162050D01*
X74902120Y-145099058D01*
X74900500Y-145079078D01*
X74900500Y-144670921D01*
X74920185Y-144603882D01*
X74932351Y-144587948D01*
X74982533Y-144532216D01*
X75077179Y-144368284D01*
X75135674Y-144188256D01*
X75155460Y-144000000D01*
X98344540Y-144000000D01*
X98364326Y-144188256D01*
X98364327Y-144188259D01*
X98422818Y-144368277D01*
X98422821Y-144368284D01*
X98517466Y-144532215D01*
X98567649Y-144587948D01*
X98597880Y-144650940D01*
X98599500Y-144670921D01*
X98599500Y-145079078D01*
X98579815Y-145146117D01*
X98567650Y-145162050D01*
X98517466Y-145217785D01*
X98422821Y-145381715D01*
X98422818Y-145381722D01*
X98364327Y-145561740D01*
X98364326Y-145561744D01*
X98344540Y-145750000D01*
X98364326Y-145938256D01*
X98364327Y-145938259D01*
X98422818Y-146118277D01*
X98422821Y-146118284D01*
X98517467Y-146282216D01*
X98618352Y-146394260D01*
X98644129Y-146422888D01*
X98797265Y-146534148D01*
X98797270Y-146534151D01*
X98970192Y-146611142D01*
X98970197Y-146611144D01*
X99155354Y-146650500D01*
X99155355Y-146650500D01*
X99344644Y-146650500D01*
X99344646Y-146650500D01*
X99529803Y-146611144D01*
X99702730Y-146534151D01*
X99855871Y-146422888D01*
X99982533Y-146282216D01*
X100077179Y-146118284D01*
X100135674Y-145938256D01*
X100155460Y-145750000D01*
X100135674Y-145561744D01*
X100077179Y-145381716D01*
X99982533Y-145217784D01*
X99932350Y-145162050D01*
X99902120Y-145099058D01*
X99900500Y-145079078D01*
X99900500Y-144670921D01*
X99920185Y-144603882D01*
X99932351Y-144587948D01*
X99982533Y-144532216D01*
X100077179Y-144368284D01*
X100135674Y-144188256D01*
X100155460Y-144000000D01*
X123344540Y-144000000D01*
X123364326Y-144188256D01*
X123364327Y-144188259D01*
X123422818Y-144368277D01*
X123422821Y-144368284D01*
X123517466Y-144532215D01*
X123567649Y-144587948D01*
X123597880Y-144650940D01*
X123599500Y-144670921D01*
X123599500Y-145079078D01*
X123579815Y-145146117D01*
X123567650Y-145162050D01*
X123517466Y-145217785D01*
X123422821Y-145381715D01*
X123422818Y-145381722D01*
X123364327Y-145561740D01*
X123364326Y-145561744D01*
X123344540Y-145750000D01*
X123364326Y-145938256D01*
X123364327Y-145938259D01*
X123422818Y-146118277D01*
X123422821Y-146118284D01*
X123517467Y-146282216D01*
X123618352Y-146394260D01*
X123644129Y-146422888D01*
X123797265Y-146534148D01*
X123797270Y-146534151D01*
X123970192Y-146611142D01*
X123970197Y-146611144D01*
X124155354Y-146650500D01*
X124155355Y-146650500D01*
X124344644Y-146650500D01*
X124344646Y-146650500D01*
X124529803Y-146611144D01*
X124702730Y-146534151D01*
X124855871Y-146422888D01*
X124982533Y-146282216D01*
X125077179Y-146118284D01*
X125135674Y-145938256D01*
X125155460Y-145750000D01*
X125135674Y-145561744D01*
X125077179Y-145381716D01*
X124982533Y-145217784D01*
X124932350Y-145162050D01*
X124902120Y-145099058D01*
X124900500Y-145079078D01*
X124900500Y-144670921D01*
X124920185Y-144603882D01*
X124932351Y-144587948D01*
X124982533Y-144532216D01*
X125077179Y-144368284D01*
X125135674Y-144188256D01*
X125155460Y-144000000D01*
X148344540Y-144000000D01*
X148364326Y-144188256D01*
X148364327Y-144188259D01*
X148422818Y-144368277D01*
X148422821Y-144368284D01*
X148517466Y-144532215D01*
X148567649Y-144587948D01*
X148597880Y-144650940D01*
X148599500Y-144670921D01*
X148599500Y-145079078D01*
X148579815Y-145146117D01*
X148567650Y-145162050D01*
X148517466Y-145217785D01*
X148422821Y-145381715D01*
X148422818Y-145381722D01*
X148364327Y-145561740D01*
X148364326Y-145561744D01*
X148344540Y-145750000D01*
X148364326Y-145938256D01*
X148364327Y-145938259D01*
X148422818Y-146118277D01*
X148422821Y-146118284D01*
X148517467Y-146282216D01*
X148618352Y-146394260D01*
X148644129Y-146422888D01*
X148797265Y-146534148D01*
X148797270Y-146534151D01*
X148970192Y-146611142D01*
X148970197Y-146611144D01*
X149155354Y-146650500D01*
X149155355Y-146650500D01*
X149344644Y-146650500D01*
X149344646Y-146650500D01*
X149529803Y-146611144D01*
X149702730Y-146534151D01*
X149855871Y-146422888D01*
X149982533Y-146282216D01*
X150077179Y-146118284D01*
X150135674Y-145938256D01*
X150155460Y-145750000D01*
X150135674Y-145561744D01*
X150077179Y-145381716D01*
X149982533Y-145217784D01*
X149932350Y-145162050D01*
X149902120Y-145099058D01*
X149900500Y-145079078D01*
X149900500Y-144670921D01*
X149920185Y-144603882D01*
X149932351Y-144587948D01*
X149982533Y-144532216D01*
X150077179Y-144368284D01*
X150135674Y-144188256D01*
X150155460Y-144000000D01*
X173344540Y-144000000D01*
X173364326Y-144188256D01*
X173364327Y-144188259D01*
X173422818Y-144368277D01*
X173422821Y-144368284D01*
X173517466Y-144532215D01*
X173567649Y-144587948D01*
X173597880Y-144650940D01*
X173599500Y-144670921D01*
X173599500Y-145079078D01*
X173579815Y-145146117D01*
X173567650Y-145162050D01*
X173517466Y-145217785D01*
X173422821Y-145381715D01*
X173422818Y-145381722D01*
X173364327Y-145561740D01*
X173364326Y-145561744D01*
X173344540Y-145750000D01*
X173364326Y-145938256D01*
X173364327Y-145938259D01*
X173422818Y-146118277D01*
X173422821Y-146118284D01*
X173517467Y-146282216D01*
X173618352Y-146394260D01*
X173644129Y-146422888D01*
X173797265Y-146534148D01*
X173797270Y-146534151D01*
X173970192Y-146611142D01*
X173970197Y-146611144D01*
X174155354Y-146650500D01*
X174155355Y-146650500D01*
X174344644Y-146650500D01*
X174344646Y-146650500D01*
X174529803Y-146611144D01*
X174702730Y-146534151D01*
X174855871Y-146422888D01*
X174982533Y-146282216D01*
X175077179Y-146118284D01*
X175135674Y-145938256D01*
X175155460Y-145750000D01*
X175135674Y-145561744D01*
X175077179Y-145381716D01*
X174982533Y-145217784D01*
X174932350Y-145162050D01*
X174902120Y-145099058D01*
X174900500Y-145079078D01*
X174900500Y-144878712D01*
X192149500Y-144878712D01*
X192149500Y-145121288D01*
X192181162Y-145361789D01*
X192186503Y-145381722D01*
X192243947Y-145596104D01*
X192307693Y-145750000D01*
X192336776Y-145820212D01*
X192458064Y-146030289D01*
X192458066Y-146030292D01*
X192458067Y-146030293D01*
X192605733Y-146222736D01*
X192605739Y-146222743D01*
X192777256Y-146394260D01*
X192777263Y-146394266D01*
X192890321Y-146481018D01*
X192969711Y-146541936D01*
X193179788Y-146663224D01*
X193403900Y-146756054D01*
X193638211Y-146818838D01*
X193818586Y-146842584D01*
X193878711Y-146850500D01*
X193878712Y-146850500D01*
X194121289Y-146850500D01*
X194169388Y-146844167D01*
X194361789Y-146818838D01*
X194596100Y-146756054D01*
X194820212Y-146663224D01*
X195030289Y-146541936D01*
X195222738Y-146394265D01*
X195394265Y-146222738D01*
X195541936Y-146030289D01*
X195663224Y-145820212D01*
X195756054Y-145596100D01*
X195818838Y-145361789D01*
X195850500Y-145121288D01*
X195850500Y-144878712D01*
X195818838Y-144638211D01*
X195756054Y-144403900D01*
X195663224Y-144179788D01*
X195559423Y-144000000D01*
X198344540Y-144000000D01*
X198364326Y-144188256D01*
X198364327Y-144188259D01*
X198422818Y-144368277D01*
X198422821Y-144368284D01*
X198517466Y-144532215D01*
X198567649Y-144587948D01*
X198597880Y-144650940D01*
X198599500Y-144670921D01*
X198599500Y-145079078D01*
X198579815Y-145146117D01*
X198567650Y-145162050D01*
X198517466Y-145217785D01*
X198422821Y-145381715D01*
X198422818Y-145381722D01*
X198364327Y-145561740D01*
X198364326Y-145561744D01*
X198344540Y-145750000D01*
X198364326Y-145938256D01*
X198364327Y-145938259D01*
X198422818Y-146118277D01*
X198422821Y-146118284D01*
X198517467Y-146282216D01*
X198618352Y-146394260D01*
X198644129Y-146422888D01*
X198797265Y-146534148D01*
X198797270Y-146534151D01*
X198970192Y-146611142D01*
X198970197Y-146611144D01*
X199155354Y-146650500D01*
X199155355Y-146650500D01*
X199344644Y-146650500D01*
X199344646Y-146650500D01*
X199529803Y-146611144D01*
X199702730Y-146534151D01*
X199855871Y-146422888D01*
X199982533Y-146282216D01*
X200077179Y-146118284D01*
X200135674Y-145938256D01*
X200155460Y-145750000D01*
X223344540Y-145750000D01*
X223364326Y-145938256D01*
X223364327Y-145938259D01*
X223422818Y-146118277D01*
X223422821Y-146118284D01*
X223517467Y-146282216D01*
X223618352Y-146394260D01*
X223644129Y-146422888D01*
X223797265Y-146534148D01*
X223797270Y-146534151D01*
X223970192Y-146611142D01*
X223970197Y-146611144D01*
X224155354Y-146650500D01*
X224155355Y-146650500D01*
X224344644Y-146650500D01*
X224344646Y-146650500D01*
X224529803Y-146611144D01*
X224702730Y-146534151D01*
X224854090Y-146424182D01*
X224919896Y-146400702D01*
X224926975Y-146400500D01*
X225571542Y-146400500D01*
X225656086Y-146383682D01*
X225697215Y-146375501D01*
X225815598Y-146326465D01*
X225922140Y-146255277D01*
X227040598Y-145136819D01*
X227101921Y-145103334D01*
X227128279Y-145100500D01*
X227152115Y-145100500D01*
X227152117Y-145100500D01*
X227337274Y-145061144D01*
X227510201Y-144984151D01*
X227663342Y-144872888D01*
X227790004Y-144732216D01*
X227884650Y-144568284D01*
X227943145Y-144388256D01*
X227962931Y-144200000D01*
X227943145Y-144011744D01*
X227939329Y-144000000D01*
X248344540Y-144000000D01*
X248364326Y-144188256D01*
X248364327Y-144188259D01*
X248422818Y-144368277D01*
X248422821Y-144368284D01*
X248517466Y-144532215D01*
X248567649Y-144587948D01*
X248597880Y-144650940D01*
X248599500Y-144670921D01*
X248599500Y-145079078D01*
X248579815Y-145146117D01*
X248567650Y-145162050D01*
X248517466Y-145217785D01*
X248422821Y-145381715D01*
X248422818Y-145381722D01*
X248364327Y-145561740D01*
X248364326Y-145561744D01*
X248344540Y-145750000D01*
X248364326Y-145938256D01*
X248364327Y-145938259D01*
X248422818Y-146118277D01*
X248422821Y-146118284D01*
X248517467Y-146282216D01*
X248618352Y-146394260D01*
X248644129Y-146422888D01*
X248797265Y-146534148D01*
X248797270Y-146534151D01*
X248970192Y-146611142D01*
X248970197Y-146611144D01*
X249155354Y-146650500D01*
X249155355Y-146650500D01*
X249344644Y-146650500D01*
X249344646Y-146650500D01*
X249529803Y-146611144D01*
X249702730Y-146534151D01*
X249855871Y-146422888D01*
X249982533Y-146282216D01*
X250077179Y-146118284D01*
X250135674Y-145938256D01*
X250155460Y-145750000D01*
X250135674Y-145561744D01*
X250077179Y-145381716D01*
X249982533Y-145217784D01*
X249932350Y-145162050D01*
X249902120Y-145099058D01*
X249900500Y-145079078D01*
X249900500Y-144670921D01*
X249920185Y-144603882D01*
X249932351Y-144587948D01*
X249982533Y-144532216D01*
X250077179Y-144368284D01*
X250135674Y-144188256D01*
X250155460Y-144000000D01*
X250135674Y-143811744D01*
X250077179Y-143631716D01*
X249982533Y-143467784D01*
X249855871Y-143327112D01*
X249855870Y-143327111D01*
X249702734Y-143215851D01*
X249702729Y-143215848D01*
X249529807Y-143138857D01*
X249529802Y-143138855D01*
X249384001Y-143107865D01*
X249344646Y-143099500D01*
X249155354Y-143099500D01*
X249122897Y-143106398D01*
X248970197Y-143138855D01*
X248970192Y-143138857D01*
X248797270Y-143215848D01*
X248797265Y-143215851D01*
X248644129Y-143327111D01*
X248517466Y-143467785D01*
X248422821Y-143631715D01*
X248422818Y-143631722D01*
X248364327Y-143811740D01*
X248364326Y-143811744D01*
X248344540Y-144000000D01*
X227939329Y-144000000D01*
X227884650Y-143831716D01*
X227790004Y-143667784D01*
X227663342Y-143527112D01*
X227663341Y-143527111D01*
X227510205Y-143415851D01*
X227510200Y-143415848D01*
X227337278Y-143338857D01*
X227337273Y-143338855D01*
X227191472Y-143307865D01*
X227152117Y-143299500D01*
X226962825Y-143299500D01*
X226930368Y-143306398D01*
X226777668Y-143338855D01*
X226777663Y-143338857D01*
X226604741Y-143415848D01*
X226604736Y-143415851D01*
X226451600Y-143527111D01*
X226324937Y-143667785D01*
X226230292Y-143831715D01*
X226230289Y-143831722D01*
X226171798Y-144011739D01*
X226171797Y-144011741D01*
X226158302Y-144140143D01*
X226131717Y-144204757D01*
X226122662Y-144214862D01*
X225274344Y-145063181D01*
X225213021Y-145096666D01*
X225186663Y-145099500D01*
X224926975Y-145099500D01*
X224859936Y-145079815D01*
X224854090Y-145075818D01*
X224702734Y-144965851D01*
X224702729Y-144965848D01*
X224529807Y-144888857D01*
X224529802Y-144888855D01*
X224384001Y-144857865D01*
X224344646Y-144849500D01*
X224155354Y-144849500D01*
X224122897Y-144856398D01*
X223970197Y-144888855D01*
X223970192Y-144888857D01*
X223797270Y-144965848D01*
X223797265Y-144965851D01*
X223644129Y-145077111D01*
X223517466Y-145217785D01*
X223422821Y-145381715D01*
X223422818Y-145381722D01*
X223364327Y-145561740D01*
X223364326Y-145561744D01*
X223344540Y-145750000D01*
X200155460Y-145750000D01*
X200135674Y-145561744D01*
X200077179Y-145381716D01*
X199982533Y-145217784D01*
X199932350Y-145162050D01*
X199902120Y-145099058D01*
X199900500Y-145079078D01*
X199900500Y-144670921D01*
X199920185Y-144603882D01*
X199932351Y-144587948D01*
X199982533Y-144532216D01*
X200077179Y-144368284D01*
X200135674Y-144188256D01*
X200155460Y-144000000D01*
X200135674Y-143811744D01*
X200077179Y-143631716D01*
X199982533Y-143467784D01*
X199855871Y-143327112D01*
X199855870Y-143327111D01*
X199702734Y-143215851D01*
X199702729Y-143215848D01*
X199529807Y-143138857D01*
X199529802Y-143138855D01*
X199384001Y-143107865D01*
X199344646Y-143099500D01*
X199155354Y-143099500D01*
X199122897Y-143106398D01*
X198970197Y-143138855D01*
X198970192Y-143138857D01*
X198797270Y-143215848D01*
X198797265Y-143215851D01*
X198644129Y-143327111D01*
X198517466Y-143467785D01*
X198422821Y-143631715D01*
X198422818Y-143631722D01*
X198364327Y-143811740D01*
X198364326Y-143811744D01*
X198344540Y-144000000D01*
X195559423Y-144000000D01*
X195541936Y-143969711D01*
X195394265Y-143777262D01*
X195394260Y-143777256D01*
X195222743Y-143605739D01*
X195222736Y-143605733D01*
X195030293Y-143458067D01*
X195030292Y-143458066D01*
X195030289Y-143458064D01*
X194858661Y-143358974D01*
X194820214Y-143336777D01*
X194820205Y-143336773D01*
X194596104Y-143243947D01*
X194361785Y-143181161D01*
X194121289Y-143149500D01*
X194121288Y-143149500D01*
X193878712Y-143149500D01*
X193878711Y-143149500D01*
X193638214Y-143181161D01*
X193403895Y-143243947D01*
X193179794Y-143336773D01*
X193179785Y-143336777D01*
X192969706Y-143458067D01*
X192777263Y-143605733D01*
X192777256Y-143605739D01*
X192605739Y-143777256D01*
X192605733Y-143777263D01*
X192458067Y-143969706D01*
X192336777Y-144179785D01*
X192336773Y-144179794D01*
X192243947Y-144403895D01*
X192181161Y-144638214D01*
X192168786Y-144732214D01*
X192149500Y-144878712D01*
X174900500Y-144878712D01*
X174900500Y-144670921D01*
X174920185Y-144603882D01*
X174932351Y-144587948D01*
X174982533Y-144532216D01*
X175077179Y-144368284D01*
X175135674Y-144188256D01*
X175155460Y-144000000D01*
X175135674Y-143811744D01*
X175077179Y-143631716D01*
X174982533Y-143467784D01*
X174855871Y-143327112D01*
X174855870Y-143327111D01*
X174702734Y-143215851D01*
X174702729Y-143215848D01*
X174529807Y-143138857D01*
X174529802Y-143138855D01*
X174384001Y-143107865D01*
X174344646Y-143099500D01*
X174155354Y-143099500D01*
X174122897Y-143106398D01*
X173970197Y-143138855D01*
X173970192Y-143138857D01*
X173797270Y-143215848D01*
X173797265Y-143215851D01*
X173644129Y-143327111D01*
X173517466Y-143467785D01*
X173422821Y-143631715D01*
X173422818Y-143631722D01*
X173364327Y-143811740D01*
X173364326Y-143811744D01*
X173344540Y-144000000D01*
X150155460Y-144000000D01*
X150135674Y-143811744D01*
X150077179Y-143631716D01*
X149982533Y-143467784D01*
X149855871Y-143327112D01*
X149855870Y-143327111D01*
X149702734Y-143215851D01*
X149702729Y-143215848D01*
X149529807Y-143138857D01*
X149529802Y-143138855D01*
X149384001Y-143107865D01*
X149344646Y-143099500D01*
X149155354Y-143099500D01*
X149122897Y-143106398D01*
X148970197Y-143138855D01*
X148970192Y-143138857D01*
X148797270Y-143215848D01*
X148797265Y-143215851D01*
X148644129Y-143327111D01*
X148517466Y-143467785D01*
X148422821Y-143631715D01*
X148422818Y-143631722D01*
X148364327Y-143811740D01*
X148364326Y-143811744D01*
X148344540Y-144000000D01*
X125155460Y-144000000D01*
X125135674Y-143811744D01*
X125077179Y-143631716D01*
X124982533Y-143467784D01*
X124855871Y-143327112D01*
X124855870Y-143327111D01*
X124702734Y-143215851D01*
X124702729Y-143215848D01*
X124529807Y-143138857D01*
X124529802Y-143138855D01*
X124384001Y-143107865D01*
X124344646Y-143099500D01*
X124155354Y-143099500D01*
X124122897Y-143106398D01*
X123970197Y-143138855D01*
X123970192Y-143138857D01*
X123797270Y-143215848D01*
X123797265Y-143215851D01*
X123644129Y-143327111D01*
X123517466Y-143467785D01*
X123422821Y-143631715D01*
X123422818Y-143631722D01*
X123364327Y-143811740D01*
X123364326Y-143811744D01*
X123344540Y-144000000D01*
X100155460Y-144000000D01*
X100135674Y-143811744D01*
X100077179Y-143631716D01*
X99982533Y-143467784D01*
X99855871Y-143327112D01*
X99855870Y-143327111D01*
X99702734Y-143215851D01*
X99702729Y-143215848D01*
X99529807Y-143138857D01*
X99529802Y-143138855D01*
X99384001Y-143107865D01*
X99344646Y-143099500D01*
X99155354Y-143099500D01*
X99122897Y-143106398D01*
X98970197Y-143138855D01*
X98970192Y-143138857D01*
X98797270Y-143215848D01*
X98797265Y-143215851D01*
X98644129Y-143327111D01*
X98517466Y-143467785D01*
X98422821Y-143631715D01*
X98422818Y-143631722D01*
X98364327Y-143811740D01*
X98364326Y-143811744D01*
X98344540Y-144000000D01*
X75155460Y-144000000D01*
X75135674Y-143811744D01*
X75077179Y-143631716D01*
X74982533Y-143467784D01*
X74855871Y-143327112D01*
X74855870Y-143327111D01*
X74702734Y-143215851D01*
X74702729Y-143215848D01*
X74529807Y-143138857D01*
X74529802Y-143138855D01*
X74384001Y-143107865D01*
X74344646Y-143099500D01*
X74155354Y-143099500D01*
X74122897Y-143106398D01*
X73970197Y-143138855D01*
X73970192Y-143138857D01*
X73797270Y-143215848D01*
X73797265Y-143215851D01*
X73644129Y-143327111D01*
X73517466Y-143467785D01*
X73422821Y-143631715D01*
X73422818Y-143631722D01*
X73364327Y-143811740D01*
X73364326Y-143811744D01*
X73344540Y-144000000D01*
X70559423Y-144000000D01*
X70541936Y-143969711D01*
X70394265Y-143777262D01*
X70394260Y-143777256D01*
X70222743Y-143605739D01*
X70222736Y-143605733D01*
X70030293Y-143458067D01*
X70030292Y-143458066D01*
X70030289Y-143458064D01*
X69858661Y-143358974D01*
X69820214Y-143336777D01*
X69820205Y-143336773D01*
X69596104Y-143243947D01*
X69361785Y-143181161D01*
X69121289Y-143149500D01*
X69121288Y-143149500D01*
X68878712Y-143149500D01*
X68878711Y-143149500D01*
X68638214Y-143181161D01*
X68403895Y-143243947D01*
X68179794Y-143336773D01*
X68179785Y-143336777D01*
X67969706Y-143458067D01*
X67777263Y-143605733D01*
X67777256Y-143605739D01*
X67605739Y-143777256D01*
X67605733Y-143777263D01*
X67458067Y-143969706D01*
X67336777Y-144179785D01*
X67336773Y-144179794D01*
X67243947Y-144403895D01*
X67181161Y-144638214D01*
X67168786Y-144732214D01*
X67149500Y-144878712D01*
X49900500Y-144878712D01*
X49900500Y-144670921D01*
X49920185Y-144603882D01*
X49932351Y-144587948D01*
X49982533Y-144532216D01*
X50077179Y-144368284D01*
X50135674Y-144188256D01*
X50155460Y-144000000D01*
X50135674Y-143811744D01*
X50077179Y-143631716D01*
X49982533Y-143467784D01*
X49855871Y-143327112D01*
X49855870Y-143327111D01*
X49702734Y-143215851D01*
X49702729Y-143215848D01*
X49529807Y-143138857D01*
X49529802Y-143138855D01*
X49384001Y-143107865D01*
X49344646Y-143099500D01*
X49155354Y-143099500D01*
X49122897Y-143106398D01*
X48970197Y-143138855D01*
X48970192Y-143138857D01*
X48797270Y-143215848D01*
X48797265Y-143215851D01*
X48644129Y-143327111D01*
X48517466Y-143467785D01*
X48422821Y-143631715D01*
X48422818Y-143631722D01*
X48364327Y-143811740D01*
X48364326Y-143811744D01*
X48344540Y-144000000D01*
X20500500Y-144000000D01*
X20500500Y-135250000D01*
X53844540Y-135250000D01*
X53864326Y-135438256D01*
X53864327Y-135438259D01*
X53922818Y-135618277D01*
X53922821Y-135618284D01*
X54017466Y-135782215D01*
X54067649Y-135837948D01*
X54097880Y-135900940D01*
X54099500Y-135920921D01*
X54099500Y-140329078D01*
X54079815Y-140396117D01*
X54067650Y-140412050D01*
X54017466Y-140467785D01*
X53922821Y-140631715D01*
X53922818Y-140631722D01*
X53864327Y-140811740D01*
X53864326Y-140811744D01*
X53844540Y-141000000D01*
X53864326Y-141188256D01*
X53864327Y-141188259D01*
X53922818Y-141368277D01*
X53922821Y-141368284D01*
X54017467Y-141532216D01*
X54111400Y-141636539D01*
X54144129Y-141672888D01*
X54297265Y-141784148D01*
X54297270Y-141784151D01*
X54470192Y-141861142D01*
X54470197Y-141861144D01*
X54655354Y-141900500D01*
X54655355Y-141900500D01*
X54844644Y-141900500D01*
X54844646Y-141900500D01*
X55029803Y-141861144D01*
X55202730Y-141784151D01*
X55250001Y-141749807D01*
X55302115Y-141711944D01*
X55367921Y-141688464D01*
X55435975Y-141704289D01*
X55447885Y-141711944D01*
X55547265Y-141784148D01*
X55547270Y-141784151D01*
X55720192Y-141861142D01*
X55720197Y-141861144D01*
X55905354Y-141900500D01*
X55905355Y-141900500D01*
X56094644Y-141900500D01*
X56094646Y-141900500D01*
X56279803Y-141861144D01*
X56449566Y-141785559D01*
X56518813Y-141776275D01*
X56550430Y-141785557D01*
X56720197Y-141861144D01*
X56905354Y-141900500D01*
X56905355Y-141900500D01*
X57094644Y-141900500D01*
X57094646Y-141900500D01*
X57279803Y-141861144D01*
X57449566Y-141785559D01*
X57518813Y-141776275D01*
X57550430Y-141785557D01*
X57720197Y-141861144D01*
X57905354Y-141900500D01*
X57905355Y-141900500D01*
X58094644Y-141900500D01*
X58094646Y-141900500D01*
X58279803Y-141861144D01*
X58452730Y-141784151D01*
X58605871Y-141672888D01*
X58732533Y-141532216D01*
X58827179Y-141368284D01*
X58885674Y-141188256D01*
X58905460Y-141000000D01*
X58885674Y-140811744D01*
X58827179Y-140631716D01*
X58732533Y-140467784D01*
X58661465Y-140388855D01*
X58632350Y-140356519D01*
X58602120Y-140293527D01*
X58600500Y-140273547D01*
X58600500Y-139726452D01*
X58620185Y-139659413D01*
X58632350Y-139643480D01*
X58642937Y-139631722D01*
X58732533Y-139532216D01*
X58827179Y-139368284D01*
X58885674Y-139188256D01*
X58905460Y-139000000D01*
X58885674Y-138811744D01*
X58827179Y-138631716D01*
X58732533Y-138467784D01*
X58605871Y-138327112D01*
X58605870Y-138327111D01*
X58452734Y-138215851D01*
X58452729Y-138215848D01*
X58279807Y-138138857D01*
X58279802Y-138138855D01*
X58134001Y-138107865D01*
X58094646Y-138099500D01*
X58027568Y-138099500D01*
X57960529Y-138079815D01*
X57914774Y-138027011D01*
X57904247Y-137988462D01*
X57902074Y-137967784D01*
X57885674Y-137811744D01*
X57827179Y-137631716D01*
X57732533Y-137467784D01*
X57605871Y-137327112D01*
X57584719Y-137311744D01*
X57452734Y-137215851D01*
X57452729Y-137215848D01*
X57279807Y-137138857D01*
X57279802Y-137138855D01*
X57110011Y-137102766D01*
X57094646Y-137099500D01*
X56988033Y-137099500D01*
X56920994Y-137079815D01*
X56875239Y-137027011D01*
X56870102Y-137013818D01*
X56827181Y-136881722D01*
X56827180Y-136881721D01*
X56827179Y-136881716D01*
X56732533Y-136717784D01*
X56605871Y-136577112D01*
X56584719Y-136561744D01*
X56452734Y-136465851D01*
X56452729Y-136465848D01*
X56279807Y-136388857D01*
X56279802Y-136388855D01*
X56134001Y-136357865D01*
X56094646Y-136349500D01*
X55905354Y-136349500D01*
X55872897Y-136356398D01*
X55720197Y-136388855D01*
X55720192Y-136388857D01*
X55574936Y-136453531D01*
X55505686Y-136462816D01*
X55442409Y-136433188D01*
X55405196Y-136374053D01*
X55400500Y-136340252D01*
X55400500Y-135920921D01*
X55420185Y-135853882D01*
X55432351Y-135837948D01*
X55448345Y-135820185D01*
X55482533Y-135782216D01*
X55577179Y-135618284D01*
X55635674Y-135438256D01*
X55655460Y-135250000D01*
X76594540Y-135250000D01*
X76614326Y-135438256D01*
X76614327Y-135438259D01*
X76672818Y-135618277D01*
X76672821Y-135618284D01*
X76767466Y-135782215D01*
X76817649Y-135837948D01*
X76847880Y-135900940D01*
X76849500Y-135920921D01*
X76849500Y-138814070D01*
X76857997Y-138856784D01*
X76866494Y-138899500D01*
X76871651Y-138925425D01*
X76874499Y-138939744D01*
X76905181Y-139013818D01*
X76923535Y-139058127D01*
X76985256Y-139150500D01*
X76994726Y-139164673D01*
X76994727Y-139164674D01*
X79065191Y-141235137D01*
X79098676Y-141296460D01*
X79100830Y-141309851D01*
X79114326Y-141438256D01*
X79114327Y-141438259D01*
X79172818Y-141618277D01*
X79172821Y-141618284D01*
X79267467Y-141782216D01*
X79373971Y-141900500D01*
X79394129Y-141922888D01*
X79547265Y-142034148D01*
X79547270Y-142034151D01*
X79720192Y-142111142D01*
X79720197Y-142111144D01*
X79905354Y-142150500D01*
X79905355Y-142150500D01*
X80094644Y-142150500D01*
X80094646Y-142150500D01*
X80279803Y-142111144D01*
X80449566Y-142035559D01*
X80518813Y-142026275D01*
X80550430Y-142035557D01*
X80720197Y-142111144D01*
X80905354Y-142150500D01*
X80905355Y-142150500D01*
X81094644Y-142150500D01*
X81094646Y-142150500D01*
X81279803Y-142111144D01*
X81452730Y-142034151D01*
X81605871Y-141922888D01*
X81622993Y-141903870D01*
X81682477Y-141867221D01*
X81740926Y-141865550D01*
X81905354Y-141900500D01*
X81905355Y-141900500D01*
X82094644Y-141900500D01*
X82094646Y-141900500D01*
X82279803Y-141861144D01*
X82452730Y-141784151D01*
X82605871Y-141672888D01*
X82622993Y-141653870D01*
X82682477Y-141617221D01*
X82740926Y-141615550D01*
X82905354Y-141650500D01*
X82905355Y-141650500D01*
X83094644Y-141650500D01*
X83094646Y-141650500D01*
X83279803Y-141611144D01*
X83452730Y-141534151D01*
X83605871Y-141422888D01*
X83732533Y-141282216D01*
X83827179Y-141118284D01*
X83885674Y-140938256D01*
X83905460Y-140750000D01*
X83885674Y-140561744D01*
X83827179Y-140381716D01*
X83732533Y-140217784D01*
X83671950Y-140150500D01*
X83632350Y-140106519D01*
X83602120Y-140043527D01*
X83600500Y-140023547D01*
X83600500Y-139726452D01*
X83620185Y-139659413D01*
X83632350Y-139643480D01*
X83642937Y-139631722D01*
X83732533Y-139532216D01*
X83827179Y-139368284D01*
X83885674Y-139188256D01*
X83905460Y-139000000D01*
X83885674Y-138811744D01*
X83827179Y-138631716D01*
X83732533Y-138467784D01*
X83605871Y-138327112D01*
X83605870Y-138327111D01*
X83452734Y-138215851D01*
X83452729Y-138215848D01*
X83279807Y-138138857D01*
X83279802Y-138138855D01*
X83134001Y-138107865D01*
X83094646Y-138099500D01*
X83027568Y-138099500D01*
X82960529Y-138079815D01*
X82914774Y-138027011D01*
X82904247Y-137988462D01*
X82902074Y-137967784D01*
X82885674Y-137811744D01*
X82827179Y-137631716D01*
X82732533Y-137467784D01*
X82605871Y-137327112D01*
X82584719Y-137311744D01*
X82452734Y-137215851D01*
X82452729Y-137215848D01*
X82279807Y-137138857D01*
X82279802Y-137138855D01*
X82110011Y-137102766D01*
X82094646Y-137099500D01*
X81988033Y-137099500D01*
X81920994Y-137079815D01*
X81875239Y-137027011D01*
X81870102Y-137013818D01*
X81827181Y-136881722D01*
X81827180Y-136881721D01*
X81827179Y-136881716D01*
X81751133Y-136750000D01*
X103844540Y-136750000D01*
X103864326Y-136938256D01*
X103864327Y-136938259D01*
X103922818Y-137118277D01*
X103922821Y-137118284D01*
X104017466Y-137282215D01*
X104067649Y-137337948D01*
X104097880Y-137400940D01*
X104099500Y-137420921D01*
X104099500Y-140814072D01*
X104105370Y-140843582D01*
X104107074Y-140880733D01*
X104097465Y-140972171D01*
X104094540Y-141000000D01*
X104114326Y-141188256D01*
X104114327Y-141188259D01*
X104172818Y-141368277D01*
X104172821Y-141368284D01*
X104267467Y-141532216D01*
X104361400Y-141636539D01*
X104394129Y-141672888D01*
X104547265Y-141784148D01*
X104547270Y-141784151D01*
X104720192Y-141861142D01*
X104720197Y-141861144D01*
X104905354Y-141900500D01*
X104905355Y-141900500D01*
X105094644Y-141900500D01*
X105094646Y-141900500D01*
X105279803Y-141861144D01*
X105449566Y-141785559D01*
X105518813Y-141776275D01*
X105550430Y-141785557D01*
X105720197Y-141861144D01*
X105905354Y-141900500D01*
X105905355Y-141900500D01*
X106094644Y-141900500D01*
X106094646Y-141900500D01*
X106279803Y-141861144D01*
X106449566Y-141785559D01*
X106518813Y-141776275D01*
X106550430Y-141785557D01*
X106720197Y-141861144D01*
X106905354Y-141900500D01*
X106905355Y-141900500D01*
X107094644Y-141900500D01*
X107094646Y-141900500D01*
X107279803Y-141861144D01*
X107452730Y-141784151D01*
X107605871Y-141672888D01*
X107622993Y-141653870D01*
X107682477Y-141617221D01*
X107740926Y-141615550D01*
X107905354Y-141650500D01*
X107905355Y-141650500D01*
X108094644Y-141650500D01*
X108094646Y-141650500D01*
X108279803Y-141611144D01*
X108452730Y-141534151D01*
X108605871Y-141422888D01*
X108732533Y-141282216D01*
X108827179Y-141118284D01*
X108885674Y-140938256D01*
X108905460Y-140750000D01*
X108885674Y-140561744D01*
X108827179Y-140381716D01*
X108732533Y-140217784D01*
X108671950Y-140150500D01*
X108632350Y-140106519D01*
X108602120Y-140043527D01*
X108600500Y-140023547D01*
X108600500Y-139726452D01*
X108620185Y-139659413D01*
X108632350Y-139643480D01*
X108642937Y-139631722D01*
X108732533Y-139532216D01*
X108827179Y-139368284D01*
X108885674Y-139188256D01*
X108905460Y-139000000D01*
X108885674Y-138811744D01*
X108827179Y-138631716D01*
X108732533Y-138467784D01*
X108605871Y-138327112D01*
X108605870Y-138327111D01*
X108452734Y-138215851D01*
X108452729Y-138215848D01*
X108279807Y-138138857D01*
X108279802Y-138138855D01*
X108134001Y-138107865D01*
X108094646Y-138099500D01*
X108027568Y-138099500D01*
X107960529Y-138079815D01*
X107914774Y-138027011D01*
X107904247Y-137988462D01*
X107902074Y-137967784D01*
X107885674Y-137811744D01*
X107827179Y-137631716D01*
X107732533Y-137467784D01*
X107605871Y-137327112D01*
X107584719Y-137311744D01*
X107452734Y-137215851D01*
X107452729Y-137215848D01*
X107279807Y-137138857D01*
X107279802Y-137138855D01*
X107110011Y-137102766D01*
X107094646Y-137099500D01*
X107003954Y-137099500D01*
X106936915Y-137079815D01*
X106891160Y-137027011D01*
X106887276Y-137000000D01*
X128844540Y-137000000D01*
X128864326Y-137188256D01*
X128864327Y-137188259D01*
X128922818Y-137368277D01*
X128922821Y-137368284D01*
X129017467Y-137532216D01*
X129113487Y-137638857D01*
X129117650Y-137643480D01*
X129147880Y-137706471D01*
X129149500Y-137726452D01*
X129149500Y-140913330D01*
X129149499Y-140913348D01*
X129149499Y-140933853D01*
X129143430Y-140972171D01*
X129115734Y-141057412D01*
X129114326Y-141061744D01*
X129094540Y-141250000D01*
X129114326Y-141438256D01*
X129114327Y-141438259D01*
X129172818Y-141618277D01*
X129172821Y-141618284D01*
X129267467Y-141782216D01*
X129373971Y-141900500D01*
X129394129Y-141922888D01*
X129547265Y-142034148D01*
X129547270Y-142034151D01*
X129720192Y-142111142D01*
X129720197Y-142111144D01*
X129905354Y-142150500D01*
X129905355Y-142150500D01*
X130094644Y-142150500D01*
X130094646Y-142150500D01*
X130279803Y-142111144D01*
X130449566Y-142035559D01*
X130518813Y-142026275D01*
X130550430Y-142035557D01*
X130720197Y-142111144D01*
X130905354Y-142150500D01*
X130905355Y-142150500D01*
X131094644Y-142150500D01*
X131094646Y-142150500D01*
X131279803Y-142111144D01*
X131449566Y-142035559D01*
X131518813Y-142026275D01*
X131550430Y-142035557D01*
X131720197Y-142111144D01*
X131905354Y-142150500D01*
X131905355Y-142150500D01*
X132094644Y-142150500D01*
X132094646Y-142150500D01*
X132279803Y-142111144D01*
X132452730Y-142034151D01*
X132605871Y-141922888D01*
X132732533Y-141782216D01*
X132774112Y-141710197D01*
X132824676Y-141661984D01*
X132893283Y-141648760D01*
X132903006Y-141650253D01*
X132905353Y-141650500D01*
X132905354Y-141650500D01*
X133094644Y-141650500D01*
X133094646Y-141650500D01*
X133279803Y-141611144D01*
X133452730Y-141534151D01*
X133605871Y-141422888D01*
X133732533Y-141282216D01*
X133827179Y-141118284D01*
X133885674Y-140938256D01*
X133905460Y-140750000D01*
X133885674Y-140561744D01*
X133827179Y-140381716D01*
X133732533Y-140217784D01*
X133671950Y-140150500D01*
X133632350Y-140106519D01*
X133602120Y-140043527D01*
X133600500Y-140023547D01*
X133600500Y-139726452D01*
X133620185Y-139659413D01*
X133632350Y-139643480D01*
X133642937Y-139631722D01*
X133732533Y-139532216D01*
X133827179Y-139368284D01*
X133885674Y-139188256D01*
X133905460Y-139000000D01*
X133885674Y-138811744D01*
X133827179Y-138631716D01*
X133732533Y-138467784D01*
X133605871Y-138327112D01*
X133605870Y-138327111D01*
X133452734Y-138215851D01*
X133452729Y-138215848D01*
X133279807Y-138138857D01*
X133279802Y-138138855D01*
X133134001Y-138107865D01*
X133094646Y-138099500D01*
X133027568Y-138099500D01*
X132960529Y-138079815D01*
X132914774Y-138027011D01*
X132904247Y-137988462D01*
X132902074Y-137967784D01*
X132885674Y-137811744D01*
X132827179Y-137631716D01*
X132732533Y-137467784D01*
X132605871Y-137327112D01*
X132584719Y-137311744D01*
X132452734Y-137215851D01*
X132452729Y-137215848D01*
X132279807Y-137138857D01*
X132279802Y-137138855D01*
X132110011Y-137102766D01*
X132094646Y-137099500D01*
X131905354Y-137099500D01*
X131905352Y-137099500D01*
X131750280Y-137132461D01*
X131680613Y-137127145D01*
X131624880Y-137085007D01*
X131600775Y-137019427D01*
X131600500Y-137011171D01*
X131600500Y-136226452D01*
X131620185Y-136159413D01*
X131632350Y-136143480D01*
X131636513Y-136138857D01*
X131732533Y-136032216D01*
X131827179Y-135868284D01*
X131885674Y-135688256D01*
X131905460Y-135500000D01*
X131885674Y-135311744D01*
X131827179Y-135131716D01*
X131732533Y-134967784D01*
X131605871Y-134827112D01*
X131605870Y-134827111D01*
X131499736Y-134750000D01*
X153594540Y-134750000D01*
X153614326Y-134938256D01*
X153614327Y-134938259D01*
X153672818Y-135118277D01*
X153672821Y-135118284D01*
X153767467Y-135282216D01*
X153873070Y-135399500D01*
X153894129Y-135422888D01*
X154047265Y-135534148D01*
X154047270Y-135534151D01*
X154220192Y-135611142D01*
X154220197Y-135611144D01*
X154405354Y-135650500D01*
X154405355Y-135650500D01*
X154594644Y-135650500D01*
X154594646Y-135650500D01*
X154713048Y-135625333D01*
X154782714Y-135630649D01*
X154838448Y-135672786D01*
X154862553Y-135738366D01*
X154847376Y-135806567D01*
X154826509Y-135834304D01*
X154381286Y-136279528D01*
X154269481Y-136391332D01*
X154269479Y-136391334D01*
X154252398Y-136420921D01*
X154242390Y-136438256D01*
X154190423Y-136528265D01*
X154149499Y-136680993D01*
X154149499Y-136680995D01*
X154149499Y-136849096D01*
X154149500Y-136849109D01*
X154149500Y-140273547D01*
X154129815Y-140340586D01*
X154117650Y-140356519D01*
X154017466Y-140467785D01*
X153922821Y-140631715D01*
X153922818Y-140631722D01*
X153864327Y-140811740D01*
X153864326Y-140811744D01*
X153844540Y-141000000D01*
X153864326Y-141188256D01*
X153864327Y-141188259D01*
X153922818Y-141368277D01*
X153922821Y-141368284D01*
X154017467Y-141532216D01*
X154111400Y-141636539D01*
X154144129Y-141672888D01*
X154297265Y-141784148D01*
X154297270Y-141784151D01*
X154470192Y-141861142D01*
X154470197Y-141861144D01*
X154655354Y-141900500D01*
X154655355Y-141900500D01*
X154844644Y-141900500D01*
X154844646Y-141900500D01*
X155029803Y-141861144D01*
X155199566Y-141785559D01*
X155268813Y-141776275D01*
X155300430Y-141785557D01*
X155470197Y-141861144D01*
X155655354Y-141900500D01*
X155655355Y-141900500D01*
X155844644Y-141900500D01*
X155844646Y-141900500D01*
X156029803Y-141861144D01*
X156202730Y-141784151D01*
X156250001Y-141749807D01*
X156302115Y-141711944D01*
X156367921Y-141688464D01*
X156435975Y-141704289D01*
X156447885Y-141711944D01*
X156547265Y-141784148D01*
X156547270Y-141784151D01*
X156720192Y-141861142D01*
X156720197Y-141861144D01*
X156905354Y-141900500D01*
X156905355Y-141900500D01*
X157094644Y-141900500D01*
X157094646Y-141900500D01*
X157279803Y-141861144D01*
X157449566Y-141785559D01*
X157518813Y-141776275D01*
X157550430Y-141785557D01*
X157720197Y-141861144D01*
X157905354Y-141900500D01*
X157905355Y-141900500D01*
X158094644Y-141900500D01*
X158094646Y-141900500D01*
X158279803Y-141861144D01*
X158452730Y-141784151D01*
X158605871Y-141672888D01*
X158732533Y-141532216D01*
X158827179Y-141368284D01*
X158885674Y-141188256D01*
X158905460Y-141000000D01*
X158885674Y-140811744D01*
X158827179Y-140631716D01*
X158732533Y-140467784D01*
X158661465Y-140388855D01*
X158632350Y-140356519D01*
X158602120Y-140293527D01*
X158600500Y-140273547D01*
X158600500Y-139726452D01*
X158620185Y-139659413D01*
X158632350Y-139643480D01*
X158642937Y-139631722D01*
X158732533Y-139532216D01*
X158827179Y-139368284D01*
X158885674Y-139188256D01*
X158905460Y-139000000D01*
X158885674Y-138811744D01*
X158827179Y-138631716D01*
X158732533Y-138467784D01*
X158605871Y-138327112D01*
X158605870Y-138327111D01*
X158452734Y-138215851D01*
X158452729Y-138215848D01*
X158279807Y-138138857D01*
X158279802Y-138138855D01*
X158134001Y-138107865D01*
X158094646Y-138099500D01*
X158027568Y-138099500D01*
X157960529Y-138079815D01*
X157914774Y-138027011D01*
X157904247Y-137988462D01*
X157902074Y-137967784D01*
X157885674Y-137811744D01*
X157827179Y-137631716D01*
X157732533Y-137467784D01*
X157605871Y-137327112D01*
X157584719Y-137311744D01*
X157452734Y-137215851D01*
X157452729Y-137215848D01*
X157279807Y-137138857D01*
X157279800Y-137138855D01*
X157197161Y-137121290D01*
X157135679Y-137088098D01*
X157101902Y-137026935D01*
X157106554Y-136957221D01*
X157148158Y-136901088D01*
X157197161Y-136878710D01*
X157203201Y-136877426D01*
X157279803Y-136861144D01*
X157452730Y-136784151D01*
X157605871Y-136672888D01*
X157732533Y-136532216D01*
X157827179Y-136368284D01*
X157885674Y-136188256D01*
X157905460Y-136000000D01*
X157885674Y-135811744D01*
X157827179Y-135631716D01*
X157732533Y-135467784D01*
X157723698Y-135457972D01*
X157693469Y-135394981D01*
X157702093Y-135325646D01*
X157723699Y-135292027D01*
X157732533Y-135282216D01*
X157827179Y-135118284D01*
X157885674Y-134938256D01*
X157905460Y-134750000D01*
X157885674Y-134561744D01*
X157827179Y-134381716D01*
X157732533Y-134217784D01*
X157605871Y-134077112D01*
X157601636Y-134074035D01*
X157452734Y-133965851D01*
X157452729Y-133965848D01*
X157279807Y-133888857D01*
X157279802Y-133888855D01*
X157134001Y-133857865D01*
X157094646Y-133849500D01*
X156905354Y-133849500D01*
X156872897Y-133856398D01*
X156720197Y-133888855D01*
X156720192Y-133888857D01*
X156547270Y-133965848D01*
X156547265Y-133965851D01*
X156394135Y-134077106D01*
X156394128Y-134077112D01*
X156365891Y-134108473D01*
X156306405Y-134145121D01*
X156273742Y-134149500D01*
X155226258Y-134149500D01*
X155159219Y-134129815D01*
X155134109Y-134108473D01*
X155105871Y-134077112D01*
X155105864Y-134077106D01*
X154952734Y-133965851D01*
X154952729Y-133965848D01*
X154779807Y-133888857D01*
X154779802Y-133888855D01*
X154634001Y-133857865D01*
X154594646Y-133849500D01*
X154405354Y-133849500D01*
X154372897Y-133856398D01*
X154220197Y-133888855D01*
X154220192Y-133888857D01*
X154047270Y-133965848D01*
X154047265Y-133965851D01*
X153894129Y-134077111D01*
X153767466Y-134217785D01*
X153672821Y-134381715D01*
X153672818Y-134381722D01*
X153615389Y-134558473D01*
X153614326Y-134561744D01*
X153594540Y-134750000D01*
X131499736Y-134750000D01*
X131452734Y-134715851D01*
X131452729Y-134715848D01*
X131279807Y-134638857D01*
X131279802Y-134638855D01*
X131134001Y-134607865D01*
X131094646Y-134599500D01*
X130905354Y-134599500D01*
X130872897Y-134606398D01*
X130720197Y-134638855D01*
X130720192Y-134638857D01*
X130547270Y-134715848D01*
X130547265Y-134715851D01*
X130394129Y-134827111D01*
X130267466Y-134967785D01*
X130172821Y-135131715D01*
X130172818Y-135131722D01*
X130123920Y-135282216D01*
X130114326Y-135311744D01*
X130094540Y-135500000D01*
X130114326Y-135688256D01*
X130114327Y-135688259D01*
X130172818Y-135868277D01*
X130172821Y-135868284D01*
X130229149Y-135965848D01*
X130241751Y-135987674D01*
X130258224Y-136055574D01*
X130235371Y-136121601D01*
X130180450Y-136164792D01*
X130110897Y-136171433D01*
X130083929Y-136162954D01*
X130029802Y-136138855D01*
X129884001Y-136107865D01*
X129844646Y-136099500D01*
X129655354Y-136099500D01*
X129622897Y-136106398D01*
X129470197Y-136138855D01*
X129470192Y-136138857D01*
X129297270Y-136215848D01*
X129297265Y-136215851D01*
X129144129Y-136327111D01*
X129017466Y-136467785D01*
X128922821Y-136631715D01*
X128922818Y-136631722D01*
X128867857Y-136800877D01*
X128864326Y-136811744D01*
X128844540Y-137000000D01*
X106887276Y-137000000D01*
X106881216Y-136957853D01*
X106884617Y-136943227D01*
X106885672Y-136938261D01*
X106885674Y-136938256D01*
X106905460Y-136750000D01*
X106885674Y-136561744D01*
X106827179Y-136381716D01*
X106732533Y-136217784D01*
X106605871Y-136077112D01*
X106605870Y-136077111D01*
X106452734Y-135965851D01*
X106452729Y-135965848D01*
X106279807Y-135888857D01*
X106279802Y-135888855D01*
X106134001Y-135857865D01*
X106094646Y-135849500D01*
X105905354Y-135849500D01*
X105872897Y-135856398D01*
X105720197Y-135888855D01*
X105720192Y-135888857D01*
X105547271Y-135965848D01*
X105447885Y-136038056D01*
X105382078Y-136061535D01*
X105314025Y-136045709D01*
X105302115Y-136038056D01*
X105239025Y-135992219D01*
X105202730Y-135965849D01*
X105202728Y-135965848D01*
X105202729Y-135965848D01*
X105029807Y-135888857D01*
X105029802Y-135888855D01*
X104884001Y-135857865D01*
X104844646Y-135849500D01*
X104655354Y-135849500D01*
X104622897Y-135856398D01*
X104470197Y-135888855D01*
X104470192Y-135888857D01*
X104297270Y-135965848D01*
X104297265Y-135965851D01*
X104144129Y-136077111D01*
X104017466Y-136217785D01*
X103922821Y-136381715D01*
X103922818Y-136381722D01*
X103864327Y-136561740D01*
X103864326Y-136561744D01*
X103844540Y-136750000D01*
X81751133Y-136750000D01*
X81732533Y-136717784D01*
X81605871Y-136577112D01*
X81584719Y-136561744D01*
X81452734Y-136465851D01*
X81452729Y-136465848D01*
X81279807Y-136388857D01*
X81279802Y-136388855D01*
X81134001Y-136357865D01*
X81094646Y-136349500D01*
X80905354Y-136349500D01*
X80872897Y-136356398D01*
X80720197Y-136388855D01*
X80720192Y-136388857D01*
X80547270Y-136465848D01*
X80547265Y-136465851D01*
X80394129Y-136577111D01*
X80267466Y-136717785D01*
X80172821Y-136881715D01*
X80172818Y-136881722D01*
X80119536Y-137045709D01*
X80114326Y-137061744D01*
X80094540Y-137250000D01*
X80114326Y-137438256D01*
X80114327Y-137438259D01*
X80172818Y-137618277D01*
X80172821Y-137618284D01*
X80267467Y-137782216D01*
X80357063Y-137881722D01*
X80367650Y-137893480D01*
X80397880Y-137956471D01*
X80399500Y-137976452D01*
X80399500Y-140261171D01*
X80379815Y-140328210D01*
X80327011Y-140373965D01*
X80257853Y-140383909D01*
X80249720Y-140382461D01*
X80094647Y-140349500D01*
X80094646Y-140349500D01*
X80070808Y-140349500D01*
X80003769Y-140329815D01*
X79983127Y-140313181D01*
X78186819Y-138516873D01*
X78153334Y-138455550D01*
X78150500Y-138429192D01*
X78150500Y-135920921D01*
X78170185Y-135853882D01*
X78182351Y-135837948D01*
X78198345Y-135820185D01*
X78232533Y-135782216D01*
X78327179Y-135618284D01*
X78385674Y-135438256D01*
X78405460Y-135250000D01*
X78385674Y-135061744D01*
X78327179Y-134881716D01*
X78232533Y-134717784D01*
X78105871Y-134577112D01*
X78105870Y-134577111D01*
X77952734Y-134465851D01*
X77952729Y-134465848D01*
X77779807Y-134388857D01*
X77779802Y-134388855D01*
X77619952Y-134354879D01*
X77594646Y-134349500D01*
X77405354Y-134349500D01*
X77400645Y-134350501D01*
X77220197Y-134388855D01*
X77220192Y-134388857D01*
X77047270Y-134465848D01*
X77047265Y-134465851D01*
X76894129Y-134577111D01*
X76767466Y-134717785D01*
X76672821Y-134881715D01*
X76672818Y-134881722D01*
X76623921Y-135032214D01*
X76614326Y-135061744D01*
X76594540Y-135250000D01*
X55655460Y-135250000D01*
X55635674Y-135061744D01*
X55577179Y-134881716D01*
X55482533Y-134717784D01*
X55355871Y-134577112D01*
X55355870Y-134577111D01*
X55202734Y-134465851D01*
X55202729Y-134465848D01*
X55029807Y-134388857D01*
X55029802Y-134388855D01*
X54869952Y-134354879D01*
X54844646Y-134349500D01*
X54655354Y-134349500D01*
X54650645Y-134350501D01*
X54470197Y-134388855D01*
X54470192Y-134388857D01*
X54297270Y-134465848D01*
X54297265Y-134465851D01*
X54144129Y-134577111D01*
X54017466Y-134717785D01*
X53922821Y-134881715D01*
X53922818Y-134881722D01*
X53873921Y-135032214D01*
X53864326Y-135061744D01*
X53844540Y-135250000D01*
X20500500Y-135250000D01*
X20500500Y-131750000D01*
X77094540Y-131750000D01*
X77114326Y-131938256D01*
X77114327Y-131938259D01*
X77172818Y-132118277D01*
X77172821Y-132118284D01*
X77267467Y-132282216D01*
X77363487Y-132388857D01*
X77394129Y-132422888D01*
X77547265Y-132534148D01*
X77547270Y-132534151D01*
X77720192Y-132611142D01*
X77720197Y-132611144D01*
X77905354Y-132650500D01*
X77905355Y-132650500D01*
X78094644Y-132650500D01*
X78094646Y-132650500D01*
X78279803Y-132611144D01*
X78452730Y-132534151D01*
X78604090Y-132424182D01*
X78669896Y-132400702D01*
X78676975Y-132400500D01*
X81679192Y-132400500D01*
X81746231Y-132420185D01*
X81766873Y-132436819D01*
X82065191Y-132735137D01*
X82098676Y-132796460D01*
X82100830Y-132809851D01*
X82114326Y-132938256D01*
X82114327Y-132938259D01*
X82172818Y-133118277D01*
X82172821Y-133118284D01*
X82267467Y-133282216D01*
X82363487Y-133388857D01*
X82394129Y-133422888D01*
X82547265Y-133534148D01*
X82547270Y-133534151D01*
X82720192Y-133611142D01*
X82720197Y-133611144D01*
X82905354Y-133650500D01*
X82905355Y-133650500D01*
X83094644Y-133650500D01*
X83094646Y-133650500D01*
X83279803Y-133611144D01*
X83452730Y-133534151D01*
X83605871Y-133422888D01*
X83732533Y-133282216D01*
X83827179Y-133118284D01*
X83885674Y-132938256D01*
X83905460Y-132750000D01*
X83885674Y-132561744D01*
X83827179Y-132381716D01*
X83732533Y-132217784D01*
X83605871Y-132077112D01*
X83583893Y-132061144D01*
X83452734Y-131965851D01*
X83452729Y-131965848D01*
X83279807Y-131888857D01*
X83279802Y-131888855D01*
X83134001Y-131857865D01*
X83094646Y-131849500D01*
X83094645Y-131849500D01*
X83070808Y-131849500D01*
X83003769Y-131829815D01*
X82983127Y-131813181D01*
X82414674Y-131244727D01*
X82414673Y-131244726D01*
X82395663Y-131232024D01*
X82308127Y-131173535D01*
X82300039Y-131170185D01*
X82189744Y-131124499D01*
X82189738Y-131124497D01*
X82064071Y-131099500D01*
X82064069Y-131099500D01*
X78676975Y-131099500D01*
X78609936Y-131079815D01*
X78604090Y-131075818D01*
X78452734Y-130965851D01*
X78452729Y-130965848D01*
X78279807Y-130888857D01*
X78279802Y-130888855D01*
X78134001Y-130857865D01*
X78094646Y-130849500D01*
X77905354Y-130849500D01*
X77872897Y-130856398D01*
X77720197Y-130888855D01*
X77720192Y-130888857D01*
X77547270Y-130965848D01*
X77547265Y-130965851D01*
X77394129Y-131077111D01*
X77267466Y-131217785D01*
X77172821Y-131381715D01*
X77172818Y-131381722D01*
X77150633Y-131450002D01*
X77114326Y-131561744D01*
X77094540Y-131750000D01*
X20500500Y-131750000D01*
X20500500Y-129000000D01*
X145594540Y-129000000D01*
X145614326Y-129188256D01*
X145614327Y-129188259D01*
X145672818Y-129368277D01*
X145672821Y-129368284D01*
X145767467Y-129532216D01*
X145855346Y-129629815D01*
X145894129Y-129672888D01*
X146047265Y-129784148D01*
X146047270Y-129784151D01*
X146220192Y-129861142D01*
X146220197Y-129861144D01*
X146405354Y-129900500D01*
X146405355Y-129900500D01*
X146594644Y-129900500D01*
X146594646Y-129900500D01*
X146694760Y-129879220D01*
X146764426Y-129884536D01*
X146820160Y-129926673D01*
X146844265Y-129992253D01*
X146844515Y-129999759D01*
X146844540Y-129999998D01*
X146844540Y-130000000D01*
X146864326Y-130188256D01*
X146864327Y-130188259D01*
X146922818Y-130368277D01*
X146922821Y-130368284D01*
X147017467Y-130532216D01*
X147117329Y-130643124D01*
X147144129Y-130672888D01*
X147297265Y-130784148D01*
X147297270Y-130784151D01*
X147470192Y-130861142D01*
X147470197Y-130861144D01*
X147655354Y-130900500D01*
X147655355Y-130900500D01*
X147844644Y-130900500D01*
X147844646Y-130900500D01*
X148029803Y-130861144D01*
X148202730Y-130784151D01*
X148355871Y-130672888D01*
X148384109Y-130641527D01*
X148443595Y-130604879D01*
X148476258Y-130600500D01*
X148512292Y-130600500D01*
X148579331Y-130620185D01*
X148625086Y-130672989D01*
X148635030Y-130742147D01*
X148630223Y-130762818D01*
X148623292Y-130784151D01*
X148614326Y-130811744D01*
X148594540Y-131000000D01*
X148614326Y-131188256D01*
X148614327Y-131188259D01*
X148672818Y-131368277D01*
X148672821Y-131368284D01*
X148767467Y-131532216D01*
X148889705Y-131667975D01*
X148894129Y-131672888D01*
X149047265Y-131784148D01*
X149047270Y-131784151D01*
X149220192Y-131861142D01*
X149220197Y-131861144D01*
X149405354Y-131900500D01*
X149405355Y-131900500D01*
X149594644Y-131900500D01*
X149594646Y-131900500D01*
X149779803Y-131861144D01*
X149929098Y-131794672D01*
X149998344Y-131785387D01*
X150061621Y-131815015D01*
X150098835Y-131874150D01*
X150102852Y-131920913D01*
X150094540Y-132000000D01*
X150114326Y-132188256D01*
X150114327Y-132188259D01*
X150172818Y-132368277D01*
X150172821Y-132368284D01*
X150267467Y-132532216D01*
X150373971Y-132650500D01*
X150394129Y-132672888D01*
X150547265Y-132784148D01*
X150547270Y-132784151D01*
X150720192Y-132861142D01*
X150720197Y-132861144D01*
X150905354Y-132900500D01*
X150905355Y-132900500D01*
X150972432Y-132900500D01*
X151039471Y-132920185D01*
X151085226Y-132972989D01*
X151095752Y-133011535D01*
X151114326Y-133188256D01*
X151114327Y-133188259D01*
X151172818Y-133368277D01*
X151172821Y-133368284D01*
X151267467Y-133532216D01*
X151373971Y-133650500D01*
X151394129Y-133672888D01*
X151547265Y-133784148D01*
X151547270Y-133784151D01*
X151720192Y-133861142D01*
X151720197Y-133861144D01*
X151905354Y-133900500D01*
X151905355Y-133900500D01*
X152094644Y-133900500D01*
X152094646Y-133900500D01*
X152279803Y-133861144D01*
X152452730Y-133784151D01*
X152605871Y-133672888D01*
X152634109Y-133641527D01*
X152693595Y-133604879D01*
X152726258Y-133600500D01*
X163972537Y-133600500D01*
X164039576Y-133620185D01*
X164085331Y-133672989D01*
X164095857Y-133737460D01*
X164094540Y-133750000D01*
X164114326Y-133938256D01*
X164114327Y-133938259D01*
X164172818Y-134118277D01*
X164172821Y-134118284D01*
X164267467Y-134282216D01*
X164387518Y-134415546D01*
X164394129Y-134422888D01*
X164547265Y-134534148D01*
X164547270Y-134534151D01*
X164720192Y-134611142D01*
X164720197Y-134611144D01*
X164905354Y-134650500D01*
X164905355Y-134650500D01*
X165094644Y-134650500D01*
X165094646Y-134650500D01*
X165279803Y-134611144D01*
X165452730Y-134534151D01*
X165605871Y-134422888D01*
X165634109Y-134391527D01*
X165693595Y-134354879D01*
X165726258Y-134350500D01*
X184571174Y-134350500D01*
X184571190Y-134350501D01*
X184578786Y-134350501D01*
X184736897Y-134350501D01*
X184736900Y-134350501D01*
X184889628Y-134309577D01*
X184939956Y-134280520D01*
X184939957Y-134280520D01*
X185026552Y-134230524D01*
X185026551Y-134230524D01*
X185026559Y-134230520D01*
X185138363Y-134118716D01*
X185138363Y-134118714D01*
X185148567Y-134108511D01*
X185148570Y-134108506D01*
X185257076Y-134000000D01*
X187344540Y-134000000D01*
X187364326Y-134188256D01*
X187364327Y-134188259D01*
X187422818Y-134368277D01*
X187422821Y-134368284D01*
X187517467Y-134532216D01*
X187613487Y-134638857D01*
X187644129Y-134672888D01*
X187797265Y-134784148D01*
X187797270Y-134784151D01*
X187970192Y-134861142D01*
X187970197Y-134861144D01*
X188155354Y-134900500D01*
X188155355Y-134900500D01*
X188344644Y-134900500D01*
X188344646Y-134900500D01*
X188529803Y-134861144D01*
X188702730Y-134784151D01*
X188854090Y-134674182D01*
X188919896Y-134650702D01*
X188926975Y-134650500D01*
X190564071Y-134650500D01*
X190648615Y-134633682D01*
X190689744Y-134625501D01*
X190808127Y-134576465D01*
X190830159Y-134561744D01*
X190835055Y-134558473D01*
X190881999Y-134527106D01*
X190914669Y-134505277D01*
X191483126Y-133936818D01*
X191544449Y-133903334D01*
X191570807Y-133900500D01*
X193323025Y-133900500D01*
X193390064Y-133920185D01*
X193395910Y-133924182D01*
X193547265Y-134034148D01*
X193547270Y-134034151D01*
X193720192Y-134111142D01*
X193720197Y-134111144D01*
X193905354Y-134150500D01*
X193905355Y-134150500D01*
X194094644Y-134150500D01*
X194094646Y-134150500D01*
X194279803Y-134111144D01*
X194452730Y-134034151D01*
X194605871Y-133922888D01*
X194732533Y-133782216D01*
X194827179Y-133618284D01*
X194885674Y-133438256D01*
X194905460Y-133250000D01*
X194885674Y-133061744D01*
X194827179Y-132881716D01*
X194732533Y-132717784D01*
X194605871Y-132577112D01*
X194584719Y-132561744D01*
X194452734Y-132465851D01*
X194452729Y-132465848D01*
X194279807Y-132388857D01*
X194279802Y-132388855D01*
X194134001Y-132357865D01*
X194094646Y-132349500D01*
X193905354Y-132349500D01*
X193872897Y-132356398D01*
X193720197Y-132388855D01*
X193720192Y-132388857D01*
X193547270Y-132465848D01*
X193547265Y-132465851D01*
X193395910Y-132575818D01*
X193330104Y-132599298D01*
X193323025Y-132599500D01*
X191185929Y-132599500D01*
X191060261Y-132624497D01*
X191060255Y-132624499D01*
X190941875Y-132673533D01*
X190941866Y-132673538D01*
X190835331Y-132744723D01*
X190835327Y-132744726D01*
X190266873Y-133313181D01*
X190205550Y-133346666D01*
X190179192Y-133349500D01*
X188926975Y-133349500D01*
X188859936Y-133329815D01*
X188854090Y-133325818D01*
X188702734Y-133215851D01*
X188702729Y-133215848D01*
X188529807Y-133138857D01*
X188529802Y-133138855D01*
X188384001Y-133107865D01*
X188344646Y-133099500D01*
X188155354Y-133099500D01*
X188122897Y-133106398D01*
X187970197Y-133138855D01*
X187970192Y-133138857D01*
X187797270Y-133215848D01*
X187797265Y-133215851D01*
X187644129Y-133327111D01*
X187517466Y-133467785D01*
X187422821Y-133631715D01*
X187422818Y-133631722D01*
X187365733Y-133807414D01*
X187364326Y-133811744D01*
X187344540Y-134000000D01*
X185257076Y-134000000D01*
X189470259Y-129786819D01*
X189531582Y-129753334D01*
X189557940Y-129750500D01*
X195980393Y-129750500D01*
X196047432Y-129770185D01*
X196093187Y-129822989D01*
X196103131Y-129892147D01*
X196102015Y-129898661D01*
X196099501Y-129911304D01*
X196099500Y-129911311D01*
X196099500Y-129946306D01*
X196098821Y-129959266D01*
X196094540Y-129999999D01*
X196098821Y-130040731D01*
X196099500Y-130053692D01*
X196099500Y-133446306D01*
X196098821Y-133459266D01*
X196094540Y-133499999D01*
X196098821Y-133540731D01*
X196099500Y-133553692D01*
X196099500Y-133588695D01*
X196107637Y-133629602D01*
X196109341Y-133640831D01*
X196114325Y-133688253D01*
X196114325Y-133688254D01*
X196114326Y-133688256D01*
X196123920Y-133717785D01*
X196124904Y-133720811D01*
X196128590Y-133734938D01*
X196134104Y-133762662D01*
X196134105Y-133762664D01*
X196152644Y-133807423D01*
X196156012Y-133816554D01*
X196172819Y-133868279D01*
X196172822Y-133868286D01*
X196186569Y-133892097D01*
X196193742Y-133906643D01*
X196201984Y-133926542D01*
X196232634Y-133972413D01*
X196236912Y-133979294D01*
X196248867Y-134000000D01*
X196267468Y-134032218D01*
X196267469Y-134032219D01*
X196281357Y-134047643D01*
X196292307Y-134061721D01*
X196300534Y-134074033D01*
X196344274Y-134117773D01*
X196348744Y-134122483D01*
X196394129Y-134172888D01*
X196394131Y-134172890D01*
X196405467Y-134181126D01*
X196420263Y-134193763D01*
X196425961Y-134199461D01*
X196425965Y-134199464D01*
X196482994Y-134237570D01*
X196486966Y-134240338D01*
X196547270Y-134284151D01*
X196553902Y-134287104D01*
X196572361Y-134297283D01*
X196573453Y-134298013D01*
X196643042Y-134326836D01*
X196645987Y-134328102D01*
X196720197Y-134361144D01*
X196720668Y-134361244D01*
X196720696Y-134361250D01*
X196731370Y-134364562D01*
X196731503Y-134364125D01*
X196737330Y-134365892D01*
X196737334Y-134365894D01*
X196817816Y-134381902D01*
X196819282Y-134382204D01*
X196905354Y-134400500D01*
X196905355Y-134400500D01*
X197094645Y-134400500D01*
X197094646Y-134400500D01*
X197180746Y-134382198D01*
X197182180Y-134381902D01*
X197262666Y-134365894D01*
X197262669Y-134365892D01*
X197262672Y-134365892D01*
X197268496Y-134364126D01*
X197268631Y-134364573D01*
X197279315Y-134361247D01*
X197279803Y-134361144D01*
X197354057Y-134328082D01*
X197356955Y-134326837D01*
X197426547Y-134298013D01*
X197427633Y-134297287D01*
X197446095Y-134287104D01*
X197452730Y-134284151D01*
X197513054Y-134240322D01*
X197516952Y-134237605D01*
X197574035Y-134199464D01*
X197579739Y-134193758D01*
X197594531Y-134181126D01*
X197605871Y-134172888D01*
X197651274Y-134122461D01*
X197655687Y-134117810D01*
X197699464Y-134074035D01*
X197707687Y-134061727D01*
X197718642Y-134047643D01*
X197728928Y-134036219D01*
X197732533Y-134032216D01*
X197763091Y-133979284D01*
X197767368Y-133972408D01*
X197798013Y-133926547D01*
X197806259Y-133906637D01*
X197813433Y-133892091D01*
X197815301Y-133888857D01*
X197827179Y-133868284D01*
X197843995Y-133816528D01*
X197847355Y-133807423D01*
X197865894Y-133762666D01*
X197871411Y-133734927D01*
X197875094Y-133720813D01*
X197885674Y-133688256D01*
X197890656Y-133640837D01*
X197892361Y-133629604D01*
X197900500Y-133588695D01*
X197900500Y-133553692D01*
X197901179Y-133540731D01*
X197905460Y-133500000D01*
X197901179Y-133459266D01*
X197900500Y-133446306D01*
X197900500Y-130053692D01*
X197901179Y-130040731D01*
X197902074Y-130032214D01*
X197905460Y-130000000D01*
X197901179Y-129959266D01*
X197900500Y-129946306D01*
X197900500Y-129911305D01*
X197900499Y-129911304D01*
X197897991Y-129898691D01*
X197904218Y-129829100D01*
X197947081Y-129773922D01*
X198012971Y-129750678D01*
X198019608Y-129750500D01*
X198934602Y-129750500D01*
X199001641Y-129770185D01*
X199047396Y-129822989D01*
X199057340Y-129892147D01*
X199028315Y-129955703D01*
X199026752Y-129957472D01*
X199017466Y-129967785D01*
X198922821Y-130131715D01*
X198922818Y-130131722D01*
X198868304Y-130299500D01*
X198864326Y-130311744D01*
X198844540Y-130500000D01*
X198864326Y-130688256D01*
X198864327Y-130688259D01*
X198922818Y-130868277D01*
X198922821Y-130868284D01*
X199017467Y-131032216D01*
X199100559Y-131124499D01*
X199144129Y-131172888D01*
X199297265Y-131284148D01*
X199297270Y-131284151D01*
X199470192Y-131361142D01*
X199470197Y-131361144D01*
X199655354Y-131400500D01*
X199655355Y-131400500D01*
X199844644Y-131400500D01*
X199844646Y-131400500D01*
X200029803Y-131361144D01*
X200202730Y-131284151D01*
X200354090Y-131174182D01*
X200419896Y-131150702D01*
X200426975Y-131150500D01*
X201179192Y-131150500D01*
X201246231Y-131170185D01*
X201266873Y-131186819D01*
X201785324Y-131705271D01*
X201785327Y-131705274D01*
X201785330Y-131705276D01*
X201852265Y-131750000D01*
X201891873Y-131776465D01*
X202010256Y-131825501D01*
X202010260Y-131825501D01*
X202010261Y-131825502D01*
X202135928Y-131850500D01*
X202135931Y-131850500D01*
X203823025Y-131850500D01*
X203890064Y-131870185D01*
X203895910Y-131874182D01*
X204047265Y-131984148D01*
X204047270Y-131984151D01*
X204220192Y-132061142D01*
X204220197Y-132061144D01*
X204405354Y-132100500D01*
X204405355Y-132100500D01*
X204594644Y-132100500D01*
X204594646Y-132100500D01*
X204779803Y-132061144D01*
X204952730Y-131984151D01*
X205105871Y-131872888D01*
X205232533Y-131732216D01*
X205327179Y-131568284D01*
X205385674Y-131388256D01*
X205405460Y-131200000D01*
X205385674Y-131011744D01*
X205327179Y-130831716D01*
X205232533Y-130667784D01*
X205105871Y-130527112D01*
X205086697Y-130513181D01*
X204952734Y-130415851D01*
X204952729Y-130415848D01*
X204779807Y-130338857D01*
X204779802Y-130338855D01*
X204634001Y-130307865D01*
X204594646Y-130299500D01*
X204405354Y-130299500D01*
X204372897Y-130306398D01*
X204220197Y-130338855D01*
X204220192Y-130338857D01*
X204047270Y-130415848D01*
X204047265Y-130415851D01*
X203895910Y-130525818D01*
X203830104Y-130549298D01*
X203823025Y-130549500D01*
X202520808Y-130549500D01*
X202453769Y-130529815D01*
X202433127Y-130513181D01*
X201914674Y-129994727D01*
X201914671Y-129994724D01*
X201889045Y-129977602D01*
X201844240Y-129923990D01*
X201835533Y-129854665D01*
X201865687Y-129791638D01*
X201925130Y-129754918D01*
X201957936Y-129750500D01*
X215850903Y-129750500D01*
X215917942Y-129770185D01*
X215963697Y-129822989D01*
X215973641Y-129892147D01*
X215944616Y-129955703D01*
X215938584Y-129962181D01*
X208787584Y-137113181D01*
X208726261Y-137146666D01*
X208699903Y-137149500D01*
X181086670Y-137149500D01*
X181086654Y-137149499D01*
X181079058Y-137149499D01*
X180920943Y-137149499D01*
X180844579Y-137169961D01*
X180768214Y-137190423D01*
X180768209Y-137190426D01*
X180631290Y-137269475D01*
X180631282Y-137269481D01*
X180124217Y-137776546D01*
X180124214Y-137776548D01*
X180124215Y-137776549D01*
X180019478Y-137881286D01*
X180019475Y-137881290D01*
X179969540Y-137967782D01*
X179969540Y-137967783D01*
X179940423Y-138018214D01*
X179940423Y-138018215D01*
X179899499Y-138170943D01*
X179899499Y-138170945D01*
X179899499Y-138339046D01*
X179899500Y-138339059D01*
X179899500Y-140490852D01*
X179879815Y-140557891D01*
X179827011Y-140603646D01*
X179757853Y-140613590D01*
X179694297Y-140584565D01*
X179687819Y-140578533D01*
X176354012Y-137244726D01*
X176354008Y-137244723D01*
X176247466Y-137173535D01*
X176213802Y-137159591D01*
X176129083Y-137124499D01*
X176129077Y-137124497D01*
X176003410Y-137099500D01*
X176003408Y-137099500D01*
X171176975Y-137099500D01*
X171109936Y-137079815D01*
X171104090Y-137075818D01*
X170952734Y-136965851D01*
X170952729Y-136965848D01*
X170779807Y-136888857D01*
X170779802Y-136888855D01*
X170634001Y-136857865D01*
X170594646Y-136849500D01*
X170405354Y-136849500D01*
X170372897Y-136856398D01*
X170220197Y-136888855D01*
X170220192Y-136888857D01*
X170047271Y-136965848D01*
X169947885Y-137038056D01*
X169882078Y-137061535D01*
X169814025Y-137045709D01*
X169802115Y-137038056D01*
X169749735Y-137000000D01*
X169702730Y-136965849D01*
X169702728Y-136965848D01*
X169702729Y-136965848D01*
X169529807Y-136888857D01*
X169529802Y-136888855D01*
X169384001Y-136857865D01*
X169344646Y-136849500D01*
X169155354Y-136849500D01*
X169122897Y-136856398D01*
X168970197Y-136888855D01*
X168970192Y-136888857D01*
X168797270Y-136965848D01*
X168797265Y-136965851D01*
X168644129Y-137077111D01*
X168517466Y-137217785D01*
X168422821Y-137381715D01*
X168422818Y-137381722D01*
X168369132Y-137546953D01*
X168364326Y-137561744D01*
X168344540Y-137750000D01*
X168364326Y-137938256D01*
X168364327Y-137938259D01*
X168422818Y-138118277D01*
X168422821Y-138118284D01*
X168517467Y-138282216D01*
X168623971Y-138400500D01*
X168644129Y-138422888D01*
X168797265Y-138534148D01*
X168797270Y-138534151D01*
X168970192Y-138611142D01*
X168970197Y-138611144D01*
X169155354Y-138650500D01*
X169179193Y-138650500D01*
X169246232Y-138670185D01*
X169266874Y-138686819D01*
X169494724Y-138914669D01*
X169547839Y-138967784D01*
X169585332Y-139005277D01*
X169691866Y-139076461D01*
X169691875Y-139076466D01*
X169718692Y-139087574D01*
X169810256Y-139125501D01*
X169810260Y-139125501D01*
X169810261Y-139125502D01*
X169935928Y-139150500D01*
X169935931Y-139150500D01*
X175179192Y-139150500D01*
X175246231Y-139170185D01*
X175266873Y-139186819D01*
X177315191Y-141235137D01*
X177348676Y-141296460D01*
X177350830Y-141309851D01*
X177364326Y-141438256D01*
X177364327Y-141438259D01*
X177422818Y-141618277D01*
X177422821Y-141618284D01*
X177517467Y-141782216D01*
X177623971Y-141900500D01*
X177644129Y-141922888D01*
X177797265Y-142034148D01*
X177797270Y-142034151D01*
X177970192Y-142111142D01*
X177970197Y-142111144D01*
X178155354Y-142150500D01*
X178155355Y-142150500D01*
X178344644Y-142150500D01*
X178344646Y-142150500D01*
X178529803Y-142111144D01*
X178702730Y-142034151D01*
X178855871Y-141922888D01*
X178927828Y-141842971D01*
X178987312Y-141806324D01*
X179057169Y-141807654D01*
X179107657Y-141838264D01*
X179774664Y-142505272D01*
X179774671Y-142505278D01*
X179881202Y-142576459D01*
X179881206Y-142576461D01*
X179881213Y-142576466D01*
X179939237Y-142600500D01*
X179999595Y-142625501D01*
X179999599Y-142625501D01*
X179999600Y-142625502D01*
X180125267Y-142650500D01*
X180125270Y-142650500D01*
X184564071Y-142650500D01*
X184648615Y-142633682D01*
X184689744Y-142625501D01*
X184808127Y-142576465D01*
X184808136Y-142576459D01*
X184846984Y-142550502D01*
X184846985Y-142550502D01*
X184908235Y-142509576D01*
X184914669Y-142505277D01*
X185233127Y-142186819D01*
X185294450Y-142153334D01*
X185320808Y-142150500D01*
X185344644Y-142150500D01*
X185344646Y-142150500D01*
X185529803Y-142111144D01*
X185702730Y-142034151D01*
X185855871Y-141922888D01*
X185982533Y-141782216D01*
X186077179Y-141618284D01*
X186135674Y-141438256D01*
X186155460Y-141250000D01*
X186135674Y-141061744D01*
X186077179Y-140881716D01*
X185982533Y-140717784D01*
X185855871Y-140577112D01*
X185855870Y-140577111D01*
X185702734Y-140465851D01*
X185702729Y-140465848D01*
X185529807Y-140388857D01*
X185529802Y-140388855D01*
X185377668Y-140356519D01*
X185344646Y-140349500D01*
X185155354Y-140349500D01*
X185122897Y-140356398D01*
X184970197Y-140388855D01*
X184970192Y-140388857D01*
X184797270Y-140465848D01*
X184797265Y-140465851D01*
X184644129Y-140577111D01*
X184517466Y-140717785D01*
X184422821Y-140881715D01*
X184422818Y-140881722D01*
X184364327Y-141061740D01*
X184364326Y-141061744D01*
X184352143Y-141177659D01*
X184350831Y-141190143D01*
X184324246Y-141254758D01*
X184315192Y-141264861D01*
X184266874Y-141313180D01*
X184205551Y-141346666D01*
X184179192Y-141349500D01*
X184027568Y-141349500D01*
X183960529Y-141329815D01*
X183914774Y-141277011D01*
X183904247Y-141238462D01*
X183903898Y-141235137D01*
X183885674Y-141061744D01*
X183827179Y-140881716D01*
X183732533Y-140717784D01*
X183605871Y-140577112D01*
X183605870Y-140577111D01*
X183452734Y-140465851D01*
X183452729Y-140465848D01*
X183279807Y-140388857D01*
X183279803Y-140388856D01*
X183198718Y-140371620D01*
X183137236Y-140338427D01*
X183103460Y-140277263D01*
X183100500Y-140250330D01*
X183100500Y-140226452D01*
X183120185Y-140159413D01*
X183132350Y-140143480D01*
X183135979Y-140139450D01*
X183232533Y-140032216D01*
X183327179Y-139868284D01*
X183385674Y-139688256D01*
X183405460Y-139500000D01*
X183385674Y-139311744D01*
X183327179Y-139131716D01*
X183232533Y-138967784D01*
X183105871Y-138827112D01*
X183105870Y-138827111D01*
X182952734Y-138715851D01*
X182952729Y-138715848D01*
X182779807Y-138638857D01*
X182779802Y-138638855D01*
X182634001Y-138607865D01*
X182594646Y-138599500D01*
X182527568Y-138599500D01*
X182460529Y-138579815D01*
X182414774Y-138527011D01*
X182404246Y-138488449D01*
X182404141Y-138487449D01*
X182416717Y-138418720D01*
X182464455Y-138367701D01*
X182527463Y-138350500D01*
X205472537Y-138350500D01*
X205539576Y-138370185D01*
X205585331Y-138422989D01*
X205595857Y-138487460D01*
X205594540Y-138500000D01*
X205614326Y-138688256D01*
X205614327Y-138688259D01*
X205672818Y-138868277D01*
X205672821Y-138868284D01*
X205767467Y-139032216D01*
X205863487Y-139138857D01*
X205867650Y-139143480D01*
X205897880Y-139206471D01*
X205899500Y-139226452D01*
X205899500Y-140500330D01*
X205879815Y-140567369D01*
X205827011Y-140613124D01*
X205801282Y-140621620D01*
X205720196Y-140638856D01*
X205720192Y-140638857D01*
X205547270Y-140715848D01*
X205547265Y-140715851D01*
X205394129Y-140827111D01*
X205267466Y-140967785D01*
X205172821Y-141131715D01*
X205172818Y-141131722D01*
X205119292Y-141296460D01*
X205114326Y-141311744D01*
X205094540Y-141500000D01*
X205114326Y-141688256D01*
X205114327Y-141688259D01*
X205172818Y-141868277D01*
X205172821Y-141868284D01*
X205267467Y-142032216D01*
X205394129Y-142172888D01*
X205547265Y-142284148D01*
X205547270Y-142284151D01*
X205720192Y-142361142D01*
X205720197Y-142361144D01*
X205905354Y-142400500D01*
X206000069Y-142400500D01*
X206067108Y-142420185D01*
X206075557Y-142426125D01*
X206081279Y-142430515D01*
X206081284Y-142430520D01*
X206146079Y-142467929D01*
X206218215Y-142509577D01*
X206370943Y-142550500D01*
X209307633Y-142550500D01*
X209358069Y-142561221D01*
X209470192Y-142611142D01*
X209470197Y-142611144D01*
X209655354Y-142650500D01*
X209655355Y-142650500D01*
X209844644Y-142650500D01*
X209844646Y-142650500D01*
X210029803Y-142611144D01*
X210202730Y-142534151D01*
X210355871Y-142422888D01*
X210482533Y-142282216D01*
X210577179Y-142118284D01*
X210635674Y-141938256D01*
X210655460Y-141750000D01*
X210635674Y-141561744D01*
X210577179Y-141381716D01*
X210482533Y-141217784D01*
X210355871Y-141077112D01*
X210355870Y-141077111D01*
X210202734Y-140965851D01*
X210202729Y-140965848D01*
X210029807Y-140888857D01*
X210029802Y-140888855D01*
X209884001Y-140857865D01*
X209844646Y-140849500D01*
X209655354Y-140849500D01*
X209622897Y-140856398D01*
X209470197Y-140888855D01*
X209470192Y-140888857D01*
X209297270Y-140965848D01*
X209297265Y-140965851D01*
X209144131Y-141077110D01*
X209108649Y-141116516D01*
X209049161Y-141153163D01*
X208979304Y-141151832D01*
X208921257Y-141112944D01*
X208899165Y-141067458D01*
X208897733Y-141067924D01*
X208837232Y-140881722D01*
X208837231Y-140881721D01*
X208837230Y-140881716D01*
X208742584Y-140717784D01*
X208615922Y-140577112D01*
X208615921Y-140577111D01*
X208462785Y-140465851D01*
X208462780Y-140465848D01*
X208289858Y-140388857D01*
X208289854Y-140388856D01*
X208198718Y-140369484D01*
X208137237Y-140336291D01*
X208103461Y-140275128D01*
X208100500Y-140248194D01*
X208100500Y-140226452D01*
X208120185Y-140159413D01*
X208132350Y-140143480D01*
X208135979Y-140139450D01*
X208232533Y-140032216D01*
X208327179Y-139868284D01*
X208385674Y-139688256D01*
X208405460Y-139500000D01*
X208385674Y-139311744D01*
X208327179Y-139131716D01*
X208232533Y-138967784D01*
X208105871Y-138827112D01*
X208105870Y-138827111D01*
X207952734Y-138715851D01*
X207952729Y-138715848D01*
X207779807Y-138638857D01*
X207779802Y-138638855D01*
X207634001Y-138607865D01*
X207594646Y-138599500D01*
X207527568Y-138599500D01*
X207460529Y-138579815D01*
X207414774Y-138527011D01*
X207404246Y-138488449D01*
X207404141Y-138487449D01*
X207416717Y-138418720D01*
X207464455Y-138367701D01*
X207527463Y-138350500D01*
X208913331Y-138350500D01*
X208913347Y-138350501D01*
X208920943Y-138350501D01*
X209079054Y-138350501D01*
X209079057Y-138350501D01*
X209231785Y-138309577D01*
X209303424Y-138268216D01*
X209368716Y-138230520D01*
X209480520Y-138118716D01*
X209480520Y-138118714D01*
X209490724Y-138108511D01*
X209490728Y-138108506D01*
X209887384Y-137711849D01*
X209948705Y-137678366D01*
X210018397Y-137683350D01*
X210074330Y-137725222D01*
X210098383Y-137786568D01*
X210114326Y-137938256D01*
X210114327Y-137938259D01*
X210172818Y-138118277D01*
X210172821Y-138118284D01*
X210267467Y-138282216D01*
X210373971Y-138400500D01*
X210394129Y-138422888D01*
X210547265Y-138534148D01*
X210547270Y-138534151D01*
X210720192Y-138611142D01*
X210720197Y-138611144D01*
X210905354Y-138650500D01*
X210905355Y-138650500D01*
X211094644Y-138650500D01*
X211094646Y-138650500D01*
X211279803Y-138611144D01*
X211452730Y-138534151D01*
X211605871Y-138422888D01*
X211634109Y-138391527D01*
X211693595Y-138354879D01*
X211726258Y-138350500D01*
X212163331Y-138350500D01*
X212163347Y-138350501D01*
X212170943Y-138350501D01*
X212329054Y-138350501D01*
X212329057Y-138350501D01*
X212481785Y-138309577D01*
X212553424Y-138268216D01*
X212618716Y-138230520D01*
X212730520Y-138118716D01*
X212730520Y-138118714D01*
X212740724Y-138108511D01*
X212740727Y-138108506D01*
X215012417Y-135836819D01*
X215073740Y-135803334D01*
X215100098Y-135800500D01*
X218273742Y-135800500D01*
X218340781Y-135820185D01*
X218365891Y-135841527D01*
X218394128Y-135872887D01*
X218394135Y-135872893D01*
X218547265Y-135984148D01*
X218547270Y-135984151D01*
X218720192Y-136061142D01*
X218720197Y-136061144D01*
X218905354Y-136100500D01*
X218905355Y-136100500D01*
X219094644Y-136100500D01*
X219094646Y-136100500D01*
X219279803Y-136061144D01*
X219434610Y-135992218D01*
X219503857Y-135982933D01*
X219567134Y-136012561D01*
X219604348Y-136071696D01*
X219608365Y-136118459D01*
X219602234Y-136176790D01*
X219594540Y-136250000D01*
X219614326Y-136438256D01*
X219614327Y-136438259D01*
X219672818Y-136618277D01*
X219672821Y-136618284D01*
X219767467Y-136782216D01*
X219863487Y-136888857D01*
X219894129Y-136922888D01*
X220047265Y-137034148D01*
X220047270Y-137034151D01*
X220220192Y-137111142D01*
X220220197Y-137111144D01*
X220405354Y-137150500D01*
X220405355Y-137150500D01*
X220594644Y-137150500D01*
X220594646Y-137150500D01*
X220779803Y-137111144D01*
X220952730Y-137034151D01*
X221105871Y-136922888D01*
X221122993Y-136903870D01*
X221182477Y-136867221D01*
X221240926Y-136865550D01*
X221405354Y-136900500D01*
X221405355Y-136900500D01*
X221594644Y-136900500D01*
X221594646Y-136900500D01*
X221779803Y-136861144D01*
X221952730Y-136784151D01*
X222105871Y-136672888D01*
X222232533Y-136532216D01*
X222327179Y-136368284D01*
X222385674Y-136188256D01*
X222405460Y-136000000D01*
X222405460Y-135999997D01*
X222405460Y-135995136D01*
X222425145Y-135928097D01*
X222441779Y-135907455D01*
X222954253Y-135394981D01*
X223488325Y-134860908D01*
X223549646Y-134827425D01*
X223619338Y-134832409D01*
X223675271Y-134874281D01*
X223683391Y-134886592D01*
X223767463Y-135032211D01*
X223767465Y-135032214D01*
X223767467Y-135032216D01*
X223857057Y-135131716D01*
X223867650Y-135143480D01*
X223897880Y-135206471D01*
X223899500Y-135226452D01*
X223899500Y-138261171D01*
X223879815Y-138328210D01*
X223827011Y-138373965D01*
X223757853Y-138383909D01*
X223749720Y-138382461D01*
X223594647Y-138349500D01*
X223594646Y-138349500D01*
X223405354Y-138349500D01*
X223380048Y-138354879D01*
X223220197Y-138388855D01*
X223220192Y-138388857D01*
X223047270Y-138465848D01*
X223047265Y-138465851D01*
X222895910Y-138575818D01*
X222830104Y-138599298D01*
X222823025Y-138599500D01*
X216820807Y-138599500D01*
X216753768Y-138579815D01*
X216733126Y-138563181D01*
X216164674Y-137994727D01*
X216164673Y-137994726D01*
X216164669Y-137994723D01*
X216058127Y-137923535D01*
X215939744Y-137874499D01*
X215939738Y-137874497D01*
X215814071Y-137849500D01*
X215814069Y-137849500D01*
X215176975Y-137849500D01*
X215109936Y-137829815D01*
X215104090Y-137825818D01*
X214952734Y-137715851D01*
X214952729Y-137715848D01*
X214779807Y-137638857D01*
X214779802Y-137638855D01*
X214634001Y-137607865D01*
X214594646Y-137599500D01*
X214405354Y-137599500D01*
X214372897Y-137606398D01*
X214220197Y-137638855D01*
X214220192Y-137638857D01*
X214047270Y-137715848D01*
X214047265Y-137715851D01*
X213894129Y-137827111D01*
X213767468Y-137967783D01*
X213767466Y-137967784D01*
X213672821Y-138131715D01*
X213672818Y-138131722D01*
X213615030Y-138309577D01*
X213614326Y-138311744D01*
X213594540Y-138500000D01*
X213614326Y-138688256D01*
X213614327Y-138688259D01*
X213672818Y-138868277D01*
X213672821Y-138868284D01*
X213767467Y-139032216D01*
X213863487Y-139138857D01*
X213894129Y-139172888D01*
X214047265Y-139284148D01*
X214047270Y-139284151D01*
X214220192Y-139361142D01*
X214220197Y-139361144D01*
X214405354Y-139400500D01*
X214405355Y-139400500D01*
X214472432Y-139400500D01*
X214539471Y-139420185D01*
X214585226Y-139472989D01*
X214595752Y-139511535D01*
X214614326Y-139688256D01*
X214614327Y-139688259D01*
X214672818Y-139868277D01*
X214672821Y-139868284D01*
X214767467Y-140032216D01*
X214894129Y-140172888D01*
X215047265Y-140284148D01*
X215047270Y-140284151D01*
X215220192Y-140361142D01*
X215220197Y-140361144D01*
X215405354Y-140400500D01*
X215429192Y-140400500D01*
X215496231Y-140420185D01*
X215516868Y-140436814D01*
X215570906Y-140490852D01*
X215585330Y-140505276D01*
X215667470Y-140560160D01*
X215667469Y-140560160D01*
X215691871Y-140576464D01*
X215691872Y-140576464D01*
X215691873Y-140576465D01*
X215810256Y-140625501D01*
X215810260Y-140625501D01*
X215810261Y-140625502D01*
X215935928Y-140650500D01*
X215935931Y-140650500D01*
X216064069Y-140650500D01*
X221823025Y-140650500D01*
X221890064Y-140670185D01*
X221895910Y-140674182D01*
X222047265Y-140784148D01*
X222047270Y-140784151D01*
X222220192Y-140861142D01*
X222220197Y-140861144D01*
X222405354Y-140900500D01*
X222405355Y-140900500D01*
X222594644Y-140900500D01*
X222594646Y-140900500D01*
X222779803Y-140861144D01*
X222952730Y-140784151D01*
X223105871Y-140672888D01*
X223232533Y-140532216D01*
X223327179Y-140368284D01*
X223370102Y-140236182D01*
X223409540Y-140178506D01*
X223473898Y-140151308D01*
X223488033Y-140150500D01*
X223594644Y-140150500D01*
X223594646Y-140150500D01*
X223749720Y-140117538D01*
X223819386Y-140122854D01*
X223875120Y-140164991D01*
X223899225Y-140230571D01*
X223899500Y-140238828D01*
X223899500Y-141273547D01*
X223879815Y-141340586D01*
X223867650Y-141356519D01*
X223767466Y-141467785D01*
X223672821Y-141631715D01*
X223672818Y-141631722D01*
X223616087Y-141806324D01*
X223614326Y-141811744D01*
X223594540Y-142000000D01*
X223614326Y-142188256D01*
X223614327Y-142188259D01*
X223672818Y-142368277D01*
X223672821Y-142368284D01*
X223767467Y-142532216D01*
X223873971Y-142650500D01*
X223894129Y-142672888D01*
X224047265Y-142784148D01*
X224047270Y-142784151D01*
X224220192Y-142861142D01*
X224220197Y-142861144D01*
X224405354Y-142900500D01*
X224405355Y-142900500D01*
X224594644Y-142900500D01*
X224594646Y-142900500D01*
X224779803Y-142861144D01*
X224952730Y-142784151D01*
X225105871Y-142672888D01*
X225157851Y-142615158D01*
X225217336Y-142578510D01*
X225287193Y-142579840D01*
X225342148Y-142615158D01*
X225373971Y-142650500D01*
X225394129Y-142672888D01*
X225547265Y-142784148D01*
X225547270Y-142784151D01*
X225720192Y-142861142D01*
X225720197Y-142861144D01*
X225905354Y-142900500D01*
X225905355Y-142900500D01*
X226094644Y-142900500D01*
X226094646Y-142900500D01*
X226279803Y-142861144D01*
X226452730Y-142784151D01*
X226605871Y-142672888D01*
X226732533Y-142532216D01*
X226827179Y-142368284D01*
X226885674Y-142188256D01*
X226905460Y-142000000D01*
X226885674Y-141811744D01*
X226827179Y-141631716D01*
X226732533Y-141467784D01*
X226682350Y-141412050D01*
X226652120Y-141349058D01*
X226650500Y-141329078D01*
X226650500Y-138420921D01*
X226670185Y-138353882D01*
X226682351Y-138337948D01*
X226690354Y-138329060D01*
X226732533Y-138282216D01*
X226827179Y-138118284D01*
X226885674Y-137938256D01*
X226905460Y-137750000D01*
X226885674Y-137561744D01*
X226827179Y-137381716D01*
X226732533Y-137217784D01*
X226605871Y-137077112D01*
X226584719Y-137061744D01*
X226452734Y-136965851D01*
X226452729Y-136965848D01*
X226279807Y-136888857D01*
X226279802Y-136888855D01*
X226134001Y-136857865D01*
X226094646Y-136849500D01*
X225905354Y-136849500D01*
X225872897Y-136856398D01*
X225720197Y-136888855D01*
X225720192Y-136888857D01*
X225547270Y-136965848D01*
X225547265Y-136965851D01*
X225394129Y-137077111D01*
X225394128Y-137077112D01*
X225316649Y-137163161D01*
X225257163Y-137199809D01*
X225187306Y-137198478D01*
X225129258Y-137159591D01*
X225101448Y-137095494D01*
X225100500Y-137080188D01*
X225100500Y-135226452D01*
X225120185Y-135159413D01*
X225132350Y-135143480D01*
X225142937Y-135131722D01*
X225232533Y-135032216D01*
X225327179Y-134868284D01*
X225385674Y-134688256D01*
X225404247Y-134511536D01*
X225430832Y-134446924D01*
X225488129Y-134406939D01*
X225527568Y-134400500D01*
X225999903Y-134400500D01*
X226066942Y-134420185D01*
X226087584Y-134436819D01*
X228265139Y-136614374D01*
X228265149Y-136614385D01*
X228269479Y-136618715D01*
X228269480Y-136618716D01*
X228381284Y-136730520D01*
X228457755Y-136774670D01*
X228469101Y-136781221D01*
X228518215Y-136809577D01*
X228670942Y-136850500D01*
X228670943Y-136850500D01*
X229003061Y-136850500D01*
X229070100Y-136870185D01*
X229115855Y-136922989D01*
X229125799Y-136992147D01*
X229124678Y-136998692D01*
X229099500Y-137125267D01*
X229099500Y-137125270D01*
X229099500Y-140564069D01*
X229099500Y-140564071D01*
X229099499Y-140564071D01*
X229119240Y-140663308D01*
X229120347Y-140668872D01*
X229124499Y-140689744D01*
X229149458Y-140750000D01*
X229163602Y-140784148D01*
X229173535Y-140808127D01*
X229230537Y-140893438D01*
X229251414Y-140960114D01*
X229234822Y-141024326D01*
X229172820Y-141131718D01*
X229172818Y-141131722D01*
X229119292Y-141296460D01*
X229114326Y-141311744D01*
X229094540Y-141500000D01*
X229114326Y-141688256D01*
X229114327Y-141688259D01*
X229172818Y-141868277D01*
X229172821Y-141868284D01*
X229267467Y-142032216D01*
X229394129Y-142172888D01*
X229547265Y-142284148D01*
X229547270Y-142284151D01*
X229720192Y-142361142D01*
X229720197Y-142361144D01*
X229905354Y-142400500D01*
X229905355Y-142400500D01*
X230094644Y-142400500D01*
X230094646Y-142400500D01*
X230279803Y-142361144D01*
X230449566Y-142285559D01*
X230518813Y-142276275D01*
X230550430Y-142285557D01*
X230720197Y-142361144D01*
X230905354Y-142400500D01*
X230905355Y-142400500D01*
X231094644Y-142400500D01*
X231094646Y-142400500D01*
X231279803Y-142361144D01*
X231452730Y-142284151D01*
X231552114Y-142211943D01*
X231617919Y-142188465D01*
X231685972Y-142204290D01*
X231697883Y-142211945D01*
X231797262Y-142284148D01*
X231797267Y-142284151D01*
X231970189Y-142361142D01*
X231970194Y-142361144D01*
X232155351Y-142400500D01*
X232155352Y-142400500D01*
X232344641Y-142400500D01*
X232344643Y-142400500D01*
X232529800Y-142361144D01*
X232699562Y-142285559D01*
X232768812Y-142276275D01*
X232800434Y-142285560D01*
X232970192Y-142361142D01*
X232970197Y-142361144D01*
X233155354Y-142400500D01*
X233155355Y-142400500D01*
X233344644Y-142400500D01*
X233344646Y-142400500D01*
X233529803Y-142361144D01*
X233702730Y-142284151D01*
X233855871Y-142172888D01*
X233982533Y-142032216D01*
X234077179Y-141868284D01*
X234135674Y-141688256D01*
X234155460Y-141500000D01*
X234135674Y-141311744D01*
X234077179Y-141131716D01*
X233982533Y-140967784D01*
X233855871Y-140827112D01*
X233834719Y-140811744D01*
X233732206Y-140737264D01*
X233689540Y-140681934D01*
X233683561Y-140612321D01*
X233712942Y-140553973D01*
X233732533Y-140532216D01*
X233827179Y-140368284D01*
X233885674Y-140188256D01*
X233905460Y-140000000D01*
X233885674Y-139811744D01*
X233827179Y-139631716D01*
X233732533Y-139467784D01*
X233605871Y-139327112D01*
X233584719Y-139311744D01*
X233452734Y-139215851D01*
X233452729Y-139215848D01*
X233279807Y-139138857D01*
X233279802Y-139138855D01*
X233110011Y-139102766D01*
X233094646Y-139099500D01*
X232988033Y-139099500D01*
X232920994Y-139079815D01*
X232875239Y-139027011D01*
X232870102Y-139013818D01*
X232827181Y-138881722D01*
X232827180Y-138881721D01*
X232827179Y-138881716D01*
X232732533Y-138717784D01*
X232605871Y-138577112D01*
X232586697Y-138563181D01*
X232452734Y-138465851D01*
X232452732Y-138465850D01*
X232338863Y-138415151D01*
X232285627Y-138369900D01*
X232265306Y-138303051D01*
X232284352Y-138235827D01*
X232316414Y-138201554D01*
X232355871Y-138172888D01*
X232482533Y-138032216D01*
X232577179Y-137868284D01*
X232635674Y-137688256D01*
X232655460Y-137500000D01*
X248844540Y-137500000D01*
X248864326Y-137688256D01*
X248864327Y-137688259D01*
X248922818Y-137868277D01*
X248922821Y-137868284D01*
X249017467Y-138032216D01*
X249113487Y-138138857D01*
X249144129Y-138172888D01*
X249297265Y-138284148D01*
X249297270Y-138284151D01*
X249470192Y-138361142D01*
X249470197Y-138361144D01*
X249655354Y-138400500D01*
X249655355Y-138400500D01*
X249844644Y-138400500D01*
X249844646Y-138400500D01*
X250029803Y-138361144D01*
X250202730Y-138284151D01*
X250355871Y-138172888D01*
X250482533Y-138032216D01*
X250577179Y-137868284D01*
X250635674Y-137688256D01*
X250655460Y-137500000D01*
X250635674Y-137311744D01*
X250591107Y-137174584D01*
X250589113Y-137104744D01*
X250621356Y-137048588D01*
X250983127Y-136686819D01*
X251044450Y-136653334D01*
X251070808Y-136650500D01*
X251094644Y-136650500D01*
X251094646Y-136650500D01*
X251279803Y-136611144D01*
X251452730Y-136534151D01*
X251605871Y-136422888D01*
X251732533Y-136282216D01*
X251827179Y-136118284D01*
X251885674Y-135938256D01*
X251905460Y-135750000D01*
X252594540Y-135750000D01*
X252614326Y-135938256D01*
X252614327Y-135938259D01*
X252672818Y-136118277D01*
X252672821Y-136118284D01*
X252767466Y-136282215D01*
X252817649Y-136337948D01*
X252847880Y-136400940D01*
X252849500Y-136420921D01*
X252849500Y-140064070D01*
X252864495Y-140139450D01*
X252864495Y-140139452D01*
X252874497Y-140189736D01*
X252874499Y-140189744D01*
X252913602Y-140284148D01*
X252923535Y-140308127D01*
X252994723Y-140414669D01*
X253315192Y-140735137D01*
X253348676Y-140796459D01*
X253350830Y-140809850D01*
X253364326Y-140938256D01*
X253364327Y-140938259D01*
X253422818Y-141118277D01*
X253422821Y-141118284D01*
X253517467Y-141282216D01*
X253607063Y-141381722D01*
X253644129Y-141422888D01*
X253797265Y-141534148D01*
X253797270Y-141534151D01*
X253970192Y-141611142D01*
X253970197Y-141611144D01*
X254155354Y-141650500D01*
X254155355Y-141650500D01*
X254344644Y-141650500D01*
X254344646Y-141650500D01*
X254529803Y-141611144D01*
X254702730Y-141534151D01*
X254855871Y-141422888D01*
X254939532Y-141329972D01*
X254999019Y-141293324D01*
X255068876Y-141294655D01*
X255082104Y-141299660D01*
X255220197Y-141361144D01*
X255405354Y-141400500D01*
X255405355Y-141400500D01*
X255594644Y-141400500D01*
X255594646Y-141400500D01*
X255779803Y-141361144D01*
X255952730Y-141284151D01*
X256105871Y-141172888D01*
X256105874Y-141172883D01*
X256110701Y-141168539D01*
X256112895Y-141170975D01*
X256159655Y-141141403D01*
X256229523Y-141141911D01*
X256285874Y-141177659D01*
X256394129Y-141297888D01*
X256547265Y-141409148D01*
X256547270Y-141409151D01*
X256720192Y-141486142D01*
X256720197Y-141486144D01*
X256905354Y-141525500D01*
X256905355Y-141525500D01*
X257074910Y-141525500D01*
X257141949Y-141545185D01*
X257187704Y-141597989D01*
X257198229Y-141636534D01*
X257200905Y-141661984D01*
X257203666Y-141688257D01*
X257203667Y-141688260D01*
X257262158Y-141868277D01*
X257262161Y-141868284D01*
X257356807Y-142032216D01*
X257483469Y-142172888D01*
X257636605Y-142284148D01*
X257636610Y-142284151D01*
X257809532Y-142361142D01*
X257809537Y-142361144D01*
X257994694Y-142400500D01*
X257994695Y-142400500D01*
X258183984Y-142400500D01*
X258183986Y-142400500D01*
X258369143Y-142361144D01*
X258542070Y-142284151D01*
X258695211Y-142172888D01*
X258821873Y-142032216D01*
X258916519Y-141868284D01*
X258975014Y-141688256D01*
X258994800Y-141500000D01*
X258975014Y-141311744D01*
X258916519Y-141131716D01*
X258821873Y-140967784D01*
X258695211Y-140827112D01*
X258674059Y-140811744D01*
X258542074Y-140715851D01*
X258542069Y-140715848D01*
X258424064Y-140663308D01*
X258370827Y-140618057D01*
X258350506Y-140551208D01*
X258350500Y-140550029D01*
X258350500Y-139726452D01*
X258370185Y-139659413D01*
X258382350Y-139643480D01*
X258392937Y-139631722D01*
X258482533Y-139532216D01*
X258577179Y-139368284D01*
X258635674Y-139188256D01*
X258655460Y-139000000D01*
X258635674Y-138811744D01*
X258577179Y-138631716D01*
X258482533Y-138467784D01*
X258355871Y-138327112D01*
X258355870Y-138327111D01*
X258202734Y-138215851D01*
X258202729Y-138215848D01*
X258029807Y-138138857D01*
X258029802Y-138138855D01*
X257884001Y-138107865D01*
X257844646Y-138099500D01*
X257655354Y-138099500D01*
X257622897Y-138106398D01*
X257470197Y-138138855D01*
X257470192Y-138138857D01*
X257314287Y-138208272D01*
X257245037Y-138217557D01*
X257181760Y-138187929D01*
X257144547Y-138128794D01*
X257140531Y-138107962D01*
X257135674Y-138061744D01*
X257077179Y-137881716D01*
X256982533Y-137717784D01*
X256855871Y-137577112D01*
X256834719Y-137561744D01*
X256702734Y-137465851D01*
X256702729Y-137465848D01*
X256529807Y-137388857D01*
X256529802Y-137388855D01*
X256384001Y-137357865D01*
X256344646Y-137349500D01*
X256176100Y-137349500D01*
X256109061Y-137329815D01*
X256063306Y-137277011D01*
X256061536Y-137272946D01*
X256059579Y-137268223D01*
X256059577Y-137268215D01*
X256029343Y-137215849D01*
X255980520Y-137131284D01*
X255868716Y-137019480D01*
X255868715Y-137019479D01*
X255864385Y-137015149D01*
X255864374Y-137015139D01*
X255691779Y-136842544D01*
X255658294Y-136781221D01*
X255655460Y-136754863D01*
X255655460Y-136750002D01*
X255655460Y-136750000D01*
X255635674Y-136561744D01*
X255577179Y-136381716D01*
X255482533Y-136217784D01*
X255355871Y-136077112D01*
X255355870Y-136077111D01*
X255202734Y-135965851D01*
X255202729Y-135965848D01*
X255029807Y-135888857D01*
X255029802Y-135888855D01*
X254884001Y-135857865D01*
X254844646Y-135849500D01*
X254655354Y-135849500D01*
X254555238Y-135870779D01*
X254485573Y-135865463D01*
X254429840Y-135823325D01*
X254405735Y-135757745D01*
X254405485Y-135750241D01*
X254405460Y-135750000D01*
X254385674Y-135561744D01*
X254327179Y-135381716D01*
X254232533Y-135217784D01*
X254105871Y-135077112D01*
X254084719Y-135061744D01*
X253952734Y-134965851D01*
X253952729Y-134965848D01*
X253779807Y-134888857D01*
X253779802Y-134888855D01*
X253634001Y-134857865D01*
X253594646Y-134849500D01*
X253405354Y-134849500D01*
X253372897Y-134856398D01*
X253220197Y-134888855D01*
X253220192Y-134888857D01*
X253047270Y-134965848D01*
X253047265Y-134965851D01*
X252894129Y-135077111D01*
X252767466Y-135217785D01*
X252672821Y-135381715D01*
X252672818Y-135381722D01*
X252614327Y-135561740D01*
X252614326Y-135561744D01*
X252594540Y-135750000D01*
X251905460Y-135750000D01*
X251885674Y-135561744D01*
X251827179Y-135381716D01*
X251732533Y-135217784D01*
X251605871Y-135077112D01*
X251584719Y-135061744D01*
X251452734Y-134965851D01*
X251452729Y-134965848D01*
X251279807Y-134888857D01*
X251279802Y-134888855D01*
X251134001Y-134857865D01*
X251094646Y-134849500D01*
X250905354Y-134849500D01*
X250872897Y-134856398D01*
X250720197Y-134888855D01*
X250720192Y-134888857D01*
X250547270Y-134965848D01*
X250547265Y-134965851D01*
X250394129Y-135077111D01*
X250267466Y-135217785D01*
X250172821Y-135381715D01*
X250172818Y-135381722D01*
X250114327Y-135561739D01*
X250114326Y-135561741D01*
X250104997Y-135650500D01*
X250101717Y-135681716D01*
X250100831Y-135690142D01*
X250074246Y-135754757D01*
X250065191Y-135764861D01*
X249244727Y-136585325D01*
X249244721Y-136585332D01*
X249194971Y-136659789D01*
X249194972Y-136659790D01*
X249173534Y-136691874D01*
X249124499Y-136810254D01*
X249121279Y-136826440D01*
X249091814Y-136885211D01*
X249017470Y-136967778D01*
X249017465Y-136967785D01*
X248922821Y-137131715D01*
X248922818Y-137131722D01*
X248873920Y-137282216D01*
X248864326Y-137311744D01*
X248844540Y-137500000D01*
X232655460Y-137500000D01*
X232635674Y-137311744D01*
X232577179Y-137131716D01*
X232522205Y-137036499D01*
X232505733Y-136968600D01*
X232528586Y-136902573D01*
X232583507Y-136859382D01*
X232629593Y-136850500D01*
X241307633Y-136850500D01*
X241358069Y-136861221D01*
X241470192Y-136911142D01*
X241470197Y-136911144D01*
X241655354Y-136950500D01*
X241655355Y-136950500D01*
X241844644Y-136950500D01*
X241844646Y-136950500D01*
X242029803Y-136911144D01*
X242202730Y-136834151D01*
X242355871Y-136722888D01*
X242482533Y-136582216D01*
X242577179Y-136418284D01*
X242635674Y-136238256D01*
X242655460Y-136050000D01*
X242635674Y-135861744D01*
X242577179Y-135681716D01*
X242482533Y-135517784D01*
X242355871Y-135377112D01*
X242319243Y-135350500D01*
X242202734Y-135265851D01*
X242202729Y-135265848D01*
X242029807Y-135188857D01*
X242029802Y-135188855D01*
X241884001Y-135157865D01*
X241844646Y-135149500D01*
X241655354Y-135149500D01*
X241622897Y-135156398D01*
X241470197Y-135188855D01*
X241470192Y-135188857D01*
X241297270Y-135265848D01*
X241297265Y-135265851D01*
X241144129Y-135377111D01*
X241017465Y-135517785D01*
X240977216Y-135587500D01*
X240926649Y-135635716D01*
X240869829Y-135649500D01*
X229050097Y-135649500D01*
X228983058Y-135629815D01*
X228962416Y-135613181D01*
X226787590Y-133438355D01*
X226787588Y-133438352D01*
X226668717Y-133319481D01*
X226668716Y-133319480D01*
X226581904Y-133269360D01*
X226581904Y-133269359D01*
X226581900Y-133269358D01*
X226531785Y-133240423D01*
X226379057Y-133199499D01*
X226220943Y-133199499D01*
X226213347Y-133199499D01*
X226213331Y-133199500D01*
X223786669Y-133199500D01*
X223786653Y-133199499D01*
X223779057Y-133199499D01*
X223620943Y-133199499D01*
X223513587Y-133228265D01*
X223468210Y-133240424D01*
X223468209Y-133240425D01*
X223418096Y-133269359D01*
X223418095Y-133269360D01*
X223395831Y-133282214D01*
X223331285Y-133319479D01*
X223331282Y-133319481D01*
X223261909Y-133388855D01*
X223219480Y-133431284D01*
X223219478Y-133431286D01*
X222400765Y-134250000D01*
X221587584Y-135063181D01*
X221526261Y-135096666D01*
X221499903Y-135099500D01*
X221475357Y-135099500D01*
X221408318Y-135079815D01*
X221362563Y-135027011D01*
X221352619Y-134957853D01*
X221381644Y-134894297D01*
X221383207Y-134892528D01*
X221482533Y-134782216D01*
X221577179Y-134618284D01*
X221635674Y-134438256D01*
X221655460Y-134250000D01*
X221635674Y-134061744D01*
X221577179Y-133881716D01*
X221482533Y-133717784D01*
X221355871Y-133577112D01*
X221355870Y-133577111D01*
X221202734Y-133465851D01*
X221202729Y-133465848D01*
X221029807Y-133388857D01*
X221029802Y-133388855D01*
X220884001Y-133357865D01*
X220844646Y-133349500D01*
X220655354Y-133349500D01*
X220622897Y-133356398D01*
X220470197Y-133388855D01*
X220470192Y-133388857D01*
X220297270Y-133465848D01*
X220297265Y-133465851D01*
X220144129Y-133577111D01*
X220017466Y-133717785D01*
X219922821Y-133881715D01*
X219922818Y-133881722D01*
X219864325Y-134061744D01*
X219862694Y-134077264D01*
X219842478Y-134133185D01*
X219834922Y-134144493D01*
X219834915Y-134144505D01*
X219778342Y-134281086D01*
X219778340Y-134281092D01*
X219751595Y-134415546D01*
X219719210Y-134477457D01*
X219658494Y-134512031D01*
X219588724Y-134508290D01*
X219557093Y-134491672D01*
X219452734Y-134415851D01*
X219452729Y-134415848D01*
X219279807Y-134338857D01*
X219279802Y-134338855D01*
X219134001Y-134307865D01*
X219094646Y-134299500D01*
X218905354Y-134299500D01*
X218872897Y-134306398D01*
X218720197Y-134338855D01*
X218720192Y-134338857D01*
X218547270Y-134415848D01*
X218547265Y-134415851D01*
X218394135Y-134527106D01*
X218394128Y-134527112D01*
X218365891Y-134558473D01*
X218306405Y-134595121D01*
X218273742Y-134599500D01*
X214886670Y-134599500D01*
X214886654Y-134599499D01*
X214879058Y-134599499D01*
X214720943Y-134599499D01*
X214650864Y-134618277D01*
X214568214Y-134640423D01*
X214568209Y-134640426D01*
X214431290Y-134719475D01*
X214431282Y-134719481D01*
X212037584Y-137113181D01*
X211976261Y-137146666D01*
X211949903Y-137149500D01*
X211726258Y-137149500D01*
X211659219Y-137129815D01*
X211634109Y-137108473D01*
X211605871Y-137077112D01*
X211605864Y-137077106D01*
X211452734Y-136965851D01*
X211452729Y-136965848D01*
X211279807Y-136888857D01*
X211279802Y-136888855D01*
X211134001Y-136857865D01*
X211094646Y-136849500D01*
X211049096Y-136849500D01*
X210982057Y-136829815D01*
X210936302Y-136777011D01*
X210926358Y-136707853D01*
X210955383Y-136644297D01*
X210961415Y-136637819D01*
X213957708Y-133641527D01*
X216149238Y-131449997D01*
X231744723Y-131449997D01*
X231744723Y-131450002D01*
X231763793Y-131667975D01*
X231763793Y-131667979D01*
X231820422Y-131879322D01*
X231820424Y-131879326D01*
X231820425Y-131879330D01*
X231860770Y-131965851D01*
X231912897Y-132077638D01*
X231912898Y-132077639D01*
X232038402Y-132256877D01*
X232193123Y-132411598D01*
X232372361Y-132537102D01*
X232570670Y-132629575D01*
X232782023Y-132686207D01*
X232964926Y-132702208D01*
X232999998Y-132705277D01*
X233000000Y-132705277D01*
X233000002Y-132705277D01*
X233028254Y-132702805D01*
X233217977Y-132686207D01*
X233429330Y-132629575D01*
X233627639Y-132537102D01*
X233806877Y-132411598D01*
X233961598Y-132256877D01*
X234087102Y-132077639D01*
X234179575Y-131879330D01*
X234236207Y-131667977D01*
X234255277Y-131450000D01*
X234236207Y-131232023D01*
X234179575Y-131020670D01*
X234087102Y-130822362D01*
X234087100Y-130822359D01*
X234087099Y-130822357D01*
X233961599Y-130643124D01*
X233918975Y-130600500D01*
X233806877Y-130488402D01*
X233627639Y-130362898D01*
X233627640Y-130362898D01*
X233627638Y-130362897D01*
X233517930Y-130311740D01*
X233429330Y-130270425D01*
X233429326Y-130270424D01*
X233429322Y-130270422D01*
X233217977Y-130213793D01*
X233000002Y-130194723D01*
X232999998Y-130194723D01*
X232854682Y-130207436D01*
X232782023Y-130213793D01*
X232782020Y-130213793D01*
X232570677Y-130270422D01*
X232570668Y-130270426D01*
X232372361Y-130362898D01*
X232372357Y-130362900D01*
X232193121Y-130488402D01*
X232038402Y-130643121D01*
X231912900Y-130822357D01*
X231912898Y-130822361D01*
X231820426Y-131020668D01*
X231820422Y-131020677D01*
X231763793Y-131232020D01*
X231763793Y-131232024D01*
X231744723Y-131449997D01*
X216149238Y-131449997D01*
X217162416Y-130436819D01*
X217223739Y-130403334D01*
X217250097Y-130400500D01*
X217344644Y-130400500D01*
X217344646Y-130400500D01*
X217529803Y-130361144D01*
X217702730Y-130284151D01*
X217855871Y-130172888D01*
X217982533Y-130032216D01*
X218077179Y-129868284D01*
X218135674Y-129688256D01*
X218155460Y-129500000D01*
X218154634Y-129492143D01*
X218167200Y-129423414D01*
X218214930Y-129372389D01*
X218282670Y-129355268D01*
X218348912Y-129377488D01*
X218370103Y-129396205D01*
X218394128Y-129422887D01*
X218394135Y-129422893D01*
X218547265Y-129534148D01*
X218547270Y-129534151D01*
X218720192Y-129611142D01*
X218720197Y-129611144D01*
X218905354Y-129650500D01*
X218905355Y-129650500D01*
X219094644Y-129650500D01*
X219094646Y-129650500D01*
X219279803Y-129611144D01*
X219452730Y-129534151D01*
X219605871Y-129422888D01*
X219732533Y-129282216D01*
X219827179Y-129118284D01*
X219885674Y-128938256D01*
X219905460Y-128750000D01*
X219904142Y-128737460D01*
X219916712Y-128668731D01*
X219964444Y-128617708D01*
X220027463Y-128600500D01*
X220523742Y-128600500D01*
X220590781Y-128620185D01*
X220615891Y-128641527D01*
X220644128Y-128672887D01*
X220644135Y-128672893D01*
X220797265Y-128784148D01*
X220797270Y-128784151D01*
X220970192Y-128861142D01*
X220970197Y-128861144D01*
X221155354Y-128900500D01*
X221155355Y-128900500D01*
X221344644Y-128900500D01*
X221344646Y-128900500D01*
X221529803Y-128861144D01*
X221702730Y-128784151D01*
X221855871Y-128672888D01*
X221982533Y-128532216D01*
X222077179Y-128368284D01*
X222108314Y-128272459D01*
X222147751Y-128214785D01*
X222212110Y-128187586D01*
X222280956Y-128199500D01*
X222332432Y-128246744D01*
X222349565Y-128297813D01*
X222364326Y-128438256D01*
X222364327Y-128438259D01*
X222422818Y-128618277D01*
X222422821Y-128618284D01*
X222517467Y-128782216D01*
X222613033Y-128888352D01*
X222644129Y-128922888D01*
X222797265Y-129034148D01*
X222797270Y-129034151D01*
X222970192Y-129111142D01*
X222970197Y-129111144D01*
X223155354Y-129150500D01*
X223155355Y-129150500D01*
X223344645Y-129150500D01*
X223344646Y-129150500D01*
X223393069Y-129140207D01*
X223462735Y-129145523D01*
X223511000Y-129178525D01*
X223585239Y-129260976D01*
X223585246Y-129260982D01*
X223738381Y-129372241D01*
X223738386Y-129372244D01*
X223911308Y-129449235D01*
X223911313Y-129449237D01*
X224096470Y-129488593D01*
X224096471Y-129488593D01*
X224285760Y-129488593D01*
X224285762Y-129488593D01*
X224470919Y-129449237D01*
X224643846Y-129372244D01*
X224796987Y-129260981D01*
X224923649Y-129120309D01*
X225018295Y-128956377D01*
X225076790Y-128776349D01*
X225090284Y-128647948D01*
X225116868Y-128583335D01*
X225125915Y-128573238D01*
X227129154Y-126570000D01*
X231744723Y-126570000D01*
X231753837Y-126674182D01*
X231763793Y-126787975D01*
X231763793Y-126787979D01*
X231820422Y-126999322D01*
X231820424Y-126999326D01*
X231820425Y-126999330D01*
X231866661Y-127098484D01*
X231912897Y-127197638D01*
X231912898Y-127197639D01*
X232038402Y-127376877D01*
X232193123Y-127531598D01*
X232372361Y-127657102D01*
X232570670Y-127749575D01*
X232782023Y-127806207D01*
X232964926Y-127822208D01*
X232999998Y-127825277D01*
X233000000Y-127825277D01*
X233000002Y-127825277D01*
X233028254Y-127822805D01*
X233217977Y-127806207D01*
X233429330Y-127749575D01*
X233627639Y-127657102D01*
X233806877Y-127531598D01*
X233961598Y-127376877D01*
X234087102Y-127197639D01*
X234179575Y-126999330D01*
X234236207Y-126787977D01*
X234255277Y-126570000D01*
X234252821Y-126541932D01*
X234251569Y-126527618D01*
X234236207Y-126352023D01*
X234201548Y-126222675D01*
X234179577Y-126140677D01*
X234179576Y-126140676D01*
X234179575Y-126140670D01*
X234087102Y-125942362D01*
X234087100Y-125942359D01*
X234087099Y-125942357D01*
X233961599Y-125763124D01*
X233961596Y-125763121D01*
X233806877Y-125608402D01*
X233627639Y-125482898D01*
X233627640Y-125482898D01*
X233627638Y-125482897D01*
X233528484Y-125436661D01*
X233429330Y-125390425D01*
X233429326Y-125390424D01*
X233429322Y-125390422D01*
X233217977Y-125333793D01*
X233000002Y-125314723D01*
X232999998Y-125314723D01*
X232873180Y-125325818D01*
X232782023Y-125333793D01*
X232782020Y-125333793D01*
X232570677Y-125390422D01*
X232570668Y-125390426D01*
X232372361Y-125482898D01*
X232372357Y-125482900D01*
X232193121Y-125608402D01*
X232038402Y-125763121D01*
X231912900Y-125942357D01*
X231912898Y-125942361D01*
X231820426Y-126140668D01*
X231820422Y-126140677D01*
X231763793Y-126352020D01*
X231763793Y-126352024D01*
X231747179Y-126541932D01*
X231744723Y-126570000D01*
X227129154Y-126570000D01*
X230762336Y-122936819D01*
X230823659Y-122903334D01*
X230850017Y-122900500D01*
X238868531Y-122900500D01*
X238935570Y-122920185D01*
X238956212Y-122936819D01*
X242524664Y-126505272D01*
X242524665Y-126505273D01*
X242524668Y-126505275D01*
X242524670Y-126505277D01*
X242621536Y-126570000D01*
X242631212Y-126576465D01*
X242749595Y-126625501D01*
X242749599Y-126625501D01*
X242749600Y-126625502D01*
X242875267Y-126650500D01*
X242875270Y-126650500D01*
X246073025Y-126650500D01*
X246140064Y-126670185D01*
X246145910Y-126674182D01*
X246297265Y-126784148D01*
X246297270Y-126784151D01*
X246470192Y-126861142D01*
X246470197Y-126861144D01*
X246655354Y-126900500D01*
X246655355Y-126900500D01*
X246844644Y-126900500D01*
X246844646Y-126900500D01*
X247029803Y-126861144D01*
X247202730Y-126784151D01*
X247355871Y-126672888D01*
X247482533Y-126532216D01*
X247577179Y-126368284D01*
X247635674Y-126188256D01*
X247655460Y-126000000D01*
X247635674Y-125811744D01*
X247577179Y-125631716D01*
X247482533Y-125467784D01*
X247355871Y-125327112D01*
X247336697Y-125313181D01*
X247202734Y-125215851D01*
X247202729Y-125215848D01*
X247029807Y-125138857D01*
X247029802Y-125138855D01*
X246884001Y-125107865D01*
X246844646Y-125099500D01*
X246655354Y-125099500D01*
X246622897Y-125106398D01*
X246470197Y-125138855D01*
X246470192Y-125138857D01*
X246297270Y-125215848D01*
X246297265Y-125215851D01*
X246145910Y-125325818D01*
X246080104Y-125349298D01*
X246073025Y-125349500D01*
X243260147Y-125349500D01*
X243193108Y-125329815D01*
X243172466Y-125313181D01*
X242654159Y-124794874D01*
X242620674Y-124733551D01*
X242625658Y-124663859D01*
X242649688Y-124624223D01*
X242732533Y-124532216D01*
X242827179Y-124368284D01*
X242885674Y-124188256D01*
X242905460Y-124000000D01*
X242885674Y-123811744D01*
X242827179Y-123631716D01*
X242732533Y-123467784D01*
X242605871Y-123327112D01*
X242605870Y-123327111D01*
X242499735Y-123249999D01*
X244274341Y-123249999D01*
X244274341Y-123250000D01*
X244294936Y-123485403D01*
X244294938Y-123485413D01*
X244356094Y-123713655D01*
X244356096Y-123713659D01*
X244356097Y-123713663D01*
X244445312Y-123904984D01*
X244455965Y-123927830D01*
X244455967Y-123927834D01*
X244564281Y-124082521D01*
X244591505Y-124121401D01*
X244758599Y-124288495D01*
X244837998Y-124344091D01*
X244952165Y-124424032D01*
X244952167Y-124424033D01*
X244952170Y-124424035D01*
X245166337Y-124523903D01*
X245166343Y-124523904D01*
X245166344Y-124523905D01*
X245221285Y-124538626D01*
X245394592Y-124585063D01*
X245571034Y-124600500D01*
X245629999Y-124605659D01*
X245630000Y-124605659D01*
X245630001Y-124605659D01*
X245688966Y-124600500D01*
X245865408Y-124585063D01*
X246093663Y-124523903D01*
X246307830Y-124424035D01*
X246501401Y-124288495D01*
X246668495Y-124121401D01*
X246798425Y-123935842D01*
X246853002Y-123892217D01*
X246922500Y-123885023D01*
X246984855Y-123916546D01*
X247001575Y-123935842D01*
X247131500Y-124121395D01*
X247131505Y-124121401D01*
X247298599Y-124288495D01*
X247377998Y-124344091D01*
X247492165Y-124424032D01*
X247492167Y-124424033D01*
X247492170Y-124424035D01*
X247706337Y-124523903D01*
X247706343Y-124523904D01*
X247706344Y-124523905D01*
X247761285Y-124538626D01*
X247934592Y-124585063D01*
X248111034Y-124600500D01*
X248169999Y-124605659D01*
X248170000Y-124605659D01*
X248170001Y-124605659D01*
X248228966Y-124600500D01*
X248405408Y-124585063D01*
X248633663Y-124523903D01*
X248847830Y-124424035D01*
X249041401Y-124288495D01*
X249208495Y-124121401D01*
X249338425Y-123935842D01*
X249393002Y-123892217D01*
X249462500Y-123885023D01*
X249524855Y-123916546D01*
X249541575Y-123935842D01*
X249671500Y-124121395D01*
X249671505Y-124121401D01*
X249838599Y-124288495D01*
X249917998Y-124344091D01*
X250032165Y-124424032D01*
X250032167Y-124424033D01*
X250032170Y-124424035D01*
X250246337Y-124523903D01*
X250246343Y-124523904D01*
X250246344Y-124523905D01*
X250301285Y-124538626D01*
X250474592Y-124585063D01*
X250651034Y-124600500D01*
X250709999Y-124605659D01*
X250710000Y-124605659D01*
X250710001Y-124605659D01*
X250768966Y-124600500D01*
X250945408Y-124585063D01*
X251173663Y-124523903D01*
X251387830Y-124424035D01*
X251581401Y-124288495D01*
X251748495Y-124121401D01*
X251878730Y-123935405D01*
X251933307Y-123891781D01*
X252002805Y-123884587D01*
X252065160Y-123916110D01*
X252081879Y-123935405D01*
X252211890Y-124121078D01*
X252378917Y-124288105D01*
X252572421Y-124423600D01*
X252786507Y-124523429D01*
X252786516Y-124523433D01*
X253000000Y-124580634D01*
X253000000Y-123683012D01*
X253057007Y-123715925D01*
X253184174Y-123750000D01*
X253315826Y-123750000D01*
X253442993Y-123715925D01*
X253500000Y-123683012D01*
X253500000Y-124580633D01*
X253713483Y-124523433D01*
X253713492Y-124523429D01*
X253927578Y-124423600D01*
X254121082Y-124288105D01*
X254288105Y-124121082D01*
X254418119Y-123935405D01*
X254472696Y-123891781D01*
X254542195Y-123884588D01*
X254604549Y-123916110D01*
X254621269Y-123935405D01*
X254751505Y-124121401D01*
X254918599Y-124288495D01*
X254997998Y-124344091D01*
X255112165Y-124424032D01*
X255112167Y-124424033D01*
X255112170Y-124424035D01*
X255326337Y-124523903D01*
X255326343Y-124523904D01*
X255326344Y-124523905D01*
X255381285Y-124538626D01*
X255554592Y-124585063D01*
X255731034Y-124600500D01*
X255789999Y-124605659D01*
X255790000Y-124605659D01*
X255790001Y-124605659D01*
X255848966Y-124600500D01*
X256025408Y-124585063D01*
X256253663Y-124523903D01*
X256467830Y-124424035D01*
X256661401Y-124288495D01*
X256783329Y-124166566D01*
X256844648Y-124133084D01*
X256914340Y-124138068D01*
X256970274Y-124179939D01*
X256987189Y-124210917D01*
X257036202Y-124342328D01*
X257036206Y-124342335D01*
X257122452Y-124457544D01*
X257122455Y-124457547D01*
X257237664Y-124543793D01*
X257237671Y-124543797D01*
X257372517Y-124594091D01*
X257372516Y-124594091D01*
X257379444Y-124594835D01*
X257432127Y-124600500D01*
X259227872Y-124600499D01*
X259287483Y-124594091D01*
X259422331Y-124543796D01*
X259537546Y-124457546D01*
X259623796Y-124342331D01*
X259674091Y-124207483D01*
X259680500Y-124147873D01*
X259680499Y-122878711D01*
X265149500Y-122878711D01*
X265149500Y-123121288D01*
X265181161Y-123361785D01*
X265243947Y-123596104D01*
X265318986Y-123777263D01*
X265336776Y-123820212D01*
X265458064Y-124030289D01*
X265458066Y-124030292D01*
X265458067Y-124030293D01*
X265605733Y-124222736D01*
X265605739Y-124222743D01*
X265777256Y-124394260D01*
X265777263Y-124394266D01*
X265859733Y-124457547D01*
X265969711Y-124541936D01*
X266179788Y-124663224D01*
X266403900Y-124756054D01*
X266638211Y-124818838D01*
X266818586Y-124842584D01*
X266878711Y-124850500D01*
X266878712Y-124850500D01*
X267121289Y-124850500D01*
X267169388Y-124844167D01*
X267361789Y-124818838D01*
X267596100Y-124756054D01*
X267820212Y-124663224D01*
X268030289Y-124541936D01*
X268222738Y-124394265D01*
X268394265Y-124222738D01*
X268541936Y-124030289D01*
X268663224Y-123820212D01*
X268756054Y-123596100D01*
X268818838Y-123361789D01*
X268850500Y-123121288D01*
X268850500Y-122878712D01*
X268818838Y-122638211D01*
X268756054Y-122403900D01*
X268663224Y-122179788D01*
X268541936Y-121969711D01*
X268394265Y-121777262D01*
X268394260Y-121777256D01*
X268222743Y-121605739D01*
X268222736Y-121605733D01*
X268030293Y-121458067D01*
X268030292Y-121458066D01*
X268030289Y-121458064D01*
X267820212Y-121336776D01*
X267820205Y-121336773D01*
X267596104Y-121243947D01*
X267361785Y-121181161D01*
X267121289Y-121149500D01*
X267121288Y-121149500D01*
X266878712Y-121149500D01*
X266878711Y-121149500D01*
X266638214Y-121181161D01*
X266403895Y-121243947D01*
X266179794Y-121336773D01*
X266179785Y-121336777D01*
X265969706Y-121458067D01*
X265777263Y-121605733D01*
X265777256Y-121605739D01*
X265605739Y-121777256D01*
X265605733Y-121777263D01*
X265458067Y-121969706D01*
X265458064Y-121969710D01*
X265458064Y-121969711D01*
X265454106Y-121976567D01*
X265336777Y-122179785D01*
X265336773Y-122179794D01*
X265243947Y-122403895D01*
X265181161Y-122638214D01*
X265149500Y-122878711D01*
X259680499Y-122878711D01*
X259680499Y-122352128D01*
X259674091Y-122292517D01*
X259672810Y-122289083D01*
X259623797Y-122157671D01*
X259623793Y-122157664D01*
X259537547Y-122042455D01*
X259537544Y-122042452D01*
X259422335Y-121956206D01*
X259422328Y-121956202D01*
X259287482Y-121905908D01*
X259287483Y-121905908D01*
X259227883Y-121899501D01*
X259227881Y-121899500D01*
X259227873Y-121899500D01*
X259227864Y-121899500D01*
X257432129Y-121899500D01*
X257432123Y-121899501D01*
X257372516Y-121905908D01*
X257237671Y-121956202D01*
X257237664Y-121956206D01*
X257122455Y-122042452D01*
X257122452Y-122042455D01*
X257036206Y-122157664D01*
X257036203Y-122157669D01*
X256987189Y-122289083D01*
X256945317Y-122345016D01*
X256879853Y-122369433D01*
X256811580Y-122354581D01*
X256783326Y-122333430D01*
X256661402Y-122211506D01*
X256661395Y-122211501D01*
X256467834Y-122075967D01*
X256467830Y-122075965D01*
X256437324Y-122061740D01*
X256253663Y-121976097D01*
X256253659Y-121976096D01*
X256253655Y-121976094D01*
X256025413Y-121914938D01*
X256025403Y-121914936D01*
X255790001Y-121894341D01*
X255789999Y-121894341D01*
X255554596Y-121914936D01*
X255554586Y-121914938D01*
X255326344Y-121976094D01*
X255326335Y-121976098D01*
X255112171Y-122075964D01*
X255112169Y-122075965D01*
X254918597Y-122211505D01*
X254751508Y-122378594D01*
X254621269Y-122564595D01*
X254566692Y-122608219D01*
X254497193Y-122615412D01*
X254434839Y-122583890D01*
X254418119Y-122564594D01*
X254288113Y-122378926D01*
X254288108Y-122378920D01*
X254121082Y-122211894D01*
X253927578Y-122076399D01*
X253713492Y-121976570D01*
X253713486Y-121976567D01*
X253500000Y-121919364D01*
X253500000Y-122816988D01*
X253442993Y-122784075D01*
X253315826Y-122750000D01*
X253184174Y-122750000D01*
X253057007Y-122784075D01*
X253000000Y-122816988D01*
X253000000Y-121919364D01*
X252999999Y-121919364D01*
X252786513Y-121976567D01*
X252786507Y-121976570D01*
X252572422Y-122076399D01*
X252572420Y-122076400D01*
X252378926Y-122211886D01*
X252378920Y-122211891D01*
X252211891Y-122378920D01*
X252211890Y-122378922D01*
X252081880Y-122564595D01*
X252027303Y-122608219D01*
X251957804Y-122615412D01*
X251895450Y-122583890D01*
X251878730Y-122564594D01*
X251748494Y-122378597D01*
X251581402Y-122211506D01*
X251581395Y-122211501D01*
X251387834Y-122075967D01*
X251387830Y-122075965D01*
X251357324Y-122061740D01*
X251173663Y-121976097D01*
X251173659Y-121976096D01*
X251173655Y-121976094D01*
X250945413Y-121914938D01*
X250945403Y-121914936D01*
X250710001Y-121894341D01*
X250709999Y-121894341D01*
X250474596Y-121914936D01*
X250474586Y-121914938D01*
X250246344Y-121976094D01*
X250246335Y-121976098D01*
X250032171Y-122075964D01*
X250032169Y-122075965D01*
X249838597Y-122211505D01*
X249671505Y-122378597D01*
X249541575Y-122564158D01*
X249486998Y-122607783D01*
X249417500Y-122614977D01*
X249355145Y-122583454D01*
X249338425Y-122564158D01*
X249208494Y-122378597D01*
X249041402Y-122211506D01*
X249041395Y-122211501D01*
X248847834Y-122075967D01*
X248847830Y-122075965D01*
X248817324Y-122061740D01*
X248633663Y-121976097D01*
X248633659Y-121976096D01*
X248633655Y-121976094D01*
X248405413Y-121914938D01*
X248405403Y-121914936D01*
X248170001Y-121894341D01*
X248169999Y-121894341D01*
X247934596Y-121914936D01*
X247934586Y-121914938D01*
X247706344Y-121976094D01*
X247706335Y-121976098D01*
X247492171Y-122075964D01*
X247492169Y-122075965D01*
X247298597Y-122211505D01*
X247131505Y-122378597D01*
X247001575Y-122564158D01*
X246946998Y-122607783D01*
X246877500Y-122614977D01*
X246815145Y-122583454D01*
X246798425Y-122564158D01*
X246668494Y-122378597D01*
X246501402Y-122211506D01*
X246501395Y-122211501D01*
X246307834Y-122075967D01*
X246307830Y-122075965D01*
X246277324Y-122061740D01*
X246093663Y-121976097D01*
X246093659Y-121976096D01*
X246093655Y-121976094D01*
X245865413Y-121914938D01*
X245865403Y-121914936D01*
X245630001Y-121894341D01*
X245629999Y-121894341D01*
X245394596Y-121914936D01*
X245394586Y-121914938D01*
X245166344Y-121976094D01*
X245166335Y-121976098D01*
X244952171Y-122075964D01*
X244952169Y-122075965D01*
X244758597Y-122211505D01*
X244591505Y-122378597D01*
X244455965Y-122572169D01*
X244455964Y-122572171D01*
X244356098Y-122786335D01*
X244356094Y-122786344D01*
X244294938Y-123014586D01*
X244294936Y-123014596D01*
X244274341Y-123249999D01*
X242499735Y-123249999D01*
X242452734Y-123215851D01*
X242452729Y-123215848D01*
X242279807Y-123138857D01*
X242279802Y-123138855D01*
X242134001Y-123107865D01*
X242094646Y-123099500D01*
X241905354Y-123099500D01*
X241859122Y-123109326D01*
X241789455Y-123104008D01*
X241745662Y-123075716D01*
X239914674Y-121244727D01*
X239914673Y-121244726D01*
X239914669Y-121244723D01*
X239808127Y-121173535D01*
X239808122Y-121173533D01*
X239689744Y-121124499D01*
X239689738Y-121124497D01*
X239564071Y-121099500D01*
X239564069Y-121099500D01*
X229685931Y-121099500D01*
X229685929Y-121099500D01*
X229560261Y-121124497D01*
X229560255Y-121124499D01*
X229441875Y-121173533D01*
X229441866Y-121173538D01*
X229335331Y-121244723D01*
X229335327Y-121244726D01*
X223266873Y-127313181D01*
X223205550Y-127346666D01*
X223179192Y-127349500D01*
X223155354Y-127349500D01*
X223122897Y-127356398D01*
X222970197Y-127388855D01*
X222970192Y-127388857D01*
X222797270Y-127465848D01*
X222797265Y-127465851D01*
X222644129Y-127577111D01*
X222517466Y-127717785D01*
X222422821Y-127881715D01*
X222422819Y-127881719D01*
X222391685Y-127977540D01*
X222352247Y-128035215D01*
X222287888Y-128062413D01*
X222219042Y-128050498D01*
X222167566Y-128003253D01*
X222150434Y-127952187D01*
X222135674Y-127811744D01*
X222077179Y-127631716D01*
X221982533Y-127467784D01*
X221855871Y-127327112D01*
X221836697Y-127313181D01*
X221702734Y-127215851D01*
X221702729Y-127215848D01*
X221529807Y-127138857D01*
X221529802Y-127138855D01*
X221384001Y-127107865D01*
X221344646Y-127099500D01*
X221155354Y-127099500D01*
X221122897Y-127106398D01*
X220970197Y-127138855D01*
X220970192Y-127138857D01*
X220797270Y-127215848D01*
X220797265Y-127215851D01*
X220644135Y-127327106D01*
X220644128Y-127327112D01*
X220615891Y-127358473D01*
X220556405Y-127395121D01*
X220523742Y-127399500D01*
X217749097Y-127399500D01*
X217682058Y-127379815D01*
X217636303Y-127327011D01*
X217626359Y-127257853D01*
X217655384Y-127194297D01*
X217661416Y-127187819D01*
X218626493Y-126222743D01*
X219712417Y-125136819D01*
X219773740Y-125103334D01*
X219800098Y-125100500D01*
X221273742Y-125100500D01*
X221340781Y-125120185D01*
X221365891Y-125141527D01*
X221394128Y-125172887D01*
X221394135Y-125172893D01*
X221547265Y-125284148D01*
X221547270Y-125284151D01*
X221720192Y-125361142D01*
X221720197Y-125361144D01*
X221905354Y-125400500D01*
X221905355Y-125400500D01*
X222094644Y-125400500D01*
X222094646Y-125400500D01*
X222279803Y-125361144D01*
X222452730Y-125284151D01*
X222605871Y-125172888D01*
X222732533Y-125032216D01*
X222827179Y-124868284D01*
X222870102Y-124736182D01*
X222909540Y-124678506D01*
X222973898Y-124651308D01*
X222988033Y-124650500D01*
X223094644Y-124650500D01*
X223094646Y-124650500D01*
X223279803Y-124611144D01*
X223452730Y-124534151D01*
X223605871Y-124422888D01*
X223732533Y-124282216D01*
X223827179Y-124118284D01*
X223879773Y-123956415D01*
X223919209Y-123898743D01*
X223971919Y-123873447D01*
X224029803Y-123861144D01*
X224029807Y-123861142D01*
X224029808Y-123861142D01*
X224121732Y-123820214D01*
X224202730Y-123784151D01*
X224355871Y-123672888D01*
X224482533Y-123532216D01*
X224577179Y-123368284D01*
X224629773Y-123206415D01*
X224669209Y-123148743D01*
X224721919Y-123123447D01*
X224779803Y-123111144D01*
X224779807Y-123111142D01*
X224779808Y-123111142D01*
X224838058Y-123085206D01*
X224952730Y-123034151D01*
X225105871Y-122922888D01*
X225232533Y-122782216D01*
X225327179Y-122618284D01*
X225385674Y-122438256D01*
X225405460Y-122250000D01*
X225385674Y-122061744D01*
X225327179Y-121881716D01*
X225232533Y-121717784D01*
X225105871Y-121577112D01*
X225105863Y-121577106D01*
X224952734Y-121465851D01*
X224952729Y-121465848D01*
X224779807Y-121388857D01*
X224779802Y-121388855D01*
X224634001Y-121357865D01*
X224594646Y-121349500D01*
X224405354Y-121349500D01*
X224372897Y-121356398D01*
X224220197Y-121388855D01*
X224220192Y-121388857D01*
X224047270Y-121465848D01*
X224047265Y-121465851D01*
X223894135Y-121577106D01*
X223894128Y-121577112D01*
X223865891Y-121608473D01*
X223806405Y-121645121D01*
X223773742Y-121649500D01*
X219336670Y-121649500D01*
X219336654Y-121649499D01*
X219329058Y-121649499D01*
X219170943Y-121649499D01*
X219094579Y-121669961D01*
X219018214Y-121690423D01*
X219018209Y-121690426D01*
X218881290Y-121769475D01*
X218881282Y-121769481D01*
X214187584Y-126463181D01*
X214126261Y-126496666D01*
X214099903Y-126499500D01*
X186236670Y-126499500D01*
X186236654Y-126499499D01*
X186229058Y-126499499D01*
X186070943Y-126499499D01*
X185994579Y-126519961D01*
X185918214Y-126540423D01*
X185918209Y-126540426D01*
X185781290Y-126619475D01*
X185781282Y-126619481D01*
X182787584Y-129613181D01*
X182726261Y-129646666D01*
X182699903Y-129649500D01*
X154300098Y-129649500D01*
X154233059Y-129629815D01*
X154212417Y-129613181D01*
X153487590Y-128888355D01*
X153487588Y-128888352D01*
X153368717Y-128769481D01*
X153368712Y-128769477D01*
X153275824Y-128715849D01*
X153231785Y-128690423D01*
X153079057Y-128649499D01*
X152920943Y-128649499D01*
X152913347Y-128649499D01*
X152913331Y-128649500D01*
X147409038Y-128649500D01*
X147341999Y-128629815D01*
X147301651Y-128587500D01*
X147269733Y-128532216D01*
X147232533Y-128467784D01*
X147105871Y-128327112D01*
X147105870Y-128327111D01*
X146952734Y-128215851D01*
X146952729Y-128215848D01*
X146779807Y-128138857D01*
X146779802Y-128138855D01*
X146634001Y-128107865D01*
X146594646Y-128099500D01*
X146405354Y-128099500D01*
X146372897Y-128106398D01*
X146220197Y-128138855D01*
X146220192Y-128138857D01*
X146047270Y-128215848D01*
X146047265Y-128215851D01*
X145894129Y-128327111D01*
X145767466Y-128467785D01*
X145672821Y-128631715D01*
X145672818Y-128631722D01*
X145614327Y-128811740D01*
X145614326Y-128811744D01*
X145594540Y-129000000D01*
X20500500Y-129000000D01*
X20500500Y-124878711D01*
X42149500Y-124878711D01*
X42149500Y-125121288D01*
X42181161Y-125361785D01*
X42243947Y-125596104D01*
X42258701Y-125631722D01*
X42336776Y-125820212D01*
X42458064Y-126030289D01*
X42458066Y-126030292D01*
X42458067Y-126030293D01*
X42605733Y-126222736D01*
X42605739Y-126222743D01*
X42777256Y-126394260D01*
X42777262Y-126394265D01*
X42969711Y-126541936D01*
X43179788Y-126663224D01*
X43403900Y-126756054D01*
X43638211Y-126818838D01*
X43818586Y-126842584D01*
X43878711Y-126850500D01*
X43878712Y-126850500D01*
X44121289Y-126850500D01*
X44169388Y-126844167D01*
X44361789Y-126818838D01*
X44596100Y-126756054D01*
X44820212Y-126663224D01*
X45030289Y-126541936D01*
X45222738Y-126394265D01*
X45394265Y-126222738D01*
X45541936Y-126030289D01*
X45663224Y-125820212D01*
X45756054Y-125596100D01*
X45818838Y-125361789D01*
X45850500Y-125121288D01*
X45850500Y-124878712D01*
X45850500Y-124878711D01*
X117149500Y-124878711D01*
X117149500Y-125121288D01*
X117181161Y-125361785D01*
X117243947Y-125596104D01*
X117258701Y-125631722D01*
X117336776Y-125820212D01*
X117458064Y-126030289D01*
X117458066Y-126030292D01*
X117458067Y-126030293D01*
X117605733Y-126222736D01*
X117605739Y-126222743D01*
X117777256Y-126394260D01*
X117777262Y-126394265D01*
X117969711Y-126541936D01*
X118179788Y-126663224D01*
X118403900Y-126756054D01*
X118638211Y-126818838D01*
X118818586Y-126842584D01*
X118878711Y-126850500D01*
X118878712Y-126850500D01*
X119121289Y-126850500D01*
X119169388Y-126844167D01*
X119361789Y-126818838D01*
X119596100Y-126756054D01*
X119820212Y-126663224D01*
X120030289Y-126541936D01*
X120222738Y-126394265D01*
X120394265Y-126222738D01*
X120541936Y-126030289D01*
X120663224Y-125820212D01*
X120756054Y-125596100D01*
X120818838Y-125361789D01*
X120850500Y-125121288D01*
X120850500Y-124878712D01*
X120818838Y-124638211D01*
X120756054Y-124403900D01*
X120752063Y-124394266D01*
X120741301Y-124368284D01*
X120663224Y-124179788D01*
X120541936Y-123969711D01*
X120466496Y-123871396D01*
X120394266Y-123777263D01*
X120394260Y-123777256D01*
X120222743Y-123605739D01*
X120222736Y-123605733D01*
X120030293Y-123458067D01*
X120030292Y-123458066D01*
X120030289Y-123458064D01*
X119820212Y-123336776D01*
X119796879Y-123327111D01*
X119596104Y-123243947D01*
X119456045Y-123206418D01*
X119361789Y-123181162D01*
X119361788Y-123181161D01*
X119361785Y-123181161D01*
X119121289Y-123149500D01*
X119121288Y-123149500D01*
X118878712Y-123149500D01*
X118878711Y-123149500D01*
X118638214Y-123181161D01*
X118403895Y-123243947D01*
X118179794Y-123336773D01*
X118179785Y-123336777D01*
X117969706Y-123458067D01*
X117777263Y-123605733D01*
X117777256Y-123605739D01*
X117605739Y-123777256D01*
X117605733Y-123777263D01*
X117458067Y-123969706D01*
X117336777Y-124179785D01*
X117336773Y-124179794D01*
X117243947Y-124403895D01*
X117181161Y-124638214D01*
X117149500Y-124878711D01*
X45850500Y-124878711D01*
X45818838Y-124638211D01*
X45756054Y-124403900D01*
X45752063Y-124394266D01*
X45741301Y-124368284D01*
X45663224Y-124179788D01*
X45541936Y-123969711D01*
X45466496Y-123871396D01*
X45394266Y-123777263D01*
X45394260Y-123777256D01*
X45222743Y-123605739D01*
X45222736Y-123605733D01*
X45030293Y-123458067D01*
X45030292Y-123458066D01*
X45030289Y-123458064D01*
X44820212Y-123336776D01*
X44796879Y-123327111D01*
X44596104Y-123243947D01*
X44456045Y-123206418D01*
X44361789Y-123181162D01*
X44361788Y-123181161D01*
X44361785Y-123181161D01*
X44121289Y-123149500D01*
X44121288Y-123149500D01*
X43878712Y-123149500D01*
X43878711Y-123149500D01*
X43638214Y-123181161D01*
X43403895Y-123243947D01*
X43179794Y-123336773D01*
X43179785Y-123336777D01*
X42969706Y-123458067D01*
X42777263Y-123605733D01*
X42777256Y-123605739D01*
X42605739Y-123777256D01*
X42605733Y-123777263D01*
X42458067Y-123969706D01*
X42336777Y-124179785D01*
X42336773Y-124179794D01*
X42243947Y-124403895D01*
X42181161Y-124638214D01*
X42149500Y-124878711D01*
X20500500Y-124878711D01*
X20500500Y-122749999D01*
X149414364Y-122749999D01*
X149414364Y-122750000D01*
X150311988Y-122750000D01*
X150279075Y-122807007D01*
X150245000Y-122934174D01*
X150245000Y-123065826D01*
X150279075Y-123192993D01*
X150311988Y-123250000D01*
X149414364Y-123250000D01*
X149471567Y-123463486D01*
X149471570Y-123463492D01*
X149571399Y-123677578D01*
X149706894Y-123871082D01*
X149873917Y-124038105D01*
X150067421Y-124173600D01*
X150281507Y-124273429D01*
X150281516Y-124273433D01*
X150495000Y-124330634D01*
X150495000Y-123433012D01*
X150552007Y-123465925D01*
X150679174Y-123500000D01*
X150810826Y-123500000D01*
X150937993Y-123465925D01*
X150995000Y-123433012D01*
X150995000Y-124330633D01*
X151208483Y-124273433D01*
X151208492Y-124273429D01*
X151422578Y-124173600D01*
X151616078Y-124038108D01*
X151738133Y-123916053D01*
X151799456Y-123882568D01*
X151869148Y-123887552D01*
X151925082Y-123929423D01*
X151941997Y-123960401D01*
X151991202Y-124092328D01*
X151991206Y-124092335D01*
X152077452Y-124207544D01*
X152077455Y-124207547D01*
X152192664Y-124293793D01*
X152192671Y-124293797D01*
X152327517Y-124344091D01*
X152327516Y-124344091D01*
X152334444Y-124344835D01*
X152387127Y-124350500D01*
X154182872Y-124350499D01*
X154242483Y-124344091D01*
X154377331Y-124293796D01*
X154492546Y-124207546D01*
X154578796Y-124092331D01*
X154629091Y-123957483D01*
X154635500Y-123897873D01*
X154635499Y-122102135D01*
X169774500Y-122102135D01*
X169774500Y-123897870D01*
X169774501Y-123897876D01*
X169780908Y-123957483D01*
X169831202Y-124092328D01*
X169831206Y-124092335D01*
X169917452Y-124207544D01*
X169917455Y-124207547D01*
X170032664Y-124293793D01*
X170032671Y-124293797D01*
X170167517Y-124344091D01*
X170167516Y-124344091D01*
X170174444Y-124344835D01*
X170227127Y-124350500D01*
X172022872Y-124350499D01*
X172082483Y-124344091D01*
X172217331Y-124293796D01*
X172332546Y-124207546D01*
X172418796Y-124092331D01*
X172467810Y-123960916D01*
X172509681Y-123904984D01*
X172575145Y-123880566D01*
X172643418Y-123895417D01*
X172671673Y-123916569D01*
X172793599Y-124038495D01*
X172890384Y-124106265D01*
X172987165Y-124174032D01*
X172987167Y-124174033D01*
X172987170Y-124174035D01*
X173201337Y-124273903D01*
X173429592Y-124335063D01*
X173606034Y-124350500D01*
X173664999Y-124355659D01*
X173665000Y-124355659D01*
X173665001Y-124355659D01*
X173723966Y-124350500D01*
X173900408Y-124335063D01*
X174128663Y-124273903D01*
X174342830Y-124174035D01*
X174536401Y-124038495D01*
X174703495Y-123871401D01*
X174833425Y-123685842D01*
X174888002Y-123642217D01*
X174957500Y-123635023D01*
X175019855Y-123666546D01*
X175036575Y-123685842D01*
X175166281Y-123871082D01*
X175166505Y-123871401D01*
X175333599Y-124038495D01*
X175430384Y-124106265D01*
X175527165Y-124174032D01*
X175527167Y-124174033D01*
X175527170Y-124174035D01*
X175741337Y-124273903D01*
X175969592Y-124335063D01*
X176146034Y-124350500D01*
X176204999Y-124355659D01*
X176205000Y-124355659D01*
X176205001Y-124355659D01*
X176263966Y-124350500D01*
X176440408Y-124335063D01*
X176668663Y-124273903D01*
X176882830Y-124174035D01*
X177076401Y-124038495D01*
X177243495Y-123871401D01*
X177373425Y-123685842D01*
X177428002Y-123642217D01*
X177497500Y-123635023D01*
X177559855Y-123666546D01*
X177576575Y-123685842D01*
X177706281Y-123871082D01*
X177706505Y-123871401D01*
X177873599Y-124038495D01*
X177970384Y-124106265D01*
X178067165Y-124174032D01*
X178067167Y-124174033D01*
X178067170Y-124174035D01*
X178281337Y-124273903D01*
X178509592Y-124335063D01*
X178686034Y-124350500D01*
X178744999Y-124355659D01*
X178745000Y-124355659D01*
X178745001Y-124355659D01*
X178803966Y-124350500D01*
X178980408Y-124335063D01*
X179208663Y-124273903D01*
X179422830Y-124174035D01*
X179616401Y-124038495D01*
X179783495Y-123871401D01*
X179913425Y-123685842D01*
X179968002Y-123642217D01*
X180037500Y-123635023D01*
X180099855Y-123666546D01*
X180116575Y-123685842D01*
X180246281Y-123871082D01*
X180246505Y-123871401D01*
X180413599Y-124038495D01*
X180510384Y-124106265D01*
X180607165Y-124174032D01*
X180607167Y-124174033D01*
X180607170Y-124174035D01*
X180821337Y-124273903D01*
X181049592Y-124335063D01*
X181226034Y-124350500D01*
X181284999Y-124355659D01*
X181285000Y-124355659D01*
X181285001Y-124355659D01*
X181343966Y-124350500D01*
X181520408Y-124335063D01*
X181748663Y-124273903D01*
X181962830Y-124174035D01*
X182156401Y-124038495D01*
X182323495Y-123871401D01*
X182453425Y-123685842D01*
X182508002Y-123642217D01*
X182577500Y-123635023D01*
X182639855Y-123666546D01*
X182656575Y-123685842D01*
X182786281Y-123871082D01*
X182786505Y-123871401D01*
X182953599Y-124038495D01*
X183050384Y-124106265D01*
X183147165Y-124174032D01*
X183147167Y-124174033D01*
X183147170Y-124174035D01*
X183361337Y-124273903D01*
X183589592Y-124335063D01*
X183766034Y-124350500D01*
X183824999Y-124355659D01*
X183825000Y-124355659D01*
X183825001Y-124355659D01*
X183883966Y-124350500D01*
X184060408Y-124335063D01*
X184288663Y-124273903D01*
X184502830Y-124174035D01*
X184696401Y-124038495D01*
X184863495Y-123871401D01*
X184993425Y-123685842D01*
X185048002Y-123642217D01*
X185117500Y-123635023D01*
X185179855Y-123666546D01*
X185196575Y-123685842D01*
X185326281Y-123871082D01*
X185326505Y-123871401D01*
X185493599Y-124038495D01*
X185590384Y-124106265D01*
X185687165Y-124174032D01*
X185687167Y-124174033D01*
X185687170Y-124174035D01*
X185901337Y-124273903D01*
X186129592Y-124335063D01*
X186306034Y-124350500D01*
X186364999Y-124355659D01*
X186365000Y-124355659D01*
X186365001Y-124355659D01*
X186423966Y-124350500D01*
X186600408Y-124335063D01*
X186828663Y-124273903D01*
X187042830Y-124174035D01*
X187236401Y-124038495D01*
X187403495Y-123871401D01*
X187533730Y-123685405D01*
X187588307Y-123641781D01*
X187657805Y-123634587D01*
X187720160Y-123666110D01*
X187736879Y-123685405D01*
X187866890Y-123871078D01*
X188033917Y-124038105D01*
X188227421Y-124173600D01*
X188441507Y-124273429D01*
X188441516Y-124273433D01*
X188655000Y-124330634D01*
X188655000Y-123433012D01*
X188712007Y-123465925D01*
X188839174Y-123500000D01*
X188970826Y-123500000D01*
X189097993Y-123465925D01*
X189155000Y-123433012D01*
X189155000Y-124330633D01*
X189368483Y-124273433D01*
X189368492Y-124273429D01*
X189582578Y-124173600D01*
X189776082Y-124038105D01*
X189943105Y-123871082D01*
X190078600Y-123677578D01*
X190178429Y-123463492D01*
X190178432Y-123463486D01*
X190235636Y-123250000D01*
X189338012Y-123250000D01*
X189370925Y-123192993D01*
X189405000Y-123065826D01*
X189405000Y-122934174D01*
X189370925Y-122807007D01*
X189338012Y-122750000D01*
X190235636Y-122750000D01*
X190235635Y-122749999D01*
X190178432Y-122536513D01*
X190178429Y-122536507D01*
X190078600Y-122322422D01*
X190078599Y-122322420D01*
X189943113Y-122128926D01*
X189943108Y-122128920D01*
X189916323Y-122102135D01*
X201109500Y-122102135D01*
X201109500Y-123897870D01*
X201109501Y-123897876D01*
X201115908Y-123957483D01*
X201166202Y-124092328D01*
X201166206Y-124092335D01*
X201252452Y-124207544D01*
X201252455Y-124207547D01*
X201367664Y-124293793D01*
X201367671Y-124293797D01*
X201502517Y-124344091D01*
X201502516Y-124344091D01*
X201509444Y-124344835D01*
X201562127Y-124350500D01*
X203357872Y-124350499D01*
X203417483Y-124344091D01*
X203552331Y-124293796D01*
X203667546Y-124207546D01*
X203753796Y-124092331D01*
X203802810Y-123960916D01*
X203844681Y-123904984D01*
X203910145Y-123880566D01*
X203978418Y-123895417D01*
X204006673Y-123916569D01*
X204128599Y-124038495D01*
X204225384Y-124106265D01*
X204322165Y-124174032D01*
X204322167Y-124174033D01*
X204322170Y-124174035D01*
X204536337Y-124273903D01*
X204764592Y-124335063D01*
X204941034Y-124350500D01*
X204999999Y-124355659D01*
X205000000Y-124355659D01*
X205000001Y-124355659D01*
X205058966Y-124350500D01*
X205235408Y-124335063D01*
X205463663Y-124273903D01*
X205677830Y-124174035D01*
X205871401Y-124038495D01*
X206038495Y-123871401D01*
X206168730Y-123685405D01*
X206223307Y-123641781D01*
X206292805Y-123634587D01*
X206355160Y-123666110D01*
X206371879Y-123685405D01*
X206501890Y-123871078D01*
X206668917Y-124038105D01*
X206862421Y-124173600D01*
X207076507Y-124273429D01*
X207076516Y-124273433D01*
X207290000Y-124330634D01*
X207290000Y-123433012D01*
X207347007Y-123465925D01*
X207474174Y-123500000D01*
X207605826Y-123500000D01*
X207732993Y-123465925D01*
X207790000Y-123433012D01*
X207790000Y-124330633D01*
X208003483Y-124273433D01*
X208003492Y-124273429D01*
X208217578Y-124173600D01*
X208411082Y-124038105D01*
X208578105Y-123871082D01*
X208713600Y-123677578D01*
X208813429Y-123463492D01*
X208813432Y-123463486D01*
X208870636Y-123250000D01*
X207973012Y-123250000D01*
X208005925Y-123192993D01*
X208040000Y-123065826D01*
X208040000Y-122934174D01*
X208005925Y-122807007D01*
X207973012Y-122750000D01*
X208870636Y-122750000D01*
X208870635Y-122749999D01*
X208813432Y-122536513D01*
X208813429Y-122536507D01*
X208713600Y-122322422D01*
X208713599Y-122322420D01*
X208578113Y-122128926D01*
X208578108Y-122128920D01*
X208411082Y-121961894D01*
X208217578Y-121826399D01*
X208003492Y-121726570D01*
X208003486Y-121726567D01*
X207790000Y-121669364D01*
X207790000Y-122566988D01*
X207732993Y-122534075D01*
X207605826Y-122500000D01*
X207474174Y-122500000D01*
X207347007Y-122534075D01*
X207290000Y-122566988D01*
X207290000Y-121669364D01*
X207289999Y-121669364D01*
X207076513Y-121726567D01*
X207076507Y-121726570D01*
X206862422Y-121826399D01*
X206862420Y-121826400D01*
X206668926Y-121961886D01*
X206668920Y-121961891D01*
X206501891Y-122128920D01*
X206501890Y-122128922D01*
X206371880Y-122314595D01*
X206317303Y-122358219D01*
X206247804Y-122365412D01*
X206185450Y-122333890D01*
X206168730Y-122314594D01*
X206038494Y-122128597D01*
X205871402Y-121961506D01*
X205871395Y-121961501D01*
X205863827Y-121956202D01*
X205832521Y-121934281D01*
X205677834Y-121825967D01*
X205677830Y-121825965D01*
X205677828Y-121825964D01*
X205463663Y-121726097D01*
X205463659Y-121726096D01*
X205463655Y-121726094D01*
X205235413Y-121664938D01*
X205235403Y-121664936D01*
X205000001Y-121644341D01*
X204999999Y-121644341D01*
X204764596Y-121664936D01*
X204764586Y-121664938D01*
X204536344Y-121726094D01*
X204536335Y-121726098D01*
X204322171Y-121825964D01*
X204322169Y-121825965D01*
X204128600Y-121961503D01*
X204006673Y-122083430D01*
X203945350Y-122116914D01*
X203875658Y-122111930D01*
X203819725Y-122070058D01*
X203802810Y-122039081D01*
X203753797Y-121907671D01*
X203753793Y-121907664D01*
X203667547Y-121792455D01*
X203667544Y-121792452D01*
X203552335Y-121706206D01*
X203552328Y-121706202D01*
X203417482Y-121655908D01*
X203417483Y-121655908D01*
X203357883Y-121649501D01*
X203357881Y-121649500D01*
X203357873Y-121649500D01*
X203357864Y-121649500D01*
X201562129Y-121649500D01*
X201562123Y-121649501D01*
X201502516Y-121655908D01*
X201367671Y-121706202D01*
X201367664Y-121706206D01*
X201252455Y-121792452D01*
X201252452Y-121792455D01*
X201166206Y-121907664D01*
X201166202Y-121907671D01*
X201115908Y-122042517D01*
X201110209Y-122095532D01*
X201109501Y-122102123D01*
X201109500Y-122102135D01*
X189916323Y-122102135D01*
X189776082Y-121961894D01*
X189582578Y-121826399D01*
X189368492Y-121726570D01*
X189368486Y-121726567D01*
X189155000Y-121669364D01*
X189155000Y-122566988D01*
X189097993Y-122534075D01*
X188970826Y-122500000D01*
X188839174Y-122500000D01*
X188712007Y-122534075D01*
X188655000Y-122566988D01*
X188655000Y-121669364D01*
X188654999Y-121669364D01*
X188441513Y-121726567D01*
X188441507Y-121726570D01*
X188227422Y-121826399D01*
X188227420Y-121826400D01*
X188033926Y-121961886D01*
X188033920Y-121961891D01*
X187866891Y-122128920D01*
X187866890Y-122128922D01*
X187736880Y-122314595D01*
X187682303Y-122358219D01*
X187612804Y-122365412D01*
X187550450Y-122333890D01*
X187533730Y-122314594D01*
X187403494Y-122128597D01*
X187236402Y-121961506D01*
X187236395Y-121961501D01*
X187228827Y-121956202D01*
X187197521Y-121934281D01*
X187042834Y-121825967D01*
X187042830Y-121825965D01*
X187042828Y-121825964D01*
X186828663Y-121726097D01*
X186828659Y-121726096D01*
X186828655Y-121726094D01*
X186600413Y-121664938D01*
X186600403Y-121664936D01*
X186365001Y-121644341D01*
X186364999Y-121644341D01*
X186129596Y-121664936D01*
X186129586Y-121664938D01*
X185901344Y-121726094D01*
X185901335Y-121726098D01*
X185687171Y-121825964D01*
X185687169Y-121825965D01*
X185493597Y-121961505D01*
X185326505Y-122128597D01*
X185196575Y-122314158D01*
X185141998Y-122357783D01*
X185072500Y-122364977D01*
X185010145Y-122333454D01*
X184993425Y-122314158D01*
X184863494Y-122128597D01*
X184696402Y-121961506D01*
X184696395Y-121961501D01*
X184688827Y-121956202D01*
X184657521Y-121934281D01*
X184502834Y-121825967D01*
X184502830Y-121825965D01*
X184502828Y-121825964D01*
X184288663Y-121726097D01*
X184288659Y-121726096D01*
X184288655Y-121726094D01*
X184060413Y-121664938D01*
X184060403Y-121664936D01*
X183825001Y-121644341D01*
X183824999Y-121644341D01*
X183589596Y-121664936D01*
X183589586Y-121664938D01*
X183361344Y-121726094D01*
X183361335Y-121726098D01*
X183147171Y-121825964D01*
X183147169Y-121825965D01*
X182953597Y-121961505D01*
X182786505Y-122128597D01*
X182656575Y-122314158D01*
X182601998Y-122357783D01*
X182532500Y-122364977D01*
X182470145Y-122333454D01*
X182453425Y-122314158D01*
X182323494Y-122128597D01*
X182156402Y-121961506D01*
X182156395Y-121961501D01*
X182148827Y-121956202D01*
X182117521Y-121934281D01*
X181962834Y-121825967D01*
X181962830Y-121825965D01*
X181962828Y-121825964D01*
X181748663Y-121726097D01*
X181748659Y-121726096D01*
X181748655Y-121726094D01*
X181520413Y-121664938D01*
X181520403Y-121664936D01*
X181285001Y-121644341D01*
X181284999Y-121644341D01*
X181049596Y-121664936D01*
X181049586Y-121664938D01*
X180821344Y-121726094D01*
X180821335Y-121726098D01*
X180607171Y-121825964D01*
X180607169Y-121825965D01*
X180413597Y-121961505D01*
X180246505Y-122128597D01*
X180116575Y-122314158D01*
X180061998Y-122357783D01*
X179992500Y-122364977D01*
X179930145Y-122333454D01*
X179913425Y-122314158D01*
X179783494Y-122128597D01*
X179616402Y-121961506D01*
X179616395Y-121961501D01*
X179608827Y-121956202D01*
X179577521Y-121934281D01*
X179422834Y-121825967D01*
X179422830Y-121825965D01*
X179422828Y-121825964D01*
X179208663Y-121726097D01*
X179208659Y-121726096D01*
X179208655Y-121726094D01*
X178980413Y-121664938D01*
X178980403Y-121664936D01*
X178745001Y-121644341D01*
X178744999Y-121644341D01*
X178509596Y-121664936D01*
X178509586Y-121664938D01*
X178281344Y-121726094D01*
X178281335Y-121726098D01*
X178067171Y-121825964D01*
X178067169Y-121825965D01*
X177873597Y-121961505D01*
X177706505Y-122128597D01*
X177576575Y-122314158D01*
X177521998Y-122357783D01*
X177452500Y-122364977D01*
X177390145Y-122333454D01*
X177373425Y-122314158D01*
X177243494Y-122128597D01*
X177076402Y-121961506D01*
X177076395Y-121961501D01*
X177068827Y-121956202D01*
X177037521Y-121934281D01*
X176882834Y-121825967D01*
X176882830Y-121825965D01*
X176882828Y-121825964D01*
X176668663Y-121726097D01*
X176668659Y-121726096D01*
X176668655Y-121726094D01*
X176440413Y-121664938D01*
X176440403Y-121664936D01*
X176205001Y-121644341D01*
X176204999Y-121644341D01*
X175969596Y-121664936D01*
X175969586Y-121664938D01*
X175741344Y-121726094D01*
X175741335Y-121726098D01*
X175527171Y-121825964D01*
X175527169Y-121825965D01*
X175333597Y-121961505D01*
X175166505Y-122128597D01*
X175036575Y-122314158D01*
X174981998Y-122357783D01*
X174912500Y-122364977D01*
X174850145Y-122333454D01*
X174833425Y-122314158D01*
X174703494Y-122128597D01*
X174536402Y-121961506D01*
X174536395Y-121961501D01*
X174528827Y-121956202D01*
X174497521Y-121934281D01*
X174342834Y-121825967D01*
X174342830Y-121825965D01*
X174342828Y-121825964D01*
X174128663Y-121726097D01*
X174128659Y-121726096D01*
X174128655Y-121726094D01*
X173900413Y-121664938D01*
X173900403Y-121664936D01*
X173665001Y-121644341D01*
X173664999Y-121644341D01*
X173429596Y-121664936D01*
X173429586Y-121664938D01*
X173201344Y-121726094D01*
X173201335Y-121726098D01*
X172987171Y-121825964D01*
X172987169Y-121825965D01*
X172793600Y-121961503D01*
X172671673Y-122083430D01*
X172610350Y-122116914D01*
X172540658Y-122111930D01*
X172484725Y-122070058D01*
X172467810Y-122039081D01*
X172418797Y-121907671D01*
X172418793Y-121907664D01*
X172332547Y-121792455D01*
X172332544Y-121792452D01*
X172217335Y-121706206D01*
X172217328Y-121706202D01*
X172082482Y-121655908D01*
X172082483Y-121655908D01*
X172022883Y-121649501D01*
X172022881Y-121649500D01*
X172022873Y-121649500D01*
X172022864Y-121649500D01*
X170227129Y-121649500D01*
X170227123Y-121649501D01*
X170167516Y-121655908D01*
X170032671Y-121706202D01*
X170032664Y-121706206D01*
X169917455Y-121792452D01*
X169917452Y-121792455D01*
X169831206Y-121907664D01*
X169831202Y-121907671D01*
X169780908Y-122042517D01*
X169775209Y-122095532D01*
X169774501Y-122102123D01*
X169774500Y-122102135D01*
X154635499Y-122102135D01*
X154635499Y-122102128D01*
X154629091Y-122042517D01*
X154628002Y-122039598D01*
X154578797Y-121907671D01*
X154578793Y-121907664D01*
X154492547Y-121792455D01*
X154492544Y-121792452D01*
X154377335Y-121706206D01*
X154377328Y-121706202D01*
X154242482Y-121655908D01*
X154242483Y-121655908D01*
X154182883Y-121649501D01*
X154182881Y-121649500D01*
X154182873Y-121649500D01*
X154182864Y-121649500D01*
X152387129Y-121649500D01*
X152387123Y-121649501D01*
X152327516Y-121655908D01*
X152192671Y-121706202D01*
X152192664Y-121706206D01*
X152077455Y-121792452D01*
X152077452Y-121792455D01*
X151991206Y-121907664D01*
X151991202Y-121907671D01*
X151941997Y-122039598D01*
X151900126Y-122095532D01*
X151834661Y-122119949D01*
X151766388Y-122105097D01*
X151738134Y-122083946D01*
X151616082Y-121961894D01*
X151422578Y-121826399D01*
X151208492Y-121726570D01*
X151208486Y-121726567D01*
X150995000Y-121669364D01*
X150995000Y-122566988D01*
X150937993Y-122534075D01*
X150810826Y-122500000D01*
X150679174Y-122500000D01*
X150552007Y-122534075D01*
X150495000Y-122566988D01*
X150495000Y-121669364D01*
X150494999Y-121669364D01*
X150281513Y-121726567D01*
X150281507Y-121726570D01*
X150067422Y-121826399D01*
X150067420Y-121826400D01*
X149873926Y-121961886D01*
X149873920Y-121961891D01*
X149706891Y-122128920D01*
X149706886Y-122128926D01*
X149571400Y-122322420D01*
X149571399Y-122322422D01*
X149471570Y-122536507D01*
X149471567Y-122536513D01*
X149414364Y-122749999D01*
X20500500Y-122749999D01*
X20500500Y-120624500D01*
X20520185Y-120557461D01*
X20572989Y-120511706D01*
X20624500Y-120500500D01*
X269375500Y-120500500D01*
X269442539Y-120520185D01*
G37*
%TD.AperFunction*%
%TD*%
M02*
