G04 #@! TF.GenerationSoftware,KiCad,Pcbnew,8.0.4*
G04 #@! TF.CreationDate,2024-09-19T20:08:30+02:00*
G04 #@! TF.ProjectId,Displays_Strip,44697370-6c61-4797-935f-53747269702e,rev?*
G04 #@! TF.SameCoordinates,Original*
G04 #@! TF.FileFunction,Legend,Bot*
G04 #@! TF.FilePolarity,Positive*
%FSLAX46Y46*%
G04 Gerber Fmt 4.6, Leading zero omitted, Abs format (unit mm)*
G04 Created by KiCad (PCBNEW 8.0.4) date 2024-09-19 20:08:30*
%MOMM*%
%LPD*%
G01*
G04 APERTURE LIST*
%ADD10C,0.150000*%
%ADD11C,3.200000*%
%ADD12R,1.700000X1.700000*%
%ADD13O,1.700000X1.700000*%
%ADD14C,1.500000*%
G04 APERTURE END LIST*
D10*
X240586779Y-121880180D02*
X240586779Y-122880180D01*
X241634397Y-121975419D02*
X241586778Y-121927800D01*
X241586778Y-121927800D02*
X241443921Y-121880180D01*
X241443921Y-121880180D02*
X241348683Y-121880180D01*
X241348683Y-121880180D02*
X241205826Y-121927800D01*
X241205826Y-121927800D02*
X241110588Y-122023038D01*
X241110588Y-122023038D02*
X241062969Y-122118276D01*
X241062969Y-122118276D02*
X241015350Y-122308752D01*
X241015350Y-122308752D02*
X241015350Y-122451609D01*
X241015350Y-122451609D02*
X241062969Y-122642085D01*
X241062969Y-122642085D02*
X241110588Y-122737323D01*
X241110588Y-122737323D02*
X241205826Y-122832561D01*
X241205826Y-122832561D02*
X241348683Y-122880180D01*
X241348683Y-122880180D02*
X241443921Y-122880180D01*
X241443921Y-122880180D02*
X241586778Y-122832561D01*
X241586778Y-122832561D02*
X241634397Y-122784942D01*
X242015350Y-121927800D02*
X242158207Y-121880180D01*
X242158207Y-121880180D02*
X242396302Y-121880180D01*
X242396302Y-121880180D02*
X242491540Y-121927800D01*
X242491540Y-121927800D02*
X242539159Y-121975419D01*
X242539159Y-121975419D02*
X242586778Y-122070657D01*
X242586778Y-122070657D02*
X242586778Y-122165895D01*
X242586778Y-122165895D02*
X242539159Y-122261133D01*
X242539159Y-122261133D02*
X242491540Y-122308752D01*
X242491540Y-122308752D02*
X242396302Y-122356371D01*
X242396302Y-122356371D02*
X242205826Y-122403990D01*
X242205826Y-122403990D02*
X242110588Y-122451609D01*
X242110588Y-122451609D02*
X242062969Y-122499228D01*
X242062969Y-122499228D02*
X242015350Y-122594466D01*
X242015350Y-122594466D02*
X242015350Y-122689704D01*
X242015350Y-122689704D02*
X242062969Y-122784942D01*
X242062969Y-122784942D02*
X242110588Y-122832561D01*
X242110588Y-122832561D02*
X242205826Y-122880180D01*
X242205826Y-122880180D02*
X242443921Y-122880180D01*
X242443921Y-122880180D02*
X242586778Y-122832561D01*
X243015350Y-121880180D02*
X243015350Y-122880180D01*
X243015350Y-122880180D02*
X243396302Y-122880180D01*
X243396302Y-122880180D02*
X243491540Y-122832561D01*
X243491540Y-122832561D02*
X243539159Y-122784942D01*
X243539159Y-122784942D02*
X243586778Y-122689704D01*
X243586778Y-122689704D02*
X243586778Y-122546847D01*
X243586778Y-122546847D02*
X243539159Y-122451609D01*
X243539159Y-122451609D02*
X243491540Y-122403990D01*
X243491540Y-122403990D02*
X243396302Y-122356371D01*
X243396302Y-122356371D02*
X243015350Y-122356371D01*
X210086779Y-122380180D02*
X210086779Y-123380180D01*
X210515350Y-123618276D02*
X210610588Y-123665895D01*
X210610588Y-123665895D02*
X210753445Y-123665895D01*
X210753445Y-123665895D02*
X210848683Y-123618276D01*
X210848683Y-123618276D02*
X210896302Y-123523038D01*
X210896302Y-123523038D02*
X210896302Y-123427800D01*
X210896302Y-123427800D02*
X210848683Y-123332561D01*
X210848683Y-123332561D02*
X210515350Y-122999228D01*
X210515350Y-122999228D02*
X210896302Y-122999228D01*
X211896302Y-122475419D02*
X211848683Y-122427800D01*
X211848683Y-122427800D02*
X211705826Y-122380180D01*
X211705826Y-122380180D02*
X211610588Y-122380180D01*
X211610588Y-122380180D02*
X211467731Y-122427800D01*
X211467731Y-122427800D02*
X211372493Y-122523038D01*
X211372493Y-122523038D02*
X211324874Y-122618276D01*
X211324874Y-122618276D02*
X211277255Y-122808752D01*
X211277255Y-122808752D02*
X211277255Y-122951609D01*
X211277255Y-122951609D02*
X211324874Y-123142085D01*
X211324874Y-123142085D02*
X211372493Y-123237323D01*
X211372493Y-123237323D02*
X211467731Y-123332561D01*
X211467731Y-123332561D02*
X211610588Y-123380180D01*
X211610588Y-123380180D02*
X211705826Y-123380180D01*
X211705826Y-123380180D02*
X211848683Y-123332561D01*
X211848683Y-123332561D02*
X211896302Y-123284942D01*
X191086779Y-122903990D02*
X191420112Y-122903990D01*
X191562969Y-122380180D02*
X191086779Y-122380180D01*
X191086779Y-122380180D02*
X191086779Y-123380180D01*
X191086779Y-123380180D02*
X191562969Y-123380180D01*
X191991541Y-122903990D02*
X192324874Y-122903990D01*
X192467731Y-122380180D02*
X191991541Y-122380180D01*
X191991541Y-122380180D02*
X191991541Y-123380180D01*
X191991541Y-123380180D02*
X192467731Y-123380180D01*
X192896303Y-122380180D02*
X192896303Y-123380180D01*
X192896303Y-123380180D02*
X193277255Y-123380180D01*
X193277255Y-123380180D02*
X193372493Y-123332561D01*
X193372493Y-123332561D02*
X193420112Y-123284942D01*
X193420112Y-123284942D02*
X193467731Y-123189704D01*
X193467731Y-123189704D02*
X193467731Y-123046847D01*
X193467731Y-123046847D02*
X193420112Y-122951609D01*
X193420112Y-122951609D02*
X193372493Y-122903990D01*
X193372493Y-122903990D02*
X193277255Y-122856371D01*
X193277255Y-122856371D02*
X192896303Y-122856371D01*
X194467731Y-122380180D02*
X194134398Y-122856371D01*
X193896303Y-122380180D02*
X193896303Y-123380180D01*
X193896303Y-123380180D02*
X194277255Y-123380180D01*
X194277255Y-123380180D02*
X194372493Y-123332561D01*
X194372493Y-123332561D02*
X194420112Y-123284942D01*
X194420112Y-123284942D02*
X194467731Y-123189704D01*
X194467731Y-123189704D02*
X194467731Y-123046847D01*
X194467731Y-123046847D02*
X194420112Y-122951609D01*
X194420112Y-122951609D02*
X194372493Y-122903990D01*
X194372493Y-122903990D02*
X194277255Y-122856371D01*
X194277255Y-122856371D02*
X193896303Y-122856371D01*
X195086779Y-123380180D02*
X195277255Y-123380180D01*
X195277255Y-123380180D02*
X195372493Y-123332561D01*
X195372493Y-123332561D02*
X195467731Y-123237323D01*
X195467731Y-123237323D02*
X195515350Y-123046847D01*
X195515350Y-123046847D02*
X195515350Y-122713514D01*
X195515350Y-122713514D02*
X195467731Y-122523038D01*
X195467731Y-122523038D02*
X195372493Y-122427800D01*
X195372493Y-122427800D02*
X195277255Y-122380180D01*
X195277255Y-122380180D02*
X195086779Y-122380180D01*
X195086779Y-122380180D02*
X194991541Y-122427800D01*
X194991541Y-122427800D02*
X194896303Y-122523038D01*
X194896303Y-122523038D02*
X194848684Y-122713514D01*
X194848684Y-122713514D02*
X194848684Y-123046847D01*
X194848684Y-123046847D02*
X194896303Y-123237323D01*
X194896303Y-123237323D02*
X194991541Y-123332561D01*
X194991541Y-123332561D02*
X195086779Y-123380180D01*
X195943922Y-122380180D02*
X195943922Y-123380180D01*
X195943922Y-123380180D02*
X196277255Y-122665895D01*
X196277255Y-122665895D02*
X196610588Y-123380180D01*
X196610588Y-123380180D02*
X196610588Y-122380180D01*
X171360588Y-120380180D02*
X170789160Y-120380180D01*
X171074874Y-120380180D02*
X171074874Y-121380180D01*
X171074874Y-121380180D02*
X170979636Y-121237323D01*
X170979636Y-121237323D02*
X170884398Y-121142085D01*
X170884398Y-121142085D02*
X170789160Y-121094466D01*
X202860588Y-120380180D02*
X202289160Y-120380180D01*
X202574874Y-120380180D02*
X202574874Y-121380180D01*
X202574874Y-121380180D02*
X202479636Y-121237323D01*
X202479636Y-121237323D02*
X202384398Y-121142085D01*
X202384398Y-121142085D02*
X202289160Y-121094466D01*
X258860588Y-120630180D02*
X258289160Y-120630180D01*
X258574874Y-120630180D02*
X258574874Y-121630180D01*
X258574874Y-121630180D02*
X258479636Y-121487323D01*
X258479636Y-121487323D02*
X258384398Y-121392085D01*
X258384398Y-121392085D02*
X258289160Y-121344466D01*
X149360588Y-121332561D02*
X149265350Y-121380180D01*
X149265350Y-121380180D02*
X149122493Y-121380180D01*
X149122493Y-121380180D02*
X148979636Y-121332561D01*
X148979636Y-121332561D02*
X148884398Y-121237323D01*
X148884398Y-121237323D02*
X148836779Y-121142085D01*
X148836779Y-121142085D02*
X148789160Y-120951609D01*
X148789160Y-120951609D02*
X148789160Y-120808752D01*
X148789160Y-120808752D02*
X148836779Y-120618276D01*
X148836779Y-120618276D02*
X148884398Y-120523038D01*
X148884398Y-120523038D02*
X148979636Y-120427800D01*
X148979636Y-120427800D02*
X149122493Y-120380180D01*
X149122493Y-120380180D02*
X149217731Y-120380180D01*
X149217731Y-120380180D02*
X149360588Y-120427800D01*
X149360588Y-120427800D02*
X149408207Y-120475419D01*
X149408207Y-120475419D02*
X149408207Y-120808752D01*
X149408207Y-120808752D02*
X149217731Y-120808752D01*
X149836779Y-120380180D02*
X149836779Y-121380180D01*
X149836779Y-121380180D02*
X150408207Y-120380180D01*
X150408207Y-120380180D02*
X150408207Y-121380180D01*
X150884398Y-120380180D02*
X150884398Y-121380180D01*
X150884398Y-121380180D02*
X151122493Y-121380180D01*
X151122493Y-121380180D02*
X151265350Y-121332561D01*
X151265350Y-121332561D02*
X151360588Y-121237323D01*
X151360588Y-121237323D02*
X151408207Y-121142085D01*
X151408207Y-121142085D02*
X151455826Y-120951609D01*
X151455826Y-120951609D02*
X151455826Y-120808752D01*
X151455826Y-120808752D02*
X151408207Y-120618276D01*
X151408207Y-120618276D02*
X151360588Y-120523038D01*
X151360588Y-120523038D02*
X151265350Y-120427800D01*
X151265350Y-120427800D02*
X151122493Y-120380180D01*
X151122493Y-120380180D02*
X150884398Y-120380180D01*
X153110588Y-120380180D02*
X152539160Y-120380180D01*
X152824874Y-120380180D02*
X152824874Y-121380180D01*
X152824874Y-121380180D02*
X152729636Y-121237323D01*
X152729636Y-121237323D02*
X152634398Y-121142085D01*
X152634398Y-121142085D02*
X152539160Y-121094466D01*
X153491541Y-121284942D02*
X153539160Y-121332561D01*
X153539160Y-121332561D02*
X153634398Y-121380180D01*
X153634398Y-121380180D02*
X153872493Y-121380180D01*
X153872493Y-121380180D02*
X153967731Y-121332561D01*
X153967731Y-121332561D02*
X154015350Y-121284942D01*
X154015350Y-121284942D02*
X154062969Y-121189704D01*
X154062969Y-121189704D02*
X154062969Y-121094466D01*
X154062969Y-121094466D02*
X154015350Y-120951609D01*
X154015350Y-120951609D02*
X153443922Y-120380180D01*
X153443922Y-120380180D02*
X154062969Y-120380180D01*
X154348684Y-121380180D02*
X154682017Y-120380180D01*
X154682017Y-120380180D02*
X155015350Y-121380180D01*
%LPC*%
D11*
X119000000Y-125000000D03*
D12*
X153285000Y-123000000D03*
D13*
X150745000Y-123000000D03*
D11*
X69000000Y-145000000D03*
X267000000Y-123000000D03*
D12*
X258330000Y-123250000D03*
D13*
X255790000Y-123250000D03*
X253250000Y-123250000D03*
X250710000Y-123250000D03*
X248170000Y-123250000D03*
X245630000Y-123250000D03*
D11*
X194000000Y-145000000D03*
X44000000Y-125000000D03*
D14*
X233000000Y-131450000D03*
X233000000Y-126570000D03*
D12*
X202460000Y-123000000D03*
D13*
X205000000Y-123000000D03*
X207540000Y-123000000D03*
D12*
X171125000Y-123000000D03*
D13*
X173665000Y-123000000D03*
X176205000Y-123000000D03*
X178745000Y-123000000D03*
X181285000Y-123000000D03*
X183825000Y-123000000D03*
X186365000Y-123000000D03*
X188905000Y-123000000D03*
%LPD*%
M02*
