M48
; DRILL file {KiCad 8.0.4} date 2024-09-18T22:36:14+0200
; FORMAT={-:-/ absolute / inch / decimal}
; #@! TF.CreationDate,2024-09-18T22:36:14+02:00
; #@! TF.GenerationSoftware,Kicad,Pcbnew,8.0.4
; #@! TF.FileFunction,Plated,1,2,PTH
FMAT,2
INCH
; #@! TA.AperFunction,Plated,PTH,ViaDrill
T1C0.0157
; #@! TA.AperFunction,Plated,PTH,ComponentDrill
T2C0.0315
; #@! TA.AperFunction,Plated,PTH,ComponentDrill
T3C0.0394
%
G90
G05
T1
X0.9252Y-5.7087
X1.0039Y-4.8819
X1.0039Y-5.2756
X1.0827Y-5.6299
X1.2598Y-5.7874
X1.3189Y-5.0197
X1.5157Y-5.6102
X1.6535Y-5.2559
X1.7323Y-5.7874
X1.939Y-5.6693
X1.939Y-5.7382
X2.0669Y-5.6299
X2.1555Y-5.3248
X2.1555Y-5.5512
X2.2047Y-5.4035
X2.2047Y-5.5512
X2.2244Y-5.6988
X2.2343Y-5.7972
X2.2441Y-5.4331
X2.2441Y-5.5512
X2.2638Y-5.0591
X2.2835Y-5.4724
X2.2835Y-5.5512
X2.5197Y-4.8425
X2.5197Y-5.6102
X2.6772Y-5.315
X2.8543Y-4.8228
X2.874Y-4.9606
X2.9134Y-5.2362
X2.9232Y-5.6693
X2.9232Y-5.7382
X2.9528Y-5.0591
X3.0512Y-5.3248
X3.0512Y-5.6299
X3.0709Y-5.187
X3.1496Y-5.561
X3.189Y-5.4035
X3.189Y-5.561
X3.2087Y-5.6988
X3.2185Y-5.7972
X3.2283Y-5.4331
X3.2283Y-5.5512
X3.2677Y-5.2264
X3.2677Y-5.4724
X3.2677Y-5.5413
X3.3858Y-5.3543
X3.5039Y-5.6102
X3.622Y-5.2559
X3.6614Y-4.9016
X3.7008Y-5.7874
X3.9075Y-5.6693
X3.9075Y-5.7382
X4.0157Y-5.6299
X4.124Y-5.3839
X4.1339Y-5.5512
X4.1732Y-5.3839
X4.1732Y-5.5512
X4.1929Y-5.6988
X4.2126Y-5.4331
X4.2126Y-5.5512
X4.2126Y-5.7972
X4.252Y-5.4724
X4.252Y-5.5413
X4.5276Y-5.6299
X4.6654Y-5.315
X4.685Y-5.7874
X4.8917Y-5.6693
X4.8917Y-5.7382
X5.0197Y-5.6299
X5.1083Y-5.3937
X5.1181Y-5.561
X5.1575Y-5.3346
X5.1575Y-5.561
X5.1772Y-4.9213
X5.1772Y-5.6988
X5.1969Y-5.4331
X5.1969Y-5.561
X5.1969Y-5.7972
X5.2362Y-5.4724
X5.2362Y-5.5413
X5.5118Y-5.6102
X5.5512Y-5.315
X5.6496Y-4.8228
X5.6693Y-5.7874
X5.7677Y-5.0787
X5.8169Y-5.1181
X5.8268Y-4.8425
X5.876Y-5.6693
X5.876Y-5.7382
X5.8858Y-5.1575
X5.9449Y-5.1969
X5.9843Y-5.2362
X6.0039Y-5.6299
X6.0827Y-5.3051
X6.0925Y-5.5512
X6.1319Y-5.3839
X6.1319Y-5.5512
X6.1614Y-5.6988
X6.1614Y-5.7972
X6.1811Y-5.3051
X6.1811Y-5.3543
X6.1811Y-5.4331
X6.1811Y-5.5512
X6.2205Y-5.4724
X6.2205Y-5.5512
X6.3386Y-5.0
X6.378Y-5.3543
X6.4764Y-5.6102
X6.4961Y-5.2657
X6.5748Y-4.9213
X6.6535Y-5.7874
X6.6634Y-5.4232
X6.7126Y-5.0787
X6.7126Y-5.4232
X6.8602Y-5.6693
X6.8602Y-5.7382
X6.9685Y-5.3543
X6.9882Y-5.6299
X7.0177Y-5.561
X7.1063Y-5.561
X7.1457Y-5.4528
X7.1457Y-5.6988
X7.1654Y-5.561
X7.1654Y-5.7972
X7.185Y-5.0591
X7.185Y-5.4921
X7.2047Y-5.561
X7.2933Y-5.561
X7.4114Y-5.2756
X7.4213Y-5.1772
X7.4606Y-5.6299
X7.6378Y-5.2461
X7.7559Y-4.8819
X7.7559Y-5.1181
X7.7559Y-5.2559
X7.8445Y-5.6693
X7.8445Y-5.7382
X7.8642Y-5.1378
X7.9528Y-5.2756
X7.9724Y-5.6299
X8.0512Y-5.1654
X8.1102Y-5.5709
X8.1299Y-5.4528
X8.1299Y-5.6988
X8.1496Y-5.7972
X8.15Y-5.561
X8.1693Y-5.2756
X8.1693Y-5.4921
X8.1894Y-5.561
X8.2579Y-5.5807
X8.3071Y-5.4232
X8.3661Y-4.9016
X8.4449Y-5.4528
X8.4843Y-5.4921
X8.4843Y-5.5906
X8.5433Y-5.1969
X8.5531Y-5.0984
X8.622Y-5.0689
X8.622Y-5.3228
X8.622Y-5.5906
X8.622Y-5.7874
X8.6811Y-5.0787
X8.6811Y-5.3642
X8.6909Y-5.2854
X8.7106Y-5.0394
X8.7205Y-5.3543
X8.7402Y-4.9016
X8.7598Y-5.5118
X8.7795Y-4.872
X8.7894Y-5.0492
X8.7992Y-5.4823
X8.8091Y-4.8425
X8.8189Y-5.1575
X8.8264Y-5.0625
X8.8287Y-5.7382
X8.8386Y-4.813
X8.8386Y-5.2953
X8.8386Y-5.5906
X8.8976Y-5.4232
X8.8976Y-5.5906
X8.9393Y-5.6772
X8.9764Y-5.6299
X8.9961Y-4.9803
X9.0551Y-5.5709
X9.0748Y-5.1575
X9.0748Y-5.4134
X9.0945Y-5.5709
X9.1142Y-5.6988
X9.1142Y-5.7972
X9.124Y-5.4134
X9.1339Y-5.4823
X9.1437Y-5.5709
X9.1732Y-5.5118
X9.1831Y-5.5709
X9.4094Y-5.0787
X9.4488Y-5.6299
X9.5177Y-5.3563
X9.5276Y-4.8819
X9.6457Y-5.7874
X9.685Y-5.1575
X9.7146Y-4.9606
X9.813Y-5.6693
X9.813Y-5.7382
X9.8327Y-5.4134
X9.8819Y-5.3445
X9.9409Y-5.6299
X9.9606Y-4.9409
X9.9606Y-5.0394
X9.9803Y-5.3445
X10.0098Y-5.5413
X10.0295Y-5.3839
X10.0591Y-5.5315
X10.0689Y-5.5803
X10.0886Y-5.4429
X10.1181Y-5.5364
X10.1181Y-5.7874
X10.1476Y-5.4724
X10.161Y-5.5709
X10.3543Y-4.9606
X10.3543Y-5.4134
X10.4724Y-5.1181
X10.4724Y-5.7283
T2
X9.1732Y-4.9831
X9.1732Y-5.1752
T3
X5.9348Y-4.8425
X6.0348Y-4.8425
X6.7372Y-4.8425
X6.8372Y-4.8425
X6.9372Y-4.8425
X7.0372Y-4.8425
X7.1372Y-4.8425
X7.2372Y-4.8425
X7.3372Y-4.8425
X7.4372Y-4.8425
X7.9709Y-4.8425
X8.0709Y-4.8425
X8.1709Y-4.8425
X9.6705Y-4.8524
X9.7705Y-4.8524
X9.8705Y-4.8524
X9.9705Y-4.8524
X10.0705Y-4.8524
X10.1705Y-4.8524
M30
