%TF.GenerationSoftware,KiCad,Pcbnew,8.0.4*%
%TF.CreationDate,2024-09-19T20:08:32+02:00*%
%TF.ProjectId,Displays_Strip,44697370-6c61-4797-935f-53747269702e,rev?*%
%TF.SameCoordinates,Original*%
%TF.FileFunction,Drillmap*%
%TF.FilePolarity,Positive*%
%FSLAX45Y45*%
G04 Gerber Fmt 4.5, Leading zero omitted, Abs format (unit mm)*
G04 Created by KiCad (PCBNEW 8.0.4) date 2024-09-19 20:08:32*
%MOMM*%
%LPD*%
G01*
G04 APERTURE LIST*
%ADD10C,0.050000*%
%ADD11C,0.200000*%
%ADD12C,0.100000*%
G04 APERTURE END LIST*
D10*
X2000000Y-15000000D02*
X27000000Y-15000000D01*
X2000000Y-12000000D02*
X2000000Y-15000000D01*
X27000000Y-15000000D02*
X27000000Y-12000000D01*
X27000000Y-12000000D02*
X2000000Y-12000000D01*
D11*
D12*
X2330000Y-14480000D02*
X2370000Y-14520000D01*
X2370000Y-14480000D02*
X2330000Y-14520000D01*
X2530000Y-12380000D02*
X2570000Y-12420000D01*
X2570000Y-12380000D02*
X2530000Y-12420000D01*
X2530000Y-13380000D02*
X2570000Y-13420000D01*
X2570000Y-13380000D02*
X2530000Y-13420000D01*
X2730000Y-14280000D02*
X2770000Y-14320000D01*
X2770000Y-14280000D02*
X2730000Y-14320000D01*
X3180000Y-14680000D02*
X3220000Y-14720000D01*
X3220000Y-14680000D02*
X3180000Y-14720000D01*
X3330000Y-12730000D02*
X3370000Y-12770000D01*
X3370000Y-12730000D02*
X3330000Y-12770000D01*
X3830000Y-14230000D02*
X3870000Y-14270000D01*
X3870000Y-14230000D02*
X3830000Y-14270000D01*
X4180000Y-13330000D02*
X4220000Y-13370000D01*
X4220000Y-13330000D02*
X4180000Y-13370000D01*
X4380000Y-14680000D02*
X4420000Y-14720000D01*
X4420000Y-14680000D02*
X4380000Y-14720000D01*
X4905000Y-14380000D02*
X4945000Y-14420000D01*
X4945000Y-14380000D02*
X4905000Y-14420000D01*
X4905000Y-14555000D02*
X4945000Y-14595000D01*
X4945000Y-14555000D02*
X4905000Y-14595000D01*
X5230000Y-14280000D02*
X5270000Y-14320000D01*
X5270000Y-14280000D02*
X5230000Y-14320000D01*
X5455000Y-13505000D02*
X5495000Y-13545000D01*
X5495000Y-13505000D02*
X5455000Y-13545000D01*
X5455000Y-14080000D02*
X5495000Y-14120000D01*
X5495000Y-14080000D02*
X5455000Y-14120000D01*
X5580000Y-13705000D02*
X5620000Y-13745000D01*
X5620000Y-13705000D02*
X5580000Y-13745000D01*
X5580000Y-14080000D02*
X5620000Y-14120000D01*
X5620000Y-14080000D02*
X5580000Y-14120000D01*
X5630000Y-14455000D02*
X5670000Y-14495000D01*
X5670000Y-14455000D02*
X5630000Y-14495000D01*
X5655000Y-14705000D02*
X5695000Y-14745000D01*
X5695000Y-14705000D02*
X5655000Y-14745000D01*
X5680000Y-13780000D02*
X5720000Y-13820000D01*
X5720000Y-13780000D02*
X5680000Y-13820000D01*
X5680000Y-14080000D02*
X5720000Y-14120000D01*
X5720000Y-14080000D02*
X5680000Y-14120000D01*
X5730000Y-12830000D02*
X5770000Y-12870000D01*
X5770000Y-12830000D02*
X5730000Y-12870000D01*
X5780000Y-13880000D02*
X5820000Y-13920000D01*
X5820000Y-13880000D02*
X5780000Y-13920000D01*
X5780000Y-14080000D02*
X5820000Y-14120000D01*
X5820000Y-14080000D02*
X5780000Y-14120000D01*
X6380000Y-12280000D02*
X6420000Y-12320000D01*
X6420000Y-12280000D02*
X6380000Y-12320000D01*
X6380000Y-14230000D02*
X6420000Y-14270000D01*
X6420000Y-14230000D02*
X6380000Y-14270000D01*
X6780000Y-13480000D02*
X6820000Y-13520000D01*
X6820000Y-13480000D02*
X6780000Y-13520000D01*
X7230000Y-12230000D02*
X7270000Y-12270000D01*
X7270000Y-12230000D02*
X7230000Y-12270000D01*
X7280000Y-12580000D02*
X7320000Y-12620000D01*
X7320000Y-12580000D02*
X7280000Y-12620000D01*
X7380000Y-13280000D02*
X7420000Y-13320000D01*
X7420000Y-13280000D02*
X7380000Y-13320000D01*
X7405000Y-14380000D02*
X7445000Y-14420000D01*
X7445000Y-14380000D02*
X7405000Y-14420000D01*
X7405000Y-14555000D02*
X7445000Y-14595000D01*
X7445000Y-14555000D02*
X7405000Y-14595000D01*
X7480000Y-12830000D02*
X7520000Y-12870000D01*
X7520000Y-12830000D02*
X7480000Y-12870000D01*
X7730000Y-13505000D02*
X7770000Y-13545000D01*
X7770000Y-13505000D02*
X7730000Y-13545000D01*
X7730000Y-14280000D02*
X7770000Y-14320000D01*
X7770000Y-14280000D02*
X7730000Y-14320000D01*
X7780000Y-13155000D02*
X7820000Y-13195000D01*
X7820000Y-13155000D02*
X7780000Y-13195000D01*
X7980000Y-14105000D02*
X8020000Y-14145000D01*
X8020000Y-14105000D02*
X7980000Y-14145000D01*
X8080000Y-13705000D02*
X8120000Y-13745000D01*
X8120000Y-13705000D02*
X8080000Y-13745000D01*
X8080000Y-14105000D02*
X8120000Y-14145000D01*
X8120000Y-14105000D02*
X8080000Y-14145000D01*
X8130000Y-14455000D02*
X8170000Y-14495000D01*
X8170000Y-14455000D02*
X8130000Y-14495000D01*
X8155000Y-14705000D02*
X8195000Y-14745000D01*
X8195000Y-14705000D02*
X8155000Y-14745000D01*
X8180000Y-13780000D02*
X8220000Y-13820000D01*
X8220000Y-13780000D02*
X8180000Y-13820000D01*
X8180000Y-14080000D02*
X8220000Y-14120000D01*
X8220000Y-14080000D02*
X8180000Y-14120000D01*
X8280000Y-13255000D02*
X8320000Y-13295000D01*
X8320000Y-13255000D02*
X8280000Y-13295000D01*
X8280000Y-13880000D02*
X8320000Y-13920000D01*
X8320000Y-13880000D02*
X8280000Y-13920000D01*
X8280000Y-14055000D02*
X8320000Y-14095000D01*
X8320000Y-14055000D02*
X8280000Y-14095000D01*
X8580000Y-13580000D02*
X8620000Y-13620000D01*
X8620000Y-13580000D02*
X8580000Y-13620000D01*
X8880000Y-14230000D02*
X8920000Y-14270000D01*
X8920000Y-14230000D02*
X8880000Y-14270000D01*
X9180000Y-13330000D02*
X9220000Y-13370000D01*
X9220000Y-13330000D02*
X9180000Y-13370000D01*
X9280000Y-12430000D02*
X9320000Y-12470000D01*
X9320000Y-12430000D02*
X9280000Y-12470000D01*
X9380000Y-14680000D02*
X9420000Y-14720000D01*
X9420000Y-14680000D02*
X9380000Y-14720000D01*
X9905000Y-14380000D02*
X9945000Y-14420000D01*
X9945000Y-14380000D02*
X9905000Y-14420000D01*
X9905000Y-14555000D02*
X9945000Y-14595000D01*
X9945000Y-14555000D02*
X9905000Y-14595000D01*
X10180000Y-14280000D02*
X10220000Y-14320000D01*
X10220000Y-14280000D02*
X10180000Y-14320000D01*
X10455000Y-13655000D02*
X10495000Y-13695000D01*
X10495000Y-13655000D02*
X10455000Y-13695000D01*
X10480000Y-14080000D02*
X10520000Y-14120000D01*
X10520000Y-14080000D02*
X10480000Y-14120000D01*
X10580000Y-13655000D02*
X10620000Y-13695000D01*
X10620000Y-13655000D02*
X10580000Y-13695000D01*
X10580000Y-14080000D02*
X10620000Y-14120000D01*
X10620000Y-14080000D02*
X10580000Y-14120000D01*
X10630000Y-14455000D02*
X10670000Y-14495000D01*
X10670000Y-14455000D02*
X10630000Y-14495000D01*
X10680000Y-13780000D02*
X10720000Y-13820000D01*
X10720000Y-13780000D02*
X10680000Y-13820000D01*
X10680000Y-14080000D02*
X10720000Y-14120000D01*
X10720000Y-14080000D02*
X10680000Y-14120000D01*
X10680000Y-14705000D02*
X10720000Y-14745000D01*
X10720000Y-14705000D02*
X10680000Y-14745000D01*
X10780000Y-13880000D02*
X10820000Y-13920000D01*
X10820000Y-13880000D02*
X10780000Y-13920000D01*
X10780000Y-14055000D02*
X10820000Y-14095000D01*
X10820000Y-14055000D02*
X10780000Y-14095000D01*
X11480000Y-14280000D02*
X11520000Y-14320000D01*
X11520000Y-14280000D02*
X11480000Y-14320000D01*
X11830000Y-13480000D02*
X11870000Y-13520000D01*
X11870000Y-13480000D02*
X11830000Y-13520000D01*
X11880000Y-14680000D02*
X11920000Y-14720000D01*
X11920000Y-14680000D02*
X11880000Y-14720000D01*
X12405000Y-14380000D02*
X12445000Y-14420000D01*
X12445000Y-14380000D02*
X12405000Y-14420000D01*
X12405000Y-14555000D02*
X12445000Y-14595000D01*
X12445000Y-14555000D02*
X12405000Y-14595000D01*
X12730000Y-14280000D02*
X12770000Y-14320000D01*
X12770000Y-14280000D02*
X12730000Y-14320000D01*
X12955000Y-13680000D02*
X12995000Y-13720000D01*
X12995000Y-13680000D02*
X12955000Y-13720000D01*
X12980000Y-14105000D02*
X13020000Y-14145000D01*
X13020000Y-14105000D02*
X12980000Y-14145000D01*
X13080000Y-13530000D02*
X13120000Y-13570000D01*
X13120000Y-13530000D02*
X13080000Y-13570000D01*
X13080000Y-14105000D02*
X13120000Y-14145000D01*
X13120000Y-14105000D02*
X13080000Y-14145000D01*
X13130000Y-12480000D02*
X13170000Y-12520000D01*
X13170000Y-12480000D02*
X13130000Y-12520000D01*
X13130000Y-14455000D02*
X13170000Y-14495000D01*
X13170000Y-14455000D02*
X13130000Y-14495000D01*
X13180000Y-13780000D02*
X13220000Y-13820000D01*
X13220000Y-13780000D02*
X13180000Y-13820000D01*
X13180000Y-14105000D02*
X13220000Y-14145000D01*
X13220000Y-14105000D02*
X13180000Y-14145000D01*
X13180000Y-14705000D02*
X13220000Y-14745000D01*
X13220000Y-14705000D02*
X13180000Y-14745000D01*
X13280000Y-13880000D02*
X13320000Y-13920000D01*
X13320000Y-13880000D02*
X13280000Y-13920000D01*
X13280000Y-14055000D02*
X13320000Y-14095000D01*
X13320000Y-14055000D02*
X13280000Y-14095000D01*
X13980000Y-14230000D02*
X14020000Y-14270000D01*
X14020000Y-14230000D02*
X13980000Y-14270000D01*
X14080000Y-13480000D02*
X14120000Y-13520000D01*
X14120000Y-13480000D02*
X14080000Y-13520000D01*
X14330000Y-12230000D02*
X14370000Y-12270000D01*
X14370000Y-12230000D02*
X14330000Y-12270000D01*
X14380000Y-14680000D02*
X14420000Y-14720000D01*
X14420000Y-14680000D02*
X14380000Y-14720000D01*
X14630000Y-12880000D02*
X14670000Y-12920000D01*
X14670000Y-12880000D02*
X14630000Y-12920000D01*
X14755000Y-12980000D02*
X14795000Y-13020000D01*
X14795000Y-12980000D02*
X14755000Y-13020000D01*
X14780000Y-12280000D02*
X14820000Y-12320000D01*
X14820000Y-12280000D02*
X14780000Y-12320000D01*
X14905000Y-14380000D02*
X14945000Y-14420000D01*
X14945000Y-14380000D02*
X14905000Y-14420000D01*
X14905000Y-14555000D02*
X14945000Y-14595000D01*
X14945000Y-14555000D02*
X14905000Y-14595000D01*
X14930000Y-13080000D02*
X14970000Y-13120000D01*
X14970000Y-13080000D02*
X14930000Y-13120000D01*
X15080000Y-13180000D02*
X15120000Y-13220000D01*
X15120000Y-13180000D02*
X15080000Y-13220000D01*
X15180000Y-13280000D02*
X15220000Y-13320000D01*
X15220000Y-13280000D02*
X15180000Y-13320000D01*
X15230000Y-14280000D02*
X15270000Y-14320000D01*
X15270000Y-14280000D02*
X15230000Y-14320000D01*
X15430000Y-13455000D02*
X15470000Y-13495000D01*
X15470000Y-13455000D02*
X15430000Y-13495000D01*
X15455000Y-14080000D02*
X15495000Y-14120000D01*
X15495000Y-14080000D02*
X15455000Y-14120000D01*
X15555000Y-13655000D02*
X15595000Y-13695000D01*
X15595000Y-13655000D02*
X15555000Y-13695000D01*
X15555000Y-14080000D02*
X15595000Y-14120000D01*
X15595000Y-14080000D02*
X15555000Y-14120000D01*
X15630000Y-14455000D02*
X15670000Y-14495000D01*
X15670000Y-14455000D02*
X15630000Y-14495000D01*
X15630000Y-14705000D02*
X15670000Y-14745000D01*
X15670000Y-14705000D02*
X15630000Y-14745000D01*
X15680000Y-13455000D02*
X15720000Y-13495000D01*
X15720000Y-13455000D02*
X15680000Y-13495000D01*
X15680000Y-13580000D02*
X15720000Y-13620000D01*
X15720000Y-13580000D02*
X15680000Y-13620000D01*
X15680000Y-13780000D02*
X15720000Y-13820000D01*
X15720000Y-13780000D02*
X15680000Y-13820000D01*
X15680000Y-14080000D02*
X15720000Y-14120000D01*
X15720000Y-14080000D02*
X15680000Y-14120000D01*
X15780000Y-13880000D02*
X15820000Y-13920000D01*
X15820000Y-13880000D02*
X15780000Y-13920000D01*
X15780000Y-14080000D02*
X15820000Y-14120000D01*
X15820000Y-14080000D02*
X15780000Y-14120000D01*
X16080000Y-12680000D02*
X16120000Y-12720000D01*
X16120000Y-12680000D02*
X16080000Y-12720000D01*
X16180000Y-13580000D02*
X16220000Y-13620000D01*
X16220000Y-13580000D02*
X16180000Y-13620000D01*
X16430000Y-14230000D02*
X16470000Y-14270000D01*
X16470000Y-14230000D02*
X16430000Y-14270000D01*
X16480000Y-13355000D02*
X16520000Y-13395000D01*
X16520000Y-13355000D02*
X16480000Y-13395000D01*
X16680000Y-12480000D02*
X16720000Y-12520000D01*
X16720000Y-12480000D02*
X16680000Y-12520000D01*
X16880000Y-14680000D02*
X16920000Y-14720000D01*
X16920000Y-14680000D02*
X16880000Y-14720000D01*
X16905000Y-13755000D02*
X16945000Y-13795000D01*
X16945000Y-13755000D02*
X16905000Y-13795000D01*
X17030000Y-12880000D02*
X17070000Y-12920000D01*
X17070000Y-12880000D02*
X17030000Y-12920000D01*
X17030000Y-13755000D02*
X17070000Y-13795000D01*
X17070000Y-13755000D02*
X17030000Y-13795000D01*
X17405000Y-14380000D02*
X17445000Y-14420000D01*
X17445000Y-14380000D02*
X17405000Y-14420000D01*
X17405000Y-14555000D02*
X17445000Y-14595000D01*
X17445000Y-14555000D02*
X17405000Y-14595000D01*
X17680000Y-13580000D02*
X17720000Y-13620000D01*
X17720000Y-13580000D02*
X17680000Y-13620000D01*
X17730000Y-14280000D02*
X17770000Y-14320000D01*
X17770000Y-14280000D02*
X17730000Y-14320000D01*
X17805000Y-14105000D02*
X17845000Y-14145000D01*
X17845000Y-14105000D02*
X17805000Y-14145000D01*
X18030000Y-14105000D02*
X18070000Y-14145000D01*
X18070000Y-14105000D02*
X18030000Y-14145000D01*
X18130000Y-13830000D02*
X18170000Y-13870000D01*
X18170000Y-13830000D02*
X18130000Y-13870000D01*
X18130000Y-14455000D02*
X18170000Y-14495000D01*
X18170000Y-14455000D02*
X18130000Y-14495000D01*
X18180000Y-14105000D02*
X18220000Y-14145000D01*
X18220000Y-14105000D02*
X18180000Y-14145000D01*
X18180000Y-14705000D02*
X18220000Y-14745000D01*
X18220000Y-14705000D02*
X18180000Y-14745000D01*
X18230000Y-12830000D02*
X18270000Y-12870000D01*
X18270000Y-12830000D02*
X18230000Y-12870000D01*
X18230000Y-13930000D02*
X18270000Y-13970000D01*
X18270000Y-13930000D02*
X18230000Y-13970000D01*
X18280000Y-14105000D02*
X18320000Y-14145000D01*
X18320000Y-14105000D02*
X18280000Y-14145000D01*
X18505000Y-14105000D02*
X18545000Y-14145000D01*
X18545000Y-14105000D02*
X18505000Y-14145000D01*
X18805000Y-13380000D02*
X18845000Y-13420000D01*
X18845000Y-13380000D02*
X18805000Y-13420000D01*
X18830000Y-13130000D02*
X18870000Y-13170000D01*
X18870000Y-13130000D02*
X18830000Y-13170000D01*
X18930000Y-14280000D02*
X18970000Y-14320000D01*
X18970000Y-14280000D02*
X18930000Y-14320000D01*
X19380000Y-13305000D02*
X19420000Y-13345000D01*
X19420000Y-13305000D02*
X19380000Y-13345000D01*
X19680000Y-12380000D02*
X19720000Y-12420000D01*
X19720000Y-12380000D02*
X19680000Y-12420000D01*
X19680000Y-12980000D02*
X19720000Y-13020000D01*
X19720000Y-12980000D02*
X19680000Y-13020000D01*
X19680000Y-13330000D02*
X19720000Y-13370000D01*
X19720000Y-13330000D02*
X19680000Y-13370000D01*
X19905000Y-14380000D02*
X19945000Y-14420000D01*
X19945000Y-14380000D02*
X19905000Y-14420000D01*
X19905000Y-14555000D02*
X19945000Y-14595000D01*
X19945000Y-14555000D02*
X19905000Y-14595000D01*
X19955000Y-13030000D02*
X19995000Y-13070000D01*
X19995000Y-13030000D02*
X19955000Y-13070000D01*
X20180000Y-13380000D02*
X20220000Y-13420000D01*
X20220000Y-13380000D02*
X20180000Y-13420000D01*
X20230000Y-14280000D02*
X20270000Y-14320000D01*
X20270000Y-14280000D02*
X20230000Y-14320000D01*
X20430000Y-13100000D02*
X20470000Y-13140000D01*
X20470000Y-13100000D02*
X20430000Y-13140000D01*
X20580000Y-14130000D02*
X20620000Y-14170000D01*
X20620000Y-14130000D02*
X20580000Y-14170000D01*
X20630000Y-13830000D02*
X20670000Y-13870000D01*
X20670000Y-13830000D02*
X20630000Y-13870000D01*
X20630000Y-14455000D02*
X20670000Y-14495000D01*
X20670000Y-14455000D02*
X20630000Y-14495000D01*
X20680000Y-14705000D02*
X20720000Y-14745000D01*
X20720000Y-14705000D02*
X20680000Y-14745000D01*
X20681005Y-14105000D02*
X20721005Y-14145000D01*
X20721005Y-14105000D02*
X20681005Y-14145000D01*
X20730000Y-13380000D02*
X20770000Y-13420000D01*
X20770000Y-13380000D02*
X20730000Y-13420000D01*
X20730000Y-13930000D02*
X20770000Y-13970000D01*
X20770000Y-13930000D02*
X20730000Y-13970000D01*
X20781005Y-14105000D02*
X20821005Y-14145000D01*
X20821005Y-14105000D02*
X20781005Y-14145000D01*
X20955000Y-14155000D02*
X20995000Y-14195000D01*
X20995000Y-14155000D02*
X20955000Y-14195000D01*
X21080000Y-13755000D02*
X21120000Y-13795000D01*
X21120000Y-13755000D02*
X21080000Y-13795000D01*
X21230000Y-12430000D02*
X21270000Y-12470000D01*
X21270000Y-12430000D02*
X21230000Y-12470000D01*
X21430000Y-13830000D02*
X21470000Y-13870000D01*
X21470000Y-13830000D02*
X21430000Y-13870000D01*
X21530000Y-13930000D02*
X21570000Y-13970000D01*
X21570000Y-13930000D02*
X21530000Y-13970000D01*
X21530000Y-14180000D02*
X21570000Y-14220000D01*
X21570000Y-14180000D02*
X21530000Y-14220000D01*
X21680000Y-13180000D02*
X21720000Y-13220000D01*
X21720000Y-13180000D02*
X21680000Y-13220000D01*
X21705000Y-12930000D02*
X21745000Y-12970000D01*
X21745000Y-12930000D02*
X21705000Y-12970000D01*
X21880000Y-12855000D02*
X21920000Y-12895000D01*
X21920000Y-12855000D02*
X21880000Y-12895000D01*
X21880000Y-13500000D02*
X21920000Y-13540000D01*
X21920000Y-13500000D02*
X21880000Y-13540000D01*
X21880000Y-14180000D02*
X21920000Y-14220000D01*
X21920000Y-14180000D02*
X21880000Y-14220000D01*
X21880000Y-14680000D02*
X21920000Y-14720000D01*
X21920000Y-14680000D02*
X21880000Y-14720000D01*
X22030000Y-12880000D02*
X22070000Y-12920000D01*
X22070000Y-12880000D02*
X22030000Y-12920000D01*
X22030000Y-13605000D02*
X22070000Y-13645000D01*
X22070000Y-13605000D02*
X22030000Y-13645000D01*
X22055000Y-13405000D02*
X22095000Y-13445000D01*
X22095000Y-13405000D02*
X22055000Y-13445000D01*
X22105000Y-12780000D02*
X22145000Y-12820000D01*
X22145000Y-12780000D02*
X22105000Y-12820000D01*
X22130000Y-13580000D02*
X22170000Y-13620000D01*
X22170000Y-13580000D02*
X22130000Y-13620000D01*
X22180000Y-12430000D02*
X22220000Y-12470000D01*
X22220000Y-12430000D02*
X22180000Y-12470000D01*
X22230000Y-13980000D02*
X22270000Y-14020000D01*
X22270000Y-13980000D02*
X22230000Y-14020000D01*
X22280000Y-12355000D02*
X22320000Y-12395000D01*
X22320000Y-12355000D02*
X22280000Y-12395000D01*
X22305000Y-12805000D02*
X22345000Y-12845000D01*
X22345000Y-12805000D02*
X22305000Y-12845000D01*
X22330000Y-13905000D02*
X22370000Y-13945000D01*
X22370000Y-13905000D02*
X22330000Y-13945000D01*
X22355000Y-12280000D02*
X22395000Y-12320000D01*
X22395000Y-12280000D02*
X22355000Y-12320000D01*
X22380000Y-13080000D02*
X22420000Y-13120000D01*
X22420000Y-13080000D02*
X22380000Y-13120000D01*
X22399112Y-12838809D02*
X22439112Y-12878809D01*
X22439112Y-12838809D02*
X22399112Y-12878809D01*
X22405000Y-14555000D02*
X22445000Y-14595000D01*
X22445000Y-14555000D02*
X22405000Y-14595000D01*
X22430000Y-12205000D02*
X22470000Y-12245000D01*
X22470000Y-12205000D02*
X22430000Y-12245000D01*
X22430000Y-13430000D02*
X22470000Y-13470000D01*
X22470000Y-13430000D02*
X22430000Y-13470000D01*
X22430000Y-14180000D02*
X22470000Y-14220000D01*
X22470000Y-14180000D02*
X22430000Y-14220000D01*
X22580000Y-13755000D02*
X22620000Y-13795000D01*
X22620000Y-13755000D02*
X22580000Y-13795000D01*
X22580000Y-14180000D02*
X22620000Y-14220000D01*
X22620000Y-14180000D02*
X22580000Y-14220000D01*
X22685747Y-14400000D02*
X22725747Y-14440000D01*
X22725747Y-14400000D02*
X22685747Y-14440000D01*
X22780000Y-14280000D02*
X22820000Y-14320000D01*
X22820000Y-14280000D02*
X22780000Y-14320000D01*
X22830000Y-12630000D02*
X22870000Y-12670000D01*
X22870000Y-12630000D02*
X22830000Y-12670000D01*
X22980000Y-14130000D02*
X23020000Y-14170000D01*
X23020000Y-14130000D02*
X22980000Y-14170000D01*
X23030000Y-13080000D02*
X23070000Y-13120000D01*
X23070000Y-13080000D02*
X23030000Y-13120000D01*
X23030000Y-13730000D02*
X23070000Y-13770000D01*
X23070000Y-13730000D02*
X23030000Y-13770000D01*
X23080000Y-14130000D02*
X23120000Y-14170000D01*
X23120000Y-14130000D02*
X23080000Y-14170000D01*
X23130000Y-14455000D02*
X23170000Y-14495000D01*
X23170000Y-14455000D02*
X23130000Y-14495000D01*
X23130000Y-14705000D02*
X23170000Y-14745000D01*
X23170000Y-14705000D02*
X23130000Y-14745000D01*
X23155000Y-13730000D02*
X23195000Y-13770000D01*
X23195000Y-13730000D02*
X23155000Y-13770000D01*
X23180000Y-13905000D02*
X23220000Y-13945000D01*
X23220000Y-13905000D02*
X23180000Y-13945000D01*
X23205000Y-14130000D02*
X23245000Y-14170000D01*
X23245000Y-14130000D02*
X23205000Y-14170000D01*
X23280000Y-13980000D02*
X23320000Y-14020000D01*
X23320000Y-13980000D02*
X23280000Y-14020000D01*
X23305000Y-14130000D02*
X23345000Y-14170000D01*
X23345000Y-14130000D02*
X23305000Y-14170000D01*
X23880000Y-12880000D02*
X23920000Y-12920000D01*
X23920000Y-12880000D02*
X23880000Y-12920000D01*
X23980000Y-14280000D02*
X24020000Y-14320000D01*
X24020000Y-14280000D02*
X23980000Y-14320000D01*
X24155000Y-13585000D02*
X24195000Y-13625000D01*
X24195000Y-13585000D02*
X24155000Y-13625000D01*
X24180000Y-12380000D02*
X24220000Y-12420000D01*
X24220000Y-12380000D02*
X24180000Y-12420000D01*
X24480000Y-14680000D02*
X24520000Y-14720000D01*
X24520000Y-14680000D02*
X24480000Y-14720000D01*
X24580000Y-13080000D02*
X24620000Y-13120000D01*
X24620000Y-13080000D02*
X24580000Y-13120000D01*
X24655000Y-12580000D02*
X24695000Y-12620000D01*
X24695000Y-12580000D02*
X24655000Y-12620000D01*
X24905000Y-14380000D02*
X24945000Y-14420000D01*
X24945000Y-14380000D02*
X24905000Y-14420000D01*
X24905000Y-14555000D02*
X24945000Y-14595000D01*
X24945000Y-14555000D02*
X24905000Y-14595000D01*
X24955000Y-13730000D02*
X24995000Y-13770000D01*
X24995000Y-13730000D02*
X24955000Y-13770000D01*
X25080000Y-13555000D02*
X25120000Y-13595000D01*
X25120000Y-13555000D02*
X25080000Y-13595000D01*
X25230000Y-14280000D02*
X25270000Y-14320000D01*
X25270000Y-14280000D02*
X25230000Y-14320000D01*
X25280000Y-12530000D02*
X25320000Y-12570000D01*
X25320000Y-12530000D02*
X25280000Y-12570000D01*
X25280000Y-12780000D02*
X25320000Y-12820000D01*
X25320000Y-12780000D02*
X25280000Y-12820000D01*
X25330000Y-13555000D02*
X25370000Y-13595000D01*
X25370000Y-13555000D02*
X25330000Y-13595000D01*
X25405000Y-14055000D02*
X25445000Y-14095000D01*
X25445000Y-14055000D02*
X25405000Y-14095000D01*
X25455000Y-13655000D02*
X25495000Y-13695000D01*
X25495000Y-13655000D02*
X25455000Y-13695000D01*
X25530000Y-14030000D02*
X25570000Y-14070000D01*
X25570000Y-14030000D02*
X25530000Y-14070000D01*
X25555000Y-14153995D02*
X25595000Y-14193995D01*
X25595000Y-14153995D02*
X25555000Y-14193995D01*
X25605000Y-13805000D02*
X25645000Y-13845000D01*
X25645000Y-13805000D02*
X25605000Y-13845000D01*
X25680000Y-14042500D02*
X25720000Y-14082500D01*
X25720000Y-14042500D02*
X25680000Y-14082500D01*
X25680000Y-14680000D02*
X25720000Y-14720000D01*
X25720000Y-14680000D02*
X25680000Y-14720000D01*
X25755000Y-13880000D02*
X25795000Y-13920000D01*
X25795000Y-13880000D02*
X25755000Y-13920000D01*
X25788934Y-14130000D02*
X25828934Y-14170000D01*
X25828934Y-14130000D02*
X25788934Y-14170000D01*
X26280000Y-12580000D02*
X26320000Y-12620000D01*
X26320000Y-12580000D02*
X26280000Y-12620000D01*
X26280000Y-13730000D02*
X26320000Y-13770000D01*
X26320000Y-13730000D02*
X26280000Y-13770000D01*
X26580000Y-12980000D02*
X26620000Y-13020000D01*
X26620000Y-12980000D02*
X26580000Y-13020000D01*
X26580000Y-14530000D02*
X26620000Y-14570000D01*
X26620000Y-14530000D02*
X26580000Y-14570000D01*
X23340000Y-12657000D02*
G75*
G02*
X23260000Y-12657000I-40000J0D01*
G01*
X23260000Y-12657000D02*
G75*
G02*
X23340000Y-12657000I40000J0D01*
G01*
X23340000Y-13145000D02*
G75*
G02*
X23260000Y-13145000I-40000J0D01*
G01*
X23260000Y-13145000D02*
G75*
G02*
X23340000Y-13145000I40000J0D01*
G01*
X15074500Y-12250000D02*
X15074500Y-12350000D01*
X15024500Y-12300000D02*
X15124500Y-12300000D01*
X15328500Y-12250000D02*
X15328500Y-12350000D01*
X15278500Y-12300000D02*
X15378500Y-12300000D01*
X17112500Y-12250000D02*
X17112500Y-12350000D01*
X17062500Y-12300000D02*
X17162500Y-12300000D01*
X17366500Y-12250000D02*
X17366500Y-12350000D01*
X17316500Y-12300000D02*
X17416500Y-12300000D01*
X17620500Y-12250000D02*
X17620500Y-12350000D01*
X17570500Y-12300000D02*
X17670500Y-12300000D01*
X17874500Y-12250000D02*
X17874500Y-12350000D01*
X17824500Y-12300000D02*
X17924500Y-12300000D01*
X18128500Y-12250000D02*
X18128500Y-12350000D01*
X18078500Y-12300000D02*
X18178500Y-12300000D01*
X18382500Y-12250000D02*
X18382500Y-12350000D01*
X18332500Y-12300000D02*
X18432500Y-12300000D01*
X18636500Y-12250000D02*
X18636500Y-12350000D01*
X18586500Y-12300000D02*
X18686500Y-12300000D01*
X18890500Y-12250000D02*
X18890500Y-12350000D01*
X18840500Y-12300000D02*
X18940500Y-12300000D01*
X20246000Y-12250000D02*
X20246000Y-12350000D01*
X20196000Y-12300000D02*
X20296000Y-12300000D01*
X20500000Y-12250000D02*
X20500000Y-12350000D01*
X20450000Y-12300000D02*
X20550000Y-12300000D01*
X20754000Y-12250000D02*
X20754000Y-12350000D01*
X20704000Y-12300000D02*
X20804000Y-12300000D01*
X24563000Y-12275000D02*
X24563000Y-12375000D01*
X24513000Y-12325000D02*
X24613000Y-12325000D01*
X24817000Y-12275000D02*
X24817000Y-12375000D01*
X24767000Y-12325000D02*
X24867000Y-12325000D01*
X25071000Y-12275000D02*
X25071000Y-12375000D01*
X25021000Y-12325000D02*
X25121000Y-12325000D01*
X25325000Y-12275000D02*
X25325000Y-12375000D01*
X25275000Y-12325000D02*
X25375000Y-12325000D01*
X25579000Y-12275000D02*
X25579000Y-12375000D01*
X25529000Y-12325000D02*
X25629000Y-12325000D01*
X25833000Y-12275000D02*
X25833000Y-12375000D01*
X25783000Y-12325000D02*
X25883000Y-12325000D01*
D11*
X2258277Y-15313984D02*
X2258277Y-15113984D01*
X2258277Y-15113984D02*
X2305896Y-15113984D01*
X2305896Y-15113984D02*
X2334467Y-15123508D01*
X2334467Y-15123508D02*
X2353515Y-15142555D01*
X2353515Y-15142555D02*
X2363039Y-15161603D01*
X2363039Y-15161603D02*
X2372563Y-15199698D01*
X2372563Y-15199698D02*
X2372563Y-15228269D01*
X2372563Y-15228269D02*
X2363039Y-15266365D01*
X2363039Y-15266365D02*
X2353515Y-15285412D01*
X2353515Y-15285412D02*
X2334467Y-15304460D01*
X2334467Y-15304460D02*
X2305896Y-15313984D01*
X2305896Y-15313984D02*
X2258277Y-15313984D01*
X2458277Y-15313984D02*
X2458277Y-15180650D01*
X2458277Y-15218746D02*
X2467801Y-15199698D01*
X2467801Y-15199698D02*
X2477324Y-15190174D01*
X2477324Y-15190174D02*
X2496372Y-15180650D01*
X2496372Y-15180650D02*
X2515420Y-15180650D01*
X2582086Y-15313984D02*
X2582086Y-15180650D01*
X2582086Y-15113984D02*
X2572563Y-15123508D01*
X2572563Y-15123508D02*
X2582086Y-15133031D01*
X2582086Y-15133031D02*
X2591610Y-15123508D01*
X2591610Y-15123508D02*
X2582086Y-15113984D01*
X2582086Y-15113984D02*
X2582086Y-15133031D01*
X2705896Y-15313984D02*
X2686848Y-15304460D01*
X2686848Y-15304460D02*
X2677324Y-15285412D01*
X2677324Y-15285412D02*
X2677324Y-15113984D01*
X2810658Y-15313984D02*
X2791610Y-15304460D01*
X2791610Y-15304460D02*
X2782086Y-15285412D01*
X2782086Y-15285412D02*
X2782086Y-15113984D01*
X3039229Y-15313984D02*
X3039229Y-15113984D01*
X3039229Y-15113984D02*
X3105896Y-15256841D01*
X3105896Y-15256841D02*
X3172562Y-15113984D01*
X3172562Y-15113984D02*
X3172562Y-15313984D01*
X3353515Y-15313984D02*
X3353515Y-15209222D01*
X3353515Y-15209222D02*
X3343991Y-15190174D01*
X3343991Y-15190174D02*
X3324943Y-15180650D01*
X3324943Y-15180650D02*
X3286848Y-15180650D01*
X3286848Y-15180650D02*
X3267801Y-15190174D01*
X3353515Y-15304460D02*
X3334467Y-15313984D01*
X3334467Y-15313984D02*
X3286848Y-15313984D01*
X3286848Y-15313984D02*
X3267801Y-15304460D01*
X3267801Y-15304460D02*
X3258277Y-15285412D01*
X3258277Y-15285412D02*
X3258277Y-15266365D01*
X3258277Y-15266365D02*
X3267801Y-15247317D01*
X3267801Y-15247317D02*
X3286848Y-15237793D01*
X3286848Y-15237793D02*
X3334467Y-15237793D01*
X3334467Y-15237793D02*
X3353515Y-15228269D01*
X3448753Y-15180650D02*
X3448753Y-15380650D01*
X3448753Y-15190174D02*
X3467801Y-15180650D01*
X3467801Y-15180650D02*
X3505896Y-15180650D01*
X3505896Y-15180650D02*
X3524943Y-15190174D01*
X3524943Y-15190174D02*
X3534467Y-15199698D01*
X3534467Y-15199698D02*
X3543991Y-15218746D01*
X3543991Y-15218746D02*
X3543991Y-15275888D01*
X3543991Y-15275888D02*
X3534467Y-15294936D01*
X3534467Y-15294936D02*
X3524943Y-15304460D01*
X3524943Y-15304460D02*
X3505896Y-15313984D01*
X3505896Y-15313984D02*
X3467801Y-15313984D01*
X3467801Y-15313984D02*
X3448753Y-15304460D01*
X3629705Y-15294936D02*
X3639229Y-15304460D01*
X3639229Y-15304460D02*
X3629705Y-15313984D01*
X3629705Y-15313984D02*
X3620182Y-15304460D01*
X3620182Y-15304460D02*
X3629705Y-15294936D01*
X3629705Y-15294936D02*
X3629705Y-15313984D01*
X3629705Y-15190174D02*
X3639229Y-15199698D01*
X3639229Y-15199698D02*
X3629705Y-15209222D01*
X3629705Y-15209222D02*
X3620182Y-15199698D01*
X3620182Y-15199698D02*
X3629705Y-15190174D01*
X3629705Y-15190174D02*
X3629705Y-15209222D01*
D12*
X1957500Y-15622500D02*
X1997500Y-15662500D01*
X1997500Y-15622500D02*
X1957500Y-15662500D01*
D11*
X2296372Y-15533984D02*
X2315420Y-15533984D01*
X2315420Y-15533984D02*
X2334467Y-15543508D01*
X2334467Y-15543508D02*
X2343991Y-15553031D01*
X2343991Y-15553031D02*
X2353515Y-15572079D01*
X2353515Y-15572079D02*
X2363039Y-15610174D01*
X2363039Y-15610174D02*
X2363039Y-15657793D01*
X2363039Y-15657793D02*
X2353515Y-15695888D01*
X2353515Y-15695888D02*
X2343991Y-15714936D01*
X2343991Y-15714936D02*
X2334467Y-15724460D01*
X2334467Y-15724460D02*
X2315420Y-15733984D01*
X2315420Y-15733984D02*
X2296372Y-15733984D01*
X2296372Y-15733984D02*
X2277324Y-15724460D01*
X2277324Y-15724460D02*
X2267801Y-15714936D01*
X2267801Y-15714936D02*
X2258277Y-15695888D01*
X2258277Y-15695888D02*
X2248753Y-15657793D01*
X2248753Y-15657793D02*
X2248753Y-15610174D01*
X2248753Y-15610174D02*
X2258277Y-15572079D01*
X2258277Y-15572079D02*
X2267801Y-15553031D01*
X2267801Y-15553031D02*
X2277324Y-15543508D01*
X2277324Y-15543508D02*
X2296372Y-15533984D01*
X2448753Y-15714936D02*
X2458277Y-15724460D01*
X2458277Y-15724460D02*
X2448753Y-15733984D01*
X2448753Y-15733984D02*
X2439229Y-15724460D01*
X2439229Y-15724460D02*
X2448753Y-15714936D01*
X2448753Y-15714936D02*
X2448753Y-15733984D01*
X2629705Y-15600650D02*
X2629705Y-15733984D01*
X2582086Y-15524460D02*
X2534467Y-15667317D01*
X2534467Y-15667317D02*
X2658277Y-15667317D01*
X2772563Y-15533984D02*
X2791610Y-15533984D01*
X2791610Y-15533984D02*
X2810658Y-15543508D01*
X2810658Y-15543508D02*
X2820182Y-15553031D01*
X2820182Y-15553031D02*
X2829705Y-15572079D01*
X2829705Y-15572079D02*
X2839229Y-15610174D01*
X2839229Y-15610174D02*
X2839229Y-15657793D01*
X2839229Y-15657793D02*
X2829705Y-15695888D01*
X2829705Y-15695888D02*
X2820182Y-15714936D01*
X2820182Y-15714936D02*
X2810658Y-15724460D01*
X2810658Y-15724460D02*
X2791610Y-15733984D01*
X2791610Y-15733984D02*
X2772563Y-15733984D01*
X2772563Y-15733984D02*
X2753515Y-15724460D01*
X2753515Y-15724460D02*
X2743991Y-15714936D01*
X2743991Y-15714936D02*
X2734467Y-15695888D01*
X2734467Y-15695888D02*
X2724944Y-15657793D01*
X2724944Y-15657793D02*
X2724944Y-15610174D01*
X2724944Y-15610174D02*
X2734467Y-15572079D01*
X2734467Y-15572079D02*
X2743991Y-15553031D01*
X2743991Y-15553031D02*
X2753515Y-15543508D01*
X2753515Y-15543508D02*
X2772563Y-15533984D01*
X2963039Y-15533984D02*
X2982086Y-15533984D01*
X2982086Y-15533984D02*
X3001134Y-15543508D01*
X3001134Y-15543508D02*
X3010658Y-15553031D01*
X3010658Y-15553031D02*
X3020182Y-15572079D01*
X3020182Y-15572079D02*
X3029705Y-15610174D01*
X3029705Y-15610174D02*
X3029705Y-15657793D01*
X3029705Y-15657793D02*
X3020182Y-15695888D01*
X3020182Y-15695888D02*
X3010658Y-15714936D01*
X3010658Y-15714936D02*
X3001134Y-15724460D01*
X3001134Y-15724460D02*
X2982086Y-15733984D01*
X2982086Y-15733984D02*
X2963039Y-15733984D01*
X2963039Y-15733984D02*
X2943991Y-15724460D01*
X2943991Y-15724460D02*
X2934467Y-15714936D01*
X2934467Y-15714936D02*
X2924943Y-15695888D01*
X2924943Y-15695888D02*
X2915420Y-15657793D01*
X2915420Y-15657793D02*
X2915420Y-15610174D01*
X2915420Y-15610174D02*
X2924943Y-15572079D01*
X2924943Y-15572079D02*
X2934467Y-15553031D01*
X2934467Y-15553031D02*
X2943991Y-15543508D01*
X2943991Y-15543508D02*
X2963039Y-15533984D01*
X3115420Y-15733984D02*
X3115420Y-15600650D01*
X3115420Y-15619698D02*
X3124943Y-15610174D01*
X3124943Y-15610174D02*
X3143991Y-15600650D01*
X3143991Y-15600650D02*
X3172563Y-15600650D01*
X3172563Y-15600650D02*
X3191610Y-15610174D01*
X3191610Y-15610174D02*
X3201134Y-15629222D01*
X3201134Y-15629222D02*
X3201134Y-15733984D01*
X3201134Y-15629222D02*
X3210658Y-15610174D01*
X3210658Y-15610174D02*
X3229705Y-15600650D01*
X3229705Y-15600650D02*
X3258277Y-15600650D01*
X3258277Y-15600650D02*
X3277324Y-15610174D01*
X3277324Y-15610174D02*
X3286848Y-15629222D01*
X3286848Y-15629222D02*
X3286848Y-15733984D01*
X3382086Y-15733984D02*
X3382086Y-15600650D01*
X3382086Y-15619698D02*
X3391610Y-15610174D01*
X3391610Y-15610174D02*
X3410658Y-15600650D01*
X3410658Y-15600650D02*
X3439229Y-15600650D01*
X3439229Y-15600650D02*
X3458277Y-15610174D01*
X3458277Y-15610174D02*
X3467801Y-15629222D01*
X3467801Y-15629222D02*
X3467801Y-15733984D01*
X3467801Y-15629222D02*
X3477324Y-15610174D01*
X3477324Y-15610174D02*
X3496372Y-15600650D01*
X3496372Y-15600650D02*
X3524943Y-15600650D01*
X3524943Y-15600650D02*
X3543991Y-15610174D01*
X3543991Y-15610174D02*
X3553515Y-15629222D01*
X3553515Y-15629222D02*
X3553515Y-15733984D01*
X3943991Y-15524460D02*
X3772563Y-15781603D01*
X4201134Y-15533984D02*
X4220182Y-15533984D01*
X4220182Y-15533984D02*
X4239229Y-15543508D01*
X4239229Y-15543508D02*
X4248753Y-15553031D01*
X4248753Y-15553031D02*
X4258277Y-15572079D01*
X4258277Y-15572079D02*
X4267801Y-15610174D01*
X4267801Y-15610174D02*
X4267801Y-15657793D01*
X4267801Y-15657793D02*
X4258277Y-15695888D01*
X4258277Y-15695888D02*
X4248753Y-15714936D01*
X4248753Y-15714936D02*
X4239229Y-15724460D01*
X4239229Y-15724460D02*
X4220182Y-15733984D01*
X4220182Y-15733984D02*
X4201134Y-15733984D01*
X4201134Y-15733984D02*
X4182086Y-15724460D01*
X4182086Y-15724460D02*
X4172563Y-15714936D01*
X4172563Y-15714936D02*
X4163039Y-15695888D01*
X4163039Y-15695888D02*
X4153515Y-15657793D01*
X4153515Y-15657793D02*
X4153515Y-15610174D01*
X4153515Y-15610174D02*
X4163039Y-15572079D01*
X4163039Y-15572079D02*
X4172563Y-15553031D01*
X4172563Y-15553031D02*
X4182086Y-15543508D01*
X4182086Y-15543508D02*
X4201134Y-15533984D01*
X4353515Y-15714936D02*
X4363039Y-15724460D01*
X4363039Y-15724460D02*
X4353515Y-15733984D01*
X4353515Y-15733984D02*
X4343991Y-15724460D01*
X4343991Y-15724460D02*
X4353515Y-15714936D01*
X4353515Y-15714936D02*
X4353515Y-15733984D01*
X4486848Y-15533984D02*
X4505896Y-15533984D01*
X4505896Y-15533984D02*
X4524944Y-15543508D01*
X4524944Y-15543508D02*
X4534468Y-15553031D01*
X4534468Y-15553031D02*
X4543991Y-15572079D01*
X4543991Y-15572079D02*
X4553515Y-15610174D01*
X4553515Y-15610174D02*
X4553515Y-15657793D01*
X4553515Y-15657793D02*
X4543991Y-15695888D01*
X4543991Y-15695888D02*
X4534468Y-15714936D01*
X4534468Y-15714936D02*
X4524944Y-15724460D01*
X4524944Y-15724460D02*
X4505896Y-15733984D01*
X4505896Y-15733984D02*
X4486848Y-15733984D01*
X4486848Y-15733984D02*
X4467801Y-15724460D01*
X4467801Y-15724460D02*
X4458277Y-15714936D01*
X4458277Y-15714936D02*
X4448753Y-15695888D01*
X4448753Y-15695888D02*
X4439229Y-15657793D01*
X4439229Y-15657793D02*
X4439229Y-15610174D01*
X4439229Y-15610174D02*
X4448753Y-15572079D01*
X4448753Y-15572079D02*
X4458277Y-15553031D01*
X4458277Y-15553031D02*
X4467801Y-15543508D01*
X4467801Y-15543508D02*
X4486848Y-15533984D01*
X4743991Y-15733984D02*
X4629706Y-15733984D01*
X4686848Y-15733984D02*
X4686848Y-15533984D01*
X4686848Y-15533984D02*
X4667801Y-15562555D01*
X4667801Y-15562555D02*
X4648753Y-15581603D01*
X4648753Y-15581603D02*
X4629706Y-15591127D01*
X4924944Y-15533984D02*
X4829706Y-15533984D01*
X4829706Y-15533984D02*
X4820182Y-15629222D01*
X4820182Y-15629222D02*
X4829706Y-15619698D01*
X4829706Y-15619698D02*
X4848753Y-15610174D01*
X4848753Y-15610174D02*
X4896372Y-15610174D01*
X4896372Y-15610174D02*
X4915420Y-15619698D01*
X4915420Y-15619698D02*
X4924944Y-15629222D01*
X4924944Y-15629222D02*
X4934468Y-15648269D01*
X4934468Y-15648269D02*
X4934468Y-15695888D01*
X4934468Y-15695888D02*
X4924944Y-15714936D01*
X4924944Y-15714936D02*
X4915420Y-15724460D01*
X4915420Y-15724460D02*
X4896372Y-15733984D01*
X4896372Y-15733984D02*
X4848753Y-15733984D01*
X4848753Y-15733984D02*
X4829706Y-15724460D01*
X4829706Y-15724460D02*
X4820182Y-15714936D01*
X5001134Y-15533984D02*
X5134468Y-15533984D01*
X5134468Y-15533984D02*
X5048753Y-15733984D01*
X5201134Y-15533984D02*
X5201134Y-15572079D01*
X5277325Y-15533984D02*
X5277325Y-15572079D01*
X5572563Y-15810174D02*
X5563039Y-15800650D01*
X5563039Y-15800650D02*
X5543991Y-15772079D01*
X5543991Y-15772079D02*
X5534468Y-15753031D01*
X5534468Y-15753031D02*
X5524944Y-15724460D01*
X5524944Y-15724460D02*
X5515420Y-15676841D01*
X5515420Y-15676841D02*
X5515420Y-15638746D01*
X5515420Y-15638746D02*
X5524944Y-15591127D01*
X5524944Y-15591127D02*
X5534468Y-15562555D01*
X5534468Y-15562555D02*
X5543991Y-15543508D01*
X5543991Y-15543508D02*
X5563039Y-15514936D01*
X5563039Y-15514936D02*
X5572563Y-15505412D01*
X5639229Y-15553031D02*
X5648753Y-15543508D01*
X5648753Y-15543508D02*
X5667801Y-15533984D01*
X5667801Y-15533984D02*
X5715420Y-15533984D01*
X5715420Y-15533984D02*
X5734468Y-15543508D01*
X5734468Y-15543508D02*
X5743991Y-15553031D01*
X5743991Y-15553031D02*
X5753515Y-15572079D01*
X5753515Y-15572079D02*
X5753515Y-15591127D01*
X5753515Y-15591127D02*
X5743991Y-15619698D01*
X5743991Y-15619698D02*
X5629706Y-15733984D01*
X5629706Y-15733984D02*
X5753515Y-15733984D01*
X5829706Y-15553031D02*
X5839229Y-15543508D01*
X5839229Y-15543508D02*
X5858277Y-15533984D01*
X5858277Y-15533984D02*
X5905896Y-15533984D01*
X5905896Y-15533984D02*
X5924944Y-15543508D01*
X5924944Y-15543508D02*
X5934468Y-15553031D01*
X5934468Y-15553031D02*
X5943991Y-15572079D01*
X5943991Y-15572079D02*
X5943991Y-15591127D01*
X5943991Y-15591127D02*
X5934468Y-15619698D01*
X5934468Y-15619698D02*
X5820182Y-15733984D01*
X5820182Y-15733984D02*
X5943991Y-15733984D01*
X6020182Y-15553031D02*
X6029706Y-15543508D01*
X6029706Y-15543508D02*
X6048753Y-15533984D01*
X6048753Y-15533984D02*
X6096372Y-15533984D01*
X6096372Y-15533984D02*
X6115420Y-15543508D01*
X6115420Y-15543508D02*
X6124944Y-15553031D01*
X6124944Y-15553031D02*
X6134468Y-15572079D01*
X6134468Y-15572079D02*
X6134468Y-15591127D01*
X6134468Y-15591127D02*
X6124944Y-15619698D01*
X6124944Y-15619698D02*
X6010658Y-15733984D01*
X6010658Y-15733984D02*
X6134468Y-15733984D01*
X6372563Y-15733984D02*
X6372563Y-15533984D01*
X6458277Y-15733984D02*
X6458277Y-15629222D01*
X6458277Y-15629222D02*
X6448753Y-15610174D01*
X6448753Y-15610174D02*
X6429706Y-15600650D01*
X6429706Y-15600650D02*
X6401134Y-15600650D01*
X6401134Y-15600650D02*
X6382087Y-15610174D01*
X6382087Y-15610174D02*
X6372563Y-15619698D01*
X6582087Y-15733984D02*
X6563039Y-15724460D01*
X6563039Y-15724460D02*
X6553515Y-15714936D01*
X6553515Y-15714936D02*
X6543991Y-15695888D01*
X6543991Y-15695888D02*
X6543991Y-15638746D01*
X6543991Y-15638746D02*
X6553515Y-15619698D01*
X6553515Y-15619698D02*
X6563039Y-15610174D01*
X6563039Y-15610174D02*
X6582087Y-15600650D01*
X6582087Y-15600650D02*
X6610658Y-15600650D01*
X6610658Y-15600650D02*
X6629706Y-15610174D01*
X6629706Y-15610174D02*
X6639230Y-15619698D01*
X6639230Y-15619698D02*
X6648753Y-15638746D01*
X6648753Y-15638746D02*
X6648753Y-15695888D01*
X6648753Y-15695888D02*
X6639230Y-15714936D01*
X6639230Y-15714936D02*
X6629706Y-15724460D01*
X6629706Y-15724460D02*
X6610658Y-15733984D01*
X6610658Y-15733984D02*
X6582087Y-15733984D01*
X6763039Y-15733984D02*
X6743991Y-15724460D01*
X6743991Y-15724460D02*
X6734468Y-15705412D01*
X6734468Y-15705412D02*
X6734468Y-15533984D01*
X6915420Y-15724460D02*
X6896372Y-15733984D01*
X6896372Y-15733984D02*
X6858277Y-15733984D01*
X6858277Y-15733984D02*
X6839230Y-15724460D01*
X6839230Y-15724460D02*
X6829706Y-15705412D01*
X6829706Y-15705412D02*
X6829706Y-15629222D01*
X6829706Y-15629222D02*
X6839230Y-15610174D01*
X6839230Y-15610174D02*
X6858277Y-15600650D01*
X6858277Y-15600650D02*
X6896372Y-15600650D01*
X6896372Y-15600650D02*
X6915420Y-15610174D01*
X6915420Y-15610174D02*
X6924944Y-15629222D01*
X6924944Y-15629222D02*
X6924944Y-15648269D01*
X6924944Y-15648269D02*
X6829706Y-15667317D01*
X7001134Y-15724460D02*
X7020182Y-15733984D01*
X7020182Y-15733984D02*
X7058277Y-15733984D01*
X7058277Y-15733984D02*
X7077325Y-15724460D01*
X7077325Y-15724460D02*
X7086849Y-15705412D01*
X7086849Y-15705412D02*
X7086849Y-15695888D01*
X7086849Y-15695888D02*
X7077325Y-15676841D01*
X7077325Y-15676841D02*
X7058277Y-15667317D01*
X7058277Y-15667317D02*
X7029706Y-15667317D01*
X7029706Y-15667317D02*
X7010658Y-15657793D01*
X7010658Y-15657793D02*
X7001134Y-15638746D01*
X7001134Y-15638746D02*
X7001134Y-15629222D01*
X7001134Y-15629222D02*
X7010658Y-15610174D01*
X7010658Y-15610174D02*
X7029706Y-15600650D01*
X7029706Y-15600650D02*
X7058277Y-15600650D01*
X7058277Y-15600650D02*
X7077325Y-15610174D01*
X7153515Y-15810174D02*
X7163039Y-15800650D01*
X7163039Y-15800650D02*
X7182087Y-15772079D01*
X7182087Y-15772079D02*
X7191611Y-15753031D01*
X7191611Y-15753031D02*
X7201134Y-15724460D01*
X7201134Y-15724460D02*
X7210658Y-15676841D01*
X7210658Y-15676841D02*
X7210658Y-15638746D01*
X7210658Y-15638746D02*
X7201134Y-15591127D01*
X7201134Y-15591127D02*
X7191611Y-15562555D01*
X7191611Y-15562555D02*
X7182087Y-15543508D01*
X7182087Y-15543508D02*
X7163039Y-15514936D01*
X7163039Y-15514936D02*
X7153515Y-15505412D01*
D12*
X1997500Y-15906500D02*
G75*
G02*
X1917500Y-15906500I-40000J0D01*
G01*
X1917500Y-15906500D02*
G75*
G02*
X1997500Y-15906500I40000J0D01*
G01*
D11*
X2296372Y-15797984D02*
X2315420Y-15797984D01*
X2315420Y-15797984D02*
X2334467Y-15807508D01*
X2334467Y-15807508D02*
X2343991Y-15817031D01*
X2343991Y-15817031D02*
X2353515Y-15836079D01*
X2353515Y-15836079D02*
X2363039Y-15874174D01*
X2363039Y-15874174D02*
X2363039Y-15921793D01*
X2363039Y-15921793D02*
X2353515Y-15959888D01*
X2353515Y-15959888D02*
X2343991Y-15978936D01*
X2343991Y-15978936D02*
X2334467Y-15988460D01*
X2334467Y-15988460D02*
X2315420Y-15997984D01*
X2315420Y-15997984D02*
X2296372Y-15997984D01*
X2296372Y-15997984D02*
X2277324Y-15988460D01*
X2277324Y-15988460D02*
X2267801Y-15978936D01*
X2267801Y-15978936D02*
X2258277Y-15959888D01*
X2258277Y-15959888D02*
X2248753Y-15921793D01*
X2248753Y-15921793D02*
X2248753Y-15874174D01*
X2248753Y-15874174D02*
X2258277Y-15836079D01*
X2258277Y-15836079D02*
X2267801Y-15817031D01*
X2267801Y-15817031D02*
X2277324Y-15807508D01*
X2277324Y-15807508D02*
X2296372Y-15797984D01*
X2448753Y-15978936D02*
X2458277Y-15988460D01*
X2458277Y-15988460D02*
X2448753Y-15997984D01*
X2448753Y-15997984D02*
X2439229Y-15988460D01*
X2439229Y-15988460D02*
X2448753Y-15978936D01*
X2448753Y-15978936D02*
X2448753Y-15997984D01*
X2572563Y-15883698D02*
X2553515Y-15874174D01*
X2553515Y-15874174D02*
X2543991Y-15864650D01*
X2543991Y-15864650D02*
X2534467Y-15845603D01*
X2534467Y-15845603D02*
X2534467Y-15836079D01*
X2534467Y-15836079D02*
X2543991Y-15817031D01*
X2543991Y-15817031D02*
X2553515Y-15807508D01*
X2553515Y-15807508D02*
X2572563Y-15797984D01*
X2572563Y-15797984D02*
X2610658Y-15797984D01*
X2610658Y-15797984D02*
X2629705Y-15807508D01*
X2629705Y-15807508D02*
X2639229Y-15817031D01*
X2639229Y-15817031D02*
X2648753Y-15836079D01*
X2648753Y-15836079D02*
X2648753Y-15845603D01*
X2648753Y-15845603D02*
X2639229Y-15864650D01*
X2639229Y-15864650D02*
X2629705Y-15874174D01*
X2629705Y-15874174D02*
X2610658Y-15883698D01*
X2610658Y-15883698D02*
X2572563Y-15883698D01*
X2572563Y-15883698D02*
X2553515Y-15893222D01*
X2553515Y-15893222D02*
X2543991Y-15902746D01*
X2543991Y-15902746D02*
X2534467Y-15921793D01*
X2534467Y-15921793D02*
X2534467Y-15959888D01*
X2534467Y-15959888D02*
X2543991Y-15978936D01*
X2543991Y-15978936D02*
X2553515Y-15988460D01*
X2553515Y-15988460D02*
X2572563Y-15997984D01*
X2572563Y-15997984D02*
X2610658Y-15997984D01*
X2610658Y-15997984D02*
X2629705Y-15988460D01*
X2629705Y-15988460D02*
X2639229Y-15978936D01*
X2639229Y-15978936D02*
X2648753Y-15959888D01*
X2648753Y-15959888D02*
X2648753Y-15921793D01*
X2648753Y-15921793D02*
X2639229Y-15902746D01*
X2639229Y-15902746D02*
X2629705Y-15893222D01*
X2629705Y-15893222D02*
X2610658Y-15883698D01*
X2772563Y-15797984D02*
X2791610Y-15797984D01*
X2791610Y-15797984D02*
X2810658Y-15807508D01*
X2810658Y-15807508D02*
X2820182Y-15817031D01*
X2820182Y-15817031D02*
X2829705Y-15836079D01*
X2829705Y-15836079D02*
X2839229Y-15874174D01*
X2839229Y-15874174D02*
X2839229Y-15921793D01*
X2839229Y-15921793D02*
X2829705Y-15959888D01*
X2829705Y-15959888D02*
X2820182Y-15978936D01*
X2820182Y-15978936D02*
X2810658Y-15988460D01*
X2810658Y-15988460D02*
X2791610Y-15997984D01*
X2791610Y-15997984D02*
X2772563Y-15997984D01*
X2772563Y-15997984D02*
X2753515Y-15988460D01*
X2753515Y-15988460D02*
X2743991Y-15978936D01*
X2743991Y-15978936D02*
X2734467Y-15959888D01*
X2734467Y-15959888D02*
X2724944Y-15921793D01*
X2724944Y-15921793D02*
X2724944Y-15874174D01*
X2724944Y-15874174D02*
X2734467Y-15836079D01*
X2734467Y-15836079D02*
X2743991Y-15817031D01*
X2743991Y-15817031D02*
X2753515Y-15807508D01*
X2753515Y-15807508D02*
X2772563Y-15797984D01*
X2963039Y-15797984D02*
X2982086Y-15797984D01*
X2982086Y-15797984D02*
X3001134Y-15807508D01*
X3001134Y-15807508D02*
X3010658Y-15817031D01*
X3010658Y-15817031D02*
X3020182Y-15836079D01*
X3020182Y-15836079D02*
X3029705Y-15874174D01*
X3029705Y-15874174D02*
X3029705Y-15921793D01*
X3029705Y-15921793D02*
X3020182Y-15959888D01*
X3020182Y-15959888D02*
X3010658Y-15978936D01*
X3010658Y-15978936D02*
X3001134Y-15988460D01*
X3001134Y-15988460D02*
X2982086Y-15997984D01*
X2982086Y-15997984D02*
X2963039Y-15997984D01*
X2963039Y-15997984D02*
X2943991Y-15988460D01*
X2943991Y-15988460D02*
X2934467Y-15978936D01*
X2934467Y-15978936D02*
X2924943Y-15959888D01*
X2924943Y-15959888D02*
X2915420Y-15921793D01*
X2915420Y-15921793D02*
X2915420Y-15874174D01*
X2915420Y-15874174D02*
X2924943Y-15836079D01*
X2924943Y-15836079D02*
X2934467Y-15817031D01*
X2934467Y-15817031D02*
X2943991Y-15807508D01*
X2943991Y-15807508D02*
X2963039Y-15797984D01*
X3115420Y-15997984D02*
X3115420Y-15864650D01*
X3115420Y-15883698D02*
X3124943Y-15874174D01*
X3124943Y-15874174D02*
X3143991Y-15864650D01*
X3143991Y-15864650D02*
X3172563Y-15864650D01*
X3172563Y-15864650D02*
X3191610Y-15874174D01*
X3191610Y-15874174D02*
X3201134Y-15893222D01*
X3201134Y-15893222D02*
X3201134Y-15997984D01*
X3201134Y-15893222D02*
X3210658Y-15874174D01*
X3210658Y-15874174D02*
X3229705Y-15864650D01*
X3229705Y-15864650D02*
X3258277Y-15864650D01*
X3258277Y-15864650D02*
X3277324Y-15874174D01*
X3277324Y-15874174D02*
X3286848Y-15893222D01*
X3286848Y-15893222D02*
X3286848Y-15997984D01*
X3382086Y-15997984D02*
X3382086Y-15864650D01*
X3382086Y-15883698D02*
X3391610Y-15874174D01*
X3391610Y-15874174D02*
X3410658Y-15864650D01*
X3410658Y-15864650D02*
X3439229Y-15864650D01*
X3439229Y-15864650D02*
X3458277Y-15874174D01*
X3458277Y-15874174D02*
X3467801Y-15893222D01*
X3467801Y-15893222D02*
X3467801Y-15997984D01*
X3467801Y-15893222D02*
X3477324Y-15874174D01*
X3477324Y-15874174D02*
X3496372Y-15864650D01*
X3496372Y-15864650D02*
X3524943Y-15864650D01*
X3524943Y-15864650D02*
X3543991Y-15874174D01*
X3543991Y-15874174D02*
X3553515Y-15893222D01*
X3553515Y-15893222D02*
X3553515Y-15997984D01*
X3943991Y-15788460D02*
X3772563Y-16045603D01*
X4201134Y-15797984D02*
X4220182Y-15797984D01*
X4220182Y-15797984D02*
X4239229Y-15807508D01*
X4239229Y-15807508D02*
X4248753Y-15817031D01*
X4248753Y-15817031D02*
X4258277Y-15836079D01*
X4258277Y-15836079D02*
X4267801Y-15874174D01*
X4267801Y-15874174D02*
X4267801Y-15921793D01*
X4267801Y-15921793D02*
X4258277Y-15959888D01*
X4258277Y-15959888D02*
X4248753Y-15978936D01*
X4248753Y-15978936D02*
X4239229Y-15988460D01*
X4239229Y-15988460D02*
X4220182Y-15997984D01*
X4220182Y-15997984D02*
X4201134Y-15997984D01*
X4201134Y-15997984D02*
X4182086Y-15988460D01*
X4182086Y-15988460D02*
X4172563Y-15978936D01*
X4172563Y-15978936D02*
X4163039Y-15959888D01*
X4163039Y-15959888D02*
X4153515Y-15921793D01*
X4153515Y-15921793D02*
X4153515Y-15874174D01*
X4153515Y-15874174D02*
X4163039Y-15836079D01*
X4163039Y-15836079D02*
X4172563Y-15817031D01*
X4172563Y-15817031D02*
X4182086Y-15807508D01*
X4182086Y-15807508D02*
X4201134Y-15797984D01*
X4353515Y-15978936D02*
X4363039Y-15988460D01*
X4363039Y-15988460D02*
X4353515Y-15997984D01*
X4353515Y-15997984D02*
X4343991Y-15988460D01*
X4343991Y-15988460D02*
X4353515Y-15978936D01*
X4353515Y-15978936D02*
X4353515Y-15997984D01*
X4486848Y-15797984D02*
X4505896Y-15797984D01*
X4505896Y-15797984D02*
X4524944Y-15807508D01*
X4524944Y-15807508D02*
X4534468Y-15817031D01*
X4534468Y-15817031D02*
X4543991Y-15836079D01*
X4543991Y-15836079D02*
X4553515Y-15874174D01*
X4553515Y-15874174D02*
X4553515Y-15921793D01*
X4553515Y-15921793D02*
X4543991Y-15959888D01*
X4543991Y-15959888D02*
X4534468Y-15978936D01*
X4534468Y-15978936D02*
X4524944Y-15988460D01*
X4524944Y-15988460D02*
X4505896Y-15997984D01*
X4505896Y-15997984D02*
X4486848Y-15997984D01*
X4486848Y-15997984D02*
X4467801Y-15988460D01*
X4467801Y-15988460D02*
X4458277Y-15978936D01*
X4458277Y-15978936D02*
X4448753Y-15959888D01*
X4448753Y-15959888D02*
X4439229Y-15921793D01*
X4439229Y-15921793D02*
X4439229Y-15874174D01*
X4439229Y-15874174D02*
X4448753Y-15836079D01*
X4448753Y-15836079D02*
X4458277Y-15817031D01*
X4458277Y-15817031D02*
X4467801Y-15807508D01*
X4467801Y-15807508D02*
X4486848Y-15797984D01*
X4620182Y-15797984D02*
X4743991Y-15797984D01*
X4743991Y-15797984D02*
X4677325Y-15874174D01*
X4677325Y-15874174D02*
X4705896Y-15874174D01*
X4705896Y-15874174D02*
X4724944Y-15883698D01*
X4724944Y-15883698D02*
X4734468Y-15893222D01*
X4734468Y-15893222D02*
X4743991Y-15912269D01*
X4743991Y-15912269D02*
X4743991Y-15959888D01*
X4743991Y-15959888D02*
X4734468Y-15978936D01*
X4734468Y-15978936D02*
X4724944Y-15988460D01*
X4724944Y-15988460D02*
X4705896Y-15997984D01*
X4705896Y-15997984D02*
X4648753Y-15997984D01*
X4648753Y-15997984D02*
X4629706Y-15988460D01*
X4629706Y-15988460D02*
X4620182Y-15978936D01*
X4934468Y-15997984D02*
X4820182Y-15997984D01*
X4877325Y-15997984D02*
X4877325Y-15797984D01*
X4877325Y-15797984D02*
X4858277Y-15826555D01*
X4858277Y-15826555D02*
X4839229Y-15845603D01*
X4839229Y-15845603D02*
X4820182Y-15855127D01*
X5115420Y-15797984D02*
X5020182Y-15797984D01*
X5020182Y-15797984D02*
X5010658Y-15893222D01*
X5010658Y-15893222D02*
X5020182Y-15883698D01*
X5020182Y-15883698D02*
X5039229Y-15874174D01*
X5039229Y-15874174D02*
X5086849Y-15874174D01*
X5086849Y-15874174D02*
X5105896Y-15883698D01*
X5105896Y-15883698D02*
X5115420Y-15893222D01*
X5115420Y-15893222D02*
X5124944Y-15912269D01*
X5124944Y-15912269D02*
X5124944Y-15959888D01*
X5124944Y-15959888D02*
X5115420Y-15978936D01*
X5115420Y-15978936D02*
X5105896Y-15988460D01*
X5105896Y-15988460D02*
X5086849Y-15997984D01*
X5086849Y-15997984D02*
X5039229Y-15997984D01*
X5039229Y-15997984D02*
X5020182Y-15988460D01*
X5020182Y-15988460D02*
X5010658Y-15978936D01*
X5201134Y-15797984D02*
X5201134Y-15836079D01*
X5277325Y-15797984D02*
X5277325Y-15836079D01*
X5572563Y-16074174D02*
X5563039Y-16064650D01*
X5563039Y-16064650D02*
X5543991Y-16036079D01*
X5543991Y-16036079D02*
X5534468Y-16017031D01*
X5534468Y-16017031D02*
X5524944Y-15988460D01*
X5524944Y-15988460D02*
X5515420Y-15940841D01*
X5515420Y-15940841D02*
X5515420Y-15902746D01*
X5515420Y-15902746D02*
X5524944Y-15855127D01*
X5524944Y-15855127D02*
X5534468Y-15826555D01*
X5534468Y-15826555D02*
X5543991Y-15807508D01*
X5543991Y-15807508D02*
X5563039Y-15778936D01*
X5563039Y-15778936D02*
X5572563Y-15769412D01*
X5639229Y-15817031D02*
X5648753Y-15807508D01*
X5648753Y-15807508D02*
X5667801Y-15797984D01*
X5667801Y-15797984D02*
X5715420Y-15797984D01*
X5715420Y-15797984D02*
X5734468Y-15807508D01*
X5734468Y-15807508D02*
X5743991Y-15817031D01*
X5743991Y-15817031D02*
X5753515Y-15836079D01*
X5753515Y-15836079D02*
X5753515Y-15855127D01*
X5753515Y-15855127D02*
X5743991Y-15883698D01*
X5743991Y-15883698D02*
X5629706Y-15997984D01*
X5629706Y-15997984D02*
X5753515Y-15997984D01*
X5991610Y-15997984D02*
X5991610Y-15797984D01*
X6077325Y-15997984D02*
X6077325Y-15893222D01*
X6077325Y-15893222D02*
X6067801Y-15874174D01*
X6067801Y-15874174D02*
X6048753Y-15864650D01*
X6048753Y-15864650D02*
X6020182Y-15864650D01*
X6020182Y-15864650D02*
X6001134Y-15874174D01*
X6001134Y-15874174D02*
X5991610Y-15883698D01*
X6201134Y-15997984D02*
X6182087Y-15988460D01*
X6182087Y-15988460D02*
X6172563Y-15978936D01*
X6172563Y-15978936D02*
X6163039Y-15959888D01*
X6163039Y-15959888D02*
X6163039Y-15902746D01*
X6163039Y-15902746D02*
X6172563Y-15883698D01*
X6172563Y-15883698D02*
X6182087Y-15874174D01*
X6182087Y-15874174D02*
X6201134Y-15864650D01*
X6201134Y-15864650D02*
X6229706Y-15864650D01*
X6229706Y-15864650D02*
X6248753Y-15874174D01*
X6248753Y-15874174D02*
X6258277Y-15883698D01*
X6258277Y-15883698D02*
X6267801Y-15902746D01*
X6267801Y-15902746D02*
X6267801Y-15959888D01*
X6267801Y-15959888D02*
X6258277Y-15978936D01*
X6258277Y-15978936D02*
X6248753Y-15988460D01*
X6248753Y-15988460D02*
X6229706Y-15997984D01*
X6229706Y-15997984D02*
X6201134Y-15997984D01*
X6382087Y-15997984D02*
X6363039Y-15988460D01*
X6363039Y-15988460D02*
X6353515Y-15969412D01*
X6353515Y-15969412D02*
X6353515Y-15797984D01*
X6534468Y-15988460D02*
X6515420Y-15997984D01*
X6515420Y-15997984D02*
X6477325Y-15997984D01*
X6477325Y-15997984D02*
X6458277Y-15988460D01*
X6458277Y-15988460D02*
X6448753Y-15969412D01*
X6448753Y-15969412D02*
X6448753Y-15893222D01*
X6448753Y-15893222D02*
X6458277Y-15874174D01*
X6458277Y-15874174D02*
X6477325Y-15864650D01*
X6477325Y-15864650D02*
X6515420Y-15864650D01*
X6515420Y-15864650D02*
X6534468Y-15874174D01*
X6534468Y-15874174D02*
X6543991Y-15893222D01*
X6543991Y-15893222D02*
X6543991Y-15912269D01*
X6543991Y-15912269D02*
X6448753Y-15931317D01*
X6620182Y-15988460D02*
X6639230Y-15997984D01*
X6639230Y-15997984D02*
X6677325Y-15997984D01*
X6677325Y-15997984D02*
X6696372Y-15988460D01*
X6696372Y-15988460D02*
X6705896Y-15969412D01*
X6705896Y-15969412D02*
X6705896Y-15959888D01*
X6705896Y-15959888D02*
X6696372Y-15940841D01*
X6696372Y-15940841D02*
X6677325Y-15931317D01*
X6677325Y-15931317D02*
X6648753Y-15931317D01*
X6648753Y-15931317D02*
X6629706Y-15921793D01*
X6629706Y-15921793D02*
X6620182Y-15902746D01*
X6620182Y-15902746D02*
X6620182Y-15893222D01*
X6620182Y-15893222D02*
X6629706Y-15874174D01*
X6629706Y-15874174D02*
X6648753Y-15864650D01*
X6648753Y-15864650D02*
X6677325Y-15864650D01*
X6677325Y-15864650D02*
X6696372Y-15874174D01*
X6772563Y-16074174D02*
X6782087Y-16064650D01*
X6782087Y-16064650D02*
X6801134Y-16036079D01*
X6801134Y-16036079D02*
X6810658Y-16017031D01*
X6810658Y-16017031D02*
X6820182Y-15988460D01*
X6820182Y-15988460D02*
X6829706Y-15940841D01*
X6829706Y-15940841D02*
X6829706Y-15902746D01*
X6829706Y-15902746D02*
X6820182Y-15855127D01*
X6820182Y-15855127D02*
X6810658Y-15826555D01*
X6810658Y-15826555D02*
X6801134Y-15807508D01*
X6801134Y-15807508D02*
X6782087Y-15778936D01*
X6782087Y-15778936D02*
X6772563Y-15769412D01*
D12*
X1947500Y-16120500D02*
X1947500Y-16220500D01*
X1897500Y-16170500D02*
X1997500Y-16170500D01*
D11*
X2363039Y-16261984D02*
X2248753Y-16261984D01*
X2305896Y-16261984D02*
X2305896Y-16061984D01*
X2305896Y-16061984D02*
X2286848Y-16090555D01*
X2286848Y-16090555D02*
X2267801Y-16109603D01*
X2267801Y-16109603D02*
X2248753Y-16119127D01*
X2448753Y-16242936D02*
X2458277Y-16252460D01*
X2458277Y-16252460D02*
X2448753Y-16261984D01*
X2448753Y-16261984D02*
X2439229Y-16252460D01*
X2439229Y-16252460D02*
X2448753Y-16242936D01*
X2448753Y-16242936D02*
X2448753Y-16261984D01*
X2582086Y-16061984D02*
X2601134Y-16061984D01*
X2601134Y-16061984D02*
X2620182Y-16071508D01*
X2620182Y-16071508D02*
X2629705Y-16081031D01*
X2629705Y-16081031D02*
X2639229Y-16100079D01*
X2639229Y-16100079D02*
X2648753Y-16138174D01*
X2648753Y-16138174D02*
X2648753Y-16185793D01*
X2648753Y-16185793D02*
X2639229Y-16223888D01*
X2639229Y-16223888D02*
X2629705Y-16242936D01*
X2629705Y-16242936D02*
X2620182Y-16252460D01*
X2620182Y-16252460D02*
X2601134Y-16261984D01*
X2601134Y-16261984D02*
X2582086Y-16261984D01*
X2582086Y-16261984D02*
X2563039Y-16252460D01*
X2563039Y-16252460D02*
X2553515Y-16242936D01*
X2553515Y-16242936D02*
X2543991Y-16223888D01*
X2543991Y-16223888D02*
X2534467Y-16185793D01*
X2534467Y-16185793D02*
X2534467Y-16138174D01*
X2534467Y-16138174D02*
X2543991Y-16100079D01*
X2543991Y-16100079D02*
X2553515Y-16081031D01*
X2553515Y-16081031D02*
X2563039Y-16071508D01*
X2563039Y-16071508D02*
X2582086Y-16061984D01*
X2772563Y-16061984D02*
X2791610Y-16061984D01*
X2791610Y-16061984D02*
X2810658Y-16071508D01*
X2810658Y-16071508D02*
X2820182Y-16081031D01*
X2820182Y-16081031D02*
X2829705Y-16100079D01*
X2829705Y-16100079D02*
X2839229Y-16138174D01*
X2839229Y-16138174D02*
X2839229Y-16185793D01*
X2839229Y-16185793D02*
X2829705Y-16223888D01*
X2829705Y-16223888D02*
X2820182Y-16242936D01*
X2820182Y-16242936D02*
X2810658Y-16252460D01*
X2810658Y-16252460D02*
X2791610Y-16261984D01*
X2791610Y-16261984D02*
X2772563Y-16261984D01*
X2772563Y-16261984D02*
X2753515Y-16252460D01*
X2753515Y-16252460D02*
X2743991Y-16242936D01*
X2743991Y-16242936D02*
X2734467Y-16223888D01*
X2734467Y-16223888D02*
X2724944Y-16185793D01*
X2724944Y-16185793D02*
X2724944Y-16138174D01*
X2724944Y-16138174D02*
X2734467Y-16100079D01*
X2734467Y-16100079D02*
X2743991Y-16081031D01*
X2743991Y-16081031D02*
X2753515Y-16071508D01*
X2753515Y-16071508D02*
X2772563Y-16061984D01*
X2963039Y-16061984D02*
X2982086Y-16061984D01*
X2982086Y-16061984D02*
X3001134Y-16071508D01*
X3001134Y-16071508D02*
X3010658Y-16081031D01*
X3010658Y-16081031D02*
X3020182Y-16100079D01*
X3020182Y-16100079D02*
X3029705Y-16138174D01*
X3029705Y-16138174D02*
X3029705Y-16185793D01*
X3029705Y-16185793D02*
X3020182Y-16223888D01*
X3020182Y-16223888D02*
X3010658Y-16242936D01*
X3010658Y-16242936D02*
X3001134Y-16252460D01*
X3001134Y-16252460D02*
X2982086Y-16261984D01*
X2982086Y-16261984D02*
X2963039Y-16261984D01*
X2963039Y-16261984D02*
X2943991Y-16252460D01*
X2943991Y-16252460D02*
X2934467Y-16242936D01*
X2934467Y-16242936D02*
X2924943Y-16223888D01*
X2924943Y-16223888D02*
X2915420Y-16185793D01*
X2915420Y-16185793D02*
X2915420Y-16138174D01*
X2915420Y-16138174D02*
X2924943Y-16100079D01*
X2924943Y-16100079D02*
X2934467Y-16081031D01*
X2934467Y-16081031D02*
X2943991Y-16071508D01*
X2943991Y-16071508D02*
X2963039Y-16061984D01*
X3115420Y-16261984D02*
X3115420Y-16128650D01*
X3115420Y-16147698D02*
X3124943Y-16138174D01*
X3124943Y-16138174D02*
X3143991Y-16128650D01*
X3143991Y-16128650D02*
X3172563Y-16128650D01*
X3172563Y-16128650D02*
X3191610Y-16138174D01*
X3191610Y-16138174D02*
X3201134Y-16157222D01*
X3201134Y-16157222D02*
X3201134Y-16261984D01*
X3201134Y-16157222D02*
X3210658Y-16138174D01*
X3210658Y-16138174D02*
X3229705Y-16128650D01*
X3229705Y-16128650D02*
X3258277Y-16128650D01*
X3258277Y-16128650D02*
X3277324Y-16138174D01*
X3277324Y-16138174D02*
X3286848Y-16157222D01*
X3286848Y-16157222D02*
X3286848Y-16261984D01*
X3382086Y-16261984D02*
X3382086Y-16128650D01*
X3382086Y-16147698D02*
X3391610Y-16138174D01*
X3391610Y-16138174D02*
X3410658Y-16128650D01*
X3410658Y-16128650D02*
X3439229Y-16128650D01*
X3439229Y-16128650D02*
X3458277Y-16138174D01*
X3458277Y-16138174D02*
X3467801Y-16157222D01*
X3467801Y-16157222D02*
X3467801Y-16261984D01*
X3467801Y-16157222D02*
X3477324Y-16138174D01*
X3477324Y-16138174D02*
X3496372Y-16128650D01*
X3496372Y-16128650D02*
X3524943Y-16128650D01*
X3524943Y-16128650D02*
X3543991Y-16138174D01*
X3543991Y-16138174D02*
X3553515Y-16157222D01*
X3553515Y-16157222D02*
X3553515Y-16261984D01*
X3943991Y-16052460D02*
X3772563Y-16309603D01*
X4201134Y-16061984D02*
X4220182Y-16061984D01*
X4220182Y-16061984D02*
X4239229Y-16071508D01*
X4239229Y-16071508D02*
X4248753Y-16081031D01*
X4248753Y-16081031D02*
X4258277Y-16100079D01*
X4258277Y-16100079D02*
X4267801Y-16138174D01*
X4267801Y-16138174D02*
X4267801Y-16185793D01*
X4267801Y-16185793D02*
X4258277Y-16223888D01*
X4258277Y-16223888D02*
X4248753Y-16242936D01*
X4248753Y-16242936D02*
X4239229Y-16252460D01*
X4239229Y-16252460D02*
X4220182Y-16261984D01*
X4220182Y-16261984D02*
X4201134Y-16261984D01*
X4201134Y-16261984D02*
X4182086Y-16252460D01*
X4182086Y-16252460D02*
X4172563Y-16242936D01*
X4172563Y-16242936D02*
X4163039Y-16223888D01*
X4163039Y-16223888D02*
X4153515Y-16185793D01*
X4153515Y-16185793D02*
X4153515Y-16138174D01*
X4153515Y-16138174D02*
X4163039Y-16100079D01*
X4163039Y-16100079D02*
X4172563Y-16081031D01*
X4172563Y-16081031D02*
X4182086Y-16071508D01*
X4182086Y-16071508D02*
X4201134Y-16061984D01*
X4353515Y-16242936D02*
X4363039Y-16252460D01*
X4363039Y-16252460D02*
X4353515Y-16261984D01*
X4353515Y-16261984D02*
X4343991Y-16252460D01*
X4343991Y-16252460D02*
X4353515Y-16242936D01*
X4353515Y-16242936D02*
X4353515Y-16261984D01*
X4486848Y-16061984D02*
X4505896Y-16061984D01*
X4505896Y-16061984D02*
X4524944Y-16071508D01*
X4524944Y-16071508D02*
X4534468Y-16081031D01*
X4534468Y-16081031D02*
X4543991Y-16100079D01*
X4543991Y-16100079D02*
X4553515Y-16138174D01*
X4553515Y-16138174D02*
X4553515Y-16185793D01*
X4553515Y-16185793D02*
X4543991Y-16223888D01*
X4543991Y-16223888D02*
X4534468Y-16242936D01*
X4534468Y-16242936D02*
X4524944Y-16252460D01*
X4524944Y-16252460D02*
X4505896Y-16261984D01*
X4505896Y-16261984D02*
X4486848Y-16261984D01*
X4486848Y-16261984D02*
X4467801Y-16252460D01*
X4467801Y-16252460D02*
X4458277Y-16242936D01*
X4458277Y-16242936D02*
X4448753Y-16223888D01*
X4448753Y-16223888D02*
X4439229Y-16185793D01*
X4439229Y-16185793D02*
X4439229Y-16138174D01*
X4439229Y-16138174D02*
X4448753Y-16100079D01*
X4448753Y-16100079D02*
X4458277Y-16081031D01*
X4458277Y-16081031D02*
X4467801Y-16071508D01*
X4467801Y-16071508D02*
X4486848Y-16061984D01*
X4620182Y-16061984D02*
X4743991Y-16061984D01*
X4743991Y-16061984D02*
X4677325Y-16138174D01*
X4677325Y-16138174D02*
X4705896Y-16138174D01*
X4705896Y-16138174D02*
X4724944Y-16147698D01*
X4724944Y-16147698D02*
X4734468Y-16157222D01*
X4734468Y-16157222D02*
X4743991Y-16176269D01*
X4743991Y-16176269D02*
X4743991Y-16223888D01*
X4743991Y-16223888D02*
X4734468Y-16242936D01*
X4734468Y-16242936D02*
X4724944Y-16252460D01*
X4724944Y-16252460D02*
X4705896Y-16261984D01*
X4705896Y-16261984D02*
X4648753Y-16261984D01*
X4648753Y-16261984D02*
X4629706Y-16252460D01*
X4629706Y-16252460D02*
X4620182Y-16242936D01*
X4839229Y-16261984D02*
X4877325Y-16261984D01*
X4877325Y-16261984D02*
X4896372Y-16252460D01*
X4896372Y-16252460D02*
X4905896Y-16242936D01*
X4905896Y-16242936D02*
X4924944Y-16214365D01*
X4924944Y-16214365D02*
X4934468Y-16176269D01*
X4934468Y-16176269D02*
X4934468Y-16100079D01*
X4934468Y-16100079D02*
X4924944Y-16081031D01*
X4924944Y-16081031D02*
X4915420Y-16071508D01*
X4915420Y-16071508D02*
X4896372Y-16061984D01*
X4896372Y-16061984D02*
X4858277Y-16061984D01*
X4858277Y-16061984D02*
X4839229Y-16071508D01*
X4839229Y-16071508D02*
X4829706Y-16081031D01*
X4829706Y-16081031D02*
X4820182Y-16100079D01*
X4820182Y-16100079D02*
X4820182Y-16147698D01*
X4820182Y-16147698D02*
X4829706Y-16166746D01*
X4829706Y-16166746D02*
X4839229Y-16176269D01*
X4839229Y-16176269D02*
X4858277Y-16185793D01*
X4858277Y-16185793D02*
X4896372Y-16185793D01*
X4896372Y-16185793D02*
X4915420Y-16176269D01*
X4915420Y-16176269D02*
X4924944Y-16166746D01*
X4924944Y-16166746D02*
X4934468Y-16147698D01*
X5105896Y-16128650D02*
X5105896Y-16261984D01*
X5058277Y-16052460D02*
X5010658Y-16195317D01*
X5010658Y-16195317D02*
X5134468Y-16195317D01*
X5201134Y-16061984D02*
X5201134Y-16100079D01*
X5277325Y-16061984D02*
X5277325Y-16100079D01*
X5572563Y-16338174D02*
X5563039Y-16328650D01*
X5563039Y-16328650D02*
X5543991Y-16300079D01*
X5543991Y-16300079D02*
X5534468Y-16281031D01*
X5534468Y-16281031D02*
X5524944Y-16252460D01*
X5524944Y-16252460D02*
X5515420Y-16204841D01*
X5515420Y-16204841D02*
X5515420Y-16166746D01*
X5515420Y-16166746D02*
X5524944Y-16119127D01*
X5524944Y-16119127D02*
X5534468Y-16090555D01*
X5534468Y-16090555D02*
X5543991Y-16071508D01*
X5543991Y-16071508D02*
X5563039Y-16042936D01*
X5563039Y-16042936D02*
X5572563Y-16033412D01*
X5753515Y-16261984D02*
X5639229Y-16261984D01*
X5696372Y-16261984D02*
X5696372Y-16061984D01*
X5696372Y-16061984D02*
X5677325Y-16090555D01*
X5677325Y-16090555D02*
X5658277Y-16109603D01*
X5658277Y-16109603D02*
X5639229Y-16119127D01*
X5848753Y-16261984D02*
X5886848Y-16261984D01*
X5886848Y-16261984D02*
X5905896Y-16252460D01*
X5905896Y-16252460D02*
X5915420Y-16242936D01*
X5915420Y-16242936D02*
X5934468Y-16214365D01*
X5934468Y-16214365D02*
X5943991Y-16176269D01*
X5943991Y-16176269D02*
X5943991Y-16100079D01*
X5943991Y-16100079D02*
X5934468Y-16081031D01*
X5934468Y-16081031D02*
X5924944Y-16071508D01*
X5924944Y-16071508D02*
X5905896Y-16061984D01*
X5905896Y-16061984D02*
X5867801Y-16061984D01*
X5867801Y-16061984D02*
X5848753Y-16071508D01*
X5848753Y-16071508D02*
X5839229Y-16081031D01*
X5839229Y-16081031D02*
X5829706Y-16100079D01*
X5829706Y-16100079D02*
X5829706Y-16147698D01*
X5829706Y-16147698D02*
X5839229Y-16166746D01*
X5839229Y-16166746D02*
X5848753Y-16176269D01*
X5848753Y-16176269D02*
X5867801Y-16185793D01*
X5867801Y-16185793D02*
X5905896Y-16185793D01*
X5905896Y-16185793D02*
X5924944Y-16176269D01*
X5924944Y-16176269D02*
X5934468Y-16166746D01*
X5934468Y-16166746D02*
X5943991Y-16147698D01*
X6182087Y-16261984D02*
X6182087Y-16061984D01*
X6267801Y-16261984D02*
X6267801Y-16157222D01*
X6267801Y-16157222D02*
X6258277Y-16138174D01*
X6258277Y-16138174D02*
X6239230Y-16128650D01*
X6239230Y-16128650D02*
X6210658Y-16128650D01*
X6210658Y-16128650D02*
X6191610Y-16138174D01*
X6191610Y-16138174D02*
X6182087Y-16147698D01*
X6391610Y-16261984D02*
X6372563Y-16252460D01*
X6372563Y-16252460D02*
X6363039Y-16242936D01*
X6363039Y-16242936D02*
X6353515Y-16223888D01*
X6353515Y-16223888D02*
X6353515Y-16166746D01*
X6353515Y-16166746D02*
X6363039Y-16147698D01*
X6363039Y-16147698D02*
X6372563Y-16138174D01*
X6372563Y-16138174D02*
X6391610Y-16128650D01*
X6391610Y-16128650D02*
X6420182Y-16128650D01*
X6420182Y-16128650D02*
X6439230Y-16138174D01*
X6439230Y-16138174D02*
X6448753Y-16147698D01*
X6448753Y-16147698D02*
X6458277Y-16166746D01*
X6458277Y-16166746D02*
X6458277Y-16223888D01*
X6458277Y-16223888D02*
X6448753Y-16242936D01*
X6448753Y-16242936D02*
X6439230Y-16252460D01*
X6439230Y-16252460D02*
X6420182Y-16261984D01*
X6420182Y-16261984D02*
X6391610Y-16261984D01*
X6572563Y-16261984D02*
X6553515Y-16252460D01*
X6553515Y-16252460D02*
X6543991Y-16233412D01*
X6543991Y-16233412D02*
X6543991Y-16061984D01*
X6724944Y-16252460D02*
X6705896Y-16261984D01*
X6705896Y-16261984D02*
X6667801Y-16261984D01*
X6667801Y-16261984D02*
X6648753Y-16252460D01*
X6648753Y-16252460D02*
X6639230Y-16233412D01*
X6639230Y-16233412D02*
X6639230Y-16157222D01*
X6639230Y-16157222D02*
X6648753Y-16138174D01*
X6648753Y-16138174D02*
X6667801Y-16128650D01*
X6667801Y-16128650D02*
X6705896Y-16128650D01*
X6705896Y-16128650D02*
X6724944Y-16138174D01*
X6724944Y-16138174D02*
X6734468Y-16157222D01*
X6734468Y-16157222D02*
X6734468Y-16176269D01*
X6734468Y-16176269D02*
X6639230Y-16195317D01*
X6810658Y-16252460D02*
X6829706Y-16261984D01*
X6829706Y-16261984D02*
X6867801Y-16261984D01*
X6867801Y-16261984D02*
X6886849Y-16252460D01*
X6886849Y-16252460D02*
X6896372Y-16233412D01*
X6896372Y-16233412D02*
X6896372Y-16223888D01*
X6896372Y-16223888D02*
X6886849Y-16204841D01*
X6886849Y-16204841D02*
X6867801Y-16195317D01*
X6867801Y-16195317D02*
X6839230Y-16195317D01*
X6839230Y-16195317D02*
X6820182Y-16185793D01*
X6820182Y-16185793D02*
X6810658Y-16166746D01*
X6810658Y-16166746D02*
X6810658Y-16157222D01*
X6810658Y-16157222D02*
X6820182Y-16138174D01*
X6820182Y-16138174D02*
X6839230Y-16128650D01*
X6839230Y-16128650D02*
X6867801Y-16128650D01*
X6867801Y-16128650D02*
X6886849Y-16138174D01*
X6963039Y-16338174D02*
X6972563Y-16328650D01*
X6972563Y-16328650D02*
X6991611Y-16300079D01*
X6991611Y-16300079D02*
X7001134Y-16281031D01*
X7001134Y-16281031D02*
X7010658Y-16252460D01*
X7010658Y-16252460D02*
X7020182Y-16204841D01*
X7020182Y-16204841D02*
X7020182Y-16166746D01*
X7020182Y-16166746D02*
X7010658Y-16119127D01*
X7010658Y-16119127D02*
X7001134Y-16090555D01*
X7001134Y-16090555D02*
X6991611Y-16071508D01*
X6991611Y-16071508D02*
X6972563Y-16042936D01*
X6972563Y-16042936D02*
X6963039Y-16033412D01*
M02*
