G04 #@! TF.GenerationSoftware,KiCad,Pcbnew,8.0.4*
G04 #@! TF.CreationDate,2024-09-19T20:08:30+02:00*
G04 #@! TF.ProjectId,Displays_Strip,44697370-6c61-4797-935f-53747269702e,rev?*
G04 #@! TF.SameCoordinates,Original*
G04 #@! TF.FileFunction,Legend,Top*
G04 #@! TF.FilePolarity,Positive*
%FSLAX46Y46*%
G04 Gerber Fmt 4.6, Leading zero omitted, Abs format (unit mm)*
G04 Created by KiCad (PCBNEW 8.0.4) date 2024-09-19 20:08:30*
%MOMM*%
%LPD*%
G01*
G04 APERTURE LIST*
G04 Aperture macros list*
%AMRoundRect*
0 Rectangle with rounded corners*
0 $1 Rounding radius*
0 $2 $3 $4 $5 $6 $7 $8 $9 X,Y pos of 4 corners*
0 Add a 4 corners polygon primitive as box body*
4,1,4,$2,$3,$4,$5,$6,$7,$8,$9,$2,$3,0*
0 Add four circle primitives for the rounded corners*
1,1,$1+$1,$2,$3*
1,1,$1+$1,$4,$5*
1,1,$1+$1,$6,$7*
1,1,$1+$1,$8,$9*
0 Add four rect primitives between the rounded corners*
20,1,$1+$1,$2,$3,$4,$5,0*
20,1,$1+$1,$4,$5,$6,$7,0*
20,1,$1+$1,$6,$7,$8,$9,0*
20,1,$1+$1,$8,$9,$2,$3,0*%
G04 Aperture macros list end*
%ADD10C,0.150000*%
%ADD11C,0.120000*%
%ADD12C,3.200000*%
%ADD13RoundRect,0.250000X0.450000X-0.262500X0.450000X0.262500X-0.450000X0.262500X-0.450000X-0.262500X0*%
%ADD14R,1.700000X1.700000*%
%ADD15O,1.700000X1.700000*%
%ADD16R,1.500000X0.550000*%
%ADD17R,0.550000X1.500000*%
%ADD18RoundRect,0.150000X0.150000X-0.825000X0.150000X0.825000X-0.150000X0.825000X-0.150000X-0.825000X0*%
%ADD19RoundRect,0.250000X-0.250000X-0.475000X0.250000X-0.475000X0.250000X0.475000X-0.250000X0.475000X0*%
%ADD20R,0.300000X1.300000*%
%ADD21R,1.800000X2.200000*%
%ADD22RoundRect,0.250000X-0.262500X-0.450000X0.262500X-0.450000X0.262500X0.450000X-0.262500X0.450000X0*%
%ADD23RoundRect,0.250000X0.262500X0.450000X-0.262500X0.450000X-0.262500X-0.450000X0.262500X-0.450000X0*%
%ADD24RoundRect,0.250000X0.475000X-0.250000X0.475000X0.250000X-0.475000X0.250000X-0.475000X-0.250000X0*%
%ADD25RoundRect,0.150000X-0.825000X-0.150000X0.825000X-0.150000X0.825000X0.150000X-0.825000X0.150000X0*%
%ADD26RoundRect,0.250000X0.250000X0.475000X-0.250000X0.475000X-0.250000X-0.475000X0.250000X-0.475000X0*%
%ADD27RoundRect,0.375000X0.625000X0.375000X-0.625000X0.375000X-0.625000X-0.375000X0.625000X-0.375000X0*%
%ADD28RoundRect,0.500000X0.500000X1.400000X-0.500000X1.400000X-0.500000X-1.400000X0.500000X-1.400000X0*%
%ADD29RoundRect,0.150000X-0.150000X0.825000X-0.150000X-0.825000X0.150000X-0.825000X0.150000X0.825000X0*%
%ADD30C,1.500000*%
%ADD31RoundRect,0.250000X-0.475000X0.250000X-0.475000X-0.250000X0.475000X-0.250000X0.475000X0.250000X0*%
G04 APERTURE END LIST*
D10*
X240586779Y-122869819D02*
X240586779Y-121869819D01*
X241634397Y-122774580D02*
X241586778Y-122822200D01*
X241586778Y-122822200D02*
X241443921Y-122869819D01*
X241443921Y-122869819D02*
X241348683Y-122869819D01*
X241348683Y-122869819D02*
X241205826Y-122822200D01*
X241205826Y-122822200D02*
X241110588Y-122726961D01*
X241110588Y-122726961D02*
X241062969Y-122631723D01*
X241062969Y-122631723D02*
X241015350Y-122441247D01*
X241015350Y-122441247D02*
X241015350Y-122298390D01*
X241015350Y-122298390D02*
X241062969Y-122107914D01*
X241062969Y-122107914D02*
X241110588Y-122012676D01*
X241110588Y-122012676D02*
X241205826Y-121917438D01*
X241205826Y-121917438D02*
X241348683Y-121869819D01*
X241348683Y-121869819D02*
X241443921Y-121869819D01*
X241443921Y-121869819D02*
X241586778Y-121917438D01*
X241586778Y-121917438D02*
X241634397Y-121965057D01*
X242015350Y-122822200D02*
X242158207Y-122869819D01*
X242158207Y-122869819D02*
X242396302Y-122869819D01*
X242396302Y-122869819D02*
X242491540Y-122822200D01*
X242491540Y-122822200D02*
X242539159Y-122774580D01*
X242539159Y-122774580D02*
X242586778Y-122679342D01*
X242586778Y-122679342D02*
X242586778Y-122584104D01*
X242586778Y-122584104D02*
X242539159Y-122488866D01*
X242539159Y-122488866D02*
X242491540Y-122441247D01*
X242491540Y-122441247D02*
X242396302Y-122393628D01*
X242396302Y-122393628D02*
X242205826Y-122346009D01*
X242205826Y-122346009D02*
X242110588Y-122298390D01*
X242110588Y-122298390D02*
X242062969Y-122250771D01*
X242062969Y-122250771D02*
X242015350Y-122155533D01*
X242015350Y-122155533D02*
X242015350Y-122060295D01*
X242015350Y-122060295D02*
X242062969Y-121965057D01*
X242062969Y-121965057D02*
X242110588Y-121917438D01*
X242110588Y-121917438D02*
X242205826Y-121869819D01*
X242205826Y-121869819D02*
X242443921Y-121869819D01*
X242443921Y-121869819D02*
X242586778Y-121917438D01*
X243015350Y-122869819D02*
X243015350Y-121869819D01*
X243015350Y-121869819D02*
X243396302Y-121869819D01*
X243396302Y-121869819D02*
X243491540Y-121917438D01*
X243491540Y-121917438D02*
X243539159Y-121965057D01*
X243539159Y-121965057D02*
X243586778Y-122060295D01*
X243586778Y-122060295D02*
X243586778Y-122203152D01*
X243586778Y-122203152D02*
X243539159Y-122298390D01*
X243539159Y-122298390D02*
X243491540Y-122346009D01*
X243491540Y-122346009D02*
X243396302Y-122393628D01*
X243396302Y-122393628D02*
X243015350Y-122393628D01*
X210086779Y-123369819D02*
X210086779Y-122369819D01*
X210515350Y-122131723D02*
X210610588Y-122084104D01*
X210610588Y-122084104D02*
X210753445Y-122084104D01*
X210753445Y-122084104D02*
X210848683Y-122131723D01*
X210848683Y-122131723D02*
X210896302Y-122226961D01*
X210896302Y-122226961D02*
X210896302Y-122322200D01*
X210896302Y-122322200D02*
X210848683Y-122417438D01*
X210848683Y-122417438D02*
X210515350Y-122750771D01*
X210515350Y-122750771D02*
X210896302Y-122750771D01*
X211896302Y-123274580D02*
X211848683Y-123322200D01*
X211848683Y-123322200D02*
X211705826Y-123369819D01*
X211705826Y-123369819D02*
X211610588Y-123369819D01*
X211610588Y-123369819D02*
X211467731Y-123322200D01*
X211467731Y-123322200D02*
X211372493Y-123226961D01*
X211372493Y-123226961D02*
X211324874Y-123131723D01*
X211324874Y-123131723D02*
X211277255Y-122941247D01*
X211277255Y-122941247D02*
X211277255Y-122798390D01*
X211277255Y-122798390D02*
X211324874Y-122607914D01*
X211324874Y-122607914D02*
X211372493Y-122512676D01*
X211372493Y-122512676D02*
X211467731Y-122417438D01*
X211467731Y-122417438D02*
X211610588Y-122369819D01*
X211610588Y-122369819D02*
X211705826Y-122369819D01*
X211705826Y-122369819D02*
X211848683Y-122417438D01*
X211848683Y-122417438D02*
X211896302Y-122465057D01*
X169836779Y-125846009D02*
X170170112Y-125846009D01*
X170312969Y-126369819D02*
X169836779Y-126369819D01*
X169836779Y-126369819D02*
X169836779Y-125369819D01*
X169836779Y-125369819D02*
X170312969Y-125369819D01*
X170741541Y-125846009D02*
X171074874Y-125846009D01*
X171217731Y-126369819D02*
X170741541Y-126369819D01*
X170741541Y-126369819D02*
X170741541Y-125369819D01*
X170741541Y-125369819D02*
X171217731Y-125369819D01*
X171646303Y-126369819D02*
X171646303Y-125369819D01*
X171646303Y-125369819D02*
X172027255Y-125369819D01*
X172027255Y-125369819D02*
X172122493Y-125417438D01*
X172122493Y-125417438D02*
X172170112Y-125465057D01*
X172170112Y-125465057D02*
X172217731Y-125560295D01*
X172217731Y-125560295D02*
X172217731Y-125703152D01*
X172217731Y-125703152D02*
X172170112Y-125798390D01*
X172170112Y-125798390D02*
X172122493Y-125846009D01*
X172122493Y-125846009D02*
X172027255Y-125893628D01*
X172027255Y-125893628D02*
X171646303Y-125893628D01*
X173217731Y-126369819D02*
X172884398Y-125893628D01*
X172646303Y-126369819D02*
X172646303Y-125369819D01*
X172646303Y-125369819D02*
X173027255Y-125369819D01*
X173027255Y-125369819D02*
X173122493Y-125417438D01*
X173122493Y-125417438D02*
X173170112Y-125465057D01*
X173170112Y-125465057D02*
X173217731Y-125560295D01*
X173217731Y-125560295D02*
X173217731Y-125703152D01*
X173217731Y-125703152D02*
X173170112Y-125798390D01*
X173170112Y-125798390D02*
X173122493Y-125846009D01*
X173122493Y-125846009D02*
X173027255Y-125893628D01*
X173027255Y-125893628D02*
X172646303Y-125893628D01*
X173836779Y-125369819D02*
X174027255Y-125369819D01*
X174027255Y-125369819D02*
X174122493Y-125417438D01*
X174122493Y-125417438D02*
X174217731Y-125512676D01*
X174217731Y-125512676D02*
X174265350Y-125703152D01*
X174265350Y-125703152D02*
X174265350Y-126036485D01*
X174265350Y-126036485D02*
X174217731Y-126226961D01*
X174217731Y-126226961D02*
X174122493Y-126322200D01*
X174122493Y-126322200D02*
X174027255Y-126369819D01*
X174027255Y-126369819D02*
X173836779Y-126369819D01*
X173836779Y-126369819D02*
X173741541Y-126322200D01*
X173741541Y-126322200D02*
X173646303Y-126226961D01*
X173646303Y-126226961D02*
X173598684Y-126036485D01*
X173598684Y-126036485D02*
X173598684Y-125703152D01*
X173598684Y-125703152D02*
X173646303Y-125512676D01*
X173646303Y-125512676D02*
X173741541Y-125417438D01*
X173741541Y-125417438D02*
X173836779Y-125369819D01*
X174693922Y-126369819D02*
X174693922Y-125369819D01*
X174693922Y-125369819D02*
X175027255Y-126084104D01*
X175027255Y-126084104D02*
X175360588Y-125369819D01*
X175360588Y-125369819D02*
X175360588Y-126369819D01*
X258860588Y-121619819D02*
X258289160Y-121619819D01*
X258574874Y-121619819D02*
X258574874Y-120619819D01*
X258574874Y-120619819D02*
X258479636Y-120762676D01*
X258479636Y-120762676D02*
X258384398Y-120857914D01*
X258384398Y-120857914D02*
X258289160Y-120905533D01*
X202860588Y-121369819D02*
X202289160Y-121369819D01*
X202574874Y-121369819D02*
X202574874Y-120369819D01*
X202574874Y-120369819D02*
X202479636Y-120512676D01*
X202479636Y-120512676D02*
X202384398Y-120607914D01*
X202384398Y-120607914D02*
X202289160Y-120655533D01*
X171360588Y-121369819D02*
X170789160Y-121369819D01*
X171074874Y-121369819D02*
X171074874Y-120369819D01*
X171074874Y-120369819D02*
X170979636Y-120512676D01*
X170979636Y-120512676D02*
X170884398Y-120607914D01*
X170884398Y-120607914D02*
X170789160Y-120655533D01*
X153110588Y-121369819D02*
X152539160Y-121369819D01*
X152824874Y-121369819D02*
X152824874Y-120369819D01*
X152824874Y-120369819D02*
X152729636Y-120512676D01*
X152729636Y-120512676D02*
X152634398Y-120607914D01*
X152634398Y-120607914D02*
X152539160Y-120655533D01*
X153491541Y-120465057D02*
X153539160Y-120417438D01*
X153539160Y-120417438D02*
X153634398Y-120369819D01*
X153634398Y-120369819D02*
X153872493Y-120369819D01*
X153872493Y-120369819D02*
X153967731Y-120417438D01*
X153967731Y-120417438D02*
X154015350Y-120465057D01*
X154015350Y-120465057D02*
X154062969Y-120560295D01*
X154062969Y-120560295D02*
X154062969Y-120655533D01*
X154062969Y-120655533D02*
X154015350Y-120798390D01*
X154015350Y-120798390D02*
X153443922Y-121369819D01*
X153443922Y-121369819D02*
X154062969Y-121369819D01*
X154348684Y-120369819D02*
X154682017Y-121369819D01*
X154682017Y-121369819D02*
X155015350Y-120369819D01*
X149360588Y-120417438D02*
X149265350Y-120369819D01*
X149265350Y-120369819D02*
X149122493Y-120369819D01*
X149122493Y-120369819D02*
X148979636Y-120417438D01*
X148979636Y-120417438D02*
X148884398Y-120512676D01*
X148884398Y-120512676D02*
X148836779Y-120607914D01*
X148836779Y-120607914D02*
X148789160Y-120798390D01*
X148789160Y-120798390D02*
X148789160Y-120941247D01*
X148789160Y-120941247D02*
X148836779Y-121131723D01*
X148836779Y-121131723D02*
X148884398Y-121226961D01*
X148884398Y-121226961D02*
X148979636Y-121322200D01*
X148979636Y-121322200D02*
X149122493Y-121369819D01*
X149122493Y-121369819D02*
X149217731Y-121369819D01*
X149217731Y-121369819D02*
X149360588Y-121322200D01*
X149360588Y-121322200D02*
X149408207Y-121274580D01*
X149408207Y-121274580D02*
X149408207Y-120941247D01*
X149408207Y-120941247D02*
X149217731Y-120941247D01*
X149836779Y-121369819D02*
X149836779Y-120369819D01*
X149836779Y-120369819D02*
X150408207Y-121369819D01*
X150408207Y-121369819D02*
X150408207Y-120369819D01*
X150884398Y-121369819D02*
X150884398Y-120369819D01*
X150884398Y-120369819D02*
X151122493Y-120369819D01*
X151122493Y-120369819D02*
X151265350Y-120417438D01*
X151265350Y-120417438D02*
X151360588Y-120512676D01*
X151360588Y-120512676D02*
X151408207Y-120607914D01*
X151408207Y-120607914D02*
X151455826Y-120798390D01*
X151455826Y-120798390D02*
X151455826Y-120941247D01*
X151455826Y-120941247D02*
X151408207Y-121131723D01*
X151408207Y-121131723D02*
X151360588Y-121226961D01*
X151360588Y-121226961D02*
X151265350Y-121322200D01*
X151265350Y-121322200D02*
X151122493Y-121369819D01*
X151122493Y-121369819D02*
X150884398Y-121369819D01*
X98908207Y-123054692D02*
X98860588Y-123102312D01*
X98860588Y-123102312D02*
X98717731Y-123149931D01*
X98717731Y-123149931D02*
X98622493Y-123149931D01*
X98622493Y-123149931D02*
X98479636Y-123102312D01*
X98479636Y-123102312D02*
X98384398Y-123007073D01*
X98384398Y-123007073D02*
X98336779Y-122911835D01*
X98336779Y-122911835D02*
X98289160Y-122721359D01*
X98289160Y-122721359D02*
X98289160Y-122578502D01*
X98289160Y-122578502D02*
X98336779Y-122388026D01*
X98336779Y-122388026D02*
X98384398Y-122292788D01*
X98384398Y-122292788D02*
X98479636Y-122197550D01*
X98479636Y-122197550D02*
X98622493Y-122149931D01*
X98622493Y-122149931D02*
X98717731Y-122149931D01*
X98717731Y-122149931D02*
X98860588Y-122197550D01*
X98860588Y-122197550D02*
X98908207Y-122245169D01*
X99479636Y-123149931D02*
X99384398Y-123102312D01*
X99384398Y-123102312D02*
X99336779Y-123054692D01*
X99336779Y-123054692D02*
X99289160Y-122959454D01*
X99289160Y-122959454D02*
X99289160Y-122673740D01*
X99289160Y-122673740D02*
X99336779Y-122578502D01*
X99336779Y-122578502D02*
X99384398Y-122530883D01*
X99384398Y-122530883D02*
X99479636Y-122483264D01*
X99479636Y-122483264D02*
X99622493Y-122483264D01*
X99622493Y-122483264D02*
X99717731Y-122530883D01*
X99717731Y-122530883D02*
X99765350Y-122578502D01*
X99765350Y-122578502D02*
X99812969Y-122673740D01*
X99812969Y-122673740D02*
X99812969Y-122959454D01*
X99812969Y-122959454D02*
X99765350Y-123054692D01*
X99765350Y-123054692D02*
X99717731Y-123102312D01*
X99717731Y-123102312D02*
X99622493Y-123149931D01*
X99622493Y-123149931D02*
X99479636Y-123149931D01*
X100241541Y-122483264D02*
X100241541Y-123149931D01*
X100241541Y-122578502D02*
X100289160Y-122530883D01*
X100289160Y-122530883D02*
X100384398Y-122483264D01*
X100384398Y-122483264D02*
X100527255Y-122483264D01*
X100527255Y-122483264D02*
X100622493Y-122530883D01*
X100622493Y-122530883D02*
X100670112Y-122626121D01*
X100670112Y-122626121D02*
X100670112Y-123149931D01*
X101098684Y-123102312D02*
X101193922Y-123149931D01*
X101193922Y-123149931D02*
X101384398Y-123149931D01*
X101384398Y-123149931D02*
X101479636Y-123102312D01*
X101479636Y-123102312D02*
X101527255Y-123007073D01*
X101527255Y-123007073D02*
X101527255Y-122959454D01*
X101527255Y-122959454D02*
X101479636Y-122864216D01*
X101479636Y-122864216D02*
X101384398Y-122816597D01*
X101384398Y-122816597D02*
X101241541Y-122816597D01*
X101241541Y-122816597D02*
X101146303Y-122768978D01*
X101146303Y-122768978D02*
X101098684Y-122673740D01*
X101098684Y-122673740D02*
X101098684Y-122626121D01*
X101098684Y-122626121D02*
X101146303Y-122530883D01*
X101146303Y-122530883D02*
X101241541Y-122483264D01*
X101241541Y-122483264D02*
X101384398Y-122483264D01*
X101384398Y-122483264D02*
X101479636Y-122530883D01*
X102098684Y-123149931D02*
X102003446Y-123102312D01*
X102003446Y-123102312D02*
X101955827Y-123054692D01*
X101955827Y-123054692D02*
X101908208Y-122959454D01*
X101908208Y-122959454D02*
X101908208Y-122673740D01*
X101908208Y-122673740D02*
X101955827Y-122578502D01*
X101955827Y-122578502D02*
X102003446Y-122530883D01*
X102003446Y-122530883D02*
X102098684Y-122483264D01*
X102098684Y-122483264D02*
X102241541Y-122483264D01*
X102241541Y-122483264D02*
X102336779Y-122530883D01*
X102336779Y-122530883D02*
X102384398Y-122578502D01*
X102384398Y-122578502D02*
X102432017Y-122673740D01*
X102432017Y-122673740D02*
X102432017Y-122959454D01*
X102432017Y-122959454D02*
X102384398Y-123054692D01*
X102384398Y-123054692D02*
X102336779Y-123102312D01*
X102336779Y-123102312D02*
X102241541Y-123149931D01*
X102241541Y-123149931D02*
X102098684Y-123149931D01*
X103003446Y-123149931D02*
X102908208Y-123102312D01*
X102908208Y-123102312D02*
X102860589Y-123007073D01*
X102860589Y-123007073D02*
X102860589Y-122149931D01*
X103765351Y-123102312D02*
X103670113Y-123149931D01*
X103670113Y-123149931D02*
X103479637Y-123149931D01*
X103479637Y-123149931D02*
X103384399Y-123102312D01*
X103384399Y-123102312D02*
X103336780Y-123007073D01*
X103336780Y-123007073D02*
X103336780Y-122626121D01*
X103336780Y-122626121D02*
X103384399Y-122530883D01*
X103384399Y-122530883D02*
X103479637Y-122483264D01*
X103479637Y-122483264D02*
X103670113Y-122483264D01*
X103670113Y-122483264D02*
X103765351Y-122530883D01*
X103765351Y-122530883D02*
X103812970Y-122626121D01*
X103812970Y-122626121D02*
X103812970Y-122721359D01*
X103812970Y-122721359D02*
X103336780Y-122816597D01*
X104908209Y-122483264D02*
X105146304Y-123149931D01*
X105146304Y-123149931D02*
X105384399Y-122483264D01*
X105717733Y-122245169D02*
X105765352Y-122197550D01*
X105765352Y-122197550D02*
X105860590Y-122149931D01*
X105860590Y-122149931D02*
X106098685Y-122149931D01*
X106098685Y-122149931D02*
X106193923Y-122197550D01*
X106193923Y-122197550D02*
X106241542Y-122245169D01*
X106241542Y-122245169D02*
X106289161Y-122340407D01*
X106289161Y-122340407D02*
X106289161Y-122435645D01*
X106289161Y-122435645D02*
X106241542Y-122578502D01*
X106241542Y-122578502D02*
X105670114Y-123149931D01*
X105670114Y-123149931D02*
X106289161Y-123149931D01*
X106717733Y-123054692D02*
X106765352Y-123102312D01*
X106765352Y-123102312D02*
X106717733Y-123149931D01*
X106717733Y-123149931D02*
X106670114Y-123102312D01*
X106670114Y-123102312D02*
X106717733Y-123054692D01*
X106717733Y-123054692D02*
X106717733Y-123149931D01*
X107384399Y-122149931D02*
X107479637Y-122149931D01*
X107479637Y-122149931D02*
X107574875Y-122197550D01*
X107574875Y-122197550D02*
X107622494Y-122245169D01*
X107622494Y-122245169D02*
X107670113Y-122340407D01*
X107670113Y-122340407D02*
X107717732Y-122530883D01*
X107717732Y-122530883D02*
X107717732Y-122768978D01*
X107717732Y-122768978D02*
X107670113Y-122959454D01*
X107670113Y-122959454D02*
X107622494Y-123054692D01*
X107622494Y-123054692D02*
X107574875Y-123102312D01*
X107574875Y-123102312D02*
X107479637Y-123149931D01*
X107479637Y-123149931D02*
X107384399Y-123149931D01*
X107384399Y-123149931D02*
X107289161Y-123102312D01*
X107289161Y-123102312D02*
X107241542Y-123054692D01*
X107241542Y-123054692D02*
X107193923Y-122959454D01*
X107193923Y-122959454D02*
X107146304Y-122768978D01*
X107146304Y-122768978D02*
X107146304Y-122530883D01*
X107146304Y-122530883D02*
X107193923Y-122340407D01*
X107193923Y-122340407D02*
X107241542Y-122245169D01*
X107241542Y-122245169D02*
X107289161Y-122197550D01*
X107289161Y-122197550D02*
X107384399Y-122149931D01*
X98336779Y-124759875D02*
X98336779Y-123759875D01*
X98336779Y-123759875D02*
X98574874Y-123759875D01*
X98574874Y-123759875D02*
X98717731Y-123807494D01*
X98717731Y-123807494D02*
X98812969Y-123902732D01*
X98812969Y-123902732D02*
X98860588Y-123997970D01*
X98860588Y-123997970D02*
X98908207Y-124188446D01*
X98908207Y-124188446D02*
X98908207Y-124331303D01*
X98908207Y-124331303D02*
X98860588Y-124521779D01*
X98860588Y-124521779D02*
X98812969Y-124617017D01*
X98812969Y-124617017D02*
X98717731Y-124712256D01*
X98717731Y-124712256D02*
X98574874Y-124759875D01*
X98574874Y-124759875D02*
X98336779Y-124759875D01*
X99336779Y-124759875D02*
X99336779Y-124093208D01*
X99336779Y-123759875D02*
X99289160Y-123807494D01*
X99289160Y-123807494D02*
X99336779Y-123855113D01*
X99336779Y-123855113D02*
X99384398Y-123807494D01*
X99384398Y-123807494D02*
X99336779Y-123759875D01*
X99336779Y-123759875D02*
X99336779Y-123855113D01*
X99765350Y-124712256D02*
X99860588Y-124759875D01*
X99860588Y-124759875D02*
X100051064Y-124759875D01*
X100051064Y-124759875D02*
X100146302Y-124712256D01*
X100146302Y-124712256D02*
X100193921Y-124617017D01*
X100193921Y-124617017D02*
X100193921Y-124569398D01*
X100193921Y-124569398D02*
X100146302Y-124474160D01*
X100146302Y-124474160D02*
X100051064Y-124426541D01*
X100051064Y-124426541D02*
X99908207Y-124426541D01*
X99908207Y-124426541D02*
X99812969Y-124378922D01*
X99812969Y-124378922D02*
X99765350Y-124283684D01*
X99765350Y-124283684D02*
X99765350Y-124236065D01*
X99765350Y-124236065D02*
X99812969Y-124140827D01*
X99812969Y-124140827D02*
X99908207Y-124093208D01*
X99908207Y-124093208D02*
X100051064Y-124093208D01*
X100051064Y-124093208D02*
X100146302Y-124140827D01*
X100622493Y-124093208D02*
X100622493Y-125093208D01*
X100622493Y-124140827D02*
X100717731Y-124093208D01*
X100717731Y-124093208D02*
X100908207Y-124093208D01*
X100908207Y-124093208D02*
X101003445Y-124140827D01*
X101003445Y-124140827D02*
X101051064Y-124188446D01*
X101051064Y-124188446D02*
X101098683Y-124283684D01*
X101098683Y-124283684D02*
X101098683Y-124569398D01*
X101098683Y-124569398D02*
X101051064Y-124664636D01*
X101051064Y-124664636D02*
X101003445Y-124712256D01*
X101003445Y-124712256D02*
X100908207Y-124759875D01*
X100908207Y-124759875D02*
X100717731Y-124759875D01*
X100717731Y-124759875D02*
X100622493Y-124712256D01*
X101670112Y-124759875D02*
X101574874Y-124712256D01*
X101574874Y-124712256D02*
X101527255Y-124617017D01*
X101527255Y-124617017D02*
X101527255Y-123759875D01*
X102479636Y-124759875D02*
X102479636Y-124236065D01*
X102479636Y-124236065D02*
X102432017Y-124140827D01*
X102432017Y-124140827D02*
X102336779Y-124093208D01*
X102336779Y-124093208D02*
X102146303Y-124093208D01*
X102146303Y-124093208D02*
X102051065Y-124140827D01*
X102479636Y-124712256D02*
X102384398Y-124759875D01*
X102384398Y-124759875D02*
X102146303Y-124759875D01*
X102146303Y-124759875D02*
X102051065Y-124712256D01*
X102051065Y-124712256D02*
X102003446Y-124617017D01*
X102003446Y-124617017D02*
X102003446Y-124521779D01*
X102003446Y-124521779D02*
X102051065Y-124426541D01*
X102051065Y-124426541D02*
X102146303Y-124378922D01*
X102146303Y-124378922D02*
X102384398Y-124378922D01*
X102384398Y-124378922D02*
X102479636Y-124331303D01*
X102860589Y-124093208D02*
X103098684Y-124759875D01*
X103336779Y-124093208D02*
X103098684Y-124759875D01*
X103098684Y-124759875D02*
X103003446Y-124997970D01*
X103003446Y-124997970D02*
X102955827Y-125045589D01*
X102955827Y-125045589D02*
X102860589Y-125093208D01*
X103670113Y-124712256D02*
X103765351Y-124759875D01*
X103765351Y-124759875D02*
X103955827Y-124759875D01*
X103955827Y-124759875D02*
X104051065Y-124712256D01*
X104051065Y-124712256D02*
X104098684Y-124617017D01*
X104098684Y-124617017D02*
X104098684Y-124569398D01*
X104098684Y-124569398D02*
X104051065Y-124474160D01*
X104051065Y-124474160D02*
X103955827Y-124426541D01*
X103955827Y-124426541D02*
X103812970Y-124426541D01*
X103812970Y-124426541D02*
X103717732Y-124378922D01*
X103717732Y-124378922D02*
X103670113Y-124283684D01*
X103670113Y-124283684D02*
X103670113Y-124236065D01*
X103670113Y-124236065D02*
X103717732Y-124140827D01*
X103717732Y-124140827D02*
X103812970Y-124093208D01*
X103812970Y-124093208D02*
X103955827Y-124093208D01*
X103955827Y-124093208D02*
X104051065Y-124140827D01*
X105193923Y-124093208D02*
X105432018Y-124759875D01*
X105432018Y-124759875D02*
X105670113Y-124093208D01*
X106574875Y-124759875D02*
X106003447Y-124759875D01*
X106289161Y-124759875D02*
X106289161Y-123759875D01*
X106289161Y-123759875D02*
X106193923Y-123902732D01*
X106193923Y-123902732D02*
X106098685Y-123997970D01*
X106098685Y-123997970D02*
X106003447Y-124045589D01*
X107003447Y-124664636D02*
X107051066Y-124712256D01*
X107051066Y-124712256D02*
X107003447Y-124759875D01*
X107003447Y-124759875D02*
X106955828Y-124712256D01*
X106955828Y-124712256D02*
X107003447Y-124664636D01*
X107003447Y-124664636D02*
X107003447Y-124759875D01*
X107670113Y-123759875D02*
X107765351Y-123759875D01*
X107765351Y-123759875D02*
X107860589Y-123807494D01*
X107860589Y-123807494D02*
X107908208Y-123855113D01*
X107908208Y-123855113D02*
X107955827Y-123950351D01*
X107955827Y-123950351D02*
X108003446Y-124140827D01*
X108003446Y-124140827D02*
X108003446Y-124378922D01*
X108003446Y-124378922D02*
X107955827Y-124569398D01*
X107955827Y-124569398D02*
X107908208Y-124664636D01*
X107908208Y-124664636D02*
X107860589Y-124712256D01*
X107860589Y-124712256D02*
X107765351Y-124759875D01*
X107765351Y-124759875D02*
X107670113Y-124759875D01*
X107670113Y-124759875D02*
X107574875Y-124712256D01*
X107574875Y-124712256D02*
X107527256Y-124664636D01*
X107527256Y-124664636D02*
X107479637Y-124569398D01*
X107479637Y-124569398D02*
X107432018Y-124378922D01*
X107432018Y-124378922D02*
X107432018Y-124140827D01*
X107432018Y-124140827D02*
X107479637Y-123950351D01*
X107479637Y-123950351D02*
X107527256Y-123855113D01*
X107527256Y-123855113D02*
X107574875Y-123807494D01*
X107574875Y-123807494D02*
X107670113Y-123759875D01*
X98908207Y-126274580D02*
X98860588Y-126322200D01*
X98860588Y-126322200D02*
X98717731Y-126369819D01*
X98717731Y-126369819D02*
X98622493Y-126369819D01*
X98622493Y-126369819D02*
X98479636Y-126322200D01*
X98479636Y-126322200D02*
X98384398Y-126226961D01*
X98384398Y-126226961D02*
X98336779Y-126131723D01*
X98336779Y-126131723D02*
X98289160Y-125941247D01*
X98289160Y-125941247D02*
X98289160Y-125798390D01*
X98289160Y-125798390D02*
X98336779Y-125607914D01*
X98336779Y-125607914D02*
X98384398Y-125512676D01*
X98384398Y-125512676D02*
X98479636Y-125417438D01*
X98479636Y-125417438D02*
X98622493Y-125369819D01*
X98622493Y-125369819D02*
X98717731Y-125369819D01*
X98717731Y-125369819D02*
X98860588Y-125417438D01*
X98860588Y-125417438D02*
X98908207Y-125465057D01*
X99336779Y-126274580D02*
X99384398Y-126322200D01*
X99384398Y-126322200D02*
X99336779Y-126369819D01*
X99336779Y-126369819D02*
X99289160Y-126322200D01*
X99289160Y-126322200D02*
X99336779Y-126274580D01*
X99336779Y-126274580D02*
X99336779Y-126369819D01*
X101098683Y-125417438D02*
X101003445Y-125369819D01*
X101003445Y-125369819D02*
X100860588Y-125369819D01*
X100860588Y-125369819D02*
X100717731Y-125417438D01*
X100717731Y-125417438D02*
X100622493Y-125512676D01*
X100622493Y-125512676D02*
X100574874Y-125607914D01*
X100574874Y-125607914D02*
X100527255Y-125798390D01*
X100527255Y-125798390D02*
X100527255Y-125941247D01*
X100527255Y-125941247D02*
X100574874Y-126131723D01*
X100574874Y-126131723D02*
X100622493Y-126226961D01*
X100622493Y-126226961D02*
X100717731Y-126322200D01*
X100717731Y-126322200D02*
X100860588Y-126369819D01*
X100860588Y-126369819D02*
X100955826Y-126369819D01*
X100955826Y-126369819D02*
X101098683Y-126322200D01*
X101098683Y-126322200D02*
X101146302Y-126274580D01*
X101146302Y-126274580D02*
X101146302Y-125941247D01*
X101146302Y-125941247D02*
X100955826Y-125941247D01*
X102003445Y-125703152D02*
X102003445Y-126369819D01*
X101574874Y-125703152D02*
X101574874Y-126226961D01*
X101574874Y-126226961D02*
X101622493Y-126322200D01*
X101622493Y-126322200D02*
X101717731Y-126369819D01*
X101717731Y-126369819D02*
X101860588Y-126369819D01*
X101860588Y-126369819D02*
X101955826Y-126322200D01*
X101955826Y-126322200D02*
X102003445Y-126274580D01*
X101622493Y-125369819D02*
X101670112Y-125417438D01*
X101670112Y-125417438D02*
X101622493Y-125465057D01*
X101622493Y-125465057D02*
X101574874Y-125417438D01*
X101574874Y-125417438D02*
X101622493Y-125369819D01*
X101622493Y-125369819D02*
X101622493Y-125465057D01*
X102003445Y-125369819D02*
X102051064Y-125417438D01*
X102051064Y-125417438D02*
X102003445Y-125465057D01*
X102003445Y-125465057D02*
X101955826Y-125417438D01*
X101955826Y-125417438D02*
X102003445Y-125369819D01*
X102003445Y-125369819D02*
X102003445Y-125465057D01*
X102432017Y-126322200D02*
X102527255Y-126369819D01*
X102527255Y-126369819D02*
X102717731Y-126369819D01*
X102717731Y-126369819D02*
X102812969Y-126322200D01*
X102812969Y-126322200D02*
X102860588Y-126226961D01*
X102860588Y-126226961D02*
X102860588Y-126179342D01*
X102860588Y-126179342D02*
X102812969Y-126084104D01*
X102812969Y-126084104D02*
X102717731Y-126036485D01*
X102717731Y-126036485D02*
X102574874Y-126036485D01*
X102574874Y-126036485D02*
X102479636Y-125988866D01*
X102479636Y-125988866D02*
X102432017Y-125893628D01*
X102432017Y-125893628D02*
X102432017Y-125846009D01*
X102432017Y-125846009D02*
X102479636Y-125750771D01*
X102479636Y-125750771D02*
X102574874Y-125703152D01*
X102574874Y-125703152D02*
X102717731Y-125703152D01*
X102717731Y-125703152D02*
X102812969Y-125750771D01*
X103670112Y-126322200D02*
X103574874Y-126369819D01*
X103574874Y-126369819D02*
X103384398Y-126369819D01*
X103384398Y-126369819D02*
X103289160Y-126322200D01*
X103289160Y-126322200D02*
X103241541Y-126226961D01*
X103241541Y-126226961D02*
X103241541Y-125846009D01*
X103241541Y-125846009D02*
X103289160Y-125750771D01*
X103289160Y-125750771D02*
X103384398Y-125703152D01*
X103384398Y-125703152D02*
X103574874Y-125703152D01*
X103574874Y-125703152D02*
X103670112Y-125750771D01*
X103670112Y-125750771D02*
X103717731Y-125846009D01*
X103717731Y-125846009D02*
X103717731Y-125941247D01*
X103717731Y-125941247D02*
X103241541Y-126036485D01*
X65804819Y-123416666D02*
X65328628Y-123749999D01*
X65804819Y-123988094D02*
X64804819Y-123988094D01*
X64804819Y-123988094D02*
X64804819Y-123607142D01*
X64804819Y-123607142D02*
X64852438Y-123511904D01*
X64852438Y-123511904D02*
X64900057Y-123464285D01*
X64900057Y-123464285D02*
X64995295Y-123416666D01*
X64995295Y-123416666D02*
X65138152Y-123416666D01*
X65138152Y-123416666D02*
X65233390Y-123464285D01*
X65233390Y-123464285D02*
X65281009Y-123511904D01*
X65281009Y-123511904D02*
X65328628Y-123607142D01*
X65328628Y-123607142D02*
X65328628Y-123988094D01*
X65804819Y-122464285D02*
X65804819Y-123035713D01*
X65804819Y-122749999D02*
X64804819Y-122749999D01*
X64804819Y-122749999D02*
X64947676Y-122845237D01*
X64947676Y-122845237D02*
X65042914Y-122940475D01*
X65042914Y-122940475D02*
X65090533Y-123035713D01*
X147454819Y-124833333D02*
X148169104Y-124833333D01*
X148169104Y-124833333D02*
X148311961Y-124880952D01*
X148311961Y-124880952D02*
X148407200Y-124976190D01*
X148407200Y-124976190D02*
X148454819Y-125119047D01*
X148454819Y-125119047D02*
X148454819Y-125214285D01*
X148454819Y-123833333D02*
X148454819Y-124404761D01*
X148454819Y-124119047D02*
X147454819Y-124119047D01*
X147454819Y-124119047D02*
X147597676Y-124214285D01*
X147597676Y-124214285D02*
X147692914Y-124309523D01*
X147692914Y-124309523D02*
X147740533Y-124404761D01*
X214738095Y-124004819D02*
X214738095Y-124814342D01*
X214738095Y-124814342D02*
X214785714Y-124909580D01*
X214785714Y-124909580D02*
X214833333Y-124957200D01*
X214833333Y-124957200D02*
X214928571Y-125004819D01*
X214928571Y-125004819D02*
X215119047Y-125004819D01*
X215119047Y-125004819D02*
X215214285Y-124957200D01*
X215214285Y-124957200D02*
X215261904Y-124909580D01*
X215261904Y-124909580D02*
X215309523Y-124814342D01*
X215309523Y-124814342D02*
X215309523Y-124004819D01*
X216309523Y-125004819D02*
X215738095Y-125004819D01*
X216023809Y-125004819D02*
X216023809Y-124004819D01*
X216023809Y-124004819D02*
X215928571Y-124147676D01*
X215928571Y-124147676D02*
X215833333Y-124242914D01*
X215833333Y-124242914D02*
X215738095Y-124290533D01*
X164554819Y-134738094D02*
X165364342Y-134738094D01*
X165364342Y-134738094D02*
X165459580Y-134690475D01*
X165459580Y-134690475D02*
X165507200Y-134642856D01*
X165507200Y-134642856D02*
X165554819Y-134547618D01*
X165554819Y-134547618D02*
X165554819Y-134357142D01*
X165554819Y-134357142D02*
X165507200Y-134261904D01*
X165507200Y-134261904D02*
X165459580Y-134214285D01*
X165459580Y-134214285D02*
X165364342Y-134166666D01*
X165364342Y-134166666D02*
X164554819Y-134166666D01*
X165554819Y-133166666D02*
X165554819Y-133738094D01*
X165554819Y-133452380D02*
X164554819Y-133452380D01*
X164554819Y-133452380D02*
X164697676Y-133547618D01*
X164697676Y-133547618D02*
X164792914Y-133642856D01*
X164792914Y-133642856D02*
X164840533Y-133738094D01*
X164554819Y-132833332D02*
X164554819Y-132214285D01*
X164554819Y-132214285D02*
X164935771Y-132547618D01*
X164935771Y-132547618D02*
X164935771Y-132404761D01*
X164935771Y-132404761D02*
X164983390Y-132309523D01*
X164983390Y-132309523D02*
X165031009Y-132261904D01*
X165031009Y-132261904D02*
X165126247Y-132214285D01*
X165126247Y-132214285D02*
X165364342Y-132214285D01*
X165364342Y-132214285D02*
X165459580Y-132261904D01*
X165459580Y-132261904D02*
X165507200Y-132309523D01*
X165507200Y-132309523D02*
X165554819Y-132404761D01*
X165554819Y-132404761D02*
X165554819Y-132690475D01*
X165554819Y-132690475D02*
X165507200Y-132785713D01*
X165507200Y-132785713D02*
X165459580Y-132833332D01*
X202333333Y-134609580D02*
X202285714Y-134657200D01*
X202285714Y-134657200D02*
X202142857Y-134704819D01*
X202142857Y-134704819D02*
X202047619Y-134704819D01*
X202047619Y-134704819D02*
X201904762Y-134657200D01*
X201904762Y-134657200D02*
X201809524Y-134561961D01*
X201809524Y-134561961D02*
X201761905Y-134466723D01*
X201761905Y-134466723D02*
X201714286Y-134276247D01*
X201714286Y-134276247D02*
X201714286Y-134133390D01*
X201714286Y-134133390D02*
X201761905Y-133942914D01*
X201761905Y-133942914D02*
X201809524Y-133847676D01*
X201809524Y-133847676D02*
X201904762Y-133752438D01*
X201904762Y-133752438D02*
X202047619Y-133704819D01*
X202047619Y-133704819D02*
X202142857Y-133704819D01*
X202142857Y-133704819D02*
X202285714Y-133752438D01*
X202285714Y-133752438D02*
X202333333Y-133800057D01*
X202666667Y-133704819D02*
X203285714Y-133704819D01*
X203285714Y-133704819D02*
X202952381Y-134085771D01*
X202952381Y-134085771D02*
X203095238Y-134085771D01*
X203095238Y-134085771D02*
X203190476Y-134133390D01*
X203190476Y-134133390D02*
X203238095Y-134181009D01*
X203238095Y-134181009D02*
X203285714Y-134276247D01*
X203285714Y-134276247D02*
X203285714Y-134514342D01*
X203285714Y-134514342D02*
X203238095Y-134609580D01*
X203238095Y-134609580D02*
X203190476Y-134657200D01*
X203190476Y-134657200D02*
X203095238Y-134704819D01*
X203095238Y-134704819D02*
X202809524Y-134704819D01*
X202809524Y-134704819D02*
X202714286Y-134657200D01*
X202714286Y-134657200D02*
X202666667Y-134609580D01*
X181704819Y-129829166D02*
X181228628Y-130162499D01*
X181704819Y-130400594D02*
X180704819Y-130400594D01*
X180704819Y-130400594D02*
X180704819Y-130019642D01*
X180704819Y-130019642D02*
X180752438Y-129924404D01*
X180752438Y-129924404D02*
X180800057Y-129876785D01*
X180800057Y-129876785D02*
X180895295Y-129829166D01*
X180895295Y-129829166D02*
X181038152Y-129829166D01*
X181038152Y-129829166D02*
X181133390Y-129876785D01*
X181133390Y-129876785D02*
X181181009Y-129924404D01*
X181181009Y-129924404D02*
X181228628Y-130019642D01*
X181228628Y-130019642D02*
X181228628Y-130400594D01*
X180704819Y-128972023D02*
X180704819Y-129162499D01*
X180704819Y-129162499D02*
X180752438Y-129257737D01*
X180752438Y-129257737D02*
X180800057Y-129305356D01*
X180800057Y-129305356D02*
X180942914Y-129400594D01*
X180942914Y-129400594D02*
X181133390Y-129448213D01*
X181133390Y-129448213D02*
X181514342Y-129448213D01*
X181514342Y-129448213D02*
X181609580Y-129400594D01*
X181609580Y-129400594D02*
X181657200Y-129352975D01*
X181657200Y-129352975D02*
X181704819Y-129257737D01*
X181704819Y-129257737D02*
X181704819Y-129067261D01*
X181704819Y-129067261D02*
X181657200Y-128972023D01*
X181657200Y-128972023D02*
X181609580Y-128924404D01*
X181609580Y-128924404D02*
X181514342Y-128876785D01*
X181514342Y-128876785D02*
X181276247Y-128876785D01*
X181276247Y-128876785D02*
X181181009Y-128924404D01*
X181181009Y-128924404D02*
X181133390Y-128972023D01*
X181133390Y-128972023D02*
X181085771Y-129067261D01*
X181085771Y-129067261D02*
X181085771Y-129257737D01*
X181085771Y-129257737D02*
X181133390Y-129352975D01*
X181133390Y-129352975D02*
X181181009Y-129400594D01*
X181181009Y-129400594D02*
X181276247Y-129448213D01*
X65054819Y-130488094D02*
X65864342Y-130488094D01*
X65864342Y-130488094D02*
X65959580Y-130440475D01*
X65959580Y-130440475D02*
X66007200Y-130392856D01*
X66007200Y-130392856D02*
X66054819Y-130297618D01*
X66054819Y-130297618D02*
X66054819Y-130107142D01*
X66054819Y-130107142D02*
X66007200Y-130011904D01*
X66007200Y-130011904D02*
X65959580Y-129964285D01*
X65959580Y-129964285D02*
X65864342Y-129916666D01*
X65864342Y-129916666D02*
X65054819Y-129916666D01*
X66054819Y-128916666D02*
X66054819Y-129488094D01*
X66054819Y-129202380D02*
X65054819Y-129202380D01*
X65054819Y-129202380D02*
X65197676Y-129297618D01*
X65197676Y-129297618D02*
X65292914Y-129392856D01*
X65292914Y-129392856D02*
X65340533Y-129488094D01*
X65150057Y-128535713D02*
X65102438Y-128488094D01*
X65102438Y-128488094D02*
X65054819Y-128392856D01*
X65054819Y-128392856D02*
X65054819Y-128154761D01*
X65054819Y-128154761D02*
X65102438Y-128059523D01*
X65102438Y-128059523D02*
X65150057Y-128011904D01*
X65150057Y-128011904D02*
X65245295Y-127964285D01*
X65245295Y-127964285D02*
X65340533Y-127964285D01*
X65340533Y-127964285D02*
X65483390Y-128011904D01*
X65483390Y-128011904D02*
X66054819Y-128583332D01*
X66054819Y-128583332D02*
X66054819Y-127964285D01*
X177333333Y-127954819D02*
X177000000Y-127478628D01*
X176761905Y-127954819D02*
X176761905Y-126954819D01*
X176761905Y-126954819D02*
X177142857Y-126954819D01*
X177142857Y-126954819D02*
X177238095Y-127002438D01*
X177238095Y-127002438D02*
X177285714Y-127050057D01*
X177285714Y-127050057D02*
X177333333Y-127145295D01*
X177333333Y-127145295D02*
X177333333Y-127288152D01*
X177333333Y-127288152D02*
X177285714Y-127383390D01*
X177285714Y-127383390D02*
X177238095Y-127431009D01*
X177238095Y-127431009D02*
X177142857Y-127478628D01*
X177142857Y-127478628D02*
X176761905Y-127478628D01*
X178238095Y-126954819D02*
X177761905Y-126954819D01*
X177761905Y-126954819D02*
X177714286Y-127431009D01*
X177714286Y-127431009D02*
X177761905Y-127383390D01*
X177761905Y-127383390D02*
X177857143Y-127335771D01*
X177857143Y-127335771D02*
X178095238Y-127335771D01*
X178095238Y-127335771D02*
X178190476Y-127383390D01*
X178190476Y-127383390D02*
X178238095Y-127431009D01*
X178238095Y-127431009D02*
X178285714Y-127526247D01*
X178285714Y-127526247D02*
X178285714Y-127764342D01*
X178285714Y-127764342D02*
X178238095Y-127859580D01*
X178238095Y-127859580D02*
X178190476Y-127907200D01*
X178190476Y-127907200D02*
X178095238Y-127954819D01*
X178095238Y-127954819D02*
X177857143Y-127954819D01*
X177857143Y-127954819D02*
X177761905Y-127907200D01*
X177761905Y-127907200D02*
X177714286Y-127859580D01*
X237357142Y-125679580D02*
X237309523Y-125727200D01*
X237309523Y-125727200D02*
X237166666Y-125774819D01*
X237166666Y-125774819D02*
X237071428Y-125774819D01*
X237071428Y-125774819D02*
X236928571Y-125727200D01*
X236928571Y-125727200D02*
X236833333Y-125631961D01*
X236833333Y-125631961D02*
X236785714Y-125536723D01*
X236785714Y-125536723D02*
X236738095Y-125346247D01*
X236738095Y-125346247D02*
X236738095Y-125203390D01*
X236738095Y-125203390D02*
X236785714Y-125012914D01*
X236785714Y-125012914D02*
X236833333Y-124917676D01*
X236833333Y-124917676D02*
X236928571Y-124822438D01*
X236928571Y-124822438D02*
X237071428Y-124774819D01*
X237071428Y-124774819D02*
X237166666Y-124774819D01*
X237166666Y-124774819D02*
X237309523Y-124822438D01*
X237309523Y-124822438D02*
X237357142Y-124870057D01*
X238309523Y-125774819D02*
X237738095Y-125774819D01*
X238023809Y-125774819D02*
X238023809Y-124774819D01*
X238023809Y-124774819D02*
X237928571Y-124917676D01*
X237928571Y-124917676D02*
X237833333Y-125012914D01*
X237833333Y-125012914D02*
X237738095Y-125060533D01*
X238928571Y-124774819D02*
X239023809Y-124774819D01*
X239023809Y-124774819D02*
X239119047Y-124822438D01*
X239119047Y-124822438D02*
X239166666Y-124870057D01*
X239166666Y-124870057D02*
X239214285Y-124965295D01*
X239214285Y-124965295D02*
X239261904Y-125155771D01*
X239261904Y-125155771D02*
X239261904Y-125393866D01*
X239261904Y-125393866D02*
X239214285Y-125584342D01*
X239214285Y-125584342D02*
X239166666Y-125679580D01*
X239166666Y-125679580D02*
X239119047Y-125727200D01*
X239119047Y-125727200D02*
X239023809Y-125774819D01*
X239023809Y-125774819D02*
X238928571Y-125774819D01*
X238928571Y-125774819D02*
X238833333Y-125727200D01*
X238833333Y-125727200D02*
X238785714Y-125679580D01*
X238785714Y-125679580D02*
X238738095Y-125584342D01*
X238738095Y-125584342D02*
X238690476Y-125393866D01*
X238690476Y-125393866D02*
X238690476Y-125155771D01*
X238690476Y-125155771D02*
X238738095Y-124965295D01*
X238738095Y-124965295D02*
X238785714Y-124870057D01*
X238785714Y-124870057D02*
X238833333Y-124822438D01*
X238833333Y-124822438D02*
X238928571Y-124774819D01*
X205833333Y-128454819D02*
X205500000Y-127978628D01*
X205261905Y-128454819D02*
X205261905Y-127454819D01*
X205261905Y-127454819D02*
X205642857Y-127454819D01*
X205642857Y-127454819D02*
X205738095Y-127502438D01*
X205738095Y-127502438D02*
X205785714Y-127550057D01*
X205785714Y-127550057D02*
X205833333Y-127645295D01*
X205833333Y-127645295D02*
X205833333Y-127788152D01*
X205833333Y-127788152D02*
X205785714Y-127883390D01*
X205785714Y-127883390D02*
X205738095Y-127931009D01*
X205738095Y-127931009D02*
X205642857Y-127978628D01*
X205642857Y-127978628D02*
X205261905Y-127978628D01*
X206309524Y-128454819D02*
X206500000Y-128454819D01*
X206500000Y-128454819D02*
X206595238Y-128407200D01*
X206595238Y-128407200D02*
X206642857Y-128359580D01*
X206642857Y-128359580D02*
X206738095Y-128216723D01*
X206738095Y-128216723D02*
X206785714Y-128026247D01*
X206785714Y-128026247D02*
X206785714Y-127645295D01*
X206785714Y-127645295D02*
X206738095Y-127550057D01*
X206738095Y-127550057D02*
X206690476Y-127502438D01*
X206690476Y-127502438D02*
X206595238Y-127454819D01*
X206595238Y-127454819D02*
X206404762Y-127454819D01*
X206404762Y-127454819D02*
X206309524Y-127502438D01*
X206309524Y-127502438D02*
X206261905Y-127550057D01*
X206261905Y-127550057D02*
X206214286Y-127645295D01*
X206214286Y-127645295D02*
X206214286Y-127883390D01*
X206214286Y-127883390D02*
X206261905Y-127978628D01*
X206261905Y-127978628D02*
X206309524Y-128026247D01*
X206309524Y-128026247D02*
X206404762Y-128073866D01*
X206404762Y-128073866D02*
X206595238Y-128073866D01*
X206595238Y-128073866D02*
X206690476Y-128026247D01*
X206690476Y-128026247D02*
X206738095Y-127978628D01*
X206738095Y-127978628D02*
X206785714Y-127883390D01*
X190245833Y-126454819D02*
X189912500Y-125978628D01*
X189674405Y-126454819D02*
X189674405Y-125454819D01*
X189674405Y-125454819D02*
X190055357Y-125454819D01*
X190055357Y-125454819D02*
X190150595Y-125502438D01*
X190150595Y-125502438D02*
X190198214Y-125550057D01*
X190198214Y-125550057D02*
X190245833Y-125645295D01*
X190245833Y-125645295D02*
X190245833Y-125788152D01*
X190245833Y-125788152D02*
X190198214Y-125883390D01*
X190198214Y-125883390D02*
X190150595Y-125931009D01*
X190150595Y-125931009D02*
X190055357Y-125978628D01*
X190055357Y-125978628D02*
X189674405Y-125978628D01*
X191102976Y-125788152D02*
X191102976Y-126454819D01*
X190864881Y-125407200D02*
X190626786Y-126121485D01*
X190626786Y-126121485D02*
X191245833Y-126121485D01*
X252623333Y-126704819D02*
X252290000Y-126228628D01*
X252051905Y-126704819D02*
X252051905Y-125704819D01*
X252051905Y-125704819D02*
X252432857Y-125704819D01*
X252432857Y-125704819D02*
X252528095Y-125752438D01*
X252528095Y-125752438D02*
X252575714Y-125800057D01*
X252575714Y-125800057D02*
X252623333Y-125895295D01*
X252623333Y-125895295D02*
X252623333Y-126038152D01*
X252623333Y-126038152D02*
X252575714Y-126133390D01*
X252575714Y-126133390D02*
X252528095Y-126181009D01*
X252528095Y-126181009D02*
X252432857Y-126228628D01*
X252432857Y-126228628D02*
X252051905Y-126228628D01*
X253194762Y-126133390D02*
X253099524Y-126085771D01*
X253099524Y-126085771D02*
X253051905Y-126038152D01*
X253051905Y-126038152D02*
X253004286Y-125942914D01*
X253004286Y-125942914D02*
X253004286Y-125895295D01*
X253004286Y-125895295D02*
X253051905Y-125800057D01*
X253051905Y-125800057D02*
X253099524Y-125752438D01*
X253099524Y-125752438D02*
X253194762Y-125704819D01*
X253194762Y-125704819D02*
X253385238Y-125704819D01*
X253385238Y-125704819D02*
X253480476Y-125752438D01*
X253480476Y-125752438D02*
X253528095Y-125800057D01*
X253528095Y-125800057D02*
X253575714Y-125895295D01*
X253575714Y-125895295D02*
X253575714Y-125942914D01*
X253575714Y-125942914D02*
X253528095Y-126038152D01*
X253528095Y-126038152D02*
X253480476Y-126085771D01*
X253480476Y-126085771D02*
X253385238Y-126133390D01*
X253385238Y-126133390D02*
X253194762Y-126133390D01*
X253194762Y-126133390D02*
X253099524Y-126181009D01*
X253099524Y-126181009D02*
X253051905Y-126228628D01*
X253051905Y-126228628D02*
X253004286Y-126323866D01*
X253004286Y-126323866D02*
X253004286Y-126514342D01*
X253004286Y-126514342D02*
X253051905Y-126609580D01*
X253051905Y-126609580D02*
X253099524Y-126657200D01*
X253099524Y-126657200D02*
X253194762Y-126704819D01*
X253194762Y-126704819D02*
X253385238Y-126704819D01*
X253385238Y-126704819D02*
X253480476Y-126657200D01*
X253480476Y-126657200D02*
X253528095Y-126609580D01*
X253528095Y-126609580D02*
X253575714Y-126514342D01*
X253575714Y-126514342D02*
X253575714Y-126323866D01*
X253575714Y-126323866D02*
X253528095Y-126228628D01*
X253528095Y-126228628D02*
X253480476Y-126181009D01*
X253480476Y-126181009D02*
X253385238Y-126133390D01*
X211859580Y-136892857D02*
X211907200Y-136940476D01*
X211907200Y-136940476D02*
X211954819Y-137083333D01*
X211954819Y-137083333D02*
X211954819Y-137178571D01*
X211954819Y-137178571D02*
X211907200Y-137321428D01*
X211907200Y-137321428D02*
X211811961Y-137416666D01*
X211811961Y-137416666D02*
X211716723Y-137464285D01*
X211716723Y-137464285D02*
X211526247Y-137511904D01*
X211526247Y-137511904D02*
X211383390Y-137511904D01*
X211383390Y-137511904D02*
X211192914Y-137464285D01*
X211192914Y-137464285D02*
X211097676Y-137416666D01*
X211097676Y-137416666D02*
X211002438Y-137321428D01*
X211002438Y-137321428D02*
X210954819Y-137178571D01*
X210954819Y-137178571D02*
X210954819Y-137083333D01*
X210954819Y-137083333D02*
X211002438Y-136940476D01*
X211002438Y-136940476D02*
X211050057Y-136892857D01*
X211954819Y-135940476D02*
X211954819Y-136511904D01*
X211954819Y-136226190D02*
X210954819Y-136226190D01*
X210954819Y-136226190D02*
X211097676Y-136321428D01*
X211097676Y-136321428D02*
X211192914Y-136416666D01*
X211192914Y-136416666D02*
X211240533Y-136511904D01*
X211954819Y-134988095D02*
X211954819Y-135559523D01*
X211954819Y-135273809D02*
X210954819Y-135273809D01*
X210954819Y-135273809D02*
X211097676Y-135369047D01*
X211097676Y-135369047D02*
X211192914Y-135464285D01*
X211192914Y-135464285D02*
X211240533Y-135559523D01*
X219333333Y-122679580D02*
X219285714Y-122727200D01*
X219285714Y-122727200D02*
X219142857Y-122774819D01*
X219142857Y-122774819D02*
X219047619Y-122774819D01*
X219047619Y-122774819D02*
X218904762Y-122727200D01*
X218904762Y-122727200D02*
X218809524Y-122631961D01*
X218809524Y-122631961D02*
X218761905Y-122536723D01*
X218761905Y-122536723D02*
X218714286Y-122346247D01*
X218714286Y-122346247D02*
X218714286Y-122203390D01*
X218714286Y-122203390D02*
X218761905Y-122012914D01*
X218761905Y-122012914D02*
X218809524Y-121917676D01*
X218809524Y-121917676D02*
X218904762Y-121822438D01*
X218904762Y-121822438D02*
X219047619Y-121774819D01*
X219047619Y-121774819D02*
X219142857Y-121774819D01*
X219142857Y-121774819D02*
X219285714Y-121822438D01*
X219285714Y-121822438D02*
X219333333Y-121870057D01*
X220190476Y-122108152D02*
X220190476Y-122774819D01*
X219952381Y-121727200D02*
X219714286Y-122441485D01*
X219714286Y-122441485D02*
X220333333Y-122441485D01*
X257261905Y-129704819D02*
X257261905Y-130514342D01*
X257261905Y-130514342D02*
X257309524Y-130609580D01*
X257309524Y-130609580D02*
X257357143Y-130657200D01*
X257357143Y-130657200D02*
X257452381Y-130704819D01*
X257452381Y-130704819D02*
X257642857Y-130704819D01*
X257642857Y-130704819D02*
X257738095Y-130657200D01*
X257738095Y-130657200D02*
X257785714Y-130609580D01*
X257785714Y-130609580D02*
X257833333Y-130514342D01*
X257833333Y-130514342D02*
X257833333Y-129704819D01*
X258833333Y-130704819D02*
X258261905Y-130704819D01*
X258547619Y-130704819D02*
X258547619Y-129704819D01*
X258547619Y-129704819D02*
X258452381Y-129847676D01*
X258452381Y-129847676D02*
X258357143Y-129942914D01*
X258357143Y-129942914D02*
X258261905Y-129990533D01*
X259690476Y-130038152D02*
X259690476Y-130704819D01*
X259452381Y-129657200D02*
X259214286Y-130371485D01*
X259214286Y-130371485D02*
X259833333Y-130371485D01*
X263454819Y-125916666D02*
X262978628Y-126249999D01*
X263454819Y-126488094D02*
X262454819Y-126488094D01*
X262454819Y-126488094D02*
X262454819Y-126107142D01*
X262454819Y-126107142D02*
X262502438Y-126011904D01*
X262502438Y-126011904D02*
X262550057Y-125964285D01*
X262550057Y-125964285D02*
X262645295Y-125916666D01*
X262645295Y-125916666D02*
X262788152Y-125916666D01*
X262788152Y-125916666D02*
X262883390Y-125964285D01*
X262883390Y-125964285D02*
X262931009Y-126011904D01*
X262931009Y-126011904D02*
X262978628Y-126107142D01*
X262978628Y-126107142D02*
X262978628Y-126488094D01*
X262454819Y-125583332D02*
X262454819Y-124964285D01*
X262454819Y-124964285D02*
X262835771Y-125297618D01*
X262835771Y-125297618D02*
X262835771Y-125154761D01*
X262835771Y-125154761D02*
X262883390Y-125059523D01*
X262883390Y-125059523D02*
X262931009Y-125011904D01*
X262931009Y-125011904D02*
X263026247Y-124964285D01*
X263026247Y-124964285D02*
X263264342Y-124964285D01*
X263264342Y-124964285D02*
X263359580Y-125011904D01*
X263359580Y-125011904D02*
X263407200Y-125059523D01*
X263407200Y-125059523D02*
X263454819Y-125154761D01*
X263454819Y-125154761D02*
X263454819Y-125440475D01*
X263454819Y-125440475D02*
X263407200Y-125535713D01*
X263407200Y-125535713D02*
X263359580Y-125583332D01*
X260114819Y-123583333D02*
X260829104Y-123583333D01*
X260829104Y-123583333D02*
X260971961Y-123630952D01*
X260971961Y-123630952D02*
X261067200Y-123726190D01*
X261067200Y-123726190D02*
X261114819Y-123869047D01*
X261114819Y-123869047D02*
X261114819Y-123964285D01*
X260210057Y-123154761D02*
X260162438Y-123107142D01*
X260162438Y-123107142D02*
X260114819Y-123011904D01*
X260114819Y-123011904D02*
X260114819Y-122773809D01*
X260114819Y-122773809D02*
X260162438Y-122678571D01*
X260162438Y-122678571D02*
X260210057Y-122630952D01*
X260210057Y-122630952D02*
X260305295Y-122583333D01*
X260305295Y-122583333D02*
X260400533Y-122583333D01*
X260400533Y-122583333D02*
X260543390Y-122630952D01*
X260543390Y-122630952D02*
X261114819Y-123202380D01*
X261114819Y-123202380D02*
X261114819Y-122583333D01*
X148833333Y-126859580D02*
X148785714Y-126907200D01*
X148785714Y-126907200D02*
X148642857Y-126954819D01*
X148642857Y-126954819D02*
X148547619Y-126954819D01*
X148547619Y-126954819D02*
X148404762Y-126907200D01*
X148404762Y-126907200D02*
X148309524Y-126811961D01*
X148309524Y-126811961D02*
X148261905Y-126716723D01*
X148261905Y-126716723D02*
X148214286Y-126526247D01*
X148214286Y-126526247D02*
X148214286Y-126383390D01*
X148214286Y-126383390D02*
X148261905Y-126192914D01*
X148261905Y-126192914D02*
X148309524Y-126097676D01*
X148309524Y-126097676D02*
X148404762Y-126002438D01*
X148404762Y-126002438D02*
X148547619Y-125954819D01*
X148547619Y-125954819D02*
X148642857Y-125954819D01*
X148642857Y-125954819D02*
X148785714Y-126002438D01*
X148785714Y-126002438D02*
X148833333Y-126050057D01*
X149785714Y-126954819D02*
X149214286Y-126954819D01*
X149500000Y-126954819D02*
X149500000Y-125954819D01*
X149500000Y-125954819D02*
X149404762Y-126097676D01*
X149404762Y-126097676D02*
X149309524Y-126192914D01*
X149309524Y-126192914D02*
X149214286Y-126240533D01*
X216833333Y-140359580D02*
X216785714Y-140407200D01*
X216785714Y-140407200D02*
X216642857Y-140454819D01*
X216642857Y-140454819D02*
X216547619Y-140454819D01*
X216547619Y-140454819D02*
X216404762Y-140407200D01*
X216404762Y-140407200D02*
X216309524Y-140311961D01*
X216309524Y-140311961D02*
X216261905Y-140216723D01*
X216261905Y-140216723D02*
X216214286Y-140026247D01*
X216214286Y-140026247D02*
X216214286Y-139883390D01*
X216214286Y-139883390D02*
X216261905Y-139692914D01*
X216261905Y-139692914D02*
X216309524Y-139597676D01*
X216309524Y-139597676D02*
X216404762Y-139502438D01*
X216404762Y-139502438D02*
X216547619Y-139454819D01*
X216547619Y-139454819D02*
X216642857Y-139454819D01*
X216642857Y-139454819D02*
X216785714Y-139502438D01*
X216785714Y-139502438D02*
X216833333Y-139550057D01*
X217738095Y-139454819D02*
X217261905Y-139454819D01*
X217261905Y-139454819D02*
X217214286Y-139931009D01*
X217214286Y-139931009D02*
X217261905Y-139883390D01*
X217261905Y-139883390D02*
X217357143Y-139835771D01*
X217357143Y-139835771D02*
X217595238Y-139835771D01*
X217595238Y-139835771D02*
X217690476Y-139883390D01*
X217690476Y-139883390D02*
X217738095Y-139931009D01*
X217738095Y-139931009D02*
X217785714Y-140026247D01*
X217785714Y-140026247D02*
X217785714Y-140264342D01*
X217785714Y-140264342D02*
X217738095Y-140359580D01*
X217738095Y-140359580D02*
X217690476Y-140407200D01*
X217690476Y-140407200D02*
X217595238Y-140454819D01*
X217595238Y-140454819D02*
X217357143Y-140454819D01*
X217357143Y-140454819D02*
X217261905Y-140407200D01*
X217261905Y-140407200D02*
X217214286Y-140359580D01*
X153261905Y-127454819D02*
X153261905Y-128264342D01*
X153261905Y-128264342D02*
X153309524Y-128359580D01*
X153309524Y-128359580D02*
X153357143Y-128407200D01*
X153357143Y-128407200D02*
X153452381Y-128454819D01*
X153452381Y-128454819D02*
X153642857Y-128454819D01*
X153642857Y-128454819D02*
X153738095Y-128407200D01*
X153738095Y-128407200D02*
X153785714Y-128359580D01*
X153785714Y-128359580D02*
X153833333Y-128264342D01*
X153833333Y-128264342D02*
X153833333Y-127454819D01*
X154833333Y-128454819D02*
X154261905Y-128454819D01*
X154547619Y-128454819D02*
X154547619Y-127454819D01*
X154547619Y-127454819D02*
X154452381Y-127597676D01*
X154452381Y-127597676D02*
X154357143Y-127692914D01*
X154357143Y-127692914D02*
X154261905Y-127740533D01*
X155690476Y-127454819D02*
X155500000Y-127454819D01*
X155500000Y-127454819D02*
X155404762Y-127502438D01*
X155404762Y-127502438D02*
X155357143Y-127550057D01*
X155357143Y-127550057D02*
X155261905Y-127692914D01*
X155261905Y-127692914D02*
X155214286Y-127883390D01*
X155214286Y-127883390D02*
X155214286Y-128264342D01*
X155214286Y-128264342D02*
X155261905Y-128359580D01*
X155261905Y-128359580D02*
X155309524Y-128407200D01*
X155309524Y-128407200D02*
X155404762Y-128454819D01*
X155404762Y-128454819D02*
X155595238Y-128454819D01*
X155595238Y-128454819D02*
X155690476Y-128407200D01*
X155690476Y-128407200D02*
X155738095Y-128359580D01*
X155738095Y-128359580D02*
X155785714Y-128264342D01*
X155785714Y-128264342D02*
X155785714Y-128026247D01*
X155785714Y-128026247D02*
X155738095Y-127931009D01*
X155738095Y-127931009D02*
X155690476Y-127883390D01*
X155690476Y-127883390D02*
X155595238Y-127835771D01*
X155595238Y-127835771D02*
X155404762Y-127835771D01*
X155404762Y-127835771D02*
X155309524Y-127883390D01*
X155309524Y-127883390D02*
X155261905Y-127931009D01*
X155261905Y-127931009D02*
X155214286Y-128026247D01*
X252623333Y-128609580D02*
X252575714Y-128657200D01*
X252575714Y-128657200D02*
X252432857Y-128704819D01*
X252432857Y-128704819D02*
X252337619Y-128704819D01*
X252337619Y-128704819D02*
X252194762Y-128657200D01*
X252194762Y-128657200D02*
X252099524Y-128561961D01*
X252099524Y-128561961D02*
X252051905Y-128466723D01*
X252051905Y-128466723D02*
X252004286Y-128276247D01*
X252004286Y-128276247D02*
X252004286Y-128133390D01*
X252004286Y-128133390D02*
X252051905Y-127942914D01*
X252051905Y-127942914D02*
X252099524Y-127847676D01*
X252099524Y-127847676D02*
X252194762Y-127752438D01*
X252194762Y-127752438D02*
X252337619Y-127704819D01*
X252337619Y-127704819D02*
X252432857Y-127704819D01*
X252432857Y-127704819D02*
X252575714Y-127752438D01*
X252575714Y-127752438D02*
X252623333Y-127800057D01*
X253480476Y-127704819D02*
X253290000Y-127704819D01*
X253290000Y-127704819D02*
X253194762Y-127752438D01*
X253194762Y-127752438D02*
X253147143Y-127800057D01*
X253147143Y-127800057D02*
X253051905Y-127942914D01*
X253051905Y-127942914D02*
X253004286Y-128133390D01*
X253004286Y-128133390D02*
X253004286Y-128514342D01*
X253004286Y-128514342D02*
X253051905Y-128609580D01*
X253051905Y-128609580D02*
X253099524Y-128657200D01*
X253099524Y-128657200D02*
X253194762Y-128704819D01*
X253194762Y-128704819D02*
X253385238Y-128704819D01*
X253385238Y-128704819D02*
X253480476Y-128657200D01*
X253480476Y-128657200D02*
X253528095Y-128609580D01*
X253528095Y-128609580D02*
X253575714Y-128514342D01*
X253575714Y-128514342D02*
X253575714Y-128276247D01*
X253575714Y-128276247D02*
X253528095Y-128181009D01*
X253528095Y-128181009D02*
X253480476Y-128133390D01*
X253480476Y-128133390D02*
X253385238Y-128085771D01*
X253385238Y-128085771D02*
X253194762Y-128085771D01*
X253194762Y-128085771D02*
X253099524Y-128133390D01*
X253099524Y-128133390D02*
X253051905Y-128181009D01*
X253051905Y-128181009D02*
X253004286Y-128276247D01*
X237833333Y-129679580D02*
X237785714Y-129727200D01*
X237785714Y-129727200D02*
X237642857Y-129774819D01*
X237642857Y-129774819D02*
X237547619Y-129774819D01*
X237547619Y-129774819D02*
X237404762Y-129727200D01*
X237404762Y-129727200D02*
X237309524Y-129631961D01*
X237309524Y-129631961D02*
X237261905Y-129536723D01*
X237261905Y-129536723D02*
X237214286Y-129346247D01*
X237214286Y-129346247D02*
X237214286Y-129203390D01*
X237214286Y-129203390D02*
X237261905Y-129012914D01*
X237261905Y-129012914D02*
X237309524Y-128917676D01*
X237309524Y-128917676D02*
X237404762Y-128822438D01*
X237404762Y-128822438D02*
X237547619Y-128774819D01*
X237547619Y-128774819D02*
X237642857Y-128774819D01*
X237642857Y-128774819D02*
X237785714Y-128822438D01*
X237785714Y-128822438D02*
X237833333Y-128870057D01*
X238309524Y-129774819D02*
X238500000Y-129774819D01*
X238500000Y-129774819D02*
X238595238Y-129727200D01*
X238595238Y-129727200D02*
X238642857Y-129679580D01*
X238642857Y-129679580D02*
X238738095Y-129536723D01*
X238738095Y-129536723D02*
X238785714Y-129346247D01*
X238785714Y-129346247D02*
X238785714Y-128965295D01*
X238785714Y-128965295D02*
X238738095Y-128870057D01*
X238738095Y-128870057D02*
X238690476Y-128822438D01*
X238690476Y-128822438D02*
X238595238Y-128774819D01*
X238595238Y-128774819D02*
X238404762Y-128774819D01*
X238404762Y-128774819D02*
X238309524Y-128822438D01*
X238309524Y-128822438D02*
X238261905Y-128870057D01*
X238261905Y-128870057D02*
X238214286Y-128965295D01*
X238214286Y-128965295D02*
X238214286Y-129203390D01*
X238214286Y-129203390D02*
X238261905Y-129298628D01*
X238261905Y-129298628D02*
X238309524Y-129346247D01*
X238309524Y-129346247D02*
X238404762Y-129393866D01*
X238404762Y-129393866D02*
X238595238Y-129393866D01*
X238595238Y-129393866D02*
X238690476Y-129346247D01*
X238690476Y-129346247D02*
X238738095Y-129298628D01*
X238738095Y-129298628D02*
X238785714Y-129203390D01*
X227333333Y-122679580D02*
X227285714Y-122727200D01*
X227285714Y-122727200D02*
X227142857Y-122774819D01*
X227142857Y-122774819D02*
X227047619Y-122774819D01*
X227047619Y-122774819D02*
X226904762Y-122727200D01*
X226904762Y-122727200D02*
X226809524Y-122631961D01*
X226809524Y-122631961D02*
X226761905Y-122536723D01*
X226761905Y-122536723D02*
X226714286Y-122346247D01*
X226714286Y-122346247D02*
X226714286Y-122203390D01*
X226714286Y-122203390D02*
X226761905Y-122012914D01*
X226761905Y-122012914D02*
X226809524Y-121917676D01*
X226809524Y-121917676D02*
X226904762Y-121822438D01*
X226904762Y-121822438D02*
X227047619Y-121774819D01*
X227047619Y-121774819D02*
X227142857Y-121774819D01*
X227142857Y-121774819D02*
X227285714Y-121822438D01*
X227285714Y-121822438D02*
X227333333Y-121870057D01*
X227904762Y-122203390D02*
X227809524Y-122155771D01*
X227809524Y-122155771D02*
X227761905Y-122108152D01*
X227761905Y-122108152D02*
X227714286Y-122012914D01*
X227714286Y-122012914D02*
X227714286Y-121965295D01*
X227714286Y-121965295D02*
X227761905Y-121870057D01*
X227761905Y-121870057D02*
X227809524Y-121822438D01*
X227809524Y-121822438D02*
X227904762Y-121774819D01*
X227904762Y-121774819D02*
X228095238Y-121774819D01*
X228095238Y-121774819D02*
X228190476Y-121822438D01*
X228190476Y-121822438D02*
X228238095Y-121870057D01*
X228238095Y-121870057D02*
X228285714Y-121965295D01*
X228285714Y-121965295D02*
X228285714Y-122012914D01*
X228285714Y-122012914D02*
X228238095Y-122108152D01*
X228238095Y-122108152D02*
X228190476Y-122155771D01*
X228190476Y-122155771D02*
X228095238Y-122203390D01*
X228095238Y-122203390D02*
X227904762Y-122203390D01*
X227904762Y-122203390D02*
X227809524Y-122251009D01*
X227809524Y-122251009D02*
X227761905Y-122298628D01*
X227761905Y-122298628D02*
X227714286Y-122393866D01*
X227714286Y-122393866D02*
X227714286Y-122584342D01*
X227714286Y-122584342D02*
X227761905Y-122679580D01*
X227761905Y-122679580D02*
X227809524Y-122727200D01*
X227809524Y-122727200D02*
X227904762Y-122774819D01*
X227904762Y-122774819D02*
X228095238Y-122774819D01*
X228095238Y-122774819D02*
X228190476Y-122727200D01*
X228190476Y-122727200D02*
X228238095Y-122679580D01*
X228238095Y-122679580D02*
X228285714Y-122584342D01*
X228285714Y-122584342D02*
X228285714Y-122393866D01*
X228285714Y-122393866D02*
X228238095Y-122298628D01*
X228238095Y-122298628D02*
X228190476Y-122251009D01*
X228190476Y-122251009D02*
X228095238Y-122203390D01*
X189454819Y-136488094D02*
X190264342Y-136488094D01*
X190264342Y-136488094D02*
X190359580Y-136440475D01*
X190359580Y-136440475D02*
X190407200Y-136392856D01*
X190407200Y-136392856D02*
X190454819Y-136297618D01*
X190454819Y-136297618D02*
X190454819Y-136107142D01*
X190454819Y-136107142D02*
X190407200Y-136011904D01*
X190407200Y-136011904D02*
X190359580Y-135964285D01*
X190359580Y-135964285D02*
X190264342Y-135916666D01*
X190264342Y-135916666D02*
X189454819Y-135916666D01*
X190454819Y-134916666D02*
X190454819Y-135488094D01*
X190454819Y-135202380D02*
X189454819Y-135202380D01*
X189454819Y-135202380D02*
X189597676Y-135297618D01*
X189597676Y-135297618D02*
X189692914Y-135392856D01*
X189692914Y-135392856D02*
X189740533Y-135488094D01*
X189454819Y-134011904D02*
X189454819Y-134488094D01*
X189454819Y-134488094D02*
X189931009Y-134535713D01*
X189931009Y-134535713D02*
X189883390Y-134488094D01*
X189883390Y-134488094D02*
X189835771Y-134392856D01*
X189835771Y-134392856D02*
X189835771Y-134154761D01*
X189835771Y-134154761D02*
X189883390Y-134059523D01*
X189883390Y-134059523D02*
X189931009Y-134011904D01*
X189931009Y-134011904D02*
X190026247Y-133964285D01*
X190026247Y-133964285D02*
X190264342Y-133964285D01*
X190264342Y-133964285D02*
X190359580Y-134011904D01*
X190359580Y-134011904D02*
X190407200Y-134059523D01*
X190407200Y-134059523D02*
X190454819Y-134154761D01*
X190454819Y-134154761D02*
X190454819Y-134392856D01*
X190454819Y-134392856D02*
X190407200Y-134488094D01*
X190407200Y-134488094D02*
X190359580Y-134535713D01*
X200857142Y-128454819D02*
X200523809Y-127978628D01*
X200285714Y-128454819D02*
X200285714Y-127454819D01*
X200285714Y-127454819D02*
X200666666Y-127454819D01*
X200666666Y-127454819D02*
X200761904Y-127502438D01*
X200761904Y-127502438D02*
X200809523Y-127550057D01*
X200809523Y-127550057D02*
X200857142Y-127645295D01*
X200857142Y-127645295D02*
X200857142Y-127788152D01*
X200857142Y-127788152D02*
X200809523Y-127883390D01*
X200809523Y-127883390D02*
X200761904Y-127931009D01*
X200761904Y-127931009D02*
X200666666Y-127978628D01*
X200666666Y-127978628D02*
X200285714Y-127978628D01*
X201809523Y-128454819D02*
X201238095Y-128454819D01*
X201523809Y-128454819D02*
X201523809Y-127454819D01*
X201523809Y-127454819D02*
X201428571Y-127597676D01*
X201428571Y-127597676D02*
X201333333Y-127692914D01*
X201333333Y-127692914D02*
X201238095Y-127740533D01*
X202428571Y-127454819D02*
X202523809Y-127454819D01*
X202523809Y-127454819D02*
X202619047Y-127502438D01*
X202619047Y-127502438D02*
X202666666Y-127550057D01*
X202666666Y-127550057D02*
X202714285Y-127645295D01*
X202714285Y-127645295D02*
X202761904Y-127835771D01*
X202761904Y-127835771D02*
X202761904Y-128073866D01*
X202761904Y-128073866D02*
X202714285Y-128264342D01*
X202714285Y-128264342D02*
X202666666Y-128359580D01*
X202666666Y-128359580D02*
X202619047Y-128407200D01*
X202619047Y-128407200D02*
X202523809Y-128454819D01*
X202523809Y-128454819D02*
X202428571Y-128454819D01*
X202428571Y-128454819D02*
X202333333Y-128407200D01*
X202333333Y-128407200D02*
X202285714Y-128359580D01*
X202285714Y-128359580D02*
X202238095Y-128264342D01*
X202238095Y-128264342D02*
X202190476Y-128073866D01*
X202190476Y-128073866D02*
X202190476Y-127835771D01*
X202190476Y-127835771D02*
X202238095Y-127645295D01*
X202238095Y-127645295D02*
X202285714Y-127550057D01*
X202285714Y-127550057D02*
X202333333Y-127502438D01*
X202333333Y-127502438D02*
X202428571Y-127454819D01*
X157118333Y-130359580D02*
X157070714Y-130407200D01*
X157070714Y-130407200D02*
X156927857Y-130454819D01*
X156927857Y-130454819D02*
X156832619Y-130454819D01*
X156832619Y-130454819D02*
X156689762Y-130407200D01*
X156689762Y-130407200D02*
X156594524Y-130311961D01*
X156594524Y-130311961D02*
X156546905Y-130216723D01*
X156546905Y-130216723D02*
X156499286Y-130026247D01*
X156499286Y-130026247D02*
X156499286Y-129883390D01*
X156499286Y-129883390D02*
X156546905Y-129692914D01*
X156546905Y-129692914D02*
X156594524Y-129597676D01*
X156594524Y-129597676D02*
X156689762Y-129502438D01*
X156689762Y-129502438D02*
X156832619Y-129454819D01*
X156832619Y-129454819D02*
X156927857Y-129454819D01*
X156927857Y-129454819D02*
X157070714Y-129502438D01*
X157070714Y-129502438D02*
X157118333Y-129550057D01*
X157499286Y-129550057D02*
X157546905Y-129502438D01*
X157546905Y-129502438D02*
X157642143Y-129454819D01*
X157642143Y-129454819D02*
X157880238Y-129454819D01*
X157880238Y-129454819D02*
X157975476Y-129502438D01*
X157975476Y-129502438D02*
X158023095Y-129550057D01*
X158023095Y-129550057D02*
X158070714Y-129645295D01*
X158070714Y-129645295D02*
X158070714Y-129740533D01*
X158070714Y-129740533D02*
X158023095Y-129883390D01*
X158023095Y-129883390D02*
X157451667Y-130454819D01*
X157451667Y-130454819D02*
X158070714Y-130454819D01*
X232523809Y-136548628D02*
X232523809Y-137024819D01*
X232190476Y-136024819D02*
X232523809Y-136548628D01*
X232523809Y-136548628D02*
X232857142Y-136024819D01*
X233714285Y-137024819D02*
X233142857Y-137024819D01*
X233428571Y-137024819D02*
X233428571Y-136024819D01*
X233428571Y-136024819D02*
X233333333Y-136167676D01*
X233333333Y-136167676D02*
X233238095Y-136262914D01*
X233238095Y-136262914D02*
X233142857Y-136310533D01*
X199584819Y-123333333D02*
X200299104Y-123333333D01*
X200299104Y-123333333D02*
X200441961Y-123380952D01*
X200441961Y-123380952D02*
X200537200Y-123476190D01*
X200537200Y-123476190D02*
X200584819Y-123619047D01*
X200584819Y-123619047D02*
X200584819Y-123714285D01*
X199584819Y-122952380D02*
X199584819Y-122333333D01*
X199584819Y-122333333D02*
X199965771Y-122666666D01*
X199965771Y-122666666D02*
X199965771Y-122523809D01*
X199965771Y-122523809D02*
X200013390Y-122428571D01*
X200013390Y-122428571D02*
X200061009Y-122380952D01*
X200061009Y-122380952D02*
X200156247Y-122333333D01*
X200156247Y-122333333D02*
X200394342Y-122333333D01*
X200394342Y-122333333D02*
X200489580Y-122380952D01*
X200489580Y-122380952D02*
X200537200Y-122428571D01*
X200537200Y-122428571D02*
X200584819Y-122523809D01*
X200584819Y-122523809D02*
X200584819Y-122809523D01*
X200584819Y-122809523D02*
X200537200Y-122904761D01*
X200537200Y-122904761D02*
X200489580Y-122952380D01*
X168249819Y-123333333D02*
X168964104Y-123333333D01*
X168964104Y-123333333D02*
X169106961Y-123380952D01*
X169106961Y-123380952D02*
X169202200Y-123476190D01*
X169202200Y-123476190D02*
X169249819Y-123619047D01*
X169249819Y-123619047D02*
X169249819Y-123714285D01*
X168583152Y-122428571D02*
X169249819Y-122428571D01*
X168202200Y-122666666D02*
X168916485Y-122904761D01*
X168916485Y-122904761D02*
X168916485Y-122285714D01*
X260954819Y-127666666D02*
X260478628Y-127999999D01*
X260954819Y-128238094D02*
X259954819Y-128238094D01*
X259954819Y-128238094D02*
X259954819Y-127857142D01*
X259954819Y-127857142D02*
X260002438Y-127761904D01*
X260002438Y-127761904D02*
X260050057Y-127714285D01*
X260050057Y-127714285D02*
X260145295Y-127666666D01*
X260145295Y-127666666D02*
X260288152Y-127666666D01*
X260288152Y-127666666D02*
X260383390Y-127714285D01*
X260383390Y-127714285D02*
X260431009Y-127761904D01*
X260431009Y-127761904D02*
X260478628Y-127857142D01*
X260478628Y-127857142D02*
X260478628Y-128238094D01*
X259954819Y-127333332D02*
X259954819Y-126666666D01*
X259954819Y-126666666D02*
X260954819Y-127095237D01*
X229359580Y-135142857D02*
X229407200Y-135190476D01*
X229407200Y-135190476D02*
X229454819Y-135333333D01*
X229454819Y-135333333D02*
X229454819Y-135428571D01*
X229454819Y-135428571D02*
X229407200Y-135571428D01*
X229407200Y-135571428D02*
X229311961Y-135666666D01*
X229311961Y-135666666D02*
X229216723Y-135714285D01*
X229216723Y-135714285D02*
X229026247Y-135761904D01*
X229026247Y-135761904D02*
X228883390Y-135761904D01*
X228883390Y-135761904D02*
X228692914Y-135714285D01*
X228692914Y-135714285D02*
X228597676Y-135666666D01*
X228597676Y-135666666D02*
X228502438Y-135571428D01*
X228502438Y-135571428D02*
X228454819Y-135428571D01*
X228454819Y-135428571D02*
X228454819Y-135333333D01*
X228454819Y-135333333D02*
X228502438Y-135190476D01*
X228502438Y-135190476D02*
X228550057Y-135142857D01*
X229454819Y-134190476D02*
X229454819Y-134761904D01*
X229454819Y-134476190D02*
X228454819Y-134476190D01*
X228454819Y-134476190D02*
X228597676Y-134571428D01*
X228597676Y-134571428D02*
X228692914Y-134666666D01*
X228692914Y-134666666D02*
X228740533Y-134761904D01*
X228550057Y-133809523D02*
X228502438Y-133761904D01*
X228502438Y-133761904D02*
X228454819Y-133666666D01*
X228454819Y-133666666D02*
X228454819Y-133428571D01*
X228454819Y-133428571D02*
X228502438Y-133333333D01*
X228502438Y-133333333D02*
X228550057Y-133285714D01*
X228550057Y-133285714D02*
X228645295Y-133238095D01*
X228645295Y-133238095D02*
X228740533Y-133238095D01*
X228740533Y-133238095D02*
X228883390Y-133285714D01*
X228883390Y-133285714D02*
X229454819Y-133857142D01*
X229454819Y-133857142D02*
X229454819Y-133238095D01*
X209859580Y-136416666D02*
X209907200Y-136464285D01*
X209907200Y-136464285D02*
X209954819Y-136607142D01*
X209954819Y-136607142D02*
X209954819Y-136702380D01*
X209954819Y-136702380D02*
X209907200Y-136845237D01*
X209907200Y-136845237D02*
X209811961Y-136940475D01*
X209811961Y-136940475D02*
X209716723Y-136988094D01*
X209716723Y-136988094D02*
X209526247Y-137035713D01*
X209526247Y-137035713D02*
X209383390Y-137035713D01*
X209383390Y-137035713D02*
X209192914Y-136988094D01*
X209192914Y-136988094D02*
X209097676Y-136940475D01*
X209097676Y-136940475D02*
X209002438Y-136845237D01*
X209002438Y-136845237D02*
X208954819Y-136702380D01*
X208954819Y-136702380D02*
X208954819Y-136607142D01*
X208954819Y-136607142D02*
X209002438Y-136464285D01*
X209002438Y-136464285D02*
X209050057Y-136416666D01*
X208954819Y-136083332D02*
X208954819Y-135416666D01*
X208954819Y-135416666D02*
X209954819Y-135845237D01*
X168954819Y-128166666D02*
X168478628Y-128499999D01*
X168954819Y-128738094D02*
X167954819Y-128738094D01*
X167954819Y-128738094D02*
X167954819Y-128357142D01*
X167954819Y-128357142D02*
X168002438Y-128261904D01*
X168002438Y-128261904D02*
X168050057Y-128214285D01*
X168050057Y-128214285D02*
X168145295Y-128166666D01*
X168145295Y-128166666D02*
X168288152Y-128166666D01*
X168288152Y-128166666D02*
X168383390Y-128214285D01*
X168383390Y-128214285D02*
X168431009Y-128261904D01*
X168431009Y-128261904D02*
X168478628Y-128357142D01*
X168478628Y-128357142D02*
X168478628Y-128738094D01*
X168050057Y-127785713D02*
X168002438Y-127738094D01*
X168002438Y-127738094D02*
X167954819Y-127642856D01*
X167954819Y-127642856D02*
X167954819Y-127404761D01*
X167954819Y-127404761D02*
X168002438Y-127309523D01*
X168002438Y-127309523D02*
X168050057Y-127261904D01*
X168050057Y-127261904D02*
X168145295Y-127214285D01*
X168145295Y-127214285D02*
X168240533Y-127214285D01*
X168240533Y-127214285D02*
X168383390Y-127261904D01*
X168383390Y-127261904D02*
X168954819Y-127833332D01*
X168954819Y-127833332D02*
X168954819Y-127214285D01*
D11*
X66265000Y-123477064D02*
X66265000Y-123022936D01*
X67735000Y-123477064D02*
X67735000Y-123022936D01*
X149415000Y-121670000D02*
X149415000Y-124330000D01*
X152015000Y-121670000D02*
X149415000Y-121670000D01*
X152015000Y-121670000D02*
X152015000Y-124330000D01*
X152015000Y-124330000D02*
X149415000Y-124330000D01*
X153285000Y-121670000D02*
X154615000Y-121670000D01*
X154615000Y-121670000D02*
X154615000Y-123000000D01*
D10*
X215325000Y-126825000D02*
X215325000Y-127440000D01*
X215325000Y-126825000D02*
X216000000Y-126825000D01*
X215325000Y-137175000D02*
X215325000Y-136500000D01*
X215325000Y-137175000D02*
X216000000Y-137175000D01*
X225675000Y-126825000D02*
X225000000Y-126825000D01*
X225675000Y-126825000D02*
X225675000Y-127500000D01*
X225675000Y-137175000D02*
X225000000Y-137175000D01*
X225675000Y-137175000D02*
X225675000Y-136500000D01*
D11*
X214640000Y-127460000D02*
X214300000Y-126990000D01*
X214980000Y-126990000D01*
X214640000Y-127460000D01*
G36*
X214640000Y-127460000D02*
G01*
X214300000Y-126990000D01*
X214980000Y-126990000D01*
X214640000Y-127460000D01*
G37*
X165940000Y-133500000D02*
X165940000Y-131550000D01*
X165940000Y-133500000D02*
X165940000Y-135450000D01*
X171060000Y-133500000D02*
X171060000Y-131550000D01*
X171060000Y-133500000D02*
X171060000Y-135450000D01*
X166035000Y-136200000D02*
X165705000Y-136440000D01*
X165705000Y-135960000D01*
X166035000Y-136200000D01*
G36*
X166035000Y-136200000D02*
G01*
X165705000Y-136440000D01*
X165705000Y-135960000D01*
X166035000Y-136200000D01*
G37*
X199238748Y-133515000D02*
X199761252Y-133515000D01*
X199238748Y-134985000D02*
X199761252Y-134985000D01*
X180515000Y-126889564D02*
X180515000Y-126435436D01*
X181985000Y-126889564D02*
X181985000Y-126435436D01*
X66440000Y-129250000D02*
X66440000Y-127300000D01*
X66440000Y-129250000D02*
X66440000Y-131200000D01*
X71560000Y-129250000D02*
X71560000Y-127300000D01*
X71560000Y-129250000D02*
X71560000Y-131200000D01*
X66535000Y-131950000D02*
X66205000Y-132190000D01*
X66205000Y-131710000D01*
X66535000Y-131950000D01*
G36*
X66535000Y-131950000D02*
G01*
X66205000Y-132190000D01*
X66205000Y-131710000D01*
X66535000Y-131950000D01*
G37*
X27100000Y-143700000D02*
X27100000Y-145040000D01*
X27100000Y-147760000D02*
X27100000Y-149500000D01*
X27100000Y-149500000D02*
X36900000Y-149500000D01*
X28590000Y-143700000D02*
X27100000Y-143700000D01*
X35410000Y-143700000D02*
X35410000Y-142500000D01*
X35410000Y-143700000D02*
X36900000Y-143700000D01*
X36900000Y-143700000D02*
X36900000Y-145040000D01*
X36900000Y-149500000D02*
X36900000Y-147760000D01*
X177360436Y-125015000D02*
X177814564Y-125015000D01*
X177360436Y-126485000D02*
X177814564Y-126485000D01*
X177100000Y-143700000D02*
X177100000Y-145040000D01*
X177100000Y-147760000D02*
X177100000Y-149500000D01*
X177100000Y-149500000D02*
X186900000Y-149500000D01*
X178590000Y-143700000D02*
X177100000Y-143700000D01*
X185410000Y-143700000D02*
X185410000Y-142500000D01*
X185410000Y-143700000D02*
X186900000Y-143700000D01*
X186900000Y-143700000D02*
X186900000Y-145040000D01*
X186900000Y-149500000D02*
X186900000Y-147760000D01*
X237738748Y-126265000D02*
X238261252Y-126265000D01*
X237738748Y-127735000D02*
X238261252Y-127735000D01*
X206227064Y-125265000D02*
X205772936Y-125265000D01*
X206227064Y-126735000D02*
X205772936Y-126735000D01*
X187639564Y-125265000D02*
X187185436Y-125265000D01*
X187639564Y-126735000D02*
X187185436Y-126735000D01*
X256017064Y-125515000D02*
X255562936Y-125515000D01*
X256017064Y-126985000D02*
X255562936Y-126985000D01*
X210765000Y-133511252D02*
X210765000Y-132988748D01*
X212235000Y-133511252D02*
X212235000Y-132988748D01*
X219238748Y-123265000D02*
X219761252Y-123265000D01*
X219238748Y-124735000D02*
X219761252Y-124735000D01*
X260500000Y-131190000D02*
X258550000Y-131190000D01*
X260500000Y-131190000D02*
X262450000Y-131190000D01*
X260500000Y-136310000D02*
X258550000Y-136310000D01*
X260500000Y-136310000D02*
X262450000Y-136310000D01*
X257800000Y-131285000D02*
X257560000Y-130955000D01*
X258040000Y-130955000D01*
X257800000Y-131285000D01*
G36*
X257800000Y-131285000D02*
G01*
X257560000Y-130955000D01*
X258040000Y-130955000D01*
X257800000Y-131285000D01*
G37*
X262265000Y-128977064D02*
X262265000Y-128522936D01*
X263735000Y-128977064D02*
X263735000Y-128522936D01*
X52100000Y-143700000D02*
X52100000Y-145040000D01*
X52100000Y-147760000D02*
X52100000Y-149500000D01*
X52100000Y-149500000D02*
X61900000Y-149500000D01*
X53590000Y-143700000D02*
X52100000Y-143700000D01*
X60410000Y-143700000D02*
X60410000Y-142500000D01*
X60410000Y-143700000D02*
X61900000Y-143700000D01*
X61900000Y-143700000D02*
X61900000Y-145040000D01*
X61900000Y-149500000D02*
X61900000Y-147760000D01*
X244300000Y-121920000D02*
X244300000Y-124580000D01*
X257060000Y-121920000D02*
X244300000Y-121920000D01*
X257060000Y-121920000D02*
X257060000Y-124580000D01*
X257060000Y-124580000D02*
X244300000Y-124580000D01*
X258330000Y-121920000D02*
X259660000Y-121920000D01*
X259660000Y-121920000D02*
X259660000Y-123250000D01*
X202100000Y-143700000D02*
X202100000Y-145040000D01*
X202100000Y-147760000D02*
X202100000Y-149500000D01*
X202100000Y-149500000D02*
X211900000Y-149500000D01*
X203590000Y-143700000D02*
X202100000Y-143700000D01*
X210410000Y-143700000D02*
X210410000Y-142500000D01*
X210410000Y-143700000D02*
X211900000Y-143700000D01*
X211900000Y-143700000D02*
X211900000Y-145040000D01*
X211900000Y-149500000D02*
X211900000Y-147760000D01*
X152261252Y-125265000D02*
X151738748Y-125265000D01*
X152261252Y-126735000D02*
X151738748Y-126735000D01*
X220261252Y-139265000D02*
X219738748Y-139265000D01*
X220261252Y-140735000D02*
X219738748Y-140735000D01*
X158375000Y-121590000D02*
X158375000Y-122850000D01*
X158375000Y-128410000D02*
X158375000Y-127150000D01*
X162135000Y-121590000D02*
X158375000Y-121590000D01*
X162135000Y-128410000D02*
X158375000Y-128410000D01*
X163655000Y-128640000D02*
X163175000Y-128640000D01*
X163415000Y-128310000D01*
X163655000Y-128640000D01*
G36*
X163655000Y-128640000D02*
G01*
X163175000Y-128640000D01*
X163415000Y-128310000D01*
X163655000Y-128640000D01*
G37*
X256051252Y-127515000D02*
X255528748Y-127515000D01*
X256051252Y-128985000D02*
X255528748Y-128985000D01*
X252100000Y-143700000D02*
X252100000Y-145040000D01*
X252100000Y-147760000D02*
X252100000Y-149500000D01*
X252100000Y-149500000D02*
X261900000Y-149500000D01*
X253590000Y-143700000D02*
X252100000Y-143700000D01*
X260410000Y-143700000D02*
X260410000Y-142500000D01*
X260410000Y-143700000D02*
X261900000Y-143700000D01*
X261900000Y-143700000D02*
X261900000Y-145040000D01*
X261900000Y-149500000D02*
X261900000Y-147760000D01*
X237738748Y-130265000D02*
X238261252Y-130265000D01*
X237738748Y-131735000D02*
X238261252Y-131735000D01*
X227238748Y-123265000D02*
X227761252Y-123265000D01*
X227238748Y-124735000D02*
X227761252Y-124735000D01*
X102100000Y-143700000D02*
X102100000Y-145040000D01*
X102100000Y-147760000D02*
X102100000Y-149500000D01*
X102100000Y-149500000D02*
X111900000Y-149500000D01*
X103590000Y-143700000D02*
X102100000Y-143700000D01*
X110410000Y-143700000D02*
X110410000Y-142500000D01*
X110410000Y-143700000D02*
X111900000Y-143700000D01*
X111900000Y-143700000D02*
X111900000Y-145040000D01*
X111900000Y-149500000D02*
X111900000Y-147760000D01*
X227100000Y-143700000D02*
X227100000Y-145040000D01*
X227100000Y-147760000D02*
X227100000Y-149500000D01*
X227100000Y-149500000D02*
X236900000Y-149500000D01*
X228590000Y-143700000D02*
X227100000Y-143700000D01*
X235410000Y-143700000D02*
X235410000Y-142500000D01*
X235410000Y-143700000D02*
X236900000Y-143700000D01*
X236900000Y-143700000D02*
X236900000Y-145040000D01*
X236900000Y-149500000D02*
X236900000Y-147760000D01*
X190940000Y-132500000D02*
X190940000Y-130550000D01*
X190940000Y-132500000D02*
X190940000Y-134450000D01*
X196060000Y-132500000D02*
X196060000Y-130550000D01*
X196060000Y-132500000D02*
X196060000Y-134450000D01*
X196295000Y-130040000D02*
X195965000Y-129800000D01*
X196295000Y-129560000D01*
X196295000Y-130040000D01*
G36*
X196295000Y-130040000D02*
G01*
X195965000Y-129800000D01*
X196295000Y-129560000D01*
X196295000Y-130040000D01*
G37*
X152100000Y-143700000D02*
X152100000Y-145040000D01*
X152100000Y-147760000D02*
X152100000Y-149500000D01*
X152100000Y-149500000D02*
X161900000Y-149500000D01*
X153590000Y-143700000D02*
X152100000Y-143700000D01*
X160410000Y-143700000D02*
X160410000Y-142500000D01*
X160410000Y-143700000D02*
X161900000Y-143700000D01*
X161900000Y-143700000D02*
X161900000Y-145040000D01*
X161900000Y-149500000D02*
X161900000Y-147760000D01*
X201272936Y-125265000D02*
X201727064Y-125265000D01*
X201272936Y-126735000D02*
X201727064Y-126735000D01*
X160023748Y-129265000D02*
X160546252Y-129265000D01*
X160023748Y-130735000D02*
X160546252Y-130735000D01*
X230475000Y-132135000D02*
X230475000Y-125885000D01*
X235525000Y-132135000D02*
X235525000Y-125885000D01*
X230475000Y-125885000D02*
G75*
G02*
X235525000Y-125885000I2525000J0D01*
G01*
X235525000Y-132135000D02*
G75*
G02*
X230475000Y-132135000I-2525000J0D01*
G01*
X201130000Y-124330000D02*
X201130000Y-123000000D01*
X202460000Y-124330000D02*
X201130000Y-124330000D01*
X203730000Y-121670000D02*
X208870000Y-121670000D01*
X203730000Y-124330000D02*
X203730000Y-121670000D01*
X203730000Y-124330000D02*
X208870000Y-124330000D01*
X208870000Y-124330000D02*
X208870000Y-121670000D01*
X77100000Y-143700000D02*
X77100000Y-145040000D01*
X77100000Y-147760000D02*
X77100000Y-149500000D01*
X77100000Y-149500000D02*
X86900000Y-149500000D01*
X78590000Y-143700000D02*
X77100000Y-143700000D01*
X85410000Y-143700000D02*
X85410000Y-142500000D01*
X85410000Y-143700000D02*
X86900000Y-143700000D01*
X86900000Y-143700000D02*
X86900000Y-145040000D01*
X86900000Y-149500000D02*
X86900000Y-147760000D01*
X169795000Y-124330000D02*
X169795000Y-123000000D01*
X171125000Y-124330000D02*
X169795000Y-124330000D01*
X172395000Y-121670000D02*
X190235000Y-121670000D01*
X172395000Y-124330000D02*
X172395000Y-121670000D01*
X172395000Y-124330000D02*
X190235000Y-124330000D01*
X190235000Y-124330000D02*
X190235000Y-121670000D01*
X127100000Y-143700000D02*
X127100000Y-145040000D01*
X127100000Y-147760000D02*
X127100000Y-149500000D01*
X127100000Y-149500000D02*
X136900000Y-149500000D01*
X128590000Y-143700000D02*
X127100000Y-143700000D01*
X135410000Y-143700000D02*
X135410000Y-142500000D01*
X135410000Y-143700000D02*
X136900000Y-143700000D01*
X136900000Y-143700000D02*
X136900000Y-145040000D01*
X136900000Y-149500000D02*
X136900000Y-147760000D01*
X258055000Y-127477064D02*
X258055000Y-127022936D01*
X259525000Y-127477064D02*
X259525000Y-127022936D01*
X228265000Y-131761252D02*
X228265000Y-131238748D01*
X229735000Y-131761252D02*
X229735000Y-131238748D01*
X208765000Y-132988748D02*
X208765000Y-133511252D01*
X210235000Y-132988748D02*
X210235000Y-133511252D01*
X165765000Y-128227064D02*
X165765000Y-127772936D01*
X167235000Y-128227064D02*
X167235000Y-127772936D01*
%LPC*%
D12*
X119000000Y-125000000D03*
D13*
X67000000Y-124162500D03*
X67000000Y-122337500D03*
D14*
X153285000Y-123000000D03*
D15*
X150745000Y-123000000D03*
D16*
X214800000Y-128000000D03*
X214800000Y-128800000D03*
X214800000Y-129600000D03*
X214800000Y-130400000D03*
X214800000Y-131200000D03*
X214800000Y-132000000D03*
X214800000Y-132800000D03*
X214800000Y-133600000D03*
X214800000Y-134400000D03*
X214800000Y-135200000D03*
X214800000Y-136000000D03*
D17*
X216500000Y-137700000D03*
X217300000Y-137700000D03*
X218100000Y-137700000D03*
X218900000Y-137700000D03*
X219700000Y-137700000D03*
X220500000Y-137700000D03*
X221300000Y-137700000D03*
X222100000Y-137700000D03*
X222900000Y-137700000D03*
X223700000Y-137700000D03*
X224500000Y-137700000D03*
D16*
X226200000Y-136000000D03*
X226200000Y-135200000D03*
X226200000Y-134400000D03*
X226200000Y-133600000D03*
X226200000Y-132800000D03*
X226200000Y-132000000D03*
X226200000Y-131200000D03*
X226200000Y-130400000D03*
X226200000Y-129600000D03*
X226200000Y-128800000D03*
X226200000Y-128000000D03*
D17*
X224500000Y-126300000D03*
X223700000Y-126300000D03*
X222900000Y-126300000D03*
X222100000Y-126300000D03*
X221300000Y-126300000D03*
X220500000Y-126300000D03*
X219700000Y-126300000D03*
X218900000Y-126300000D03*
X218100000Y-126300000D03*
X217300000Y-126300000D03*
X216500000Y-126300000D03*
D18*
X166595000Y-135975000D03*
X167865000Y-135975000D03*
X169135000Y-135975000D03*
X170405000Y-135975000D03*
X170405000Y-131025000D03*
X169135000Y-131025000D03*
X167865000Y-131025000D03*
X166595000Y-131025000D03*
D19*
X198550000Y-134250000D03*
X200450000Y-134250000D03*
D13*
X181250000Y-127575000D03*
X181250000Y-125750000D03*
D18*
X67095000Y-131725000D03*
X68365000Y-131725000D03*
X69635000Y-131725000D03*
X70905000Y-131725000D03*
X70905000Y-126775000D03*
X69635000Y-126775000D03*
X68365000Y-126775000D03*
X67095000Y-126775000D03*
D20*
X35000000Y-143150000D03*
X34500000Y-143150000D03*
X34000000Y-143150000D03*
X33500000Y-143150000D03*
X33000000Y-143150000D03*
X32500000Y-143150000D03*
X32000000Y-143150000D03*
X31500000Y-143150000D03*
X31000000Y-143150000D03*
X30500000Y-143150000D03*
X30000000Y-143150000D03*
X29500000Y-143150000D03*
X29000000Y-143150000D03*
D21*
X27100000Y-146400000D03*
X36900000Y-146400000D03*
D12*
X69000000Y-145000000D03*
D22*
X176675000Y-125750000D03*
X178500000Y-125750000D03*
D20*
X185000000Y-143150000D03*
X184500000Y-143150000D03*
X184000000Y-143150000D03*
X183500000Y-143150000D03*
X183000000Y-143150000D03*
X182500000Y-143150000D03*
X182000000Y-143150000D03*
X181500000Y-143150000D03*
X181000000Y-143150000D03*
X180500000Y-143150000D03*
X180000000Y-143150000D03*
X179500000Y-143150000D03*
X179000000Y-143150000D03*
D21*
X177100000Y-146400000D03*
X186900000Y-146400000D03*
D19*
X237050000Y-127000000D03*
X238950000Y-127000000D03*
D23*
X206912500Y-126000000D03*
X205087500Y-126000000D03*
X188325000Y-126000000D03*
X186500000Y-126000000D03*
X256702500Y-126250000D03*
X254877500Y-126250000D03*
D24*
X211500000Y-134200000D03*
X211500000Y-132300000D03*
D19*
X218550000Y-124000000D03*
X220450000Y-124000000D03*
D25*
X258025000Y-131845000D03*
X258025000Y-133115000D03*
X258025000Y-134385000D03*
X258025000Y-135655000D03*
X262975000Y-135655000D03*
X262975000Y-134385000D03*
X262975000Y-133115000D03*
X262975000Y-131845000D03*
D13*
X263000000Y-129662500D03*
X263000000Y-127837500D03*
D12*
X267000000Y-123000000D03*
D20*
X60000000Y-143150000D03*
X59500000Y-143150000D03*
X59000000Y-143150000D03*
X58500000Y-143150000D03*
X58000000Y-143150000D03*
X57500000Y-143150000D03*
X57000000Y-143150000D03*
X56500000Y-143150000D03*
X56000000Y-143150000D03*
X55500000Y-143150000D03*
X55000000Y-143150000D03*
X54500000Y-143150000D03*
X54000000Y-143150000D03*
D21*
X52100000Y-146400000D03*
X61900000Y-146400000D03*
D14*
X258330000Y-123250000D03*
D15*
X255790000Y-123250000D03*
X253250000Y-123250000D03*
X250710000Y-123250000D03*
X248170000Y-123250000D03*
X245630000Y-123250000D03*
D20*
X210000000Y-143150000D03*
X209500000Y-143150000D03*
X209000000Y-143150000D03*
X208500000Y-143150000D03*
X208000000Y-143150000D03*
X207500000Y-143150000D03*
X207000000Y-143150000D03*
X206500000Y-143150000D03*
X206000000Y-143150000D03*
X205500000Y-143150000D03*
X205000000Y-143150000D03*
X204500000Y-143150000D03*
X204000000Y-143150000D03*
D21*
X202100000Y-146400000D03*
X211900000Y-146400000D03*
D26*
X152950000Y-126000000D03*
X151050000Y-126000000D03*
X220950000Y-140000000D03*
X219050000Y-140000000D03*
D27*
X163435000Y-127300000D03*
X163435000Y-125000000D03*
D28*
X157135000Y-125000000D03*
D27*
X163435000Y-122700000D03*
D26*
X256740000Y-128250000D03*
X254840000Y-128250000D03*
D20*
X260000000Y-143150000D03*
X259500000Y-143150000D03*
X259000000Y-143150000D03*
X258500000Y-143150000D03*
X258000000Y-143150000D03*
X257500000Y-143150000D03*
X257000000Y-143150000D03*
X256500000Y-143150000D03*
X256000000Y-143150000D03*
X255500000Y-143150000D03*
X255000000Y-143150000D03*
X254500000Y-143150000D03*
X254000000Y-143150000D03*
D21*
X252100000Y-146400000D03*
X261900000Y-146400000D03*
D19*
X237050000Y-131000000D03*
X238950000Y-131000000D03*
X226550000Y-124000000D03*
X228450000Y-124000000D03*
D20*
X110000000Y-143150000D03*
X109500000Y-143150000D03*
X109000000Y-143150000D03*
X108500000Y-143150000D03*
X108000000Y-143150000D03*
X107500000Y-143150000D03*
X107000000Y-143150000D03*
X106500000Y-143150000D03*
X106000000Y-143150000D03*
X105500000Y-143150000D03*
X105000000Y-143150000D03*
X104500000Y-143150000D03*
X104000000Y-143150000D03*
D21*
X102100000Y-146400000D03*
X111900000Y-146400000D03*
D20*
X235000000Y-143150000D03*
X234500000Y-143150000D03*
X234000000Y-143150000D03*
X233500000Y-143150000D03*
X233000000Y-143150000D03*
X232500000Y-143150000D03*
X232000000Y-143150000D03*
X231500000Y-143150000D03*
X231000000Y-143150000D03*
X230500000Y-143150000D03*
X230000000Y-143150000D03*
X229500000Y-143150000D03*
X229000000Y-143150000D03*
D21*
X227100000Y-146400000D03*
X236900000Y-146400000D03*
D29*
X195405000Y-130025000D03*
X194135000Y-130025000D03*
X192865000Y-130025000D03*
X191595000Y-130025000D03*
X191595000Y-134975000D03*
X192865000Y-134975000D03*
X194135000Y-134975000D03*
X195405000Y-134975000D03*
D12*
X194000000Y-145000000D03*
X44000000Y-125000000D03*
D20*
X160000000Y-143150000D03*
X159500000Y-143150000D03*
X159000000Y-143150000D03*
X158500000Y-143150000D03*
X158000000Y-143150000D03*
X157500000Y-143150000D03*
X157000000Y-143150000D03*
X156500000Y-143150000D03*
X156000000Y-143150000D03*
X155500000Y-143150000D03*
X155000000Y-143150000D03*
X154500000Y-143150000D03*
X154000000Y-143150000D03*
D21*
X152100000Y-146400000D03*
X161900000Y-146400000D03*
D22*
X200587500Y-126000000D03*
X202412500Y-126000000D03*
D19*
X159335000Y-130000000D03*
X161235000Y-130000000D03*
D30*
X233000000Y-131450000D03*
X233000000Y-126570000D03*
D14*
X202460000Y-123000000D03*
D15*
X205000000Y-123000000D03*
X207540000Y-123000000D03*
D20*
X85000000Y-143150000D03*
X84500000Y-143150000D03*
X84000000Y-143150000D03*
X83500000Y-143150000D03*
X83000000Y-143150000D03*
X82500000Y-143150000D03*
X82000000Y-143150000D03*
X81500000Y-143150000D03*
X81000000Y-143150000D03*
X80500000Y-143150000D03*
X80000000Y-143150000D03*
X79500000Y-143150000D03*
X79000000Y-143150000D03*
D21*
X77100000Y-146400000D03*
X86900000Y-146400000D03*
D14*
X171125000Y-123000000D03*
D15*
X173665000Y-123000000D03*
X176205000Y-123000000D03*
X178745000Y-123000000D03*
X181285000Y-123000000D03*
X183825000Y-123000000D03*
X186365000Y-123000000D03*
X188905000Y-123000000D03*
D20*
X135000000Y-143150000D03*
X134500000Y-143150000D03*
X134000000Y-143150000D03*
X133500000Y-143150000D03*
X133000000Y-143150000D03*
X132500000Y-143150000D03*
X132000000Y-143150000D03*
X131500000Y-143150000D03*
X131000000Y-143150000D03*
X130500000Y-143150000D03*
X130000000Y-143150000D03*
X129500000Y-143150000D03*
X129000000Y-143150000D03*
D21*
X127100000Y-146400000D03*
X136900000Y-146400000D03*
D13*
X258790000Y-128162500D03*
X258790000Y-126337500D03*
D24*
X229000000Y-132450000D03*
X229000000Y-130550000D03*
D31*
X209500000Y-132300000D03*
X209500000Y-134200000D03*
D13*
X166500000Y-128912500D03*
X166500000Y-127087500D03*
%LPD*%
M02*
